<?xml version="1.0" encoding="UTF-8" standalone="no"?>
<!-- Created with Inkscape (http://www.inkscape.org/) -->

<svg
   xmlns:dc="http://purl.org/dc/elements/1.1/"
   xmlns:cc="http://creativecommons.org/ns#"
   xmlns:rdf="http://www.w3.org/1999/02/22-rdf-syntax-ns#"
   xmlns:svg="http://www.w3.org/2000/svg"
   xmlns="http://www.w3.org/2000/svg"
   xmlns:sodipodi="http://sodipodi.sourceforge.net/DTD/sodipodi-0.dtd"
   xmlns:inkscape="http://www.inkscape.org/namespaces/inkscape"
   version="1.1"
   id="svg2"
   xml:space="preserve"
   width="75.340485"
   height="96.652466"
   viewBox="0 0 75.340485 96.652465"
   sodipodi:docname="DuckWho.svg"
   inkscape:version="0.92.2 5c3e80d, 2017-08-06"><metadata
     id="metadata8"><rdf:RDF><cc:Work
         rdf:about=""><dc:format>image/svg+xml</dc:format><dc:type
           rdf:resource="http://purl.org/dc/dcmitype/StillImage" /><dc:title /></cc:Work></rdf:RDF></metadata><defs
     id="defs6" /><sodipodi:namedview
     pagecolor="#ffffff"
     bordercolor="#666666"
     borderopacity="1"
     objecttolerance="10"
     gridtolerance="10"
     guidetolerance="10"
     inkscape:pageopacity="0"
     inkscape:pageshadow="2"
     inkscape:window-width="640"
     inkscape:window-height="480"
     id="namedview4"
     showgrid="false"
     inkscape:zoom="6.4242333"
     inkscape:cx="42.346368"
     inkscape:cy="55.469607"
     inkscape:current-layer="g10"
     inkscape:snap-global="false"
     fit-margin-top="0"
     fit-margin-left="0"
     fit-margin-right="0"
     fit-margin-bottom="0" /><g
     id="g10"
     inkscape:groupmode="layer"
     inkscape:label="james"
     transform="matrix(1.3333333,0,0,-1.3333333,-0.91556358,100.12298)"><rect
       style="opacity:1;fill:#e6e6e6;fill-opacity:1;fill-rule:evenodd;stroke:none;stroke-width:5.6692915"
       id="rect29"
       width="82.188797"
       height="92.579147"
       x="-11.571599"
       y="-83.857719"
       transform="scale(1,-1)" /><path
       inkscape:connector-curvature="0"
       id="path14"
       style="fill:#ffe1b4;fill-opacity:1;fill-rule:nonzero;stroke:none"
       d="M 12.188,32.456 C 5.215,31.238 -5.895,18.624 5.84,7.398 17.602,-3.825 78.805,3.687 49.18,40.226 24.238,26.816 32.797,39.089 12.188,32.456 Z" /><path
       inkscape:connector-curvature="0"
       id="path16"
       style="fill:#ffe1b4;fill-opacity:1;fill-rule:nonzero;stroke:none"
       d="m 37.332,42.519 c 0,9.785 -6.344,17.719 -14.172,17.719 -7.828,0 -14.176,-7.934 -14.176,-17.719 0,-9.785 6.348,-17.715 14.176,-17.715 7.828,0 14.172,7.93 14.172,17.715 z" /><path
       inkscape:connector-curvature="0"
       id="path18"
       style="fill:#c06e1c;fill-opacity:1;fill-rule:nonzero;stroke:none"
       d="M 9.156,41.726 C 15.875,43.37 12.984,36.937 23.441,38.835 0,24.093 5.273,38.808 9.156,41.726 Z" /><path
       inkscape:connector-curvature="0"
       id="path20"
       style="fill:#fffdd9;fill-opacity:1;fill-rule:nonzero;stroke:none"
       d="m 23.289,43.988 c 0.668,1.836 0.149,3.714 -1.168,4.195 -1.312,0.476 -2.922,-0.625 -3.59,-2.465 -0.668,-1.84 -0.148,-3.719 1.168,-4.195 1.313,-0.481 2.922,0.625 3.59,2.465 z" /><path
       inkscape:connector-curvature="0"
       id="path22"
       style="fill:#000000;fill-opacity:1;fill-rule:nonzero;stroke:none"
       d="m 22.562,43.949 c 0.383,1.05 0.266,2.058 -0.257,2.246 -0.528,0.191 -1.262,-0.504 -1.645,-1.555 -0.383,-1.051 -0.265,-2.055 0.262,-2.246 0.523,-0.192 1.258,0.504 1.64,1.555 z" /><path
       inkscape:connector-curvature="0"
       id="path24"
       style="fill:#fffdd9;fill-opacity:1;fill-rule:nonzero;stroke:none"
       d="m 15.012,46.167 c 0.613,1.684 0.172,3.387 -0.985,3.809 -1.156,0.422 -2.589,-0.602 -3.203,-2.281 -0.609,-1.684 -0.172,-3.387 0.988,-3.809 1.157,-0.422 2.586,0.602 3.2,2.281 z" /><path
       inkscape:connector-curvature="0"
       id="path26"
       style="fill:#000000;fill-opacity:1;fill-rule:nonzero;stroke:none"
       d="m 14.383,46.097 c 0.344,0.945 0.281,1.836 -0.137,1.988 -0.422,0.153 -1.043,-0.488 -1.387,-1.433 -0.343,-0.946 -0.281,-1.836 0.137,-1.993 0.422,-0.152 1.043,0.493 1.387,1.438 z" /><path
       inkscape:connector-curvature="0"
       id="path28"
       style="fill:#fabfad;fill-opacity:1;fill-rule:nonzero;stroke:none"
       d="M 11.535,32.456 C 5.215,31.238 -5.895,18.624 5.84,7.398 17.602,-3.825 78.805,3.687 49.18,40.226 24.238,27.667 33.211,35.284 14.789,27.378 Z" /><path
       inkscape:connector-curvature="0"
       id="path30"
       style="fill:#d59668;fill-opacity:1;fill-rule:nonzero;stroke:none"
       d="M 11.535,32.456 C 5.215,31.238 -5.895,18.624 5.84,7.398 17.602,-3.825 78.805,3.687 49.18,40.226 22.594,26.816 32.797,39.062 12.188,19.843 Z" /><path
       inkscape:connector-curvature="0"
       id="path32"
       style="fill:#8b4513;fill-opacity:1;fill-rule:nonzero;stroke:none;stroke-width:1"
       d="m 12.160283,16.445527 c 0,0.730125 -0.401217,1.318876 -0.898776,1.318876 -0.495024,0 -0.896241,-0.588751 -0.896241,-1.318876 0,-0.726404 0.401217,-1.318875 0.896241,-1.318875 0.497559,0 0.898776,0.592471 0.898776,1.318875 z m -0.537491,-3.952905 c 0,0.726404 -0.403118,1.318875 -0.898142,1.318875 -0.498193,0 -0.8987762,-0.592471 -0.8987762,-1.318875 0,-0.730125 0.4005832,-1.318876 0.8987762,-1.318876 0.495024,0 0.898142,0.588751 0.898142,1.318876 z M 11.442149,8.5359948 c 0,0.730125 -0.400583,1.3188758 -0.898776,1.3188758 -0.495024,0 -0.8987756,-0.5887508 -0.8987756,-1.3188758 0,-0.7264046 0.4037516,-1.3188754 0.8987756,-1.3188754 0.498193,0 0.898776,0.5924708 0.898776,1.3188754 z" /><path
       inkscape:connector-curvature="0"
       id="path34"
       style="fill:#5d412f;fill-opacity:1;fill-rule:nonzero;stroke:none"
       d="M 37.484,43.663 C 41.652,65.027 8.246,71.378 9.223,45.687 9.688,53.636 19.926,55.941 19.926,55.941 29.184,44.656 35.562,41.714 37.484,43.663 Z" /><path
       inkscape:connector-curvature="0"
       id="path36"
       style="fill:#8b4513;fill-opacity:1;fill-rule:nonzero;stroke:none"
       d="M 11.535,32.456 C 9.457,32.074 8.156,30.87 8.156,30.87 l 2.082,-1.421 -2.488,-2.196 4.484,-7.691 14.172,7.027 -1.504,1.961 4.571,-0.238 -1.032,3.902 C 25.094,31.195 22.406,29.195 12.102,19.585 Z" /><path
       style="fill:#b22222;stroke-width:1"
       d="m 19.089735,23.567102 c -0.0022,0.0217 0.118976,0.190549 0.269329,0.375225 0.326905,0.401526 0.482431,0.738401 0.636985,1.37974 0.193867,0.804468 0.206423,0.951973 0.126139,1.48193 -0.03915,0.258107 -0.09954,0.515542 -0.134248,0.572071 -0.140428,0.228559 -1.314234,0.551694 -2.159658,0.594533 -0.50736,0.02571 -1.51453,-0.0628 -2.053107,-0.18044 l -0.302308,-0.06602 -0.250259,0.120502 c -0.328613,0.158235 -0.520609,0.200844 -0.887054,0.196867 -0.166423,-0.0018 -0.351305,0.0099 -0.410857,0.02608 -0.05953,0.01616 -0.225981,0.144467 -0.369849,0.285144 -0.417297,0.408032 -0.771336,0.653918 -1.470861,1.021523 -0.980184,0.515097 -1.480992,0.66885 -2.019534,0.620018 -0.3580388,-0.03246 -0.4445764,-0.07987 -0.5570592,-0.305147 -0.1423369,-0.285074 -0.3580699,-1.101752 -0.410603,-1.554365 -0.048569,-0.418495 0.00362,-1.409832 0.1001437,-1.901918 0.083181,-0.424188 0.2619782,-0.525389 1.1010855,-0.62328 0.576283,-0.06723 1.433094,-0.05277 2.116277,0.03571 0.483562,0.06263 0.537133,0.07784 0.767759,0.218005 0.136365,0.08287 0.346985,0.236638 0.468049,0.3417 0.121071,0.105066 0.247743,0.193854 0.281497,0.197312 0.03373,0.0035 0.130024,-0.03142 0.213938,-0.07751 0.170595,-0.09369 0.533255,-0.160068 0.869343,-0.15911 0.122532,3.49e-4 0.26284,-0.0032 0.311792,-0.008 0.08711,-0.0084 0.231239,-0.186488 0.512885,-0.633686 0.37221,-0.591021 1.331767,-1.378538 2.228377,-1.82886 0.448772,-0.225395 0.452151,-0.226297 0.738336,-0.196979 0.1618,0.01658 0.28574,0.0467 0.283467,0.0689 z"
       id="path1021"
       inkscape:connector-curvature="0"
       sodipodi:nodetypes="ccscccscccccsccccsscsscscccscc" /><path
       style="opacity:1;fill:#941c1c;fill-opacity:1;fill-rule:evenodd;stroke:none;stroke-width:5.99999952;stroke-linecap:round;stroke-linejoin:round;stroke-miterlimit:4;stroke-dasharray:none;stroke-dashoffset:0;stroke-opacity:1"
       d="m 34.241971,56.547688 a 2.8156644,8.6012754 74.145313 0 0 -9.043298,-0.358694 2.8156644,8.6012754 74.145313 0 0 -7.504827,5.058406 2.8156644,8.6012754 74.145313 0 0 9.043298,0.358694 2.8156644,8.6012754 74.145313 0 0 7.504827,-5.058406 z"
       id="ellipse1027"
       inkscape:connector-curvature="0" /><path
       style="fill:#941c1c;fill-opacity:1;fill-rule:evenodd;stroke:none;stroke-width:0.74999994px;stroke-linecap:butt;stroke-linejoin:miter;stroke-opacity:1"
       d="M 23.397597,73.463156 17.588026,61.157162 34.229753,56.784971 35.809704,70.256369 Z"
       id="path1033"
       inkscape:connector-curvature="0" /><path
       style="opacity:1;fill:#b22222;fill-opacity:1;fill-rule:evenodd;stroke:none;stroke-width:5.99999952;stroke-linecap:round;stroke-linejoin:round;stroke-miterlimit:4;stroke-dasharray:none;stroke-dashoffset:0;stroke-opacity:1"
       d="m 35.809704,70.256369 a 2.6228106,6.441314 74.145313 0 0 -6.91282,-0.763275 2.6228106,6.441314 74.145313 0 0 -5.479723,4.28279 2.6228106,6.441314 74.145313 0 0 6.91282,0.763275 2.6228106,6.441314 74.145313 0 0 5.479723,-4.28279 z"
       id="path1025"
       inkscape:connector-curvature="0" /><path
       style="opacity:1;fill:#000000;fill-opacity:1;fill-rule:evenodd;stroke:none;stroke-width:5.99999952;stroke-linecap:round;stroke-linejoin:round;stroke-miterlimit:4;stroke-dasharray:none;stroke-dashoffset:0;stroke-opacity:1"
       d="m 30.089163,73.901384 a 1.1645098,0.75818649 74.145313 0 1 -1.04785,-0.913215 1.1645098,0.75818649 74.145313 0 1 0.411581,-1.327151 1.1645098,0.75818649 74.145313 0 1 0.10897,-0.01729 L 32.580147,68.734914 31.81229,64.2449 a 1.7816417,1.1599873 74.145313 0 1 -1.069894,-1.363052 1.7816417,1.1599873 74.145313 0 1 0.62928,-2.030346 1.7816417,1.1599873 74.145313 0 1 1.602515,1.396511 1.7816417,1.1599873 74.145313 0 1 -0.363225,1.892666 l 0.834492,4.878143 -3.175633,3.060852 a 1.1645098,0.75818649 74.145313 0 1 0.230276,0.494232 1.1645098,0.75818649 74.145313 0 1 -0.410935,1.327512 z"
       id="path1035"
       inkscape:connector-curvature="0" /><ellipse
       style="opacity:1;fill:#939393;fill-opacity:1;fill-rule:evenodd;stroke:none;stroke-width:2.25;stroke-linecap:round;stroke-linejoin:round;stroke-miterlimit:4;stroke-dasharray:none;stroke-dashoffset:0;stroke-opacity:1"
       id="path1046"
       cx="15.076282"
       cy="-28.317385"
       transform="matrix(0.82851462,-0.55996743,-0.55996743,-0.82851462,0,0)"
       rx="1.5718952"
       ry="10.717468" /><ellipse
       style="opacity:1;fill:#adff2f;fill-opacity:1;fill-rule:evenodd;stroke:none;stroke-width:2.25;stroke-linecap:round;stroke-linejoin:round;stroke-miterlimit:4;stroke-dasharray:none;stroke-dashoffset:0;stroke-opacity:1"
       id="path1048"
       cx="13.108365"
       cy="-35.221687"
       transform="matrix(0.80942877,-0.58721807,-0.58721807,-0.80942877,0,0)"
       rx="0.32335818"
       ry="3.772512" /><ellipse
       ry="3.772512"
       rx="0.32335818"
       transform="matrix(0.80942877,-0.58721807,-0.58721807,-0.80942877,0,0)"
       cy="-35.221687"
       cx="13.858365"
       id="ellipse1050"
       style="opacity:1;fill:#adff2f;fill-opacity:1;fill-rule:evenodd;stroke:none;stroke-width:2.25;stroke-linecap:round;stroke-linejoin:round;stroke-miterlimit:4;stroke-dasharray:none;stroke-dashoffset:0;stroke-opacity:1" /><ellipse
       style="opacity:1;fill:#adff2f;fill-opacity:1;fill-rule:evenodd;stroke:none;stroke-width:2.25;stroke-linecap:round;stroke-linejoin:round;stroke-miterlimit:4;stroke-dasharray:none;stroke-dashoffset:0;stroke-opacity:1"
       id="ellipse1052"
       cx="14.608365"
       cy="-35.221687"
       transform="matrix(0.80942877,-0.58721807,-0.58721807,-0.80942877,0,0)"
       rx="0.32335818"
       ry="3.772512" /><ellipse
       ry="3.772512"
       rx="0.32335818"
       transform="matrix(0.80942877,-0.58721807,-0.58721807,-0.80942877,0,0)"
       cy="-35.221687"
       cx="14.608365"
       id="ellipse1054"
       style="opacity:1;fill:#adff2f;fill-opacity:1;fill-rule:evenodd;stroke:none;stroke-width:2.25;stroke-linecap:round;stroke-linejoin:round;stroke-miterlimit:4;stroke-dasharray:none;stroke-dashoffset:0;stroke-opacity:1" /></g></svg>