<?xml version="1.0" encoding="UTF-8" standalone="no"?>
<!-- Created with Inkscape (http://www.inkscape.org/) -->

<svg
   xmlns:dc="http://purl.org/dc/elements/1.1/"
   xmlns:cc="http://creativecommons.org/ns#"
   xmlns:rdf="http://www.w3.org/1999/02/22-rdf-syntax-ns#"
   xmlns:svg="http://www.w3.org/2000/svg"
   xmlns="http://www.w3.org/2000/svg"
   xmlns:sodipodi="http://sodipodi.sourceforge.net/DTD/sodipodi-0.dtd"
   xmlns:inkscape="http://www.inkscape.org/namespaces/inkscape"
   width="620.42987"
   height="773.9469"
   id="svg6764"
   version="1.1"
   inkscape:version="0.92.2 5c3e80d, 2017-08-06"
   sodipodi:docname="GirlWithPearlEarring.svg">
  <sodipodi:namedview
     id="base"
     pagecolor="#ffffff"
     bordercolor="#666666"
     borderopacity="1.0"
     inkscape:pageopacity="0.0"
     inkscape:pageshadow="2"
     inkscape:zoom="0.23049497"
     inkscape:cx="-730.49901"
     inkscape:cy="633.08538"
     inkscape:document-units="px"
     inkscape:current-layer="layer1"
     showgrid="false"
     fit-margin-top="0"
     fit-margin-left="0"
     fit-margin-right="0"
     fit-margin-bottom="0"
     inkscape:window-width="1280"
     inkscape:window-height="723"
     inkscape:window-x="0"
     inkscape:window-y="24"
     inkscape:window-maximized="1"
     inkscape:snap-global="false" />
  <defs
     id="defs6766">
    <clipPath
       id="clipPath137"
       clipPathUnits="userSpaceOnUse">
      <path
         inkscape:connector-curvature="0"
         id="path135"
         d="M 0,0 H 595 V 462 H 0 Z" />
    </clipPath>
    <radialGradient
       fx="40.000519"
       fy="60.000759"
       cx="50.000641"
       cy="50.000641"
       r="50.000641"
       gradientUnits="userSpaceOnUse"
       id="radialGradient1697">
      <stop
         style="stop-opacity:1;stop-color:#d9ffff"
         offset="0"
         id="stop1687" />
      <stop
         style="stop-opacity:1;stop-color:#00956c"
         offset="50.00064"
         id="stop1695" />
    </radialGradient>
    <clipPath
       id="clipPath94"
       clipPathUnits="userSpaceOnUse">
      <path
         inkscape:connector-curvature="0"
         id="path92"
         d="m 35.7168,14.17339 c 0,5.16641 -4.18808,9.35449 -9.3545,9.35449 -5.16641,0 -9.35449,-4.18808 -9.35449,-9.35449 0,-5.1664 4.18808,-9.35449 9.35449,-9.35449 5.16642,0 9.3545,4.18809 9.3545,9.35449 z" />
    </clipPath>
    <clipPath
       id="clipPath108"
       clipPathUnits="userSpaceOnUse">
      <path
         inkscape:connector-curvature="0"
         id="path106"
         d="M 0,0 H 100 V 100 H 0 Z" />
    </clipPath>
    <radialGradient
       id="radialGradient120"
       gradientUnits="userSpaceOnUse"
       r="50.000641"
       cy="50.000641"
       cx="50.000641"
       fy="60.000759"
       fx="40.000519">
      <stop
         id="stop110"
         offset="0"
         style="stop-opacity:1;stop-color:#f7f7ff" />
      <stop
         id="stop112"
         offset="9.00009"
         style="stop-opacity:1;stop-color:#d9d9ff" />
      <stop
         id="stop114"
         offset="18.00021"
         style="stop-opacity:1;stop-color:#8f8fb3" />
      <stop
         id="stop116"
         offset="25.00032"
         style="stop-opacity:1;stop-color:#666680" />
      <stop
         id="stop118"
         offset="50.00064"
         style="stop-opacity:1;stop-color:#000000" />
    </radialGradient>
    <clipPath
       id="clipPath194"
       clipPathUnits="userSpaceOnUse">
      <path
         inkscape:connector-curvature="0"
         id="path192"
         d="m 20.69345,45.35506 c 0,1.56564 -1.26919,2.83484 -2.83484,2.83484 -1.56566,0 -2.83485,-1.2692 -2.83485,-2.83484 0,-1.56566 1.26919,-2.83486 2.83485,-2.83486 1.56565,0 2.83484,1.2692 2.83484,2.83486 z" />
    </clipPath>
    <clipPath
       id="clipPath208"
       clipPathUnits="userSpaceOnUse">
      <path
         inkscape:connector-curvature="0"
         id="path206"
         d="M 0,0 H 100 V 100 H 0 Z" />
    </clipPath>
    <radialGradient
       id="radialGradient216"
       gradientUnits="userSpaceOnUse"
       r="50.000641"
       cy="50.000641"
       cx="50.000641"
       fy="50.000641"
       fx="50.000641">
      <stop
         id="stop210"
         offset="0"
         style="stop-opacity:1;stop-color:#d2592d" />
      <stop
         id="stop212"
         offset="25.00032"
         style="stop-opacity:1;stop-color:#bf8040" />
      <stop
         id="stop214"
         offset="50.00064"
         style="stop-opacity:1;stop-color:#bf8040" />
    </radialGradient>
    <clipPath
       id="clipPath226"
       clipPathUnits="userSpaceOnUse">
      <path
         inkscape:connector-curvature="0"
         id="path224"
         d="m 37.41797,45.35506 c 0,1.56564 -1.2692,2.83484 -2.83484,2.83484 -1.56566,0 -2.83485,-1.2692 -2.83485,-2.83484 0,-1.56566 1.26919,-2.83486 2.83485,-2.83486 1.56564,0 2.83484,1.2692 2.83484,2.83486 z" />
    </clipPath>
    <clipPath
       id="clipPath240"
       clipPathUnits="userSpaceOnUse">
      <path
         inkscape:connector-curvature="0"
         id="path238"
         d="M 0,0 H 100 V 100 H 0 Z" />
    </clipPath>
    <radialGradient
       id="radialGradient248"
       gradientUnits="userSpaceOnUse"
       r="50.000641"
       cy="50.000641"
       cx="50.000641"
       fy="50.000641"
       fx="50.000641">
      <stop
         id="stop242"
         offset="0"
         style="stop-opacity:1;stop-color:#d2592d" />
      <stop
         id="stop244"
         offset="25.00032"
         style="stop-opacity:1;stop-color:#bf8040" />
      <stop
         id="stop246"
         offset="50.00064"
         style="stop-opacity:1;stop-color:#bf8040" />
    </radialGradient>
    <clipPath
       id="clipPath290"
       clipPathUnits="userSpaceOnUse">
      <path
         inkscape:connector-curvature="0"
         id="path288"
         d="m 35.7168,14.17339 c 0,5.16641 -4.18808,9.35449 -9.3545,9.35449 -5.16641,0 -9.35449,-4.18808 -9.35449,-9.35449 0,-5.1664 4.18808,-9.35449 9.35449,-9.35449 5.16642,0 9.3545,4.18809 9.3545,9.35449 z" />
    </clipPath>
    <clipPath
       id="clipPath304"
       clipPathUnits="userSpaceOnUse">
      <path
         inkscape:connector-curvature="0"
         id="path302"
         d="M 0,0 H 100 V 100 H 0 Z" />
    </clipPath>
    <radialGradient
       id="radialGradient316"
       gradientUnits="userSpaceOnUse"
       r="50.000641"
       cy="50.000641"
       cx="50.000641"
       fy="60.000759"
       fx="40.000519">
      <stop
         id="stop306"
         offset="0"
         style="stop-opacity:1;stop-color:#d9ffff" />
      <stop
         id="stop308"
         offset="9.00009"
         style="stop-opacity:1;stop-color:#40ffff" />
      <stop
         id="stop310"
         offset="18.00021"
         style="stop-opacity:1;stop-color:#00b3b3" />
      <stop
         id="stop312"
         offset="25.00032"
         style="stop-opacity:1;stop-color:#008080" />
      <stop
         id="stop314"
         offset="50.00064"
         style="stop-opacity:1;stop-color:#000000" />
    </radialGradient>
    <clipPath
       id="clipPath3751"
       clipPathUnits="userSpaceOnUse">
      <path
         inkscape:connector-curvature="0"
         id="path3749"
         d="M 18.6527,11.10326 21.26149,25.89896 33.5448,23.73314 30.936,8.93745 Z" />
    </clipPath>
    <clipPath
       id="clipPath3763"
       clipPathUnits="userSpaceOnUse">
      <path
         inkscape:connector-curvature="0"
         id="path3761"
         d="M 18.6527,11.10326 20.4739,21.4322 32.75722,19.2664 30.936,8.93745 Z" />
    </clipPath>
    <clipPath
       clipPathUnits="userSpaceOnUse"
       id="clipPath813">
      <path
         d="M 113.38724,0 C 113.38724,62.62283 62.62283,113.38724 0,113.38724 -62.62283,113.38724 -113.38724,62.62283 -113.38724,0 c 0,-62.62283 50.76441,-113.38724 113.38724,-113.38724 62.62283,0 113.38724,50.76441 113.38724,113.38724 z"
         id="path811"
         inkscape:connector-curvature="0" />
    </clipPath>
    <clipPath
       clipPathUnits="userSpaceOnUse"
       id="clipPath827">
      <path
         d="M 0,0 H 100 V 100 H 0 Z"
         id="path825"
         inkscape:connector-curvature="0" />
    </clipPath>
    <radialGradient
       fx="50.000641"
       fy="50.000641"
       cx="50.000641"
       cy="50.000641"
       r="50.000641"
       gradientUnits="userSpaceOnUse"
       id="radialGradient835">
      <stop
         style="stop-opacity:1;stop-color:#00ffff"
         offset="0"
         id="stop829" />
      <stop
         style="stop-opacity:1;stop-color:#008080"
         offset="25.00032"
         id="stop831" />
      <stop
         style="stop-opacity:1;stop-color:#008080"
         offset="50.00064"
         id="stop833" />
    </radialGradient>
    <clipPath
       clipPathUnits="userSpaceOnUse"
       id="clipPath921">
      <path
         d="m 21.79214,-28.04617 c 0.30034,3.13885 -0.06214,6.14669 -0.99184,8.8977 -0.97521,2.7648 -2.51777,5.25897 -4.50637,7.36362 -2.02319,2.10461 -4.47856,3.81106 -7.23561,4.99353 C 6.2834,-5.60887 3.21826,-4.9556 0,-4.9556 c -3.21826,0 -6.2834,-0.65327 -9.05832,-1.83572 -2.75705,-1.18247 -5.21242,-2.88892 -7.23561,-4.99353 -1.9886,-2.10465 -3.53116,-4.59882 -4.50637,-7.36362 -0.9297,-2.75101 -1.29218,-5.75885 -0.99184,-8.8977 0.33221,-3.11643 1.26618,-6.06049 2.63362,-8.72016 1.36187,-2.63035 3.12225,-4.98146 5.14531,-6.93957 1.97914,-1.94605 4.21113,-3.50771 6.58372,-4.57985 2.33329,-1.06695 4.83533,-1.65302 7.42949,-1.65302 2.59416,0 5.0962,0.58607 7.42949,1.65302 2.37259,1.07214 4.60458,2.6338 6.58372,4.57985 2.02306,1.95811 3.78344,4.30922 5.14531,6.93957 1.36744,2.65967 2.30141,5.60373 2.63362,8.72016 z"
         id="path919"
         inkscape:connector-curvature="0" />
    </clipPath>
    <clipPath
       clipPathUnits="userSpaceOnUse"
       id="clipPath935">
      <path
         d="M 0,0 H 100 V 100 H 0 Z"
         id="path933"
         inkscape:connector-curvature="0" />
    </clipPath>
    <radialGradient
       fx="40.000519"
       fy="60.000759"
       cx="50.000641"
       cy="50.000641"
       r="50.000641"
       gradientUnits="userSpaceOnUse"
       id="radialGradient947">
      <stop
         style="stop-opacity:1;stop-color:#d9ffff"
         offset="0"
         id="stop937" />
      <stop
         style="stop-opacity:1;stop-color:#40ffff"
         offset="9.00009"
         id="stop939" />
      <stop
         style="stop-opacity:1;stop-color:#00b3b3"
         offset="18.00021"
         id="stop941" />
      <stop
         style="stop-opacity:1;stop-color:#008080"
         offset="25.00032"
         id="stop943" />
      <stop
         style="stop-opacity:1;stop-color:#000000"
         offset="50.00064"
         id="stop945" />
    </radialGradient>
    <clipPath
       clipPathUnits="userSpaceOnUse"
       id="clipPath959">
      <path
         d="M 113.38724,0 C 113.38724,62.62283 62.62283,113.38724 0,113.38724 -62.62283,113.38724 -113.38724,62.62283 -113.38724,0 c 0,-62.62283 50.76441,-113.38724 113.38724,-113.38724 62.62283,0 113.38724,50.76441 113.38724,113.38724 z"
         id="path957"
         inkscape:connector-curvature="0" />
    </clipPath>
    <clipPath
       clipPathUnits="userSpaceOnUse"
       id="clipPath973">
      <path
         d="M 0,0 H 100 V 100 H 0 Z"
         id="path971"
         inkscape:connector-curvature="0" />
    </clipPath>
    <radialGradient
       fx="40.000519"
       fy="60.000759"
       cx="50.000641"
       cy="50.000641"
       r="50.000641"
       gradientUnits="userSpaceOnUse"
       id="radialGradient985">
      <stop
         style="stop-opacity:1;stop-color:#d9ffff"
         offset="0"
         id="stop975" />
      <stop
         style="stop-opacity:1;stop-color:#40ffff"
         offset="9.00009"
         id="stop977" />
      <stop
         style="stop-opacity:1;stop-color:#00b3b3"
         offset="18.00021"
         id="stop979" />
      <stop
         style="stop-opacity:1;stop-color:#008080"
         offset="25.00032"
         id="stop981" />
      <stop
         style="stop-opacity:1;stop-color:#000000"
         offset="50.00064"
         id="stop983" />
    </radialGradient>
    <clipPath
       clipPathUnits="userSpaceOnUse"
       id="clipPath997">
      <path
         d="M 0,0 H 100 V 100 H 0 Z"
         id="path995"
         inkscape:connector-curvature="0" />
    </clipPath>
    <clipPath
       clipPathUnits="userSpaceOnUse"
       id="clipPath1001">
      <path
         d="M 0,0 H 100 V 100 H 0 Z"
         id="path999"
         inkscape:connector-curvature="0" />
    </clipPath>
    <clipPath
       clipPathUnits="userSpaceOnUse"
       id="clipPath1005">
      <path
         d="M 0,0 H 100 V 100 H 0 Z"
         id="path1003"
         inkscape:connector-curvature="0" />
    </clipPath>
    <radialGradient
       fx="50.000641"
       fy="50.000641"
       cx="50.000641"
       cy="50.000641"
       r="50.000641"
       gradientUnits="userSpaceOnUse"
       id="radialGradient1013">
      <stop
         style="stop-opacity:0.50000763;stop-color:#ffffff"
         offset="0"
         id="stop1007" />
      <stop
         style="stop-opacity:0;stop-color:#ffffff"
         offset="25.00032"
         id="stop1009" />
      <stop
         style="stop-opacity:0;stop-color:#ffffff"
         offset="50.00064"
         id="stop1011" />
    </radialGradient>
    <mask
       maskUnits="userSpaceOnUse"
       x="0"
       y="0"
       width="1"
       height="1"
       id="mask1015">
      <g
         id="g1047">
        <g
           clip-path="url(#clipPath997)"
           id="g1045">
          <g
             id="g1043">
            <g
               id="g1041">
              <g
                 clip-path="url(#clipPath1001)"
                 id="g1039">
                <g
                   id="g1037">
                  <g
                     id="g1033">
                    <g
                       id="g1031">
                      <g
                         id="g1029">
                        <g
                           id="g1027">
                          <g
                             id="g1025">
                            <g
                               id="g1023">
                              <g
                                 id="g1021">
                                <g
                                   clip-path="url(#clipPath1005)"
                                   id="g1019">
                                <path
                                   d="M 0,0 H 100 V 100 H 0 Z"
                                   style="fill:url(#radialGradient1013);stroke:none"
                                   id="path1017"
                                   inkscape:connector-curvature="0" />
                                </g>
                              </g>
                            </g>
                          </g>
                        </g>
                      </g>
                    </g>
                  </g>
                  <g
                     transform="translate(100)"
                     id="g1035" />
                </g>
              </g>
            </g>
          </g>
        </g>
      </g>
    </mask>
    <clipPath
       clipPathUnits="userSpaceOnUse"
       id="clipPath137-8">
      <path
         d="M 0,0 H 595 V 462 H 0 Z"
         id="path135-0"
         inkscape:connector-curvature="0" />
    </clipPath>
  </defs>
  <metadata
     id="metadata6769">
    <rdf:RDF>
      <cc:Work
         rdf:about="">
        <dc:format>image/svg+xml</dc:format>
        <dc:type
           rdf:resource="http://purl.org/dc/dcmitype/StillImage" />
        <dc:title></dc:title>
      </cc:Work>
    </rdf:RDF>
  </metadata>
  <g
     inkscape:label="Calque 1"
     inkscape:groupmode="layer"
     id="layer1"
     transform="translate(-3405.2874,-659.86224)"
     style="display:inline">
    <rect
       y="659.86224"
       x="3405.2874"
       height="768.13135"
       width="619.64948"
       id="rect1331"
       style="opacity:1;fill:#000000;fill-opacity:1;fill-rule:nonzero;stroke:none;stroke-width:42.40000153;stroke-linecap:round;stroke-linejoin:round;stroke-miterlimit:4;stroke-dasharray:none;stroke-dashoffset:0;stroke-opacity:1" />
  </g>
  <g
     inkscape:groupmode="layer"
     id="layer2"
     inkscape:label="pearl"
     style="display:inline"
     transform="translate(-1560.1982,-577.7826)">
    <g
       style="stroke-width:0.07669663"
       id="g274"
       transform="matrix(17.384511,0,0,-17.384511,5721.9214,1700.1531)" />
    <g
       style="stroke-width:0.07669663"
       id="g276"
       transform="matrix(17.384511,0,0,-17.384511,5721.9214,1700.1531)" />
    <g
       style="stroke-width:0.07669663"
       id="g278"
       transform="matrix(17.384511,0,0,-17.384511,5721.9214,1700.1531)" />
    <g
       style="stroke-width:0.07669663"
       id="g280"
       transform="matrix(17.384511,0,0,-17.384511,5721.9214,1700.1531)" />
    <path
       sodipodi:nodetypes="cccc"
       inkscape:connector-curvature="0"
       id="path30"
       style="fill:#ffd1b5;fill-opacity:1;fill-rule:nonzero;stroke:none;stroke-width:1.33333325"
       d="m 1768.0357,1140.4338 c -75.3531,13.1712 -66.7726,125.4664 -44.5981,183.2948 137.4091,26.9517 423.069,-25.0586 444.3309,-267.2245 -269.55,144.8871 -177.0436,12.2549 -399.7328,83.9297 z" />
    <path
       inkscape:connector-curvature="0"
       id="path34"
       style="fill:#ffd1b5;fill-opacity:1;fill-rule:nonzero;stroke:none;stroke-width:1.33333325"
       d="m 2039.7308,1031.6949 c 0,-105.7328 -68.569,-191.44403 -153.1551,-191.44403 -84.5865,0 -153.155,85.71123 -153.155,191.44403 0,105.7329 68.5685,191.444 153.155,191.444 84.5861,0 153.1551,-85.7111 153.1551,-191.444 z" />
    <path
       inkscape:connector-curvature="0"
       id="path38"
       style="fill:#e68452;fill-opacity:1;fill-rule:nonzero;stroke:none;stroke-width:1.33333325"
       d="m 1735.262,1040.2716 c 72.5953,-17.7657 41.3503,51.7682 154.3797,31.2452 -253.3222,159.2781 -196.3469,0.3039 -154.3797,-31.2452 z" />
    <path
       inkscape:connector-curvature="0"
       id="path42"
       style="fill:#fff5ee;fill-opacity:1;fill-rule:nonzero;stroke:none;stroke-width:1.33333325"
       d="m 1887.9764,1015.855 c 7.2324,-19.8712 1.5884,-40.1679 -12.6068,-45.3344 -14.195,-5.1666 -31.5654,6.7537 -38.7978,26.6247 -7.2325,19.8713 -1.5883,40.1682 12.6067,45.3346 14.195,5.1665 31.5652,-6.7537 38.7979,-26.6249 z" />
    <path
       inkscape:connector-curvature="0"
       id="path46"
       style="fill:#000000;fill-opacity:1;fill-rule:nonzero;stroke:none;stroke-width:1.33333325"
       d="m 1880.1391,1016.2606 c 4.131,-11.3498 2.8784,-22.2251 -2.7976,-24.2909 -5.6762,-2.0658 -13.6264,5.46 -17.7572,16.8098 -4.1308,11.3497 -2.8783,22.225 2.7978,24.2909 5.6758,2.0657 13.6261,-5.4601 17.757,-16.8098 z" />
    <path
       inkscape:connector-curvature="0"
       id="path50"
       style="fill:#fff5ee;fill-opacity:1;fill-rule:nonzero;stroke:none;stroke-width:1.33333325"
       d="m 1798.5459,992.2679 c 6.6136,-18.1708 1.8461,-36.5877 -10.6486,-41.1353 -12.4947,-4.5477 -27.985,6.4957 -34.5986,24.6666 -6.6138,18.1707 -1.8463,36.5877 10.6484,41.1353 12.4946,4.5476 27.9849,-6.4957 34.5988,-24.6666 z" />
    <path
       inkscape:connector-curvature="0"
       id="path54"
       style="fill:#000000;fill-opacity:1;fill-rule:nonzero;stroke:none;stroke-width:1.33333325"
       d="m 1791.7389,993.053 c 3.7203,-10.2216 3.0515,-19.8491 -1.4942,-21.5037 -4.5457,-1.6542 -11.2465,5.2908 -14.9669,15.5125 -3.7204,10.2217 -3.0516,19.8491 1.4941,21.5034 4.5457,1.6545 11.2466,-5.2905 14.967,-15.5122 z" />
    <path
       sodipodi:nodetypes="csssssssssssssssssssssssssssssssssssssssssssssssssssssssssssssssssssssssssssssssssssssssssssssssssssssssscccsssssssssssssssssssssssssssssssssssssssssssssssssssssssssssssssssssssssssssssssssssssssssssssssssssssssssssssssssssssssssssssssccccccccccccccccccccccccccccccccccccccccccccccccccccccccccccccccccccccccccccccccccccccccccccccccccccccccccccccccccccccccccccccccc"
       inkscape:connector-curvature="0"
       id="path58"
       style="fill:#fff5ee;fill-opacity:1;fill-rule:nonzero;stroke:none;stroke-width:1.33333325"
       d="m 1760.992,1140.4338 c -0.5338,0.1025 -1.0704,0.2133 -1.6104,0.3312 -0.5398,0.1176 -1.0827,0.2432 -1.6284,0.3759 -0.5458,0.1325 -1.0944,0.2727 -1.6456,0.4202 -0.5515,0.1474 -1.1055,0.3021 -1.6621,0.4641 -0.5567,0.1619 -1.1159,0.3311 -1.6776,0.5075 -0.5618,0.1765 -1.1259,0.3601 -1.6924,0.5508 -0.5665,0.1907 -1.1352,0.3885 -1.7062,0.5935 -0.5708,0.2048 -1.1438,0.4168 -1.719,0.6357 -0.5751,0.2189 -1.1522,0.4448 -1.7312,0.6777 -0.579,0.2329 -1.16,0.4727 -1.7426,0.7192 -0.5825,0.2467 -1.1669,0.5002 -1.7529,0.7605 -0.5858,0.2602 -1.1735,0.5273 -1.7625,0.8011 -0.589,0.2738 -1.1793,0.5543 -1.7711,0.8415 -0.5917,0.2872 -1.1848,0.581 -1.779,0.8814 -0.5942,0.3005 -1.1896,0.6075 -1.786,0.9211 -0.5964,0.3135 -1.1939,0.6335 -1.7921,0.9602 -0.5983,0.3264 -1.1976,0.6595 -1.7975,0.9989 -0.6,0.3394 -1.2006,0.6851 -1.8019,1.0373 -0.6013,0.3521 -1.2031,0.7106 -1.8054,1.0753 -0.6024,0.3648 -1.205,0.7357 -1.8082,1.1129 -0.603,0.3771 -1.2065,0.7605 -1.8101,1.1501 -0.6035,0.3895 -1.2072,0.7851 -1.811,1.1869 -0.6038,0.4016 -1.2075,0.8094 -1.8111,1.2232 -0.6037,0.4138 -1.2073,0.8336 -1.8105,1.2593 -0.6033,0.4257 -1.2064,0.8573 -1.809,1.2949 -0.6026,0.4375 -1.2049,0.8809 -1.8066,1.3301 -0.6017,0.4492 -1.2027,0.9041 -1.8033,1.3648 -0.6004,0.4608 -1.2002,0.9272 -1.7992,1.3994 -0.5989,0.4721 -1.197,0.9499 -1.7942,1.4334 -0.597,0.4833 -1.1933,0.9724 -1.7883,1.4669 -0.5951,0.4947 -1.189,0.9947 -1.7817,1.5002 -0.5927,0.5057 -1.1842,1.0168 -1.7743,1.5332 -0.5899,0.5164 -1.1787,1.0383 -1.7657,1.5654 -0.5871,0.5273 -1.1727,1.0598 -1.7567,1.5977 -0.5838,0.5378 -1.1659,1.0808 -1.7463,1.6292 -0.5804,0.5483 -1.159,1.1018 -1.7356,1.6605 -0.5766,0.5586 -1.1512,1.1225 -1.7237,1.6914 -0.5724,0.5688 -1.1429,1.1427 -1.7111,1.7218 -0.5681,0.579 -1.134,1.1629 -1.6974,1.7519 -0.5636,0.5889 -1.1247,1.1828 -1.6833,1.7815 -0.5585,0.5988 -1.1145,1.2025 -1.6679,1.811 -0.5533,0.6084 -1.104,1.2216 -1.6519,1.8397 -0.5477,0.618 -1.0929,1.2407 -1.6349,1.8681 -0.542,0.6276 -1.0812,1.2598 -1.6172,1.8965 -0.536,0.6367 -1.0688,1.2781 -1.5985,1.9241 -0.5297,0.6459 -1.056,1.2964 -1.5789,1.9512 -0.523,0.655 -1.0428,1.3146 -1.5588,1.9785 -0.516,0.6637 -1.0286,1.3321 -1.5375,2.0046 -0.5088,0.6728 -1.014,1.3496 -1.5153,2.031 -0.5014,0.6813 -0.999,1.3669 -1.4926,2.0566 -0.4935,0.6899 -0.9833,1.3838 -1.4687,2.082 -0.4855,0.6982 -0.967,1.4005 -1.4442,2.1069 -0.4771,0.7065 -0.95,1.417 -1.4185,2.1315 -0.4686,0.7145 -0.9328,1.4331 -1.3924,2.1556 -0.4596,0.7225 -0.9147,1.449 -1.3651,2.1793 -0.4504,0.7305 -0.8962,1.4647 -1.3371,2.2027 -0.441,0.7382 -0.8771,1.48 -1.3082,2.2258 -0.4312,0.7456 -0.8574,1.495 -1.2785,2.2481 -0.4211,0.7532 -0.8371,1.51 -1.2478,2.2705 -0.4108,0.7605 -0.8163,1.5244 -1.2164,2.2922 -0.4001,0.7676 -0.7949,1.5389 -1.1841,2.3135 -0.3893,0.7747 -0.773,1.5528 -1.151,2.3345 -0.378,0.7817 -0.7502,1.5668 -1.1169,2.3552 -0.3665,0.7884 -0.7273,1.5802 -1.0819,2.3753 -0.3549,0.795 -0.7037,1.5935 -1.0464,2.3952 -0.3428,0.8015 -0.6794,1.6064 -1.0098,2.4145 -0.3303,0.8079 -0.6545,1.6191 -0.9722,2.4335 -0.3177,0.8143 -0.6292,1.6317 -0.9341,2.4522 -0.3049,0.8203 -0.603,1.6438 -0.8948,2.4704 -0.2916,0.8263 -0.5766,1.6557 -0.8548,2.4881 -0.2782,0.8323 -0.5495,1.6675 -0.814,2.5055 -0.2644,0.8381 -0.522,1.6791 -0.7723,2.5227 -0.2504,0.8438 -0.4937,1.6902 -0.7297,2.5393 -0.2361,0.8492 -0.4649,1.701 -0.6863,2.5555 -0.2215,0.8546 -0.4355,1.7117 -0.642,2.5714 -0.2066,0.8597 -0.4056,1.722 -0.5969,2.5868 -0.1915,0.8648 -0.3752,1.7322 -0.551,2.602 -0.1759,0.8697 -0.344,1.7419 -0.504,2.6165 -0.1602,0.8746 -0.3124,1.7515 -0.4565,2.6308 -0.144,0.8793 -0.2801,1.7609 -0.4079,2.6446 -0.1271,0.8838 -0.2472,1.7699 -0.3583,2.6582 -0.1107,0.8883 -0.214,1.7786 -0.3083,2.6711 -0.094,0.8927 -0.18,1.7872 -0.2571,2.684 -0.077,0.8968 -0.1455,1.7954 -0.2051,2.6961 -0.06,0.9008 -0.1107,1.8035 -0.1524,2.7082 -0.041,0.9046 -0.075,1.8112 -0.098,2.7195 -0.023,0.9085 -0.038,1.8187 -0.044,2.7308 0,0.912 0,1.8259 0.014,2.7413 0.014,0.9157 0.036,1.8329 0.067,2.7518 0.032,0.9189 0.074,1.8394 0.1244,2.7616 0.051,0.9222 0.112,1.8459 0.1826,2.7712 0.071,0.9252 0.1508,1.852 0.2412,2.7803 0.09,0.9282 0.1906,1.8579 0.301,2.7889 0.1107,0.9311 0.2308,1.8637 0.3615,2.7975 0.1312,0.9337 0.2715,1.8688 0.4228,2.8052 0.1513,0.9363 0.313,1.874 0.485,2.8128 0.1722,0.9389 0.3549,1.8789 0.5483,2.82 0.1932,0.9411 0.3971,1.8834 0.612,2.8268 0.2148,0.9433 0.4403,1.8876 0.6768,2.833 0.2364,0.9454 0.4839,1.8918 0.7425,2.8391 0.2585,0.9473 0.528,1.8955 0.8089,2.8446 0.2808,0.9491 0.573,1.8991 0.8764,2.8497 0.3034,0.9509 0.6181,1.9025 0.9444,2.8547 0.3264,0.9524 0.664,1.9053 1.0136,2.859 0.3495,0.9537 0.7105,1.9079 1.0835,2.8629 363.0591,-50.4653 502.7987,-23.7679 521.848,-279.4726 -2.3817,-3.0464 -4.8226,-6.1119 -7.3233,-9.1966 -2.2446,1.1319 -4.465,2.2469 -6.6616,3.3453 -2.1963,1.0984 -4.369,2.1801 -6.5179,3.2456 -2.149,1.0654 -4.2744,2.1146 -6.3765,3.1476 -2.1023,1.0331 -4.1812,2.0501 -6.2374,3.0513 -2.0561,1.0013 -4.0893,1.9869 -6.0999,2.9569 -2.0108,0.9701 -3.9989,1.9248 -5.9649,2.8642 -1.966,0.9395 -3.9098,1.8639 -5.8318,2.7734 -1.922,0.9094 -3.8221,1.8041 -5.7007,2.6841 -1.8788,0.8801 -3.736,1.7455 -5.572,2.5968 -1.8361,0.8511 -3.651,1.6881 -5.4452,2.5111 -1.7942,0.8229 -3.5675,1.632 -5.3204,2.4272 -1.753,0.7953 -3.4855,1.5769 -5.1979,2.3452 -1.7124,0.7682 -3.4048,1.5231 -5.0774,2.2648 -1.6726,0.7417 -3.3254,1.4705 -4.9588,2.1863 -1.6335,0.7158 -3.2476,1.4189 -4.8426,2.1095 -1.5951,0.6905 -3.1711,1.3685 -4.7283,2.0344 -1.5574,0.6658 -3.0959,1.3195 -4.6162,1.9612 -1.5202,0.6416 -3.0221,1.2715 -4.5061,1.8896 -1.4838,0.6183 -2.9498,1.2247 -4.3981,1.82 -1.4483,0.5952 -2.8788,1.1791 -4.2922,1.752 -1.4133,0.5729 -2.8093,1.1347 -4.1884,1.6858 -1.379,0.551 -2.7411,1.0914 -4.0867,1.6213 -1.3455,0.5299 -2.6744,1.0493 -3.9871,1.5586 -1.3126,0.5094 -2.609,1.0086 -3.8895,1.4978 -1.2805,0.4893 -2.5451,0.9688 -3.7942,1.4386 -1.2489,0.47 -2.4824,0.9303 -3.7007,1.3814 -1.2183,0.451 -2.4213,0.8928 -3.6096,1.3256 -1.1881,0.4328 -2.3615,0.8566 -3.5203,1.2719 -1.1588,0.4151 -2.3031,0.8216 -3.4333,1.2196 -1.1302,0.3981 -2.2461,0.7879 -3.3481,1.1694 -1.1023,0.3817 -2.1906,0.7552 -3.2655,1.1209 -1.0748,0.3658 -2.1363,0.7238 -3.1846,1.0742 -1.0483,0.3503 -2.0835,0.6934 -3.1058,1.029 -1.0225,0.3358 -2.0322,0.6643 -3.0294,0.986 -0.9972,0.3215 -1.9819,0.6363 -2.9545,0.9443 -0.9728,0.3082 -1.9335,0.6095 -2.8823,0.9047 -0.949,0.2952 -1.8862,0.5839 -2.8119,0.8667 -0.9259,0.2827 -1.8402,0.5595 -2.7437,0.8305 -0.9033,0.2711 -1.7957,0.5363 -2.6774,0.7961 -0.8817,0.2598 -1.7527,0.5143 -2.6133,0.7635 -0.8607,0.2493 -1.711,0.4934 -2.5515,0.7327 -0.8403,0.2391 -1.6706,0.4735 -2.4914,0.7034 -0.8208,0.2298 -1.6318,0.455 -2.4336,0.6761 -0.8018,0.221 -1.5943,0.4378 -2.378,0.6505 -0.7835,0.2128 -1.5582,0.4216 -2.3242,0.6268 -0.7661,0.2051 -1.5235,0.4065 -2.2728,0.6045 -0.7491,0.1982 -1.4901,0.3928 -2.2233,0.5845 -0.733,0.1916 -1.4583,0.3801 -2.1759,0.5658 -0.7176,0.1857 -1.4276,0.3687 -2.1306,0.5491 -0.703,0.1805 -1.3986,0.3583 -2.0875,0.5341 -0.6889,0.1757 -1.3708,0.3493 -2.0463,0.5209 -0.6755,0.1715 -1.3445,0.3414 -2.0074,0.5095 -0.6628,0.1679 -1.3196,0.3345 -1.9705,0.4996 -0.6509,0.1652 -1.2959,0.3289 -1.9355,0.4918 -0.6397,0.1628 -1.2739,0.3246 -1.903,0.4857 -0.629,0.161 -1.253,0.3213 -1.8722,0.4812 -0.6192,0.1599 -1.2336,0.3194 -1.8437,0.4786 -0.61,0.1593 -1.2157,0.3184 -1.8171,0.4777 -0.6016,0.1594 -1.1991,0.3189 -1.7928,0.4787 -0.5938,0.1599 -1.1839,0.3202 -1.7706,0.4814 -0.5868,0.1611 -1.1701,0.3229 -1.7505,0.4856 -0.5802,0.1629 -1.1576,0.3268 -1.7322,0.492 -0.5746,0.1652 -1.1466,0.3318 -1.7162,0.5001 -0.5697,0.168 -1.137,0.3379 -1.7024,0.5096 -0.5653,0.1716 -1.1288,0.3452 -1.6904,0.521 -0.5618,0.1759 -1.1219,0.354 -1.6808,0.5345 -0.5588,0.1805 -1.1165,0.3637 -1.6731,0.5494 -0.5566,0.1858 -1.1123,0.3746 -1.6675,0.5663 -0.5552,0.1917 -1.1097,0.3866 -1.6641,0.5848 -0.5543,0.1983 -1.1085,0.3998 -1.6626,0.6051 -0.5543,0.2054 -1.1086,0.4143 -1.6634,0.6273 -0.5549,0.2129 -1.1101,0.4299 -1.6662,0.651 -0.5561,0.2212 -1.1131,0.4467 -1.6711,0.6767 -0.5581,0.23 -1.1173,0.4647 -1.678,0.7041 -0.5608,0.2396 -1.1231,0.4838 -1.6872,0.7333 -0.5641,0.2494 -1.13,0.5041 -1.6982,0.7642 -0.5681,0.2601 -1.1386,0.5256 -1.7116,0.7969 -0.5728,0.2712 -1.1483,0.5482 -1.7268,0.8313 -0.5783,0.283 -1.1597,0.5722 -1.7443,0.8675 -0.5845,0.2954 -1.1724,0.5972 -1.7637,0.9055 -0.5915,0.3084 -1.1865,0.6234 -1.7855,0.9454 -0.599,0.3218 -1.2019,0.6506 -1.8091,0.9867 -0.6071,0.336 -1.2187,0.6793 -1.8349,1.0301 -0.6162,0.3508 -1.237,0.7091 -1.8628,1.0751 -0.6258,0.3661 -1.2566,0.74 -1.8927,1.122 -0.6362,0.3819 -1.2776,0.772 -1.9249,1.1704 -0.647,0.3985 -1.3,0.8054 -1.9588,1.221 -0.659,0.4155 -1.3238,0.8397 -1.9953,1.2729 -0.6712,0.4332 -1.349,0.8755 -2.0334,1.3269 -0.6846,0.4515 -1.3758,0.9123 -2.074,1.3825 -0.6983,0.4704 -1.4037,0.9502 -2.1165,1.44 -0.7129,0.4897 -1.4331,0.9893 -2.161,1.4992 -0.728,0.5097 -1.4638,1.0296 -2.2078,1.5599 -0.7439,0.5304 -1.496,1.0712 -2.2565,1.6227 -0.7605,0.5517 -1.5296,1.1139 -2.3073,1.6873 -0.7779,0.5735 -1.5646,1.1577 -2.3604,1.7535 -0.7959,0.5957 -1.601,1.2028 -2.4155,1.8215 -0.8146,0.6187 -1.6385,1.249 -2.4725,1.8913 -0.8339,0.6421 -1.6778,1.2963 -2.5318,1.9627 -0.854,0.6665 -1.7183,1.345 -2.5931,2.0362 -0.8747,0.6909 -1.7601,1.3946 -2.6565,2.1111 -0.8963,0.7164 -1.8035,1.4456 -2.722,2.1879 -0.9184,0.7425 -1.8483,1.4978 -2.7896,2.2666 -0.9413,0.7689 -1.8944,1.5511 -2.8593,2.347 -0.9649,0.7959 -1.9418,1.6055 -2.9311,2.4291 -0.9891,0.8237 -1.9907,1.6613 -3.0048,2.5131 -1.0142,0.8517 -2.041,1.7179 -3.0809,2.5985 -1.0398,0.8808 -2.0926,1.776 -3.1588,2.6862 -1.0662,0.9101 -2.1459,1.8352 -3.2391,2.7753 -1.0933,0.9402 -2.2002,1.8956 -3.3213,2.8663 -1.121,0.9708 -2.2561,1.9569 -3.4055,2.9589 -1.1496,1.002 -2.3134,2.0198 -3.492,3.0535 -1.1786,1.0338 -2.372,2.0836 -3.5805,3.1497 -1.2085,1.0662 -2.432,2.1487 -3.6711,3.2479 -1.2389,1.0991 -2.4933,2.2148 -3.7636,3.3476 -1.2702,1.1326 -2.5563,2.2823 -3.8585,3.4491 -1.3021,1.1668 -2.6205,2.3508 -3.9554,3.5524 -1.3347,1.2016 -2.6861,2.4207 -4.0542,3.6576 -1.3681,1.2369 -2.7532,2.4916 -4.1553,3.7644 -1.4022,1.2727 -2.8216,2.5637 -4.2584,3.8729 -1.437,1.3093 -2.8914,2.6371 -4.3637,3.9835 -1.4723,1.3464 -2.9625,2.7114 -4.4709,4.0955 -1.5084,1.3841 -3.0352,2.7872 -4.5804,4.2095 -1.5452,1.4224 -3.109,2.864 -4.6918,4.3251 -1.5828,1.4612 -3.1844,2.942 -4.8055,4.4427 -1.6209,1.5006 -3.2612,3.0211 -4.9211,4.5618 -1.6598,1.5407 -3.3392,3.1015 -5.0387,4.6829 -1.6995,1.5813 -3.4189,3.1829 -5.1586,4.8055 l -0.055,-1.065 -0.055,-1.0648 -0.055,-1.065 -0.056,-1.0649 -0.055,-1.065 -0.055,-1.0649 -0.055,-1.0649 -0.055,-1.065 -0.055,-1.0648 -0.055,-1.065 -0.055,-1.0649 -0.056,-1.0649 -0.055,-1.0649 -0.055,-1.065 -0.056,-1.0648 -0.055,-1.065 -0.055,-1.0648 -0.055,-1.065 -0.055,-1.065 -0.055,-1.0649 -0.055,-1.0649 -0.056,-1.065 -0.055,-1.0649 -0.055,-1.065 -0.055,-1.0648 -0.055,-1.065 -0.055,-1.0648 -0.056,-1.065 -0.055,-1.065 -0.055,-1.0649 -0.056,-1.0649 -0.055,-1.0649 -0.055,-1.065 -0.055,-1.0648 -0.055,-1.065 -0.055,-1.0648 -0.055,-1.065 -0.055,-1.0649 -0.055,-1.065 -0.055,-1.0649 -0.055,-1.0649 -0.055,-1.065 -0.055,-1.065 -0.055,-1.0648 -0.055,-1.065 -0.055,-1.0648 -0.055,-1.065 -0.055,-1.0649 -0.055,-1.0649 -0.055,-1.0649 -0.056,-1.065 -0.055,-1.0648 -0.055,-1.065 -0.055,-1.065 -0.055,-1.0648 -0.055,-1.065 -0.055,-1.0649 -0.055,-1.065 -0.056,-1.0648 -0.055,-1.065 -0.056,-1.065 -0.055,-1.0648 -0.055,-1.065 -0.056,-1.0648 -0.055,-1.065 -0.055,-1.065 -0.056,-1.0649 -0.055,-1.0649 -0.055,-1.0649 -0.055,-1.065 -0.056,-1.0648 -0.055,-1.065 -0.055,-1.0649 -0.055,-1.0649 -0.055,-1.0649 -0.055,-1.065 -0.055,-1.065 -0.056,-1.0648 -0.055,-1.065 -0.055,-1.0648 -0.056,-1.065 -0.055,-1.065 -0.055,-1.0648 -0.056,-1.065 -0.055,-1.0649 -0.055,-1.065 -0.056,-1.0649 -0.055,-1.0649 -0.055,-1.065 -0.055,-1.0648 -0.055,-1.065 -0.055,-1.0649 -0.055,-1.0649 -0.056,-1.0649 -0.055,-1.065 -0.055,-1.0648 -0.055,-1.065 -0.055,-1.0648 -0.055,-1.065 -0.055,-1.065 -0.055,-1.0649 -0.055,-1.0649 -0.055,-1.065 -0.055,-1.0649 -0.056,-1.065 -0.055,-1.0648 -0.056,-1.065 -0.055,-1.0648 -0.055,-1.065 -0.056,-1.065 -0.055,-1.0649 -0.055,-1.0649 -0.056,-1.0649 -0.056,-1.065 -0.056,-1.0648 -0.055,-1.065 -0.055,-1.0648 -0.055,-1.065 -0.055,-1.0649 -0.056,-1.065 -0.055,-1.0649 -0.055,-1.0649 -0.056,-1.065 -0.055,-1.065 -0.055,-1.0648 -0.055,-1.065 -0.055,-1.0648 z" />
    <path
       sodipodi:nodetypes="cssssssssssssssscsssssssssscccsssssssssssssscssssssssssssssscssssssssssssssscsssssssssssssssccccccccccccccccc"
       style="fill:#b0865f;fill-opacity:1;fill-rule:nonzero;stroke:none;stroke-width:1.33333325"
       d="m 1751.8029,1141.967 c -2.7937,0.8015 -5.5401,1.7078 -8.2385,2.7131 -2.6984,1.0052 -5.3489,2.1091 -7.9512,3.3055 -2.6022,1.1965 -5.1563,2.4854 -7.6614,3.8606 -2.5052,1.3752 -4.9616,2.8366 -7.3689,4.378 -2.4074,1.5415 -4.7656,3.1628 -7.074,4.8579 -2.3087,1.6953 -4.5677,3.4641 -6.7767,5.3005 -2.2089,1.8364 -4.3679,3.7402 -6.4765,5.7054 -2.1085,1.9651 -4.1666,3.9914 -6.1738,6.0727 -2.0074,2.0813 -3.9638,4.2176 -5.869,6.4027 -1.9052,2.1851 -3.7591,4.4188 -5.5612,6.695 -1.8021,2.2762 -3.5526,4.595 -5.251,6.9499 -1.6984,2.3549 -3.3446,4.746 -4.9383,7.1672 -1.5936,2.4212 -3.1347,4.8723 -4.6229,7.3471 -1.4881,2.4747 -2.9234,4.9734 -4.3052,7.4894 -1.3817,2.5159 -2.7101,5.0495 -3.9847,7.5942 -1.2746,2.5447 -2.4954,5.1005 -3.6619,7.6615 -1.4885,3.2018 -2.8374,6.4481 -4.0496,9.7311 -1.2122,3.2831 -2.2874,6.6027 -3.2286,9.9512 -0.941,3.3484 -1.7478,6.7257 -2.4231,10.124 -0.6752,3.3983 -1.2188,6.8175 -1.6335,10.25 -0.4147,3.4323 -0.7003,6.8777 -0.8598,10.3286 -0.1594,3.4507 -0.1924,6.9068 -0.1011,10.3603 0.09,3.4535 0.305,6.9044 0.6403,10.345 0.3353,3.4405 0.7917,6.8705 1.3666,10.2823 0.5748,3.412 1.2681,6.8055 2.0771,10.1729 0.8092,3.3674 1.7339,6.7089 2.7719,10.0163 1.038,3.3074 2.1891,10.0116 3.4507,13.2432 l 526.7294,1.4569 -1.1328,-282.6484 c -0.9135,-1.645 -1.8839,-3.0423 -2.9056,-4.2163 -1.0217,-1.1741 -2.0947,-2.1248 -3.2135,-2.8766 -1.119,-0.7517 -2.2837,-1.3045 -3.4889,-1.6827 -1.2052,-0.378 -2.4509,-0.5814 -3.7317,-0.6345 -1.2807,-0.053 -2.5965,0.044 -3.9419,0.2677 -1.3454,0.2233 -2.7203,0.5729 -4.1196,1.0242 -1.3992,0.4512 -2.8227,1.0044 -4.2648,1.635 -1.4422,0.6305 -2.9032,1.3385 -4.3775,2.0999 -1.4744,0.7612 -2.9621,1.5756 -4.4578,2.419 -1.4956,0.8433 -2.9993,1.7156 -4.5054,2.5924 -1.5061,0.8769 -3.0148,1.7582 -4.5205,2.62 -1.5057,0.8618 -3.0086,1.7037 -4.5032,2.5018 -1.4945,0.798 -2.9807,1.5522 -4.4532,2.2378 -1.4725,0.6858 -2.9312,1.3032 -4.3709,1.8281 -1.4396,0.5249 -2.86,0.9572 -4.2558,1.2726 -3.2399,1.5761 -6.4939,3.1161 -9.7609,4.623 -3.2671,1.5071 -6.5469,2.9811 -9.8385,4.4252 -3.2916,1.4442 -6.5947,2.8583 -9.9086,4.2458 -3.3137,1.3877 -6.6378,2.7485 -9.971,4.0856 -3.3334,1.3372 -6.676,2.6508 -10.0266,3.944 -3.3504,1.293 -6.7088,2.5657 -10.0741,3.821 -3.3651,1.2553 -6.7371,2.4932 -10.1144,3.7169 -3.3774,1.2237 -6.7602,2.4333 -10.1473,3.6316 -3.3871,1.1985 -6.7784,2.3858 -10.1728,3.5652 -3.3943,1.1793 -6.7917,2.3508 -10.1908,3.5173 -3.3991,1.1665 -6.7999,2.3284 -10.2013,3.4884 -3.4013,1.1601 -6.8032,2.3184 -10.2043,3.4781 -3.4012,1.1598 -6.8015,2.321 -10.2001,3.4868 -3.3985,1.1657 -6.795,2.3359 -10.1882,3.5139 -3.3933,1.178 -6.7834,2.3638 -10.169,3.5603 -3.3857,1.1964 -6.7669,2.4038 -10.1424,3.625 -3.7096,1.6593 -7.3561,3.4135 -10.9439,5.255 -3.5877,1.8416 -7.1169,3.7705 -10.5919,5.7795 -3.475,2.0089 -6.8958,4.0978 -10.2671,6.259 -3.3712,2.1614 -6.6928,4.3952 -9.9695,6.694 -3.2765,2.2989 -6.5081,4.6628 -9.6992,7.0841 -3.191,2.4213 -6.3416,4.9003 -9.4562,7.4293 -3.1144,2.5291 -6.1929,5.1081 -9.2402,7.7299 -3.047,2.6217 -6.0628,5.286 -9.0517,7.9855 -2.9887,2.6995 -5.9507,5.4341 -8.8902,8.1964 -2.9397,2.7624 -5.857,5.5525 -8.7563,8.3627 -2.8995,2.8102 -5.7811,5.6406 -8.6494,8.484 -2.8684,2.8432 -5.7235,5.6992 -8.5698,8.5604 -2.8465,2.8614 -5.684,5.7279 -8.5174,8.5923 -2.8335,2.8645 -5.6627,5.7267 -8.4924,8.5793 -2.8297,2.8527 -5.6596,5.6957 -8.4945,8.5215 -2.8348,2.8259 -5.6746,5.6346 -8.5238,8.4189 -1.202,1.2362 -2.4033,2.4733 -3.6037,3.7111 -1.2003,1.2379 -2.3999,2.4767 -3.5985,3.7162 -1.1986,1.2395 -2.3964,2.4798 -3.5934,3.721 -1.1972,1.241 -2.3933,2.4829 -3.5888,3.7254 -1.1955,1.2425 -2.3903,2.486 -3.5843,3.7299 -1.194,1.244 -2.3873,2.4888 -3.58,3.734 -1.1926,1.2454 -2.3845,2.4915 -3.5758,3.7381 -1.1912,1.2466 -2.3818,2.4937 -3.5718,3.7415 -1.1901,1.248 -2.3794,2.4964 -3.5683,3.7453 -1.1888,1.249 -2.3771,2.4986 -3.5648,3.7486 -1.1877,1.25 -2.3748,2.5006 -3.5615,3.7515 -1.1867,1.251 -2.3728,2.5025 -3.5586,3.7545 -1.1856,1.2519 -2.3709,2.5044 -3.5555,3.7571 -1.1849,1.2528 -2.3693,2.5061 -3.5532,3.7595 -1.184,1.2537 -2.3675,2.5077 -3.5508,3.762 -1.1831,1.2542 -2.366,2.5089 -3.5485,3.7638 v -11.2951 -11.2951 -11.2952 -11.2951 -11.2952 -11.295 -11.2951 -11.2951 -11.2952 -11.2951 -11.2952 -11.295 -11.2951 -11.2952 -11.2951 z"
       id="path62"
       inkscape:connector-curvature="0" />
    <path
       style="fill:#ecd5a3;fill-opacity:1;fill-rule:evenodd;stroke:none;stroke-width:0.49999994;stroke-linecap:butt;stroke-linejoin:miter;stroke-opacity:1"
       d="m 1851.1922,835.73798 c 114.7448,12.55145 150.4195,51.28802 185.1683,105.92522 0,0 -0.7329,201.937 8.148,337.3309 11.0265,8.9744 31.7377,4.5493 42.3701,-4.8888 8.7695,-7.7845 -1.3937,-27.4059 8.1481,-34.222 13.7664,-9.834 35.0759,11.7995 50.5181,4.8888 9.2228,-4.1274 16.2375,-14.482 17.9258,-24.4442 0,0 -48.9235,-200.3856 -110.8141,-378.07142 -44.4325,-68.15978 -168.3227,-92.07989 -201.4643,-6.5185 z"
       id="path1002"
       inkscape:connector-curvature="0"
       sodipodi:nodetypes="ccccccccc" />
    <path
       style="fill:#b0acbc;fill-opacity:1;fill-rule:evenodd;stroke:none;stroke-width:0.99999994px;stroke-linecap:butt;stroke-linejoin:miter;stroke-opacity:1"
       d="m 1745.221,952.7358 c 92.9316,-127.50731 291.1394,107.8895 291.1394,107.8895 29.8262,-2.314 17.9191,-111.2488 4.8888,-128.7399 -69.2392,-99.26885 -135.2583,-97.77708 -135.2583,-97.77708 -105.8209,-9.5757 -166.456,73.70228 -160.7699,118.62748 z"
       id="path1000"
       inkscape:connector-curvature="0"
       sodipodi:nodetypes="ccccc" />
    <ellipse
       style="opacity:1;fill:#808080;fill-opacity:1;fill-rule:nonzero;stroke:none;stroke-width:0.49999994;stroke-linecap:round;stroke-linejoin:round;stroke-miterlimit:4;stroke-dasharray:none;stroke-dashoffset:0;stroke-opacity:1"
       id="path1008"
       cx="1993.202"
       cy="1056.3035"
       rx="14.82305"
       ry="14.001177" />
    <ellipse
       style="opacity:1;fill:#ffffff;fill-opacity:1;fill-rule:nonzero;stroke:none;stroke-width:0.49999991;stroke-linecap:round;stroke-linejoin:round;stroke-miterlimit:4;stroke-dasharray:none;stroke-dashoffset:0;stroke-opacity:1"
       id="path1010"
       cx="2248.5017"
       cy="-53.398918"
       transform="rotate(29.266995)"
       rx="4.1616364"
       ry="7.7644563" />
  </g>
</svg>
