<?xml version="1.0" encoding="UTF-8" standalone="no"?>
<!-- Created with Inkscape (http://www.inkscape.org/) -->

<svg
   xmlns:dc="http://purl.org/dc/elements/1.1/"
   xmlns:cc="http://creativecommons.org/ns#"
   xmlns:rdf="http://www.w3.org/1999/02/22-rdf-syntax-ns#"
   xmlns:svg="http://www.w3.org/2000/svg"
   xmlns="http://www.w3.org/2000/svg"
   xmlns:sodipodi="http://sodipodi.sourceforge.net/DTD/sodipodi-0.dtd"
   xmlns:inkscape="http://www.inkscape.org/namespaces/inkscape"
   version="1.1"
   id="svg2"
   xml:space="preserve"
   width="76.23333"
   height="83.217331"
   viewBox="0 0 76.23333 83.217331"
   sodipodi:docname="Leonardo.svg"
   inkscape:version="0.92.2 5c3e80d, 2017-08-06"><metadata
     id="metadata8"><rdf:RDF><cc:Work
         rdf:about=""><dc:format>image/svg+xml</dc:format><dc:type
           rdf:resource="http://purl.org/dc/dcmitype/StillImage" /><dc:title /></cc:Work></rdf:RDF></metadata><defs
     id="defs6" /><sodipodi:namedview
     pagecolor="#ffffff"
     bordercolor="#666666"
     borderopacity="1"
     objecttolerance="10"
     gridtolerance="10"
     guidetolerance="10"
     inkscape:pageopacity="0"
     inkscape:pageshadow="2"
     inkscape:window-width="640"
     inkscape:window-height="480"
     id="namedview4"
     showgrid="false"
     inkscape:zoom="3.0153534"
     inkscape:cx="38.626725"
     inkscape:cy="21.477966"
     inkscape:current-layer="g10" /><g
     id="g10"
     inkscape:groupmode="layer"
     inkscape:label="Leonardo"
     transform="matrix(1.3333333,0,0,-1.3333333,0,83.217333)"><rect
       style="opacity:1;fill:#e6e6e6;fill-opacity:1;fill-rule:evenodd;stroke:none;stroke-width:4.5;stroke-linecap:round;stroke-miterlimit:4;stroke-dasharray:7.5000002, 3.75000009999999984;stroke-dashoffset:0;stroke-opacity:1"
       id="rect31"
       width="87.800659"
       height="77.602844"
       x="-16.167259"
       y="-73.871941"
       transform="scale(1,-1)" /><path
       inkscape:connector-curvature="0"
       id="path30"
       style="fill:#edd425;fill-opacity:1;fill-rule:nonzero;stroke:none"
       d="M 12.18892,29.6222 C 5.21554,28.40331 -5.89633,15.78876 5.83925,4.56356 17.603,-6.66164 78.80409,0.85021 49.18129,37.38929 24.23639,23.98104 32.79719,36.25518 12.18892,29.6222 Z" /><path
       inkscape:connector-curvature="0"
       id="path34"
       style="fill:#ffe4c4;fill-opacity:1;fill-rule:nonzero;stroke:none"
       d="m 37.33233,39.6852 c 0,9.78481 -6.34555,17.71675 -14.1734,17.71675 -7.82785,0 -14.17338,-7.93194 -14.17338,-17.71675 0,-9.78482 6.34553,-17.71675 14.17338,-17.71675 7.82785,0 14.1734,7.93193 14.1734,17.71675 z" /><path
       inkscape:connector-curvature="0"
       id="path38"
       style="fill:#df8020;fill-opacity:1;fill-rule:nonzero;stroke:none"
       d="m 9.15596,38.89149 c 6.71817,1.64408 3.82667,-4.79078 14.28672,-2.89151 C -4.5e-4,21.25994 5.2722,35.97185 9.15596,38.89149 Z" /><path
       inkscape:connector-curvature="0"
       id="path42"
       style="fill:#fffeee;fill-opacity:1;fill-rule:nonzero;stroke:none"
       d="m 23.28857,41.15107 c 0.66931,1.83893 0.14699,3.71725 -1.16667,4.19537 -1.31365,0.47812 -2.92114,-0.625 -3.59045,-2.46393 -0.66932,-1.83894 -0.14699,-3.71727 1.16665,-4.19538 1.31365,-0.47813 2.92114,0.625 3.59047,2.46394 z" /><path
       inkscape:connector-curvature="0"
       id="path46"
       style="fill:#000000;fill-opacity:1;fill-rule:nonzero;stroke:none"
       d="m 22.56328,41.11353 c 0.38229,1.05034 0.26637,2.05677 -0.2589,2.24794 -0.52528,0.19119 -1.26102,-0.50527 -1.6433,-1.55562 -0.38228,-1.05032 -0.26637,-2.05676 0.25892,-2.24794 0.52526,-0.19117 1.261,0.50529 1.64328,1.55562 z" /><path
       inkscape:connector-curvature="0"
       id="path50"
       style="fill:#fffeee;fill-opacity:1;fill-rule:nonzero;stroke:none"
       d="m 15.01242,43.33388 c 0.61204,1.68158 0.17085,3.38593 -0.98545,3.80678 -1.15629,0.42085 -2.58981,-0.60113 -3.20185,-2.28271 -0.61205,-1.68158 -0.17086,-3.38593 0.98544,-3.80678 1.15628,-0.42085 2.5898,0.60113 3.20186,2.28271 z" /><path
       inkscape:connector-curvature="0"
       id="path54"
       style="fill:#000000;fill-opacity:1;fill-rule:nonzero;stroke:none"
       d="m 14.38249,43.26122 c 0.34428,0.94594 0.28239,1.8369 -0.13828,1.99001 -0.42067,0.15309 -1.04078,-0.48961 -1.38508,-1.43556 -0.3443,-0.94594 -0.2824,-1.8369 0.13827,-1.98999 0.42067,-0.15311 1.04079,0.4896 1.38509,1.43554 z" /><path
       inkscape:connector-curvature="0"
       id="path58"
       style="fill:#2e0d07;fill-opacity:1;fill-rule:nonzero;stroke:none"
       d="M 11.53708,29.6222 C 5.21554,28.40331 -5.89633,15.78876 5.83925,4.56356 17.603,-6.66164 78.80409,0.85021 49.18129,37.38929 24.23639,24.83141 32.79719,33.42075 14.37149,25.5118 Z" /><path
       inkscape:connector-curvature="0"
       id="path62"
       style="fill:#59190d;fill-opacity:1;fill-rule:nonzero;stroke:none"
       d="M 11.53708,29.6222 C 5.21554,28.40331 -5.89633,15.78876 5.83925,4.56356 17.603,-6.66164 78.80409,0.85021 49.18129,37.38929 24.399642,27.760007 25.868525,13.975546 11.203102,3.5348307 5.5424565,12.879147 11.53708,29.6222 11.53708,29.6222 Z"
       sodipodi:nodetypes="ccccc" /><path
       inkscape:connector-curvature="0"
       id="path66"
       style="fill:#f5f5f5;fill-opacity:1;fill-rule:nonzero;stroke:none"
       d="m 37.8994,34.01592 c 0,1.8786 -1.52288,3.40148 -3.40148,3.40148 -1.8786,0 -3.40147,-1.52288 -3.40147,-3.40148 0,-1.8786 1.52287,-3.40147 3.40147,-3.40147 1.8786,0 3.40148,1.52287 3.40148,3.40147 z m -2.83486,-4.25227 c 0,1.8786 -1.52287,3.40147 -3.40146,3.40147 -1.8786,0 -3.40147,-1.52287 -3.40147,-3.40147 0,-1.8786 3.931052,-4.593039 3.931052,-4.593039 0,0 2.871878,2.714439 2.871878,4.593039 z m -20.4093,-2.83443 c 0,1.56564 -1.2692,2.83486 -2.83485,2.83486 -1.56565,0 -3.4968175,-4.423606 -3.4968175,-4.423606 0,0 1.9311675,-1.246104 3.4968175,-1.246104 1.56565,0 2.83485,1.26919 2.83485,2.83485 z m 1.27513,-4.25229 c 0,1.8786 -1.52287,3.40147 -3.40147,3.40147 -1.8786,0 -3.40148,-1.52287 -3.40148,-3.40147 0,-1.8786 1.52288,-3.40147 3.40148,-3.40147 1.8786,0 3.40147,1.52287 3.40147,3.40147 z m 0,-4.25183 c 0,1.8786 -1.52287,3.40148 -3.40147,3.40148 -1.8786,0 -3.40148,-1.52288 -3.40148,-3.40148 0,-1.8786 1.94513,-5.519798 1.94513,-5.519798 0,0 4.85782,3.641198 4.85782,5.519798 z m 4.11038,-2.83487 c 0,2.19177 -1.77675,3.96852 -3.96852,3.96852 -2.19177,0 -1.954584,-2.34335 -1.954584,-4.53512 0,-2.19177 1.425002,-4.990666 1.425002,-4.990666 0,0 4.498102,3.365496 4.498102,5.557266 z m 2.26783,2.83487 c 0,1.8786 -1.52288,3.40148 -3.40148,3.40148 -1.8786,0 -3.40147,-1.52288 -3.40147,-3.40148 0,-1.8786 5.255007,-6.04938 5.255007,-6.04938 0,0 1.547943,4.17078 1.547943,6.04938 z m 2.83483,2.83484 c 0,1.8786 -1.52287,3.40147 -3.40147,3.40147 -1.8786,0 -3.40147,-1.52287 -3.40147,-3.40147 0,-1.8786 4.725425,-5.122611 4.725425,-5.122611 0,0 2.077515,3.244011 2.077515,5.122611 z m 2.83443,2.83443 c 0,1.8786 -1.52287,3.40147 -3.40147,3.40147 -1.8786,0 -3.40147,-1.52287 -3.40147,-3.40147 0,-1.8786 1.52287,-3.40147 3.40147,-3.40147 1.8786,0 3.40147,1.52287 3.40147,3.40147 z m 2.83486,2.83485 c 0,1.8786 -1.52288,3.40148 -3.40148,3.40148 -1.8786,0 -3.40147,-1.52288 -3.40147,-3.40148 0,-1.8786 3.269075,-6.446566 3.269075,-6.446566 0,0 3.533875,4.567966 3.533875,6.446566 z m 2.83442,5.66927 c 0,1.8786 -1.52287,3.40147 -3.40147,3.40147 -1.8786,0 -3.40148,-1.52287 -3.40148,-3.40147 0,-1.87859 1.52288,-3.40148 3.40148,-3.40148 1.8786,0 3.40147,1.52289 3.40147,3.40148 z m -4.25184,-1.41741 c 0,1.87859 -1.52288,3.40146 -3.40148,3.40146 -1.8786,0 -3.40147,-1.52287 -3.40147,-3.40146 0,-1.8786 1.52287,-3.40147 3.40147,-3.40147 1.8786,0 3.40148,1.52287 3.40148,3.40147 z m -4.25187,0 c 0,1.87859 -1.52287,3.40146 -3.40147,3.40146 -1.8786,0 -3.40147,-1.52287 -3.40147,-3.40146 0,-1.8786 1.52287,-3.40147 3.40147,-3.40147 1.8786,0 3.40147,1.52287 3.40147,3.40147 z m -2.83483,-1.41743 c 0,1.8786 -1.52288,3.40147 -3.40148,3.40147 -1.8786,0 -3.40147,-1.52287 -3.40147,-3.40147 0,-1.8786 1.52287,-3.40148 3.40147,-3.40148 1.8786,0 3.40148,1.52288 3.40148,3.40148 z M 19.4737,28.34666 c 0,1.8786 -1.52287,3.40147 -3.40147,3.40147 -1.8786,0 -3.40147,-1.52287 -3.40147,-3.40147 0,-1.87861 1.52287,-3.40148 3.40147,-3.40148 1.8786,0 3.40147,1.52287 3.40147,3.40148 z m -1.98403,-0.85038 c 0,1.8786 -1.52287,3.40148 -3.40147,3.40148 -1.87861,0 -3.40148,-1.52288 -3.40148,-3.40148 0,-1.8786 1.52287,-3.40147 3.40148,-3.40147 1.8786,0 3.40147,1.52287 3.40147,3.40147 z M 11.82039,38.5515 c 0,0.9393 -0.76143,1.70075 -1.70073,1.70075 -0.9393,0 -1.70075,-0.76145 -1.70075,-1.70075 0,-0.9393 1.70075,-2.362697 1.70075,-2.362697 0,0 1.70073,1.423397 1.70073,2.362697 z m 2.26781,-0.28373 c 0,0.9393 -0.76145,1.70073 -1.70075,1.70073 -0.9393,0 -1.70073,-0.76143 -1.70073,-1.70073 0,-0.9393 1.70073,-1.70075 1.70073,-1.70075 0,0 1.70075,0.76145 1.70075,1.70075 z m 2.26777,-1.13367 c 0,0.9393 -0.76143,1.70073 -1.70073,1.70073 -0.9393,0 -1.70073,-0.76143 -1.70073,-1.70073 -0.0026,-0.946971 0.906357,-1.965531 0.906357,-1.965531 0,0 2.495103,1.026231 2.495103,1.965531 z m 2.26738,-1.41743 c 0,0.9393 -0.76143,1.70073 -1.70073,1.70073 -0.9393,0 -1.70075,-0.76143 -1.70075,-1.70073 0,-0.9393 1.70075,-1.70075 1.70075,-1.70075 0,0 1.70073,0.76145 1.70073,1.70075 z m 2.26779,-0.56705 c 0,0.9393 -0.76144,1.70073 -1.70074,1.70073 -0.9393,0 -1.70073,-0.76143 -1.70073,-1.70073 0,-0.9393 0.76143,-1.70075 1.70073,-1.70075 0.9393,0 1.70074,0.76145 1.70074,1.70075 z m 4.5356,-2.26781 c 0,1.8786 -1.52287,3.40148 -3.40147,3.40148 -1.87861,0 -3.40148,-1.52288 -3.40148,-3.40148 0,-1.8786 1.52287,-3.40147 3.40148,-3.40147 1.8786,0 3.40147,1.52287 3.40147,3.40147 z M 9.26928,37.98446 c 0,0.46965 -0.38072,0.85037 -0.85037,0.85037 -0.46965,0 -0.85036,-0.38072 -0.85036,-0.85037 0,-0.46965 0.7179645,-1.909524 0.7179645,-1.909524 0,0 0.9827655,1.439874 0.9827655,1.909524 z m 20.126,-4.5356 c 0,1.8786 -1.52288,3.40147 -3.40148,3.40147 -1.8786,0 -3.40147,-1.52287 -3.40147,-3.40147 0,-1.8786 1.52287,-3.40147 3.40147,-3.40147 1.8786,0 3.40148,1.52287 3.40148,3.40147 z"
       sodipodi:nodetypes="cccccccccccccccccccccccccccccccccccccccccccccccccccccccccccccccccccccccccccccccccccccccccccccccccccccccccccccccccccccccc" /><path
       inkscape:connector-curvature="0"
       id="path70"
       style="fill:#f5f5f5;fill-opacity:1;fill-rule:nonzero;stroke:none"
       d="M 34.49792,34.01592 11.82039,26.92922 16.07223,15.59023 Z" /><path
       inkscape:connector-curvature="0"
       id="path74"
       style="fill:#59190d;fill-opacity:1;fill-rule:nonzero;stroke:none"
       d="m 39.456975,43.926332 c 1.12478,2.41207 -3.71447,7.0492 -10.80892,10.3574 -7.09446,3.30821 -13.75731,4.03465 -14.88209,1.62258 -1.12477,-2.41208 3.71448,-7.0492 10.80893,-10.35741 7.09446,-3.30821 13.75731,-4.03465 14.88208,-1.62257 z" /><path
       style="color:#000000;font-style:normal;font-variant:normal;font-weight:normal;font-stretch:normal;font-size:medium;line-height:normal;font-family:sans-serif;font-variant-ligatures:normal;font-variant-position:normal;font-variant-caps:normal;font-variant-numeric:normal;font-variant-alternates:normal;font-feature-settings:normal;text-indent:0;text-align:start;text-decoration:none;text-decoration-line:none;text-decoration-style:solid;text-decoration-color:#000000;letter-spacing:normal;word-spacing:normal;text-transform:none;writing-mode:lr-tb;direction:ltr;text-orientation:mixed;dominant-baseline:auto;baseline-shift:baseline;text-anchor:start;white-space:normal;shape-padding:0;clip-rule:nonzero;display:inline;overflow:visible;visibility:visible;opacity:1;isolation:auto;mix-blend-mode:normal;color-interpolation:sRGB;color-interpolation-filters:linearRGB;solid-color:#000000;solid-opacity:1;vector-effect:none;fill:#2e0d07;fill-opacity:1;fill-rule:evenodd;stroke:none;stroke-width:4.5;stroke-linecap:butt;stroke-linejoin:miter;stroke-miterlimit:4;stroke-dasharray:none;stroke-dashoffset:0;stroke-opacity:1;color-rendering:auto;image-rendering:auto;shape-rendering:auto;text-rendering:auto;enable-background:accumulate"
       d="M 19.621094,3.1210938 C 17.218913,2.8937251 14.914188,2.8723891 12.775391,3.1269531 9.3555317,3.5339917 5.9822938,5.6273615 3.1503906,7.5292969 c 0,0 -2.46424149,4.1902181 -2.36440039,7.0355741 0,0 2.26503229,-1.548878 4.87416599,-3.301199 C 8.26929,9.5113507 11.614362,7.7971215 13.306641,7.5957031 c 6.827608,-0.8126357 17.942264,2.2017956 27.064453,5.5781249 9.122188,3.37633 16.879191,6.713725 16.879191,6.713725 l -0.507701,-4.689321 c 0,0 -5.437092,-2.775631 -14.810943,-6.245107 C 34.901252,6.3510182 26.827636,3.8031997 19.621094,3.1210938 Z"
       id="path1039"
       inkscape:connector-curvature="0"
       sodipodi:nodetypes="ssccsssccss" /><path
       d="m 40.118952,45.779869 c 1.12478,2.41207 -3.71447,7.0492 -10.80892,10.3574 -7.09446,3.30821 -13.75731,4.03465 -14.88209,1.62258 -1.12477,-2.41208 3.71448,-7.0492 10.80893,-10.35741 7.09446,-3.30821 13.75731,-4.03465 14.88208,-1.62257 z"
       style="fill:#350f08;fill-opacity:1;fill-rule:nonzero;stroke:none"
       id="path1043"
       inkscape:connector-curvature="0" /><path
       inkscape:connector-curvature="0"
       id="path78"
       style="fill:#59190d;fill-opacity:1;fill-rule:nonzero;stroke:none"
       d="m 42.601642,46.955726 c 1.12479,2.41207 -4.28959,7.31738 -12.09355,10.95643 -7.80395,3.63905 -15.04193,4.63368 -16.1667,2.2216 -1.12479,-2.41207 4.28959,-7.31739 12.09355,-10.95645 7.80394,-3.63903 15.04194,-4.63368 16.1667,-2.22158 z" /><path
       style="opacity:1;fill:#6495ed;fill-opacity:1;fill-rule:evenodd;stroke:none;stroke-width:4.5;stroke-linecap:round;stroke-miterlimit:4;stroke-dasharray:7.50000019, 3.75000009;stroke-dashoffset:0;stroke-opacity:1"
       d="m 3.7349863,15.918986 c 0.722364,-1.043021 1.865635,-1.502335 2.553601,-1.025864 0.687949,0.476453 0.660052,1.708231 -0.06231,2.751253 -0.722364,1.043021 -2.68178,1.650556 -3.493809,3.5853 -0.68795,-0.476453 0.280156,-4.267666 1.00252,-5.310689 z"
       id="path1047"
       inkscape:connector-curvature="0"
       sodipodi:nodetypes="ssscs" /><path
       sodipodi:nodetypes="cscc"
       inkscape:connector-curvature="0"
       id="path1050"
       d="m 3.7349863,15.918986 c 0.722364,-1.043021 1.865635,-1.502335 2.553601,-1.025864 0.687949,0.476453 0.660052,1.708231 -0.06231,2.751253 0,0 -2.13286,0.02768 -2.491289,-1.725389 z"
       style="opacity:1;fill:#ffe4c4;fill-opacity:1;fill-rule:evenodd;stroke:none;stroke-width:4.5;stroke-linecap:round;stroke-miterlimit:4;stroke-dasharray:7.50000019, 3.75000009;stroke-dashoffset:0;stroke-opacity:1" /><path
       style="fill:#b8860b;fill-opacity:1;fill-rule:evenodd;stroke:none;stroke-width:0.75px;stroke-linecap:butt;stroke-linejoin:miter;stroke-opacity:1"
       d="M 6.7439463,15.741851 14.06638,4.059419 13.435619,3.493017 5.1122533,14.804646 Z"
       id="path1045"
       inkscape:connector-curvature="0" /><ellipse
       style="opacity:1;fill:#b17e32;fill-opacity:1;fill-rule:evenodd;stroke:none;stroke-width:4.5;stroke-linecap:round;stroke-miterlimit:4;stroke-dasharray:7.50000034, 3.75000017;stroke-dashoffset:0;stroke-opacity:1"
       id="path1052"
       cx="27.60446"
       cy="-8.3409147"
       transform="scale(1,-1)"
       rx="8.5395079"
       ry="3.1774921" /><ellipse
       style="opacity:1;fill:#ff0000;fill-opacity:1;fill-rule:evenodd;stroke:none;stroke-width:4.5;stroke-linecap:round;stroke-miterlimit:4;stroke-dasharray:7.50000034, 3.75000017;stroke-dashoffset:0;stroke-opacity:1"
       id="path1054"
       cx="22.448826"
       cy="-8.7494459"
       transform="scale(1,-1)"
       rx="1.2558103"
       ry="0.49932015" /><ellipse
       ry="0.49932015"
       rx="1.2558103"
       transform="scale(1,-1)"
       cy="-7.2968783"
       cx="24.583702"
       id="ellipse1056"
       style="opacity:1;fill:#3cb371;fill-opacity:1;fill-rule:evenodd;stroke:none;stroke-width:4.5;stroke-linecap:round;stroke-miterlimit:4;stroke-dasharray:7.50000034, 3.75000017;stroke-dashoffset:0;stroke-opacity:1" /><ellipse
       style="opacity:1;fill:#ffff00;fill-opacity:1;fill-rule:evenodd;stroke:none;stroke-width:4.5;stroke-linecap:round;stroke-miterlimit:4;stroke-dasharray:7.50000034, 3.75000017;stroke-dashoffset:0;stroke-opacity:1"
       id="ellipse1058"
       cx="28.099972"
       cy="-7.0245242"
       transform="scale(1,-1)"
       rx="1.2558103"
       ry="0.49932015" /><ellipse
       ry="0.49932015"
       rx="1.2558103"
       transform="scale(1,-1)"
       cy="-7.6600223"
       cx="31.490658"
       id="ellipse1060"
       style="opacity:1;fill:#ffffff;fill-opacity:1;fill-rule:evenodd;stroke:none;stroke-width:4.5;stroke-linecap:round;stroke-miterlimit:4;stroke-dasharray:7.50000034, 3.75000017;stroke-dashoffset:0;stroke-opacity:1" /><ellipse
       style="opacity:1;fill:#0000ff;fill-opacity:1;fill-rule:evenodd;stroke:none;stroke-width:4.5;stroke-linecap:round;stroke-miterlimit:4;stroke-dasharray:7.50000034, 3.75000017;stroke-dashoffset:0;stroke-opacity:1"
       id="ellipse1062"
       cx="25.211607"
       cy="-10.11123"
       transform="scale(1,-1)"
       rx="1.2558103"
       ry="0.49932015" /></g></svg>