<?xml version="1.0" encoding="UTF-8" standalone="no"?>
<!-- Created with Inkscape (http://www.inkscape.org/) -->

<svg
   xmlns:dc="http://purl.org/dc/elements/1.1/"
   xmlns:cc="http://creativecommons.org/ns#"
   xmlns:rdf="http://www.w3.org/1999/02/22-rdf-syntax-ns#"
   xmlns:svg="http://www.w3.org/2000/svg"
   xmlns="http://www.w3.org/2000/svg"
   xmlns:sodipodi="http://sodipodi.sourceforge.net/DTD/sodipodi-0.dtd"
   xmlns:inkscape="http://www.inkscape.org/namespaces/inkscape"
   width="49.167458mm"
   height="55.718399mm"
   viewBox="0 0 49.167458 55.7184"
   version="1.1"
   id="svg8"
   inkscape:version="0.92.2 5c3e80d, 2017-08-06"
   sodipodi:docname="Phantom.svg">
  <defs
     id="defs2">
    <clipPath
       id="clipPath1759"
       clipPathUnits="userSpaceOnUse">
      <path
         inkscape:connector-curvature="0"
         id="path1757"
         d="M 0,0 H 85.447 V 47.793 H 0 Z" />
    </clipPath>
    <clipPath
       id="clipPath1869"
       clipPathUnits="userSpaceOnUse">
      <path
         inkscape:connector-curvature="0"
         id="path1867"
         d="M 0,0 H 63.153 V 66.922 H 0 Z" />
    </clipPath>
    <clipPath
       id="clipPath2011"
       clipPathUnits="userSpaceOnUse">
      <path
         inkscape:connector-curvature="0"
         id="path2009"
         d="M 0,0 H 63.153 V 63.379 H 0 Z" />
    </clipPath>
    <clipPath
       id="clipPath2073"
       clipPathUnits="userSpaceOnUse">
      <path
         inkscape:connector-curvature="0"
         id="path2071"
         d="M 0,0 H 63.153 V 63.379 H 0 Z" />
    </clipPath>
    <clipPath
       id="clipPath2135"
       clipPathUnits="userSpaceOnUse">
      <path
         inkscape:connector-curvature="0"
         id="path2133"
         d="M 0,0 H 63.153 V 63.379 H 0 Z" />
    </clipPath>
    <clipPath
       id="clipPath2197"
       clipPathUnits="userSpaceOnUse">
      <path
         inkscape:connector-curvature="0"
         id="path2195"
         d="M 0,0 H 63.153 V 63.379 H 0 Z" />
    </clipPath>
    <clipPath
       id="clipPath2259"
       clipPathUnits="userSpaceOnUse">
      <path
         inkscape:connector-curvature="0"
         id="path2257"
         d="M 0,0 H 63.153 V 63.379 H 0 Z" />
    </clipPath>
  </defs>
  <sodipodi:namedview
     id="base"
     pagecolor="#ffffff"
     bordercolor="#666666"
     borderopacity="1.0"
     inkscape:pageopacity="0.0"
     inkscape:pageshadow="2"
     inkscape:zoom="1.2305216"
     inkscape:cx="-52.268043"
     inkscape:cy="99.318917"
     inkscape:document-units="mm"
     inkscape:current-layer="layer1"
     showgrid="false"
     inkscape:snap-global="false"
     showguides="false"
     fit-margin-top="0"
     fit-margin-left="0"
     fit-margin-right="0"
     fit-margin-bottom="0" />
  <metadata
     id="metadata5">
    <rdf:RDF>
      <cc:Work
         rdf:about="">
        <dc:format>image/svg+xml</dc:format>
        <dc:type
           rdf:resource="http://purl.org/dc/dcmitype/StillImage" />
        <dc:title></dc:title>
      </cc:Work>
    </rdf:RDF>
  </metadata>
  <g
     inkscape:label="Layer 1"
     inkscape:groupmode="layer"
     id="layer1"
     transform="translate(-137.10456,-118.26446)">
    <rect
       style="opacity:1;fill:#e6e6e6;fill-opacity:1;fill-rule:evenodd;stroke:none;stroke-width:2"
       id="rect107"
       width="90.092216"
       height="83.641693"
       x="123.34346"
       y="102.16711" />
    <g
       style="stroke-width:2.87361789"
       id="g110"
       transform="matrix(0.12276433,0,0,-0.12276433,291.30763,189.225)" />
    <g
       style="stroke-width:2.87361789"
       id="g112"
       transform="matrix(0.12276433,0,0,-0.12276433,291.30763,189.225)" />
    <g
       style="stroke-width:2.87361789"
       id="g114"
       transform="matrix(0.12276433,0,0,-0.12276433,291.30763,189.225)" />
    <g
       style="stroke-width:2.87361789"
       id="g116"
       transform="matrix(0.12276433,0,0,-0.12276433,291.30763,189.225)" />
    <g
       id="g1845"
       transform="matrix(0.7016891,0.07366,0.07366,-0.7016891,-85.116409,142.6756)" />
    <g
       id="g1975"
       transform="matrix(0.33595027,0.10760428,0.10760428,-0.33595027,-84.657701,142.68962)" />
    <g
       id="g1995"
       transform="matrix(0.35277777,0,0,-0.35277777,-85.080002,145.47251)" />
    <g
       id="g2057"
       transform="matrix(0.09411405,-0.048387,-0.048387,-0.09411405,-60.909343,150.7005)" />
    <g
       id="g2119"
       transform="matrix(0.08787694,-0.00737306,-0.00737306,-0.08787694,-54.641484,144.32585)" />
    <g
       id="g2181"
       transform="matrix(0.06448778,0.02861028,0.02861028,-0.06448778,-45.818188,139.80605)" />
    <g
       id="g2243"
       transform="matrix(0.0493395,0.01910292,0.01910292,-0.0493395,-37.120367,143.84207)" />
    <g
       id="g2305"
       transform="matrix(0.04175125,-0.00694972,-0.00694972,-0.04175125,-29.792598,149.59284)" />
    <path
       inkscape:connector-curvature="0"
       id="path14"
       style="fill:#ffe1b4;fill-opacity:1;fill-rule:nonzero;stroke:none;stroke-width:0.35277778"
       d="m 147.21265,148.01335 c -6.02466,1.05235 -15.62368,11.95083 -5.48466,21.65008 10.16235,9.69665 63.04166,3.2063 37.4457,-28.36335 -21.54985,11.58622 -14.15489,0.98237 -31.96104,6.71327 z" />
    <path
       inkscape:connector-curvature="0"
       id="path16"
       style="fill:#d4b791;fill-opacity:1;fill-rule:nonzero;stroke:none;stroke-width:0.35277778"
       d="m 168.93703,139.31893 c 0,-8.45422 -5.4812,-15.30919 -12.24458,-15.30919 -6.76339,0 -12.24805,6.85497 -12.24805,15.30919 0,8.45423 5.48466,15.30574 12.24805,15.30574 6.76338,0 12.24458,-6.85151 12.24458,-15.30574 z" />
    <path
       d="m 158.3843,128.67393 c -8.77595,-6.03849 -13.9399,2.19078 -13.9399,10.645 0,8.45423 2.43318,4.25277 2.24671,10.59452 17.0416,-5.15122 -7.68838,-8.68193 11.69319,-21.23952 z"
       style="fill:#cbcbcb;fill-opacity:1;fill-rule:nonzero;stroke:none;stroke-width:0.35277778"
       id="path1163"
       inkscape:connector-curvature="0"
       sodipodi:nodetypes="cscc" />
    <path
       inkscape:connector-curvature="0"
       id="path18"
       style="fill:#d3882c;fill-opacity:1;fill-rule:nonzero;stroke:none;stroke-width:0.35277778"
       d="m 144.59301,140.00409 c 5.80521,-1.42042 3.30739,4.13768 12.34222,2.49781 -20.25299,12.73707 -15.69713,0.0233 -12.34222,-2.49781 z" />
    <path
       inkscape:connector-curvature="0"
       id="path20"
       style="fill:#ffffff;fill-opacity:1;fill-rule:nonzero;stroke:none;stroke-width:0.35277778"
       d="m 156.8039,138.04972 c 0.57715,-1.5863 0.12874,-3.20889 -1.00915,-3.62447 -1.13357,-0.41127 -2.5246,0.53999 -3.10175,2.12975 -0.57716,1.58976 -0.12788,3.21321 1.00915,3.62448 1.13443,0.41558 2.5246,-0.54 3.10175,-2.12976 z" />
    <path
       inkscape:connector-curvature="0"
       id="path22"
       style="fill:#000000;fill-opacity:1;fill-rule:nonzero;stroke:none;stroke-width:0.35277778"
       d="m 156.17577,138.08342 c 0.33092,-0.9072 0.22983,-1.77811 -0.22204,-1.94054 -0.45619,-0.16503 -1.09037,0.43545 -1.42128,1.34351 -0.33091,0.90807 -0.22896,1.77552 0.22637,1.94054 0.45187,0.16589 1.08691,-0.43545 1.41695,-1.34351 z" />
    <path
       inkscape:connector-curvature="0"
       id="path24"
       style="fill:#ffffff;fill-opacity:1;fill-rule:nonzero;stroke:none;stroke-width:0.35277778"
       d="m 149.65259,136.16707 c 0.52962,-1.45498 0.1486,-2.92637 -0.85105,-3.29097 -0.99878,-0.36461 -2.23689,0.52012 -2.76738,1.97078 -0.52618,1.45497 -0.14861,2.92636 0.85363,3.29097 0.99964,0.36461 2.2343,-0.52013 2.7648,-1.97078 z" />
    <path
       inkscape:connector-curvature="0"
       id="path26"
       style="fill:#000000;fill-opacity:1;fill-rule:nonzero;stroke:none;stroke-width:0.35277778"
       d="m 149.10913,136.22755 c 0.29721,-0.81648 0.24278,-1.5863 -0.11837,-1.71763 -0.36461,-0.1322 -0.90115,0.42163 -1.19836,1.23811 -0.29636,0.81734 -0.24279,1.5863 0.11836,1.72195 0.36461,0.13133 0.90115,-0.42595 1.19837,-1.24243 z" />
    <path
       inkscape:connector-curvature="0"
       id="path28"
       style="fill:#ffffff;fill-opacity:1;fill-rule:nonzero;stroke:none;stroke-width:0.35277778"
       d="m 146.64846,148.01335 c -5.46047,1.05235 -15.05949,11.95083 -4.92047,21.65008 10.16235,9.69665 63.04166,3.2063 37.4457,-28.36335 -21.54985,10.85096 -13.7972,4.26988 -29.71378,11.10066 z" />
    <path
       inkscape:connector-curvature="0"
       id="path30"
       style="fill:#454545;fill-opacity:1;fill-rule:nonzero;stroke:#454545;stroke-width:0.35277778"
       d="m 146.64846,148.01335 c -5.46047,1.05235 -15.05949,11.95083 -4.92047,21.65008 10.16235,9.69665 63.04166,3.2063 37.4457,-28.36335 -22.97027,11.58622 -14.15489,1.0057 -31.96104,17.61089 z" />
    <path
       inkscape:connector-curvature="0"
       id="path32"
       style="fill:#000000;fill-opacity:1;fill-rule:nonzero;stroke:none;stroke-width:0.35277778"
       d="m 147.87361,161.36127 c 0,-0.67824 -0.54691,-1.22515 -1.22515,-1.22515 -0.67478,0 -1.22169,0.54691 -1.22169,1.22515 0,0.67478 0.54691,1.22515 1.22169,1.22515 0.67824,0 1.22515,-0.55037 1.22515,-1.22515 z m -0.73267,3.67199 c 0,-0.67478 -0.5495,-1.22515 -1.22428,-1.22515 -0.67911,0 -1.22516,0.55037 -1.22516,1.22515 0,0.67824 0.54605,1.22515 1.22516,1.22515 0.67478,0 1.22428,-0.54691 1.22428,-1.22515 z m -0.24624,3.67545 c 0,-0.67824 -0.54605,-1.22515 -1.22515,-1.22515 -0.67478,0 -1.22515,0.54691 -1.22515,1.22515 0,0.67478 0.55037,1.22515 1.22515,1.22515 0.6791,0 1.22515,-0.55037 1.22515,-1.22515 z" />
    <path
       inkscape:connector-curvature="0"
       id="path36"
       style="fill:#000000;fill-opacity:1;fill-rule:nonzero;stroke:none;stroke-width:0.35277778"
       d="m 146.64846,148.01335 c -1.79539,0.33005 -2.91945,1.3703 -2.91945,1.3703 l 1.79885,1.22775 -2.14963,1.89734 3.87417,6.64501 12.24458,-6.07132 -1.29945,-1.6943 3.94934,0.20563 -0.89165,-3.37132 c -2.8918,0.88041 -5.21423,2.60841 -14.11687,10.91144 z" />
    <path
       inkscape:connector-curvature="0"
       id="path38"
       style="fill:#242424;fill-opacity:1;fill-rule:evenodd;stroke:none;stroke-width:0.35277778"
       d="m 147.67489,150.03165 -1.07049,3.80332 2.55225,-0.94867 1.03939,0.25661 1.60272,2.18333 1.21132,-4.20854 -2.51078,0.91497 -1.06617,-0.24969 z" />
    <path
       inkscape:connector-curvature="0"
       id="path1342"
       style="fill:#454545;fill-opacity:1;fill-rule:nonzero;stroke:none;stroke-width:0.35277778"
       d="m 175.09321,135.46099 c 0.33294,-1.24258 -6.95131,-4.27399 -16.2701,-6.77095 -9.31878,-2.49695 -17.14284,-3.5138 -17.47577,-2.27123 -0.33293,1.24257 6.95132,4.27398 16.27009,6.77094 9.31878,2.49698 17.14284,3.51382 17.47578,2.27124 z" />
    <path
       inkscape:connector-curvature="0"
       id="path1346"
       style="fill:#454545;fill-opacity:1;fill-rule:nonzero;stroke:none;stroke-width:0.35277778"
       d="m 150.38489,129.06628 2.71266,-10.12368 15.29796,4.09907 -2.71265,10.12369 z" />
    <path
       inkscape:connector-curvature="0"
       id="path1350"
       style="fill:#454545;fill-opacity:1;fill-rule:nonzero;stroke:none;stroke-width:0.35277778"
       d="m 168.39551,123.04166 c 0.26634,-0.99401 -2.94227,-2.71741 -7.16674,-3.84935 -4.22447,-1.13193 -7.86489,-1.24374 -8.13122,-0.24971 -0.26634,0.99399 2.94228,2.71741 7.16673,3.84933 4.22446,1.13194 7.8649,1.24373 8.13123,0.24973 z" />
    <path
       sodipodi:nodetypes="ccccc"
       inkscape:connector-curvature="0"
       id="path1354"
       style="fill:#454545;fill-opacity:1;fill-rule:nonzero;stroke:none;stroke-width:0.35277778"
       d="m 141.53019,125.70383 33.29584,8.92159 -8.23897,-4.83451 -15.29797,-4.09908 z" />
    <path
       inkscape:connector-curvature="0"
       id="path1358"
       style="fill:#454545;fill-opacity:1;fill-rule:nonzero;stroke:none;stroke-width:0.35277778"
       d="m 166.58706,129.79089 c 0.26632,-0.99401 -2.94228,-2.71741 -7.16674,-3.84934 -4.22447,-1.13193 -7.86489,-1.24374 -8.13123,-0.24972 -0.26634,0.994 2.94228,2.71741 7.16674,3.84934 4.22446,1.13193 7.86489,1.24374 8.13123,0.24972 z" />
    <path
       inkscape:connector-curvature="0"
       id="path1362"
       style="fill:#454545;fill-opacity:1;fill-rule:nonzero;stroke:none;stroke-width:0.35277778"
       d="m 151.28909,125.69183 0.60284,-2.24987 15.29797,4.09909 -0.60284,2.24986 z" />
    <path
       inkscape:connector-curvature="0"
       id="path1366"
       style="fill:#454545;fill-opacity:1;fill-rule:nonzero;stroke:none;stroke-width:0.35277778"
       d="m 167.1899,127.54104 c 0.26634,-0.99401 -2.94228,-2.71742 -7.16674,-3.84935 -4.22445,-1.13194 -7.86489,-1.24373 -8.13123,-0.24973 -0.26633,0.99402 2.94227,2.71742 7.16674,3.84935 4.22447,1.13194 7.8649,1.24373 8.13123,0.24973 z" />
    <g
       id="g4716"
       transform="matrix(0.35277777,0,0,-0.35277777,-68.177437,133.09448)">
      <g
         id="g4718" />
    </g>
  </g>
</svg>
