<?xml version="1.0" encoding="UTF-8" standalone="no"?>
<!-- Created with Inkscape (http://www.inkscape.org/) -->

<svg
   xmlns:dc="http://purl.org/dc/elements/1.1/"
   xmlns:cc="http://creativecommons.org/ns#"
   xmlns:rdf="http://www.w3.org/1999/02/22-rdf-syntax-ns#"
   xmlns:svg="http://www.w3.org/2000/svg"
   xmlns="http://www.w3.org/2000/svg"
   xmlns:xlink="http://www.w3.org/1999/xlink"
   xmlns:sodipodi="http://sodipodi.sourceforge.net/DTD/sodipodi-0.dtd"
   xmlns:inkscape="http://www.inkscape.org/namespaces/inkscape"
   version="1.1"
   id="svg2"
   xml:space="preserve"
   width="161.47528"
   height="93.846588"
   viewBox="0 0 161.47528 93.846589"
   sodipodi:docname="Surfer.svg"
   inkscape:version="0.92.2 5c3e80d, 2017-08-06"><metadata
     id="metadata8"><rdf:RDF><cc:Work
         rdf:about=""><dc:format>image/svg+xml</dc:format><dc:type
           rdf:resource="http://purl.org/dc/dcmitype/StillImage" /><dc:title /></cc:Work></rdf:RDF></metadata><defs
     id="defs6"><pattern
       inkscape:collect="always"
       xlink:href="#Strips1_1white"
       id="pattern2797"
       patternTransform="matrix(-0.2850762,-2.581046,-39.742425,4.3895454,172.74371,148.7719)" /><pattern
       inkscape:isstock="true"
       inkscape:stockid="Stripes 1:1 white"
       id="Strips1_1white"
       patternTransform="translate(0,0) scale(10,10)"
       height="1"
       width="2"
       patternUnits="userSpaceOnUse"
       inkscape:collect="always"><rect
         id="rect2068"
         height="2"
         width="1"
         y="-0.5"
         x="0"
         style="fill:white;stroke:none" /></pattern></defs><sodipodi:namedview
     pagecolor="#ffffff"
     bordercolor="#666666"
     borderopacity="1"
     objecttolerance="10"
     gridtolerance="10"
     guidetolerance="10"
     inkscape:pageopacity="0"
     inkscape:pageshadow="2"
     inkscape:window-width="640"
     inkscape:window-height="480"
     id="namedview4"
     showgrid="false"
     inkscape:zoom="18.025619"
     inkscape:cx="114.97814"
     inkscape:cy="56.561855"
     inkscape:current-layer="g10"
     fit-margin-top="0"
     fit-margin-left="0"
     fit-margin-right="0"
     fit-margin-bottom="0" /><g
     id="g10"
     inkscape:groupmode="layer"
     inkscape:label="Surfing"
     transform="matrix(1.3333333,0,0,-1.3333333,-36.56488,272.5499)"><rect
       style="opacity:1;fill:#e6e6e6;fill-opacity:1;fill-rule:evenodd;stroke:none;stroke-width:5.6692915"
       id="rect102"
       width="175.86072"
       height="89.423866"
       x="-1.5130806"
       y="-218.78413"
       transform="scale(1,-1)" /><path
       sodipodi:nodetypes="ccc"
       inkscape:connector-curvature="0"
       id="path2799"
       d="M 145.96293,138.31279 C 110.66827,127.27211 41.465761,138.40159 27.423661,162.10347 40.399611,154.5597 168.07817,150.78166 145.96293,138.31279 Z"
       style="fill:#b22234;fill-opacity:1;fill-rule:evenodd;stroke:none;stroke-width:0.75px;stroke-linecap:butt;stroke-linejoin:miter;stroke-opacity:1" /><path
       style="fill:url(#pattern2797);fill-opacity:1;fill-rule:evenodd;stroke:none;stroke-width:0.75px;stroke-linecap:butt;stroke-linejoin:miter;stroke-opacity:1"
       d="M 145.96293,138.31279 C 110.66827,127.27211 41.465761,138.40159 27.423661,162.10347 40.399611,154.5597 168.07817,150.78166 145.96293,138.31279 Z"
       id="path1005"
       inkscape:connector-curvature="0"
       sodipodi:nodetypes="ccc" /><path
       inkscape:connector-curvature="0"
       id="path1054"
       style="fill:#edd425;fill-opacity:1;fill-rule:nonzero;stroke:none"
       d="m 84.127926,177.86074 c -7.039952,0.74353 -21.189495,-8.33341 -12.988845,-22.35049 8.227743,-14.0248 69.138009,-23.61341 50.691759,19.65726 -27.668477,-6.04029 -16.06537,3.41011 -37.702914,2.69323 z" /><path
       inkscape:connector-curvature="0"
       id="path1058"
       style="fill:#edd425;fill-opacity:1;fill-rule:nonzero;stroke:none"
       d="m 111.06835,180.62992 c 2.68782,9.40841 -1.23478,18.7783 -8.76152,20.92855 -7.526722,2.15026 -15.806996,-3.73349 -18.494812,-13.1419 -2.687824,-9.40842 1.234764,-18.77829 8.761491,-20.92854 7.526721,-2.15026 15.807021,3.73347 18.494841,13.14189 z" /><path
       inkscape:connector-curvature="0"
       id="path1062"
       style="fill:#df8020;fill-opacity:1;fill-rule:nonzero;stroke:none"
       d="m 83.75784,187.60658 c 6.911358,-0.26459 2.363474,-5.65764 12.942859,-6.70473 -26.590298,-7.73336 -17.47921,4.96428 -12.942859,6.70473 z" /><path
       inkscape:connector-curvature="0"
       id="path1066"
       style="fill:#fffdd9;fill-opacity:1;fill-rule:nonzero;stroke:none"
       d="m 97.967494,185.89712 c 1.148702,1.58434 1.162433,3.53387 0.03064,4.35445 -1.131782,0.82058 -2.980457,0.20147 -4.129159,-1.38287 -1.14871,-1.58434 -1.162438,-3.5339 -0.03067,-4.35446 1.13178,-0.82059 2.98045,-0.20146 4.129182,1.38288 z" /><path
       inkscape:connector-curvature="0"
       id="path1070"
       style="fill:#000000;fill-opacity:1;fill-rule:nonzero;stroke:none"
       d="m 97.259792,186.06025 c 0.656101,0.90493 0.821101,1.90448 0.368549,2.23259 -0.452555,0.32812 -1.351307,-0.13944 -2.007402,-1.04438 -0.656091,-0.9049 -0.821107,-1.90447 -0.368535,-2.23258 0.452538,-0.32811 1.351289,0.13946 2.007388,1.04437 z" /><path
       inkscape:connector-curvature="0"
       id="path1074"
       style="fill:#fffdd9;fill-opacity:1;fill-rule:nonzero;stroke:none"
       d="m 90.609308,190.26936 c 1.050416,1.44877 1.094367,3.20875 0.09815,3.93103 -0.996204,0.72229 -2.655308,0.1334 -3.70573,-1.31537 -1.050416,-1.44877 -1.094372,-3.20874 -0.09815,-3.93103 0.99619,-0.72229 2.655294,-0.1334 3.70573,1.31537 z" /><path
       inkscape:connector-curvature="0"
       id="path1078"
       style="fill:#000000;fill-opacity:1;fill-rule:nonzero;stroke:none"
       d="m 89.983647,190.37253 c 0.590886,0.81498 0.776113,1.68866 0.413686,1.95145 -0.362432,0.26275 -1.135231,-0.18489 -1.726139,-0.99987 -0.5909,-0.81497 -0.776121,-1.68866 -0.413683,-1.95143 0.362429,-0.26277 1.135236,0.18488 1.726136,0.99985 z" /><path
       inkscape:connector-curvature="0"
       id="path1082"
       style="fill:#b22234;fill-opacity:1;fill-rule:nonzero;stroke:none"
       d="m 95.997047,193.58824 c 8.345873,12.79523 17.504603,-3.09927 15.518403,-10.56828 5.2229,15.05267 -11.623063,32.66552 -17.810615,11.90419 0,0 2.239043,-1.34727 2.292212,-1.33591 z" /><path
       d="m 69.053961,160.52556 c 0,0 1.06004,-3.26317 2.08512,-5.01531 1.02847,-1.7531 2.8801,-3.43688 5.297011,-4.95678 2.416907,-1.51989 5.399089,-2.87589 8.688659,-3.97342 3.289569,-1.09754 6.886533,-1.9366 10.532987,-2.42262 3.646455,-0.48602 7.342402,-0.619 10.829972,-0.30435 3.48756,0.31464 6.76673,1.07691 9.57963,2.38137 2.81289,1.30447 5.1595,3.15113 6.78195,5.63456 0.81122,1.24172 1.85831,4.21455 1.85831,4.21455 -8.83715,-0.74618 -55.653639,4.442 -55.653639,4.442 z"
       style="fill:#3c3b6e;fill-opacity:1;fill-rule:nonzero;stroke:none"
       id="path2801"
       inkscape:connector-curvature="0"
       sodipodi:nodetypes="ccsssssscc" /><path
       style="fill:#ffffff;stroke-width:0.12499994"
       d="m 120.19261,155.02641 -1.59335,-3.66705 3.44448,2.03016 -3.97993,0.38218 2.99519,-2.64853 z"
       id="s"
       inkscape:connector-curvature="0" /><use
       transform="translate(11.845012,15.460858)"
       style="fill:#7cfc00;stroke-width:7.13605738"
       id="use100"
       y="420"
       xlink:href="#s"
       x="0"
       width="100%"
       height="100%" /><use
       transform="translate(11.845012,15.460858)"
       style="fill:#7cfc00;stroke-width:7.13605738"
       id="use102"
       y="840"
       xlink:href="#s"
       x="0"
       width="100%"
       height="100%" /><use
       transform="translate(11.845012,15.460858)"
       style="fill:#7cfc00;stroke-width:7.13605738"
       id="use104"
       y="1260"
       xlink:href="#s"
       x="0"
       width="100%"
       height="100%" /><use
       height="100%"
       width="100%"
       x="0"
       xlink:href="#s"
       y="1680"
       id="use107"
       style="fill:#7cfc00;stroke-width:7.13605738"
       transform="translate(11.845015,15.460861)" /><path
       inkscape:connector-curvature="0"
       id="path3615"
       d="m 331.84833,405.29892 -2.16076,-3.36409 -0.22927,3.99167 2.53173,-3.09456 -3.86715,1.01544 z"
       style="fill:#7cfc00;stroke-width:0.12499994" /><use
       transform="translate(258.84501,225.46086)"
       height="100%"
       width="100%"
       x="0"
       xlink:href="#s"
       y="420"
       id="use3617"
       style="fill:#7cfc00;stroke-width:7.13605738" /><use
       transform="translate(258.84501,225.46086)"
       height="100%"
       width="100%"
       x="0"
       xlink:href="#s"
       y="840"
       id="use3619"
       style="fill:#7cfc00;stroke-width:7.13605738" /><use
       transform="translate(258.84501,225.46086)"
       height="100%"
       width="100%"
       x="0"
       xlink:href="#s"
       y="1260"
       id="use3621"
       style="fill:#7cfc00;stroke-width:7.13605738" /><path
       inkscape:connector-curvature="0"
       id="path3471"
       d="m 578.84833,195.29892 -2.16076,-3.36409 -0.22927,3.99167 2.53173,-3.09456 -3.86715,1.01544 z"
       style="fill:#7cfc00;stroke-width:0.12499994" /><use
       transform="translate(505.84501,15.460858)"
       height="100%"
       width="100%"
       x="0"
       xlink:href="#s"
       y="420"
       id="use3473"
       style="fill:#7cfc00;stroke-width:7.13605738" /><use
       transform="translate(505.84501,15.460858)"
       height="100%"
       width="100%"
       x="0"
       xlink:href="#s"
       y="840"
       id="use3475"
       style="fill:#7cfc00;stroke-width:7.13605738" /><use
       transform="translate(505.84501,15.460858)"
       height="100%"
       width="100%"
       x="0"
       xlink:href="#s"
       y="1260"
       id="use3477"
       style="fill:#7cfc00;stroke-width:7.13605738" /><use
       style="fill:#7cfc00;stroke-width:7.13605738"
       id="use3481"
       y="1680"
       xlink:href="#s"
       x="0"
       width="100%"
       height="100%"
       transform="translate(505.84501,15.460861)" /><path
       inkscape:connector-curvature="0"
       id="path3625"
       d="m 825.84833,405.29892 -2.16076,-3.36409 -0.22927,3.99167 2.53173,-3.09456 -3.86715,1.01544 z"
       style="fill:#7cfc00;stroke-width:0.12499994" /><use
       transform="translate(752.84501,225.46086)"
       height="100%"
       width="100%"
       x="0"
       xlink:href="#s"
       y="420"
       id="use3627"
       style="fill:#7cfc00;stroke-width:7.13605738" /><use
       transform="translate(752.84501,225.46086)"
       height="100%"
       width="100%"
       x="0"
       xlink:href="#s"
       y="840"
       id="use3629"
       style="fill:#7cfc00;stroke-width:7.13605738" /><use
       transform="translate(752.84501,225.46086)"
       height="100%"
       width="100%"
       x="0"
       xlink:href="#s"
       y="1260"
       id="use3631"
       style="fill:#7cfc00;stroke-width:7.13605738" /><path
       inkscape:connector-curvature="0"
       id="path3421"
       d="m 1072.8483,195.29892 -2.1608,-3.36409 -0.2293,3.99167 2.5318,-3.09456 -3.8672,1.01544 z"
       style="fill:#7cfc00;stroke-width:0.12499994" /><use
       height="100%"
       width="100%"
       x="0"
       xlink:href="#s"
       y="420"
       id="use3423"
       style="fill:#7cfc00;stroke-width:7.13605738"
       transform="translate(999.84496,15.460858)" /><use
       height="100%"
       width="100%"
       x="0"
       xlink:href="#s"
       y="840"
       id="use3425"
       style="fill:#7cfc00;stroke-width:7.13605738"
       transform="translate(999.84496,15.460858)" /><use
       height="100%"
       width="100%"
       x="0"
       xlink:href="#s"
       y="1260"
       id="use3427"
       style="fill:#7cfc00;stroke-width:7.13605738"
       transform="translate(999.84496,15.460858)" /><use
       transform="translate(999.84496,15.460858)"
       style="fill:#7cfc00;stroke-width:7.13605738"
       id="use3431"
       y="1680"
       xlink:href="#s"
       x="0"
       width="100%"
       height="100%" /><path
       inkscape:connector-curvature="0"
       id="path3605"
       d="m 1319.8483,405.29892 -2.1608,-3.36409 -0.2293,3.99167 2.5318,-3.09456 -3.8672,1.01544 z"
       style="fill:#7cfc00;stroke-width:0.12499994" /><use
       transform="translate(1246.8449,225.46086)"
       height="100%"
       width="100%"
       x="0"
       xlink:href="#s"
       y="420"
       id="use3607"
       style="fill:#7cfc00;stroke-width:7.13605738" /><use
       transform="translate(1246.8449,225.46086)"
       height="100%"
       width="100%"
       x="0"
       xlink:href="#s"
       y="840"
       id="use3609"
       style="fill:#7cfc00;stroke-width:7.13605738" /><use
       transform="translate(1246.8449,225.46086)"
       height="100%"
       width="100%"
       x="0"
       xlink:href="#s"
       y="1260"
       id="use3611"
       style="fill:#7cfc00;stroke-width:7.13605738" /><path
       style="fill:#7cfc00;stroke-width:0.12499994"
       d="m 1566.8483,195.29892 -2.1608,-3.36409 -0.2293,3.99167 2.5318,-3.09456 -3.8672,1.01544 z"
       id="path3489"
       inkscape:connector-curvature="0" /><use
       style="fill:#7cfc00;stroke-width:7.13605738"
       id="use3491"
       y="420"
       xlink:href="#s"
       x="0"
       width="100%"
       height="100%"
       transform="translate(1493.8449,15.460858)" /><use
       style="fill:#7cfc00;stroke-width:7.13605738"
       id="use3493"
       y="840"
       xlink:href="#s"
       x="0"
       width="100%"
       height="100%"
       transform="translate(1493.8449,15.460858)" /><use
       style="fill:#7cfc00;stroke-width:7.13605738"
       id="use3495"
       y="1260"
       xlink:href="#s"
       x="0"
       width="100%"
       height="100%"
       transform="translate(1493.8449,15.460858)" /><use
       transform="translate(1493.8449,15.460858)"
       height="100%"
       width="100%"
       x="0"
       xlink:href="#s"
       y="1680"
       id="use3499"
       style="fill:#7cfc00;stroke-width:7.13605738" /><path
       inkscape:connector-curvature="0"
       id="path3595"
       d="m 1813.8483,405.29892 -2.1608,-3.36409 -0.2293,3.99167 2.5318,-3.09456 -3.8672,1.01544 z"
       style="fill:#7cfc00;stroke-width:0.12499994" /><use
       transform="translate(1740.8449,225.46086)"
       height="100%"
       width="100%"
       x="0"
       xlink:href="#s"
       y="420"
       id="use3597"
       style="fill:#7cfc00;stroke-width:7.13605738" /><use
       transform="translate(1740.8449,225.46086)"
       height="100%"
       width="100%"
       x="0"
       xlink:href="#s"
       y="840"
       id="use3599"
       style="fill:#7cfc00;stroke-width:7.13605738" /><use
       transform="translate(1740.8449,225.46086)"
       height="100%"
       width="100%"
       x="0"
       xlink:href="#s"
       y="1260"
       id="use3601"
       style="fill:#7cfc00;stroke-width:7.13605738" /><path
       inkscape:connector-curvature="0"
       id="path3453"
       d="m 2060.8483,195.29892 -2.1608,-3.36409 -0.2293,3.99167 2.5318,-3.09456 -3.8672,1.01544 z"
       style="fill:#7cfc00;stroke-width:0.12499994" /><use
       height="100%"
       width="100%"
       x="0"
       xlink:href="#s"
       y="420"
       id="use3455"
       style="fill:#7cfc00;stroke-width:7.13605738"
       transform="translate(1987.8449,15.460858)" /><use
       height="100%"
       width="100%"
       x="0"
       xlink:href="#s"
       y="840"
       id="use3457"
       style="fill:#7cfc00;stroke-width:7.13605738"
       transform="translate(1987.8449,15.460858)" /><use
       height="100%"
       width="100%"
       x="0"
       xlink:href="#s"
       y="1260"
       id="use3459"
       style="fill:#7cfc00;stroke-width:7.13605738"
       transform="translate(1987.8449,15.460858)" /><use
       transform="translate(1987.8449,15.460858)"
       style="fill:#7cfc00;stroke-width:7.13605738"
       id="use3463"
       y="1680"
       xlink:href="#s"
       x="0"
       width="100%"
       height="100%" /><path
       inkscape:connector-curvature="0"
       id="path3585"
       d="m 2307.8483,405.29892 -2.1608,-3.36409 -0.2293,3.99167 2.5318,-3.09456 -3.8672,1.01544 z"
       style="fill:#7cfc00;stroke-width:0.12499994" /><use
       transform="translate(2234.8449,225.46086)"
       height="100%"
       width="100%"
       x="0"
       xlink:href="#s"
       y="420"
       id="use3587"
       style="fill:#7cfc00;stroke-width:7.13605738" /><use
       transform="translate(2234.8449,225.46086)"
       height="100%"
       width="100%"
       x="0"
       xlink:href="#s"
       y="840"
       id="use3589"
       style="fill:#7cfc00;stroke-width:7.13605738" /><use
       transform="translate(2234.8449,225.46086)"
       height="100%"
       width="100%"
       x="0"
       xlink:href="#s"
       y="1260"
       id="use3591"
       style="fill:#7cfc00;stroke-width:7.13605738" /><path
       inkscape:connector-curvature="0"
       id="path3533"
       d="m 2554.8483,195.29892 -2.1608,-3.36409 -0.2293,3.99167 2.5318,-3.09456 -3.8672,1.01544 z"
       style="fill:#7cfc00;stroke-width:0.12499994" /><use
       height="100%"
       width="100%"
       x="0"
       xlink:href="#s"
       y="420"
       id="use3535"
       style="fill:#7cfc00;stroke-width:7.13605738"
       transform="translate(2481.8449,15.460858)" /><use
       height="100%"
       width="100%"
       x="0"
       xlink:href="#s"
       y="840"
       id="use3537"
       style="fill:#7cfc00;stroke-width:7.13605738"
       transform="translate(2481.8449,15.460858)" /><use
       height="100%"
       width="100%"
       x="0"
       xlink:href="#s"
       y="1260"
       id="use3539"
       style="fill:#7cfc00;stroke-width:7.13605738"
       transform="translate(2481.8449,15.460858)" /><use
       transform="translate(2481.8449,15.460858)"
       style="fill:#7cfc00;stroke-width:7.13605738"
       id="use3543"
       y="1680"
       xlink:href="#s"
       x="0"
       width="100%"
       height="100%" /><use
       height="100%"
       width="100%"
       x="0"
       xlink:href="#s"
       y="420"
       id="use2805"
       style="fill:#7cfc00;stroke-width:7.13605738"
       transform="translate(38.692506,-24.103859)" /><use
       height="100%"
       width="100%"
       x="0"
       xlink:href="#s"
       y="840"
       id="use2807"
       style="fill:#7cfc00;stroke-width:7.13605738"
       transform="translate(38.692506,-24.103859)" /><use
       height="100%"
       width="100%"
       x="0"
       xlink:href="#s"
       y="1260"
       id="use2809"
       style="fill:#7cfc00;stroke-width:7.13605738"
       transform="translate(38.692506,-24.103859)" /><use
       style="fill:#7cfc00;stroke-width:7.13605738"
       id="use2813"
       y="1680"
       xlink:href="#s"
       x="0"
       width="100%"
       height="100%"
       transform="translate(38.692506,-24.103859)" /><g
       transform="matrix(0.01109173,-0.01355755,-0.01355755,-0.01109173,357.17634,370.08117)"
       style="fill:#7cfc00;stroke-width:7.13605738"
       id="use2817"><path
         style="fill:#7cfc00;stroke-width:7.13605738"
         d="M 247,90 317.53423,307.08204 132.87322,172.91796 H 361.12678 L 176.46577,307.08204 Z"
         id="path3641"
         inkscape:connector-curvature="0" /><use
         transform="matrix(36.149003,-44.185345,-44.185345,-36.149003,5554.2097,9816.6432)"
         style="fill:#7cfc00;stroke-width:7.13605738"
         id="use3643"
         y="420"
         xlink:href="#s"
         x="0"
         width="100%"
         height="100%" /><use
         transform="matrix(36.149003,-44.185345,-44.185345,-36.149003,5554.2097,9816.6432)"
         style="fill:#7cfc00;stroke-width:7.13605738"
         id="use3645"
         y="840"
         xlink:href="#s"
         x="0"
         width="100%"
         height="100%" /><use
         transform="matrix(36.149003,-44.185345,-44.185345,-36.149003,5554.2097,9816.6432)"
         style="fill:#7cfc00;stroke-width:7.13605738"
         id="use3647"
         y="1260"
         xlink:href="#s"
         x="0"
         width="100%"
         height="100%" /></g><path
       inkscape:connector-curvature="0"
       id="path3719"
       d="m 120.19261,155.02641 -1.59335,-3.66705 3.44448,2.03016 -3.97993,0.38218 2.99519,-2.64853 z"
       style="fill:#ffffff;stroke-width:0.12499994" /><path
       style="fill:#ffffff;stroke-width:0.12499994"
       d="m 114.90156,155.08521 -1.59335,-3.66704 3.44448,2.03016 -3.97993,0.38218 2.99519,-2.64854 z"
       id="path3729"
       inkscape:connector-curvature="0" /><path
       inkscape:connector-curvature="0"
       id="path3731"
       d="m 109.05646,155.52333 -1.59334,-3.66705 3.44448,2.03016 -3.97993,0.38218 2.99519,-2.64853 z"
       style="fill:#ffffff;stroke-width:0.12499994" /><path
       style="fill:#ffffff;stroke-width:0.12499994"
       d="m 103.52219,156.16953 -1.59334,-3.66704 3.44448,2.03016 -3.97994,0.38218 2.9952,-2.64854 z"
       id="path3733"
       inkscape:connector-curvature="0" /><path
       inkscape:connector-curvature="0"
       id="path3735"
       d="m 97.434764,156.7455 -1.593345,-3.66704 3.44448,2.03016 -3.979935,0.38218 2.995196,-2.64854 z"
       style="fill:#ffffff;stroke-width:0.12499994" /><path
       style="fill:#ffffff;stroke-width:0.12499994"
       d="m 91.693273,157.25298 -1.593344,-3.66705 3.44448,2.03016 -3.979935,0.38218 2.995195,-2.64853 z"
       id="path3737"
       inkscape:connector-curvature="0" /><path
       style="fill:#ffffff;stroke-width:0.12499994"
       d="m 85.743687,158.07128 -1.593344,-3.66705 3.44448,2.03016 -3.979935,0.38218 2.995195,-2.64853 z"
       id="path3739"
       inkscape:connector-curvature="0" /><path
       inkscape:connector-curvature="0"
       id="path3741"
       d="m 80.348146,158.51027 -1.593345,-3.66705 3.444481,2.03016 -3.979935,0.38218 2.995195,-2.64853 z"
       style="fill:#ffffff;stroke-width:0.12499994" /><path
       style="fill:#ffffff;stroke-width:0.12499994"
       d="m 74.849001,158.8799 -1.59335,-3.66705 3.444484,2.03016 -3.979934,0.38218 2.99519,-2.64853 z"
       id="path3743"
       inkscape:connector-curvature="0" /><path
       style="fill:#ffffff;stroke-width:0.12499994"
       d="m 117.22662,150.94001 -1.59335,-3.66705 3.44448,2.03016 -3.97993,0.38218 2.99519,-2.64853 z"
       id="path3747"
       inkscape:connector-curvature="0" /><path
       inkscape:connector-curvature="0"
       id="path3749"
       d="m 111.93557,150.99881 -1.59335,-3.66704 3.44448,2.03016 -3.97993,0.38218 2.99519,-2.64854 z"
       style="fill:#ffffff;stroke-width:0.12499994" /><path
       style="fill:#ffffff;stroke-width:0.12499994"
       d="m 106.09047,151.43692 -1.59334,-3.66704 3.44448,2.03016 -3.97994,0.38218 2.9952,-2.64854 z"
       id="path3751"
       inkscape:connector-curvature="0" /><path
       inkscape:connector-curvature="0"
       id="path3753"
       d="m 100.5562,152.08313 -1.593345,-3.66704 3.444475,2.03016 -3.97993,0.38218 2.9952,-2.64854 z"
       style="fill:#ffffff;stroke-width:0.12499994" /><path
       style="fill:#ffffff;stroke-width:0.12499994"
       d="m 94.468771,152.6591 -1.593345,-3.66705 3.44448,2.03016 -3.979935,0.38218 2.995195,-2.64853 z"
       id="path3755"
       inkscape:connector-curvature="0" /><path
       inkscape:connector-curvature="0"
       id="path3757"
       d="m 88.72728,153.16658 -1.593344,-3.66705 3.44448,2.03016 -3.979935,0.38218 2.995195,-2.64853 z"
       style="fill:#ffffff;stroke-width:0.12499994" /><path
       inkscape:connector-curvature="0"
       id="path3759"
       d="m 82.777694,153.98488 -1.593345,-3.66705 3.444481,2.03016 -3.979935,0.38218 2.995195,-2.64853 z"
       style="fill:#ffffff;stroke-width:0.12499994" /><path
       style="fill:#ffffff;stroke-width:0.12499994"
       d="m 77.382153,154.42387 -1.593342,-3.66705 3.444477,2.03016 -3.979937,0.38218 2.995198,-2.64853 z"
       id="path3761"
       inkscape:connector-curvature="0" /><path
       style="fill:#ffffff;stroke-width:0.12499994"
       d="m 108.65699,147.60343 -1.59334,-3.66705 3.44448,2.03016 -3.97994,0.38218 2.9952,-2.64853 z"
       id="path3765"
       inkscape:connector-curvature="0" /><path
       inkscape:connector-curvature="0"
       id="path3767"
       d="m 102.8119,148.04154 -1.59335,-3.66704 3.44448,2.03016 -3.97993,0.38218 2.99519,-2.64854 z"
       style="fill:#ffffff;stroke-width:0.12499994" /><path
       style="fill:#ffffff;stroke-width:0.12499994"
       d="m 97.277627,148.68775 -1.593345,-3.66705 3.44448,2.03016 -3.979935,0.38218 2.995196,-2.64853 z"
       id="path3769"
       inkscape:connector-curvature="0" /><path
       inkscape:connector-curvature="0"
       id="path3771"
       d="m 91.190198,149.26371 -1.593345,-3.66704 3.44448,2.03016 -3.979935,0.38218 2.995196,-2.64854 z"
       style="fill:#ffffff;stroke-width:0.12499994" /><path
       style="fill:#ffffff;stroke-width:0.12499994"
       d="m 85.448707,149.77119 -1.593344,-3.66704 3.44448,2.03016 -3.979935,0.38218 2.995195,-2.64854 z"
       id="path3773"
       inkscape:connector-curvature="0" /></g></svg>