<?xml version="1.0" encoding="UTF-8" standalone="no"?>
<!-- Created with Inkscape (http://www.inkscape.org/) -->

<svg
   xmlns:dc="http://purl.org/dc/elements/1.1/"
   xmlns:cc="http://creativecommons.org/ns#"
   xmlns:rdf="http://www.w3.org/1999/02/22-rdf-syntax-ns#"
   xmlns:svg="http://www.w3.org/2000/svg"
   xmlns="http://www.w3.org/2000/svg"
   xmlns:xlink="http://www.w3.org/1999/xlink"
   xmlns:sodipodi="http://sodipodi.sourceforge.net/DTD/sodipodi-0.dtd"
   xmlns:inkscape="http://www.inkscape.org/namespaces/inkscape"
   version="1.1"
   id="svg2"
   xml:space="preserve"
   width="399.18655"
   height="349.83133"
   viewBox="0 0 399.18655 349.83133"
   sodipodi:docname="viking.svg"
   inkscape:version="0.92.2 5c3e80d, 2017-08-06"><metadata
     id="metadata8"><rdf:RDF><cc:Work
         rdf:about=""><dc:format>image/svg+xml</dc:format><dc:type
           rdf:resource="http://purl.org/dc/dcmitype/StillImage" /><dc:title></dc:title></cc:Work></rdf:RDF></metadata><defs
     id="defs6"><pattern
       inkscape:collect="always"
       xlink:href="#Strips1_1white"
       id="pattern2394"
       patternTransform="matrix(-5.4307526,-1.2490639,13.855651,-60.242404,572.43012,-95.264647)" /><pattern
       inkscape:stockid="Stripes 1:1 white"
       id="Strips1_1white"
       patternTransform="translate(0,0) scale(10,10)"
       height="1"
       width="2"
       patternUnits="userSpaceOnUse"
       inkscape:collect="always"><rect
         id="rect1677"
         height="2"
         width="1"
         y="-0.5"
         x="0"
         style="fill:white;stroke:none" /></pattern></defs><sodipodi:namedview
     pagecolor="#ffffff"
     bordercolor="#666666"
     borderopacity="1"
     objecttolerance="10"
     gridtolerance="10"
     guidetolerance="10"
     inkscape:pageopacity="0"
     inkscape:pageshadow="2"
     inkscape:window-width="640"
     inkscape:window-height="480"
     id="namedview4"
     showgrid="false"
     inkscape:zoom="5.6790981"
     inkscape:cx="24.862044"
     inkscape:cy="32.314522"
     inkscape:current-layer="g10"
     fit-margin-top="0"
     fit-margin-left="0"
     fit-margin-right="0"
     fit-margin-bottom="0" /><g
     id="g10"
     inkscape:groupmode="layer"
     inkscape:label="viking"
     transform="matrix(1.3333333,0,0,-1.3333333,165.04768,410.84297)"><rect
       style="opacity:1;fill:#add8e6;fill-opacity:1;fill-rule:evenodd;stroke:none;stroke-width:0.28346458;stroke-linecap:round;stroke-linejoin:round;stroke-miterlimit:4;stroke-dasharray:none;stroke-dashoffset:0;stroke-opacity:1"
       id="rect151"
       width="299.38992"
       height="262.3735"
       x="-123.78577"
       y="-308.13223"
       transform="scale(1,-1)" /><g
       id="g12"
       transform="matrix(-0.89981184,0,0,0.89981184,-11.609718,103.19289)"
       style="stroke-width:1.11134338"><g
         id="g14"
         style="stroke-width:1.11134338"><g
           id="g16"
           style="stroke-width:1.11134338"><g
             id="g18"
             style="stroke-width:1.11134338"><g
               id="g20"
               style="stroke-width:1.11134338" /><g
               id="g22"
               style="stroke-width:1.11134338" /><g
               id="g24"
               style="stroke-width:1.11134338" /><g
               id="g26"
               style="stroke-width:1.11134338" /><g
               id="g28"
               style="stroke-width:1.11134338"><path
                 d="m 21.89203,67.34053 c -3.83791,-7.29086 0.54717,-10.00072 1.80585,-10.93889 1.0887,-0.62934 1.17347,-1.09433 1.39752,-2.05238 0,-1.63846 -1.2643,-2.96506 -2.82619,-2.96506 -0.91008,0.14447 -1.74617,0.295 -2.52561,1.18517 0,0 -7.12649,10.52795 2.14843,14.77116 z"
                 style="fill:#f2e6d9;fill-opacity:1;fill-rule:nonzero;stroke:none;stroke-width:1.11134338"
                 id="path30"
                 inkscape:connector-curvature="0" /></g><g
               id="g32"
               style="stroke-width:1.11134338"><path
                 d="M 14.54192,32.4572 C 7.56854,31.23831 -3.54333,18.62376 8.19225,7.39856 19.956,-3.82664 81.15709,3.68521 51.53429,40.22429 26.58939,26.81604 35.15019,39.09018 14.54192,32.4572 Z"
                 style="fill:#edd425;fill-opacity:1;fill-rule:nonzero;stroke:none;stroke-width:1.11134338"
                 id="path34"
                 inkscape:connector-curvature="0" /></g><g
               id="g36"
               style="stroke-width:1.11134338"><path
                 d="m 39.68533,42.5202 c 0,9.78481 -6.34555,17.71675 -14.1734,17.71675 -7.82785,0 -14.17338,-7.93194 -14.17338,-17.71675 0,-9.78482 6.34553,-17.71675 14.17338,-17.71675 7.82785,0 14.1734,7.93193 14.1734,17.71675 z"
                 style="fill:#edd425;fill-opacity:1;fill-rule:nonzero;stroke:none;stroke-width:1.11134338"
                 id="path38"
                 inkscape:connector-curvature="0" /></g><g
               id="g40"
               style="stroke-width:1.11134338"><path
                 d="m 11.50896,41.72649 c 6.71817,1.64408 3.82667,-4.79078 14.28672,-2.89151 C 2.35255,24.09494 7.6252,38.80685 11.50896,41.72649 Z"
                 style="fill:#df8020;fill-opacity:1;fill-rule:nonzero;stroke:none;stroke-width:1.11134338"
                 id="path42"
                 inkscape:connector-curvature="0" /></g><g
               id="g44"
               style="stroke-width:1.11134338"><path
                 d="m 25.64157,43.98607 c 0.66931,1.83893 0.14699,3.71725 -1.16667,4.19537 -1.31365,0.47812 -2.92114,-0.625 -3.59045,-2.46393 -0.66932,-1.83894 -0.14699,-3.71727 1.16665,-4.19538 1.31365,-0.47813 2.92114,0.625 3.59047,2.46394 z"
                 style="fill:#fffdd9;fill-opacity:1;fill-rule:nonzero;stroke:none;stroke-width:1.11134338"
                 id="path46"
                 inkscape:connector-curvature="0" /></g><g
               id="g48"
               style="stroke-width:1.11134338"><path
                 d="m 24.91628,43.94853 c 0.38229,1.05034 0.26637,2.05677 -0.2589,2.24794 -0.52528,0.19119 -1.26102,-0.50527 -1.6433,-1.55562 -0.38228,-1.05032 -0.26637,-2.05676 0.25892,-2.24794 0.52526,-0.19117 1.261,0.50529 1.64328,1.55562 z"
                 style="fill:#000000;fill-opacity:1;fill-rule:nonzero;stroke:none;stroke-width:1.11134338"
                 id="path50"
                 inkscape:connector-curvature="0" /></g><g
               id="g52"
               style="stroke-width:1.11134338"><path
                 d="m 17.36542,46.16888 c 0.61204,1.68158 0.17085,3.38593 -0.98545,3.80678 -1.15629,0.42085 -2.58981,-0.60113 -3.20185,-2.28271 -0.61205,-1.68158 -0.17086,-3.38593 0.98544,-3.80678 1.15628,-0.42085 2.5898,0.60113 3.20186,2.28271 z"
                 style="fill:#fffdd9;fill-opacity:1;fill-rule:nonzero;stroke:none;stroke-width:1.11134338"
                 id="path54"
                 inkscape:connector-curvature="0" /></g><g
               id="g56"
               style="stroke-width:1.11134338"><path
                 d="m 16.73549,46.09622 c 0.34428,0.94594 0.28239,1.8369 -0.13828,1.99001 -0.42067,0.15309 -1.04078,-0.48961 -1.38508,-1.43556 -0.3443,-0.94594 -0.2824,-1.8369 0.13827,-1.98999 0.42067,-0.15311 1.04079,0.4896 1.38509,1.43554 z"
                 style="fill:#000000;fill-opacity:1;fill-rule:nonzero;stroke:none;stroke-width:1.11134338"
                 id="path58"
                 inkscape:connector-curvature="0" /></g><g
               id="g60"
               style="stroke-width:1.11134338"><path
                 d="m 40.62395,42.95966 c 0.09604,5.8704 -1.31838,15.13147 -11.0613,17.35948 -9.57811,2.19124 -15.97319,-5.62688 -16.86032,-8.7762 4.48152,0.56145 19.91361,-1.99271 27.92162,-8.58328 z"
                 style="fill:#808080;fill-opacity:1;fill-rule:nonzero;stroke:none;stroke-width:1.11134338"
                 id="path62"
                 inkscape:connector-curvature="0" /></g><g
               id="g64"
               style="stroke-width:1.11134338"><path
                 d="m 29.14612,60.54881 c -2.51435,-0.13624 -4.49581,-2.00697 -6.0378,-3.82666 -0.92994,-1.1367 -1.71803,-2.38415 -2.38977,-3.68825 -2.26477,0.42519 -4.55246,0.74267 -6.85141,0.8932 -0.84172,-0.54717 -2.20508,-3.01047 -0.42214,-3.01351 1.9927,-0.2634 3.9854,-0.54974 5.9582,-0.94119 0,0 0,0 2.11209,-0.44768 6.80598,-1.55628 12.82388,-3.65408 18.48494,-7.7926 0.73143,0.67476 1.20462,1.43733 1.0316,2.3556 -0.16435,1.06014 -1.26128,1.4542 -2.00957,2.04936 -4.85307,3.209 -10.43454,5.13941 -16.0757,6.43487 1.80887,3.19775 4.50444,6.11436 8.04218,7.34753 -0.51299,0.42517 -1.18211,0.63496 -1.84262,0.62933 z"
                 style="fill:#595959;fill-opacity:1;fill-rule:nonzero;stroke:none;stroke-width:1.11134338"
                 id="path66"
                 inkscape:connector-curvature="0" /></g><g
               id="g68"
               style="stroke-width:1.11134338"><path
                 d="m 14.65523,52.2999 c 0,0.23481 -0.19036,0.42518 -0.42519,0.42518 -0.23482,0 -0.42517,-0.19037 -0.42517,-0.42518 0,-0.23484 0.19035,-0.42519 0.42517,-0.42519 0.23483,0 0.42519,0.19035 0.42519,0.42519 z m 2.38113,-0.28333 c 0,0.23483 -0.19035,0.42519 -0.42518,0.42519 -0.23482,0 -0.42519,-0.19036 -0.42519,-0.42519 0,-0.23482 0.19037,-0.42519 0.42519,-0.42519 0.23483,0 0.42518,0.19037 0.42518,0.42519 z m 2.7782,-0.36853 c 0,0.23483 -0.19037,0.42519 -0.42519,0.42519 -0.23483,0 -0.42518,-0.19036 -0.42518,-0.42519 0,-0.23482 0.19035,-0.42519 0.42518,-0.42519 0.23482,0 0.42519,0.19037 0.42519,0.42519 z m 3.03294,-0.65225 c 0,0.23483 -0.19036,0.42518 -0.42518,0.42518 -0.23482,0 -0.42519,-0.19035 -0.42519,-0.42518 0,-0.23482 0.19037,-0.42519 0.42519,-0.42519 0.23482,0 0.42518,0.19037 0.42518,0.42519 z m 3.06151,-0.82184 c 0,0.23483 -0.19035,0.42519 -0.42518,0.42519 -0.23482,0 -0.42519,-0.19036 -0.42519,-0.42519 0,-0.23482 0.19037,-0.42519 0.42519,-0.42519 0.23483,0 0.42518,0.19037 0.42518,0.42519 z m 2.94819,-0.82223 c 0,0.23481 -0.19036,0.42518 -0.4252,0.42518 -0.23481,0 -0.42518,-0.19037 -0.42518,-0.42518 0,-0.23484 0.19037,-0.42519 0.42518,-0.42519 0.23484,0 0.4252,0.19035 0.4252,0.42519 z m 2.7211,-0.99225 c 0,0.23481 -0.19038,0.42518 -0.4252,0.42518 -0.23483,0 -0.42518,-0.19037 -0.42518,-0.42518 0,-0.23484 0.19035,-0.42519 0.42518,-0.42519 0.23482,0 0.4252,0.19035 0.4252,0.42519 z m 2.43778,-0.93515 c 0,0.23481 -0.19037,0.42518 -0.42518,0.42518 -0.23484,0 -0.42519,-0.19037 -0.42519,-0.42518 0,-0.23484 0.19035,-0.42519 0.42519,-0.42519 0.23481,0 0.42518,0.19035 0.42518,0.42519 z m 2.57965,-1.24746 c 0,0.23484 -0.19037,0.42519 -0.42518,0.42519 -0.23484,0 -0.42519,-0.19035 -0.42519,-0.42519 0,-0.23481 0.19035,-0.42518 0.42519,-0.42518 0.23481,0 0.42518,0.19037 0.42518,0.42518 z m 2.38112,-1.36074 c 0,0.23481 -0.19037,0.42517 -0.42518,0.42517 -0.23484,0 -0.42519,-0.19036 -0.42519,-0.42517 0,-0.23484 0.19035,-0.42519 0.42519,-0.42519 0.23481,0 0.42518,0.19035 0.42518,0.42519 z m -16.32789,8.7312 c 0,0.23483 -0.19036,0.42518 -0.42517,0.42518 -0.23484,0 -0.42519,-0.19035 -0.42519,-0.42518 0,-0.23482 0.19035,-0.42519 0.42519,-0.42519 0.23481,0 0.42517,0.19037 0.42517,0.42519 z m 1.44598,2.23926 c 0,0.23482 -0.19035,0.42518 -0.42519,0.42518 -0.23481,0 -0.42517,-0.19036 -0.42517,-0.42518 0,-0.23484 0.19036,-0.42519 0.42517,-0.42519 0.23484,0 0.42519,0.19035 0.42519,0.42519 z m 1.72886,1.87072 c 0,0.23482 -0.19035,0.42517 -0.42518,0.42517 -0.23482,0 -0.42519,-0.19035 -0.42519,-0.42517 0,-0.23483 0.19037,-0.42518 0.42519,-0.42518 0.23483,0 0.42518,0.19035 0.42518,0.42518 z m 1.72929,1.33222 c 0,0.23483 -0.19036,0.42518 -0.42518,0.42518 -0.23483,0 -0.42518,-0.19035 -0.42518,-0.42518 0,-0.23482 0.19035,-0.42519 0.42518,-0.42519 0.23482,0 0.42518,0.19037 0.42518,0.42519 z m 1.78595,0.96412 c 0,0.23484 -0.19036,0.42519 -0.42519,0.42519 -0.23482,0 -0.42519,-0.19035 -0.42519,-0.42519 0,-0.23481 0.19037,-0.42518 0.42519,-0.42518 0.23483,0 0.42519,0.19037 0.42519,0.42518 z M 40.73425,43.51245 c 0,0.23482 -0.19035,0.42519 -0.42518,0.42519 -0.23482,0 -0.42519,-0.19037 -0.42519,-0.42519 0,-0.23483 0.19037,-0.42518 0.42519,-0.42518 0.23483,0 0.42518,0.19035 0.42518,0.42518 z"
                 style="fill:#bfbfbf;fill-opacity:1;fill-rule:nonzero;stroke:none;stroke-width:1.11134338"
                 id="path70"
                 inkscape:connector-curvature="0" /></g><g
               id="g72"
               style="stroke-width:1.11134338"><path
                 d="m 34.54074,66.67442 c 3.84093,-7.28784 -0.54457,-9.99768 -1.80584,-10.93629 -1.08568,-0.62891 -1.17348,-1.0939 -1.3945,-2.05499 0,-1.63543 1.26429,-2.96202 2.82316,-2.96202 0.91008,0.14447 1.74919,0.29197 2.52862,1.18472 0,0 7.1265,10.52798 -2.15144,14.76858 z"
                 style="fill:#f2e6d9;fill-opacity:1;fill-rule:nonzero;stroke:none;stroke-width:1.11134338"
                 id="path74"
                 inkscape:connector-curvature="0" /></g></g></g></g></g><path
       style="fill:#8b0000;fill-rule:evenodd;stroke:none;stroke-width:0.75px;stroke-linecap:butt;stroke-linejoin:miter;stroke-opacity:1"
       d="M -0.1228123,279.81089 26.418529,106.3326 43.212463,109.6221 5.5906093,281.8019 Z"
       id="path145"
       inkscape:connector-curvature="0"
       sodipodi:nodetypes="ccccc" /><path
       sodipodi:nodetypes="ccccc"
       inkscape:connector-curvature="0"
       id="path2396"
       d="m -44.608225,261.51826 c 38.3813877,0.41506 51.4991848,-2.82404 83.613218,-18.65279 18.106938,-20.42439 28.750855,-60.60124 10.57621,-80.9654 -8.850031,-2.61077 -14.463056,41.33817 -68.47428,-2.07744 0.196984,10.05089 29.532187,65.05811 -25.715148,101.69563 z"
       style="fill:#ff0000;fill-opacity:1;fill-rule:evenodd;stroke:none;stroke-width:0.75px;stroke-linecap:butt;stroke-linejoin:miter;stroke-opacity:1" /><path
       style="fill:url(#pattern2394);fill-opacity:1;fill-rule:evenodd;stroke:none;stroke-width:0.75px;stroke-linecap:butt;stroke-linejoin:miter;stroke-opacity:1"
       d="m -44.608225,261.51826 c 38.3813877,0.41506 51.4991848,-2.82404 83.613218,-18.65279 18.106938,-20.42439 28.750855,-60.60124 10.57621,-80.9654 -8.850031,-2.61077 -14.463056,41.33817 -68.47428,-2.07744 0.196984,10.05089 29.532187,65.05811 -25.715148,101.69563 z"
       id="path147"
       inkscape:connector-curvature="0"
       sodipodi:nodetypes="ccccc" /><g
       style="stroke-width:1.11134338"
       transform="matrix(-0.88406872,-0.16758232,-0.16758232,0.88406872,57.131914,100.80128)"
       id="g2460"><g
         style="stroke-width:1.11134338"
         id="g2458"><g
           style="stroke-width:1.11134338"
           id="g2456"><g
             style="stroke-width:1.11134338"
             id="g2454"><g
               style="stroke-width:1.11134338"
               id="g2398" /><g
               style="stroke-width:1.11134338"
               id="g2400" /><g
               style="stroke-width:1.11134338"
               id="g2402" /><g
               style="stroke-width:1.11134338"
               id="g2404" /><g
               style="stroke-width:1.11134338"
               id="g2408"><path
                 inkscape:connector-curvature="0"
                 id="path2406"
                 style="fill:#f2e6d9;fill-opacity:1;fill-rule:nonzero;stroke:none;stroke-width:1.11134338"
                 d="m 21.89203,67.34053 c -3.83791,-7.29086 0.54717,-10.00072 1.80585,-10.93889 1.0887,-0.62934 1.17347,-1.09433 1.39752,-2.05238 0,-1.63846 -1.2643,-2.96506 -2.82619,-2.96506 -0.91008,0.14447 -1.74617,0.295 -2.52561,1.18517 0,0 -7.12649,10.52795 2.14843,14.77116 z" /></g><g
               style="stroke-width:1.11134338"
               id="g2412"><path
                 inkscape:connector-curvature="0"
                 id="path2410"
                 style="fill:#edd425;fill-opacity:1;fill-rule:nonzero;stroke:none;stroke-width:1.11134338"
                 d="M 14.54192,32.4572 C 7.56854,31.23831 -3.54333,18.62376 8.19225,7.39856 19.956,-3.82664 81.15709,3.68521 51.53429,40.22429 26.58939,26.81604 35.15019,39.09018 14.54192,32.4572 Z" /></g><g
               style="stroke-width:1.11134338"
               id="g2416"><path
                 inkscape:connector-curvature="0"
                 id="path2414"
                 style="fill:#edd425;fill-opacity:1;fill-rule:nonzero;stroke:none;stroke-width:1.11134338"
                 d="m 39.68533,42.5202 c 0,9.78481 -6.34555,17.71675 -14.1734,17.71675 -7.82785,0 -14.17338,-7.93194 -14.17338,-17.71675 0,-9.78482 6.34553,-17.71675 14.17338,-17.71675 7.82785,0 14.1734,7.93193 14.1734,17.71675 z" /></g><g
               style="stroke-width:1.11134338"
               id="g2420"><path
                 inkscape:connector-curvature="0"
                 id="path2418"
                 style="fill:#df8020;fill-opacity:1;fill-rule:nonzero;stroke:none;stroke-width:1.11134338"
                 d="m 11.50896,41.72649 c 6.71817,1.64408 3.82667,-4.79078 14.28672,-2.89151 C 2.35255,24.09494 7.6252,38.80685 11.50896,41.72649 Z" /></g><g
               style="stroke-width:1.11134338"
               id="g2424"><path
                 inkscape:connector-curvature="0"
                 id="path2422"
                 style="fill:#fffdd9;fill-opacity:1;fill-rule:nonzero;stroke:none;stroke-width:1.11134338"
                 d="m 25.64157,43.98607 c 0.66931,1.83893 0.14699,3.71725 -1.16667,4.19537 -1.31365,0.47812 -2.92114,-0.625 -3.59045,-2.46393 -0.66932,-1.83894 -0.14699,-3.71727 1.16665,-4.19538 1.31365,-0.47813 2.92114,0.625 3.59047,2.46394 z" /></g><g
               style="stroke-width:1.11134338"
               id="g2428"><path
                 inkscape:connector-curvature="0"
                 id="path2426"
                 style="fill:#000000;fill-opacity:1;fill-rule:nonzero;stroke:none;stroke-width:1.11134338"
                 d="m 24.91628,43.94853 c 0.38229,1.05034 0.26637,2.05677 -0.2589,2.24794 -0.52528,0.19119 -1.26102,-0.50527 -1.6433,-1.55562 -0.38228,-1.05032 -0.26637,-2.05676 0.25892,-2.24794 0.52526,-0.19117 1.261,0.50529 1.64328,1.55562 z" /></g><g
               style="stroke-width:1.11134338"
               id="g2432"><path
                 inkscape:connector-curvature="0"
                 id="path2430"
                 style="fill:#fffdd9;fill-opacity:1;fill-rule:nonzero;stroke:none;stroke-width:1.11134338"
                 d="m 17.36542,46.16888 c 0.61204,1.68158 0.17085,3.38593 -0.98545,3.80678 -1.15629,0.42085 -2.58981,-0.60113 -3.20185,-2.28271 -0.61205,-1.68158 -0.17086,-3.38593 0.98544,-3.80678 1.15628,-0.42085 2.5898,0.60113 3.20186,2.28271 z" /></g><g
               style="stroke-width:1.11134338"
               id="g2436"><path
                 inkscape:connector-curvature="0"
                 id="path2434"
                 style="fill:#000000;fill-opacity:1;fill-rule:nonzero;stroke:none;stroke-width:1.11134338"
                 d="m 16.73549,46.09622 c 0.34428,0.94594 0.28239,1.8369 -0.13828,1.99001 -0.42067,0.15309 -1.04078,-0.48961 -1.38508,-1.43556 -0.3443,-0.94594 -0.2824,-1.8369 0.13827,-1.98999 0.42067,-0.15311 1.04079,0.4896 1.38509,1.43554 z" /></g><g
               style="stroke-width:1.11134338"
               id="g2440"><path
                 inkscape:connector-curvature="0"
                 id="path2438"
                 style="fill:#808080;fill-opacity:1;fill-rule:nonzero;stroke:none;stroke-width:1.11134338"
                 d="m 40.62395,42.95966 c 0.09604,5.8704 -1.31838,15.13147 -11.0613,17.35948 -9.57811,2.19124 -15.97319,-5.62688 -16.86032,-8.7762 4.48152,0.56145 19.91361,-1.99271 27.92162,-8.58328 z" /></g><g
               style="stroke-width:1.11134338"
               id="g2444"><path
                 inkscape:connector-curvature="0"
                 id="path2442"
                 style="fill:#595959;fill-opacity:1;fill-rule:nonzero;stroke:none;stroke-width:1.11134338"
                 d="m 29.14612,60.54881 c -2.51435,-0.13624 -4.49581,-2.00697 -6.0378,-3.82666 -0.92994,-1.1367 -1.71803,-2.38415 -2.38977,-3.68825 -2.26477,0.42519 -4.55246,0.74267 -6.85141,0.8932 -0.84172,-0.54717 -2.20508,-3.01047 -0.42214,-3.01351 1.9927,-0.2634 3.9854,-0.54974 5.9582,-0.94119 0,0 0,0 2.11209,-0.44768 6.80598,-1.55628 12.82388,-3.65408 18.48494,-7.7926 0.73143,0.67476 1.20462,1.43733 1.0316,2.3556 -0.16435,1.06014 -1.26128,1.4542 -2.00957,2.04936 -4.85307,3.209 -10.43454,5.13941 -16.0757,6.43487 1.80887,3.19775 4.50444,6.11436 8.04218,7.34753 -0.51299,0.42517 -1.18211,0.63496 -1.84262,0.62933 z" /></g><g
               style="stroke-width:1.11134338"
               id="g2448"><path
                 inkscape:connector-curvature="0"
                 id="path2446"
                 style="fill:#bfbfbf;fill-opacity:1;fill-rule:nonzero;stroke:none;stroke-width:1.11134338"
                 d="m 14.65523,52.2999 c 0,0.23481 -0.19036,0.42518 -0.42519,0.42518 -0.23482,0 -0.42517,-0.19037 -0.42517,-0.42518 0,-0.23484 0.19035,-0.42519 0.42517,-0.42519 0.23483,0 0.42519,0.19035 0.42519,0.42519 z m 2.38113,-0.28333 c 0,0.23483 -0.19035,0.42519 -0.42518,0.42519 -0.23482,0 -0.42519,-0.19036 -0.42519,-0.42519 0,-0.23482 0.19037,-0.42519 0.42519,-0.42519 0.23483,0 0.42518,0.19037 0.42518,0.42519 z m 2.7782,-0.36853 c 0,0.23483 -0.19037,0.42519 -0.42519,0.42519 -0.23483,0 -0.42518,-0.19036 -0.42518,-0.42519 0,-0.23482 0.19035,-0.42519 0.42518,-0.42519 0.23482,0 0.42519,0.19037 0.42519,0.42519 z m 3.03294,-0.65225 c 0,0.23483 -0.19036,0.42518 -0.42518,0.42518 -0.23482,0 -0.42519,-0.19035 -0.42519,-0.42518 0,-0.23482 0.19037,-0.42519 0.42519,-0.42519 0.23482,0 0.42518,0.19037 0.42518,0.42519 z m 3.06151,-0.82184 c 0,0.23483 -0.19035,0.42519 -0.42518,0.42519 -0.23482,0 -0.42519,-0.19036 -0.42519,-0.42519 0,-0.23482 0.19037,-0.42519 0.42519,-0.42519 0.23483,0 0.42518,0.19037 0.42518,0.42519 z m 2.94819,-0.82223 c 0,0.23481 -0.19036,0.42518 -0.4252,0.42518 -0.23481,0 -0.42518,-0.19037 -0.42518,-0.42518 0,-0.23484 0.19037,-0.42519 0.42518,-0.42519 0.23484,0 0.4252,0.19035 0.4252,0.42519 z m 2.7211,-0.99225 c 0,0.23481 -0.19038,0.42518 -0.4252,0.42518 -0.23483,0 -0.42518,-0.19037 -0.42518,-0.42518 0,-0.23484 0.19035,-0.42519 0.42518,-0.42519 0.23482,0 0.4252,0.19035 0.4252,0.42519 z m 2.43778,-0.93515 c 0,0.23481 -0.19037,0.42518 -0.42518,0.42518 -0.23484,0 -0.42519,-0.19037 -0.42519,-0.42518 0,-0.23484 0.19035,-0.42519 0.42519,-0.42519 0.23481,0 0.42518,0.19035 0.42518,0.42519 z m 2.57965,-1.24746 c 0,0.23484 -0.19037,0.42519 -0.42518,0.42519 -0.23484,0 -0.42519,-0.19035 -0.42519,-0.42519 0,-0.23481 0.19035,-0.42518 0.42519,-0.42518 0.23481,0 0.42518,0.19037 0.42518,0.42518 z m 2.38112,-1.36074 c 0,0.23481 -0.19037,0.42517 -0.42518,0.42517 -0.23484,0 -0.42519,-0.19036 -0.42519,-0.42517 0,-0.23484 0.19035,-0.42519 0.42519,-0.42519 0.23481,0 0.42518,0.19035 0.42518,0.42519 z m -16.32789,8.7312 c 0,0.23483 -0.19036,0.42518 -0.42517,0.42518 -0.23484,0 -0.42519,-0.19035 -0.42519,-0.42518 0,-0.23482 0.19035,-0.42519 0.42519,-0.42519 0.23481,0 0.42517,0.19037 0.42517,0.42519 z m 1.44598,2.23926 c 0,0.23482 -0.19035,0.42518 -0.42519,0.42518 -0.23481,0 -0.42517,-0.19036 -0.42517,-0.42518 0,-0.23484 0.19036,-0.42519 0.42517,-0.42519 0.23484,0 0.42519,0.19035 0.42519,0.42519 z m 1.72886,1.87072 c 0,0.23482 -0.19035,0.42517 -0.42518,0.42517 -0.23482,0 -0.42519,-0.19035 -0.42519,-0.42517 0,-0.23483 0.19037,-0.42518 0.42519,-0.42518 0.23483,0 0.42518,0.19035 0.42518,0.42518 z m 1.72929,1.33222 c 0,0.23483 -0.19036,0.42518 -0.42518,0.42518 -0.23483,0 -0.42518,-0.19035 -0.42518,-0.42518 0,-0.23482 0.19035,-0.42519 0.42518,-0.42519 0.23482,0 0.42518,0.19037 0.42518,0.42519 z m 1.78595,0.96412 c 0,0.23484 -0.19036,0.42519 -0.42519,0.42519 -0.23482,0 -0.42519,-0.19035 -0.42519,-0.42519 0,-0.23481 0.19037,-0.42518 0.42519,-0.42518 0.23483,0 0.42519,0.19037 0.42519,0.42518 z M 40.73425,43.51245 c 0,0.23482 -0.19035,0.42519 -0.42518,0.42519 -0.23482,0 -0.42519,-0.19037 -0.42519,-0.42519 0,-0.23483 0.19037,-0.42518 0.42519,-0.42518 0.23483,0 0.42518,0.19035 0.42518,0.42518 z" /></g><g
               style="stroke-width:1.11134338"
               id="g2452"><path
                 inkscape:connector-curvature="0"
                 id="path2450"
                 style="fill:#f2e6d9;fill-opacity:1;fill-rule:nonzero;stroke:none;stroke-width:1.11134338"
                 d="m 34.54074,66.67442 c 3.84093,-7.28784 -0.54457,-9.99768 -1.80584,-10.93629 -1.08568,-0.62891 -1.17348,-1.0939 -1.3945,-2.05499 0,-1.63543 1.26429,-2.96202 2.82316,-2.96202 0.91008,0.14447 1.74919,0.29197 2.52862,1.18472 0,0 7.1265,10.52798 -2.15144,14.76858 z" /></g></g></g></g></g><g
       id="g2524"
       transform="matrix(-0.80578536,-0.40046387,-0.40046387,0.80578536,124.10597,125.96906)"
       style="stroke-width:1.11134338"><g
         id="g2522"
         style="stroke-width:1.11134338"><g
           id="g2520"
           style="stroke-width:1.11134338"><g
             id="g2518"
             style="stroke-width:1.11134338"><g
               id="g2462"
               style="stroke-width:1.11134338" /><g
               id="g2464"
               style="stroke-width:1.11134338" /><g
               id="g2466"
               style="stroke-width:1.11134338" /><g
               id="g2468"
               style="stroke-width:1.11134338" /><g
               id="g2472"
               style="stroke-width:1.11134338"><path
                 d="m 21.89203,67.34053 c -3.83791,-7.29086 0.54717,-10.00072 1.80585,-10.93889 1.0887,-0.62934 1.17347,-1.09433 1.39752,-2.05238 0,-1.63846 -1.2643,-2.96506 -2.82619,-2.96506 -0.91008,0.14447 -1.74617,0.295 -2.52561,1.18517 0,0 -7.12649,10.52795 2.14843,14.77116 z"
                 style="fill:#f2e6d9;fill-opacity:1;fill-rule:nonzero;stroke:none;stroke-width:1.11134338"
                 id="path2470"
                 inkscape:connector-curvature="0" /></g><g
               id="g2476"
               style="stroke-width:1.11134338"><path
                 d="M 14.54192,32.4572 C 7.56854,31.23831 -3.54333,18.62376 8.19225,7.39856 19.956,-3.82664 81.15709,3.68521 51.53429,40.22429 26.58939,26.81604 35.15019,39.09018 14.54192,32.4572 Z"
                 style="fill:#edd425;fill-opacity:1;fill-rule:nonzero;stroke:none;stroke-width:1.11134338"
                 id="path2474"
                 inkscape:connector-curvature="0" /></g><g
               id="g2480"
               style="stroke-width:1.11134338"><path
                 d="m 39.68533,42.5202 c 0,9.78481 -6.34555,17.71675 -14.1734,17.71675 -7.82785,0 -14.17338,-7.93194 -14.17338,-17.71675 0,-9.78482 6.34553,-17.71675 14.17338,-17.71675 7.82785,0 14.1734,7.93193 14.1734,17.71675 z"
                 style="fill:#edd425;fill-opacity:1;fill-rule:nonzero;stroke:none;stroke-width:1.11134338"
                 id="path2478"
                 inkscape:connector-curvature="0" /></g><g
               id="g2484"
               style="stroke-width:1.11134338"><path
                 d="m 11.50896,41.72649 c 6.71817,1.64408 3.82667,-4.79078 14.28672,-2.89151 C 2.35255,24.09494 7.6252,38.80685 11.50896,41.72649 Z"
                 style="fill:#df8020;fill-opacity:1;fill-rule:nonzero;stroke:none;stroke-width:1.11134338"
                 id="path2482"
                 inkscape:connector-curvature="0" /></g><g
               id="g2488"
               style="stroke-width:1.11134338"><path
                 d="m 25.64157,43.98607 c 0.66931,1.83893 0.14699,3.71725 -1.16667,4.19537 -1.31365,0.47812 -2.92114,-0.625 -3.59045,-2.46393 -0.66932,-1.83894 -0.14699,-3.71727 1.16665,-4.19538 1.31365,-0.47813 2.92114,0.625 3.59047,2.46394 z"
                 style="fill:#fffdd9;fill-opacity:1;fill-rule:nonzero;stroke:none;stroke-width:1.11134338"
                 id="path2486"
                 inkscape:connector-curvature="0" /></g><g
               id="g2492"
               style="stroke-width:1.11134338"><path
                 d="m 24.91628,43.94853 c 0.38229,1.05034 0.26637,2.05677 -0.2589,2.24794 -0.52528,0.19119 -1.26102,-0.50527 -1.6433,-1.55562 -0.38228,-1.05032 -0.26637,-2.05676 0.25892,-2.24794 0.52526,-0.19117 1.261,0.50529 1.64328,1.55562 z"
                 style="fill:#000000;fill-opacity:1;fill-rule:nonzero;stroke:none;stroke-width:1.11134338"
                 id="path2490"
                 inkscape:connector-curvature="0" /></g><g
               id="g2496"
               style="stroke-width:1.11134338"><path
                 d="m 17.36542,46.16888 c 0.61204,1.68158 0.17085,3.38593 -0.98545,3.80678 -1.15629,0.42085 -2.58981,-0.60113 -3.20185,-2.28271 -0.61205,-1.68158 -0.17086,-3.38593 0.98544,-3.80678 1.15628,-0.42085 2.5898,0.60113 3.20186,2.28271 z"
                 style="fill:#fffdd9;fill-opacity:1;fill-rule:nonzero;stroke:none;stroke-width:1.11134338"
                 id="path2494"
                 inkscape:connector-curvature="0" /></g><g
               id="g2500"
               style="stroke-width:1.11134338"><path
                 d="m 16.73549,46.09622 c 0.34428,0.94594 0.28239,1.8369 -0.13828,1.99001 -0.42067,0.15309 -1.04078,-0.48961 -1.38508,-1.43556 -0.3443,-0.94594 -0.2824,-1.8369 0.13827,-1.98999 0.42067,-0.15311 1.04079,0.4896 1.38509,1.43554 z"
                 style="fill:#000000;fill-opacity:1;fill-rule:nonzero;stroke:none;stroke-width:1.11134338"
                 id="path2498"
                 inkscape:connector-curvature="0" /></g><g
               id="g2504"
               style="stroke-width:1.11134338"><path
                 d="m 40.62395,42.95966 c 0.09604,5.8704 -1.31838,15.13147 -11.0613,17.35948 -9.57811,2.19124 -15.97319,-5.62688 -16.86032,-8.7762 4.48152,0.56145 19.91361,-1.99271 27.92162,-8.58328 z"
                 style="fill:#808080;fill-opacity:1;fill-rule:nonzero;stroke:none;stroke-width:1.11134338"
                 id="path2502"
                 inkscape:connector-curvature="0" /></g><g
               id="g2508"
               style="stroke-width:1.11134338"><path
                 d="m 29.14612,60.54881 c -2.51435,-0.13624 -4.49581,-2.00697 -6.0378,-3.82666 -0.92994,-1.1367 -1.71803,-2.38415 -2.38977,-3.68825 -2.26477,0.42519 -4.55246,0.74267 -6.85141,0.8932 -0.84172,-0.54717 -2.20508,-3.01047 -0.42214,-3.01351 1.9927,-0.2634 3.9854,-0.54974 5.9582,-0.94119 0,0 0,0 2.11209,-0.44768 6.80598,-1.55628 12.82388,-3.65408 18.48494,-7.7926 0.73143,0.67476 1.20462,1.43733 1.0316,2.3556 -0.16435,1.06014 -1.26128,1.4542 -2.00957,2.04936 -4.85307,3.209 -10.43454,5.13941 -16.0757,6.43487 1.80887,3.19775 4.50444,6.11436 8.04218,7.34753 -0.51299,0.42517 -1.18211,0.63496 -1.84262,0.62933 z"
                 style="fill:#595959;fill-opacity:1;fill-rule:nonzero;stroke:none;stroke-width:1.11134338"
                 id="path2506"
                 inkscape:connector-curvature="0" /></g><g
               id="g2512"
               style="stroke-width:1.11134338"><path
                 d="m 14.65523,52.2999 c 0,0.23481 -0.19036,0.42518 -0.42519,0.42518 -0.23482,0 -0.42517,-0.19037 -0.42517,-0.42518 0,-0.23484 0.19035,-0.42519 0.42517,-0.42519 0.23483,0 0.42519,0.19035 0.42519,0.42519 z m 2.38113,-0.28333 c 0,0.23483 -0.19035,0.42519 -0.42518,0.42519 -0.23482,0 -0.42519,-0.19036 -0.42519,-0.42519 0,-0.23482 0.19037,-0.42519 0.42519,-0.42519 0.23483,0 0.42518,0.19037 0.42518,0.42519 z m 2.7782,-0.36853 c 0,0.23483 -0.19037,0.42519 -0.42519,0.42519 -0.23483,0 -0.42518,-0.19036 -0.42518,-0.42519 0,-0.23482 0.19035,-0.42519 0.42518,-0.42519 0.23482,0 0.42519,0.19037 0.42519,0.42519 z m 3.03294,-0.65225 c 0,0.23483 -0.19036,0.42518 -0.42518,0.42518 -0.23482,0 -0.42519,-0.19035 -0.42519,-0.42518 0,-0.23482 0.19037,-0.42519 0.42519,-0.42519 0.23482,0 0.42518,0.19037 0.42518,0.42519 z m 3.06151,-0.82184 c 0,0.23483 -0.19035,0.42519 -0.42518,0.42519 -0.23482,0 -0.42519,-0.19036 -0.42519,-0.42519 0,-0.23482 0.19037,-0.42519 0.42519,-0.42519 0.23483,0 0.42518,0.19037 0.42518,0.42519 z m 2.94819,-0.82223 c 0,0.23481 -0.19036,0.42518 -0.4252,0.42518 -0.23481,0 -0.42518,-0.19037 -0.42518,-0.42518 0,-0.23484 0.19037,-0.42519 0.42518,-0.42519 0.23484,0 0.4252,0.19035 0.4252,0.42519 z m 2.7211,-0.99225 c 0,0.23481 -0.19038,0.42518 -0.4252,0.42518 -0.23483,0 -0.42518,-0.19037 -0.42518,-0.42518 0,-0.23484 0.19035,-0.42519 0.42518,-0.42519 0.23482,0 0.4252,0.19035 0.4252,0.42519 z m 2.43778,-0.93515 c 0,0.23481 -0.19037,0.42518 -0.42518,0.42518 -0.23484,0 -0.42519,-0.19037 -0.42519,-0.42518 0,-0.23484 0.19035,-0.42519 0.42519,-0.42519 0.23481,0 0.42518,0.19035 0.42518,0.42519 z m 2.57965,-1.24746 c 0,0.23484 -0.19037,0.42519 -0.42518,0.42519 -0.23484,0 -0.42519,-0.19035 -0.42519,-0.42519 0,-0.23481 0.19035,-0.42518 0.42519,-0.42518 0.23481,0 0.42518,0.19037 0.42518,0.42518 z m 2.38112,-1.36074 c 0,0.23481 -0.19037,0.42517 -0.42518,0.42517 -0.23484,0 -0.42519,-0.19036 -0.42519,-0.42517 0,-0.23484 0.19035,-0.42519 0.42519,-0.42519 0.23481,0 0.42518,0.19035 0.42518,0.42519 z m -16.32789,8.7312 c 0,0.23483 -0.19036,0.42518 -0.42517,0.42518 -0.23484,0 -0.42519,-0.19035 -0.42519,-0.42518 0,-0.23482 0.19035,-0.42519 0.42519,-0.42519 0.23481,0 0.42517,0.19037 0.42517,0.42519 z m 1.44598,2.23926 c 0,0.23482 -0.19035,0.42518 -0.42519,0.42518 -0.23481,0 -0.42517,-0.19036 -0.42517,-0.42518 0,-0.23484 0.19036,-0.42519 0.42517,-0.42519 0.23484,0 0.42519,0.19035 0.42519,0.42519 z m 1.72886,1.87072 c 0,0.23482 -0.19035,0.42517 -0.42518,0.42517 -0.23482,0 -0.42519,-0.19035 -0.42519,-0.42517 0,-0.23483 0.19037,-0.42518 0.42519,-0.42518 0.23483,0 0.42518,0.19035 0.42518,0.42518 z m 1.72929,1.33222 c 0,0.23483 -0.19036,0.42518 -0.42518,0.42518 -0.23483,0 -0.42518,-0.19035 -0.42518,-0.42518 0,-0.23482 0.19035,-0.42519 0.42518,-0.42519 0.23482,0 0.42518,0.19037 0.42518,0.42519 z m 1.78595,0.96412 c 0,0.23484 -0.19036,0.42519 -0.42519,0.42519 -0.23482,0 -0.42519,-0.19035 -0.42519,-0.42519 0,-0.23481 0.19037,-0.42518 0.42519,-0.42518 0.23483,0 0.42519,0.19037 0.42519,0.42518 z M 40.73425,43.51245 c 0,0.23482 -0.19035,0.42519 -0.42518,0.42519 -0.23482,0 -0.42519,-0.19037 -0.42519,-0.42519 0,-0.23483 0.19037,-0.42518 0.42519,-0.42518 0.23483,0 0.42518,0.19035 0.42518,0.42518 z"
                 style="fill:#bfbfbf;fill-opacity:1;fill-rule:nonzero;stroke:none;stroke-width:1.11134338"
                 id="path2510"
                 inkscape:connector-curvature="0" /></g><g
               id="g2516"
               style="stroke-width:1.11134338"><path
                 d="m 34.54074,66.67442 c 3.84093,-7.28784 -0.54457,-9.99768 -1.80584,-10.93629 -1.08568,-0.62891 -1.17348,-1.0939 -1.3945,-2.05499 0,-1.63543 1.26429,-2.96202 2.82316,-2.96202 0.91008,0.14447 1.74919,0.29197 2.52862,1.18472 0,0 7.1265,10.52798 -2.15144,14.76858 z"
                 style="fill:#f2e6d9;fill-opacity:1;fill-rule:nonzero;stroke:none;stroke-width:1.11134338"
                 id="path2514"
                 inkscape:connector-curvature="0" /></g></g></g></g></g><path
       style="fill:#8b4513;fill-rule:evenodd;stroke:none;stroke-width:0.75px;stroke-linecap:butt;stroke-linejoin:miter;stroke-opacity:1"
       d="M -70.417277,163.60182 C -78.007888,86.569783 125.65382,88.238063 119.44592,185.11062 185.7599,34.767205 -109.9146,23.71796 -70.417277,163.60182 Z"
       id="path141"
       inkscape:connector-curvature="0"
       sodipodi:nodetypes="ccc" /><path
       style="fill:#66cdaa;fill-rule:evenodd;stroke:none;stroke-width:0.75px;stroke-linecap:butt;stroke-linejoin:miter;stroke-opacity:1"
       d="m -124.05435,85.998297 c -0.697,9.871303 15.99701,24.038193 25.528266,18.997793 -16.664026,-15.639431 -10.366326,-15.691096 -4.226496,-19.262618 9.969581,-5.799242 13.826438,25.733858 31.983095,16.381128 -10.952273,-13.816381 -5.663271,-14.283062 0.888839,-18.973334 10.490358,-7.509203 9.283934,26.834714 28.284749,19.216024 -9.745108,-9.236532 -2.741556,-13.324236 2.485013,-18.558444 9.919011,-9.933476 9.401197,25.601344 30.8369779,16.190736 C -17.371154,91.015308 -12.078825,85.66036 -7.0747406,79.953451 0.84487592,70.921522 3.1141336,110.24233 20.589953,100.87049 11.823768,92.644042 19.347136,84.567029 24.606177,79.462385 c 8.806532,-8.547986 1.812352,26.870215 24.252131,21.396705 -6.363247,-6.081018 -2.959379,-15.231262 2.124639,-19.280826 8.786082,-6.998361 8.080119,26.247306 28.331515,21.535956 -5.990831,-8.936477 -4.482387,-15.495309 1.283298,-20.38339 10.438623,-8.849743 22.63393,30.02104 33.58183,21.6763 -13.21489,-18.582281 -2.86256,-20.775577 -2.86256,-20.775577 9.94372,-6.355261 14.04112,27.980667 30.99798,22.602137 -5.61784,-9.672555 -8.16086,-13.546561 -0.79769,-18.135579 12.61516,-7.86225 12.95111,25.547279 24.91225,16.908449 -12.99302,-17.296206 9.49493,-18.399851 9.49493,-18.399851 l -0.32032,-40.848232 -298.86707,-0.501911 z"
       id="path149"
       inkscape:connector-curvature="0"
       sodipodi:nodetypes="cccccccccccccccccccccccc" /><g
       style="stroke-width:11.60813046"
       id="g2563"
       transform="matrix(-0.08614652,0,0,0.08614652,-93.999499,92.995332)" /><g
       style="stroke-width:11.60813046"
       id="g2565"
       transform="matrix(-0.08614652,0,0,0.08614652,-93.999499,92.995332)" /><g
       style="stroke-width:11.60813046"
       id="g2567"
       transform="matrix(-0.08614652,0,0,0.08614652,-93.999499,92.995332)" /><g
       style="stroke-width:11.60813046"
       id="g2569"
       transform="matrix(-0.08614652,0,0,0.08614652,-93.999499,92.995332)" /><g
       style="stroke-width:2.50449324"
       id="g2571"
       transform="matrix(-0.39928238,0,0,0.39928238,15.324424,266.52202)"><path
         d="M 14.54192,32.4572 C 7.56854,31.23831 -3.54333,18.62376 8.19225,7.39856 19.956,-3.82664 81.15709,3.68521 51.53429,40.22429 26.58939,26.81604 35.15019,39.09018 14.54192,32.4572 Z"
         style="fill:#99ff00;fill-opacity:1;fill-rule:nonzero;stroke:none;stroke-width:2.50449324"
         id="path2573"
         inkscape:connector-curvature="0" /></g><g
       style="stroke-width:2.50449324"
       id="g2575"
       transform="matrix(-0.39928238,0,0,0.39928238,15.324424,266.52202)"><path
         d="m 39.68533,42.5202 c 0,9.78481 -6.34555,17.71675 -14.1734,17.71675 -7.82785,0 -14.17338,-7.93194 -14.17338,-17.71675 0,-9.78482 6.34553,-17.71675 14.17338,-17.71675 7.82785,0 14.1734,7.93193 14.1734,17.71675 z"
         style="fill:#99ff00;fill-opacity:1;fill-rule:nonzero;stroke:none;stroke-width:2.50449324"
         id="path2577"
         inkscape:connector-curvature="0" /></g><g
       style="stroke-width:2.50449324"
       id="g2579"
       transform="matrix(-0.39928238,0,0,0.39928238,15.324424,266.52202)"><path
         d="m 11.33855,41.10277 c 3.11816,0.85037 3.96853,-0.28331 5.38594,-1.70075 1.13412,-1.4174 2.83487,-1.4174 7.65378,-1.13366 C 12.1889,32.59865 10.48817,32.03201 9.6378,34.01608 c 5.10265,1.98448 0,5.66927 1.70075,7.08669 z"
         style="fill:#b36619;fill-opacity:1;fill-rule:nonzero;stroke:none;stroke-width:2.50449324"
         id="path2581"
         inkscape:connector-curvature="0" /></g><g
       style="stroke-width:2.50449324"
       id="g2583"
       transform="matrix(-0.39928238,0,0,0.39928238,15.324424,266.52202)"><path
         d="m 11.05522,42.23688 c 3.11817,0.85039 4.25186,-1.41742 5.66927,-2.83486 1.13412,-1.4174 2.55113,-1.4174 7.65378,-1.13366 -12.18937,-5.66971 -9.07119,1.41699 -18.14196,-4.25228 0.56707,9.07119 4.81891,8.2208 4.81891,8.2208 z"
         style="fill:#df8020;fill-opacity:1;fill-rule:nonzero;stroke:none;stroke-width:2.50449324"
         id="path2585"
         inkscape:connector-curvature="0" /></g><g
       style="stroke-width:2.50449324"
       id="g2587"
       transform="matrix(-0.39928238,0,0,0.39928238,15.324424,266.52202)"><path
         d="m 25.64157,43.98607 c 0.66931,1.83893 0.14699,3.71725 -1.16667,4.19537 -1.31365,0.47812 -2.92114,-0.625 -3.59045,-2.46393 -0.66932,-1.83894 -0.14699,-3.71727 1.16665,-4.19538 1.31365,-0.47813 2.92114,0.625 3.59047,2.46394 z"
         style="fill:#fffdd9;fill-opacity:1;fill-rule:nonzero;stroke:none;stroke-width:2.50449324"
         id="path2589"
         inkscape:connector-curvature="0" /></g><g
       style="stroke-width:2.50449324"
       id="g2591"
       transform="matrix(-0.39928238,0,0,0.39928238,15.324424,266.52202)"><path
         d="m 24.91628,43.94853 c 0.38229,1.05034 0.26637,2.05677 -0.2589,2.24794 -0.52528,0.19119 -1.26102,-0.50527 -1.6433,-1.55562 -0.38228,-1.05032 -0.26637,-2.05676 0.25892,-2.24794 0.52526,-0.19117 1.261,0.50529 1.64328,1.55562 z"
         style="fill:#000000;fill-opacity:1;fill-rule:nonzero;stroke:none;stroke-width:2.50449324"
         id="path2593"
         inkscape:connector-curvature="0" /></g><g
       style="stroke-width:2.50449324"
       id="g2595"
       transform="matrix(-0.39928238,0,0,0.39928238,15.324424,266.52202)"><path
         d="m 17.36542,46.16888 c 0.61204,1.68158 0.17085,3.38593 -0.98545,3.80678 -1.15629,0.42085 -2.58981,-0.60113 -3.20185,-2.28271 -0.61205,-1.68158 -0.17086,-3.38593 0.98544,-3.80678 1.15628,-0.42085 2.5898,0.60113 3.20186,2.28271 z"
         style="fill:#fffdd9;fill-opacity:1;fill-rule:nonzero;stroke:none;stroke-width:2.50449324"
         id="path2597"
         inkscape:connector-curvature="0" /></g><g
       style="stroke-width:2.50449324"
       id="g2599"
       transform="matrix(-0.39928238,0,0,0.39928238,15.324424,266.52202)"><path
         d="m 16.73549,46.09622 c 0.34428,0.94594 0.28239,1.8369 -0.13828,1.99001 -0.42067,0.15309 -1.04078,-0.48961 -1.38508,-1.43556 -0.3443,-0.94594 -0.2824,-1.8369 0.13827,-1.98999 0.42067,-0.15311 1.04079,0.4896 1.38509,1.43554 z"
         style="fill:#000000;fill-opacity:1;fill-rule:nonzero;stroke:none;stroke-width:2.50449324"
         id="path2601"
         inkscape:connector-curvature="0" /></g><g
       style="fill:#3cb371;stroke-width:2.50449324"
       id="g2603"
       transform="matrix(-0.39928238,0,0,0.39928238,15.324424,266.52202)"><path
         d="m 5.60394,53.92407 c 1.85993,4.46768 8.05646,4.32019 7.75585,5.26139 -0.18686,3.47802 -6.22768,4.28862 -6.22768,4.28862 5.20429,1.53376 13.92122,-8.75327 9.14729,4.23237 0.77686,-0.71455 7.26838,-6.08322 6.6304,1.02035 0.5359,-3.85519 3.15493,-5.2298 5.24712,-4.45599 2.49747,11.11189 -0.69465,-7.48076 9.68623,2.67005 0.87027,-0.91568 -4.88421,-7.29085 0.2098,-6.31548 -0.91309,-8.71652 4.60609,3.50356 4.60609,3.50356 0,0 -1.06015,-6.03781 -2.16009,-8.68277 0,0 7.20868,-0.25478 8.19529,-2.08916 -14.88795,-2.17955 8.45308,-4.38205 -6.39248,-4.38811 1.2561,-1.67218 -5.41408,-3.58833 4.47027,-3.76697 C 25.0474,44.77936 36.18178,54.48549 25.3904,57.94667 15.63623,59.40909 14.8196,52.51831 13.30875,50.91922 c 0.36853,4.66016 -3.10088,3.209 -7.70481,3.00485 z"
         style="fill:#3cb371;fill-opacity:1;fill-rule:nonzero;stroke:none;stroke-width:2.50449324"
         id="path2605"
         inkscape:connector-curvature="0" /></g><ellipse
       style="opacity:1;fill:#8b0000;fill-opacity:1;fill-rule:evenodd;stroke:none;stroke-width:0.28352225;stroke-linecap:round;stroke-linejoin:round;stroke-miterlimit:4;stroke-dasharray:none;stroke-dashoffset:0;stroke-opacity:1"
       id="path2754"
       cx="38.560883"
       cy="-263.68536"
       transform="matrix(0.98793078,0.15489599,0.12665978,-0.99194622,0,0)"
       rx="12.528689"
       ry="2.6477089" /></g></svg>