<?xml version="1.0" encoding="UTF-8" standalone="no"?>
<!-- Created with Inkscape (http://www.inkscape.org/) -->

<svg
   xmlns:dc="http://purl.org/dc/elements/1.1/"
   xmlns:cc="http://creativecommons.org/ns#"
   xmlns:rdf="http://www.w3.org/1999/02/22-rdf-syntax-ns#"
   xmlns:svg="http://www.w3.org/2000/svg"
   xmlns="http://www.w3.org/2000/svg"
   xmlns:sodipodi="http://sodipodi.sourceforge.net/DTD/sodipodi-0.dtd"
   xmlns:inkscape="http://www.inkscape.org/namespaces/inkscape"
   version="1.1"
   id="svg2"
   xml:space="preserve"
   width="100.15733"
   height="85.040001"
   viewBox="0 0 100.15733 85.040001"
   sodipodi:docname="Zebra2.svg"
   inkscape:version="0.92.2 5c3e80d, 2017-08-06"><metadata
     id="metadata8"><rdf:RDF><cc:Work
         rdf:about=""><dc:format>image/svg+xml</dc:format><dc:type
           rdf:resource="http://purl.org/dc/dcmitype/StillImage" /><dc:title></dc:title></cc:Work></rdf:RDF></metadata><defs
     id="defs6"><clipPath
       clipPathUnits="userSpaceOnUse"
       id="clipPath28"><path
         d="m 33.55394,58.80928 c 0.54578,6.2383 -2.80461,11.62714 -7.48344,12.0365 -4.67885,0.40935 -8.91414,-4.3158 -9.45993,-10.55409 -0.54578,-6.23829 2.80461,-11.62712 7.48345,-12.03649 4.67884,-0.40936 8.91413,4.3158 9.45992,10.55408 z"
         id="path26"
         inkscape:connector-curvature="0" /></clipPath><clipPath
       clipPathUnits="userSpaceOnUse"
       id="clipPath78"><path
         d="M 13.89008,32.4572 C 7.56854,31.23831 -3.54333,18.62376 8.19225,7.39856 19.956,-3.82664 81.15709,3.68521 51.53429,40.22429 24.94531,26.81604 35.15019,39.06206 14.54192,19.84267 Z"
         id="path76"
         inkscape:connector-curvature="0" /></clipPath><clipPath
       clipPathUnits="userSpaceOnUse"
       id="clipPath142"><path
         d="m 34.55022,59.80556 c 0.54578,6.23829 -2.80462,11.62714 -7.48345,12.0365 -4.67885,0.40934 -8.91414,-4.3158 -9.45993,-10.5541 -0.54577,-6.23828 2.80461,-11.62712 7.48346,-12.03648 4.67883,-0.40936 8.91413,4.3158 9.45992,10.55408 z"
         id="path140"
         inkscape:connector-curvature="0" /></clipPath><clipPath
       id="clipPath223"
       clipPathUnits="userSpaceOnUse"><path
         inkscape:connector-curvature="0"
         id="path221"
         d="M 14.17339,32.4572 C 7.56854,31.23831 -3.54333,18.62376 8.19225,7.39856 19.956,-3.82664 81.15709,3.68521 51.53429,40.22429 26.58939,26.81604 35.15019,39.06206 14.54192,19.84267 Z" /></clipPath><clipPath
       id="clipPath241"
       clipPathUnits="userSpaceOnUse"><path
         inkscape:connector-curvature="0"
         id="path239"
         d="M 0,0 H 4900 V 3200 H 0 Z" /></clipPath></defs><sodipodi:namedview
     pagecolor="#ffffff"
     bordercolor="#666666"
     borderopacity="1"
     objecttolerance="10"
     gridtolerance="10"
     guidetolerance="10"
     inkscape:pageopacity="0"
     inkscape:pageshadow="2"
     inkscape:window-width="640"
     inkscape:window-height="480"
     id="namedview4"
     showgrid="false"
     inkscape:zoom="3.3560935"
     inkscape:cx="113.06726"
     inkscape:cy="15.531691"
     inkscape:current-layer="g10" /><g
     id="g10"
     inkscape:groupmode="layer"
     inkscape:label="Zebra"
     transform="matrix(1.3333333,0,0,-1.3333333,0,85.04)"><g
       id="g12"><path
         d="M 0,0 H 75.3996 V 64.01868 H 0 Z"
         style="fill:#e6e6e6;fill-opacity:1;fill-rule:nonzero;stroke:none"
         id="path14"
         inkscape:connector-curvature="0" /></g><g
       id="g48"
       transform="translate(-2.835,-2.835)"
       style="fill:#000000"><path
         d="m 39.68533,42.5202 c 0,9.78481 -6.34555,17.71675 -14.1734,17.71675 -7.82785,0 -14.17338,-7.93194 -14.17338,-17.71675 0,-9.78482 6.34553,-17.71675 14.17338,-17.71675 7.82785,0 14.1734,7.93193 14.1734,17.71675 z"
         style="fill:#000000;fill-opacity:1;fill-rule:nonzero;stroke:none"
         id="path50"
         inkscape:connector-curvature="0" /></g><g
       id="g44"
       transform="translate(-2.835,-2.835)"
       style="fill:#000000"><path
         d="M 14.54192,32.4572 C 7.56854,31.23831 -3.54333,18.62376 8.19225,7.39856 19.956,-3.82664 81.15709,3.68521 51.53429,40.22429 26.58939,26.81604 35.15019,39.09018 14.54192,32.4572 Z"
         style="fill:#000000;fill-opacity:1;fill-rule:nonzero;stroke:none"
         id="path46"
         inkscape:connector-curvature="0" /></g><g
       id="g219"
       clip-path="url(#clipPath223)"
       transform="translate(-2.835,-2.835)"><g
         id="g225"><g
           id="g227"
           transform="translate(3.519,0.685)"><g
             id="g229"><g
               id="g231"
               transform="scale(0.01157)"><g
                 id="g233"><g
                   id="g235"><g
                     id="g237"
                     clip-path="url(#clipPath241)"><g
                       id="g243"
                       transform="scale(0.1)"><path
                         d="M 49000,0 H 0 V 32000 H 49000 V 0"
                         style="fill:#ffffff;fill-opacity:1;fill-rule:nonzero;stroke:none"
                         id="path245"
                         inkscape:connector-curvature="0" /><path
                         d="m 11012.7,35275.1 c 0,0 480.7,-897.4 1794.7,-2339.6 1314,-1442.2 544.9,-1282 480.7,-2051.1 0,0 -384.5,-961.6 961.5,-2564 1346.1,-1602.5 1089.7,-3461.4 961.5,-5063.8 -128.2,-1602.5 -192.3,-6153.5 64.2,-8845.7 0,0 448.6,-6794.51 32,-9614.88 -416.7,-2820.33 -929.5,-5191.989 -3846,-9454.59 0,0 -961.4,-1346.07 -1121.7,-1538.39 l 1987.1,-96.09 c 0,0 448.7,1249.95 2115.2,3909.99 1666.6,2660.123 2307.6,5512.59 2435.8,7595.76 128.2,2083.18 608.9,2307.6 737.2,6858.6 0,0 737.1,9775.1 673,14486.4 -64.2,4711.2 -609,4743.3 -544.9,6794.4 64.1,2051.3 -1762.7,2371.7 -1762.7,2371.7 l -2115.3,-64.1 c 0,0 1506.4,-1249.9 1602.5,-2243.4 96.2,-993.5 608.9,-2467.9 -1153.8,-288.5 -1762.7,2179.4 -2051.1,2147.3 -2051.1,2147.3 h -1249.9"
                         style="fill:#000000;fill-opacity:1;fill-rule:nonzero;stroke:none"
                         id="path247"
                         inkscape:connector-curvature="0" /><path
                         d="m 17326.4,36140.5 c 0,0 2051.1,-1346.1 2275.5,-2147.4 224.3,-801.2 737.1,-3365.2 1249.9,-5576.6 512.8,-2211.4 256.5,-4647.1 0,-6602.2 -256.3,-1955 -1025.6,-7916.2 -897.3,-8973.9 0,0 96.1,-3076.69 -801.3,-5544.52 -897.4,-2467.81 -1025.6,-6281.65 -1025.6,-6281.65 0,0 544.9,3333.09 2083.3,6473.96 1538.3,3140.91 1249.9,2531.91 1730.6,5768.91 480.8,3237.1 1025.6,6057.4 1282,7724 0,0 1249.9,5127.9 737.1,9294.3 -512.7,4166.5 -224.3,4903.6 -2083.2,7018.9 l -1634.5,-352.6 c 0,0 1634.5,-993.5 256.4,-1442.2 -1378.1,-448.7 -1794.8,961.5 -1794.8,961.5 l -1346.1,-224.4 -32,-96.1"
                         style="fill:#000000;fill-opacity:1;fill-rule:nonzero;stroke:none"
                         id="path249"
                         inkscape:connector-curvature="0" /><path
                         d="m 23447.9,37678.9 c 0,0 2467.7,-3173 3044.7,-5833.1 576.8,-2660.1 -32.2,-5640.7 -64.1,-7980.3 -32.1,-2339.6 -961.5,-4358.7 -1474.3,-7243.2 C 24441.4,13737.9 23127.3,9795.77 21909.5,6943.41 20691.6,4090.95 16909.7,-2959.95 17166.1,-4434.2 l 2628.1,961.5 c 0,0 -1249.9,288.42 -32.1,2692.165 1218,2403.675 3974.2,8973.845 4519.1,10608.335 544.7,1634.6 2820.3,7499.6 3172.8,8140.6 0,0 1570.5,3813.9 1666.6,8044.4 96.2,4230.5 609,7275.2 -352.5,8044.4 -961.6,769.3 -3397.3,4326.7 -3397.3,4326.7 l -1922.9,-705"
                         style="fill:#000000;fill-opacity:1;fill-rule:nonzero;stroke:none"
                         id="path251"
                         inkscape:connector-curvature="0" /><path
                         d="m 31844.8,34345.7 c 801.3,-833.3 1666.6,-1890.9 2083.2,-8525.2 C 34344.7,19186.3 28319.4,11238 28319.4,11238 26332.2,8289.43 25723.3,5533.2 24665.7,3193.57 c -1057.6,-2339.617 929.5,-5256.15 929.5,-5256.15 l -1730.7,-352.52 c -1923,1602.444 1730.7,10704.53 2628.1,12499.3 897.4,1794.8 3461.3,8300.8 3461.3,8300.8 801.2,2051.2 1410.2,5512.6 1602.5,8813.7 192.3,3301 0,4454.8 -1826.8,7179 -1826.9,2724.2 -3205,4166.5 -3205,4166.5 l 865.4,352.5 c 0,0 -288.5,-224.3 512.7,-416.6 801.3,-192.3 320.5,512.8 320.5,512.8 l 641,32 c 64.1,-705.1 2179.3,-3845.9 2179.3,-3845.9 l 801.3,-833.3"
                         style="fill:#000000;fill-opacity:1;fill-rule:nonzero;stroke:none"
                         id="path253"
                         inkscape:connector-curvature="0" /><path
                         d="m 35274.1,21109.3 c 0,0 -705.1,993.5 -705.1,-1250 0,-2243.5 -1955,-6409.8 -3557.5,-7916.2 -1602.4,-1506.3 -3781.8,-4358.75 -3365.2,-5704.83 l 352.5,-384.58 c 0,0 865.4,2788.33 3108.9,3493.37 2243.4,705.14 5800.9,2147.34 7371.3,1185.84 1570.5,-961.51 3781.9,-3974.14 2884.5,-6922.65 0,0 1474.3,2019.11 705.1,4518.99 -769.2,2499.86 -3621.6,5897.06 -4775.4,5576.56 -1153.7,-320.5 -961.5,-640.9 -4198.5,-2403.7 -3237,-1762.71 -3108.7,-1570.41 -993.5,609 2115.3,2179.3 4903.6,4390.7 4262.6,6666.3 -641,2275.5 -641,1794.7 -1089.7,2531.9"
                         style="fill:#000000;fill-opacity:1;fill-rule:nonzero;stroke:none"
                         id="path255"
                         inkscape:connector-curvature="0" /><path
                         d="m 36876.6,16558.2 c 0,0 -1217.9,-1249.9 256.4,-1890.9 1474.3,-641 128.2,2435.8 -256.4,1890.9"
                         style="fill:#000000;fill-opacity:1;fill-rule:nonzero;stroke:none"
                         id="path257"
                         inkscape:connector-curvature="0" /><path
                         d="m 29825.7,39217.2 c 0,0 1634.5,-2083.2 2980.6,-4390.7 0,0 1474.3,-3012.7 2051.2,-5224.1 576.9,-2211.4 352.5,-6121.5 1282,-7563.7 0,0 993.5,-1762.7 1474.3,-3813.9 480.7,-2051.2 897.3,-1987.1 2339.5,-3621.6 1442.2,-1634.5 3878,-4230.5 4006.2,-7723.94 0,0 192.3,-2147.3 -480.7,-3621.55 l 705,320.53 c 0,0 1121.8,4294.59 288.5,6666.26 -833.2,2371.6 -3813.9,6538.1 -5672.8,10448.1 -1858.8,3910.1 -1762.7,5352.3 -2083.2,6570.1 0,0 -1185.8,4390.8 -2051.1,6698.4 -865.4,2307.5 -2564,4294.6 -3333.2,5480.4 h -512.8 c 0,0 961.5,-961.4 609,-961.4 -352.6,0 -1153.8,833.3 -1153.8,833.3 l -448.7,-96.2"
                         style="fill:#000000;fill-opacity:1;fill-rule:nonzero;stroke:none"
                         id="path259"
                         inkscape:connector-curvature="0" /><path
                         d="m 32806.3,39452.2 c 0,0 3247.8,-4615.1 4102.3,-9144.8 854.6,-4529.5 1709.4,-7008.1 3589.5,-9486.6 1880.2,-2478.4 5555.4,-8290.2 5640.8,-9315.9 85.4,-1025.6 683.5,-2136.31 341.8,-4016.71 -341.8,-1880.42 -769.2,-2905.96 -769.2,-2905.96 0,0 2136.5,1966 1282,4786.36 -854.6,2820.31 1794.7,2991.01 -2564,9315.51 -4358.8,6324.5 -4786.1,9059.4 -6153.5,13161.7 -1367.4,4102.4 -2905.8,6495.4 -2905.8,6495.4 l -2563.9,1111"
                         style="fill:#000000;fill-opacity:1;fill-rule:nonzero;stroke:none"
                         id="path261"
                         inkscape:connector-curvature="0" /><path
                         d="m 36395.9,38683 c 0,0 2307.7,-3931.3 3504.1,-8033.6 1196.3,-4102.3 4358.8,-10255.9 6495.3,-12307 2136.5,-2051.2 2222.2,-3931.3 2222.2,-4871.6 l 769.2,1709.3 c 0,0 1880.3,427.3 -1794.8,6837.2 -3675.2,6409.9 -4615.2,9657.7 -5640.7,12648.9 -1025.6,2991.2 -3333.2,6239 -3333.2,6239 L 36395.9,38683"
                         style="fill:#000000;fill-opacity:1;fill-rule:nonzero;stroke:none"
                         id="path263"
                         inkscape:connector-curvature="0" /><path
                         d="m 40156.4,42187.2 c 0,0 598.2,-1794.9 1880.1,-4529.8 1282,-2734.8 2051.2,-6067.8 3076.8,-8802.8 1025.6,-2735 4273.4,-6922.7 4273.4,-6922.7 0,0 3503.9,-170.9 3760.3,-769.2 l 1282,1196.5 c 0,0 -1965.9,2478.5 -4102.4,7179.1 -2136.5,4700.6 -3162.2,9999.3 -5469.7,11708.7 -2307.5,1709.3 -2307.5,2563.9 -2307.5,2563.9 l -2393,-1623.7"
                         style="fill:#000000;fill-opacity:1;fill-rule:nonzero;stroke:none"
                         id="path265"
                         inkscape:connector-curvature="0" /><path
                         d="m 46651.7,29538.3 c 0,0 1623.8,-4187.9 3162.1,-5726.3 1538.4,-1538.4 1025.6,-171 -85.4,1282 -1110.9,1453.1 -2563.7,3931.6 -2649.3,4529.8 -85.6,598.1 -512.8,940.1 -427.4,-85.5"
                         style="fill:#000000;fill-opacity:1;fill-rule:nonzero;stroke:none"
                         id="path267"
                         inkscape:connector-curvature="0" /><path
                         d="m -10866.4,40221.4 c 0,0 2307.54,-1880.3 6495.29,-2905.9 4187.715,-1025.5 5897.34,-2392.9 8375.66,-3247.6 2478.36,-854.7 7007.85,-5384.3 7862.65,-3076.7 854.8,2307.5 -1025.6,1538.2 -2563.97,4273.2 l -1281.99,256.4 c 0,0 1196.61,-769.1 171.06,-598.2 -1025.63,170.9 -1880.17,1025.6 -1880.17,1025.6 l -1196.6,170.9 c 0,0 3845.92,-1965.8 3589.55,-2649.5 -256.4,-683.7 -1367.35,256.4 -4956.92,2307.6 0,0 -683.8,85.5 -3504.168,598.2 -2820.352,512.8 -5298.672,1709.3 -6495.262,2564 l -4615.13,1282"
                         style="fill:#000000;fill-opacity:1;fill-rule:nonzero;stroke:none"
                         id="path269"
                         inkscape:connector-curvature="0" /><path
                         d="m -15994.3,42101.7 c 0,0 6068.09,-3931.4 10768.6,-5128 0,0 5640.47,-2905.8 8119.06,-3675 2478.58,-769.2 4358.73,-4956.9 6837.3,-4529.6 2478.54,427.3 2905.74,-2392.9 2905.74,-4615.1 0,-2222.2 -1282,-2906.1 -512.8,-6068.2 769.2,-3162.1 2478.4,-10683.24 0,-15811.14 -2478.35,-5127.88 -4529.52,-7777.03 -5469.7,-8888.2 l -1025.6,-85.71 c 0,0 4956.9,6837.363 4956.9,11965.3 0,5127.85 -1196.58,10854.15 -769.15,15212.85 427.35,4358.8 -1025.34,4615 -3760.33,6324.4 -2734.96,1709.4 -6238.88,5469.9 -8973.86,6324.5 -2734.97,854.6 -5897.1,3931.5 -9999.46,6153.5 -4102.3,2222.1 -5298.9,2820.4 -9657.7,2991.2 -4358.7,170.9 -6922.4,683.8 -4187.7,1111.2 2734.7,427.2 6837.3,256.4 5897.1,512.7 -940.2,256.5 4871.6,-1794.7 4871.6,-1794.7"
                         style="fill:#000000;fill-opacity:1;fill-rule:nonzero;stroke:none"
                         id="path271"
                         inkscape:connector-curvature="0" /><path
                         d="m -35822.5,38084.9 c 0,0 -2820.1,1709.2 1453.1,2478.4 4273,769.2 8631.8,1709.2 14528.9,170.9 5897.1,-1538.4 8204.9,-2734.7 10854.25,-5726.1 2649.34,-2991.4 8632.074,-6837.3 11794.2,-8888.5 C 5970.13,24068.5 7593.86,20649.9 8106.64,15949.3 8619.41,11248.5 9303.23,6548.23 7764.91,2702.32 6226.46,-1143.61 1355.22,-5245.98 1782.36,-6613.54 H 756.793 c 0,0 -598.43,170.75 2392.957,3333.11 2991.38,3162.383 4016.92,13247 2734.97,17178.53 -1281.97,3931.4 -5042.302,8888.3 -10768.63,12221.5 -5726.39,3333.2 -3248.03,5470 -6495.59,7862.9 -3247.4,2392.9 -10768.3,5384.3 -14272.5,5384.3 -3504.2,0 -8888.5,-1538.4 -10170.5,-1281.9"
                         style="fill:#000000;fill-opacity:1;fill-rule:nonzero;stroke:none"
                         id="path273"
                         inkscape:connector-curvature="0" /><path
                         d="m -39497.4,33982.5 c 0,0 171,2905.9 4871.5,2820.4 4700.5,-85.6 7777.1,683.5 10683,-427.5 2906,-1110.9 5726.4,-2307.5 8803.1,-4358.7 3076.8,-2051.1 4016.7,-6324.5 6580.71,-8461.1 C -5995.13,21419.1 2636.97,16633.1 2893.36,11419.8 3149.75,6206.22 1269.59,-1400.32 -1208.99,-2340.49 c -2478.6,-939.94 -4444.12,-2820.37 -4444.12,-2820.37 l -512.78,342.09 c 0,0 1538.39,1538.34 3589.53,2563.88 2051.165,1025.66 4529.52,8375.77 1965.54,13674.69 -2563.95,5298.6 -5469.94,6580.6 -9486.68,9144.6 -4016.7,2564 -7606.5,4529.8 -10255.8,7521 -2649.3,2991.2 -3589.3,2307.6 -10426.6,4102.3 -5659.3,1485.6 -8888.5,85.4 -8888.5,85.4 l 171,1709.4"
                         style="fill:#000000;fill-opacity:1;fill-rule:nonzero;stroke:none"
                         id="path275"
                         inkscape:connector-curvature="0" /><path
                         d="m 28362,3984.35 c 0,0 2563.9,1196.33 3504.1,2734.65 940.2,1538.41 5384.6,2649.38 7093.7,939.96 1709.1,-1709.07 1709.1,-5042.27 1709.1,-5042.27 l -341.8,-1025.56 c 0,0 -85.3,3503.9 -2307.5,4102.29 -2222.2,598.44 -7606.5,-1965.56 -8461.1,-1965.56 -854.5,0 -1025.6,-427.66 -1025.6,-427.66 l -170.9,684.15"
                         style="fill:#000000;fill-opacity:1;fill-rule:nonzero;stroke:none"
                         id="path277"
                         inkscape:connector-curvature="0" /><path
                         d="m 29131.1,992.676 c 0,0 598.2,684.044 2564,1624.014 1965.8,939.97 4871.5,1452.93 5897.1,1111.17 1025.6,-341.96 2734.9,-1880.36 2734.9,-1880.36 0,0 342.1,-598.12 -598.1,-427.14 -940.2,170.77 -3931.6,512.75 -5555.4,427.14 -1623.7,-85.6 -4102.5,-1624.043 -4786.1,-1624.043 -683.5,0 -256.4,769.219 -256.4,769.219"
                         style="fill:#000000;fill-opacity:1;fill-rule:nonzero;stroke:none"
                         id="path279"
                         inkscape:connector-curvature="0" /><path
                         d="m 33233.5,-289.285 c 0,0 -3161.9,-341.82 -1452.8,427.398 1709.2,769.192 2307.6,1538.407 4615.2,769.192 2307.5,-769.192 3503.8,-1025.352 3503.8,-854.5823 L 39472.6,-1314.94 c 0,0 -2735,683.835 -3504.2,940.272 -769.1,256.367 -2734.9,85.383 -2734.9,85.383"
                         style="fill:#000000;fill-opacity:1;fill-rule:nonzero;stroke:none"
                         id="path281"
                         inkscape:connector-curvature="0" /></g></g></g></g></g></g><g
             id="g283"
             transform="translate(-3.519,-0.685)" /></g></g></g><g
       id="g22"
       transform="translate(-2.835,-2.835)"
       style="fill:#000000"><g
         clip-path="url(#clipPath28)"
         id="g24"
         style="fill:#000000"><g
           id="g30"
           style="fill:#000000"><path
             inkscape:connector-curvature="0"
             id="path32"
             style="fill:#000000;fill-opacity:1;fill-rule:nonzero;stroke:none"
             d="M 21.96211,56.4086 C 22.50789,62.6469 19.1575,68.03574 14.47867,68.44508 9.79982,68.85445 5.56453,64.12929 5.01874,57.891 4.47296,51.65273 7.82335,46.26389 12.5022,45.85452 c 4.67883,-0.40936 8.91412,4.3158 9.45991,10.55408 z" /></g></g></g><g
       id="g36"
       transform="translate(-2.835,-2.835)" /><g
       id="g38"
       transform="translate(-2.835,-2.835)" /><g
       id="g40"
       transform="translate(-2.835,-2.835)" /><g
       id="g42"
       transform="translate(-2.835,-2.835)" /><g
       id="g52"
       transform="translate(-2.835,-2.835)"><path
         d="m 11.50896,41.72649 c 6.71817,1.64408 3.82667,-4.79078 14.28672,-2.89151 C 2.35255,24.09494 7.6252,38.80685 11.50896,41.72649 Z"
         style="fill:#df8020;fill-opacity:1;fill-rule:nonzero;stroke:none"
         id="path54"
         inkscape:connector-curvature="0" /></g><g
       id="g56"
       transform="translate(-2.835,-2.835)"><path
         d="m 25.64157,43.98607 c 0.66931,1.83893 0.14699,3.71725 -1.16667,4.19537 -1.31365,0.47812 -2.92114,-0.625 -3.59045,-2.46393 -0.66932,-1.83894 -0.14699,-3.71727 1.16665,-4.19538 1.31365,-0.47813 2.92114,0.625 3.59047,2.46394 z"
         style="fill:#fffdd9;fill-opacity:1;fill-rule:nonzero;stroke:none"
         id="path58"
         inkscape:connector-curvature="0" /></g><g
       id="g60"
       transform="translate(-2.835,-2.835)"><path
         d="m 24.91628,43.94853 c 0.38229,1.05034 0.26637,2.05677 -0.2589,2.24794 -0.52528,0.19119 -1.26102,-0.50527 -1.6433,-1.55562 -0.38228,-1.05032 -0.26637,-2.05676 0.25892,-2.24794 0.52526,-0.19117 1.261,0.50529 1.64328,1.55562 z"
         style="fill:#000000;fill-opacity:1;fill-rule:nonzero;stroke:none"
         id="path62"
         inkscape:connector-curvature="0" /></g><g
       id="g64"
       transform="translate(-2.835,-2.835)"><path
         d="m 17.36542,46.16888 c 0.61204,1.68158 0.17085,3.38593 -0.98545,3.80678 -1.15629,0.42085 -2.58981,-0.60113 -3.20185,-2.28271 -0.61205,-1.68158 -0.17086,-3.38593 0.98544,-3.80678 1.15628,-0.42085 2.5898,0.60113 3.20186,2.28271 z"
         style="fill:#fffdd9;fill-opacity:1;fill-rule:nonzero;stroke:none"
         id="path66"
         inkscape:connector-curvature="0" /></g><g
       id="g68"
       transform="translate(-2.835,-2.835)"><path
         d="m 16.73549,46.09622 c 0.34428,0.94594 0.28239,1.8369 -0.13828,1.99001 -0.42067,0.15309 -1.04078,-0.48961 -1.38508,-1.43556 -0.3443,-0.94594 -0.2824,-1.8369 0.13827,-1.98999 0.42067,-0.15311 1.04079,0.4896 1.38509,1.43554 z"
         style="fill:#000000;fill-opacity:1;fill-rule:nonzero;stroke:none"
         id="path70"
         inkscape:connector-curvature="0" /></g><g
       id="g120"
       transform="translate(-2.835,-2.835)"><g
         id="g122"
         transform="translate(22.677,19.843)"><g
           id="g124" /><g
           id="g126"
           transform="translate(-22.677,-19.843)" /></g></g><g
       id="g128"
       transform="translate(-2.835,-2.835)"
       style="fill:#ffffff"><path
         d="m 21.63423,50.84007 c 4.51007,14.59557 17.68259,1.82833 17.82447,-5.89895 0.88713,15.90831 -20.14893,28.21617 -20.39547,6.55381 0,0 2.523,-0.68039 2.571,-0.65486 z"
         style="fill:#ffffff;fill-opacity:1;fill-rule:nonzero;stroke:none"
         id="path130"
         inkscape:connector-curvature="0" /></g><g
       id="g132"
       transform="translate(-2.835,-2.835)"><path
         d="m 48.89235,38.41844 c 9.30347,-0.52164 11.84636,-5.52481 16.06447,-10.15686 5.22722,-5.73718 18.75398,-3.06106 13.47311,-2.741 -8.4985,0.513 -7.11523,7.04433 -10.66119,11.76116 -3.17223,4.2207 -12.73609,7.91717 -18.87639,1.1367 z"
         style="fill:#000000;fill-opacity:1;fill-rule:nonzero;stroke:none"
         id="path134"
         inkscape:connector-curvature="0" /></g><g
       id="g136"
       transform="translate(-2.835,-2.835)"
       style="fill:#000000"><g
         clip-path="url(#clipPath142)"
         id="g138"
         style="fill:#000000"><g
           id="g144"
           style="fill:#000000"><path
             inkscape:connector-curvature="0"
             id="path146"
             style="fill:#000000;fill-opacity:1;fill-rule:nonzero;stroke:none"
             d="M 44.83632,53.78352 C 45.3821,60.0218 42.0317,65.41066 37.35286,65.82 c -4.67883,0.40937 -8.91412,-4.31579 -9.45992,-10.55407 -0.54577,-6.23828 2.80462,-11.62712 7.48345,-12.03648 4.67883,-0.40937 8.91414,4.31579 9.45993,10.55407 z" /></g></g></g></g></svg>