<?xml version="1.0" encoding="UTF-8"?>
<svg xmlns="http://www.w3.org/2000/svg" xmlns:xlink="http://www.w3.org/1999/xlink" width="57.175" height="68.947" viewBox="0 0 57.175 68.947">
<defs>
<clipPath id="clip-0">
<path clip-rule="nonzero" d="M 0 0.464844 L 56.363281 0.464844 L 56.363281 68.429688 L 0 68.429688 Z M 0 0.464844 "/>
</clipPath>
<clipPath id="clip-1">
<path clip-rule="nonzero" d="M 0 24 L 56.363281 24 L 56.363281 62 L 0 62 Z M 0 24 "/>
</clipPath>
</defs>
<g clip-path="url(#clip-0)">
<path fill-rule="nonzero" fill="rgb(89.99939%, 89.99939%, 89.99939%)" fill-opacity="1" d="M 0 68.429688 L 56.363281 68.429688 L 56.363281 0.464844 L 0 0.464844 Z M 0 68.429688 "/>
</g>
<g clip-path="url(#clip-1)">
<path fill-rule="nonzero" fill="rgb(92.871094%, 83.229065%, 14.369202%)" fill-opacity="1" d="M 12.015625 32.242188 C 5.140625 33.445312 -5.8125 45.878906 5.757812 56.945312 C 17.351562 68.011719 77.683594 60.605469 48.480469 24.585938 C 23.890625 37.804688 32.332031 25.703125 12.015625 32.242188 Z M 12.015625 32.242188 "/>
</g>
<path fill-rule="nonzero" fill="rgb(92.871094%, 83.229065%, 14.369202%)" fill-opacity="1" d="M 36.800781 22.324219 C 36.800781 12.679688 30.546875 4.859375 22.828125 4.859375 C 15.113281 4.859375 8.859375 12.679688 8.859375 22.324219 C 8.859375 31.96875 15.113281 39.789062 22.828125 39.789062 C 30.546875 39.789062 36.800781 31.96875 36.800781 22.324219 Z M 36.800781 22.324219 "/>
<path fill-rule="nonzero" fill="rgb(87.5%, 50%, 12.5%)" fill-opacity="1" d="M 9.027344 23.105469 C 15.648438 21.484375 12.796875 27.828125 23.109375 25.957031 C 0 40.488281 5.195312 25.984375 9.027344 23.105469 Z M 9.027344 23.105469 "/>
<path fill-rule="nonzero" fill="rgb(100%, 99.234009%, 85.00061%)" fill-opacity="1" d="M 22.957031 20.878906 C 23.617188 19.066406 23.101562 17.214844 21.808594 16.742188 C 20.511719 16.273438 18.925781 17.359375 18.269531 19.171875 C 17.609375 20.984375 18.121094 22.835938 19.417969 23.308594 C 20.710938 23.777344 22.296875 22.691406 22.957031 20.878906 Z M 22.957031 20.878906 "/>
<path fill-rule="nonzero" fill="rgb(0%, 0%, 0%)" fill-opacity="1" d="M 22.242188 20.914062 C 22.621094 19.878906 22.503906 18.886719 21.988281 18.699219 C 21.46875 18.511719 20.742188 19.199219 20.367188 20.234375 C 19.992188 21.269531 20.105469 22.261719 20.621094 22.449219 C 21.140625 22.636719 21.867188 21.949219 22.242188 20.914062 Z M 22.242188 20.914062 "/>
<path fill-rule="nonzero" fill="rgb(100%, 99.234009%, 85.00061%)" fill-opacity="1" d="M 14.800781 18.726562 C 15.402344 17.070312 14.96875 15.390625 13.828125 14.972656 C 12.6875 14.558594 11.273438 15.566406 10.671875 17.222656 C 10.066406 18.882812 10.503906 20.5625 11.640625 20.976562 C 12.78125 21.390625 14.195312 20.382812 14.800781 18.726562 Z M 14.800781 18.726562 "/>
<path fill-rule="nonzero" fill="rgb(0%, 0%, 0%)" fill-opacity="1" d="M 14.179688 18.796875 C 14.515625 17.867188 14.457031 16.988281 14.042969 16.835938 C 13.625 16.6875 13.015625 17.320312 12.675781 18.25 C 12.335938 19.183594 12.398438 20.0625 12.8125 20.214844 C 13.226562 20.363281 13.839844 19.730469 14.179688 18.796875 Z M 14.179688 18.796875 "/>
<path fill-rule="nonzero" fill="rgb(100%, 50%, 0%)" fill-opacity="1" d="M 18.164062 49.628906 C 49.902344 81.917969 60.097656 63.167969 33.5 43.753906 Z M 18.164062 49.628906 "/>
<path fill-rule="nonzero" fill="rgb(75%, 50%, 25%)" fill-opacity="1" d="M 36.375 17.375 C 33.070312 0.464844 13.214844 0.816406 8.859375 18.257812 C 13.640625 17.535156 21.441406 17.957031 25.417969 18.839844 C 24.792969 23.328125 26.480469 34.289062 29.660156 36.003906 C 35.363281 39.082031 38.089844 23.726562 36.375 17.375 Z M 36.375 17.375 "/>
<path fill-rule="nonzero" fill="rgb(50%, 50%, 50%)" fill-opacity="1" d="M 23.257812 22.722656 L 24.148438 18.753906 L 36.59375 21.519531 L 36.355469 24.480469 Z M 23.257812 22.722656 "/>
<path fill-rule="nonzero" fill="rgb(50%, 50%, 50%)" fill-opacity="1" d="M 15.800781 17.367188 L 16.125 16.300781 L 18.800781 17.117188 L 18.472656 18.1875 Z M 15.800781 17.367188 "/>
<path fill-rule="nonzero" fill="rgb(0%, 0%, 0%)" fill-opacity="1" stroke-width="0.3985" stroke-linecap="butt" stroke-linejoin="miter" stroke="rgb(50%, 50%, 50%)" stroke-opacity="1" stroke-miterlimit="10" d="M 27.353137 44.504858 C 27.353137 46.616932 25.641287 48.332744 23.529213 48.332744 C 21.413177 48.332744 19.701328 46.616932 19.701328 44.504858 C 19.701328 42.392784 21.413177 40.676972 23.529213 40.676972 C 25.641287 40.676972 27.353137 42.392784 27.353137 44.504858 Z M 27.353137 44.504858 " transform="matrix(0.985776, 0, 0, -0.985776, -2.319531, 64.239002)"/>
<path fill-rule="nonzero" fill="rgb(0%, 0%, 0%)" fill-opacity="1" stroke-width="0.3985" stroke-linecap="butt" stroke-linejoin="miter" stroke="rgb(50%, 50%, 50%)" stroke-opacity="1" stroke-miterlimit="10" d="M 18.706711 46.771474 C 18.706711 48.649753 17.185067 50.17536 15.306788 50.17536 C 13.428508 50.17536 11.906864 48.649753 11.906864 46.771474 C 11.906864 44.893194 13.428508 43.37155 15.306788 43.37155 C 17.185067 43.37155 18.706711 44.893194 18.706711 46.771474 Z M 18.706711 46.771474 " transform="matrix(0.985776, 0, 0, -0.985776, -2.319531, 64.239002)"/>
</svg>
