<?xml version="1.0" encoding="UTF-8"?>
<svg xmlns="http://www.w3.org/2000/svg" xmlns:xlink="http://www.w3.org/1999/xlink" width="115.726" height="65.888" viewBox="0 0 115.726 65.888">
<defs>
<clipPath id="clip-0">
<path clip-rule="nonzero" d="M 0 0.0234375 L 115.453125 0.0234375 L 115.453125 65.753906 L 0 65.753906 Z M 0 0.0234375 "/>
</clipPath>
<clipPath id="clip-1">
<path clip-rule="nonzero" d="M 59 28 L 115.453125 28 L 115.453125 65.753906 L 59 65.753906 Z M 59 28 "/>
</clipPath>
<clipPath id="clip-2">
<path clip-rule="nonzero" d="M 0 0.0234375 L 62 0.0234375 L 62 63 L 0 63 Z M 0 0.0234375 "/>
</clipPath>
</defs>
<g clip-path="url(#clip-0)">
<path fill-rule="nonzero" fill="rgb(89.99939%, 89.99939%, 89.99939%)" fill-opacity="1" d="M 0 65.753906 L 115.453125 65.753906 L 115.453125 0.0234375 L 0 0.0234375 Z M 0 65.753906 "/>
</g>
<g clip-path="url(#clip-1)">
<path fill-rule="nonzero" fill="rgb(92.871094%, 83.229065%, 14.369202%)" fill-opacity="1" d="M 70.574219 36.203125 C 63.617188 37.417969 52.53125 50.003906 64.238281 61.203125 C 75.972656 72.398438 137.03125 64.90625 107.476562 28.453125 C 82.59375 41.828125 91.132812 29.585938 70.574219 36.203125 Z M 70.574219 36.203125 "/>
</g>
<path fill-rule="nonzero" fill="rgb(92.871094%, 83.229065%, 14.369202%)" fill-opacity="1" d="M 95.65625 26.164062 C 95.65625 16.402344 89.328125 8.488281 81.515625 8.488281 C 73.707031 8.488281 67.378906 16.402344 67.378906 26.164062 C 67.378906 35.925781 73.707031 43.835938 81.515625 43.835938 C 89.328125 43.835938 95.65625 35.925781 95.65625 26.164062 Z M 95.65625 26.164062 "/>
<path fill-rule="nonzero" fill="rgb(87.5%, 50%, 12.5%)" fill-opacity="1" d="M 67.546875 26.953125 C 74.25 25.316406 71.363281 31.734375 81.800781 29.839844 C 58.414062 44.542969 63.671875 29.867188 67.546875 26.953125 Z M 67.546875 26.953125 "/>
<path fill-rule="nonzero" fill="rgb(100%, 99.234009%, 85.00061%)" fill-opacity="1" d="M 81.644531 24.699219 C 82.3125 22.867188 81.792969 20.992188 80.480469 20.515625 C 79.171875 20.039062 77.566406 21.136719 76.898438 22.972656 C 76.234375 24.808594 76.753906 26.679688 78.0625 27.160156 C 79.375 27.636719 80.976562 26.535156 81.644531 24.699219 Z M 81.644531 24.699219 "/>
<path fill-rule="nonzero" fill="rgb(0%, 0%, 0%)" fill-opacity="1" d="M 80.921875 24.738281 C 81.304688 23.691406 81.1875 22.6875 80.664062 22.496094 C 80.140625 22.304688 79.40625 23 79.023438 24.046875 C 78.644531 25.09375 78.757812 26.097656 79.285156 26.289062 C 79.808594 26.480469 80.542969 25.785156 80.921875 24.738281 Z M 80.921875 24.738281 "/>
<path fill-rule="nonzero" fill="rgb(100%, 99.234009%, 85.00061%)" fill-opacity="1" d="M 73.390625 22.523438 C 74 20.84375 73.558594 19.144531 72.40625 18.726562 C 71.253906 18.304688 69.824219 19.324219 69.210938 21.003906 C 68.601562 22.679688 69.042969 24.378906 70.195312 24.800781 C 71.347656 25.21875 72.777344 24.199219 73.390625 22.523438 Z M 73.390625 22.523438 "/>
<path fill-rule="nonzero" fill="rgb(0%, 0%, 0%)" fill-opacity="1" d="M 72.761719 22.59375 C 73.105469 21.652344 73.042969 20.761719 72.625 20.609375 C 72.203125 20.457031 71.585938 21.097656 71.242188 22.042969 C 70.898438 22.984375 70.960938 23.875 71.378906 24.027344 C 71.800781 24.179688 72.417969 23.539062 72.761719 22.59375 Z M 72.761719 22.59375 "/>
<path fill-rule="nonzero" fill="rgb(0%, 0%, 0%)" fill-opacity="1" d="M 82.304688 23.375 L 82.636719 22.292969 L 92.914062 25.4375 L 92.582031 26.519531 Z M 82.304688 23.375 "/>
<path fill-rule="nonzero" fill="rgb(0%, 0%, 0%)" fill-opacity="1" d="M 74.191406 20.894531 L 74.523438 19.8125 L 77.230469 20.640625 L 76.898438 21.722656 Z M 74.191406 20.894531 "/>
<path fill-rule="evenodd" fill="rgb(0%, 0%, 0%)" fill-opacity="1" d="M 82.992188 25.191406 C 83.742188 23.136719 82.683594 20.863281 80.628906 20.117188 C 78.574219 19.367188 76.300781 20.429688 75.554688 22.484375 C 74.804688 24.539062 75.863281 26.808594 77.917969 27.558594 C 79.972656 28.304688 82.246094 27.246094 82.992188 25.191406 Z M 82.195312 24.902344 C 82.785156 23.285156 81.953125 21.5 80.335938 20.914062 C 78.722656 20.324219 76.9375 21.160156 76.351562 22.773438 C 75.761719 24.386719 76.59375 26.171875 78.210938 26.761719 C 79.824219 27.347656 81.609375 26.515625 82.195312 24.902344 Z M 82.195312 24.902344 "/>
<path fill-rule="evenodd" fill="rgb(0%, 0%, 0%)" fill-opacity="1" d="M 74.753906 23.019531 C 75.449219 21.113281 74.464844 19.003906 72.558594 18.308594 C 70.648438 17.613281 68.539062 18.597656 67.847656 20.503906 C 67.152344 22.414062 68.136719 24.523438 70.042969 25.21875 C 71.953125 25.910156 74.0625 24.929688 74.753906 23.019531 Z M 73.824219 22.679688 C 74.332031 21.289062 73.613281 19.746094 72.21875 19.238281 C 70.824219 18.730469 69.285156 19.449219 68.777344 20.84375 C 68.269531 22.238281 68.988281 23.78125 70.382812 24.289062 C 71.777344 24.792969 73.316406 24.074219 73.824219 22.679688 Z M 73.824219 22.679688 "/>
<g clip-path="url(#clip-2)">
<path fill-rule="nonzero" fill="rgb(50%, 50%, 50%)" fill-opacity="1" d="M 4.691406 0.0195312 L 0 14.679688 L 8.101562 17.265625 L 8.964844 14.574219 L 27.042969 20.339844 L 9.699219 56.097656 L 13.75 57.777344 L 27.855469 28.699219 L 27.570312 62.261719 L 31.949219 62.039062 L 32.21875 30.132812 L 45.632812 57.777344 L 49.683594 56.097656 L 33.308594 22.339844 L 56.03125 29.59375 L 56.894531 26.898438 L 60.753906 28.128906 L 61.902344 24.539062 L 58.042969 23.308594 L 59 20.316406 L 11.933594 5.296875 L 12.796875 2.605469 Z M 4.691406 0.0195312 "/>
</g>
</svg>
