<?xml version="1.0" encoding="UTF-8"?>
<svg xmlns="http://www.w3.org/2000/svg" xmlns:xlink="http://www.w3.org/1999/xlink" width="56.693" height="65.764" viewBox="0 0 56.693 65.764">
<defs>
<clipPath id="clip-0">
<path clip-rule="nonzero" d="M 0 0.0585938 L 56.386719 0.0585938 L 56.386719 65.46875 L 0 65.46875 Z M 0 0.0585938 "/>
</clipPath>
<clipPath id="clip-1">
<path clip-rule="nonzero" d="M 0 28 L 56.386719 28 L 56.386719 65.46875 L 0 65.46875 Z M 0 28 "/>
</clipPath>
<clipPath id="clip-2">
<path clip-rule="nonzero" d="M 1 28 L 8 28 L 8 65.46875 L 1 65.46875 Z M 1 28 "/>
</clipPath>
<clipPath id="clip-3">
<path clip-rule="nonzero" d="M 10.996094 36.007812 C 4.707031 37.21875 -6.34375 49.765625 5.328125 60.929688 C 17.027344 72.09375 77.898438 64.625 48.4375 28.28125 C 21.992188 41.617188 32.140625 29.4375 11.644531 48.554688 Z M 10.996094 36.007812 "/>
</clipPath>
<clipPath id="clip-4">
<path clip-rule="nonzero" d="M 12 28 L 19 28 L 19 65.46875 L 12 65.46875 Z M 12 28 "/>
</clipPath>
<clipPath id="clip-5">
<path clip-rule="nonzero" d="M 10.996094 36.007812 C 4.707031 37.21875 -6.34375 49.765625 5.328125 60.929688 C 17.027344 72.09375 77.898438 64.625 48.4375 28.28125 C 21.992188 41.617188 32.140625 29.4375 11.644531 48.554688 Z M 10.996094 36.007812 "/>
</clipPath>
<clipPath id="clip-6">
<path clip-rule="nonzero" d="M 23 28 L 30 28 L 30 65.46875 L 23 65.46875 Z M 23 28 "/>
</clipPath>
<clipPath id="clip-7">
<path clip-rule="nonzero" d="M 10.996094 36.007812 C 4.707031 37.21875 -6.34375 49.765625 5.328125 60.929688 C 17.027344 72.09375 77.898438 64.625 48.4375 28.28125 C 21.992188 41.617188 32.140625 29.4375 11.644531 48.554688 Z M 10.996094 36.007812 "/>
</clipPath>
<clipPath id="clip-8">
<path clip-rule="nonzero" d="M 35 28 L 41 28 L 41 65.46875 L 35 65.46875 Z M 35 28 "/>
</clipPath>
<clipPath id="clip-9">
<path clip-rule="nonzero" d="M 10.996094 36.007812 C 4.707031 37.21875 -6.34375 49.765625 5.328125 60.929688 C 17.027344 72.09375 77.898438 64.625 48.4375 28.28125 C 21.992188 41.617188 32.140625 29.4375 11.644531 48.554688 Z M 10.996094 36.007812 "/>
</clipPath>
<clipPath id="clip-10">
<path clip-rule="nonzero" d="M 46 28 L 53 28 L 53 65.46875 L 46 65.46875 Z M 46 28 "/>
</clipPath>
<clipPath id="clip-11">
<path clip-rule="nonzero" d="M 10.996094 36.007812 C 4.707031 37.21875 -6.34375 49.765625 5.328125 60.929688 C 17.027344 72.09375 77.898438 64.625 48.4375 28.28125 C 21.992188 41.617188 32.140625 29.4375 11.644531 48.554688 Z M 10.996094 36.007812 "/>
</clipPath>
<clipPath id="clip-12">
<path clip-rule="nonzero" d="M 12 0.0585938 L 17 0.0585938 L 17 5 L 12 5 Z M 12 0.0585938 "/>
</clipPath>
</defs>
<g clip-path="url(#clip-0)">
<path fill-rule="nonzero" fill="rgb(89.99939%, 89.99939%, 89.99939%)" fill-opacity="1" d="M 0 65.46875 L 56.386719 65.46875 L 56.386719 0.0585938 L 0 0.0585938 Z M 0 65.46875 "/>
</g>
<g clip-path="url(#clip-1)">
<path fill-rule="nonzero" fill="rgb(92.871094%, 83.229065%, 14.369202%)" fill-opacity="1" d="M 11.644531 36.007812 C 4.707031 37.21875 -6.34375 49.765625 5.328125 60.929688 C 17.027344 72.09375 77.898438 64.625 48.4375 28.28125 C 23.625 41.617188 32.140625 29.410156 11.644531 36.007812 Z M 11.644531 36.007812 "/>
</g>
<path fill-rule="nonzero" fill="rgb(92.871094%, 83.229065%, 14.369202%)" fill-opacity="1" d="M 36.652344 26 C 36.652344 16.265625 30.339844 8.375 22.554688 8.375 C 14.769531 8.375 8.457031 16.265625 8.457031 26 C 8.457031 35.730469 14.769531 43.621094 22.554688 43.621094 C 30.339844 43.621094 36.652344 35.730469 36.652344 26 Z M 36.652344 26 "/>
<path fill-rule="nonzero" fill="rgb(69.999695%, 39.99939%, 9.999084%)" fill-opacity="1" d="M 8.457031 34.457031 C 12.40625 29.945312 15.507812 31.355469 22.835938 29.664062 C 9.867188 38.402344 7.332031 35.019531 8.457031 34.457031 Z M 8.457031 34.457031 "/>
<path fill-rule="nonzero" fill="rgb(87.5%, 50%, 12.5%)" fill-opacity="1" d="M 8.738281 26.84375 C 15.222656 25.152344 12.40625 31.636719 22.835938 29.664062 C -3.382812 37.277344 5.074219 29.664062 8.738281 26.84375 Z M 8.738281 26.84375 "/>
<path fill-rule="nonzero" fill="rgb(100%, 99.234009%, 85.00061%)" fill-opacity="1" d="M 22.683594 24.539062 C 23.347656 22.710938 22.828125 20.84375 21.523438 20.367188 C 20.214844 19.890625 18.617188 20.988281 17.953125 22.816406 C 17.285156 24.648438 17.804688 26.515625 19.113281 26.992188 C 20.417969 27.464844 22.019531 26.367188 22.683594 24.539062 Z M 22.683594 24.539062 "/>
<path fill-rule="nonzero" fill="rgb(0%, 0%, 0%)" fill-opacity="1" d="M 21.960938 24.578125 C 22.34375 23.53125 22.226562 22.53125 21.703125 22.339844 C 21.183594 22.152344 20.449219 22.84375 20.070312 23.890625 C 19.691406 24.933594 19.804688 25.933594 20.328125 26.125 C 20.851562 26.316406 21.582031 25.621094 21.960938 24.578125 Z M 21.960938 24.578125 "/>
<path fill-rule="nonzero" fill="rgb(100%, 99.234009%, 85.00061%)" fill-opacity="1" d="M 14.453125 22.367188 C 15.0625 20.695312 14.621094 19 13.472656 18.582031 C 12.320312 18.164062 10.894531 19.179688 10.289062 20.851562 C 9.679688 22.527344 10.117188 24.222656 11.265625 24.640625 C 12.417969 25.058594 13.84375 24.042969 14.453125 22.367188 Z M 14.453125 22.367188 "/>
<path fill-rule="nonzero" fill="rgb(0%, 0%, 0%)" fill-opacity="1" d="M 13.824219 22.441406 C 14.167969 21.5 14.105469 20.613281 13.6875 20.460938 C 13.269531 20.308594 12.652344 20.949219 12.308594 21.890625 C 11.96875 22.832031 12.03125 23.71875 12.449219 23.867188 C 12.867188 24.019531 13.484375 23.382812 13.824219 22.441406 Z M 13.824219 22.441406 "/>
<g clip-path="url(#clip-2)">
<g clip-path="url(#clip-3)">
<path fill-rule="nonzero" fill="rgb(0%, 0%, 0%)" fill-opacity="1" d="M 1.410156 76.746094 L 1.410156 0.625 L 7.046875 0.625 L 7.046875 76.746094 Z M 1.410156 76.746094 "/>
</g>
</g>
<g clip-path="url(#clip-4)">
<g clip-path="url(#clip-5)">
<path fill-rule="nonzero" fill="rgb(0%, 0%, 0%)" fill-opacity="1" d="M 12.6875 76.746094 L 12.6875 0.625 L 18.324219 0.625 L 18.324219 76.746094 Z M 12.6875 76.746094 "/>
</g>
</g>
<g clip-path="url(#clip-6)">
<g clip-path="url(#clip-7)">
<path fill-rule="nonzero" fill="rgb(0%, 0%, 0%)" fill-opacity="1" d="M 23.964844 76.746094 L 23.964844 0.625 L 29.601562 0.625 L 29.601562 76.746094 Z M 23.964844 76.746094 "/>
</g>
</g>
<g clip-path="url(#clip-8)">
<g clip-path="url(#clip-9)">
<path fill-rule="nonzero" fill="rgb(0%, 0%, 0%)" fill-opacity="1" d="M 35.242188 76.746094 L 35.242188 0.625 L 40.878906 0.625 L 40.878906 76.746094 Z M 35.242188 76.746094 "/>
</g>
</g>
<g clip-path="url(#clip-10)">
<g clip-path="url(#clip-11)">
<path fill-rule="nonzero" fill="rgb(0%, 0%, 0%)" fill-opacity="1" d="M 46.519531 76.746094 L 46.519531 0.625 L 52.15625 0.625 L 52.15625 76.746094 Z M 46.519531 76.746094 "/>
</g>
</g>
<path fill-rule="nonzero" fill="rgb(0%, 0%, 0%)" fill-opacity="1" d="M 24.503906 15.699219 L 30.460938 2.925781 L 32.25 3.757812 L 26.292969 16.535156 Z M 24.503906 15.699219 "/>
<path fill-rule="nonzero" fill="rgb(0%, 0%, 0%)" fill-opacity="1" d="M 14.796875 14.105469 L 13.839844 3.152344 L 15.804688 2.980469 L 16.765625 13.933594 Z M 14.796875 14.105469 "/>
<path fill-rule="nonzero" fill="rgb(0%, 0%, 0%)" fill-opacity="1" d="M 32.988281 3.441406 C 32.988281 2.351562 32.101562 1.46875 31.011719 1.46875 C 29.921875 1.46875 29.039062 2.351562 29.039062 3.441406 C 29.039062 4.53125 29.921875 5.417969 31.011719 5.417969 C 32.101562 5.417969 32.988281 4.53125 32.988281 3.441406 Z M 32.988281 3.441406 "/>
<g clip-path="url(#clip-12)">
<path fill-rule="nonzero" fill="rgb(0%, 0%, 0%)" fill-opacity="1" d="M 16.632812 2.03125 C 16.632812 0.941406 15.75 0.0585938 14.660156 0.0585938 C 13.570312 0.0585938 12.6875 0.941406 12.6875 2.03125 C 12.6875 3.121094 13.570312 4.007812 14.660156 4.007812 C 15.75 4.007812 16.632812 3.121094 16.632812 2.03125 Z M 16.632812 2.03125 "/>
</g>
</svg>
