<?xml version="1.0" encoding="UTF-8"?>
<svg xmlns="http://www.w3.org/2000/svg" xmlns:xlink="http://www.w3.org/1999/xlink" width="57.175" height="60.945" viewBox="0 0 57.175 60.945">
<defs>
<clipPath id="clip-0">
<path clip-rule="nonzero" d="M 0 0.40625 L 56.363281 0.40625 L 56.363281 60.484375 L 0 60.484375 Z M 0 0.40625 "/>
</clipPath>
<clipPath id="clip-1">
<path clip-rule="nonzero" d="M 0 23 L 56.363281 23 L 56.363281 60.484375 L 0 60.484375 Z M 0 23 "/>
</clipPath>
<clipPath id="clip-2">
<path clip-rule="nonzero" d="M 0 23 L 56.363281 23 L 56.363281 60.484375 L 0 60.484375 Z M 0 23 "/>
</clipPath>
<clipPath id="clip-3">
<path clip-rule="nonzero" d="M 56 58 L 56.363281 58 L 56.363281 60.484375 L 56 60.484375 Z M 56 58 "/>
</clipPath>
<clipPath id="clip-4">
<path clip-rule="nonzero" d="M 11.371094 31.285156 C 5.140625 32.484375 -5.8125 44.921875 5.757812 55.984375 C 17.351562 67.050781 77.683594 59.644531 48.480469 23.628906 C 22.269531 36.84375 32.332031 24.773438 12.015625 43.71875 Z M 11.371094 31.285156 "/>
</clipPath>
<clipPath id="clip-5">
<path clip-rule="nonzero" d="M 56.507812 63.351562 L 61.347656 60.558594 L 58.554688 55.71875 L 53.714844 58.511719 Z M 56.507812 63.351562 "/>
</clipPath>
<clipPath id="clip-6">
<path clip-rule="nonzero" d="M 44 59 L 46 59 L 46 60.484375 L 44 60.484375 Z M 44 59 "/>
</clipPath>
<clipPath id="clip-7">
<path clip-rule="nonzero" d="M 11.371094 31.285156 C 5.140625 32.484375 -5.8125 44.921875 5.757812 55.984375 C 17.351562 67.050781 77.683594 59.644531 48.480469 23.628906 C 22.269531 36.84375 32.332031 24.773438 12.015625 43.71875 Z M 11.371094 31.285156 "/>
</clipPath>
<clipPath id="clip-8">
<path clip-rule="nonzero" d="M 44.035156 64.101562 L 48.875 61.308594 L 46.078125 56.464844 L 41.238281 59.261719 Z M 44.035156 64.101562 "/>
</clipPath>
<clipPath id="clip-9">
<path clip-rule="nonzero" d="M 49 56 L 51 56 L 51 59 L 49 59 Z M 49 56 "/>
</clipPath>
<clipPath id="clip-10">
<path clip-rule="nonzero" d="M 11.371094 31.285156 C 5.140625 32.484375 -5.8125 44.921875 5.757812 55.984375 C 17.351562 67.050781 77.683594 59.644531 48.480469 23.628906 C 22.269531 36.84375 32.332031 24.773438 12.015625 43.71875 Z M 11.371094 31.285156 "/>
</clipPath>
<clipPath id="clip-11">
<path clip-rule="nonzero" d="M 48.875 61.308594 L 53.714844 58.511719 L 50.921875 53.671875 L 46.082031 56.464844 Z M 48.875 61.308594 "/>
</clipPath>
<clipPath id="clip-12">
<path clip-rule="nonzero" d="M 53 53 L 56 53 L 56 56 L 53 56 Z M 53 53 "/>
</clipPath>
<clipPath id="clip-13">
<path clip-rule="nonzero" d="M 11.371094 31.285156 C 5.140625 32.484375 -5.8125 44.921875 5.757812 55.984375 C 17.351562 67.050781 77.683594 59.644531 48.480469 23.628906 C 22.269531 36.84375 32.332031 24.773438 12.015625 43.71875 Z M 11.371094 31.285156 "/>
</clipPath>
<clipPath id="clip-14">
<path clip-rule="nonzero" d="M 53.714844 58.511719 L 58.554688 55.71875 L 55.761719 50.878906 L 50.921875 53.671875 Z M 53.714844 58.511719 "/>
</clipPath>
<clipPath id="clip-15">
<path clip-rule="nonzero" d="M 31 60 L 34 60 L 34 60.484375 L 31 60.484375 Z M 31 60 "/>
</clipPath>
<clipPath id="clip-16">
<path clip-rule="nonzero" d="M 11.371094 31.285156 C 5.140625 32.484375 -5.8125 44.921875 5.757812 55.984375 C 17.351562 67.050781 77.683594 59.644531 48.480469 23.628906 C 22.269531 36.84375 32.332031 24.773438 12.015625 43.71875 Z M 11.371094 31.285156 "/>
</clipPath>
<clipPath id="clip-17">
<path clip-rule="nonzero" d="M 31.558594 64.851562 L 36.398438 62.054688 L 33.605469 57.214844 L 28.765625 60.011719 Z M 31.558594 64.851562 "/>
</clipPath>
<clipPath id="clip-18">
<path clip-rule="nonzero" d="M 36 57 L 39 57 L 39 60 L 36 60 Z M 36 57 "/>
</clipPath>
<clipPath id="clip-19">
<path clip-rule="nonzero" d="M 11.371094 31.285156 C 5.140625 32.484375 -5.8125 44.921875 5.757812 55.984375 C 17.351562 67.050781 77.683594 59.644531 48.480469 23.628906 C 22.269531 36.84375 32.332031 24.773438 12.015625 43.71875 Z M 11.371094 31.285156 "/>
</clipPath>
<clipPath id="clip-20">
<path clip-rule="nonzero" d="M 36.398438 62.054688 L 41.238281 59.261719 L 38.445312 54.421875 L 33.605469 57.214844 Z M 36.398438 62.054688 "/>
</clipPath>
<clipPath id="clip-21">
<path clip-rule="nonzero" d="M 41 54 L 44 54 L 44 57 L 41 57 Z M 41 54 "/>
</clipPath>
<clipPath id="clip-22">
<path clip-rule="nonzero" d="M 11.371094 31.285156 C 5.140625 32.484375 -5.8125 44.921875 5.757812 55.984375 C 17.351562 67.050781 77.683594 59.644531 48.480469 23.628906 C 22.269531 36.84375 32.332031 24.773438 12.015625 43.71875 Z M 11.371094 31.285156 "/>
</clipPath>
<clipPath id="clip-23">
<path clip-rule="nonzero" d="M 41.238281 59.261719 L 46.078125 56.464844 L 43.285156 51.625 L 38.445312 54.421875 Z M 41.238281 59.261719 "/>
</clipPath>
<clipPath id="clip-24">
<path clip-rule="nonzero" d="M 46 51 L 48 51 L 48 54 L 46 54 Z M 46 51 "/>
</clipPath>
<clipPath id="clip-25">
<path clip-rule="nonzero" d="M 11.371094 31.285156 C 5.140625 32.484375 -5.8125 44.921875 5.757812 55.984375 C 17.351562 67.050781 77.683594 59.644531 48.480469 23.628906 C 22.269531 36.84375 32.332031 24.773438 12.015625 43.71875 Z M 11.371094 31.285156 "/>
</clipPath>
<clipPath id="clip-26">
<path clip-rule="nonzero" d="M 46.082031 56.464844 L 50.921875 53.671875 L 48.125 48.832031 L 43.285156 51.625 Z M 46.082031 56.464844 "/>
</clipPath>
<clipPath id="clip-27">
<path clip-rule="nonzero" d="M 51 49 L 53 49 L 53 51 L 51 51 Z M 51 49 "/>
</clipPath>
<clipPath id="clip-28">
<path clip-rule="nonzero" d="M 11.371094 31.285156 C 5.140625 32.484375 -5.8125 44.921875 5.757812 55.984375 C 17.351562 67.050781 77.683594 59.644531 48.480469 23.628906 C 22.269531 36.84375 32.332031 24.773438 12.015625 43.71875 Z M 11.371094 31.285156 "/>
</clipPath>
<clipPath id="clip-29">
<path clip-rule="nonzero" d="M 50.921875 53.671875 L 55.761719 50.878906 L 52.964844 46.039062 L 48.125 48.832031 Z M 50.921875 53.671875 "/>
</clipPath>
<clipPath id="clip-30">
<path clip-rule="nonzero" d="M 55 46 L 56.363281 46 L 56.363281 48 L 55 48 Z M 55 46 "/>
</clipPath>
<clipPath id="clip-31">
<path clip-rule="nonzero" d="M 11.371094 31.285156 C 5.140625 32.484375 -5.8125 44.921875 5.757812 55.984375 C 17.351562 67.050781 77.683594 59.644531 48.480469 23.628906 C 22.269531 36.84375 32.332031 24.773438 12.015625 43.71875 Z M 11.371094 31.285156 "/>
</clipPath>
<clipPath id="clip-32">
<path clip-rule="nonzero" d="M 55.761719 50.878906 L 60.601562 48.082031 L 57.804688 43.242188 L 52.964844 46.039062 Z M 55.761719 50.878906 "/>
</clipPath>
<clipPath id="clip-33">
<path clip-rule="nonzero" d="M 24 58 L 26 58 L 26 60 L 24 60 Z M 24 58 "/>
</clipPath>
<clipPath id="clip-34">
<path clip-rule="nonzero" d="M 11.371094 31.285156 C 5.140625 32.484375 -5.8125 44.921875 5.757812 55.984375 C 17.351562 67.050781 77.683594 59.644531 48.480469 23.628906 C 22.269531 36.84375 32.332031 24.773438 12.015625 43.71875 Z M 11.371094 31.285156 "/>
</clipPath>
<clipPath id="clip-35">
<path clip-rule="nonzero" d="M 23.925781 62.804688 L 28.765625 60.011719 L 25.972656 55.167969 L 21.132812 57.964844 Z M 23.925781 62.804688 "/>
</clipPath>
<clipPath id="clip-36">
<path clip-rule="nonzero" d="M 28 55 L 31 55 L 31 58 L 28 58 Z M 28 55 "/>
</clipPath>
<clipPath id="clip-37">
<path clip-rule="nonzero" d="M 11.371094 31.285156 C 5.140625 32.484375 -5.8125 44.921875 5.757812 55.984375 C 17.351562 67.050781 77.683594 59.644531 48.480469 23.628906 C 22.269531 36.84375 32.332031 24.773438 12.015625 43.71875 Z M 11.371094 31.285156 "/>
</clipPath>
<clipPath id="clip-38">
<path clip-rule="nonzero" d="M 28.765625 60.011719 L 33.605469 57.214844 L 30.8125 52.375 L 25.972656 55.167969 Z M 28.765625 60.011719 "/>
</clipPath>
<clipPath id="clip-39">
<path clip-rule="nonzero" d="M 33 52 L 36 52 L 36 55 L 33 55 Z M 33 52 "/>
</clipPath>
<clipPath id="clip-40">
<path clip-rule="nonzero" d="M 11.371094 31.285156 C 5.140625 32.484375 -5.8125 44.921875 5.757812 55.984375 C 17.351562 67.050781 77.683594 59.644531 48.480469 23.628906 C 22.269531 36.84375 32.332031 24.773438 12.015625 43.71875 Z M 11.371094 31.285156 "/>
</clipPath>
<clipPath id="clip-41">
<path clip-rule="nonzero" d="M 33.605469 57.214844 L 38.445312 54.421875 L 35.652344 49.582031 L 30.8125 52.375 Z M 33.605469 57.214844 "/>
</clipPath>
<clipPath id="clip-42">
<path clip-rule="nonzero" d="M 38 49 L 41 49 L 41 52 L 38 52 Z M 38 49 "/>
</clipPath>
<clipPath id="clip-43">
<path clip-rule="nonzero" d="M 11.371094 31.285156 C 5.140625 32.484375 -5.8125 44.921875 5.757812 55.984375 C 17.351562 67.050781 77.683594 59.644531 48.480469 23.628906 C 22.269531 36.84375 32.332031 24.773438 12.015625 43.71875 Z M 11.371094 31.285156 "/>
</clipPath>
<clipPath id="clip-44">
<path clip-rule="nonzero" d="M 38.445312 54.421875 L 43.285156 51.625 L 40.492188 46.785156 L 35.652344 49.582031 Z M 38.445312 54.421875 "/>
</clipPath>
<clipPath id="clip-45">
<path clip-rule="nonzero" d="M 43 47 L 46 47 L 46 49 L 43 49 Z M 43 47 "/>
</clipPath>
<clipPath id="clip-46">
<path clip-rule="nonzero" d="M 11.371094 31.285156 C 5.140625 32.484375 -5.8125 44.921875 5.757812 55.984375 C 17.351562 67.050781 77.683594 59.644531 48.480469 23.628906 C 22.269531 36.84375 32.332031 24.773438 12.015625 43.71875 Z M 11.371094 31.285156 "/>
</clipPath>
<clipPath id="clip-47">
<path clip-rule="nonzero" d="M 43.285156 51.625 L 48.125 48.832031 L 45.332031 43.992188 L 40.492188 46.785156 Z M 43.285156 51.625 "/>
</clipPath>
<clipPath id="clip-48">
<path clip-rule="nonzero" d="M 48 44 L 50 44 L 50 46 L 48 46 Z M 48 44 "/>
</clipPath>
<clipPath id="clip-49">
<path clip-rule="nonzero" d="M 11.371094 31.285156 C 5.140625 32.484375 -5.8125 44.921875 5.757812 55.984375 C 17.351562 67.050781 77.683594 59.644531 48.480469 23.628906 C 22.269531 36.84375 32.332031 24.773438 12.015625 43.71875 Z M 11.371094 31.285156 "/>
</clipPath>
<clipPath id="clip-50">
<path clip-rule="nonzero" d="M 48.125 48.832031 L 52.964844 46.039062 L 50.171875 41.199219 L 45.332031 43.992188 Z M 48.125 48.832031 "/>
</clipPath>
<clipPath id="clip-51">
<path clip-rule="nonzero" d="M 53 41 L 55 41 L 55 44 L 53 44 Z M 53 41 "/>
</clipPath>
<clipPath id="clip-52">
<path clip-rule="nonzero" d="M 11.371094 31.285156 C 5.140625 32.484375 -5.8125 44.921875 5.757812 55.984375 C 17.351562 67.050781 77.683594 59.644531 48.480469 23.628906 C 22.269531 36.84375 32.332031 24.773438 12.015625 43.71875 Z M 11.371094 31.285156 "/>
</clipPath>
<clipPath id="clip-53">
<path clip-rule="nonzero" d="M 52.964844 46.039062 L 57.804688 43.242188 L 55.011719 38.402344 L 50.171875 41.199219 Z M 52.964844 46.039062 "/>
</clipPath>
<clipPath id="clip-54">
<path clip-rule="nonzero" d="M 11 59 L 14 59 L 14 60.484375 L 11 60.484375 Z M 11 59 "/>
</clipPath>
<clipPath id="clip-55">
<path clip-rule="nonzero" d="M 11.371094 31.285156 C 5.140625 32.484375 -5.8125 44.921875 5.757812 55.984375 C 17.351562 67.050781 77.683594 59.644531 48.480469 23.628906 C 22.269531 36.84375 32.332031 24.773438 12.015625 43.71875 Z M 11.371094 31.285156 "/>
</clipPath>
<clipPath id="clip-56">
<path clip-rule="nonzero" d="M 11.453125 63.554688 L 16.292969 60.757812 L 13.496094 55.917969 L 8.65625 58.714844 Z M 11.453125 63.554688 "/>
</clipPath>
<clipPath id="clip-57">
<path clip-rule="nonzero" d="M 16 56 L 19 56 L 19 58 L 16 58 Z M 16 56 "/>
</clipPath>
<clipPath id="clip-58">
<path clip-rule="nonzero" d="M 11.371094 31.285156 C 5.140625 32.484375 -5.8125 44.921875 5.757812 55.984375 C 17.351562 67.050781 77.683594 59.644531 48.480469 23.628906 C 22.269531 36.84375 32.332031 24.773438 12.015625 43.71875 Z M 11.371094 31.285156 "/>
</clipPath>
<clipPath id="clip-59">
<path clip-rule="nonzero" d="M 16.292969 60.757812 L 21.132812 57.964844 L 18.335938 53.125 L 13.496094 55.917969 Z M 16.292969 60.757812 "/>
</clipPath>
<clipPath id="clip-60">
<path clip-rule="nonzero" d="M 21 53 L 23 53 L 23 55 L 21 55 Z M 21 53 "/>
</clipPath>
<clipPath id="clip-61">
<path clip-rule="nonzero" d="M 11.371094 31.285156 C 5.140625 32.484375 -5.8125 44.921875 5.757812 55.984375 C 17.351562 67.050781 77.683594 59.644531 48.480469 23.628906 C 22.269531 36.84375 32.332031 24.773438 12.015625 43.71875 Z M 11.371094 31.285156 "/>
</clipPath>
<clipPath id="clip-62">
<path clip-rule="nonzero" d="M 21.132812 57.964844 L 25.972656 55.167969 L 23.175781 50.328125 L 18.335938 53.125 Z M 21.132812 57.964844 "/>
</clipPath>
<clipPath id="clip-63">
<path clip-rule="nonzero" d="M 26 50 L 28 50 L 28 53 L 26 53 Z M 26 50 "/>
</clipPath>
<clipPath id="clip-64">
<path clip-rule="nonzero" d="M 11.371094 31.285156 C 5.140625 32.484375 -5.8125 44.921875 5.757812 55.984375 C 17.351562 67.050781 77.683594 59.644531 48.480469 23.628906 C 22.269531 36.84375 32.332031 24.773438 12.015625 43.71875 Z M 11.371094 31.285156 "/>
</clipPath>
<clipPath id="clip-65">
<path clip-rule="nonzero" d="M 25.972656 55.167969 L 30.8125 52.375 L 28.015625 47.535156 L 23.175781 50.328125 Z M 25.972656 55.167969 "/>
</clipPath>
<clipPath id="clip-66">
<path clip-rule="nonzero" d="M 31 47 L 33 47 L 33 50 L 31 50 Z M 31 47 "/>
</clipPath>
<clipPath id="clip-67">
<path clip-rule="nonzero" d="M 11.371094 31.285156 C 5.140625 32.484375 -5.8125 44.921875 5.757812 55.984375 C 17.351562 67.050781 77.683594 59.644531 48.480469 23.628906 C 22.269531 36.84375 32.332031 24.773438 12.015625 43.71875 Z M 11.371094 31.285156 "/>
</clipPath>
<clipPath id="clip-68">
<path clip-rule="nonzero" d="M 30.8125 52.375 L 35.652344 49.582031 L 32.855469 44.742188 L 28.015625 47.535156 Z M 30.8125 52.375 "/>
</clipPath>
<clipPath id="clip-69">
<path clip-rule="nonzero" d="M 35 45 L 38 45 L 38 47 L 35 47 Z M 35 45 "/>
</clipPath>
<clipPath id="clip-70">
<path clip-rule="nonzero" d="M 11.371094 31.285156 C 5.140625 32.484375 -5.8125 44.921875 5.757812 55.984375 C 17.351562 67.050781 77.683594 59.644531 48.480469 23.628906 C 22.269531 36.84375 32.332031 24.773438 12.015625 43.71875 Z M 11.371094 31.285156 "/>
</clipPath>
<clipPath id="clip-71">
<path clip-rule="nonzero" d="M 35.652344 49.582031 L 40.492188 46.785156 L 37.695312 41.945312 L 32.855469 44.742188 Z M 35.652344 49.582031 "/>
</clipPath>
<clipPath id="clip-72">
<path clip-rule="nonzero" d="M 40 42 L 43 42 L 43 44 L 40 44 Z M 40 42 "/>
</clipPath>
<clipPath id="clip-73">
<path clip-rule="nonzero" d="M 11.371094 31.285156 C 5.140625 32.484375 -5.8125 44.921875 5.757812 55.984375 C 17.351562 67.050781 77.683594 59.644531 48.480469 23.628906 C 22.269531 36.84375 32.332031 24.773438 12.015625 43.71875 Z M 11.371094 31.285156 "/>
</clipPath>
<clipPath id="clip-74">
<path clip-rule="nonzero" d="M 40.492188 46.785156 L 45.332031 43.992188 L 42.535156 39.152344 L 37.695312 41.945312 Z M 40.492188 46.785156 "/>
</clipPath>
<clipPath id="clip-75">
<path clip-rule="nonzero" d="M 45 39 L 48 39 L 48 42 L 45 42 Z M 45 39 "/>
</clipPath>
<clipPath id="clip-76">
<path clip-rule="nonzero" d="M 11.371094 31.285156 C 5.140625 32.484375 -5.8125 44.921875 5.757812 55.984375 C 17.351562 67.050781 77.683594 59.644531 48.480469 23.628906 C 22.269531 36.84375 32.332031 24.773438 12.015625 43.71875 Z M 11.371094 31.285156 "/>
</clipPath>
<clipPath id="clip-77">
<path clip-rule="nonzero" d="M 45.332031 43.992188 L 50.171875 41.199219 L 47.378906 36.359375 L 42.535156 39.152344 Z M 45.332031 43.992188 "/>
</clipPath>
<clipPath id="clip-78">
<path clip-rule="nonzero" d="M 50 36 L 52 36 L 52 39 L 50 39 Z M 50 36 "/>
</clipPath>
<clipPath id="clip-79">
<path clip-rule="nonzero" d="M 11.371094 31.285156 C 5.140625 32.484375 -5.8125 44.921875 5.757812 55.984375 C 17.351562 67.050781 77.683594 59.644531 48.480469 23.628906 C 22.269531 36.84375 32.332031 24.773438 12.015625 43.71875 Z M 11.371094 31.285156 "/>
</clipPath>
<clipPath id="clip-80">
<path clip-rule="nonzero" d="M 50.171875 41.199219 L 55.011719 38.402344 L 52.21875 33.5625 L 47.378906 36.359375 Z M 50.171875 41.199219 "/>
</clipPath>
<clipPath id="clip-81">
<path clip-rule="nonzero" d="M 55 33 L 56.363281 33 L 56.363281 36 L 55 36 Z M 55 33 "/>
</clipPath>
<clipPath id="clip-82">
<path clip-rule="nonzero" d="M 11.371094 31.285156 C 5.140625 32.484375 -5.8125 44.921875 5.757812 55.984375 C 17.351562 67.050781 77.683594 59.644531 48.480469 23.628906 C 22.269531 36.84375 32.332031 24.773438 12.015625 43.71875 Z M 11.371094 31.285156 "/>
</clipPath>
<clipPath id="clip-83">
<path clip-rule="nonzero" d="M 55.011719 38.402344 L 59.851562 35.609375 L 57.058594 30.769531 L 52.21875 33.5625 Z M 55.011719 38.402344 "/>
</clipPath>
<clipPath id="clip-84">
<path clip-rule="nonzero" d="M 0 59 L 1 59 L 1 60.484375 L 0 60.484375 Z M 0 59 "/>
</clipPath>
<clipPath id="clip-85">
<path clip-rule="nonzero" d="M 11.371094 31.285156 C 5.140625 32.484375 -5.8125 44.921875 5.757812 55.984375 C 17.351562 67.050781 77.683594 59.644531 48.480469 23.628906 C 22.269531 36.84375 32.332031 24.773438 12.015625 43.71875 Z M 11.371094 31.285156 "/>
</clipPath>
<clipPath id="clip-86">
<path clip-rule="nonzero" d="M -1.023438 64.300781 L 3.816406 61.507812 L 1.023438 56.667969 L -3.816406 59.460938 Z M -1.023438 64.300781 "/>
</clipPath>
<clipPath id="clip-87">
<path clip-rule="nonzero" d="M 4 56 L 6 56 L 6 59 L 4 59 Z M 4 56 "/>
</clipPath>
<clipPath id="clip-88">
<path clip-rule="nonzero" d="M 11.371094 31.285156 C 5.140625 32.484375 -5.8125 44.921875 5.757812 55.984375 C 17.351562 67.050781 77.683594 59.644531 48.480469 23.628906 C 22.269531 36.84375 32.332031 24.773438 12.015625 43.71875 Z M 11.371094 31.285156 "/>
</clipPath>
<clipPath id="clip-89">
<path clip-rule="nonzero" d="M 3.816406 61.507812 L 8.65625 58.714844 L 5.863281 53.871094 L 1.023438 56.667969 Z M 3.816406 61.507812 "/>
</clipPath>
<clipPath id="clip-90">
<path clip-rule="nonzero" d="M 8 54 L 11 54 L 11 56 L 8 56 Z M 8 54 "/>
</clipPath>
<clipPath id="clip-91">
<path clip-rule="nonzero" d="M 11.371094 31.285156 C 5.140625 32.484375 -5.8125 44.921875 5.757812 55.984375 C 17.351562 67.050781 77.683594 59.644531 48.480469 23.628906 C 22.269531 36.84375 32.332031 24.773438 12.015625 43.71875 Z M 11.371094 31.285156 "/>
</clipPath>
<clipPath id="clip-92">
<path clip-rule="nonzero" d="M 8.65625 58.714844 L 13.496094 55.917969 L 10.703125 51.078125 L 5.863281 53.871094 Z M 8.65625 58.714844 "/>
</clipPath>
<clipPath id="clip-93">
<path clip-rule="nonzero" d="M 13 51 L 16 51 L 16 53 L 13 53 Z M 13 51 "/>
</clipPath>
<clipPath id="clip-94">
<path clip-rule="nonzero" d="M 11.371094 31.285156 C 5.140625 32.484375 -5.8125 44.921875 5.757812 55.984375 C 17.351562 67.050781 77.683594 59.644531 48.480469 23.628906 C 22.269531 36.84375 32.332031 24.773438 12.015625 43.71875 Z M 11.371094 31.285156 "/>
</clipPath>
<clipPath id="clip-95">
<path clip-rule="nonzero" d="M 13.496094 55.917969 L 18.335938 53.125 L 15.542969 48.285156 L 10.703125 51.078125 Z M 13.496094 55.917969 "/>
</clipPath>
<clipPath id="clip-96">
<path clip-rule="nonzero" d="M 18 48 L 21 48 L 21 51 L 18 51 Z M 18 48 "/>
</clipPath>
<clipPath id="clip-97">
<path clip-rule="nonzero" d="M 11.371094 31.285156 C 5.140625 32.484375 -5.8125 44.921875 5.757812 55.984375 C 17.351562 67.050781 77.683594 59.644531 48.480469 23.628906 C 22.269531 36.84375 32.332031 24.773438 12.015625 43.71875 Z M 11.371094 31.285156 "/>
</clipPath>
<clipPath id="clip-98">
<path clip-rule="nonzero" d="M 18.335938 53.125 L 23.175781 50.328125 L 20.382812 45.488281 L 15.542969 48.285156 Z M 18.335938 53.125 "/>
</clipPath>
<clipPath id="clip-99">
<path clip-rule="nonzero" d="M 23 45 L 25 45 L 25 48 L 23 48 Z M 23 45 "/>
</clipPath>
<clipPath id="clip-100">
<path clip-rule="nonzero" d="M 11.371094 31.285156 C 5.140625 32.484375 -5.8125 44.921875 5.757812 55.984375 C 17.351562 67.050781 77.683594 59.644531 48.480469 23.628906 C 22.269531 36.84375 32.332031 24.773438 12.015625 43.71875 Z M 11.371094 31.285156 "/>
</clipPath>
<clipPath id="clip-101">
<path clip-rule="nonzero" d="M 23.175781 50.328125 L 28.015625 47.535156 L 25.222656 42.695312 L 20.382812 45.488281 Z M 23.175781 50.328125 "/>
</clipPath>
<clipPath id="clip-102">
<path clip-rule="nonzero" d="M 28 42 L 30 42 L 30 45 L 28 45 Z M 28 42 "/>
</clipPath>
<clipPath id="clip-103">
<path clip-rule="nonzero" d="M 11.371094 31.285156 C 5.140625 32.484375 -5.8125 44.921875 5.757812 55.984375 C 17.351562 67.050781 77.683594 59.644531 48.480469 23.628906 C 22.269531 36.84375 32.332031 24.773438 12.015625 43.71875 Z M 11.371094 31.285156 "/>
</clipPath>
<clipPath id="clip-104">
<path clip-rule="nonzero" d="M 28.015625 47.535156 L 32.855469 44.742188 L 30.0625 39.902344 L 25.222656 42.695312 Z M 28.015625 47.535156 "/>
</clipPath>
<clipPath id="clip-105">
<path clip-rule="nonzero" d="M 33 40 L 35 40 L 35 42 L 33 42 Z M 33 40 "/>
</clipPath>
<clipPath id="clip-106">
<path clip-rule="nonzero" d="M 11.371094 31.285156 C 5.140625 32.484375 -5.8125 44.921875 5.757812 55.984375 C 17.351562 67.050781 77.683594 59.644531 48.480469 23.628906 C 22.269531 36.84375 32.332031 24.773438 12.015625 43.71875 Z M 11.371094 31.285156 "/>
</clipPath>
<clipPath id="clip-107">
<path clip-rule="nonzero" d="M 32.855469 44.742188 L 37.695312 41.945312 L 34.902344 37.105469 L 30.0625 39.902344 Z M 32.855469 44.742188 "/>
</clipPath>
<clipPath id="clip-108">
<path clip-rule="nonzero" d="M 37 37 L 40 37 L 40 39 L 37 39 Z M 37 37 "/>
</clipPath>
<clipPath id="clip-109">
<path clip-rule="nonzero" d="M 11.371094 31.285156 C 5.140625 32.484375 -5.8125 44.921875 5.757812 55.984375 C 17.351562 67.050781 77.683594 59.644531 48.480469 23.628906 C 22.269531 36.84375 32.332031 24.773438 12.015625 43.71875 Z M 11.371094 31.285156 "/>
</clipPath>
<clipPath id="clip-110">
<path clip-rule="nonzero" d="M 37.695312 41.945312 L 42.535156 39.152344 L 39.742188 34.3125 L 34.902344 37.105469 Z M 37.695312 41.945312 "/>
</clipPath>
<clipPath id="clip-111">
<path clip-rule="nonzero" d="M 42 34 L 45 34 L 45 37 L 42 37 Z M 42 34 "/>
</clipPath>
<clipPath id="clip-112">
<path clip-rule="nonzero" d="M 11.371094 31.285156 C 5.140625 32.484375 -5.8125 44.921875 5.757812 55.984375 C 17.351562 67.050781 77.683594 59.644531 48.480469 23.628906 C 22.269531 36.84375 32.332031 24.773438 12.015625 43.71875 Z M 11.371094 31.285156 "/>
</clipPath>
<clipPath id="clip-113">
<path clip-rule="nonzero" d="M 42.535156 39.152344 L 47.378906 36.359375 L 44.582031 31.519531 L 39.742188 34.3125 Z M 42.535156 39.152344 "/>
</clipPath>
<clipPath id="clip-114">
<path clip-rule="nonzero" d="M 47 31 L 50 31 L 50 34 L 47 34 Z M 47 31 "/>
</clipPath>
<clipPath id="clip-115">
<path clip-rule="nonzero" d="M 11.371094 31.285156 C 5.140625 32.484375 -5.8125 44.921875 5.757812 55.984375 C 17.351562 67.050781 77.683594 59.644531 48.480469 23.628906 C 22.269531 36.84375 32.332031 24.773438 12.015625 43.71875 Z M 11.371094 31.285156 "/>
</clipPath>
<clipPath id="clip-116">
<path clip-rule="nonzero" d="M 47.378906 36.359375 L 52.21875 33.5625 L 49.421875 28.722656 L 44.582031 31.519531 Z M 47.378906 36.359375 "/>
</clipPath>
<clipPath id="clip-117">
<path clip-rule="nonzero" d="M 52 29 L 55 29 L 55 31 L 52 31 Z M 52 29 "/>
</clipPath>
<clipPath id="clip-118">
<path clip-rule="nonzero" d="M 11.371094 31.285156 C 5.140625 32.484375 -5.8125 44.921875 5.757812 55.984375 C 17.351562 67.050781 77.683594 59.644531 48.480469 23.628906 C 22.269531 36.84375 32.332031 24.773438 12.015625 43.71875 Z M 11.371094 31.285156 "/>
</clipPath>
<clipPath id="clip-119">
<path clip-rule="nonzero" d="M 52.21875 33.5625 L 57.058594 30.769531 L 54.261719 25.929688 L 49.421875 28.722656 Z M 52.21875 33.5625 "/>
</clipPath>
<clipPath id="clip-120">
<path clip-rule="nonzero" d="M 1 52 L 3 52 L 3 54 L 1 54 Z M 1 52 "/>
</clipPath>
<clipPath id="clip-121">
<path clip-rule="nonzero" d="M 11.371094 31.285156 C 5.140625 32.484375 -5.8125 44.921875 5.757812 55.984375 C 17.351562 67.050781 77.683594 59.644531 48.480469 23.628906 C 22.269531 36.84375 32.332031 24.773438 12.015625 43.71875 Z M 11.371094 31.285156 "/>
</clipPath>
<clipPath id="clip-122">
<path clip-rule="nonzero" d="M 1.023438 56.667969 L 5.863281 53.871094 L 3.070312 49.03125 L -1.773438 51.828125 Z M 1.023438 56.667969 "/>
</clipPath>
<clipPath id="clip-123">
<path clip-rule="nonzero" d="M 6 49 L 8 49 L 8 51 L 6 51 Z M 6 49 "/>
</clipPath>
<clipPath id="clip-124">
<path clip-rule="nonzero" d="M 11.371094 31.285156 C 5.140625 32.484375 -5.8125 44.921875 5.757812 55.984375 C 17.351562 67.050781 77.683594 59.644531 48.480469 23.628906 C 22.269531 36.84375 32.332031 24.773438 12.015625 43.71875 Z M 11.371094 31.285156 "/>
</clipPath>
<clipPath id="clip-125">
<path clip-rule="nonzero" d="M 5.863281 53.871094 L 10.703125 51.078125 L 7.910156 46.238281 L 3.070312 49.03125 Z M 5.863281 53.871094 "/>
</clipPath>
<clipPath id="clip-126">
<path clip-rule="nonzero" d="M 10 46 L 13 46 L 13 49 L 10 49 Z M 10 46 "/>
</clipPath>
<clipPath id="clip-127">
<path clip-rule="nonzero" d="M 11.371094 31.285156 C 5.140625 32.484375 -5.8125 44.921875 5.757812 55.984375 C 17.351562 67.050781 77.683594 59.644531 48.480469 23.628906 C 22.269531 36.84375 32.332031 24.773438 12.015625 43.71875 Z M 11.371094 31.285156 "/>
</clipPath>
<clipPath id="clip-128">
<path clip-rule="nonzero" d="M 10.703125 51.078125 L 15.542969 48.285156 L 12.75 43.445312 L 7.910156 46.238281 Z M 10.703125 51.078125 "/>
</clipPath>
<clipPath id="clip-129">
<path clip-rule="nonzero" d="M 15 43 L 18 43 L 18 46 L 15 46 Z M 15 43 "/>
</clipPath>
<clipPath id="clip-130">
<path clip-rule="nonzero" d="M 11.371094 31.285156 C 5.140625 32.484375 -5.8125 44.921875 5.757812 55.984375 C 17.351562 67.050781 77.683594 59.644531 48.480469 23.628906 C 22.269531 36.84375 32.332031 24.773438 12.015625 43.71875 Z M 11.371094 31.285156 "/>
</clipPath>
<clipPath id="clip-131">
<path clip-rule="nonzero" d="M 15.542969 48.285156 L 20.382812 45.488281 L 17.589844 40.648438 L 12.75 43.445312 Z M 15.542969 48.285156 "/>
</clipPath>
<clipPath id="clip-132">
<path clip-rule="nonzero" d="M 20 40 L 23 40 L 23 43 L 20 43 Z M 20 40 "/>
</clipPath>
<clipPath id="clip-133">
<path clip-rule="nonzero" d="M 11.371094 31.285156 C 5.140625 32.484375 -5.8125 44.921875 5.757812 55.984375 C 17.351562 67.050781 77.683594 59.644531 48.480469 23.628906 C 22.269531 36.84375 32.332031 24.773438 12.015625 43.71875 Z M 11.371094 31.285156 "/>
</clipPath>
<clipPath id="clip-134">
<path clip-rule="nonzero" d="M 20.382812 45.488281 L 25.222656 42.695312 L 22.429688 37.855469 L 17.589844 40.648438 Z M 20.382812 45.488281 "/>
</clipPath>
<clipPath id="clip-135">
<path clip-rule="nonzero" d="M 25 38 L 28 38 L 28 40 L 25 40 Z M 25 38 "/>
</clipPath>
<clipPath id="clip-136">
<path clip-rule="nonzero" d="M 11.371094 31.285156 C 5.140625 32.484375 -5.8125 44.921875 5.757812 55.984375 C 17.351562 67.050781 77.683594 59.644531 48.480469 23.628906 C 22.269531 36.84375 32.332031 24.773438 12.015625 43.71875 Z M 11.371094 31.285156 "/>
</clipPath>
<clipPath id="clip-137">
<path clip-rule="nonzero" d="M 25.222656 42.695312 L 30.0625 39.902344 L 27.269531 35.0625 L 22.429688 37.855469 Z M 25.222656 42.695312 "/>
</clipPath>
<clipPath id="clip-138">
<path clip-rule="nonzero" d="M 30 35 L 32 35 L 32 37 L 30 37 Z M 30 35 "/>
</clipPath>
<clipPath id="clip-139">
<path clip-rule="nonzero" d="M 11.371094 31.285156 C 5.140625 32.484375 -5.8125 44.921875 5.757812 55.984375 C 17.351562 67.050781 77.683594 59.644531 48.480469 23.628906 C 22.269531 36.84375 32.332031 24.773438 12.015625 43.71875 Z M 11.371094 31.285156 "/>
</clipPath>
<clipPath id="clip-140">
<path clip-rule="nonzero" d="M 30.0625 39.902344 L 34.902344 37.105469 L 32.109375 32.265625 L 27.269531 35.0625 Z M 30.0625 39.902344 "/>
</clipPath>
<clipPath id="clip-141">
<path clip-rule="nonzero" d="M 35 32 L 37 32 L 37 35 L 35 35 Z M 35 32 "/>
</clipPath>
<clipPath id="clip-142">
<path clip-rule="nonzero" d="M 11.371094 31.285156 C 5.140625 32.484375 -5.8125 44.921875 5.757812 55.984375 C 17.351562 67.050781 77.683594 59.644531 48.480469 23.628906 C 22.269531 36.84375 32.332031 24.773438 12.015625 43.71875 Z M 11.371094 31.285156 "/>
</clipPath>
<clipPath id="clip-143">
<path clip-rule="nonzero" d="M 34.902344 37.105469 L 39.742188 34.3125 L 36.949219 29.472656 L 32.109375 32.265625 Z M 34.902344 37.105469 "/>
</clipPath>
<clipPath id="clip-144">
<path clip-rule="nonzero" d="M 39 29 L 42 29 L 42 32 L 39 32 Z M 39 29 "/>
</clipPath>
<clipPath id="clip-145">
<path clip-rule="nonzero" d="M 11.371094 31.285156 C 5.140625 32.484375 -5.8125 44.921875 5.757812 55.984375 C 17.351562 67.050781 77.683594 59.644531 48.480469 23.628906 C 22.269531 36.84375 32.332031 24.773438 12.015625 43.71875 Z M 11.371094 31.285156 "/>
</clipPath>
<clipPath id="clip-146">
<path clip-rule="nonzero" d="M 39.742188 34.3125 L 44.582031 31.519531 L 41.789062 26.679688 L 36.949219 29.472656 Z M 39.742188 34.3125 "/>
</clipPath>
<clipPath id="clip-147">
<path clip-rule="nonzero" d="M 44 26 L 47 26 L 47 29 L 44 29 Z M 44 26 "/>
</clipPath>
<clipPath id="clip-148">
<path clip-rule="nonzero" d="M 11.371094 31.285156 C 5.140625 32.484375 -5.8125 44.921875 5.757812 55.984375 C 17.351562 67.050781 77.683594 59.644531 48.480469 23.628906 C 22.269531 36.84375 32.332031 24.773438 12.015625 43.71875 Z M 11.371094 31.285156 "/>
</clipPath>
<clipPath id="clip-149">
<path clip-rule="nonzero" d="M 44.582031 31.519531 L 49.421875 28.722656 L 46.628906 23.882812 L 41.789062 26.679688 Z M 44.582031 31.519531 "/>
</clipPath>
<clipPath id="clip-150">
<path clip-rule="nonzero" d="M 49 24 L 52 24 L 52 26 L 49 26 Z M 49 24 "/>
</clipPath>
<clipPath id="clip-151">
<path clip-rule="nonzero" d="M 11.371094 31.285156 C 5.140625 32.484375 -5.8125 44.921875 5.757812 55.984375 C 17.351562 67.050781 77.683594 59.644531 48.480469 23.628906 C 22.269531 36.84375 32.332031 24.773438 12.015625 43.71875 Z M 11.371094 31.285156 "/>
</clipPath>
<clipPath id="clip-152">
<path clip-rule="nonzero" d="M 49.421875 28.722656 L 54.261719 25.929688 L 51.46875 21.089844 L 46.628906 23.882812 Z M 49.421875 28.722656 "/>
</clipPath>
<clipPath id="clip-153">
<path clip-rule="nonzero" d="M 0 47 L 1 47 L 1 49 L 0 49 Z M 0 47 "/>
</clipPath>
<clipPath id="clip-154">
<path clip-rule="nonzero" d="M 11.371094 31.285156 C 5.140625 32.484375 -5.8125 44.921875 5.757812 55.984375 C 17.351562 67.050781 77.683594 59.644531 48.480469 23.628906 C 22.269531 36.84375 32.332031 24.773438 12.015625 43.71875 Z M 11.371094 31.285156 "/>
</clipPath>
<clipPath id="clip-155">
<path clip-rule="nonzero" d="M -1.773438 51.828125 L 3.070312 49.03125 L 0.273438 44.191406 L -4.566406 46.988281 Z M -1.773438 51.828125 "/>
</clipPath>
<clipPath id="clip-156">
<path clip-rule="nonzero" d="M 3 44 L 5 44 L 5 47 L 3 47 Z M 3 44 "/>
</clipPath>
<clipPath id="clip-157">
<path clip-rule="nonzero" d="M 11.371094 31.285156 C 5.140625 32.484375 -5.8125 44.921875 5.757812 55.984375 C 17.351562 67.050781 77.683594 59.644531 48.480469 23.628906 C 22.269531 36.84375 32.332031 24.773438 12.015625 43.71875 Z M 11.371094 31.285156 "/>
</clipPath>
<clipPath id="clip-158">
<path clip-rule="nonzero" d="M 3.070312 49.03125 L 7.910156 46.238281 L 5.113281 41.398438 L 0.273438 44.191406 Z M 3.070312 49.03125 "/>
</clipPath>
<clipPath id="clip-159">
<path clip-rule="nonzero" d="M 8 41 L 10 41 L 10 44 L 8 44 Z M 8 41 "/>
</clipPath>
<clipPath id="clip-160">
<path clip-rule="nonzero" d="M 11.371094 31.285156 C 5.140625 32.484375 -5.8125 44.921875 5.757812 55.984375 C 17.351562 67.050781 77.683594 59.644531 48.480469 23.628906 C 22.269531 36.84375 32.332031 24.773438 12.015625 43.71875 Z M 11.371094 31.285156 "/>
</clipPath>
<clipPath id="clip-161">
<path clip-rule="nonzero" d="M 7.910156 46.238281 L 12.75 43.445312 L 9.953125 38.605469 L 5.113281 41.398438 Z M 7.910156 46.238281 "/>
</clipPath>
<clipPath id="clip-162">
<path clip-rule="nonzero" d="M 12 38 L 15 38 L 15 41 L 12 41 Z M 12 38 "/>
</clipPath>
<clipPath id="clip-163">
<path clip-rule="nonzero" d="M 11.371094 31.285156 C 5.140625 32.484375 -5.8125 44.921875 5.757812 55.984375 C 17.351562 67.050781 77.683594 59.644531 48.480469 23.628906 C 22.269531 36.84375 32.332031 24.773438 12.015625 43.71875 Z M 11.371094 31.285156 "/>
</clipPath>
<clipPath id="clip-164">
<path clip-rule="nonzero" d="M 12.75 43.445312 L 17.589844 40.648438 L 14.792969 35.808594 L 9.953125 38.605469 Z M 12.75 43.445312 "/>
</clipPath>
<clipPath id="clip-165">
<path clip-rule="nonzero" d="M 17 36 L 20 36 L 20 38 L 17 38 Z M 17 36 "/>
</clipPath>
<clipPath id="clip-166">
<path clip-rule="nonzero" d="M 11.371094 31.285156 C 5.140625 32.484375 -5.8125 44.921875 5.757812 55.984375 C 17.351562 67.050781 77.683594 59.644531 48.480469 23.628906 C 22.269531 36.84375 32.332031 24.773438 12.015625 43.71875 Z M 11.371094 31.285156 "/>
</clipPath>
<clipPath id="clip-167">
<path clip-rule="nonzero" d="M 17.589844 40.648438 L 22.429688 37.855469 L 19.632812 33.015625 L 14.792969 35.808594 Z M 17.589844 40.648438 "/>
</clipPath>
<clipPath id="clip-168">
<path clip-rule="nonzero" d="M 22 33 L 25 33 L 25 35 L 22 35 Z M 22 33 "/>
</clipPath>
<clipPath id="clip-169">
<path clip-rule="nonzero" d="M 11.371094 31.285156 C 5.140625 32.484375 -5.8125 44.921875 5.757812 55.984375 C 17.351562 67.050781 77.683594 59.644531 48.480469 23.628906 C 22.269531 36.84375 32.332031 24.773438 12.015625 43.71875 Z M 11.371094 31.285156 "/>
</clipPath>
<clipPath id="clip-170">
<path clip-rule="nonzero" d="M 22.429688 37.855469 L 27.269531 35.0625 L 24.472656 30.222656 L 19.632812 33.015625 Z M 22.429688 37.855469 "/>
</clipPath>
<clipPath id="clip-171">
<path clip-rule="nonzero" d="M 27 30 L 30 30 L 30 33 L 27 33 Z M 27 30 "/>
</clipPath>
<clipPath id="clip-172">
<path clip-rule="nonzero" d="M 11.371094 31.285156 C 5.140625 32.484375 -5.8125 44.921875 5.757812 55.984375 C 17.351562 67.050781 77.683594 59.644531 48.480469 23.628906 C 22.269531 36.84375 32.332031 24.773438 12.015625 43.71875 Z M 11.371094 31.285156 "/>
</clipPath>
<clipPath id="clip-173">
<path clip-rule="nonzero" d="M 27.269531 35.0625 L 32.109375 32.265625 L 29.3125 27.425781 L 24.472656 30.222656 Z M 27.269531 35.0625 "/>
</clipPath>
<clipPath id="clip-174">
<path clip-rule="nonzero" d="M 32 27 L 34 27 L 34 30 L 32 30 Z M 32 27 "/>
</clipPath>
<clipPath id="clip-175">
<path clip-rule="nonzero" d="M 11.371094 31.285156 C 5.140625 32.484375 -5.8125 44.921875 5.757812 55.984375 C 17.351562 67.050781 77.683594 59.644531 48.480469 23.628906 C 22.269531 36.84375 32.332031 24.773438 12.015625 43.71875 Z M 11.371094 31.285156 "/>
</clipPath>
<clipPath id="clip-176">
<path clip-rule="nonzero" d="M 32.109375 32.265625 L 36.949219 29.472656 L 34.152344 24.632812 L 29.3125 27.425781 Z M 32.109375 32.265625 "/>
</clipPath>
<clipPath id="clip-177">
<path clip-rule="nonzero" d="M 37 24 L 39 24 L 39 27 L 37 27 Z M 37 24 "/>
</clipPath>
<clipPath id="clip-178">
<path clip-rule="nonzero" d="M 11.371094 31.285156 C 5.140625 32.484375 -5.8125 44.921875 5.757812 55.984375 C 17.351562 67.050781 77.683594 59.644531 48.480469 23.628906 C 22.269531 36.84375 32.332031 24.773438 12.015625 43.71875 Z M 11.371094 31.285156 "/>
</clipPath>
<clipPath id="clip-179">
<path clip-rule="nonzero" d="M 36.949219 29.472656 L 41.789062 26.679688 L 38.992188 21.839844 L 34.152344 24.632812 Z M 36.949219 29.472656 "/>
</clipPath>
<clipPath id="clip-180">
<path clip-rule="nonzero" d="M 41 23 L 44 23 L 44 24 L 41 24 Z M 41 23 "/>
</clipPath>
<clipPath id="clip-181">
<path clip-rule="nonzero" d="M 11.371094 31.285156 C 5.140625 32.484375 -5.8125 44.921875 5.757812 55.984375 C 17.351562 67.050781 77.683594 59.644531 48.480469 23.628906 C 22.269531 36.84375 32.332031 24.773438 12.015625 43.71875 Z M 11.371094 31.285156 "/>
</clipPath>
<clipPath id="clip-182">
<path clip-rule="nonzero" d="M 41.789062 26.679688 L 46.628906 23.882812 L 43.832031 19.042969 L 38.992188 21.839844 Z M 41.789062 26.679688 "/>
</clipPath>
<clipPath id="clip-183">
<path clip-rule="nonzero" d="M 0 39 L 3 39 L 3 42 L 0 42 Z M 0 39 "/>
</clipPath>
<clipPath id="clip-184">
<path clip-rule="nonzero" d="M 11.371094 31.285156 C 5.140625 32.484375 -5.8125 44.921875 5.757812 55.984375 C 17.351562 67.050781 77.683594 59.644531 48.480469 23.628906 C 22.269531 36.84375 32.332031 24.773438 12.015625 43.71875 Z M 11.371094 31.285156 "/>
</clipPath>
<clipPath id="clip-185">
<path clip-rule="nonzero" d="M 0.273438 44.191406 L 5.113281 41.398438 L 2.320312 36.558594 L -2.519531 39.351562 Z M 0.273438 44.191406 "/>
</clipPath>
<clipPath id="clip-186">
<path clip-rule="nonzero" d="M 5 36 L 7 36 L 7 39 L 5 39 Z M 5 36 "/>
</clipPath>
<clipPath id="clip-187">
<path clip-rule="nonzero" d="M 11.371094 31.285156 C 5.140625 32.484375 -5.8125 44.921875 5.757812 55.984375 C 17.351562 67.050781 77.683594 59.644531 48.480469 23.628906 C 22.269531 36.84375 32.332031 24.773438 12.015625 43.71875 Z M 11.371094 31.285156 "/>
</clipPath>
<clipPath id="clip-188">
<path clip-rule="nonzero" d="M 5.113281 41.398438 L 9.953125 38.605469 L 7.160156 33.765625 L 2.320312 36.558594 Z M 5.113281 41.398438 "/>
</clipPath>
<clipPath id="clip-189">
<path clip-rule="nonzero" d="M 10 34 L 12 34 L 12 36 L 10 36 Z M 10 34 "/>
</clipPath>
<clipPath id="clip-190">
<path clip-rule="nonzero" d="M 11.371094 31.285156 C 5.140625 32.484375 -5.8125 44.921875 5.757812 55.984375 C 17.351562 67.050781 77.683594 59.644531 48.480469 23.628906 C 22.269531 36.84375 32.332031 24.773438 12.015625 43.71875 Z M 11.371094 31.285156 "/>
</clipPath>
<clipPath id="clip-191">
<path clip-rule="nonzero" d="M 9.953125 38.605469 L 14.792969 35.808594 L 12 30.96875 L 7.160156 33.765625 Z M 9.953125 38.605469 "/>
</clipPath>
<clipPath id="clip-192">
<path clip-rule="nonzero" d="M 14 31 L 17 31 L 17 33 L 14 33 Z M 14 31 "/>
</clipPath>
<clipPath id="clip-193">
<path clip-rule="nonzero" d="M 11.371094 31.285156 C 5.140625 32.484375 -5.8125 44.921875 5.757812 55.984375 C 17.351562 67.050781 77.683594 59.644531 48.480469 23.628906 C 22.269531 36.84375 32.332031 24.773438 12.015625 43.71875 Z M 11.371094 31.285156 "/>
</clipPath>
<clipPath id="clip-194">
<path clip-rule="nonzero" d="M 14.792969 35.808594 L 19.632812 33.015625 L 16.839844 28.175781 L 12 30.96875 Z M 14.792969 35.808594 "/>
</clipPath>
<clipPath id="clip-195">
<path clip-rule="nonzero" d="M 19 28 L 22 28 L 22 31 L 19 31 Z M 19 28 "/>
</clipPath>
<clipPath id="clip-196">
<path clip-rule="nonzero" d="M 11.371094 31.285156 C 5.140625 32.484375 -5.8125 44.921875 5.757812 55.984375 C 17.351562 67.050781 77.683594 59.644531 48.480469 23.628906 C 22.269531 36.84375 32.332031 24.773438 12.015625 43.71875 Z M 11.371094 31.285156 "/>
</clipPath>
<clipPath id="clip-197">
<path clip-rule="nonzero" d="M 19.632812 33.015625 L 24.472656 30.222656 L 21.679688 25.382812 L 16.839844 28.175781 Z M 19.632812 33.015625 "/>
</clipPath>
<clipPath id="clip-198">
<path clip-rule="nonzero" d="M 24 25 L 27 25 L 27 28 L 24 28 Z M 24 25 "/>
</clipPath>
<clipPath id="clip-199">
<path clip-rule="nonzero" d="M 11.371094 31.285156 C 5.140625 32.484375 -5.8125 44.921875 5.757812 55.984375 C 17.351562 67.050781 77.683594 59.644531 48.480469 23.628906 C 22.269531 36.84375 32.332031 24.773438 12.015625 43.71875 Z M 11.371094 31.285156 "/>
</clipPath>
<clipPath id="clip-200">
<path clip-rule="nonzero" d="M 24.472656 30.222656 L 29.3125 27.425781 L 26.519531 22.585938 L 21.679688 25.382812 Z M 24.472656 30.222656 "/>
</clipPath>
<clipPath id="clip-201">
<path clip-rule="nonzero" d="M 29 23 L 32 23 L 32 25 L 29 25 Z M 29 23 "/>
</clipPath>
<clipPath id="clip-202">
<path clip-rule="nonzero" d="M 11.371094 31.285156 C 5.140625 32.484375 -5.8125 44.921875 5.757812 55.984375 C 17.351562 67.050781 77.683594 59.644531 48.480469 23.628906 C 22.269531 36.84375 32.332031 24.773438 12.015625 43.71875 Z M 11.371094 31.285156 "/>
</clipPath>
<clipPath id="clip-203">
<path clip-rule="nonzero" d="M 29.3125 27.425781 L 34.152344 24.632812 L 31.359375 19.792969 L 26.519531 22.585938 Z M 29.3125 27.425781 "/>
</clipPath>
<clipPath id="clip-204">
<path clip-rule="nonzero" d="M 2 32 L 5 32 L 5 34 L 2 34 Z M 2 32 "/>
</clipPath>
<clipPath id="clip-205">
<path clip-rule="nonzero" d="M 11.371094 31.285156 C 5.140625 32.484375 -5.8125 44.921875 5.757812 55.984375 C 17.351562 67.050781 77.683594 59.644531 48.480469 23.628906 C 22.269531 36.84375 32.332031 24.773438 12.015625 43.71875 Z M 11.371094 31.285156 "/>
</clipPath>
<clipPath id="clip-206">
<path clip-rule="nonzero" d="M 2.320312 36.558594 L 7.160156 33.765625 L 4.367188 28.925781 L -0.472656 31.71875 Z M 2.320312 36.558594 "/>
</clipPath>
<clipPath id="clip-207">
<path clip-rule="nonzero" d="M 7 29 L 9 29 L 9 31 L 7 31 Z M 7 29 "/>
</clipPath>
<clipPath id="clip-208">
<path clip-rule="nonzero" d="M 11.371094 31.285156 C 5.140625 32.484375 -5.8125 44.921875 5.757812 55.984375 C 17.351562 67.050781 77.683594 59.644531 48.480469 23.628906 C 22.269531 36.84375 32.332031 24.773438 12.015625 43.71875 Z M 11.371094 31.285156 "/>
</clipPath>
<clipPath id="clip-209">
<path clip-rule="nonzero" d="M 7.160156 33.765625 L 12 30.96875 L 9.207031 26.128906 L 4.367188 28.925781 Z M 7.160156 33.765625 "/>
</clipPath>
<clipPath id="clip-210">
<path clip-rule="nonzero" d="M 12 26 L 14 26 L 14 28 L 12 28 Z M 12 26 "/>
</clipPath>
<clipPath id="clip-211">
<path clip-rule="nonzero" d="M 11.371094 31.285156 C 5.140625 32.484375 -5.8125 44.921875 5.757812 55.984375 C 17.351562 67.050781 77.683594 59.644531 48.480469 23.628906 C 22.269531 36.84375 32.332031 24.773438 12.015625 43.71875 Z M 11.371094 31.285156 "/>
</clipPath>
<clipPath id="clip-212">
<path clip-rule="nonzero" d="M 12 30.96875 L 16.839844 28.175781 L 14.046875 23.335938 L 9.207031 26.128906 Z M 12 30.96875 "/>
</clipPath>
<clipPath id="clip-213">
<path clip-rule="nonzero" d="M 17 23 L 19 23 L 19 26 L 17 26 Z M 17 23 "/>
</clipPath>
<clipPath id="clip-214">
<path clip-rule="nonzero" d="M 11.371094 31.285156 C 5.140625 32.484375 -5.8125 44.921875 5.757812 55.984375 C 17.351562 67.050781 77.683594 59.644531 48.480469 23.628906 C 22.269531 36.84375 32.332031 24.773438 12.015625 43.71875 Z M 11.371094 31.285156 "/>
</clipPath>
<clipPath id="clip-215">
<path clip-rule="nonzero" d="M 16.839844 28.175781 L 21.679688 25.382812 L 18.886719 20.542969 L 14.046875 23.335938 Z M 16.839844 28.175781 "/>
</clipPath>
<clipPath id="clip-216">
<path clip-rule="nonzero" d="M 0 27 L 2 27 L 2 29 L 0 29 Z M 0 27 "/>
</clipPath>
<clipPath id="clip-217">
<path clip-rule="nonzero" d="M 11.371094 31.285156 C 5.140625 32.484375 -5.8125 44.921875 5.757812 55.984375 C 17.351562 67.050781 77.683594 59.644531 48.480469 23.628906 C 22.269531 36.84375 32.332031 24.773438 12.015625 43.71875 Z M 11.371094 31.285156 "/>
</clipPath>
<clipPath id="clip-218">
<path clip-rule="nonzero" d="M -0.476562 31.71875 L 4.367188 28.925781 L 1.570312 24.085938 L -3.269531 26.878906 Z M -0.476562 31.71875 "/>
</clipPath>
<clipPath id="clip-219">
<path clip-rule="nonzero" d="M 4 24 L 7 24 L 7 26 L 4 26 Z M 4 24 "/>
</clipPath>
<clipPath id="clip-220">
<path clip-rule="nonzero" d="M 11.371094 31.285156 C 5.140625 32.484375 -5.8125 44.921875 5.757812 55.984375 C 17.351562 67.050781 77.683594 59.644531 48.480469 23.628906 C 22.269531 36.84375 32.332031 24.773438 12.015625 43.71875 Z M 11.371094 31.285156 "/>
</clipPath>
<clipPath id="clip-221">
<path clip-rule="nonzero" d="M 4.367188 28.925781 L 9.207031 26.128906 L 6.410156 21.289062 L 1.570312 24.085938 Z M 4.367188 28.925781 "/>
</clipPath>
<clipPath id="clip-222">
<path clip-rule="nonzero" d="M 9 23 L 11 23 L 11 24 L 9 24 Z M 9 23 "/>
</clipPath>
<clipPath id="clip-223">
<path clip-rule="nonzero" d="M 11.371094 31.285156 C 5.140625 32.484375 -5.8125 44.921875 5.757812 55.984375 C 17.351562 67.050781 77.683594 59.644531 48.480469 23.628906 C 22.269531 36.84375 32.332031 24.773438 12.015625 43.71875 Z M 11.371094 31.285156 "/>
</clipPath>
<clipPath id="clip-224">
<path clip-rule="nonzero" d="M 9.207031 26.128906 L 14.046875 23.335938 L 11.25 18.496094 L 6.410156 21.289062 Z M 9.207031 26.128906 "/>
</clipPath>
</defs>
<g clip-path="url(#clip-0)">
<path fill-rule="nonzero" fill="rgb(89.99939%, 89.99939%, 89.99939%)" fill-opacity="1" d="M 0 60.484375 L 56.363281 60.484375 L 56.363281 0.40625 L 0 0.40625 Z M 0 60.484375 "/>
</g>
<g clip-path="url(#clip-1)">
<path fill-rule="nonzero" fill="rgb(99.607849%, 87.449646%, 0%)" fill-opacity="1" d="M 12.015625 31.285156 C 5.140625 32.484375 -5.8125 44.921875 5.757812 55.984375 C 17.351562 67.050781 77.683594 59.644531 48.480469 23.628906 C 23.890625 36.84375 32.332031 24.746094 12.015625 31.285156 Z M 12.015625 31.285156 "/>
</g>
<path fill-rule="nonzero" fill="rgb(99.607849%, 87.449646%, 0%)" fill-opacity="1" d="M 36.800781 21.363281 C 36.800781 11.71875 30.546875 3.898438 22.828125 3.898438 C 15.113281 3.898438 8.859375 11.71875 8.859375 21.363281 C 8.859375 31.007812 15.113281 38.828125 22.828125 38.828125 C 30.546875 38.828125 36.800781 31.007812 36.800781 21.363281 Z M 36.800781 21.363281 "/>
<path fill-rule="nonzero" fill="rgb(87.5%, 50%, 12.5%)" fill-opacity="1" d="M 9.027344 22.144531 C 15.648438 20.527344 12.796875 26.867188 23.109375 24.996094 C 0 39.527344 5.195312 25.023438 9.027344 22.144531 Z M 9.027344 22.144531 "/>
<path fill-rule="nonzero" fill="rgb(100%, 99.234009%, 85.00061%)" fill-opacity="1" d="M 22.957031 19.917969 C 23.617188 18.105469 23.101562 16.253906 21.808594 15.78125 C 20.511719 15.3125 18.925781 16.398438 18.269531 18.210938 C 17.609375 20.023438 18.121094 21.875 19.417969 22.347656 C 20.710938 22.820312 22.296875 21.730469 22.957031 19.917969 Z M 22.957031 19.917969 "/>
<path fill-rule="nonzero" fill="rgb(0%, 0%, 0%)" fill-opacity="1" d="M 22.242188 19.957031 C 22.621094 18.921875 22.503906 17.929688 21.988281 17.738281 C 21.46875 17.550781 20.742188 18.238281 20.367188 19.273438 C 19.992188 20.308594 20.105469 21.300781 20.621094 21.488281 C 21.140625 21.675781 21.867188 20.992188 22.242188 19.957031 Z M 22.242188 19.957031 "/>
<path fill-rule="nonzero" fill="rgb(100%, 99.234009%, 85.00061%)" fill-opacity="1" d="M 14.800781 17.765625 C 15.402344 16.109375 14.96875 14.429688 13.828125 14.015625 C 12.6875 13.597656 11.273438 14.605469 10.671875 16.265625 C 10.066406 17.921875 10.503906 19.601562 11.640625 20.015625 C 12.78125 20.433594 14.195312 19.425781 14.800781 17.765625 Z M 14.800781 17.765625 "/>
<path fill-rule="nonzero" fill="rgb(0%, 0%, 0%)" fill-opacity="1" d="M 14.179688 17.839844 C 14.515625 16.90625 14.457031 16.027344 14.042969 15.875 C 13.625 15.726562 13.015625 16.359375 12.675781 17.292969 C 12.335938 18.222656 12.398438 19.101562 12.8125 19.253906 C 13.226562 19.40625 13.839844 18.769531 14.179688 17.839844 Z M 14.179688 17.839844 "/>
<path fill-rule="nonzero" fill="rgb(0%, 60.78186%, 22.744751%)" fill-opacity="1" d="M 36.652344 23.667969 C 38.328125 22.710938 38.753906 16.988281 37.761719 13.003906 C 32.6875 -6.671875 4.214844 -0.179688 9.28125 18.828125 C 9.820312 11 18.417969 4.601562 24.210938 10.035156 C 31.886719 17.238281 34.890625 24.679688 36.652344 23.667969 Z M 36.652344 23.667969 "/>
<g clip-path="url(#clip-2)">
<path fill-rule="nonzero" fill="rgb(0%, 15.293884%, 46.273804%)" fill-opacity="1" d="M 11.371094 31.285156 C 5.140625 32.484375 -5.8125 44.921875 5.757812 55.984375 C 17.351562 67.050781 77.683594 59.644531 48.480469 23.628906 C 22.269531 36.84375 32.332031 24.773438 12.015625 43.71875 Z M 11.371094 31.285156 "/>
</g>
<g clip-path="url(#clip-3)">
<g clip-path="url(#clip-4)">
<g clip-path="url(#clip-5)">
<path fill-rule="nonzero" fill="rgb(100%, 100%, 100%)" fill-opacity="1" d="M 57.113281 58.808594 L 57.148438 59.363281 L 56.710938 59.710938 L 57.25 59.847656 L 57.445312 60.367188 L 57.742188 59.898438 L 58.296875 59.875 L 57.941406 59.449219 L 58.09375 58.914062 L 57.574219 59.117188 Z M 57.113281 58.808594 "/>
</g>
</g>
</g>
<g clip-path="url(#clip-6)">
<g clip-path="url(#clip-7)">
<g clip-path="url(#clip-8)">
<path fill-rule="nonzero" fill="rgb(100%, 100%, 100%)" fill-opacity="1" d="M 44.636719 59.558594 L 44.675781 60.113281 L 44.238281 60.457031 L 44.777344 60.59375 L 44.96875 61.117188 L 45.265625 60.648438 L 45.824219 60.625 L 45.46875 60.195312 L 45.617188 59.660156 L 45.101562 59.867188 Z M 44.636719 59.558594 "/>
</g>
</g>
</g>
<g clip-path="url(#clip-9)">
<g clip-path="url(#clip-10)">
<g clip-path="url(#clip-11)">
<path fill-rule="nonzero" fill="rgb(100%, 100%, 100%)" fill-opacity="1" d="M 49.476562 56.761719 L 49.515625 57.320312 L 49.078125 57.664062 L 49.617188 57.800781 L 49.808594 58.324219 L 50.105469 57.851562 L 50.664062 57.832031 L 50.308594 57.402344 L 50.457031 56.867188 L 49.941406 57.074219 Z M 49.476562 56.761719 "/>
</g>
</g>
</g>
<g clip-path="url(#clip-12)">
<g clip-path="url(#clip-13)">
<g clip-path="url(#clip-14)">
<path fill-rule="nonzero" fill="rgb(100%, 100%, 100%)" fill-opacity="1" d="M 54.316406 53.96875 L 54.355469 54.523438 L 53.917969 54.871094 L 54.457031 55.007812 L 54.648438 55.527344 L 54.945312 55.058594 L 55.503906 55.035156 L 55.148438 54.609375 L 55.296875 54.074219 L 54.78125 54.277344 Z M 54.316406 53.96875 "/>
</g>
</g>
</g>
<g clip-path="url(#clip-15)">
<g clip-path="url(#clip-16)">
<g clip-path="url(#clip-17)">
<path fill-rule="nonzero" fill="rgb(100%, 100%, 100%)" fill-opacity="1" d="M 32.164062 60.308594 L 32.199219 60.863281 L 31.761719 61.207031 L 32.300781 61.34375 L 32.496094 61.867188 L 32.792969 61.394531 L 33.347656 61.375 L 32.992188 60.945312 L 33.144531 60.410156 L 32.625 60.617188 Z M 32.164062 60.308594 "/>
</g>
</g>
</g>
<g clip-path="url(#clip-18)">
<g clip-path="url(#clip-19)">
<g clip-path="url(#clip-20)">
<path fill-rule="nonzero" fill="rgb(100%, 100%, 100%)" fill-opacity="1" d="M 37.003906 57.511719 L 37.039062 58.066406 L 36.601562 58.414062 L 37.140625 58.550781 L 37.335938 59.070312 L 37.632812 58.601562 L 38.1875 58.578125 L 37.832031 58.152344 L 37.984375 57.617188 L 37.464844 57.820312 Z M 37.003906 57.511719 "/>
</g>
</g>
</g>
<g clip-path="url(#clip-21)">
<g clip-path="url(#clip-22)">
<g clip-path="url(#clip-23)">
<path fill-rule="nonzero" fill="rgb(100%, 100%, 100%)" fill-opacity="1" d="M 41.84375 54.71875 L 41.878906 55.273438 L 41.441406 55.617188 L 41.984375 55.753906 L 42.175781 56.277344 L 42.472656 55.808594 L 43.027344 55.785156 L 42.671875 55.355469 L 42.824219 54.820312 L 42.308594 55.027344 Z M 41.84375 54.71875 "/>
</g>
</g>
</g>
<g clip-path="url(#clip-24)">
<g clip-path="url(#clip-25)">
<g clip-path="url(#clip-26)">
<path fill-rule="nonzero" fill="rgb(100%, 100%, 100%)" fill-opacity="1" d="M 46.683594 51.921875 L 46.71875 52.480469 L 46.28125 52.824219 L 46.824219 52.960938 L 47.015625 53.484375 L 47.3125 53.011719 L 47.867188 52.992188 L 47.511719 52.5625 L 47.664062 52.027344 L 47.148438 52.234375 Z M 46.683594 51.921875 "/>
</g>
</g>
</g>
<g clip-path="url(#clip-27)">
<g clip-path="url(#clip-28)">
<g clip-path="url(#clip-29)">
<path fill-rule="nonzero" fill="rgb(100%, 100%, 100%)" fill-opacity="1" d="M 51.523438 49.128906 L 51.558594 49.683594 L 51.121094 50.03125 L 51.664062 50.167969 L 51.855469 50.6875 L 52.152344 50.21875 L 52.707031 50.195312 L 52.351562 49.769531 L 52.503906 49.230469 L 51.988281 49.4375 Z M 51.523438 49.128906 "/>
</g>
</g>
</g>
<g clip-path="url(#clip-30)">
<g clip-path="url(#clip-31)">
<g clip-path="url(#clip-32)">
<path fill-rule="nonzero" fill="rgb(100%, 100%, 100%)" fill-opacity="1" d="M 56.363281 46.335938 L 56.398438 46.890625 L 55.960938 47.234375 L 56.503906 47.371094 L 56.695312 47.894531 L 56.992188 47.425781 L 57.546875 47.402344 L 57.191406 46.972656 L 57.34375 46.4375 L 56.828125 46.644531 Z M 56.363281 46.335938 "/>
</g>
</g>
</g>
<g clip-path="url(#clip-33)">
<g clip-path="url(#clip-34)">
<g clip-path="url(#clip-35)">
<path fill-rule="nonzero" fill="rgb(100%, 100%, 100%)" fill-opacity="1" d="M 24.53125 58.261719 L 24.566406 58.816406 L 24.128906 59.160156 L 24.667969 59.296875 L 24.859375 59.820312 L 25.15625 59.351562 L 25.714844 59.328125 L 25.359375 58.898438 L 25.507812 58.363281 L 24.992188 58.570312 Z M 24.53125 58.261719 "/>
</g>
</g>
</g>
<g clip-path="url(#clip-36)">
<g clip-path="url(#clip-37)">
<g clip-path="url(#clip-38)">
<path fill-rule="nonzero" fill="rgb(100%, 100%, 100%)" fill-opacity="1" d="M 29.371094 55.464844 L 29.40625 56.023438 L 28.96875 56.367188 L 29.507812 56.503906 L 29.699219 57.027344 L 30 56.554688 L 30.554688 56.535156 L 30.199219 56.105469 L 30.347656 55.570312 L 29.832031 55.777344 Z M 29.371094 55.464844 "/>
</g>
</g>
</g>
<g clip-path="url(#clip-39)">
<g clip-path="url(#clip-40)">
<g clip-path="url(#clip-41)">
<path fill-rule="nonzero" fill="rgb(100%, 100%, 100%)" fill-opacity="1" d="M 34.210938 52.671875 L 34.246094 53.226562 L 33.808594 53.574219 L 34.347656 53.710938 L 34.539062 54.230469 L 34.839844 53.761719 L 35.394531 53.738281 L 35.039062 53.3125 L 35.191406 52.773438 L 34.671875 52.980469 Z M 34.210938 52.671875 "/>
</g>
</g>
</g>
<g clip-path="url(#clip-42)">
<g clip-path="url(#clip-43)">
<g clip-path="url(#clip-44)">
<path fill-rule="nonzero" fill="rgb(100%, 100%, 100%)" fill-opacity="1" d="M 39.050781 49.878906 L 39.085938 50.433594 L 38.648438 50.777344 L 39.1875 50.914062 L 39.382812 51.4375 L 39.679688 50.96875 L 40.234375 50.945312 L 39.878906 50.515625 L 40.03125 49.980469 L 39.511719 50.1875 Z M 39.050781 49.878906 "/>
</g>
</g>
</g>
<g clip-path="url(#clip-45)">
<g clip-path="url(#clip-46)">
<g clip-path="url(#clip-47)">
<path fill-rule="nonzero" fill="rgb(100%, 100%, 100%)" fill-opacity="1" d="M 43.890625 47.082031 L 43.925781 47.640625 L 43.488281 47.984375 L 44.027344 48.121094 L 44.222656 48.644531 L 44.519531 48.171875 L 45.074219 48.152344 L 44.71875 47.722656 L 44.871094 47.1875 L 44.351562 47.394531 Z M 43.890625 47.082031 "/>
</g>
</g>
</g>
<g clip-path="url(#clip-48)">
<g clip-path="url(#clip-49)">
<g clip-path="url(#clip-50)">
<path fill-rule="nonzero" fill="rgb(100%, 100%, 100%)" fill-opacity="1" d="M 48.730469 44.289062 L 48.765625 44.84375 L 48.328125 45.191406 L 48.867188 45.328125 L 49.0625 45.847656 L 49.359375 45.378906 L 49.914062 45.355469 L 49.558594 44.929688 L 49.710938 44.390625 L 49.191406 44.597656 Z M 48.730469 44.289062 "/>
</g>
</g>
</g>
<g clip-path="url(#clip-51)">
<g clip-path="url(#clip-52)">
<g clip-path="url(#clip-53)">
<path fill-rule="nonzero" fill="rgb(100%, 100%, 100%)" fill-opacity="1" d="M 53.570312 41.496094 L 53.605469 42.050781 L 53.167969 42.394531 L 53.707031 42.53125 L 53.902344 43.054688 L 54.199219 42.582031 L 54.753906 42.5625 L 54.398438 42.132812 L 54.550781 41.597656 L 54.03125 41.804688 Z M 53.570312 41.496094 "/>
</g>
</g>
</g>
<g clip-path="url(#clip-54)">
<g clip-path="url(#clip-55)">
<g clip-path="url(#clip-56)">
<path fill-rule="nonzero" fill="rgb(100%, 100%, 100%)" fill-opacity="1" d="M 12.054688 59.007812 L 12.089844 59.566406 L 11.65625 59.910156 L 12.195312 60.046875 L 12.386719 60.570312 L 12.683594 60.097656 L 13.238281 60.078125 L 12.882812 59.648438 L 13.035156 59.113281 L 12.519531 59.320312 Z M 12.054688 59.007812 "/>
</g>
</g>
</g>
<g clip-path="url(#clip-57)">
<g clip-path="url(#clip-58)">
<g clip-path="url(#clip-59)">
<path fill-rule="nonzero" fill="rgb(100%, 100%, 100%)" fill-opacity="1" d="M 16.894531 56.214844 L 16.929688 56.769531 L 16.496094 57.117188 L 17.035156 57.253906 L 17.226562 57.773438 L 17.523438 57.304688 L 18.082031 57.28125 L 17.722656 56.855469 L 17.875 56.320312 L 17.359375 56.523438 Z M 16.894531 56.214844 "/>
</g>
</g>
</g>
<g clip-path="url(#clip-60)">
<g clip-path="url(#clip-61)">
<g clip-path="url(#clip-62)">
<path fill-rule="nonzero" fill="rgb(100%, 100%, 100%)" fill-opacity="1" d="M 21.734375 53.421875 L 21.769531 53.976562 L 21.335938 54.320312 L 21.875 54.457031 L 22.066406 54.980469 L 22.363281 54.511719 L 22.921875 54.488281 L 22.5625 54.058594 L 22.714844 53.523438 L 22.199219 53.730469 Z M 21.734375 53.421875 "/>
</g>
</g>
</g>
<g clip-path="url(#clip-63)">
<g clip-path="url(#clip-64)">
<g clip-path="url(#clip-65)">
<path fill-rule="nonzero" fill="rgb(100%, 100%, 100%)" fill-opacity="1" d="M 26.574219 50.625 L 26.613281 51.183594 L 26.175781 51.527344 L 26.714844 51.664062 L 26.90625 52.1875 L 27.203125 51.714844 L 27.761719 51.695312 L 27.402344 51.265625 L 27.554688 50.730469 L 27.039062 50.9375 Z M 26.574219 50.625 "/>
</g>
</g>
</g>
<g clip-path="url(#clip-66)">
<g clip-path="url(#clip-67)">
<g clip-path="url(#clip-68)">
<path fill-rule="nonzero" fill="rgb(100%, 100%, 100%)" fill-opacity="1" d="M 31.414062 47.832031 L 31.453125 48.386719 L 31.015625 48.734375 L 31.554688 48.871094 L 31.746094 49.390625 L 32.042969 48.921875 L 32.601562 48.898438 L 32.246094 48.472656 L 32.394531 47.933594 L 31.878906 48.140625 Z M 31.414062 47.832031 "/>
</g>
</g>
</g>
<g clip-path="url(#clip-69)">
<g clip-path="url(#clip-70)">
<g clip-path="url(#clip-71)">
<path fill-rule="nonzero" fill="rgb(100%, 100%, 100%)" fill-opacity="1" d="M 36.253906 45.039062 L 36.292969 45.59375 L 35.855469 45.9375 L 36.394531 46.074219 L 36.585938 46.597656 L 36.882812 46.128906 L 37.441406 46.105469 L 37.085938 45.675781 L 37.234375 45.140625 L 36.71875 45.347656 Z M 36.253906 45.039062 "/>
</g>
</g>
</g>
<g clip-path="url(#clip-72)">
<g clip-path="url(#clip-73)">
<g clip-path="url(#clip-74)">
<path fill-rule="nonzero" fill="rgb(100%, 100%, 100%)" fill-opacity="1" d="M 41.09375 42.242188 L 41.132812 42.800781 L 40.695312 43.144531 L 41.234375 43.28125 L 41.425781 43.804688 L 41.722656 43.332031 L 42.28125 43.3125 L 41.925781 42.882812 L 42.074219 42.347656 L 41.558594 42.554688 Z M 41.09375 42.242188 "/>
</g>
</g>
</g>
<g clip-path="url(#clip-75)">
<g clip-path="url(#clip-76)">
<g clip-path="url(#clip-77)">
<path fill-rule="nonzero" fill="rgb(100%, 100%, 100%)" fill-opacity="1" d="M 45.933594 39.449219 L 45.972656 40.003906 L 45.535156 40.347656 L 46.074219 40.488281 L 46.265625 41.007812 L 46.5625 40.539062 L 47.121094 40.515625 L 46.765625 40.089844 L 46.914062 39.550781 L 46.398438 39.757812 Z M 45.933594 39.449219 "/>
</g>
</g>
</g>
<g clip-path="url(#clip-78)">
<g clip-path="url(#clip-79)">
<g clip-path="url(#clip-80)">
<path fill-rule="nonzero" fill="rgb(100%, 100%, 100%)" fill-opacity="1" d="M 50.773438 36.65625 L 50.8125 37.210938 L 50.375 37.554688 L 50.914062 37.691406 L 51.105469 38.214844 L 51.402344 37.742188 L 51.960938 37.722656 L 51.605469 37.292969 L 51.753906 36.757812 L 51.238281 36.964844 Z M 50.773438 36.65625 "/>
</g>
</g>
</g>
<g clip-path="url(#clip-81)">
<g clip-path="url(#clip-82)">
<g clip-path="url(#clip-83)">
<path fill-rule="nonzero" fill="rgb(100%, 100%, 100%)" fill-opacity="1" d="M 55.613281 33.859375 L 55.652344 34.417969 L 55.214844 34.761719 L 55.753906 34.898438 L 55.945312 35.421875 L 56.242188 34.949219 L 56.800781 34.925781 L 56.445312 34.5 L 56.59375 33.964844 L 56.078125 34.167969 Z M 55.613281 33.859375 "/>
</g>
</g>
</g>
<g clip-path="url(#clip-84)">
<g clip-path="url(#clip-85)">
<g clip-path="url(#clip-86)">
<path fill-rule="nonzero" fill="rgb(100%, 100%, 100%)" fill-opacity="1" d="M -0.417969 59.757812 L -0.382812 60.3125 L -0.820312 60.660156 L -0.28125 60.796875 L -0.0859375 61.316406 L 0.210938 60.847656 L 0.765625 60.824219 L 0.410156 60.398438 L 0.5625 59.863281 L 0.0429688 60.066406 Z M -0.417969 59.757812 "/>
</g>
</g>
</g>
<g clip-path="url(#clip-87)">
<g clip-path="url(#clip-88)">
<g clip-path="url(#clip-89)">
<path fill-rule="nonzero" fill="rgb(100%, 100%, 100%)" fill-opacity="1" d="M 4.421875 56.964844 L 4.457031 57.519531 L 4.019531 57.863281 L 4.558594 58 L 4.753906 58.523438 L 5.050781 58.054688 L 5.605469 58.03125 L 5.25 57.601562 L 5.402344 57.066406 L 4.882812 57.273438 Z M 4.421875 56.964844 "/>
</g>
</g>
</g>
<g clip-path="url(#clip-90)">
<g clip-path="url(#clip-91)">
<g clip-path="url(#clip-92)">
<path fill-rule="nonzero" fill="rgb(100%, 100%, 100%)" fill-opacity="1" d="M 9.261719 54.167969 L 9.296875 54.726562 L 8.859375 55.070312 L 9.398438 55.207031 L 9.59375 55.730469 L 9.890625 55.257812 L 10.445312 55.238281 L 10.089844 54.808594 L 10.242188 54.273438 L 9.722656 54.480469 Z M 9.261719 54.167969 "/>
</g>
</g>
</g>
<g clip-path="url(#clip-93)">
<g clip-path="url(#clip-94)">
<g clip-path="url(#clip-95)">
<path fill-rule="nonzero" fill="rgb(100%, 100%, 100%)" fill-opacity="1" d="M 14.101562 51.375 L 14.136719 51.929688 L 13.699219 52.277344 L 14.238281 52.414062 L 14.433594 52.933594 L 14.730469 52.464844 L 15.285156 52.441406 L 14.929688 52.015625 L 15.082031 51.476562 L 14.5625 51.683594 Z M 14.101562 51.375 "/>
</g>
</g>
</g>
<g clip-path="url(#clip-96)">
<g clip-path="url(#clip-97)">
<g clip-path="url(#clip-98)">
<path fill-rule="nonzero" fill="rgb(100%, 100%, 100%)" fill-opacity="1" d="M 18.941406 48.582031 L 18.976562 49.136719 L 18.539062 49.480469 L 19.078125 49.617188 L 19.273438 50.140625 L 19.570312 49.671875 L 20.125 49.648438 L 19.769531 49.21875 L 19.921875 48.683594 L 19.402344 48.890625 Z M 18.941406 48.582031 "/>
</g>
</g>
</g>
<g clip-path="url(#clip-99)">
<g clip-path="url(#clip-100)">
<g clip-path="url(#clip-101)">
<path fill-rule="nonzero" fill="rgb(100%, 100%, 100%)" fill-opacity="1" d="M 23.78125 45.785156 L 23.816406 46.34375 L 23.378906 46.6875 L 23.917969 46.824219 L 24.113281 47.347656 L 24.410156 46.875 L 24.964844 46.855469 L 24.609375 46.425781 L 24.761719 45.890625 L 24.242188 46.097656 Z M 23.78125 45.785156 "/>
</g>
</g>
</g>
<g clip-path="url(#clip-102)">
<g clip-path="url(#clip-103)">
<g clip-path="url(#clip-104)">
<path fill-rule="nonzero" fill="rgb(100%, 100%, 100%)" fill-opacity="1" d="M 28.621094 42.992188 L 28.65625 43.546875 L 28.21875 43.894531 L 28.757812 44.03125 L 28.953125 44.550781 L 29.25 44.082031 L 29.804688 44.058594 L 29.449219 43.632812 L 29.601562 43.09375 L 29.082031 43.300781 Z M 28.621094 42.992188 "/>
</g>
</g>
</g>
<g clip-path="url(#clip-105)">
<g clip-path="url(#clip-106)">
<g clip-path="url(#clip-107)">
<path fill-rule="nonzero" fill="rgb(100%, 100%, 100%)" fill-opacity="1" d="M 33.460938 40.199219 L 33.496094 40.753906 L 33.058594 41.097656 L 33.597656 41.234375 L 33.792969 41.757812 L 34.089844 41.285156 L 34.644531 41.265625 L 34.289062 40.835938 L 34.441406 40.300781 L 33.921875 40.507812 Z M 33.460938 40.199219 "/>
</g>
</g>
</g>
<g clip-path="url(#clip-108)">
<g clip-path="url(#clip-109)">
<g clip-path="url(#clip-110)">
<path fill-rule="nonzero" fill="rgb(100%, 100%, 100%)" fill-opacity="1" d="M 38.300781 37.402344 L 38.335938 37.960938 L 37.898438 38.304688 L 38.4375 38.441406 L 38.632812 38.964844 L 38.929688 38.492188 L 39.484375 38.46875 L 39.128906 38.042969 L 39.28125 37.507812 L 38.761719 37.710938 Z M 38.300781 37.402344 "/>
</g>
</g>
</g>
<g clip-path="url(#clip-111)">
<g clip-path="url(#clip-112)">
<g clip-path="url(#clip-113)">
<path fill-rule="nonzero" fill="rgb(100%, 100%, 100%)" fill-opacity="1" d="M 43.140625 34.609375 L 43.175781 35.164062 L 42.738281 35.507812 L 43.28125 35.648438 L 43.472656 36.167969 L 43.769531 35.699219 L 44.324219 35.675781 L 43.96875 35.25 L 44.121094 34.710938 L 43.605469 34.917969 Z M 43.140625 34.609375 "/>
</g>
</g>
</g>
<g clip-path="url(#clip-114)">
<g clip-path="url(#clip-115)">
<g clip-path="url(#clip-116)">
<path fill-rule="nonzero" fill="rgb(100%, 100%, 100%)" fill-opacity="1" d="M 47.980469 31.816406 L 48.015625 32.371094 L 47.578125 32.714844 L 48.121094 32.851562 L 48.3125 33.375 L 48.609375 32.902344 L 49.164062 32.882812 L 48.808594 32.453125 L 48.960938 31.917969 L 48.445312 32.125 Z M 47.980469 31.816406 "/>
</g>
</g>
</g>
<g clip-path="url(#clip-117)">
<g clip-path="url(#clip-118)">
<g clip-path="url(#clip-119)">
<path fill-rule="nonzero" fill="rgb(100%, 100%, 100%)" fill-opacity="1" d="M 52.820312 29.019531 L 52.855469 29.574219 L 52.417969 29.921875 L 52.960938 30.058594 L 53.152344 30.582031 L 53.449219 30.109375 L 54.003906 30.085938 L 53.648438 29.660156 L 53.800781 29.125 L 53.285156 29.328125 Z M 52.820312 29.019531 "/>
</g>
</g>
</g>
<g clip-path="url(#clip-120)">
<g clip-path="url(#clip-121)">
<g clip-path="url(#clip-122)">
<path fill-rule="nonzero" fill="rgb(100%, 100%, 100%)" fill-opacity="1" d="M 1.625 52.125 L 1.664062 52.679688 L 1.226562 53.023438 L 1.765625 53.160156 L 1.957031 53.683594 L 2.253906 53.214844 L 2.8125 53.191406 L 2.457031 52.761719 L 2.605469 52.226562 L 2.089844 52.433594 Z M 1.625 52.125 "/>
</g>
</g>
</g>
<g clip-path="url(#clip-123)">
<g clip-path="url(#clip-124)">
<g clip-path="url(#clip-125)">
<path fill-rule="nonzero" fill="rgb(100%, 100%, 100%)" fill-opacity="1" d="M 6.464844 49.328125 L 6.503906 49.886719 L 6.066406 50.230469 L 6.605469 50.367188 L 6.796875 50.890625 L 7.09375 50.417969 L 7.652344 50.398438 L 7.296875 49.96875 L 7.445312 49.433594 L 6.929688 49.640625 Z M 6.464844 49.328125 "/>
</g>
</g>
</g>
<g clip-path="url(#clip-126)">
<g clip-path="url(#clip-127)">
<g clip-path="url(#clip-128)">
<path fill-rule="nonzero" fill="rgb(100%, 100%, 100%)" fill-opacity="1" d="M 11.304688 46.535156 L 11.34375 47.089844 L 10.90625 47.4375 L 11.445312 47.574219 L 11.636719 48.09375 L 11.933594 47.625 L 12.492188 47.601562 L 12.136719 47.175781 L 12.285156 46.636719 L 11.769531 46.84375 Z M 11.304688 46.535156 "/>
</g>
</g>
</g>
<g clip-path="url(#clip-129)">
<g clip-path="url(#clip-130)">
<g clip-path="url(#clip-131)">
<path fill-rule="nonzero" fill="rgb(100%, 100%, 100%)" fill-opacity="1" d="M 16.144531 43.742188 L 16.183594 44.296875 L 15.746094 44.640625 L 16.285156 44.777344 L 16.476562 45.300781 L 16.773438 44.828125 L 17.332031 44.808594 L 16.976562 44.378906 L 17.125 43.84375 L 16.609375 44.050781 Z M 16.144531 43.742188 "/>
</g>
</g>
</g>
<g clip-path="url(#clip-132)">
<g clip-path="url(#clip-133)">
<g clip-path="url(#clip-134)">
<path fill-rule="nonzero" fill="rgb(100%, 100%, 100%)" fill-opacity="1" d="M 20.988281 40.945312 L 21.023438 41.503906 L 20.585938 41.847656 L 21.125 41.984375 L 21.316406 42.507812 L 21.613281 42.035156 L 22.171875 42.015625 L 21.816406 41.585938 L 21.964844 41.050781 L 21.449219 41.257812 Z M 20.988281 40.945312 "/>
</g>
</g>
</g>
<g clip-path="url(#clip-135)">
<g clip-path="url(#clip-136)">
<g clip-path="url(#clip-137)">
<path fill-rule="nonzero" fill="rgb(100%, 100%, 100%)" fill-opacity="1" d="M 25.828125 38.152344 L 25.863281 38.707031 L 25.425781 39.050781 L 25.964844 39.191406 L 26.15625 39.710938 L 26.457031 39.242188 L 27.011719 39.21875 L 26.65625 38.792969 L 26.804688 38.253906 L 26.289062 38.460938 Z M 25.828125 38.152344 "/>
</g>
</g>
</g>
<g clip-path="url(#clip-138)">
<g clip-path="url(#clip-139)">
<g clip-path="url(#clip-140)">
<path fill-rule="nonzero" fill="rgb(100%, 100%, 100%)" fill-opacity="1" d="M 30.667969 35.359375 L 30.703125 35.914062 L 30.265625 36.257812 L 30.804688 36.394531 L 30.996094 36.917969 L 31.296875 36.445312 L 31.851562 36.425781 L 31.496094 35.996094 L 31.644531 35.460938 L 31.128906 35.667969 Z M 30.667969 35.359375 "/>
</g>
</g>
</g>
<g clip-path="url(#clip-141)">
<g clip-path="url(#clip-142)">
<g clip-path="url(#clip-143)">
<path fill-rule="nonzero" fill="rgb(100%, 100%, 100%)" fill-opacity="1" d="M 35.507812 32.5625 L 35.542969 33.121094 L 35.105469 33.464844 L 35.644531 33.601562 L 35.835938 34.125 L 36.136719 33.652344 L 36.691406 33.628906 L 36.335938 33.203125 L 36.488281 32.667969 L 35.96875 32.871094 Z M 35.507812 32.5625 "/>
</g>
</g>
</g>
<g clip-path="url(#clip-144)">
<g clip-path="url(#clip-145)">
<g clip-path="url(#clip-146)">
<path fill-rule="nonzero" fill="rgb(100%, 100%, 100%)" fill-opacity="1" d="M 40.347656 29.769531 L 40.382812 30.324219 L 39.945312 30.667969 L 40.484375 30.808594 L 40.679688 31.328125 L 40.976562 30.859375 L 41.53125 30.835938 L 41.175781 30.40625 L 41.328125 29.871094 L 40.808594 30.078125 Z M 40.347656 29.769531 "/>
</g>
</g>
</g>
<g clip-path="url(#clip-147)">
<g clip-path="url(#clip-148)">
<g clip-path="url(#clip-149)">
<path fill-rule="nonzero" fill="rgb(100%, 100%, 100%)" fill-opacity="1" d="M 45.1875 26.976562 L 45.222656 27.53125 L 44.785156 27.875 L 45.324219 28.011719 L 45.519531 28.535156 L 45.816406 28.0625 L 46.371094 28.042969 L 46.015625 27.613281 L 46.167969 27.078125 L 45.648438 27.285156 Z M 45.1875 26.976562 "/>
</g>
</g>
</g>
<g clip-path="url(#clip-150)">
<g clip-path="url(#clip-151)">
<g clip-path="url(#clip-152)">
<path fill-rule="nonzero" fill="rgb(100%, 100%, 100%)" fill-opacity="1" d="M 50.027344 24.179688 L 50.0625 24.734375 L 49.625 25.082031 L 50.164062 25.21875 L 50.359375 25.742188 L 50.65625 25.269531 L 51.210938 25.246094 L 50.855469 24.820312 L 51.007812 24.285156 L 50.488281 24.488281 Z M 50.027344 24.179688 "/>
</g>
</g>
</g>
<g clip-path="url(#clip-153)">
<g clip-path="url(#clip-154)">
<g clip-path="url(#clip-155)">
<path fill-rule="nonzero" fill="rgb(100%, 100%, 100%)" fill-opacity="1" d="M -1.167969 47.285156 L -1.132812 47.839844 L -1.570312 48.183594 L -1.027344 48.320312 L -0.835938 48.84375 L -0.539062 48.375 L 0.015625 48.351562 L -0.339844 47.921875 L -0.1875 47.386719 L -0.703125 47.59375 Z M -1.167969 47.285156 "/>
</g>
</g>
</g>
<g clip-path="url(#clip-156)">
<g clip-path="url(#clip-157)">
<g clip-path="url(#clip-158)">
<path fill-rule="nonzero" fill="rgb(100%, 100%, 100%)" fill-opacity="1" d="M 3.671875 44.488281 L 3.707031 45.046875 L 3.269531 45.390625 L 3.8125 45.527344 L 4.003906 46.050781 L 4.300781 45.578125 L 4.855469 45.558594 L 4.5 45.128906 L 4.652344 44.59375 L 4.136719 44.800781 Z M 3.671875 44.488281 "/>
</g>
</g>
</g>
<g clip-path="url(#clip-159)">
<g clip-path="url(#clip-160)">
<g clip-path="url(#clip-161)">
<path fill-rule="nonzero" fill="rgb(100%, 100%, 100%)" fill-opacity="1" d="M 8.511719 41.695312 L 8.546875 42.25 L 8.109375 42.597656 L 8.652344 42.734375 L 8.84375 43.253906 L 9.140625 42.785156 L 9.695312 42.761719 L 9.339844 42.335938 L 9.492188 41.796875 L 8.976562 42.003906 Z M 8.511719 41.695312 "/>
</g>
</g>
</g>
<g clip-path="url(#clip-162)">
<g clip-path="url(#clip-163)">
<g clip-path="url(#clip-164)">
<path fill-rule="nonzero" fill="rgb(100%, 100%, 100%)" fill-opacity="1" d="M 13.351562 38.902344 L 13.386719 39.457031 L 12.953125 39.800781 L 13.492188 39.9375 L 13.683594 40.460938 L 13.980469 39.988281 L 14.535156 39.96875 L 14.179688 39.539062 L 14.332031 39.003906 L 13.816406 39.210938 Z M 13.351562 38.902344 "/>
</g>
</g>
</g>
<g clip-path="url(#clip-165)">
<g clip-path="url(#clip-166)">
<g clip-path="url(#clip-167)">
<path fill-rule="nonzero" fill="rgb(100%, 100%, 100%)" fill-opacity="1" d="M 18.191406 36.105469 L 18.226562 36.664062 L 17.792969 37.007812 L 18.332031 37.144531 L 18.523438 37.667969 L 18.820312 37.195312 L 19.378906 37.171875 L 19.019531 36.746094 L 19.171875 36.210938 L 18.65625 36.414062 Z M 18.191406 36.105469 "/>
</g>
</g>
</g>
<g clip-path="url(#clip-168)">
<g clip-path="url(#clip-169)">
<g clip-path="url(#clip-170)">
<path fill-rule="nonzero" fill="rgb(100%, 100%, 100%)" fill-opacity="1" d="M 23.03125 33.3125 L 23.066406 33.867188 L 22.632812 34.210938 L 23.171875 34.351562 L 23.363281 34.871094 L 23.660156 34.402344 L 24.21875 34.378906 L 23.859375 33.953125 L 24.011719 33.414062 L 23.496094 33.621094 Z M 23.03125 33.3125 "/>
</g>
</g>
</g>
<g clip-path="url(#clip-171)">
<g clip-path="url(#clip-172)">
<g clip-path="url(#clip-173)">
<path fill-rule="nonzero" fill="rgb(100%, 100%, 100%)" fill-opacity="1" d="M 27.871094 30.519531 L 27.910156 31.074219 L 27.472656 31.417969 L 28.011719 31.554688 L 28.203125 32.078125 L 28.5 31.605469 L 29.058594 31.585938 L 28.699219 31.15625 L 28.851562 30.621094 L 28.335938 30.828125 Z M 27.871094 30.519531 "/>
</g>
</g>
</g>
<g clip-path="url(#clip-174)">
<g clip-path="url(#clip-175)">
<g clip-path="url(#clip-176)">
<path fill-rule="nonzero" fill="rgb(100%, 100%, 100%)" fill-opacity="1" d="M 32.710938 27.722656 L 32.75 28.277344 L 32.3125 28.625 L 32.851562 28.761719 L 33.042969 29.285156 L 33.339844 28.8125 L 33.898438 28.789062 L 33.542969 28.363281 L 33.691406 27.828125 L 33.175781 28.03125 Z M 32.710938 27.722656 "/>
</g>
</g>
</g>
<g clip-path="url(#clip-177)">
<g clip-path="url(#clip-178)">
<g clip-path="url(#clip-179)">
<path fill-rule="nonzero" fill="rgb(100%, 100%, 100%)" fill-opacity="1" d="M 37.550781 24.929688 L 37.589844 25.484375 L 37.152344 25.828125 L 37.691406 25.96875 L 37.882812 26.488281 L 38.179688 26.019531 L 38.738281 25.996094 L 38.382812 25.566406 L 38.53125 25.03125 L 38.015625 25.238281 Z M 37.550781 24.929688 "/>
</g>
</g>
</g>
<g clip-path="url(#clip-180)">
<g clip-path="url(#clip-181)">
<g clip-path="url(#clip-182)">
<path fill-rule="nonzero" fill="rgb(100%, 100%, 100%)" fill-opacity="1" d="M 42.390625 22.136719 L 42.429688 22.691406 L 41.992188 23.035156 L 42.53125 23.171875 L 42.722656 23.695312 L 43.019531 23.222656 L 43.578125 23.203125 L 43.222656 22.773438 L 43.371094 22.238281 L 42.855469 22.445312 Z M 42.390625 22.136719 "/>
</g>
</g>
</g>
<g clip-path="url(#clip-183)">
<g clip-path="url(#clip-184)">
<g clip-path="url(#clip-185)">
<path fill-rule="nonzero" fill="rgb(100%, 100%, 100%)" fill-opacity="1" d="M 0.878906 39.648438 L 0.914062 40.207031 L 0.476562 40.550781 L 1.015625 40.6875 L 1.210938 41.210938 L 1.507812 40.738281 L 2.0625 40.714844 L 1.707031 40.289062 L 1.859375 39.753906 L 1.339844 39.957031 Z M 0.878906 39.648438 "/>
</g>
</g>
</g>
<g clip-path="url(#clip-186)">
<g clip-path="url(#clip-187)">
<g clip-path="url(#clip-188)">
<path fill-rule="nonzero" fill="rgb(100%, 100%, 100%)" fill-opacity="1" d="M 5.71875 36.855469 L 5.753906 37.410156 L 5.316406 37.753906 L 5.855469 37.894531 L 6.050781 38.414062 L 6.347656 37.945312 L 6.902344 37.921875 L 6.546875 37.496094 L 6.699219 36.957031 L 6.179688 37.164062 Z M 5.71875 36.855469 "/>
</g>
</g>
</g>
<g clip-path="url(#clip-189)">
<g clip-path="url(#clip-190)">
<g clip-path="url(#clip-191)">
<path fill-rule="nonzero" fill="rgb(100%, 100%, 100%)" fill-opacity="1" d="M 10.558594 34.0625 L 10.59375 34.617188 L 10.15625 34.960938 L 10.695312 35.097656 L 10.890625 35.621094 L 11.1875 35.148438 L 11.742188 35.128906 L 11.386719 34.699219 L 11.539062 34.164062 L 11.019531 34.371094 Z M 10.558594 34.0625 "/>
</g>
</g>
</g>
<g clip-path="url(#clip-192)">
<g clip-path="url(#clip-193)">
<g clip-path="url(#clip-194)">
<path fill-rule="nonzero" fill="rgb(100%, 100%, 100%)" fill-opacity="1" d="M 15.398438 31.265625 L 15.433594 31.824219 L 14.996094 32.167969 L 15.535156 32.304688 L 15.730469 32.828125 L 16.027344 32.355469 L 16.582031 32.332031 L 16.226562 31.90625 L 16.378906 31.371094 L 15.859375 31.574219 Z M 15.398438 31.265625 "/>
</g>
</g>
</g>
<g clip-path="url(#clip-195)">
<g clip-path="url(#clip-196)">
<g clip-path="url(#clip-197)">
<path fill-rule="nonzero" fill="rgb(100%, 100%, 100%)" fill-opacity="1" d="M 20.238281 28.472656 L 20.273438 29.027344 L 19.835938 29.371094 L 20.375 29.511719 L 20.570312 30.03125 L 20.867188 29.5625 L 21.421875 29.539062 L 21.066406 29.109375 L 21.21875 28.574219 L 20.699219 28.78125 Z M 20.238281 28.472656 "/>
</g>
</g>
</g>
<g clip-path="url(#clip-198)">
<g clip-path="url(#clip-199)">
<g clip-path="url(#clip-200)">
<path fill-rule="nonzero" fill="rgb(100%, 100%, 100%)" fill-opacity="1" d="M 25.078125 25.679688 L 25.113281 26.234375 L 24.675781 26.578125 L 25.214844 26.714844 L 25.410156 27.238281 L 25.707031 26.765625 L 26.261719 26.746094 L 25.90625 26.316406 L 26.058594 25.78125 L 25.539062 25.988281 Z M 25.078125 25.679688 "/>
</g>
</g>
</g>
<g clip-path="url(#clip-201)">
<g clip-path="url(#clip-202)">
<g clip-path="url(#clip-203)">
<path fill-rule="nonzero" fill="rgb(100%, 100%, 100%)" fill-opacity="1" d="M 29.917969 22.882812 L 29.953125 23.4375 L 29.515625 23.785156 L 30.054688 23.921875 L 30.25 24.445312 L 30.546875 23.972656 L 31.101562 23.949219 L 30.746094 23.523438 L 30.898438 22.988281 L 30.378906 23.191406 Z M 29.917969 22.882812 "/>
</g>
</g>
</g>
<g clip-path="url(#clip-204)">
<g clip-path="url(#clip-205)">
<g clip-path="url(#clip-206)">
<path fill-rule="nonzero" fill="rgb(100%, 100%, 100%)" fill-opacity="1" d="M 2.921875 32.015625 L 2.960938 32.570312 L 2.523438 32.914062 L 3.0625 33.054688 L 3.253906 33.574219 L 3.550781 33.105469 L 4.109375 33.082031 L 3.753906 32.65625 L 3.902344 32.117188 L 3.386719 32.324219 Z M 2.921875 32.015625 "/>
</g>
</g>
</g>
<g clip-path="url(#clip-207)">
<g clip-path="url(#clip-208)">
<g clip-path="url(#clip-209)">
<path fill-rule="nonzero" fill="rgb(100%, 100%, 100%)" fill-opacity="1" d="M 7.761719 29.222656 L 7.800781 29.777344 L 7.363281 30.121094 L 7.902344 30.257812 L 8.09375 30.78125 L 8.390625 30.308594 L 8.949219 30.289062 L 8.59375 29.859375 L 8.742188 29.324219 L 8.226562 29.53125 Z M 7.761719 29.222656 "/>
</g>
</g>
</g>
<g clip-path="url(#clip-210)">
<g clip-path="url(#clip-211)">
<g clip-path="url(#clip-212)">
<path fill-rule="nonzero" fill="rgb(100%, 100%, 100%)" fill-opacity="1" d="M 12.601562 26.425781 L 12.640625 26.980469 L 12.203125 27.328125 L 12.742188 27.464844 L 12.933594 27.988281 L 13.230469 27.515625 L 13.789062 27.492188 L 13.433594 27.066406 L 13.582031 26.53125 L 13.066406 26.734375 Z M 12.601562 26.425781 "/>
</g>
</g>
</g>
<g clip-path="url(#clip-213)">
<g clip-path="url(#clip-214)">
<g clip-path="url(#clip-215)">
<path fill-rule="nonzero" fill="rgb(100%, 100%, 100%)" fill-opacity="1" d="M 17.441406 23.632812 L 17.480469 24.1875 L 17.042969 24.53125 L 17.582031 24.667969 L 17.773438 25.191406 L 18.070312 24.722656 L 18.628906 24.699219 L 18.273438 24.269531 L 18.421875 23.734375 L 17.90625 23.941406 Z M 17.441406 23.632812 "/>
</g>
</g>
</g>
<g clip-path="url(#clip-216)">
<g clip-path="url(#clip-217)">
<g clip-path="url(#clip-218)">
<path fill-rule="nonzero" fill="rgb(100%, 100%, 100%)" fill-opacity="1" d="M 0.128906 27.175781 L 0.164062 27.730469 L -0.273438 28.074219 L 0.269531 28.214844 L 0.460938 28.734375 L 0.757812 28.265625 L 1.3125 28.242188 L 0.957031 27.8125 L 1.109375 27.277344 L 0.59375 27.484375 Z M 0.128906 27.175781 "/>
</g>
</g>
</g>
<g clip-path="url(#clip-219)">
<g clip-path="url(#clip-220)">
<g clip-path="url(#clip-221)">
<path fill-rule="nonzero" fill="rgb(100%, 100%, 100%)" fill-opacity="1" d="M 4.96875 24.382812 L 5.003906 24.9375 L 4.566406 25.28125 L 5.109375 25.417969 L 5.300781 25.941406 L 5.597656 25.46875 L 6.152344 25.449219 L 5.796875 25.019531 L 5.949219 24.484375 L 5.433594 24.691406 Z M 4.96875 24.382812 "/>
</g>
</g>
</g>
<g clip-path="url(#clip-222)">
<g clip-path="url(#clip-223)">
<g clip-path="url(#clip-224)">
<path fill-rule="nonzero" fill="rgb(100%, 100%, 100%)" fill-opacity="1" d="M 9.808594 21.585938 L 9.84375 22.140625 L 9.40625 22.488281 L 9.949219 22.625 L 10.140625 23.148438 L 10.4375 22.675781 L 10.992188 22.652344 L 10.636719 22.226562 L 10.789062 21.691406 L 10.273438 21.894531 Z M 9.808594 21.585938 "/>
</g>
</g>
</g>
</svg>
