<?xml version="1.0" encoding="UTF-8"?>
<svg xmlns="http://www.w3.org/2000/svg" xmlns:xlink="http://www.w3.org/1999/xlink" width="57.175" height="69.449" viewBox="0 0 57.175 69.449">
<defs>
<clipPath id="clip-0">
<path clip-rule="nonzero" d="M 0 0.222656 L 56.363281 0.222656 L 56.363281 68.683594 L 0 68.683594 Z M 0 0.222656 "/>
</clipPath>
<clipPath id="clip-1">
<path clip-rule="nonzero" d="M 0 31 L 56.363281 31 L 56.363281 68.683594 L 0 68.683594 Z M 0 31 "/>
</clipPath>
<clipPath id="clip-2">
<path clip-rule="nonzero" d="M 13 0.222656 L 31 0.222656 L 31 19 L 13 19 Z M 13 0.222656 "/>
</clipPath>
<clipPath id="clip-3">
<path clip-rule="nonzero" d="M 30.757812 7.613281 C 31.296875 1.464844 27.992188 -3.847656 23.378906 -4.253906 C 18.769531 -4.65625 14.59375 0 14.054688 6.152344 C 13.515625 12.300781 16.820312 17.613281 21.433594 18.015625 C 26.042969 18.421875 30.21875 13.761719 30.757812 7.613281 Z M 30.757812 7.613281 "/>
</clipPath>
<clipPath id="clip-4">
<path clip-rule="nonzero" d="M 15 0.222656 L 30 0.222656 L 30 17 L 15 17 Z M 15 0.222656 "/>
</clipPath>
<clipPath id="clip-5">
<path clip-rule="nonzero" d="M 29.363281 7.492188 C 29.835938 2.109375 27.101562 -2.523438 23.257812 -2.859375 C 19.414062 -3.199219 15.917969 0.890625 15.445312 6.273438 C 14.976562 11.652344 17.710938 16.289062 21.554688 16.625 C 25.398438 16.960938 28.894531 12.871094 29.363281 7.492188 Z M 29.363281 7.492188 "/>
</clipPath>
</defs>
<g clip-path="url(#clip-0)">
<path fill-rule="nonzero" fill="rgb(89.99939%, 89.99939%, 89.99939%)" fill-opacity="1" d="M 0 68.683594 L 56.363281 68.683594 L 56.363281 0.222656 L 0 0.222656 Z M 0 68.683594 "/>
</g>
<g clip-path="url(#clip-1)">
<path fill-rule="nonzero" fill="rgb(94.999695%, 89.99939%, 84.999084%)" fill-opacity="1" d="M 12.015625 39.484375 C 5.140625 40.683594 -5.8125 53.121094 5.757812 64.183594 C 17.351562 75.25 77.683594 67.84375 48.480469 31.824219 C 23.890625 45.042969 32.332031 32.945312 12.015625 39.484375 Z M 12.015625 39.484375 "/>
</g>
<path fill-rule="nonzero" fill="rgb(94.999695%, 89.99939%, 84.999084%)" fill-opacity="1" d="M 36.800781 29.5625 C 36.800781 19.917969 30.546875 12.097656 22.828125 12.097656 C 15.113281 12.097656 8.859375 19.917969 8.859375 29.5625 C 8.859375 39.207031 15.113281 47.027344 22.828125 47.027344 C 30.546875 47.027344 36.800781 39.207031 36.800781 29.5625 Z M 36.800781 29.5625 "/>
<path fill-rule="nonzero" fill="rgb(89.99939%, 79.998779%, 69.999695%)" fill-opacity="1" d="M 9.027344 30.34375 C 15.648438 28.722656 12.796875 35.066406 23.109375 33.195312 C 0 47.726562 5.195312 33.222656 9.027344 30.34375 Z M 9.027344 30.34375 "/>
<path fill-rule="nonzero" fill="rgb(100%, 99.234009%, 85.00061%)" fill-opacity="1" d="M 22.957031 28.117188 C 23.617188 26.304688 23.101562 24.453125 21.808594 23.980469 C 20.511719 23.511719 18.925781 24.597656 18.269531 26.410156 C 17.609375 28.222656 18.121094 30.074219 19.417969 30.546875 C 20.710938 31.019531 22.296875 29.929688 22.957031 28.117188 Z M 22.957031 28.117188 "/>
<path fill-rule="nonzero" fill="rgb(0%, 0%, 0%)" fill-opacity="1" d="M 22.242188 28.15625 C 22.621094 27.121094 22.503906 26.128906 21.988281 25.9375 C 21.46875 25.75 20.742188 26.4375 20.367188 27.472656 C 19.992188 28.507812 20.105469 29.5 20.621094 29.6875 C 21.140625 29.875 21.867188 29.191406 22.242188 28.15625 Z M 22.242188 28.15625 "/>
<path fill-rule="nonzero" fill="rgb(100%, 99.234009%, 85.00061%)" fill-opacity="1" d="M 14.800781 25.964844 C 15.402344 24.308594 14.96875 22.628906 13.828125 22.214844 C 12.6875 21.796875 11.273438 22.804688 10.671875 24.464844 C 10.066406 26.121094 10.503906 27.800781 11.640625 28.214844 C 12.78125 28.632812 14.195312 27.625 14.800781 25.964844 Z M 14.800781 25.964844 "/>
<path fill-rule="nonzero" fill="rgb(0%, 0%, 0%)" fill-opacity="1" d="M 14.179688 26.039062 C 14.515625 25.105469 14.457031 24.226562 14.042969 24.074219 C 13.625 23.925781 13.015625 24.558594 12.675781 25.492188 C 12.335938 26.421875 12.398438 27.300781 12.8125 27.453125 C 13.226562 27.605469 13.839844 26.96875 14.179688 26.039062 Z M 14.179688 26.039062 "/>
<path fill-rule="nonzero" fill="rgb(89.99939%, 79.998779%, 69.999695%)" fill-opacity="1" d="M 38.222656 50.339844 C 40.003906 49.4375 41.980469 48.519531 43.082031 46.800781 C 41.996094 46.757812 38.828125 45.050781 41.234375 44.355469 C 43.277344 44.414062 45.230469 43.40625 46.0625 41.484375 C 47.785156 38.894531 44.113281 40.25 43.164062 39.160156 C 44.773438 38.667969 47.53125 38.421875 48.324219 37.265625 C 45.246094 36.582031 41.519531 36.09375 39.773438 33.085938 C 38.53125 29.164062 38.746094 24.953125 37.75 20.96875 C 32.675781 1.292969 4.207031 7.785156 9.027344 26.792969 C 9.8125 18.964844 16.203125 12.433594 22.859375 16.769531 C 32.40625 22.90625 34.984375 31.757812 28.152344 41.828125 C 27.292969 43.230469 28.707031 45.863281 30.667969 47.25 C 32.628906 48.636719 35.414062 49.535156 38.222656 50.339844 Z M 38.222656 50.339844 "/>
<g clip-path="url(#clip-2)">
<g clip-path="url(#clip-3)">
<path fill-rule="nonzero" fill="rgb(94.999695%, 89.99939%, 84.999084%)" fill-opacity="1" d="M 40.898438 13.550781 C 41.433594 7.398438 38.132812 2.085938 33.519531 1.683594 C 28.90625 1.28125 24.734375 5.9375 24.195312 12.085938 C 23.65625 18.238281 26.960938 23.550781 31.570312 23.953125 C 36.183594 24.355469 40.359375 19.699219 40.898438 13.550781 Z M 19.332031 9.980469 C 19.867188 3.828125 16.566406 -1.484375 11.953125 -1.886719 C 7.339844 -2.289062 3.164062 2.367188 2.628906 8.519531 C 2.089844 14.667969 5.390625 19.980469 10.003906 20.382812 C 14.617188 20.785156 18.792969 16.128906 19.332031 9.980469 Z M 19.332031 9.980469 "/>
</g>
</g>
<g clip-path="url(#clip-4)">
<g clip-path="url(#clip-5)">
<path fill-rule="nonzero" fill="rgb(97.497559%, 94.999695%, 92.498779%)" fill-opacity="1" d="M 39.503906 13.425781 C 39.976562 8.046875 37.242188 3.410156 33.398438 3.074219 C 29.554688 2.738281 26.058594 6.828125 25.585938 12.210938 C 25.117188 17.589844 27.851562 22.226562 31.691406 22.5625 C 35.535156 22.898438 39.035156 18.808594 39.503906 13.425781 Z M 17.9375 9.859375 C 18.410156 4.476562 15.675781 -0.160156 11.832031 -0.496094 C 7.988281 -0.832031 4.492188 3.257812 4.019531 8.640625 C 3.550781 14.019531 6.28125 18.65625 10.125 18.992188 C 13.96875 19.328125 17.46875 15.238281 17.9375 9.859375 Z M 17.9375 9.859375 "/>
</g>
</g>
<path fill-rule="nonzero" fill="rgb(89.99939%, 79.998779%, 69.999695%)" fill-opacity="1" d="M 54.125 32.078125 C 54.125 28.992188 51.625 26.488281 48.539062 26.488281 C 45.453125 26.488281 42.949219 28.992188 42.949219 32.078125 C 42.949219 35.164062 45.453125 37.667969 48.539062 37.667969 C 51.625 37.667969 54.125 35.164062 54.125 32.078125 Z M 54.125 32.078125 "/>
</svg>
