<?xml version="1.0" encoding="UTF-8"?>
<svg xmlns="http://www.w3.org/2000/svg" xmlns:xlink="http://www.w3.org/1999/xlink" width="57.175" height="57.401" viewBox="0 0 57.175 57.401">
<defs>
<clipPath id="clip-0">
<path clip-rule="nonzero" d="M 0 0.113281 L 56.363281 0.113281 L 56.363281 56.699219 L 0 56.699219 Z M 0 0.113281 "/>
</clipPath>
<clipPath id="clip-1">
<path clip-rule="nonzero" d="M 0 19 L 56.363281 19 L 56.363281 56.699219 L 0 56.699219 Z M 0 19 "/>
</clipPath>
<clipPath id="clip-2">
<path clip-rule="nonzero" d="M 8 0.113281 L 37 0.113281 L 37 36 L 8 36 Z M 8 0.113281 "/>
</clipPath>
<clipPath id="clip-3">
<path clip-rule="nonzero" d="M 0 19 L 56.363281 19 L 56.363281 56.699219 L 0 56.699219 Z M 0 19 "/>
</clipPath>
<clipPath id="clip-4">
<path clip-rule="nonzero" d="M 0 14 L 56.363281 14 L 56.363281 56.699219 L 0 56.699219 Z M 0 14 "/>
</clipPath>
</defs>
<g clip-path="url(#clip-0)">
<path fill-rule="nonzero" fill="rgb(89.99939%, 89.99939%, 89.99939%)" fill-opacity="1" d="M 0 56.699219 L 56.363281 56.699219 L 56.363281 0.113281 L 0 0.113281 Z M 0 56.699219 "/>
</g>
<path fill-rule="nonzero" fill="rgb(29.998779%, 59.999084%, 9.999084%)" fill-opacity="1" d="M 12.296875 7.355469 C 12.390625 7.011719 11.800781 6.558594 10.980469 6.335938 C 10.160156 6.117188 9.421875 6.21875 9.328125 6.558594 C 9.238281 6.902344 9.828125 7.359375 10.648438 7.578125 C 11.46875 7.796875 12.207031 7.699219 12.296875 7.355469 Z M 12.296875 7.355469 "/>
<path fill-rule="nonzero" fill="rgb(29.998779%, 59.999084%, 9.999084%)" fill-opacity="1" d="M 12.296875 7.957031 C 12.207031 7.613281 11.46875 7.515625 10.648438 7.734375 C 9.828125 7.953125 9.238281 8.410156 9.328125 8.753906 C 9.421875 9.097656 10.160156 9.195312 10.980469 8.976562 C 11.800781 8.757812 12.390625 8.300781 12.296875 7.957031 Z M 12.296875 7.957031 "/>
<g clip-path="url(#clip-1)">
<path fill-rule="nonzero" fill="rgb(92.871094%, 83.229065%, 14.369202%)" fill-opacity="1" d="M 12.015625 27.496094 C 5.140625 28.699219 -5.8125 41.132812 5.757812 52.199219 C 17.351562 63.265625 77.683594 55.859375 48.480469 19.839844 C 23.890625 33.058594 32.332031 20.957031 12.015625 27.496094 Z M 12.015625 27.496094 "/>
</g>
<g clip-path="url(#clip-2)">
<path fill-rule="nonzero" fill="rgb(92.871094%, 83.229065%, 14.369202%)" fill-opacity="1" d="M 36.800781 17.578125 C 36.800781 7.929688 30.546875 0.113281 22.828125 0.113281 C 15.113281 0.113281 8.859375 7.929688 8.859375 17.578125 C 8.859375 27.222656 15.113281 35.042969 22.828125 35.042969 C 30.546875 35.042969 36.800781 27.222656 36.800781 17.578125 Z M 36.800781 17.578125 "/>
</g>
<path fill-rule="nonzero" fill="rgb(87.5%, 50%, 12.5%)" fill-opacity="1" d="M 9.027344 18.359375 C 15.648438 16.738281 12.796875 23.082031 23.109375 21.210938 C 0 35.738281 5.195312 21.238281 9.027344 18.359375 Z M 9.027344 18.359375 "/>
<path fill-rule="nonzero" fill="rgb(100%, 99.234009%, 85.00061%)" fill-opacity="1" d="M 22.957031 16.132812 C 23.617188 14.320312 23.101562 12.46875 21.808594 11.996094 C 20.511719 11.523438 18.925781 12.613281 18.269531 14.425781 C 17.609375 16.238281 18.121094 18.089844 19.417969 18.5625 C 20.710938 19.03125 22.296875 17.945312 22.957031 16.132812 Z M 22.957031 16.132812 "/>
<path fill-rule="nonzero" fill="rgb(0%, 0%, 0%)" fill-opacity="1" d="M 22.242188 16.167969 C 22.621094 15.132812 22.503906 14.140625 21.988281 13.953125 C 21.46875 13.765625 20.742188 14.449219 20.367188 15.484375 C 19.992188 16.523438 20.105469 17.515625 20.621094 17.703125 C 21.140625 17.890625 21.867188 17.203125 22.242188 16.167969 Z M 22.242188 16.167969 "/>
<path fill-rule="nonzero" fill="rgb(100%, 99.234009%, 85.00061%)" fill-opacity="1" d="M 14.800781 13.980469 C 15.402344 12.324219 14.96875 10.640625 13.828125 10.226562 C 12.6875 9.8125 11.273438 10.820312 10.671875 12.476562 C 10.066406 14.136719 10.503906 15.816406 11.640625 16.230469 C 12.78125 16.644531 14.195312 15.636719 14.800781 13.980469 Z M 14.800781 13.980469 "/>
<path fill-rule="nonzero" fill="rgb(0%, 0%, 0%)" fill-opacity="1" d="M 14.179688 14.050781 C 14.515625 13.121094 14.457031 12.242188 14.042969 12.089844 C 13.625 11.9375 13.015625 12.574219 12.675781 13.503906 C 12.335938 14.4375 12.398438 15.316406 12.8125 15.464844 C 13.226562 15.617188 13.839844 14.984375 14.179688 14.050781 Z M 14.179688 14.050781 "/>
<g clip-path="url(#clip-3)">
<path fill-rule="nonzero" fill="rgb(64.99939%, 34.999084%, 34.999084%)" fill-opacity="1" d="M 11.371094 27.496094 C 5.140625 28.699219 -5.8125 41.132812 5.757812 52.199219 C 17.351562 63.265625 77.683594 55.859375 48.480469 19.839844 C 22.269531 33.058594 32.332031 20.984375 12.015625 39.933594 Z M 11.371094 27.496094 "/>
<path fill-rule="nonzero" fill="rgb(94.999695%, 94.999695%, 94.999695%)" fill-opacity="1" d="M 10.535156 27.636719 C 5.140625 28.699219 -5.8125 41.132812 5.757812 52.199219 C 17.351562 63.265625 77.683594 55.859375 48.480469 19.839844 C 25.066406 31.546875 32.332031 20.984375 10.535156 44.125 Z M 10.535156 27.636719 "/>
</g>
<g clip-path="url(#clip-4)">
<path fill="none" stroke-width="0.3985" stroke-linecap="butt" stroke-linejoin="miter" stroke="rgb(94.999695%, 94.999695%, 94.999695%)" stroke-opacity="1" stroke-miterlimit="10" d="M 13.040172 32.315131 C 7.567801 31.2373 -3.543371 18.624297 8.193894 7.398209 C 19.954935 -3.827878 81.15752 3.685239 51.533012 40.22451 C 27.781099 28.348554 35.151563 39.063464 13.040172 15.588934 Z M 13.040172 32.315131 " transform="matrix(0.985776, 0, 0, -0.985776, -2.319531, 59.492195)"/>
</g>
<path fill="none" stroke-width="0.3985" stroke-linecap="butt" stroke-linejoin="miter" stroke="rgb(0%, 0%, 0%)" stroke-opacity="1" stroke-miterlimit="10" d="M 36.566216 51.593252 L 33.732946 50.174636 L 31.181023 49.322674 L 28.347753 49.322674 " transform="matrix(0.985776, 0, 0, -0.985776, -2.319531, 59.492195)"/>
<path fill-rule="nonzero" fill="rgb(29.998779%, 59.999084%, 9.999084%)" fill-opacity="1" d="M 27.109375 11.03125 C 27.015625 10.6875 26.277344 10.589844 25.457031 10.808594 C 24.636719 11.027344 24.046875 11.484375 24.140625 11.828125 C 24.230469 12.167969 24.96875 12.269531 25.789062 12.050781 C 26.609375 11.832031 27.199219 11.375 27.109375 11.03125 Z M 27.109375 11.03125 "/>
<path fill-rule="nonzero" fill="rgb(29.998779%, 59.999084%, 9.999084%)" fill-opacity="1" d="M 29.878906 11.066406 C 29.769531 10.730469 29.027344 10.667969 28.21875 10.929688 C 27.414062 11.191406 26.847656 11.679688 26.957031 12.015625 C 27.066406 12.351562 27.808594 12.414062 28.617188 12.152344 C 29.425781 11.890625 29.988281 11.402344 29.878906 11.066406 Z M 29.878906 11.066406 "/>
<path fill-rule="nonzero" fill="rgb(29.998779%, 59.999084%, 9.999084%)" fill-opacity="1" d="M 32.300781 9.503906 C 32.046875 9.253906 31.359375 9.535156 30.757812 10.136719 C 30.160156 10.738281 29.875 11.425781 30.125 11.675781 C 30.378906 11.929688 31.066406 11.644531 31.667969 11.046875 C 32.265625 10.445312 32.550781 9.753906 32.300781 9.503906 Z M 32.300781 9.503906 "/>
<path fill-rule="nonzero" fill="rgb(29.998779%, 59.999084%, 9.999084%)" fill-opacity="1" d="M 34.53125 7.75 C 34.199219 7.628906 33.695312 8.175781 33.402344 8.972656 C 33.113281 9.769531 33.148438 10.515625 33.480469 10.636719 C 33.816406 10.757812 34.320312 10.210938 34.609375 9.414062 C 34.902344 8.617188 34.867188 7.871094 34.53125 7.75 Z M 34.53125 7.75 "/>
<path fill-rule="nonzero" fill="rgb(29.998779%, 59.999084%, 9.999084%)" fill-opacity="1" d="M 27.015625 10.960938 C 27.167969 10.640625 26.664062 10.089844 25.894531 9.730469 C 25.125 9.371094 24.382812 9.339844 24.230469 9.664062 C 24.082031 9.984375 24.582031 10.535156 25.351562 10.894531 C 26.121094 11.253906 26.867188 11.28125 27.015625 10.960938 Z M 27.015625 10.960938 "/>
<path fill-rule="nonzero" fill="rgb(29.998779%, 59.999084%, 9.999084%)" fill-opacity="1" d="M 29.8125 10.960938 C 29.960938 10.640625 29.460938 10.089844 28.691406 9.730469 C 27.921875 9.371094 27.175781 9.339844 27.027344 9.664062 C 26.875 9.984375 27.378906 10.535156 28.148438 10.894531 C 28.917969 11.253906 29.660156 11.28125 29.8125 10.960938 Z M 29.8125 10.960938 "/>
<path fill-rule="nonzero" fill="rgb(29.998779%, 59.999084%, 9.999084%)" fill-opacity="1" d="M 32.378906 10 C 32.5 9.664062 31.949219 9.160156 31.152344 8.871094 C 30.355469 8.578125 29.609375 8.613281 29.488281 8.949219 C 29.367188 9.28125 29.917969 9.785156 30.714844 10.078125 C 31.511719 10.367188 32.257812 10.332031 32.378906 10 Z M 32.378906 10 "/>
<path fill-rule="nonzero" fill="rgb(29.998779%, 59.999084%, 9.999084%)" fill-opacity="1" d="M 34.683594 7.808594 C 34.621094 7.460938 33.894531 7.296875 33.058594 7.441406 C 32.222656 7.589844 31.59375 7.992188 31.65625 8.34375 C 31.71875 8.691406 32.445312 8.855469 33.28125 8.707031 C 34.117188 8.5625 34.742188 8.160156 34.683594 7.808594 Z M 34.683594 7.808594 "/>
</svg>
