<?xml version="1.0" encoding="UTF-8"?>
<svg xmlns="http://www.w3.org/2000/svg" xmlns:xlink="http://www.w3.org/1999/xlink" width="57.175" height="60.945" viewBox="0 0 57.175 60.945">
<defs>
<clipPath id="clip-0">
<path clip-rule="nonzero" d="M 0 0.40625 L 56.363281 0.40625 L 56.363281 60.484375 L 0 60.484375 Z M 0 0.40625 "/>
</clipPath>
<clipPath id="clip-1">
<path clip-rule="nonzero" d="M 0 23 L 56.363281 23 L 56.363281 60.484375 L 0 60.484375 Z M 0 23 "/>
</clipPath>
<clipPath id="clip-2">
<path clip-rule="nonzero" d="M 8 0.40625 L 49 0.40625 L 49 43 L 8 43 Z M 8 0.40625 "/>
</clipPath>
</defs>
<g clip-path="url(#clip-0)">
<path fill-rule="nonzero" fill="rgb(89.99939%, 89.99939%, 89.99939%)" fill-opacity="1" d="M 0 60.484375 L 56.363281 60.484375 L 56.363281 0.40625 L 0 0.40625 Z M 0 60.484375 "/>
</g>
<g clip-path="url(#clip-1)">
<path fill-rule="nonzero" fill="rgb(92.871094%, 83.229065%, 14.369202%)" fill-opacity="1" d="M 12.015625 31.285156 C 5.140625 32.484375 -5.8125 44.921875 5.757812 55.984375 C 17.351562 67.050781 77.683594 59.644531 48.480469 23.628906 C 23.890625 36.84375 32.332031 24.746094 12.015625 31.285156 Z M 12.015625 31.285156 "/>
</g>
<path fill-rule="nonzero" fill="rgb(92.871094%, 83.229065%, 14.369202%)" fill-opacity="1" d="M 36.800781 21.363281 C 36.800781 11.71875 30.546875 3.898438 22.828125 3.898438 C 15.113281 3.898438 8.859375 11.71875 8.859375 21.363281 C 8.859375 31.007812 15.113281 38.828125 22.828125 38.828125 C 30.546875 38.828125 36.800781 31.007812 36.800781 21.363281 Z M 36.800781 21.363281 "/>
<path fill-rule="nonzero" fill="rgb(87.5%, 50%, 12.5%)" fill-opacity="1" d="M 9.027344 22.144531 C 15.648438 20.527344 12.796875 26.867188 23.109375 24.996094 C 0 39.527344 5.195312 25.023438 9.027344 22.144531 Z M 9.027344 22.144531 "/>
<path fill-rule="nonzero" fill="rgb(100%, 99.234009%, 85.00061%)" fill-opacity="1" d="M 22.957031 19.917969 C 23.617188 18.105469 23.101562 16.253906 21.808594 15.78125 C 20.511719 15.3125 18.925781 16.398438 18.269531 18.210938 C 17.609375 20.023438 18.121094 21.875 19.417969 22.347656 C 20.710938 22.820312 22.296875 21.730469 22.957031 19.917969 Z M 22.957031 19.917969 "/>
<path fill-rule="nonzero" fill="rgb(0%, 0%, 0%)" fill-opacity="1" d="M 22.242188 19.957031 C 22.621094 18.921875 22.503906 17.929688 21.988281 17.738281 C 21.46875 17.550781 20.742188 18.238281 20.367188 19.273438 C 19.992188 20.308594 20.105469 21.300781 20.621094 21.488281 C 21.140625 21.675781 21.867188 20.992188 22.242188 19.957031 Z M 22.242188 19.957031 "/>
<path fill-rule="nonzero" fill="rgb(100%, 99.234009%, 85.00061%)" fill-opacity="1" d="M 14.800781 17.765625 C 15.402344 16.109375 14.96875 14.429688 13.828125 14.015625 C 12.6875 13.597656 11.273438 14.605469 10.671875 16.265625 C 10.066406 17.921875 10.503906 19.601562 11.640625 20.015625 C 12.78125 20.433594 14.195312 19.425781 14.800781 17.765625 Z M 14.800781 17.765625 "/>
<path fill-rule="nonzero" fill="rgb(0%, 0%, 0%)" fill-opacity="1" d="M 14.179688 17.839844 C 14.515625 16.90625 14.457031 16.027344 14.042969 15.875 C 13.625 15.726562 13.015625 16.359375 12.675781 17.292969 C 12.335938 18.222656 12.398438 19.101562 12.8125 19.253906 C 13.226562 19.40625 13.839844 18.769531 14.179688 17.839844 Z M 14.179688 17.839844 "/>
<g clip-path="url(#clip-2)">
<path fill-rule="nonzero" fill="rgb(22.499084%, 14.99939%, 7.499695%)" fill-opacity="1" d="M 38.222656 42.140625 C 40.003906 41.238281 41.980469 40.320312 43.082031 38.601562 C 41.996094 38.558594 38.828125 36.851562 41.234375 36.15625 C 43.277344 36.214844 45.230469 35.207031 46.0625 33.285156 C 47.785156 30.695312 44.113281 32.050781 43.164062 30.960938 C 44.773438 30.46875 47.53125 30.222656 48.324219 29.066406 C 45.246094 28.382812 41.519531 27.894531 39.773438 24.886719 C 38.53125 20.964844 38.746094 16.753906 37.75 12.769531 C 32.675781 -6.90625 4.207031 -0.414062 9.027344 18.59375 C 9.8125 10.765625 16.203125 4.234375 22.859375 8.570312 C 32.40625 14.707031 34.984375 23.558594 28.152344 33.628906 C 27.292969 35.03125 28.707031 37.667969 30.667969 39.050781 C 32.628906 40.4375 35.414062 41.335938 38.222656 42.140625 Z M 38.222656 42.140625 "/>
</g>
<path fill-rule="nonzero" fill="rgb(37.5%, 25%, 12.5%)" fill-opacity="1" d="M 23.875 18.691406 L 24.203125 17.621094 L 34.089844 20.644531 L 33.765625 21.714844 Z M 23.875 18.691406 "/>
<path fill-rule="nonzero" fill="rgb(37.5%, 25%, 12.5%)" fill-opacity="1" d="M 15.59375 16.160156 L 15.917969 15.089844 L 18.59375 15.90625 L 18.265625 16.976562 Z M 15.59375 16.160156 "/>
<path fill-rule="evenodd" fill="rgb(37.5%, 25%, 12.5%)" fill-opacity="1" d="M 9.472656 17.3125 L 10.125 14.878906 C 10.40625 13.828125 11.484375 13.207031 12.53125 13.488281 L 14.96875 14.144531 C 16.015625 14.425781 16.53125 15.46875 16.121094 16.472656 L 14.957031 19.304688 C 14.546875 20.308594 13.386719 20.820312 12.367188 20.449219 L 10.808594 19.882812 C 9.789062 19.511719 9.191406 18.363281 9.472656 17.3125 Z M 10.035156 17.449219 L 10.613281 15.125 C 10.808594 14.335938 11.609375 13.855469 12.398438 14.054688 L 14.71875 14.632812 C 15.507812 14.828125 15.894531 15.597656 15.582031 16.347656 L 14.449219 19.046875 C 14.132812 19.796875 13.261719 20.179688 12.496094 19.902344 L 11.0625 19.382812 C 10.296875 19.101562 9.839844 18.238281 10.035156 17.449219 Z M 10.035156 17.449219 "/>
<path fill-rule="evenodd" fill="rgb(37.5%, 25%, 12.5%)" fill-opacity="1" d="M 16.933594 19.730469 L 17.753906 16.761719 C 18.039062 15.714844 19.121094 15.105469 20.167969 15.398438 L 23.402344 16.300781 C 24.445312 16.59375 24.960938 17.640625 24.546875 18.644531 L 23.386719 21.480469 C 22.972656 22.484375 21.792969 23.070312 20.742188 22.789062 L 18.308594 22.132812 C 17.257812 21.851562 16.644531 20.777344 16.933594 19.730469 Z M 17.496094 19.863281 L 18.238281 17.011719 C 18.441406 16.222656 19.246094 15.753906 20.03125 15.960938 L 23.152344 16.785156 C 23.9375 16.992188 24.320312 17.769531 24.007812 18.519531 L 22.875 21.222656 C 22.5625 21.972656 21.667969 22.421875 20.878906 22.226562 L 18.554688 21.648438 C 17.765625 21.449219 17.292969 20.652344 17.496094 19.863281 Z M 17.496094 19.863281 "/>
<path fill-rule="nonzero" fill="rgb(75%, 50%, 25%)" fill-opacity="1" d="M 36.800781 46.511719 C 36.800781 43.425781 31.796875 40.925781 25.625 40.925781 C 19.449219 40.925781 14.445312 43.425781 14.445312 46.511719 C 14.445312 49.597656 19.449219 52.101562 25.625 52.101562 C 31.796875 52.101562 36.800781 49.597656 36.800781 46.511719 Z M 36.800781 46.511719 "/>
<path fill-rule="nonzero" fill="rgb(69.999695%, 0%, 0%)" fill-opacity="1" d="M 35.125 46.511719 C 35.125 44.042969 30.871094 42.042969 25.625 42.042969 C 20.375 42.042969 16.125 44.042969 16.125 46.511719 C 16.125 48.980469 20.375 50.984375 25.625 50.984375 C 30.871094 50.984375 35.125 48.980469 35.125 46.511719 Z M 35.125 46.511719 "/>
<path fill-rule="nonzero" fill="rgb(100%, 99.234009%, 85.00061%)" fill-opacity="1" d="M 31.632812 45.117188 C 31.632812 44.5 30.820312 44 29.816406 44 C 28.8125 44 28 44.5 28 45.117188 C 28 45.734375 28.8125 46.234375 29.816406 46.234375 C 30.820312 46.234375 31.632812 45.734375 31.632812 45.117188 Z M 31.632812 45.117188 "/>
<path fill-rule="nonzero" fill="rgb(100%, 99.234009%, 85.00061%)" fill-opacity="1" d="M 22.132812 47.351562 C 22.132812 46.734375 21.316406 46.234375 20.316406 46.234375 C 19.3125 46.234375 18.5 46.734375 18.5 47.351562 C 18.5 47.96875 19.3125 48.46875 20.316406 48.46875 C 21.316406 48.46875 22.132812 47.96875 22.132812 47.351562 Z M 22.132812 47.351562 "/>
<path fill-rule="nonzero" fill="rgb(100%, 99.234009%, 85.00061%)" fill-opacity="1" d="M 26.042969 44.277344 C 26.042969 43.660156 25.230469 43.160156 24.226562 43.160156 C 23.222656 43.160156 22.410156 43.660156 22.410156 44.277344 C 22.410156 44.894531 23.222656 45.394531 24.226562 45.394531 C 25.230469 45.394531 26.042969 44.894531 26.042969 44.277344 Z M 26.042969 44.277344 "/>
<path fill-rule="nonzero" fill="rgb(100%, 99.234009%, 85.00061%)" fill-opacity="1" d="M 28 48.191406 C 28 47.574219 27.1875 47.070312 26.183594 47.070312 C 25.179688 47.070312 24.367188 47.574219 24.367188 48.191406 C 24.367188 48.808594 25.179688 49.308594 26.183594 49.308594 C 27.1875 49.308594 28 48.808594 28 48.191406 Z M 28 48.191406 "/>
<path fill-rule="nonzero" fill="rgb(44.999695%, 69.999695%, 14.99939%)" fill-opacity="1" d="M 30.09375 48.191406 C 30.09375 47.882812 29.21875 47.628906 28.140625 47.628906 C 27.058594 47.628906 26.183594 47.882812 26.183594 48.191406 C 26.183594 48.5 27.058594 48.75 28.140625 48.75 C 29.21875 48.75 30.09375 48.5 30.09375 48.191406 Z M 30.09375 48.191406 "/>
<path fill-rule="nonzero" fill="rgb(44.999695%, 69.999695%, 14.99939%)" fill-opacity="1" d="M 22.527344 44.125 C 22.421875 43.835938 21.511719 43.898438 20.5 44.269531 C 19.484375 44.636719 18.746094 45.171875 18.851562 45.464844 C 18.957031 45.753906 19.867188 45.6875 20.878906 45.320312 C 21.894531 44.949219 22.632812 44.414062 22.527344 44.125 Z M 22.527344 44.125 "/>
<path fill-rule="nonzero" fill="rgb(44.999695%, 69.999695%, 14.99939%)" fill-opacity="1" d="M 33.1875 44.976562 C 33.292969 44.6875 32.554688 44.152344 31.539062 43.785156 C 30.523438 43.414062 29.617188 43.351562 29.511719 43.640625 C 29.40625 43.929688 30.140625 44.464844 31.15625 44.835938 C 32.171875 45.203125 33.082031 45.269531 33.1875 44.976562 Z M 33.1875 44.976562 "/>
<path fill-rule="nonzero" fill="rgb(44.999695%, 69.999695%, 14.99939%)" fill-opacity="1" d="M 26.460938 46.511719 C 26.460938 45.585938 26.085938 44.835938 25.625 44.835938 C 25.160156 44.835938 24.785156 45.585938 24.785156 46.511719 C 24.785156 47.4375 25.160156 48.1875 25.625 48.1875 C 26.085938 48.1875 26.460938 47.4375 26.460938 46.511719 Z M 26.460938 46.511719 "/>
</svg>
