<?xml version="1.0" encoding="UTF-8"?>
<svg xmlns="http://www.w3.org/2000/svg" xmlns:xlink="http://www.w3.org/1999/xlink" width="80.204" height="60.945" viewBox="0 0 80.204 60.945">
<defs>
<clipPath id="clip-0">
<path clip-rule="nonzero" d="M 0 0.273438 L 79.414062 0.273438 L 79.414062 60.617188 L 0 60.617188 Z M 0 0.273438 "/>
</clipPath>
<clipPath id="clip-1">
<path clip-rule="nonzero" d="M 23 23 L 79.414062 23 L 79.414062 60.617188 L 23 60.617188 Z M 23 23 "/>
</clipPath>
<clipPath id="clip-2">
<path clip-rule="nonzero" d="M 33 0.273438 L 60 0.273438 L 60 15 L 33 15 Z M 33 0.273438 "/>
</clipPath>
</defs>
<g clip-path="url(#clip-0)">
<path fill-rule="nonzero" fill="rgb(89.99939%, 89.99939%, 89.99939%)" fill-opacity="1" d="M 0 60.617188 L 79.414062 60.617188 L 79.414062 0.273438 L 0 0.273438 Z M 0 60.617188 "/>
</g>
<g clip-path="url(#clip-1)">
<path fill-rule="nonzero" fill="rgb(92.871094%, 83.229065%, 14.369202%)" fill-opacity="1" d="M 34.871094 31.289062 C 27.96875 32.492188 16.964844 44.984375 28.585938 56.097656 C 40.234375 67.214844 100.832031 59.777344 71.5 23.597656 C 46.800781 36.871094 55.277344 24.71875 34.871094 31.289062 Z M 34.871094 31.289062 "/>
</g>
<path fill-rule="nonzero" fill="rgb(92.871094%, 83.229065%, 14.369202%)" fill-opacity="1" d="M 59.769531 21.324219 C 59.769531 11.632812 53.484375 3.78125 45.734375 3.78125 C 37.984375 3.78125 31.699219 11.632812 31.699219 21.324219 C 31.699219 31.011719 37.984375 38.867188 45.734375 38.867188 C 53.484375 38.867188 59.769531 31.011719 59.769531 21.324219 Z M 59.769531 21.324219 "/>
<path fill-rule="nonzero" fill="rgb(87.5%, 50%, 12.5%)" fill-opacity="1" d="M 31.867188 22.109375 C 38.519531 20.480469 35.65625 26.851562 46.015625 24.972656 C 22.800781 39.566406 28.023438 25 31.867188 22.109375 Z M 31.867188 22.109375 "/>
<path fill-rule="nonzero" fill="rgb(100%, 99.234009%, 85.00061%)" fill-opacity="1" d="M 45.863281 19.871094 C 46.523438 18.050781 46.007812 16.191406 44.707031 15.71875 C 43.40625 15.242188 41.816406 16.335938 41.152344 18.15625 C 40.488281 19.976562 41.007812 21.839844 42.308594 22.3125 C 43.609375 22.785156 45.199219 21.691406 45.863281 19.871094 Z M 45.863281 19.871094 "/>
<path fill-rule="nonzero" fill="rgb(0%, 0%, 0%)" fill-opacity="1" d="M 45.144531 19.910156 C 45.523438 18.867188 45.40625 17.871094 44.886719 17.683594 C 44.367188 17.492188 43.640625 18.183594 43.261719 19.222656 C 42.882812 20.261719 42.996094 21.261719 43.515625 21.449219 C 44.039062 21.636719 44.765625 20.949219 45.144531 19.910156 Z M 45.144531 19.910156 "/>
<path fill-rule="nonzero" fill="rgb(100%, 99.234009%, 85.00061%)" fill-opacity="1" d="M 37.667969 17.710938 C 38.273438 16.046875 37.835938 14.359375 36.691406 13.941406 C 35.546875 13.523438 34.128906 14.535156 33.519531 16.203125 C 32.914062 17.867188 33.351562 19.554688 34.496094 19.96875 C 35.640625 20.386719 37.0625 19.375 37.667969 17.710938 Z M 37.667969 17.710938 "/>
<path fill-rule="nonzero" fill="rgb(0%, 0%, 0%)" fill-opacity="1" d="M 37.042969 17.78125 C 37.382812 16.84375 37.324219 15.964844 36.90625 15.8125 C 36.492188 15.660156 35.875 16.296875 35.535156 17.234375 C 35.195312 18.167969 35.253906 19.050781 35.671875 19.203125 C 36.089844 19.355469 36.703125 18.71875 37.042969 17.78125 Z M 37.042969 17.78125 "/>
<g clip-path="url(#clip-2)">
<path fill-rule="nonzero" fill="rgb(0%, 0%, 100%)" fill-opacity="1" d="M 59.769531 14.304688 C 59.769531 6.554688 53.484375 0.273438 45.734375 0.273438 C 40.722656 0.273438 36.085938 2.949219 33.582031 7.289062 "/>
</g>
<path fill-rule="nonzero" fill="rgb(0%, 0%, 100%)" fill-opacity="1" d="M 59.765625 14.382812 C 60.367188 12.136719 53.574219 8.367188 44.589844 5.957031 C 35.605469 3.550781 27.832031 3.421875 27.230469 5.667969 C 26.628906 7.914062 33.425781 11.683594 42.410156 14.09375 C 51.394531 16.5 59.164062 16.628906 59.765625 14.382812 Z M 59.765625 14.382812 "/>
<path fill-rule="nonzero" fill="rgb(0%, 0%, 0%)" fill-opacity="1" d="M 46.519531 18.558594 L 46.847656 17.484375 L 57.046875 20.601562 L 56.71875 21.675781 Z M 46.519531 18.558594 "/>
<path fill-rule="nonzero" fill="rgb(0%, 0%, 0%)" fill-opacity="1" d="M 38.464844 16.09375 L 38.792969 15.023438 L 41.476562 15.84375 L 41.148438 16.914062 Z M 38.464844 16.09375 "/>
<path fill-rule="nonzero" fill="rgb(0%, 0%, 0%)" fill-opacity="1" d="M 47.199219 20.359375 C 47.941406 18.320312 46.890625 16.0625 44.851562 15.320312 C 42.8125 14.578125 40.558594 15.632812 39.816406 17.671875 C 39.074219 19.710938 40.125 21.964844 42.164062 22.707031 C 44.203125 23.449219 46.457031 22.398438 47.199219 20.359375 Z M 47.199219 20.359375 "/>
<path fill-rule="nonzero" fill="rgb(0%, 0%, 0%)" fill-opacity="1" d="M 39.023438 18.203125 C 39.710938 16.308594 38.734375 14.214844 36.84375 13.527344 C 34.949219 12.835938 32.855469 13.8125 32.164062 15.707031 C 31.476562 17.601562 32.453125 19.695312 34.347656 20.382812 C 36.238281 21.074219 38.335938 20.097656 39.023438 18.203125 Z M 39.023438 18.203125 "/>
<path fill-rule="nonzero" fill="rgb(0%, 0%, 0%)" fill-opacity="1" d="M 33.984375 55.03125 C 36.335938 56.664062 37.523438 56.996094 39.667969 56.617188 C 40.960938 56.390625 41.363281 56.230469 42.148438 55.675781 C 43.300781 54.871094 44.207031 53.625 44.65625 52.230469 C 44.957031 51.277344 44.964844 51.015625 44.660156 49.265625 C 44.238281 46.882812 43.863281 46.347656 41.304688 44.511719 L 39.5 43.214844 L 38.628906 44.4375 L 37.742188 45.683594 L 39.21875 46.734375 C 40.019531 47.324219 40.882812 48.074219 41.125 48.390625 C 42.417969 50.074219 41.617188 52.769531 39.621094 53.476562 C 38.449219 53.871094 37.675781 53.726562 36.300781 52.839844 C 35.582031 52.386719 34.753906 51.839844 34.421875 51.652344 L 33.851562 51.285156 L 33.023438 52.445312 C 32.570312 53.085938 32.203125 53.65625 32.214844 53.714844 C 32.222656 53.765625 33.023438 54.359375 33.984375 55.03125 Z M 17.792969 55.035156 C 18.375 55.910156 19.570312 56.617188 20.578125 56.703125 C 21.992188 56.847656 22.710938 56.4375 24.996094 54.292969 L 27.105469 52.304688 L 27.675781 52.671875 C 28.800781 53.414062 29.835938 53.4375 30.699219 52.777344 C 30.945312 52.585938 32.9375 49.851562 35.160156 46.683594 L 39.15625 40.949219 L 33.097656 36.707031 L 27.042969 32.484375 L 26.0625 32.652344 L 25.078125 32.828125 L 20.832031 38.867188 L 16.589844 44.929688 L 18.066406 45.945312 L 19.523438 46.980469 L 22.578125 43.984375 C 24.257812 42.316406 25.871094 40.832031 26.160156 40.671875 C 27.359375 40.007812 28.917969 40.460938 29.757812 41.703125 C 30.269531 42.476562 30.351562 43.15625 30.042969 44.167969 C 29.914062 44.605469 27.679688 46.933594 24.367188 50.066406 C 24.269531 50.160156 24.355469 50.332031 24.617188 50.53125 C 24.835938 50.714844 24.980469 50.898438 24.949219 50.941406 C 24.703125 51.246094 21.765625 53.941406 21.441406 54.128906 C 20.628906 54.628906 19.488281 53.796875 19.675781 52.847656 C 19.71875 52.558594 21.234375 50.9375 24.054688 48.210938 C 26.410156 45.917969 28.4375 43.890625 28.515625 43.707031 C 28.785156 43.226562 28.597656 42.453125 28.152344 42.175781 C 27.289062 41.632812 26.871094 41.933594 22.375 46.347656 C 19.992188 48.679688 17.882812 50.875 17.660156 51.210938 C 16.953125 52.3125 17.007812 53.898438 17.792969 55.035156 Z M 1.03125 29.355469 L 2.035156 29.949219 L 1.4375 30.710938 C 1.097656 31.128906 0.882812 31.503906 0.921875 31.535156 C 0.96875 31.5625 1.601562 31.65625 2.320312 31.777344 L 3.644531 31.957031 L 3.628906 32.613281 C 3.632812 32.96875 3.613281 33.367188 3.585938 33.523438 C 3.542969 33.71875 3.894531 33.789062 4.960938 33.769531 C 6.289062 33.742188 6.386719 33.78125 6.335938 34.144531 C 6.324219 34.371094 6.308594 34.808594 6.289062 35.128906 L 6.296875 35.726562 L 7.394531 35.664062 C 8.933594 35.5625 9.058594 35.632812 8.960938 36.570312 C 8.90625 36.992188 8.878906 37.375 8.886719 37.410156 C 8.894531 37.464844 9.539062 37.5 10.304688 37.496094 C 11.074219 37.492188 11.722656 37.546875 11.738281 37.621094 C 11.75 37.691406 11.710938 38.113281 11.636719 38.539062 C 11.472656 39.429688 11.453125 39.414062 12.890625 39.386719 C 14.242188 39.375 14.34375 39.414062 14.316406 39.902344 C 14.214844 41.367188 14.101562 41.238281 15.582031 41.238281 L 16.917969 41.25 L 17.382812 40.582031 L 17.84375 39.921875 L 10.863281 35.015625 C 4.351562 30.441406 3.851562 30.039062 3.570312 29.300781 C 2.957031 27.742188 3.339844 26.285156 4.570312 25.394531 C 5.46875 24.746094 6.429688 24.554688 7.386719 24.859375 C 7.785156 24.996094 11.164062 27.230469 14.863281 29.824219 L 21.59375 34.566406 L 22.09375 33.878906 C 22.542969 33.257812 22.570312 33.082031 22.402344 32.136719 L 22.21875 31.082031 L 21.125 31.273438 L 20.035156 31.464844 L 19.839844 30.375 L 19.652344 29.300781 L 18.496094 29.449219 L 17.359375 29.59375 L 17.101562 28.453125 L 16.847656 27.339844 L 15.773438 27.527344 L 14.699219 27.71875 L 14.445312 26.578125 L 14.1875 25.460938 L 13.035156 25.609375 L 11.894531 25.753906 L 11.707031 24.675781 L 11.511719 23.585938 L 10.421875 23.777344 L 9.328125 23.972656 L 9.152344 22.972656 C 9.058594 22.421875 8.941406 21.976562 8.902344 21.984375 C 8.867188 21.988281 8.480469 22.226562 8.042969 22.511719 C 7.605469 22.792969 7.195312 23.035156 7.105469 23.050781 C 7.011719 23.066406 6.738281 22.683594 6.488281 22.222656 C 6.234375 21.742188 6 21.367188 5.980469 21.371094 C 5.945312 21.378906 5.703125 21.925781 5.445312 22.589844 C 5.171875 23.261719 4.910156 23.8125 4.855469 23.820312 C 4.820312 23.828125 4.28125 23.550781 3.675781 23.203125 L 2.589844 22.550781 L 2.886719 23.8125 C 3.226562 25.214844 3.257812 25.191406 1.714844 25.050781 L 0.742188 24.976562 L 1.269531 26.160156 C 1.886719 27.515625 1.910156 27.4375 0.621094 28.117188 C 0.28125 28.304688 0 28.523438 0.015625 28.613281 C 0.0273438 28.6875 0.484375 29.023438 1.03125 29.355469 Z M 1.03125 29.355469 "/>
</svg>
