<?xml version="1.0" encoding="UTF-8"?>
<svg xmlns="http://www.w3.org/2000/svg" xmlns:xlink="http://www.w3.org/1999/xlink" width="57.175" height="72" viewBox="0 0 57.175 72">
<defs>
<clipPath id="clip-0">
<path clip-rule="nonzero" d="M 0 0.511719 L 56.363281 0.511719 L 56.363281 71.488281 L 0 71.488281 Z M 0 0.511719 "/>
</clipPath>
<clipPath id="clip-1">
<path clip-rule="nonzero" d="M 0 34 L 56.363281 34 L 56.363281 71.488281 L 0 71.488281 Z M 0 34 "/>
</clipPath>
<clipPath id="clip-2">
<path clip-rule="nonzero" d="M 0 34 L 56.363281 34 L 56.363281 71.488281 L 0 71.488281 Z M 0 34 "/>
</clipPath>
<clipPath id="clip-3">
<path clip-rule="nonzero" d="M 21 0.511719 L 31 0.511719 L 31 11 L 21 11 Z M 21 0.511719 "/>
</clipPath>
</defs>
<g clip-path="url(#clip-0)">
<path fill-rule="nonzero" fill="rgb(89.99939%, 89.99939%, 89.99939%)" fill-opacity="1" d="M 0 71.488281 L 56.363281 71.488281 L 56.363281 0.511719 L 0 0.511719 Z M 0 71.488281 "/>
</g>
<g clip-path="url(#clip-1)">
<path fill-rule="nonzero" fill="rgb(92.871094%, 83.229065%, 14.369202%)" fill-opacity="1" d="M 12.015625 42.285156 C 5.140625 43.488281 -5.8125 55.921875 5.757812 66.988281 C 17.351562 78.054688 77.683594 70.648438 48.480469 34.628906 C 23.890625 47.847656 32.332031 35.75 12.015625 42.285156 Z M 12.015625 42.285156 "/>
</g>
<path fill-rule="nonzero" fill="rgb(92.871094%, 83.229065%, 14.369202%)" fill-opacity="1" d="M 36.800781 32.367188 C 36.800781 22.722656 30.546875 14.902344 22.828125 14.902344 C 15.113281 14.902344 8.859375 22.722656 8.859375 32.367188 C 8.859375 42.011719 15.113281 49.832031 22.828125 49.832031 C 30.546875 49.832031 36.800781 42.011719 36.800781 32.367188 Z M 36.800781 32.367188 "/>
<path fill-rule="nonzero" fill="rgb(87.5%, 50%, 12.5%)" fill-opacity="1" d="M 9.027344 33.148438 C 15.648438 31.527344 12.796875 37.871094 23.109375 36 C 0 50.53125 5.195312 36.027344 9.027344 33.148438 Z M 9.027344 33.148438 "/>
<path fill-rule="nonzero" fill="rgb(100%, 99.234009%, 85.00061%)" fill-opacity="1" d="M 22.957031 30.921875 C 23.617188 29.109375 23.101562 27.257812 21.808594 26.785156 C 20.511719 26.316406 18.925781 27.402344 18.269531 29.214844 C 17.609375 31.027344 18.121094 32.878906 19.417969 33.351562 C 20.710938 33.824219 22.296875 32.734375 22.957031 30.921875 Z M 22.957031 30.921875 "/>
<path fill-rule="nonzero" fill="rgb(0%, 0%, 0%)" fill-opacity="1" d="M 22.242188 30.960938 C 22.621094 29.921875 22.503906 28.933594 21.988281 28.742188 C 21.46875 28.554688 20.742188 29.242188 20.367188 30.277344 C 19.992188 31.3125 20.105469 32.304688 20.621094 32.492188 C 21.140625 32.679688 21.867188 31.996094 22.242188 30.960938 Z M 22.242188 30.960938 "/>
<path fill-rule="nonzero" fill="rgb(100%, 99.234009%, 85.00061%)" fill-opacity="1" d="M 14.800781 28.769531 C 15.402344 27.113281 14.96875 25.433594 13.828125 25.019531 C 12.6875 24.601562 11.273438 25.609375 10.671875 27.269531 C 10.066406 28.925781 10.503906 30.605469 11.640625 31.019531 C 12.78125 31.433594 14.195312 30.429688 14.800781 28.769531 Z M 14.800781 28.769531 "/>
<path fill-rule="nonzero" fill="rgb(0%, 0%, 0%)" fill-opacity="1" d="M 14.179688 28.84375 C 14.515625 27.910156 14.457031 27.03125 14.042969 26.878906 C 13.625 26.730469 13.015625 27.363281 12.675781 28.296875 C 12.335938 29.226562 12.398438 30.105469 12.8125 30.257812 C 13.226562 30.40625 13.839844 29.773438 14.179688 28.84375 Z M 14.179688 28.84375 "/>
<g clip-path="url(#clip-2)">
<path fill-rule="nonzero" fill="rgb(100%, 100%, 100%)" fill-opacity="1" d="M 11.371094 42.285156 C 5.140625 43.488281 -5.8125 55.921875 5.757812 66.988281 C 17.351562 78.054688 77.683594 70.648438 48.480469 34.628906 C 23.890625 47.007812 32.332031 38.542969 14.167969 46.339844 Z M 11.371094 42.285156 "/>
</g>
<path fill-rule="nonzero" fill="rgb(0%, 0%, 100%)" fill-opacity="1" d="M 13.886719 53.324219 C 13.886719 52.554688 13.261719 51.925781 12.492188 51.925781 C 11.71875 51.925781 11.09375 52.554688 11.09375 53.324219 C 11.09375 54.097656 11.71875 54.722656 12.492188 54.722656 C 13.261719 54.722656 13.886719 54.097656 13.886719 53.324219 Z M 13.050781 57.515625 C 13.050781 56.746094 12.425781 56.117188 11.652344 56.117188 C 10.878906 56.117188 10.253906 56.746094 10.253906 57.515625 C 10.253906 58.289062 10.878906 58.914062 11.652344 58.914062 C 12.425781 58.914062 13.050781 58.289062 13.050781 57.515625 Z M 12.210938 61.707031 C 12.210938 60.9375 11.585938 60.3125 10.8125 60.3125 C 10.042969 60.3125 9.417969 60.9375 9.417969 61.707031 C 9.417969 62.480469 10.042969 63.105469 10.8125 63.105469 C 11.585938 63.105469 12.210938 62.480469 12.210938 61.707031 Z M 12.210938 61.707031 "/>
<path fill-rule="nonzero" fill="rgb(100%, 100%, 100%)" fill-opacity="1" d="M 34.730469 23.457031 C 35.050781 22.265625 30.839844 20.101562 25.324219 18.625 C 19.808594 17.144531 15.078125 16.914062 14.757812 18.105469 C 14.4375 19.300781 18.652344 21.464844 24.167969 22.941406 C 29.683594 24.417969 34.410156 24.652344 34.730469 23.457031 Z M 34.730469 23.457031 "/>
<path fill-rule="nonzero" fill="rgb(100%, 100%, 100%)" fill-opacity="1" d="M 14.757812 18.105469 L 18.011719 5.960938 L 37.984375 11.3125 L 34.730469 23.457031 Z M 14.757812 18.105469 "/>
<g clip-path="url(#clip-3)">
<path fill-rule="nonzero" fill="rgb(100%, 100%, 100%)" fill-opacity="1" d="M 30.652344 5.261719 C 30.652344 2.636719 28.527344 0.511719 25.902344 0.511719 C 23.28125 0.511719 21.152344 2.636719 21.152344 5.261719 C 21.152344 7.886719 23.28125 10.011719 25.902344 10.011719 C 28.527344 10.011719 30.652344 7.886719 30.652344 5.261719 Z M 30.652344 5.261719 "/>
</g>
<path fill-rule="nonzero" fill="rgb(100%, 100%, 100%)" fill-opacity="1" d="M 36.523438 8.613281 C 36.523438 6.300781 34.644531 4.421875 32.332031 4.421875 C 30.015625 4.421875 28.140625 6.300781 28.140625 8.613281 C 28.140625 10.929688 30.015625 12.804688 32.332031 12.804688 C 34.644531 12.804688 36.523438 10.929688 36.523438 8.613281 Z M 36.523438 8.613281 "/>
<path fill-rule="nonzero" fill="rgb(100%, 100%, 100%)" fill-opacity="1" d="M 22.550781 7.21875 C 22.550781 5.367188 21.050781 3.863281 19.195312 3.863281 C 17.34375 3.863281 15.84375 5.367188 15.84375 7.21875 C 15.84375 9.070312 17.34375 10.570312 19.195312 10.570312 C 21.050781 10.570312 22.550781 9.070312 22.550781 7.21875 Z M 22.550781 7.21875 "/>
<path fill-rule="nonzero" fill="rgb(100%, 100%, 100%)" fill-opacity="1" d="M 39.875 12.808594 C 39.875 10.953125 38.375 9.453125 36.523438 9.453125 C 34.671875 9.453125 33.167969 10.953125 33.167969 12.808594 C 33.167969 14.660156 34.671875 16.160156 36.523438 16.160156 C 38.375 16.160156 39.875 14.660156 39.875 12.808594 Z M 39.875 12.808594 "/>
<path fill-rule="nonzero" fill="rgb(59.999084%, 39.99939%, 19.999695%)" fill-opacity="1" d="M 17.4375 57.070312 L 35.816406 46.457031 C 36.753906 45.914062 37.957031 46.238281 38.496094 47.175781 L 40.164062 50.066406 C 40.707031 51.007812 40.386719 52.207031 39.445312 52.75 L 21.070312 63.359375 C 20.128906 63.902344 18.929688 63.582031 18.386719 62.640625 L 16.71875 59.75 C 16.175781 58.8125 16.496094 57.609375 17.4375 57.070312 Z M 17.4375 57.070312 "/>
<path fill-rule="nonzero" fill="rgb(59.999084%, 39.99939%, 19.999695%)" fill-opacity="1" d="M 12.863281 62.289062 L 42.621094 45.109375 C 43.09375 44.835938 43.691406 45 43.964844 45.46875 L 44.378906 46.1875 C 44.652344 46.65625 44.488281 47.257812 44.019531 47.527344 L 14.261719 64.710938 C 13.792969 64.980469 13.191406 64.820312 12.917969 64.351562 L 12.503906 63.632812 C 12.234375 63.160156 12.394531 62.5625 12.863281 62.289062 Z M 12.863281 62.289062 "/>
</svg>
