<?xml version="1.0" encoding="UTF-8"?>
<svg xmlns="http://www.w3.org/2000/svg" xmlns:xlink="http://www.w3.org/1999/xlink" width="171.525" height="71.725" viewBox="0 0 171.525 71.725">
<defs>
<clipPath id="clip-0">
<path clip-rule="nonzero" d="M 0.0898438 0 L 170.960938 0 L 170.960938 71.449219 L 0.0898438 71.449219 Z M 0.0898438 0 "/>
</clipPath>
<clipPath id="clip-1">
<path clip-rule="nonzero" d="M 0.0898438 34 L 58 34 L 58 71.449219 L 0.0898438 71.449219 Z M 0.0898438 34 "/>
</clipPath>
<clipPath id="clip-2">
<path clip-rule="nonzero" d="M 0.0898438 34 L 58 34 L 58 71.449219 L 0.0898438 71.449219 Z M 0.0898438 34 "/>
</clipPath>
<clipPath id="clip-3">
<path clip-rule="nonzero" d="M 57 34 L 115 34 L 115 71.449219 L 57 71.449219 Z M 57 34 "/>
</clipPath>
<clipPath id="clip-4">
<path clip-rule="nonzero" d="M 57 34 L 115 34 L 115 71.449219 L 57 71.449219 Z M 57 34 "/>
</clipPath>
<clipPath id="clip-5">
<path clip-rule="nonzero" d="M 91 23 L 103 23 L 103 32 L 91 32 Z M 91 23 "/>
</clipPath>
<clipPath id="clip-6">
<path clip-rule="nonzero" d="M 92.839844 19.039062 L 89.933594 27.027344 L 103.199219 31.855469 L 106.109375 23.867188 Z M 92.839844 19.039062 "/>
</clipPath>
<clipPath id="clip-7">
<path clip-rule="nonzero" d="M 114 34 L 170.960938 34 L 170.960938 71.449219 L 114 71.449219 Z M 114 34 "/>
</clipPath>
<clipPath id="clip-8">
<path clip-rule="nonzero" d="M 114 34 L 170.960938 34 L 170.960938 71.449219 L 114 71.449219 Z M 114 34 "/>
</clipPath>
<clipPath id="clip-9">
<path clip-rule="nonzero" d="M 148 23 L 160 23 L 160 32 L 148 32 Z M 148 23 "/>
</clipPath>
<clipPath id="clip-10">
<path clip-rule="nonzero" d="M 149.796875 19.039062 L 146.890625 27.027344 L 160.15625 31.855469 L 163.066406 23.867188 Z M 149.796875 19.039062 "/>
</clipPath>
</defs>
<g clip-path="url(#clip-0)">
<path fill-rule="nonzero" fill="rgb(89.99939%, 89.99939%, 89.99939%)" fill-opacity="1" d="M 0.0898438 71.449219 L 170.960938 71.449219 L 170.960938 0 L 0.0898438 0 Z M 0.0898438 71.449219 "/>
</g>
<g clip-path="url(#clip-1)">
<path fill-rule="nonzero" fill="rgb(92.871094%, 83.229065%, 14.369202%)" fill-opacity="1" d="M 12.234375 41.941406 C 5.285156 43.15625 -5.78125 55.722656 5.90625 66.90625 C 17.625 78.085938 78.59375 70.605469 49.085938 34.203125 C 24.234375 47.5625 32.761719 35.335938 12.234375 41.941406 Z M 12.234375 41.941406 "/>
</g>
<path fill-rule="nonzero" fill="rgb(92.871094%, 83.229065%, 14.369202%)" fill-opacity="1" d="M 37.28125 31.917969 C 37.28125 22.171875 30.960938 14.269531 23.160156 14.269531 C 15.363281 14.269531 9.042969 22.171875 9.042969 31.917969 C 9.042969 41.664062 15.363281 49.566406 23.160156 49.566406 C 30.960938 49.566406 37.28125 41.664062 37.28125 31.917969 Z M 37.28125 31.917969 "/>
<path fill-rule="nonzero" fill="rgb(87.5%, 50%, 12.5%)" fill-opacity="1" d="M 9.210938 32.707031 C 15.90625 31.070312 13.023438 37.480469 23.445312 35.589844 C 0.0898438 50.273438 5.34375 35.617188 9.210938 32.707031 Z M 9.210938 32.707031 "/>
<path fill-rule="nonzero" fill="rgb(100%, 99.234009%, 85.00061%)" fill-opacity="1" d="M 23.289062 30.457031 C 23.957031 28.625 23.4375 26.753906 22.128906 26.277344 C 20.820312 25.800781 19.21875 26.902344 18.550781 28.730469 C 17.886719 30.5625 18.40625 32.433594 19.714844 32.910156 C 21.023438 33.386719 22.625 32.289062 23.289062 30.457031 Z M 23.289062 30.457031 "/>
<path fill-rule="nonzero" fill="rgb(0%, 0%, 0%)" fill-opacity="1" d="M 22.566406 30.496094 C 22.949219 29.449219 22.832031 28.445312 22.308594 28.253906 C 21.785156 28.066406 21.054688 28.757812 20.671875 29.804688 C 20.292969 30.851562 20.40625 31.855469 20.929688 32.042969 C 21.453125 32.234375 22.1875 31.539062 22.566406 30.496094 Z M 22.566406 30.496094 "/>
<path fill-rule="nonzero" fill="rgb(100%, 99.234009%, 85.00061%)" fill-opacity="1" d="M 15.046875 28.28125 C 15.65625 26.609375 15.214844 24.910156 14.0625 24.492188 C 12.914062 24.070312 11.484375 25.089844 10.875 26.765625 C 10.265625 28.441406 10.703125 30.136719 11.855469 30.558594 C 13.007812 30.976562 14.4375 29.957031 15.046875 28.28125 Z M 15.046875 28.28125 "/>
<path fill-rule="nonzero" fill="rgb(0%, 0%, 0%)" fill-opacity="1" d="M 14.417969 28.355469 C 14.761719 27.414062 14.699219 26.523438 14.28125 26.371094 C 13.863281 26.21875 13.242188 26.859375 12.902344 27.800781 C 12.558594 28.746094 12.621094 29.632812 13.039062 29.785156 C 13.457031 29.9375 14.074219 29.296875 14.417969 28.355469 Z M 14.417969 28.355469 "/>
<g clip-path="url(#clip-2)">
<path fill-rule="nonzero" fill="rgb(0%, 0%, 0%)" fill-opacity="1" d="M 11.585938 41.941406 C 5.285156 43.15625 -5.78125 55.722656 5.90625 66.90625 C 17.625 78.085938 78.59375 70.605469 49.085938 34.203125 C 24.234375 46.714844 32.761719 38.15625 14.40625 46.035156 Z M 11.585938 41.941406 "/>
</g>
<path fill-rule="nonzero" fill="rgb(69.999695%, 69.999695%, 69.999695%)" fill-opacity="1" d="M 14.125 53.097656 C 14.125 52.316406 13.492188 51.683594 12.714844 51.683594 C 11.933594 51.683594 11.300781 52.316406 11.300781 53.097656 C 11.300781 53.875 11.933594 54.507812 12.714844 54.507812 C 13.492188 54.507812 14.125 53.875 14.125 53.097656 Z M 13.277344 57.332031 C 13.277344 56.550781 12.644531 55.921875 11.867188 55.921875 C 11.085938 55.921875 10.453125 56.550781 10.453125 57.332031 C 10.453125 58.113281 11.085938 58.742188 11.867188 58.742188 C 12.644531 58.742188 13.277344 58.113281 13.277344 57.332031 Z M 12.429688 61.566406 C 12.429688 60.789062 11.800781 60.15625 11.019531 60.15625 C 10.238281 60.15625 9.605469 60.789062 9.605469 61.566406 C 9.605469 62.347656 10.238281 62.980469 11.019531 62.980469 C 11.800781 62.980469 12.429688 62.347656 12.429688 61.566406 Z M 12.429688 61.566406 "/>
<path fill-rule="nonzero" fill="rgb(0%, 0%, 0%)" fill-opacity="1" d="M 41.460938 24.597656 C 41.867188 23.089844 34.867188 19.90625 25.828125 17.484375 C 16.789062 15.0625 9.132812 14.320312 8.730469 15.824219 C 8.328125 17.332031 15.328125 20.515625 24.367188 22.9375 C 33.40625 25.359375 41.058594 26.101562 41.460938 24.597656 Z M 41.460938 24.597656 "/>
<path fill-rule="nonzero" fill="rgb(0%, 0%, 0%)" fill-opacity="1" d="M 15.003906 17.507812 L 17.199219 9.324219 L 37.382812 14.730469 L 35.1875 22.914062 Z M 15.003906 17.507812 "/>
<path fill-rule="nonzero" fill="rgb(0%, 0%, 0%)" fill-opacity="1" d="M 37.382812 14.730469 C 37.703125 13.527344 33.449219 11.339844 27.875 9.847656 C 22.300781 8.351562 17.519531 8.117188 17.199219 9.324219 C 16.875 10.527344 21.132812 12.714844 26.703125 14.210938 C 32.277344 15.703125 37.058594 15.9375 37.382812 14.730469 Z M 37.382812 14.730469 "/>
<path fill-rule="nonzero" fill="rgb(0%, 0%, 0%)" fill-opacity="1" d="M 23.949219 29.132812 L 24.28125 28.054688 L 34.542969 31.191406 L 34.210938 32.273438 Z M 23.949219 29.132812 "/>
<path fill-rule="nonzero" fill="rgb(0%, 0%, 0%)" fill-opacity="1" d="M 15.847656 26.65625 L 16.179688 25.578125 L 18.878906 26.402344 L 18.550781 27.484375 Z M 15.847656 26.65625 "/>
<path fill-rule="evenodd" fill="rgb(0%, 0%, 0%)" fill-opacity="1" d="M 24.636719 30.945312 C 25.382812 28.894531 24.324219 26.625 22.273438 25.878906 C 20.222656 25.132812 17.953125 26.191406 17.207031 28.242188 C 16.460938 30.292969 17.515625 32.5625 19.570312 33.308594 C 21.621094 34.054688 23.890625 33 24.636719 30.945312 Z M 23.839844 30.65625 C 24.425781 29.046875 23.59375 27.261719 21.984375 26.675781 C 20.371094 26.089844 18.589844 26.921875 18.003906 28.53125 C 17.414062 30.144531 18.246094 31.925781 19.859375 32.515625 C 21.472656 33.101562 23.253906 32.269531 23.839844 30.65625 Z M 23.839844 30.65625 "/>
<path fill-rule="evenodd" fill="rgb(0%, 0%, 0%)" fill-opacity="1" d="M 16.410156 28.777344 C 17.105469 26.875 16.121094 24.765625 14.214844 24.074219 C 12.3125 23.378906 10.203125 24.363281 9.511719 26.269531 C 8.816406 28.171875 9.800781 30.28125 11.703125 30.972656 C 13.609375 31.667969 15.714844 30.683594 16.410156 28.777344 Z M 15.480469 28.441406 C 15.988281 27.046875 15.269531 25.507812 13.878906 25.003906 C 12.484375 24.496094 10.945312 25.214844 10.441406 26.605469 C 9.933594 28 10.652344 29.539062 12.042969 30.042969 C 13.433594 30.550781 14.972656 29.832031 15.480469 28.441406 Z M 15.480469 28.441406 "/>
<path fill-rule="nonzero" fill="rgb(100%, 100%, 100%)" fill-opacity="1" d="M 12.457031 48.53125 L 13.339844 44.390625 L 16.375 45.035156 L 15.496094 49.179688 Z M 12.457031 48.53125 "/>
<g clip-path="url(#clip-3)">
<path fill-rule="nonzero" fill="rgb(92.871094%, 83.229065%, 14.369202%)" fill-opacity="1" d="M 69.191406 41.941406 C 62.246094 43.15625 51.175781 55.722656 62.867188 66.90625 C 74.585938 78.085938 135.550781 70.605469 106.042969 34.203125 C 81.191406 47.5625 89.71875 35.335938 69.191406 41.941406 Z M 69.191406 41.941406 "/>
</g>
<path fill-rule="nonzero" fill="rgb(92.871094%, 83.229065%, 14.369202%)" fill-opacity="1" d="M 94.238281 31.917969 C 94.238281 22.171875 87.917969 14.269531 80.117188 14.269531 C 72.320312 14.269531 66 22.171875 66 31.917969 C 66 41.664062 72.320312 49.566406 80.117188 49.566406 C 87.917969 49.566406 94.238281 41.664062 94.238281 31.917969 Z M 94.238281 31.917969 "/>
<path fill-rule="nonzero" fill="rgb(87.5%, 50%, 12.5%)" fill-opacity="1" d="M 66.167969 32.707031 C 72.863281 31.070312 69.980469 37.480469 80.402344 35.589844 C 57.046875 50.273438 62.300781 35.617188 66.167969 32.707031 Z M 66.167969 32.707031 "/>
<path fill-rule="nonzero" fill="rgb(100%, 99.234009%, 85.00061%)" fill-opacity="1" d="M 80.25 30.457031 C 80.914062 28.625 80.394531 26.753906 79.085938 26.277344 C 77.777344 25.800781 76.175781 26.902344 75.507812 28.730469 C 74.84375 30.5625 75.363281 32.433594 76.671875 32.910156 C 77.980469 33.386719 79.582031 32.289062 80.25 30.457031 Z M 80.25 30.457031 "/>
<path fill-rule="nonzero" fill="rgb(0%, 0%, 0%)" fill-opacity="1" d="M 79.527344 30.496094 C 79.90625 29.449219 79.792969 28.445312 79.269531 28.253906 C 78.746094 28.066406 78.011719 28.757812 77.628906 29.804688 C 77.25 30.851562 77.367188 31.855469 77.890625 32.042969 C 78.410156 32.234375 79.144531 31.539062 79.527344 30.496094 Z M 79.527344 30.496094 "/>
<path fill-rule="nonzero" fill="rgb(100%, 99.234009%, 85.00061%)" fill-opacity="1" d="M 72.003906 28.28125 C 72.613281 26.609375 72.175781 24.910156 71.023438 24.492188 C 69.871094 24.070312 68.441406 25.089844 67.832031 26.765625 C 67.222656 28.441406 67.664062 30.136719 68.8125 30.558594 C 69.964844 30.976562 71.394531 29.957031 72.003906 28.28125 Z M 72.003906 28.28125 "/>
<path fill-rule="nonzero" fill="rgb(0%, 0%, 0%)" fill-opacity="1" d="M 71.375 28.355469 C 71.71875 27.414062 71.65625 26.523438 71.238281 26.371094 C 70.820312 26.21875 70.203125 26.859375 69.859375 27.800781 C 69.515625 28.746094 69.578125 29.632812 69.996094 29.785156 C 70.414062 29.9375 71.03125 29.296875 71.375 28.355469 Z M 71.375 28.355469 "/>
<g clip-path="url(#clip-4)">
<path fill-rule="nonzero" fill="rgb(79.998779%, 0%, 0%)" fill-opacity="1" d="M 68.542969 41.941406 C 62.246094 43.15625 51.175781 55.722656 62.867188 66.90625 C 74.585938 78.085938 135.550781 70.605469 106.042969 34.203125 C 81.191406 46.714844 89.71875 38.15625 71.363281 46.035156 Z M 68.542969 41.941406 "/>
</g>
<path fill-rule="nonzero" fill="rgb(44.999695%, 29.998779%, 14.99939%)" fill-opacity="1" d="M 71.082031 53.097656 C 71.082031 52.316406 70.449219 51.683594 69.671875 51.683594 C 68.890625 51.683594 68.257812 52.316406 68.257812 53.097656 C 68.257812 53.875 68.890625 54.507812 69.671875 54.507812 C 70.449219 54.507812 71.082031 53.875 71.082031 53.097656 Z M 70.234375 57.332031 C 70.234375 56.550781 69.605469 55.921875 68.824219 55.921875 C 68.042969 55.921875 67.410156 56.550781 67.410156 57.332031 C 67.410156 58.113281 68.042969 58.742188 68.824219 58.742188 C 69.605469 58.742188 70.234375 58.113281 70.234375 57.332031 Z M 69.390625 61.566406 C 69.390625 60.789062 68.757812 60.15625 67.976562 60.15625 C 67.195312 60.15625 66.566406 60.789062 66.566406 61.566406 C 66.566406 62.347656 67.195312 62.980469 67.976562 62.980469 C 68.757812 62.980469 69.390625 62.347656 69.390625 61.566406 Z M 69.390625 61.566406 "/>
<g clip-path="url(#clip-5)">
<g clip-path="url(#clip-6)">
<path fill-rule="evenodd" fill="rgb(44.999695%, 29.998779%, 14.99939%)" fill-opacity="1" d="M 102.710938 29.09375 C 102.710938 25.972656 100.179688 23.445312 97.0625 23.445312 C 93.941406 23.445312 91.414062 25.972656 91.414062 29.09375 C 91.414062 32.210938 93.941406 34.742188 97.0625 34.742188 C 100.179688 34.742188 102.710938 32.210938 102.710938 29.09375 Z M 99.886719 29.09375 C 99.886719 27.535156 98.621094 26.269531 97.0625 26.269531 C 95.503906 26.269531 94.238281 27.535156 94.238281 29.09375 C 94.238281 30.652344 95.503906 31.917969 97.0625 31.917969 C 98.621094 31.917969 99.886719 30.652344 99.886719 29.09375 Z M 99.886719 29.09375 "/>
</g>
</g>
<path fill-rule="nonzero" fill="rgb(44.999695%, 29.998779%, 14.99939%)" fill-opacity="1" d="M 77.125 67.410156 L 91.613281 27.605469 L 94.269531 28.574219 L 79.78125 68.375 Z M 77.125 67.410156 "/>
<path fill-rule="nonzero" fill="rgb(79.998779%, 0%, 0%)" fill-opacity="1" d="M 69.109375 21.296875 C 72.648438 4.84375 82.042969 0 82.042969 0 L 83.675781 6.21875 L 87.3125 0.285156 C 87.3125 0.285156 94.710938 9.464844 92.539062 22.75 C 85.285156 25.027344 72.457031 23.152344 69.109375 21.296875 Z M 69.109375 21.296875 "/>
<g clip-path="url(#clip-7)">
<path fill-rule="nonzero" fill="rgb(92.871094%, 83.229065%, 14.369202%)" fill-opacity="1" d="M 126.148438 41.941406 C 119.199219 43.15625 108.132812 55.722656 119.820312 66.90625 C 131.539062 78.085938 192.507812 70.605469 163 34.203125 C 138.148438 47.5625 146.675781 35.335938 126.148438 41.941406 Z M 126.148438 41.941406 "/>
</g>
<path fill-rule="nonzero" fill="rgb(92.871094%, 83.229065%, 14.369202%)" fill-opacity="1" d="M 151.195312 31.917969 C 151.195312 22.171875 144.875 14.269531 137.074219 14.269531 C 129.277344 14.269531 122.957031 22.171875 122.957031 31.917969 C 122.957031 41.664062 129.277344 49.566406 137.074219 49.566406 C 144.875 49.566406 151.195312 41.664062 151.195312 31.917969 Z M 151.195312 31.917969 "/>
<path fill-rule="nonzero" fill="rgb(87.5%, 50%, 12.5%)" fill-opacity="1" d="M 123.125 32.707031 C 129.820312 31.070312 126.9375 37.480469 137.359375 35.589844 C 114.003906 50.273438 119.257812 35.617188 123.125 32.707031 Z M 123.125 32.707031 "/>
<path fill-rule="nonzero" fill="rgb(100%, 99.234009%, 85.00061%)" fill-opacity="1" d="M 137.203125 30.457031 C 137.871094 28.625 137.351562 26.753906 136.042969 26.277344 C 134.734375 25.800781 133.132812 26.902344 132.464844 28.730469 C 131.800781 30.5625 132.320312 32.433594 133.628906 32.910156 C 134.9375 33.386719 136.539062 32.289062 137.203125 30.457031 Z M 137.203125 30.457031 "/>
<path fill-rule="nonzero" fill="rgb(0%, 0%, 0%)" fill-opacity="1" d="M 136.480469 30.496094 C 136.863281 29.449219 136.746094 28.445312 136.222656 28.253906 C 135.699219 28.066406 134.96875 28.757812 134.585938 29.804688 C 134.207031 30.851562 134.320312 31.855469 134.84375 32.042969 C 135.367188 32.234375 136.101562 31.539062 136.480469 30.496094 Z M 136.480469 30.496094 "/>
<path fill-rule="nonzero" fill="rgb(100%, 99.234009%, 85.00061%)" fill-opacity="1" d="M 128.960938 28.28125 C 129.570312 26.609375 129.128906 24.910156 127.980469 24.492188 C 126.828125 24.070312 125.398438 25.089844 124.789062 26.765625 C 124.179688 28.441406 124.617188 30.136719 125.769531 30.558594 C 126.921875 30.976562 128.351562 29.957031 128.960938 28.28125 Z M 128.960938 28.28125 "/>
<path fill-rule="nonzero" fill="rgb(0%, 0%, 0%)" fill-opacity="1" d="M 128.332031 28.355469 C 128.675781 27.414062 128.613281 26.523438 128.195312 26.371094 C 127.777344 26.21875 127.160156 26.859375 126.816406 27.800781 C 126.472656 28.746094 126.535156 29.632812 126.953125 29.785156 C 127.371094 29.9375 127.988281 29.296875 128.332031 28.355469 Z M 128.332031 28.355469 "/>
<g clip-path="url(#clip-8)">
<path fill-rule="nonzero" fill="rgb(94.999695%, 94.999695%, 94.999695%)" fill-opacity="1" d="M 125.5 41.941406 C 119.199219 43.15625 108.132812 55.722656 119.820312 66.90625 C 131.539062 78.085938 192.507812 70.605469 163 34.203125 C 138.148438 46.714844 146.675781 38.15625 128.320312 46.035156 Z M 125.5 41.941406 "/>
</g>
<path fill-rule="nonzero" fill="rgb(50%, 50%, 50%)" fill-opacity="1" d="M 126.683594 42.875 C 126.683594 42.375 126.28125 41.96875 125.78125 41.96875 C 125.28125 41.96875 124.875 42.375 124.875 42.875 C 124.875 43.371094 125.28125 43.777344 125.78125 43.777344 C 126.28125 43.777344 126.683594 43.371094 126.683594 42.875 Z M 126.964844 44.625 C 126.964844 44.125 126.5625 43.722656 126.0625 43.722656 C 125.5625 43.722656 125.160156 44.125 125.160156 44.625 C 125.160156 45.125 125.5625 45.527344 126.0625 45.527344 C 126.5625 45.527344 126.964844 45.125 126.964844 44.625 Z M 127.25 46.320312 C 127.25 45.820312 126.84375 45.414062 126.34375 45.414062 C 125.847656 45.414062 125.441406 45.820312 125.441406 46.320312 C 125.441406 46.816406 125.847656 47.222656 126.34375 47.222656 C 126.84375 47.222656 127.25 46.816406 127.25 46.320312 Z M 127.8125 47.984375 C 127.8125 47.484375 127.410156 47.082031 126.910156 47.082031 C 126.410156 47.082031 126.007812 47.484375 126.007812 47.984375 C 126.007812 48.484375 126.410156 48.890625 126.910156 48.890625 C 127.410156 48.890625 127.8125 48.484375 127.8125 47.984375 Z M 129.015625 49.285156 C 129.015625 48.785156 128.609375 48.378906 128.109375 48.378906 C 127.609375 48.378906 127.207031 48.785156 127.207031 49.285156 C 127.207031 49.785156 127.609375 50.1875 128.109375 50.1875 C 128.609375 50.1875 129.015625 49.785156 129.015625 49.285156 Z M 130.777344 49.285156 C 130.777344 48.785156 130.375 48.378906 129.875 48.378906 C 129.375 48.378906 128.972656 48.785156 128.972656 49.285156 C 128.972656 49.785156 129.375 50.1875 129.875 50.1875 C 130.375 50.1875 130.777344 49.785156 130.777344 49.285156 Z M 132.332031 48.578125 C 132.332031 48.078125 131.925781 47.675781 131.429688 47.675781 C 130.929688 47.675781 130.523438 48.078125 130.523438 48.578125 C 130.523438 49.078125 130.929688 49.480469 131.429688 49.480469 C 131.925781 49.480469 132.332031 49.078125 132.332031 48.578125 Z M 133.742188 47.589844 C 133.742188 47.089844 133.339844 46.6875 132.839844 46.6875 C 132.339844 46.6875 131.9375 47.089844 131.9375 47.589844 C 131.9375 48.089844 132.339844 48.492188 132.839844 48.492188 C 133.339844 48.492188 133.742188 48.089844 133.742188 47.589844 Z M 135.15625 46.601562 C 135.15625 46.101562 134.75 45.699219 134.253906 45.699219 C 133.753906 45.699219 133.347656 46.101562 133.347656 46.601562 C 133.347656 47.101562 133.753906 47.503906 134.253906 47.503906 C 134.75 47.503906 135.15625 47.101562 135.15625 46.601562 Z M 136.566406 45.472656 C 136.566406 44.972656 136.164062 44.566406 135.664062 44.566406 C 135.164062 44.566406 134.761719 44.972656 134.761719 45.472656 C 134.761719 45.972656 135.164062 46.375 135.664062 46.375 C 136.164062 46.375 136.566406 45.972656 136.566406 45.472656 Z M 137.980469 44.625 C 137.980469 44.125 137.574219 43.722656 137.074219 43.722656 C 136.578125 43.722656 136.171875 44.125 136.171875 44.625 C 136.171875 45.125 136.578125 45.527344 137.074219 45.527344 C 137.574219 45.527344 137.980469 45.125 137.980469 44.625 Z M 139.390625 43.777344 C 139.390625 43.277344 138.988281 42.875 138.488281 42.875 C 137.988281 42.875 137.585938 43.277344 137.585938 43.777344 C 137.585938 44.277344 137.988281 44.679688 138.488281 44.679688 C 138.988281 44.679688 139.390625 44.277344 139.390625 43.777344 Z M 140.804688 42.929688 C 140.804688 42.429688 140.398438 42.027344 139.898438 42.027344 C 139.402344 42.027344 138.996094 42.429688 138.996094 42.929688 C 138.996094 43.429688 139.402344 43.835938 139.898438 43.835938 C 140.398438 43.835938 140.804688 43.429688 140.804688 42.929688 Z M 142.355469 42.367188 C 142.355469 41.867188 141.953125 41.460938 141.453125 41.460938 C 140.953125 41.460938 140.550781 41.867188 140.550781 42.367188 C 140.550781 42.863281 140.953125 43.269531 141.453125 43.269531 C 141.953125 43.269531 142.355469 42.863281 142.355469 42.367188 Z M 143.910156 41.800781 C 143.910156 41.300781 143.503906 40.898438 143.007812 40.898438 C 142.507812 40.898438 142.101562 41.300781 142.101562 41.800781 C 142.101562 42.300781 142.507812 42.703125 143.007812 42.703125 C 143.503906 42.703125 143.910156 42.300781 143.910156 41.800781 Z M 145.460938 41.378906 C 145.460938 40.878906 145.058594 40.472656 144.558594 40.472656 C 144.058594 40.472656 143.65625 40.878906 143.65625 41.378906 C 143.65625 41.875 144.058594 42.28125 144.558594 42.28125 C 145.058594 42.28125 145.460938 41.875 145.460938 41.378906 Z M 147.015625 40.953125 C 147.015625 40.453125 146.609375 40.050781 146.113281 40.050781 C 145.613281 40.050781 145.207031 40.453125 145.207031 40.953125 C 145.207031 41.453125 145.613281 41.859375 146.113281 41.859375 C 146.609375 41.859375 147.015625 41.453125 147.015625 40.953125 Z M 148.570312 40.53125 C 148.570312 40.03125 148.164062 39.625 147.664062 39.625 C 147.167969 39.625 146.761719 40.03125 146.761719 40.53125 C 146.761719 41.027344 147.167969 41.433594 147.664062 41.433594 C 148.164062 41.433594 148.570312 41.027344 148.570312 40.53125 Z M 150.121094 40.105469 C 150.121094 39.605469 149.71875 39.203125 149.21875 39.203125 C 148.71875 39.203125 148.316406 39.605469 148.316406 40.105469 C 148.316406 40.605469 148.71875 41.011719 149.21875 41.011719 C 149.71875 41.011719 150.121094 40.605469 150.121094 40.105469 Z M 150.121094 40.105469 "/>
<path fill-rule="nonzero" fill="rgb(50%, 50%, 50%)" fill-opacity="1" d="M 128.039062 53.097656 C 128.039062 52.316406 127.40625 51.683594 126.628906 51.683594 C 125.847656 51.683594 125.214844 52.316406 125.214844 53.097656 C 125.214844 53.875 125.847656 54.507812 126.628906 54.507812 C 127.40625 54.507812 128.039062 53.875 128.039062 53.097656 Z M 127.191406 57.332031 C 127.191406 56.550781 126.558594 55.921875 125.78125 55.921875 C 125 55.921875 124.367188 56.550781 124.367188 57.332031 C 124.367188 58.113281 125 58.742188 125.78125 58.742188 C 126.558594 58.742188 127.191406 58.113281 127.191406 57.332031 Z M 126.34375 61.566406 C 126.34375 60.789062 125.714844 60.15625 124.933594 60.15625 C 124.152344 60.15625 123.519531 60.789062 123.519531 61.566406 C 123.519531 62.347656 124.152344 62.980469 124.933594 62.980469 C 125.714844 62.980469 126.34375 62.347656 126.34375 61.566406 Z M 126.34375 61.566406 "/>
<g clip-path="url(#clip-9)">
<g clip-path="url(#clip-10)">
<path fill-rule="evenodd" fill="rgb(34.999084%, 34.999084%, 34.999084%)" fill-opacity="1" d="M 159.667969 29.09375 C 159.667969 25.972656 157.136719 23.445312 154.019531 23.445312 C 150.898438 23.445312 148.371094 25.972656 148.371094 29.09375 C 148.371094 32.210938 150.898438 34.742188 154.019531 34.742188 C 157.136719 34.742188 159.667969 32.210938 159.667969 29.09375 Z M 156.84375 29.09375 C 156.84375 27.535156 155.578125 26.269531 154.019531 26.269531 C 152.460938 26.269531 151.195312 27.535156 151.195312 29.09375 C 151.195312 30.652344 152.460938 31.917969 154.019531 31.917969 C 155.578125 31.917969 156.84375 30.652344 156.84375 29.09375 Z M 156.84375 29.09375 "/>
</g>
</g>
<path fill-rule="nonzero" fill="rgb(34.999084%, 34.999084%, 34.999084%)" fill-opacity="1" d="M 134.082031 67.410156 L 148.570312 27.605469 L 151.222656 28.574219 L 136.738281 68.375 Z M 134.082031 67.410156 "/>
<path fill-rule="nonzero" fill="rgb(94.999695%, 94.999695%, 94.999695%)" fill-opacity="1" d="M 126.066406 21.296875 C 129.605469 4.84375 139 0 139 0 L 140.632812 6.21875 L 144.269531 0.285156 C 144.269531 0.285156 151.667969 9.464844 149.496094 22.75 C 142.242188 25.027344 129.410156 23.152344 126.066406 21.296875 Z M 126.066406 21.296875 "/>
</svg>
