<?xml version="1.0" encoding="UTF-8"?>
<svg xmlns="http://www.w3.org/2000/svg" xmlns:xlink="http://www.w3.org/1999/xlink" width="107.268" height="64.505" viewBox="0 0 107.268 64.505">
<defs>
<clipPath id="clip-0">
<path clip-rule="nonzero" d="M 0.046875 0 L 106.496094 0 L 106.496094 64.015625 L 0.046875 64.015625 Z M 0.046875 0 "/>
</clipPath>
<clipPath id="clip-1">
<path clip-rule="nonzero" d="M 50 26 L 106.496094 26 L 106.496094 64.015625 L 50 64.015625 Z M 50 26 "/>
</clipPath>
<clipPath id="clip-2">
<path clip-rule="nonzero" d="M 0.046875 33 L 85 33 L 85 64 L 0.046875 64 Z M 0.046875 33 "/>
</clipPath>
</defs>
<g clip-path="url(#clip-0)">
<path fill-rule="nonzero" fill="rgb(89.99939%, 89.99939%, 89.99939%)" fill-opacity="1" d="M 0.046875 64.015625 L 106.496094 64.015625 L 106.496094 0 L 0.046875 0 Z M 0.046875 64.015625 "/>
</g>
<path fill-rule="nonzero" fill="rgb(0%, 0%, 0%)" fill-opacity="1" d="M 69.148438 0 C 65.339844 7.234375 69.691406 9.925781 70.941406 10.855469 C 72.019531 11.480469 72.105469 11.941406 72.328125 12.890625 C 72.328125 14.519531 71.074219 15.835938 69.523438 15.835938 C 68.617188 15.691406 67.789062 15.542969 67.015625 14.65625 C 67.015625 14.65625 59.945312 4.210938 69.148438 0 Z M 69.148438 0 "/>
<g clip-path="url(#clip-1)">
<path fill-rule="nonzero" fill="rgb(100%, 0%, 0%)" fill-opacity="1" d="M 61.855469 34.617188 C 54.933594 35.828125 43.90625 48.34375 55.550781 59.484375 C 67.226562 70.625 127.960938 63.171875 98.566406 26.910156 C 73.808594 40.214844 82.304688 28.035156 61.855469 34.617188 Z M 61.855469 34.617188 "/>
</g>
<path fill-rule="nonzero" fill="rgb(100%, 0%, 0%)" fill-opacity="1" d="M 86.804688 24.628906 C 86.804688 14.921875 80.507812 7.050781 72.742188 7.050781 C 64.972656 7.050781 58.675781 14.921875 58.675781 24.628906 C 58.675781 34.339844 64.972656 42.210938 72.742188 42.210938 C 80.507812 42.210938 86.804688 34.339844 86.804688 24.628906 Z M 86.804688 24.628906 "/>
<path fill-rule="nonzero" fill="rgb(0%, 0%, 0%)" fill-opacity="1" d="M 58.84375 25.417969 C 65.511719 23.785156 65.511719 23.785156 69.925781 30.257812 C 49.757812 42.914062 54.988281 28.316406 58.84375 25.417969 Z M 58.84375 25.417969 "/>
<path fill-rule="nonzero" fill="rgb(100%, 99.234009%, 85.00061%)" fill-opacity="1" d="M 72.867188 23.175781 C 73.53125 21.351562 73.015625 19.488281 71.710938 19.011719 C 70.40625 18.539062 68.8125 19.632812 68.148438 21.457031 C 67.484375 23.28125 68.003906 25.148438 69.304688 25.621094 C 70.609375 26.097656 72.203125 25 72.867188 23.175781 Z M 72.867188 23.175781 "/>
<path fill-rule="nonzero" fill="rgb(0%, 0%, 0%)" fill-opacity="1" d="M 72.148438 23.214844 C 72.527344 22.171875 72.414062 21.171875 71.890625 20.984375 C 71.371094 20.792969 70.640625 21.484375 70.261719 22.527344 C 69.882812 23.570312 69.996094 24.566406 70.519531 24.757812 C 71.039062 24.945312 71.769531 24.253906 72.148438 23.214844 Z M 72.148438 23.214844 "/>
<path fill-rule="nonzero" fill="rgb(100%, 99.234009%, 85.00061%)" fill-opacity="1" d="M 64.65625 21.011719 C 65.261719 19.339844 64.824219 17.648438 63.679688 17.230469 C 62.53125 16.816406 61.109375 17.828125 60.5 19.496094 C 59.894531 21.167969 60.332031 22.859375 61.476562 23.273438 C 62.625 23.691406 64.046875 22.679688 64.65625 21.011719 Z M 64.65625 21.011719 "/>
<path fill-rule="nonzero" fill="rgb(0%, 0%, 0%)" fill-opacity="1" d="M 64.03125 21.082031 C 64.371094 20.144531 64.3125 19.257812 63.894531 19.105469 C 63.476562 18.957031 62.859375 19.59375 62.519531 20.53125 C 62.175781 21.46875 62.238281 22.355469 62.65625 22.507812 C 63.074219 22.660156 63.6875 22.019531 64.03125 21.082031 Z M 64.03125 21.082031 "/>
<path fill-rule="nonzero" fill="rgb(0%, 0%, 0%)" fill-opacity="1" d="M 81.699219 0.660156 C 85.511719 7.894531 81.160156 10.582031 79.910156 11.511719 C 78.832031 12.136719 78.742188 12.597656 78.523438 13.554688 C 78.523438 15.175781 79.777344 16.492188 81.324219 16.492188 C 82.230469 16.347656 83.0625 16.203125 83.835938 15.316406 C 83.835938 15.316406 90.90625 4.867188 81.699219 0.660156 Z M 81.699219 0.660156 "/>
<g clip-path="url(#clip-2)">
<path fill-rule="nonzero" fill="rgb(0%, 0%, 0%)" fill-opacity="1" d="M 19.066406 63.457031 L 9.140625 59.683594 L 6.800781 58.792969 L 19.066406 54.132812 L 15.792969 57.84375 L 26.421875 57.84375 C 27.972656 55.035156 28.820312 52.320312 28.984375 49.609375 L 9.035156 49.609375 L 12.3125 53.320312 L 2.382812 49.546875 L 0.046875 48.660156 L 12.3125 43.996094 L 9.035156 47.710938 L 28.984375 47.710938 C 28.820312 45.003906 27.972656 42.285156 26.421875 39.476562 L 15.792969 39.476562 L 19.066406 43.1875 L 9.140625 39.414062 L 6.800781 38.527344 L 19.066406 33.863281 L 15.792969 37.578125 L 27.585938 37.578125 C 29.304688 40.835938 30.691406 44.542969 30.886719 47.710938 L 84.460938 47.710938 L 84.460938 49.609375 L 30.886719 49.609375 C 30.394531 53.550781 29.238281 56.835938 27.585938 59.742188 L 15.792969 59.742188 Z M 19.066406 63.457031 "/>
</g>
</svg>
