<?xml version="1.0" encoding="UTF-8"?>
<svg xmlns="http://www.w3.org/2000/svg" xmlns:xlink="http://www.w3.org/1999/xlink" width="57.175" height="72.346" viewBox="0 0 57.175 72.346">
<defs>
<clipPath id="clip-0">
<path clip-rule="nonzero" d="M 0 0.191406 L 56.363281 0.191406 L 56.363281 71.507812 L 0 71.507812 Z M 0 0.191406 "/>
</clipPath>
<clipPath id="clip-1">
<path clip-rule="nonzero" d="M 0 34 L 56.363281 34 L 56.363281 71.507812 L 0 71.507812 Z M 0 34 "/>
</clipPath>
<clipPath id="clip-2">
<path clip-rule="nonzero" d="M 0 34 L 56.363281 34 L 56.363281 71.507812 L 0 71.507812 Z M 0 34 "/>
</clipPath>
<clipPath id="clip-3">
<path clip-rule="nonzero" d="M 22 0.191406 L 35 0.191406 L 35 7 L 22 7 Z M 22 0.191406 "/>
</clipPath>
</defs>
<g clip-path="url(#clip-0)">
<path fill-rule="nonzero" fill="rgb(89.99939%, 89.99939%, 89.99939%)" fill-opacity="1" d="M 0 71.507812 L 56.363281 71.507812 L 56.363281 0.191406 L 0 0.191406 Z M 0 71.507812 "/>
</g>
<g clip-path="url(#clip-1)">
<path fill-rule="nonzero" fill="rgb(100%, 88.233948%, 70.588684%)" fill-opacity="1" d="M 12.015625 42.308594 C 5.140625 43.511719 -5.8125 55.945312 5.757812 67.011719 C 17.351562 78.074219 77.683594 70.671875 48.480469 34.652344 C 23.890625 47.871094 32.332031 35.769531 12.015625 42.308594 Z M 12.015625 42.308594 "/>
</g>
<path fill-rule="nonzero" fill="rgb(100%, 88.233948%, 70.588684%)" fill-opacity="1" d="M 36.800781 32.386719 C 36.800781 22.742188 30.546875 14.921875 22.828125 14.921875 C 15.113281 14.921875 8.859375 22.742188 8.859375 32.386719 C 8.859375 42.035156 15.113281 49.851562 22.828125 49.851562 C 30.546875 49.851562 36.800781 42.035156 36.800781 32.386719 Z M 36.800781 32.386719 "/>
<path fill-rule="nonzero" fill="rgb(75.292969%, 43.136597%, 10.978699%)" fill-opacity="1" d="M 9.027344 33.171875 C 15.648438 31.550781 12.796875 37.894531 23.109375 36.019531 C 0 50.550781 5.195312 36.050781 9.027344 33.171875 Z M 9.027344 33.171875 "/>
<path fill-rule="nonzero" fill="rgb(100%, 99.234009%, 85.00061%)" fill-opacity="1" d="M 22.957031 30.945312 C 23.617188 29.128906 23.101562 27.277344 21.808594 26.808594 C 20.511719 26.335938 18.925781 27.421875 18.269531 29.238281 C 17.609375 31.050781 18.121094 32.902344 19.417969 33.371094 C 20.710938 33.84375 22.296875 32.757812 22.957031 30.945312 Z M 22.957031 30.945312 "/>
<path fill-rule="nonzero" fill="rgb(0%, 0%, 0%)" fill-opacity="1" d="M 22.242188 30.980469 C 22.621094 29.945312 22.503906 28.953125 21.988281 28.765625 C 21.46875 28.574219 20.742188 29.261719 20.367188 30.296875 C 19.992188 31.332031 20.105469 32.324219 20.621094 32.515625 C 21.140625 32.703125 21.867188 32.015625 22.242188 30.980469 Z M 22.242188 30.980469 "/>
<path fill-rule="nonzero" fill="rgb(100%, 99.234009%, 85.00061%)" fill-opacity="1" d="M 14.800781 28.792969 C 15.402344 27.132812 14.96875 25.453125 13.828125 25.039062 C 12.6875 24.625 11.273438 25.632812 10.671875 27.289062 C 10.066406 28.945312 10.503906 30.628906 11.640625 31.042969 C 12.78125 31.457031 14.195312 30.449219 14.800781 28.792969 Z M 14.800781 28.792969 "/>
<path fill-rule="nonzero" fill="rgb(0%, 0%, 0%)" fill-opacity="1" d="M 14.179688 28.863281 C 14.515625 27.929688 14.457031 27.050781 14.042969 26.902344 C 13.625 26.75 13.015625 27.382812 12.675781 28.316406 C 12.335938 29.25 12.398438 30.128906 12.8125 30.277344 C 13.226562 30.429688 13.839844 29.796875 14.179688 28.863281 Z M 14.179688 28.863281 "/>
<g clip-path="url(#clip-2)">
<path fill-rule="nonzero" fill="rgb(98.039246%, 74.900818%, 67.843628%)" fill-opacity="1" d="M 11.371094 42.308594 C 5.140625 43.511719 -5.8125 55.945312 5.757812 67.011719 C 17.351562 78.074219 77.683594 70.671875 48.480469 34.652344 C 23.890625 47.03125 32.332031 38.5625 14.167969 46.359375 Z M 11.371094 42.308594 "/>
<path fill-rule="nonzero" fill="rgb(83.529663%, 58.822632%, 40.783691%)" fill-opacity="1" d="M 11.371094 42.308594 C 5.140625 43.511719 -5.8125 55.945312 5.757812 67.011719 C 17.351562 78.074219 77.683594 70.671875 48.480469 34.652344 C 22.269531 47.871094 32.332031 35.796875 12.015625 54.742188 Z M 11.371094 42.308594 "/>
</g>
<path fill-rule="nonzero" fill="rgb(54.508972%, 27.059937%, 7.450867%)" fill-opacity="1" d="M 11.371094 42.308594 C 8.8125 42.726562 7.503906 44.125 7.503906 44.125 L 9.597656 45.824219 L 7.460938 46.917969 L 12.015625 54.742188 L 25.871094 48.703125 L 24.359375 46.730469 L 28.960938 46.96875 L 27.921875 42.589844 C 24.550781 43.566406 21.847656 45.523438 12.015625 54.742188 Z M 11.371094 42.308594 "/>
<path fill-rule="nonzero" fill="rgb(69.802856%, 13.331604%, 13.331604%)" fill-opacity="1" d="M 9.925781 43.273438 C 8.8125 44.484375 8.609375 47.660156 9.183594 48.664062 C 11.535156 48.976562 13.46875 47.792969 13.46875 47.792969 L 15.699219 48.042969 C 15.699219 48.042969 16.617188 49.589844 20.148438 50.023438 C 20.9375 49 21.214844 46.289062 20.828125 44.820312 C 19.703125 43.726562 15.945312 45.5625 15.945312 45.5625 L 13.71875 45.316406 C 13.71875 45.316406 12.871094 43.6875 9.925781 43.273438 Z M 9.925781 43.273438 "/>
<path fill-rule="nonzero" fill="rgb(54.508972%, 27.059937%, 7.450867%)" fill-opacity="1" d="M 12.769531 57.539062 C 12.769531 56.765625 12.144531 56.140625 11.371094 56.140625 C 10.601562 56.140625 9.976562 56.765625 9.976562 57.539062 C 9.976562 58.308594 10.601562 58.933594 11.371094 58.933594 C 12.144531 58.933594 12.769531 58.308594 12.769531 57.539062 Z M 11.933594 61.730469 C 11.933594 60.957031 11.304688 60.332031 10.535156 60.332031 C 9.761719 60.332031 9.136719 60.957031 9.136719 61.730469 C 9.136719 62.5 9.761719 63.125 10.535156 63.125 C 11.304688 63.125 11.933594 62.5 11.933594 61.730469 Z M 11.652344 65.921875 C 11.652344 65.148438 11.027344 64.523438 10.253906 64.523438 C 9.484375 64.523438 8.859375 65.148438 8.859375 65.921875 C 8.859375 66.691406 9.484375 67.316406 10.253906 67.316406 C 11.027344 67.316406 11.652344 66.691406 11.652344 65.921875 Z M 11.652344 65.921875 "/>
<path fill-rule="nonzero" fill="rgb(36.471558%, 25.489807%, 18.429565%)" fill-opacity="1" d="M 36.652344 34.695312 C 38.328125 33.734375 38.753906 28.011719 37.761719 24.027344 C 32.6875 4.351562 4.214844 10.84375 9.28125 29.855469 C 9.820312 22.023438 18.417969 15.625 24.210938 21.058594 C 31.886719 28.265625 34.890625 35.703125 36.652344 34.695312 Z M 36.652344 34.695312 "/>
<path fill-rule="nonzero" fill="rgb(62.82196%, 11.999512%, 11.999512%)" fill-opacity="1" d="M 22.597656 1.890625 L 16.867188 14.03125 L 33.285156 18.34375 L 34.839844 5.054688 Z M 22.597656 1.890625 "/>
<path fill-rule="nonzero" fill="rgb(62.82196%, 11.999512%, 11.999512%)" fill-opacity="1" d="M 33.292969 18.574219 C 32.875 20.050781 28.882812 20.210938 24.375 18.929688 C 22.210938 18.320312 20.210938 17.445312 18.824219 16.511719 C 17.4375 15.574219 16.769531 14.648438 16.972656 13.941406 C 17.390625 12.464844 21.382812 12.304688 25.890625 13.585938 C 28.058594 14.203125 30.054688 15.074219 31.441406 16.011719 C 32.828125 16.945312 33.496094 17.871094 33.292969 18.574219 Z M 33.292969 18.574219 "/>
<g clip-path="url(#clip-3)">
<path fill-rule="nonzero" fill="rgb(69.802856%, 13.331604%, 13.331604%)" fill-opacity="1" d="M 34.839844 5.054688 C 34.65625 5.714844 33.832031 6.167969 32.550781 6.304688 C 31.273438 6.445312 29.644531 6.269531 28.023438 5.804688 C 24.648438 4.851562 22.230469 2.957031 22.617188 1.582031 C 22.804688 0.921875 23.625 0.472656 24.90625 0.332031 C 26.1875 0.191406 27.816406 0.371094 29.4375 0.832031 C 32.8125 1.789062 35.234375 3.679688 34.839844 5.054688 Z M 34.839844 5.054688 "/>
</g>
<path fill-rule="nonzero" fill="rgb(0%, 0%, 0%)" fill-opacity="1" d="M 29.199219 1.460938 C 28.800781 1.347656 28.335938 1.75 28.164062 2.359375 C 27.992188 2.96875 28.171875 3.554688 28.570312 3.667969 C 28.605469 3.679688 28.644531 3.683594 28.679688 3.6875 L 31.65625 6.554688 L 30.898438 10.984375 C 30.4375 11.160156 30.023438 11.679688 29.839844 12.332031 C 29.574219 13.261719 29.859375 14.160156 30.460938 14.332031 C 31.070312 14.503906 31.78125 13.886719 32.046875 12.953125 C 32.261719 12.1875 32.117188 11.417969 31.6875 11.089844 L 32.507812 6.277344 L 29.375 3.253906 C 29.476562 3.113281 29.554688 2.945312 29.601562 2.769531 C 29.777344 2.15625 29.59375 1.570312 29.199219 1.460938 Z M 29.199219 1.460938 "/>
<path fill-rule="nonzero" fill="rgb(50%, 50%, 50%)" fill-opacity="1" d="M 28.769531 60.410156 C 25.496094 65.246094 22.269531 68.78125 21.5625 68.300781 C 20.851562 67.816406 22.925781 63.511719 26.195312 58.671875 C 29.464844 53.835938 32.6875 50.304688 33.402344 50.785156 C 34.109375 51.261719 32.035156 55.574219 28.769531 60.410156 Z M 28.769531 60.410156 "/>
<path fill-rule="nonzero" fill="rgb(50%, 100%, 0%)" fill-opacity="1" d="M 30.644531 54.015625 C 29.4375 55.675781 28.34375 56.941406 28.199219 56.839844 C 28.058594 56.738281 28.921875 55.304688 30.125 53.640625 C 31.332031 51.972656 32.429688 50.710938 32.566406 50.8125 C 32.714844 50.921875 31.851562 52.351562 30.644531 54.015625 Z M 31.242188 54.449219 C 30.035156 56.113281 28.945312 57.378906 28.800781 57.273438 C 28.660156 57.167969 29.519531 55.738281 30.726562 54.074219 C 31.933594 52.410156 33.027344 51.148438 33.171875 51.25 C 33.3125 51.355469 32.449219 52.785156 31.242188 54.449219 Z M 31.839844 54.882812 C 30.632812 56.546875 29.542969 57.8125 29.398438 57.707031 C 29.257812 57.605469 30.121094 56.171875 31.324219 54.507812 C 32.53125 52.847656 33.628906 51.582031 33.765625 51.6875 C 33.914062 51.785156 33.046875 53.21875 31.839844 54.882812 Z M 31.839844 54.882812 "/>
</svg>
