<?xml version="1.0" encoding="UTF-8"?>
<svg xmlns="http://www.w3.org/2000/svg" xmlns:xlink="http://www.w3.org/1999/xlink" width="57.941" height="58.394" viewBox="0 0 57.941 58.394">
<defs>
<clipPath id="clip-0">
<path clip-rule="nonzero" d="M 0.269531 0 L 57.613281 0 L 57.613281 57.792969 L 0.269531 57.792969 Z M 0.269531 0 "/>
</clipPath>
<clipPath id="clip-1">
<path clip-rule="nonzero" d="M 0.269531 12 L 30 12 L 30 34 L 0.269531 34 Z M 0.269531 12 "/>
</clipPath>
</defs>
<g clip-path="url(#clip-0)">
<path fill-rule="nonzero" fill="rgb(89.99939%, 89.99939%, 89.99939%)" fill-opacity="1" d="M 0.269531 57.792969 L 57.613281 57.792969 L 57.613281 0 L 0.269531 0 Z M 0.269531 57.792969 "/>
<path fill="none" stroke-width="0.3985" stroke-linecap="butt" stroke-linejoin="miter" stroke="rgb(0%, 0%, 0%)" stroke-opacity="1" stroke-miterlimit="10" d="M 25.085018 60.45282 C 17.254591 60.45282 10.904208 52.511882 10.904208 42.723848 C 10.904208 38.919144 11.871171 35.406502 13.501195 32.517453 C 6.51538 30.709824 -3.651546 18.490568 7.754671 7.577699 C 19.527941 -3.65486 80.766306 3.863771 51.125927 40.42287 C 44.826853 37.040473 40.666938 35.292045 37.631858 34.46322 C 38.67381 36.929963 39.269775 39.736129 39.269775 42.723848 C 39.269775 52.511882 32.919393 60.45282 25.085018 60.45282 Z M 25.085018 60.45282 " transform="matrix(0.989729, 0, 0, -0.989729, -1.862522, 60.038929)"/>
</g>
<path fill-rule="nonzero" fill="rgb(100%, 100%, 100%)" fill-opacity="1" d="M 9.527344 18.742188 C 16.175781 17.113281 13.316406 23.484375 23.667969 21.601562 C 0.464844 36.191406 5.683594 21.628906 9.527344 18.742188 Z M 9.527344 18.742188 "/>
<g clip-path="url(#clip-1)">
<path fill="none" stroke-width="0.3985" stroke-linecap="butt" stroke-linejoin="miter" stroke="rgb(0%, 0%, 0%)" stroke-opacity="1" stroke-miterlimit="10" d="M 11.508067 41.72531 C 18.2255 43.371121 15.336452 36.933909 25.79544 38.836261 C 2.351518 24.095007 7.624427 38.808634 11.508067 41.72531 Z M 11.508067 41.72531 " transform="matrix(0.989729, 0, 0, -0.989729, -1.862522, 60.038929)"/>
</g>
<path fill="none" stroke-width="0.3985" stroke-linecap="butt" stroke-linejoin="miter" stroke="rgb(0%, 0%, 0%)" stroke-opacity="1" stroke-miterlimit="10" d="M 25.641516 43.98682 C 26.31247 45.826023 25.787547 47.704694 24.473266 48.182256 C 23.162933 48.659817 21.552643 47.554716 20.885636 45.71946 C 20.214682 43.880257 20.735658 42.001585 22.049938 41.524024 C 23.364219 41.042516 24.970562 42.147617 25.641516 43.98682 Z M 25.641516 43.98682 " transform="matrix(0.989729, 0, 0, -0.989729, -1.862522, 60.038929)"/>
<path fill="none" stroke-width="0.3985" stroke-linecap="butt" stroke-linejoin="miter" stroke="rgb(0%, 0%, 0%)" stroke-opacity="1" stroke-miterlimit="10" d="M 24.915306 43.947352 C 25.298145 44.997198 25.183688 46.003629 24.658765 46.197021 C 24.133842 46.386467 23.395793 45.691832 23.012955 44.641987 C 22.630116 43.592141 22.74852 42.58571 23.273443 42.392317 C 23.798365 42.202872 24.532468 42.897506 24.915306 43.947352 Z M 24.915306 43.947352 " transform="matrix(0.989729, 0, 0, -0.989729, -1.862522, 60.038929)"/>
<path fill="none" stroke-width="0.3985" stroke-linecap="butt" stroke-linejoin="miter" stroke="rgb(0%, 0%, 0%)" stroke-opacity="1" stroke-miterlimit="10" d="M 17.365101 46.169394 C 17.976853 47.850726 17.534813 49.555738 16.378404 49.974098 C 15.221995 50.396404 13.789311 49.374186 13.177558 47.692854 C 12.565806 46.011522 13.007846 44.30651 14.164255 43.884203 C 15.320664 43.465844 16.753348 44.488062 17.365101 46.169394 Z M 17.365101 46.169394 " transform="matrix(0.989729, 0, 0, -0.989729, -1.862522, 60.038929)"/>
<path fill="none" stroke-width="0.3985" stroke-linecap="butt" stroke-linejoin="miter" stroke="rgb(0%, 0%, 0%)" stroke-opacity="1" stroke-miterlimit="10" d="M 16.733615 46.094405 C 17.080932 47.041634 17.017783 47.933608 16.595477 48.087533 C 16.177117 48.237511 15.557472 47.598131 15.214101 46.650902 C 14.866784 45.703673 14.929932 44.815645 15.352239 44.661721 C 15.770598 44.507796 16.390244 45.151122 16.733615 46.094405 Z M 16.733615 46.094405 " transform="matrix(0.989729, 0, 0, -0.989729, -1.862522, 60.038929)"/>
</svg>
