<?xml version="1.0" encoding="UTF-8"?>
<svg xmlns="http://www.w3.org/2000/svg" xmlns:xlink="http://www.w3.org/1999/xlink" width="57.175" height="63.575" viewBox="0 0 57.175 63.575">
<defs>
<clipPath id="clip-0">
<path clip-rule="nonzero" d="M 0 0.242188 L 56.363281 0.242188 L 56.363281 62.914062 L 0 62.914062 Z M 0 0.242188 "/>
</clipPath>
<clipPath id="clip-1">
<path clip-rule="nonzero" d="M 0 26 L 56.363281 26 L 56.363281 62.914062 L 0 62.914062 Z M 0 26 "/>
</clipPath>
<clipPath id="clip-2">
<path clip-rule="nonzero" d="M 0 26 L 56.363281 26 L 56.363281 62.914062 L 0 62.914062 Z M 0 26 "/>
</clipPath>
<clipPath id="clip-3">
<path clip-rule="nonzero" d="M 0 26 L 56.363281 26 L 56.363281 62.914062 L 0 62.914062 Z M 0 26 "/>
</clipPath>
<clipPath id="clip-4">
<path clip-rule="nonzero" d="M 16 0.242188 L 37 0.242188 L 37 8 L 16 8 Z M 16 0.242188 "/>
</clipPath>
</defs>
<g clip-path="url(#clip-0)">
<path fill-rule="nonzero" fill="rgb(89.99939%, 89.99939%, 89.99939%)" fill-opacity="1" d="M 0 62.914062 L 56.363281 62.914062 L 56.363281 0.242188 L 0 0.242188 Z M 0 62.914062 "/>
</g>
<g clip-path="url(#clip-1)">
<path fill-rule="nonzero" fill="rgb(94.119263%, 87.120056%, 57.711792%)" fill-opacity="1" d="M 12.015625 33.710938 C 5.140625 34.914062 -5.8125 47.347656 5.757812 58.414062 C 17.351562 69.480469 77.683594 62.074219 48.480469 26.054688 C 23.890625 39.273438 32.332031 27.175781 12.015625 33.710938 Z M 12.015625 33.710938 "/>
</g>
<path fill-rule="nonzero" fill="rgb(94.119263%, 87.120056%, 57.711792%)" fill-opacity="1" d="M 36.800781 23.792969 C 36.800781 14.148438 30.546875 6.328125 22.828125 6.328125 C 15.113281 6.328125 8.859375 14.148438 8.859375 23.792969 C 8.859375 33.4375 15.113281 41.257812 22.828125 41.257812 C 30.546875 41.257812 36.800781 33.4375 36.800781 23.792969 Z M 36.800781 23.792969 "/>
<path fill-rule="nonzero" fill="rgb(87.5%, 50%, 12.5%)" fill-opacity="1" d="M 9.027344 24.574219 C 15.648438 22.953125 15.648438 22.953125 20.035156 29.382812 C 0 41.957031 5.195312 27.453125 9.027344 24.574219 Z M 9.027344 24.574219 "/>
<path fill-rule="nonzero" fill="rgb(100%, 99.234009%, 85.00061%)" fill-opacity="1" d="M 22.957031 22.347656 C 23.617188 20.535156 23.101562 18.683594 21.808594 18.210938 C 20.511719 17.742188 18.925781 18.828125 18.269531 20.640625 C 17.609375 22.453125 18.121094 24.304688 19.417969 24.777344 C 20.710938 25.246094 22.296875 24.160156 22.957031 22.347656 Z M 22.957031 22.347656 "/>
<path fill-rule="nonzero" fill="rgb(0%, 0%, 0%)" fill-opacity="1" d="M 22.242188 22.382812 C 22.621094 21.347656 22.503906 20.355469 21.988281 20.167969 C 21.46875 19.980469 20.742188 20.667969 20.367188 21.703125 C 19.992188 22.738281 20.105469 23.730469 20.621094 23.917969 C 21.140625 24.105469 21.867188 23.421875 22.242188 22.382812 Z M 22.242188 22.382812 "/>
<path fill-rule="nonzero" fill="rgb(100%, 99.234009%, 85.00061%)" fill-opacity="1" d="M 14.800781 20.195312 C 15.402344 18.539062 14.96875 16.859375 13.828125 16.441406 C 12.6875 16.027344 11.273438 17.035156 10.671875 18.695312 C 10.066406 20.351562 10.503906 22.03125 11.640625 22.445312 C 12.78125 22.859375 14.195312 21.855469 14.800781 20.195312 Z M 14.800781 20.195312 "/>
<path fill-rule="nonzero" fill="rgb(0%, 0%, 0%)" fill-opacity="1" d="M 14.179688 20.265625 C 14.515625 19.335938 14.457031 18.457031 14.042969 18.304688 C 13.625 18.15625 13.015625 18.789062 12.675781 19.722656 C 12.335938 20.652344 12.398438 21.53125 12.8125 21.683594 C 13.226562 21.832031 13.839844 21.199219 14.179688 20.265625 Z M 14.179688 20.265625 "/>
<g clip-path="url(#clip-2)">
<path fill-rule="nonzero" fill="rgb(100%, 100%, 100%)" fill-opacity="1" d="M 11.371094 33.710938 C 5.140625 34.914062 -5.8125 47.347656 5.757812 58.414062 C 17.351562 69.480469 77.683594 62.074219 48.480469 26.054688 C 23.890625 38.433594 32.332031 29.96875 14.167969 37.765625 Z M 11.371094 33.710938 "/>
</g>
<path fill-rule="nonzero" fill="rgb(0%, 0%, 0%)" fill-opacity="1" d="M 10.492188 48.433594 L 13.109375 36.132812 L 16.113281 36.773438 L 13.5 49.074219 Z M 10.492188 48.433594 "/>
<g clip-path="url(#clip-3)">
<path fill-rule="nonzero" fill="rgb(0%, 0%, 0%)" fill-opacity="1" d="M 11.371094 33.710938 C 5.140625 34.914062 -5.8125 47.347656 5.757812 58.414062 C 17.351562 69.480469 77.683594 62.074219 48.480469 26.054688 C 22.269531 39.273438 32.332031 27.203125 12.015625 46.148438 Z M 11.371094 33.710938 "/>
</g>
<path fill-rule="nonzero" fill="rgb(0%, 0%, 0%)" fill-opacity="1" d="M 40.941406 16.546875 C 41.339844 15.058594 34.414062 11.90625 25.46875 9.507812 C 16.523438 7.113281 8.949219 6.378906 8.550781 7.867188 C 8.148438 9.359375 15.078125 12.511719 24.019531 14.90625 C 32.964844 17.304688 40.539062 18.039062 40.941406 16.546875 Z M 40.941406 16.546875 "/>
<path fill-rule="nonzero" fill="rgb(0%, 0%, 0%)" fill-opacity="1" d="M 14.757812 9.53125 L 16.925781 1.433594 L 36.902344 6.785156 L 34.730469 14.882812 Z M 14.757812 9.53125 "/>
<g clip-path="url(#clip-4)">
<path fill-rule="nonzero" fill="rgb(0%, 0%, 0%)" fill-opacity="1" d="M 36.902344 6.785156 C 37.21875 5.59375 33.007812 3.429688 27.492188 1.953125 C 21.976562 0.472656 17.246094 0.242188 16.925781 1.433594 C 16.609375 2.628906 20.820312 4.792969 26.335938 6.269531 C 31.851562 7.75 36.582031 7.980469 36.902344 6.785156 Z M 36.902344 6.785156 "/>
</g>
<path fill-rule="nonzero" fill="rgb(0%, 0%, 0%)" fill-opacity="1" d="M 23.609375 21.039062 L 23.9375 19.96875 L 34.089844 23.074219 L 33.765625 24.144531 Z M 23.609375 21.039062 "/>
<path fill-rule="nonzero" fill="rgb(0%, 0%, 0%)" fill-opacity="1" d="M 15.59375 18.589844 L 15.917969 17.519531 L 18.59375 18.335938 L 18.265625 19.40625 Z M 15.59375 18.589844 "/>
<path fill-rule="nonzero" fill="rgb(0%, 0%, 0%)" fill-opacity="1" d="M 24.289062 22.832031 C 25.027344 20.800781 23.980469 18.558594 21.949219 17.816406 C 19.921875 17.078125 17.675781 18.125 16.9375 20.15625 C 16.199219 22.1875 17.246094 24.429688 19.273438 25.171875 C 21.304688 25.910156 23.550781 24.863281 24.289062 22.832031 Z M 24.289062 22.832031 "/>
<path fill-rule="nonzero" fill="rgb(0%, 0%, 0%)" fill-opacity="1" d="M 16.148438 20.6875 C 16.835938 18.800781 15.863281 16.71875 13.976562 16.03125 C 12.09375 15.34375 10.007812 16.316406 9.320312 18.203125 C 8.636719 20.085938 9.605469 22.171875 11.492188 22.859375 C 13.378906 23.542969 15.460938 22.574219 16.148438 20.6875 Z M 16.148438 20.6875 "/>
</svg>
