<?xml version="1.0" encoding="UTF-8"?>
<svg xmlns="http://www.w3.org/2000/svg" xmlns:xlink="http://www.w3.org/1999/xlink" width="57.175" height="60.236" viewBox="0 0 57.175 60.236">
<defs>
<clipPath id="clip-0">
<path clip-rule="nonzero" d="M 0 0.0507812 L 56.363281 0.0507812 L 56.363281 59.429688 L 0 59.429688 Z M 0 0.0507812 "/>
</clipPath>
<clipPath id="clip-1">
<path clip-rule="nonzero" d="M 0 19 L 56.363281 19 L 56.363281 57 L 0 57 Z M 0 19 "/>
</clipPath>
<clipPath id="clip-2">
<path clip-rule="nonzero" d="M 8 0.0507812 L 37 0.0507812 L 37 35 L 8 35 Z M 8 0.0507812 "/>
</clipPath>
<clipPath id="clip-3">
<path clip-rule="nonzero" d="M 25 48 L 37 48 L 37 59.429688 L 25 59.429688 Z M 25 48 "/>
</clipPath>
<clipPath id="clip-4">
<path clip-rule="nonzero" d="M 9 48 L 21 48 L 21 59.429688 L 9 59.429688 Z M 9 48 "/>
</clipPath>
</defs>
<g clip-path="url(#clip-0)">
<path fill-rule="nonzero" fill="rgb(89.99939%, 89.99939%, 89.99939%)" fill-opacity="1" d="M 0 59.429688 L 56.363281 59.429688 L 56.363281 0.0507812 L 0 0.0507812 Z M 0 59.429688 "/>
</g>
<g clip-path="url(#clip-1)">
<path fill-rule="nonzero" fill="rgb(92.871094%, 83.229065%, 14.369202%)" fill-opacity="1" d="M 12.015625 27.433594 C 5.140625 28.636719 -5.8125 41.070312 5.757812 52.136719 C 17.351562 63.203125 77.683594 55.796875 48.480469 19.777344 C 23.890625 32.996094 32.332031 20.898438 12.015625 27.433594 Z M 12.015625 27.433594 "/>
</g>
<g clip-path="url(#clip-2)">
<path fill-rule="nonzero" fill="rgb(92.871094%, 83.229065%, 14.369202%)" fill-opacity="1" d="M 36.800781 17.515625 C 36.800781 7.871094 30.546875 0.0507812 22.828125 0.0507812 C 15.113281 0.0507812 8.859375 7.871094 8.859375 17.515625 C 8.859375 27.160156 15.113281 34.980469 22.828125 34.980469 C 30.546875 34.980469 36.800781 27.160156 36.800781 17.515625 Z M 36.800781 17.515625 "/>
</g>
<path fill-rule="nonzero" fill="rgb(87.5%, 50%, 12.5%)" fill-opacity="1" d="M 9.027344 18.296875 C 15.648438 16.675781 12.796875 23.019531 23.109375 21.148438 C 0 35.679688 5.195312 21.175781 9.027344 18.296875 Z M 9.027344 18.296875 "/>
<path fill-rule="nonzero" fill="rgb(100%, 99.234009%, 85.00061%)" fill-opacity="1" d="M 22.957031 16.070312 C 23.617188 14.257812 23.101562 12.40625 21.808594 11.933594 C 20.511719 11.464844 18.925781 12.550781 18.269531 14.363281 C 17.609375 16.175781 18.121094 18.027344 19.417969 18.5 C 20.710938 18.972656 22.296875 17.882812 22.957031 16.070312 Z M 22.957031 16.070312 "/>
<path fill-rule="nonzero" fill="rgb(0%, 0%, 0%)" fill-opacity="1" d="M 22.242188 16.109375 C 22.621094 15.070312 22.503906 14.082031 21.988281 13.890625 C 21.46875 13.703125 20.742188 14.390625 20.367188 15.425781 C 19.992188 16.460938 20.105469 17.453125 20.621094 17.640625 C 21.140625 17.828125 21.867188 17.144531 22.242188 16.109375 Z M 22.242188 16.109375 "/>
<path fill-rule="nonzero" fill="rgb(100%, 99.234009%, 85.00061%)" fill-opacity="1" d="M 14.800781 13.917969 C 15.402344 12.261719 14.96875 10.582031 13.828125 10.167969 C 12.6875 9.75 11.273438 10.757812 10.671875 12.417969 C 10.066406 14.074219 10.503906 15.753906 11.640625 16.167969 C 12.78125 16.582031 14.195312 15.578125 14.800781 13.917969 Z M 14.800781 13.917969 "/>
<path fill-rule="nonzero" fill="rgb(0%, 0%, 0%)" fill-opacity="1" d="M 14.179688 13.992188 C 14.515625 13.058594 14.457031 12.179688 14.042969 12.027344 C 13.625 11.878906 13.015625 12.511719 12.675781 13.445312 C 12.335938 14.375 12.398438 15.253906 12.8125 15.40625 C 13.226562 15.554688 13.839844 14.921875 14.179688 13.992188 Z M 14.179688 13.992188 "/>
<path fill-rule="nonzero" fill="rgb(52.49939%, 34.999084%, 17.498779%)" fill-opacity="1" d="M 37.777344 47.070312 C 39.019531 46.03125 38.054688 42.835938 35.625 39.941406 C 33.195312 37.042969 30.21875 35.539062 28.976562 36.582031 C 27.734375 37.625 28.699219 40.816406 31.128906 43.710938 C 33.5625 46.609375 36.539062 48.113281 37.777344 47.070312 Z M 37.777344 47.070312 "/>
<path fill-rule="nonzero" fill="rgb(52.49939%, 34.999084%, 17.498779%)" fill-opacity="1" d="M 17.242188 36.582031 C 16 35.539062 13.023438 37.042969 10.59375 39.941406 C 8.160156 42.835938 7.199219 46.03125 8.4375 47.070312 C 9.679688 48.113281 12.65625 46.609375 15.085938 43.710938 C 17.519531 40.816406 18.480469 37.625 17.242188 36.582031 Z M 17.242188 36.582031 "/>
<g clip-path="url(#clip-3)">
<path fill-rule="nonzero" fill="rgb(52.49939%, 34.999084%, 17.498779%)" fill-opacity="1" d="M 36.898438 53.5625 C 36.898438 50.539062 34.445312 48.085938 31.421875 48.085938 C 28.398438 48.085938 25.945312 50.539062 25.945312 53.5625 C 25.945312 56.585938 28.398438 59.039062 31.421875 59.039062 C 34.445312 59.039062 36.898438 56.585938 36.898438 53.5625 Z M 36.898438 53.5625 "/>
</g>
<g clip-path="url(#clip-4)">
<path fill-rule="nonzero" fill="rgb(52.49939%, 34.999084%, 17.498779%)" fill-opacity="1" d="M 20.273438 53.5625 C 20.273438 50.539062 17.820312 48.085938 14.796875 48.085938 C 11.769531 48.085938 9.320312 50.539062 9.320312 53.5625 C 9.320312 56.585938 11.769531 59.039062 14.796875 59.039062 C 17.820312 59.039062 20.273438 56.585938 20.273438 53.5625 Z M 20.273438 53.5625 "/>
</g>
<path fill-rule="nonzero" fill="rgb(52.49939%, 34.999084%, 17.498779%)" fill-opacity="1" d="M 33.867188 44.761719 C 33.867188 37.738281 29.050781 32.046875 23.109375 32.046875 C 17.167969 32.046875 12.351562 37.738281 12.351562 44.761719 C 12.351562 51.78125 17.167969 57.476562 23.109375 57.476562 C 29.050781 57.476562 33.867188 51.78125 33.867188 44.761719 Z M 33.867188 44.761719 "/>
<path fill-rule="nonzero" fill="rgb(52.49939%, 34.999084%, 17.498779%)" fill-opacity="1" d="M 33.378906 21.289062 C 33.378906 19.667969 32.066406 18.355469 30.445312 18.355469 C 28.824219 18.355469 27.511719 19.667969 27.511719 21.289062 C 27.511719 22.910156 28.824219 24.222656 30.445312 24.222656 C 32.066406 24.222656 33.378906 22.910156 33.378906 21.289062 Z M 33.378906 21.289062 "/>
<path fill-rule="nonzero" fill="rgb(52.49939%, 34.999084%, 17.498779%)" fill-opacity="1" d="M 18.707031 21.289062 C 18.707031 19.667969 17.394531 18.355469 15.773438 18.355469 C 14.152344 18.355469 12.839844 19.667969 12.839844 21.289062 C 12.839844 22.910156 14.152344 24.222656 15.773438 24.222656 C 17.394531 24.222656 18.707031 22.910156 18.707031 21.289062 Z M 18.707031 21.289062 "/>
<path fill-rule="nonzero" fill="rgb(52.49939%, 34.999084%, 17.498779%)" fill-opacity="1" d="M 32.890625 29.113281 C 32.890625 23.710938 28.511719 19.332031 23.109375 19.332031 C 17.707031 19.332031 13.328125 23.710938 13.328125 29.113281 C 13.328125 34.515625 17.707031 38.890625 23.109375 38.890625 C 28.511719 38.890625 32.890625 34.515625 32.890625 29.113281 Z M 32.890625 29.113281 "/>
<path fill-rule="nonzero" fill="rgb(88.20343%, 75.70343%, 22.142029%)" fill-opacity="1" d="M 26.070312 33.945312 C 26.964844 34.617188 28.308594 35.289062 28.976562 36.183594 C 29.199219 37.074219 26.964844 36.851562 26.070312 36.851562 C 26.292969 37.523438 24.730469 38.417969 23.835938 37.96875 C 23.390625 39.089844 22.941406 39.535156 21.152344 39.3125 C 21.152344 40.652344 19.589844 41.101562 18.917969 41.101562 C 20.035156 44.007812 2.152344 39.089844 4.835938 34.171875 C 7.292969 27.238281 20.484375 31.039062 26.070312 33.945312 Z M 26.070312 33.945312 "/>
<path fill-rule="nonzero" fill="rgb(88.20343%, 75.70343%, 22.142029%)" fill-opacity="1" d="M 20.707031 42.886719 C 19.8125 43.558594 18.46875 44.230469 17.800781 45.125 C 17.578125 46.019531 19.8125 45.792969 20.707031 45.792969 C 20.484375 46.464844 22.046875 47.359375 22.941406 46.914062 C 23.386719 48.03125 23.835938 48.476562 25.625 48.253906 C 25.625 49.59375 27.1875 50.042969 27.859375 50.042969 C 26.742188 52.949219 44.625 48.03125 41.941406 43.113281 C 39.484375 36.183594 26.292969 39.980469 20.707031 42.886719 Z M 20.707031 42.886719 "/>
</svg>
