<?xml version="1.0" encoding="UTF-8"?>
<svg xmlns="http://www.w3.org/2000/svg" xmlns:xlink="http://www.w3.org/1999/xlink" width="57.175" height="60.094" viewBox="0 0 57.175 60.094">
<defs>
<clipPath id="clip-0">
<path clip-rule="nonzero" d="M 0.0195312 0 L 56.34375 0 L 56.34375 59.203125 L 0.0195312 59.203125 Z M 0.0195312 0 "/>
</clipPath>
<clipPath id="clip-1">
<path clip-rule="nonzero" d="M 0.0195312 22 L 56.34375 22 L 56.34375 59.203125 L 0.0195312 59.203125 Z M 0.0195312 22 "/>
</clipPath>
<clipPath id="clip-2">
<path clip-rule="nonzero" d="M 0.0195312 22 L 56.34375 22 L 56.34375 59.203125 L 0.0195312 59.203125 Z M 0.0195312 22 "/>
</clipPath>
<clipPath id="clip-3">
<path clip-rule="nonzero" d="M 20 35 L 35 35 L 35 50 L 20 50 Z M 20 35 "/>
</clipPath>
<clipPath id="clip-4">
<path clip-rule="nonzero" d="M 18.832031 45.496094 L 25.394531 34.128906 L 35.796875 40.132812 L 29.234375 51.5 L 25.847656 49.546875 L 26.824219 47.851562 L 23.195312 45.757812 L 22.21875 47.453125 Z M 18.832031 45.496094 "/>
</clipPath>
</defs>
<g clip-path="url(#clip-0)">
<path fill-rule="nonzero" fill="rgb(89.99939%, 89.99939%, 89.99939%)" fill-opacity="1" d="M 0.0195312 59.203125 L 56.34375 59.203125 L 56.34375 0 L 0.0195312 0 Z M 0.0195312 59.203125 "/>
</g>
<g clip-path="url(#clip-1)">
<path fill-rule="nonzero" fill="rgb(92.871094%, 83.229065%, 14.369202%)" fill-opacity="1" d="M 12.027344 30.019531 C 5.15625 31.21875 -5.789062 43.648438 5.769531 54.707031 C 17.359375 65.765625 77.652344 58.363281 48.46875 22.367188 C 23.894531 35.578125 32.328125 23.484375 12.027344 30.019531 Z M 12.027344 30.019531 "/>
</g>
<path fill-rule="nonzero" fill="rgb(92.871094%, 83.229065%, 14.369202%)" fill-opacity="1" d="M 36.796875 20.105469 C 36.796875 10.464844 30.542969 2.652344 22.832031 2.652344 C 15.121094 2.652344 8.871094 10.464844 8.871094 20.105469 C 8.871094 29.746094 15.121094 37.558594 22.832031 37.558594 C 30.542969 37.558594 36.796875 29.746094 36.796875 20.105469 Z M 36.796875 20.105469 "/>
<path fill-rule="nonzero" fill="rgb(87.5%, 50%, 12.5%)" fill-opacity="1" d="M 9.039062 20.886719 C 15.65625 19.269531 12.808594 25.605469 23.113281 23.734375 C 0.0195312 38.257812 5.210938 23.765625 9.039062 20.886719 Z M 9.039062 20.886719 "/>
<path fill-rule="nonzero" fill="rgb(100%, 99.234009%, 85.00061%)" fill-opacity="1" d="M 22.960938 18.660156 C 23.621094 16.851562 23.105469 15 21.8125 14.527344 C 20.515625 14.058594 18.933594 15.144531 18.273438 16.957031 C 17.613281 18.765625 18.128906 20.617188 19.421875 21.089844 C 20.71875 21.558594 22.300781 20.472656 22.960938 18.660156 Z M 22.960938 18.660156 "/>
<path fill-rule="nonzero" fill="rgb(0%, 0%, 0%)" fill-opacity="1" d="M 22.246094 18.699219 C 22.621094 17.664062 22.507812 16.671875 21.992188 16.484375 C 21.472656 16.296875 20.75 16.980469 20.371094 18.015625 C 19.996094 19.050781 20.109375 20.042969 20.628906 20.230469 C 21.144531 20.417969 21.871094 19.734375 22.246094 18.699219 Z M 22.246094 18.699219 "/>
<path fill-rule="nonzero" fill="rgb(100%, 99.234009%, 85.00061%)" fill-opacity="1" d="M 14.808594 16.511719 C 15.410156 14.855469 14.976562 13.175781 13.835938 12.761719 C 12.699219 12.347656 11.285156 13.351562 10.683594 15.007812 C 10.078125 16.667969 10.515625 18.34375 11.652344 18.761719 C 12.792969 19.175781 14.203125 18.167969 14.808594 16.511719 Z M 14.808594 16.511719 "/>
<path fill-rule="nonzero" fill="rgb(0%, 0%, 0%)" fill-opacity="1" d="M 14.1875 16.582031 C 14.527344 15.652344 14.464844 14.773438 14.050781 14.621094 C 13.636719 14.472656 13.027344 15.105469 12.6875 16.035156 C 12.347656 16.96875 12.40625 17.847656 12.824219 17.996094 C 13.238281 18.148438 13.847656 17.515625 14.1875 16.582031 Z M 14.1875 16.582031 "/>
<g clip-path="url(#clip-2)">
<path fill-rule="nonzero" fill="rgb(50%, 75%, 75%)" fill-opacity="1" d="M 11.382812 30.019531 C 5.15625 31.21875 -5.789062 43.648438 5.769531 54.707031 C 17.359375 65.765625 77.652344 58.363281 48.46875 22.367188 C 23.894531 34.738281 32.328125 26.277344 14.175781 34.070312 Z M 11.382812 30.019531 "/>
<path fill-rule="nonzero" fill="rgb(100%, 100%, 100%)" fill-opacity="1" d="M 11.382812 30.019531 C 5.15625 31.21875 -5.789062 43.648438 5.769531 54.707031 C 17.359375 65.765625 77.652344 58.363281 48.46875 22.367188 C 22.273438 35.578125 32.328125 23.511719 12.027344 42.445312 Z M 11.382812 30.019531 "/>
</g>
<path fill-rule="nonzero" fill="rgb(75%, 75%, 75%)" fill-opacity="1" d="M 12.78125 45.238281 C 12.78125 44.46875 12.15625 43.84375 11.382812 43.84375 C 10.613281 43.84375 9.988281 44.46875 9.988281 45.238281 C 9.988281 46.011719 10.613281 46.636719 11.382812 46.636719 C 12.15625 46.636719 12.78125 46.011719 12.78125 45.238281 Z M 11.941406 49.429688 C 11.941406 48.65625 11.316406 48.03125 10.546875 48.03125 C 9.773438 48.03125 9.148438 48.65625 9.148438 49.429688 C 9.148438 50.199219 9.773438 50.824219 10.546875 50.824219 C 11.316406 50.824219 11.941406 50.199219 11.941406 49.429688 Z M 11.664062 53.617188 C 11.664062 52.84375 11.039062 52.21875 10.265625 52.21875 C 9.496094 52.21875 8.871094 52.84375 8.871094 53.617188 C 8.871094 54.386719 9.496094 55.011719 10.265625 55.011719 C 11.039062 55.011719 11.664062 54.386719 11.664062 53.617188 Z M 11.664062 53.617188 "/>
<path fill-rule="nonzero" fill="rgb(52.49939%, 34.999084%, 17.498779%)" fill-opacity="1" d="M 36.945312 18.980469 C 41.050781 -2.066406 8.140625 -8.324219 9.105469 16.988281 C 9.5625 9.15625 19.648438 6.886719 19.648438 6.886719 C 28.769531 18 35.050781 20.902344 36.945312 18.980469 Z M 36.945312 18.980469 "/>
<path fill-rule="nonzero" fill="rgb(0%, 0%, 0%)" fill-opacity="1" d="M 23.878906 17.433594 L 24.207031 16.367188 L 34.085938 19.386719 L 33.761719 20.457031 Z M 23.878906 17.433594 "/>
<path fill-rule="nonzero" fill="rgb(0%, 0%, 0%)" fill-opacity="1" d="M 15.601562 14.90625 L 15.929688 13.835938 L 18.597656 14.652344 L 18.273438 15.722656 Z M 15.601562 14.90625 "/>
<path fill-rule="evenodd" fill="rgb(0%, 0%, 0%)" fill-opacity="1" d="M 9.484375 16.058594 L 10.136719 13.625 C 10.417969 12.578125 11.496094 11.957031 12.542969 12.238281 L 14.976562 12.890625 C 16.023438 13.171875 16.539062 14.214844 16.128906 15.214844 L 14.96875 18.046875 C 14.554688 19.050781 13.398438 19.5625 12.378906 19.195312 L 10.820312 18.625 C 9.800781 18.253906 9.203125 17.105469 9.484375 16.058594 Z M 10.046875 16.191406 L 10.625 13.871094 C 10.820312 13.082031 11.621094 12.601562 12.410156 12.800781 L 14.730469 13.378906 C 15.519531 13.574219 15.902344 14.339844 15.589844 15.089844 L 14.457031 17.792969 C 14.144531 18.539062 13.269531 18.921875 12.503906 18.644531 L 11.074219 18.125 C 10.308594 17.847656 9.851562 16.980469 10.046875 16.191406 Z M 10.046875 16.191406 "/>
<path fill-rule="evenodd" fill="rgb(0%, 0%, 0%)" fill-opacity="1" d="M 16.941406 18.472656 L 17.757812 15.507812 C 18.046875 14.460938 19.128906 13.851562 20.171875 14.144531 L 23.402344 15.046875 C 24.449219 15.335938 24.960938 16.386719 24.550781 17.390625 L 23.390625 20.222656 C 22.976562 21.226562 21.796875 21.8125 20.75 21.53125 L 18.3125 20.875 C 17.265625 20.59375 16.652344 19.519531 16.941406 18.472656 Z M 17.503906 18.609375 L 18.246094 15.753906 C 18.449219 14.96875 19.25 14.5 20.039062 14.707031 L 23.15625 15.53125 C 23.941406 15.738281 24.324219 16.515625 24.011719 17.265625 L 22.878906 19.964844 C 22.566406 20.714844 21.671875 21.164062 20.882812 20.964844 L 18.5625 20.386719 C 17.773438 20.191406 17.300781 19.394531 17.503906 18.609375 Z M 17.503906 18.609375 "/>
<path fill-rule="nonzero" fill="rgb(50%, 50%, 50%)" fill-opacity="1" d="M 6.015625 43.625 L 10.375 30.21875 C 10.457031 29.960938 10.734375 29.820312 10.992188 29.902344 L 11.386719 30.03125 C 11.644531 30.113281 11.785156 30.390625 11.703125 30.648438 L 7.34375 44.058594 C 7.261719 44.316406 6.984375 44.457031 6.726562 44.375 L 6.332031 44.246094 C 6.074219 44.160156 5.933594 43.882812 6.015625 43.625 Z M 6.015625 43.625 "/>
<path fill-rule="nonzero" fill="rgb(50%, 50%, 50%)" fill-opacity="1" d="M 10.265625 42.445312 C 10.265625 40.902344 9.015625 39.652344 7.472656 39.652344 C 5.933594 39.652344 4.679688 40.902344 4.679688 42.445312 C 4.679688 43.988281 5.933594 45.238281 7.472656 45.238281 C 9.015625 45.238281 10.265625 43.988281 10.265625 42.445312 Z M 10.265625 42.445312 "/>
<path fill-rule="nonzero" fill="rgb(50%, 50%, 50%)" fill-opacity="1" d="M 28.914062 37.53125 L 34.289062 28.222656 C 34.425781 27.988281 34.722656 27.90625 34.960938 28.042969 L 35.320312 28.25 C 35.554688 28.386719 35.632812 28.6875 35.5 28.921875 L 30.125 38.226562 C 29.988281 38.460938 29.6875 38.542969 29.453125 38.40625 L 29.09375 38.199219 C 28.859375 38.066406 28.78125 37.765625 28.914062 37.53125 Z M 28.914062 37.53125 "/>
<g clip-path="url(#clip-3)">
<g clip-path="url(#clip-4)">
<path fill-rule="evenodd" fill="rgb(50%, 50%, 50%)" fill-opacity="1" d="M 33.820312 42.714844 L 30.480469 48.5 C 29.667969 49.90625 27.867188 50.390625 26.460938 49.578125 L 21.886719 46.9375 C 20.476562 46.125 19.996094 44.324219 20.808594 42.914062 L 24.148438 37.132812 C 24.960938 35.722656 26.761719 35.242188 28.167969 36.054688 L 32.742188 38.695312 C 34.152344 39.507812 34.632812 41.308594 33.820312 42.714844 Z M 32.40625 42.378906 L 29.480469 47.441406 C 28.9375 48.382812 27.738281 48.703125 26.796875 48.160156 L 22.941406 45.933594 C 22.003906 45.394531 21.683594 44.191406 22.226562 43.253906 L 25.148438 38.1875 C 25.691406 37.25 26.890625 36.929688 27.832031 37.46875 L 31.6875 39.695312 C 32.625 40.238281 32.945312 41.4375 32.40625 42.378906 Z M 32.40625 42.378906 "/>
</g>
</g>
</svg>
