<?xml version="1.0" encoding="UTF-8"?>
<svg xmlns="http://www.w3.org/2000/svg" xmlns:xlink="http://www.w3.org/1999/xlink" width="57.175" height="57.401" viewBox="0 0 57.175 57.401">
<defs>
<clipPath id="clip-0">
<path clip-rule="nonzero" d="M 0 0.113281 L 56.363281 0.113281 L 56.363281 56.699219 L 0 56.699219 Z M 0 0.113281 "/>
</clipPath>
<clipPath id="clip-1">
<path clip-rule="nonzero" d="M 0 19 L 56.363281 19 L 56.363281 56.699219 L 0 56.699219 Z M 0 19 "/>
</clipPath>
<clipPath id="clip-2">
<path clip-rule="nonzero" d="M 8 0.113281 L 37 0.113281 L 37 36 L 8 36 Z M 8 0.113281 "/>
</clipPath>
</defs>
<g clip-path="url(#clip-0)">
<path fill-rule="nonzero" fill="rgb(89.99939%, 89.99939%, 89.99939%)" fill-opacity="1" d="M 0 56.699219 L 56.363281 56.699219 L 56.363281 0.113281 L 0 0.113281 Z M 0 56.699219 "/>
</g>
<g clip-path="url(#clip-1)">
<path fill-rule="nonzero" fill="rgb(92.871094%, 83.229065%, 14.369202%)" fill-opacity="1" d="M 12.015625 27.496094 C 5.140625 28.699219 -5.8125 41.132812 5.757812 52.199219 C 17.351562 63.265625 77.683594 55.859375 48.480469 19.839844 C 23.890625 33.058594 32.332031 20.957031 12.015625 27.496094 Z M 12.015625 27.496094 "/>
</g>
<g clip-path="url(#clip-2)">
<path fill-rule="nonzero" fill="rgb(92.871094%, 83.229065%, 14.369202%)" fill-opacity="1" d="M 36.800781 17.578125 C 36.800781 7.929688 30.546875 0.113281 22.828125 0.113281 C 15.113281 0.113281 8.859375 7.929688 8.859375 17.578125 C 8.859375 27.222656 15.113281 35.042969 22.828125 35.042969 C 30.546875 35.042969 36.800781 27.222656 36.800781 17.578125 Z M 36.800781 17.578125 "/>
</g>
<path fill-rule="nonzero" fill="rgb(87.5%, 50%, 12.5%)" fill-opacity="1" d="M 9.027344 18.359375 C 15.648438 16.738281 12.796875 23.082031 23.109375 21.210938 C 0 35.738281 5.195312 21.238281 9.027344 18.359375 Z M 9.027344 18.359375 "/>
<path fill-rule="nonzero" fill="rgb(100%, 99.234009%, 85.00061%)" fill-opacity="1" d="M 22.957031 16.132812 C 23.617188 14.320312 23.101562 12.46875 21.808594 11.996094 C 20.511719 11.523438 18.925781 12.613281 18.269531 14.425781 C 17.609375 16.238281 18.121094 18.089844 19.417969 18.5625 C 20.710938 19.03125 22.296875 17.945312 22.957031 16.132812 Z M 22.957031 16.132812 "/>
<path fill-rule="nonzero" fill="rgb(0%, 0%, 0%)" fill-opacity="1" d="M 22.242188 16.167969 C 22.621094 15.132812 22.503906 14.140625 21.988281 13.953125 C 21.46875 13.765625 20.742188 14.449219 20.367188 15.484375 C 19.992188 16.523438 20.105469 17.515625 20.621094 17.703125 C 21.140625 17.890625 21.867188 17.203125 22.242188 16.167969 Z M 22.242188 16.167969 "/>
<path fill-rule="nonzero" fill="rgb(100%, 99.234009%, 85.00061%)" fill-opacity="1" d="M 14.800781 13.980469 C 15.402344 12.324219 14.96875 10.640625 13.828125 10.226562 C 12.6875 9.8125 11.273438 10.820312 10.671875 12.476562 C 10.066406 14.136719 10.503906 15.816406 11.640625 16.230469 C 12.78125 16.644531 14.195312 15.636719 14.800781 13.980469 Z M 14.800781 13.980469 "/>
<path fill-rule="nonzero" fill="rgb(0%, 0%, 0%)" fill-opacity="1" d="M 14.179688 14.050781 C 14.515625 13.121094 14.457031 12.242188 14.042969 12.089844 C 13.625 11.9375 13.015625 12.574219 12.675781 13.503906 C 12.335938 14.4375 12.398438 15.316406 12.8125 15.464844 C 13.226562 15.617188 13.839844 14.984375 14.179688 14.050781 Z M 14.179688 14.050781 "/>
<path fill-rule="nonzero" fill="rgb(90.000916%, 96.783447%, 99.372864%)" fill-opacity="1" d="M 36.945312 15.941406 C 29.453125 22.535156 22.199219 24.941406 14.011719 21.875 C 12.183594 20.796875 10.539062 19.277344 7.21875 20.089844 C -5.238281 35.433594 27.746094 28.363281 35.535156 25.753906 L 35.957031 24.0625 C 33.402344 25.230469 28.515625 25.863281 23.734375 26.253906 L 24.507812 24.539062 C 28.609375 23.699219 33.964844 21.210938 37 17.773438 Z M 36.945312 15.941406 "/>
<path fill-rule="nonzero" fill="rgb(92.871094%, 83.229065%, 14.369202%)" fill-opacity="1" d="M 6.78125 26.734375 C 6.4375 26.792969 5.890625 27.414062 6.46875 27.96875 C 7.046875 28.523438 10.0625 28.152344 8.605469 26.351562 C 7.375 27.011719 7.796875 26.40625 6.78125 26.734375 Z M 6.78125 26.734375 "/>
<path fill-rule="nonzero" fill="rgb(92.871094%, 83.229065%, 14.369202%)" fill-opacity="1" d="M 8.019531 26.238281 C 8.019531 25.753906 7.707031 25.363281 7.320312 25.363281 C 6.9375 25.363281 6.621094 25.753906 6.621094 26.238281 C 6.621094 26.71875 6.9375 27.109375 7.320312 27.109375 C 7.707031 27.109375 8.019531 26.71875 8.019531 26.238281 Z M 8.019531 26.238281 "/>
<path fill-rule="nonzero" fill="rgb(87.5%, 50%, 12.5%)" fill-opacity="1" d="M 6.632812 26.277344 C 6.960938 26.195312 6.820312 26.511719 7.335938 26.417969 C 6.179688 27.144531 6.441406 26.421875 6.632812 26.277344 Z M 6.632812 26.277344 "/>
<path fill-rule="nonzero" fill="rgb(100%, 99.234009%, 85.00061%)" fill-opacity="1" d="M 7.328125 26.164062 C 7.359375 26.074219 7.335938 25.980469 7.269531 25.957031 C 7.203125 25.933594 7.125 25.988281 7.09375 26.078125 C 7.058594 26.171875 7.085938 26.261719 7.148438 26.285156 C 7.214844 26.308594 7.292969 26.253906 7.328125 26.164062 Z M 7.328125 26.164062 "/>
<path fill-rule="nonzero" fill="rgb(0%, 0%, 0%)" fill-opacity="1" d="M 7.292969 26.167969 C 7.308594 26.117188 7.304688 26.066406 7.277344 26.054688 C 7.253906 26.046875 7.214844 26.082031 7.199219 26.132812 C 7.179688 26.183594 7.183594 26.234375 7.210938 26.242188 C 7.238281 26.253906 7.273438 26.21875 7.292969 26.167969 Z M 7.292969 26.167969 "/>
<path fill-rule="nonzero" fill="rgb(100%, 99.234009%, 85.00061%)" fill-opacity="1" d="M 6.917969 26.058594 C 6.949219 25.976562 6.929688 25.890625 6.871094 25.871094 C 6.8125 25.847656 6.742188 25.898438 6.714844 25.984375 C 6.683594 26.066406 6.703125 26.148438 6.761719 26.171875 C 6.820312 26.191406 6.890625 26.140625 6.917969 26.058594 Z M 6.917969 26.058594 "/>
<path fill-rule="nonzero" fill="rgb(0%, 0%, 0%)" fill-opacity="1" d="M 6.886719 26.0625 C 6.90625 26.015625 6.902344 25.972656 6.882812 25.964844 C 6.859375 25.957031 6.832031 25.988281 6.8125 26.035156 C 6.796875 26.082031 6.800781 26.125 6.820312 26.132812 C 6.839844 26.140625 6.871094 26.109375 6.886719 26.0625 Z M 6.886719 26.0625 "/>
<path fill-rule="nonzero" fill="rgb(92.871094%, 83.229065%, 14.369202%)" fill-opacity="1" d="M 9.296875 23.238281 C 8.953125 23.300781 8.40625 23.921875 8.984375 24.476562 C 9.5625 25.027344 12.578125 24.660156 11.121094 22.855469 C 9.890625 23.519531 10.3125 22.914062 9.296875 23.238281 Z M 9.296875 23.238281 "/>
<path fill-rule="nonzero" fill="rgb(92.871094%, 83.229065%, 14.369202%)" fill-opacity="1" d="M 10.535156 22.742188 C 10.535156 22.261719 10.222656 21.871094 9.835938 21.871094 C 9.449219 21.871094 9.136719 22.261719 9.136719 22.742188 C 9.136719 23.226562 9.449219 23.617188 9.835938 23.617188 C 10.222656 23.617188 10.535156 23.226562 10.535156 22.742188 Z M 10.535156 22.742188 "/>
<path fill-rule="nonzero" fill="rgb(87.5%, 50%, 12.5%)" fill-opacity="1" d="M 9.144531 22.785156 C 9.476562 22.703125 9.335938 23.019531 9.851562 22.925781 C 8.695312 23.652344 8.953125 22.925781 9.144531 22.785156 Z M 9.144531 22.785156 "/>
<path fill-rule="nonzero" fill="rgb(100%, 99.234009%, 85.00061%)" fill-opacity="1" d="M 9.84375 22.671875 C 9.875 22.582031 9.847656 22.488281 9.785156 22.464844 C 9.71875 22.441406 9.640625 22.496094 9.609375 22.585938 C 9.574219 22.675781 9.601562 22.769531 9.664062 22.792969 C 9.730469 22.816406 9.808594 22.761719 9.84375 22.671875 Z M 9.84375 22.671875 "/>
<path fill-rule="nonzero" fill="rgb(0%, 0%, 0%)" fill-opacity="1" d="M 9.804688 22.675781 C 9.824219 22.621094 9.820312 22.574219 9.792969 22.5625 C 9.769531 22.554688 9.730469 22.589844 9.710938 22.640625 C 9.695312 22.691406 9.699219 22.742188 9.726562 22.75 C 9.75 22.761719 9.789062 22.726562 9.804688 22.675781 Z M 9.804688 22.675781 "/>
<path fill-rule="nonzero" fill="rgb(100%, 99.234009%, 85.00061%)" fill-opacity="1" d="M 9.433594 22.566406 C 9.464844 22.480469 9.441406 22.398438 9.386719 22.378906 C 9.328125 22.355469 9.257812 22.40625 9.226562 22.488281 C 9.199219 22.574219 9.21875 22.65625 9.277344 22.675781 C 9.332031 22.699219 9.40625 22.648438 9.433594 22.566406 Z M 9.433594 22.566406 "/>
<path fill-rule="nonzero" fill="rgb(0%, 0%, 0%)" fill-opacity="1" d="M 9.402344 22.566406 C 9.421875 22.523438 9.417969 22.476562 9.398438 22.46875 C 9.375 22.460938 9.34375 22.496094 9.328125 22.539062 C 9.3125 22.585938 9.316406 22.632812 9.335938 22.640625 C 9.355469 22.644531 9.386719 22.613281 9.402344 22.566406 Z M 9.402344 22.566406 "/>
<path fill-rule="nonzero" fill="rgb(92.871094%, 83.229065%, 14.369202%)" fill-opacity="1" d="M 12.371094 27.152344 C 12.027344 27.210938 11.476562 27.835938 12.058594 28.386719 C 12.636719 28.941406 15.652344 28.570312 14.191406 26.769531 C 12.964844 27.429688 13.386719 26.824219 12.371094 27.152344 Z M 12.371094 27.152344 "/>
<path fill-rule="nonzero" fill="rgb(92.871094%, 83.229065%, 14.369202%)" fill-opacity="1" d="M 13.609375 26.65625 C 13.609375 26.175781 13.296875 25.78125 12.910156 25.78125 C 12.523438 25.78125 12.210938 26.175781 12.210938 26.65625 C 12.210938 27.140625 12.523438 27.53125 12.910156 27.53125 C 13.296875 27.53125 13.609375 27.140625 13.609375 26.65625 Z M 13.609375 26.65625 "/>
<path fill-rule="nonzero" fill="rgb(87.5%, 50%, 12.5%)" fill-opacity="1" d="M 12.21875 26.695312 C 12.550781 26.613281 12.410156 26.933594 12.925781 26.839844 C 11.769531 27.566406 12.027344 26.839844 12.21875 26.695312 Z M 12.21875 26.695312 "/>
<path fill-rule="nonzero" fill="rgb(100%, 99.234009%, 85.00061%)" fill-opacity="1" d="M 12.917969 26.585938 C 12.949219 26.492188 12.921875 26.402344 12.859375 26.378906 C 12.792969 26.355469 12.714844 26.410156 12.683594 26.5 C 12.648438 26.589844 12.675781 26.683594 12.738281 26.707031 C 12.804688 26.730469 12.882812 26.675781 12.917969 26.585938 Z M 12.917969 26.585938 "/>
<path fill-rule="nonzero" fill="rgb(0%, 0%, 0%)" fill-opacity="1" d="M 12.878906 26.585938 C 12.898438 26.535156 12.894531 26.484375 12.867188 26.476562 C 12.84375 26.464844 12.804688 26.5 12.785156 26.550781 C 12.769531 26.605469 12.773438 26.652344 12.800781 26.664062 C 12.824219 26.671875 12.863281 26.636719 12.878906 26.585938 Z M 12.878906 26.585938 "/>
<path fill-rule="nonzero" fill="rgb(100%, 99.234009%, 85.00061%)" fill-opacity="1" d="M 12.507812 26.476562 C 12.539062 26.394531 12.515625 26.308594 12.460938 26.289062 C 12.402344 26.269531 12.332031 26.320312 12.300781 26.402344 C 12.273438 26.484375 12.292969 26.570312 12.351562 26.589844 C 12.40625 26.609375 12.476562 26.558594 12.507812 26.476562 Z M 12.507812 26.476562 "/>
<path fill-rule="nonzero" fill="rgb(0%, 0%, 0%)" fill-opacity="1" d="M 12.476562 26.480469 C 12.496094 26.433594 12.492188 26.390625 12.46875 26.382812 C 12.449219 26.375 12.417969 26.40625 12.402344 26.453125 C 12.386719 26.5 12.386719 26.542969 12.410156 26.550781 C 12.429688 26.558594 12.460938 26.527344 12.476562 26.480469 Z M 12.476562 26.480469 "/>
<path fill-rule="nonzero" fill="rgb(92.871094%, 83.229065%, 14.369202%)" fill-opacity="1" d="M 15.863281 25.054688 C 15.519531 25.117188 14.972656 25.738281 15.550781 26.292969 C 16.128906 26.84375 19.148438 26.476562 17.6875 24.671875 C 16.457031 25.335938 16.878906 24.730469 15.863281 25.054688 Z M 15.863281 25.054688 "/>
<path fill-rule="nonzero" fill="rgb(92.871094%, 83.229065%, 14.369202%)" fill-opacity="1" d="M 17.101562 24.5625 C 17.101562 24.078125 16.789062 23.6875 16.402344 23.6875 C 16.019531 23.6875 15.707031 24.078125 15.707031 24.5625 C 15.707031 25.042969 16.019531 25.433594 16.402344 25.433594 C 16.789062 25.433594 17.101562 25.042969 17.101562 24.5625 Z M 17.101562 24.5625 "/>
<path fill-rule="nonzero" fill="rgb(87.5%, 50%, 12.5%)" fill-opacity="1" d="M 15.714844 24.601562 C 16.042969 24.519531 15.902344 24.835938 16.417969 24.742188 C 15.261719 25.46875 15.523438 24.742188 15.714844 24.601562 Z M 15.714844 24.601562 "/>
<path fill-rule="nonzero" fill="rgb(100%, 99.234009%, 85.00061%)" fill-opacity="1" d="M 16.410156 24.488281 C 16.441406 24.398438 16.417969 24.304688 16.351562 24.28125 C 16.289062 24.257812 16.207031 24.3125 16.175781 24.402344 C 16.140625 24.492188 16.167969 24.585938 16.234375 24.609375 C 16.296875 24.632812 16.375 24.578125 16.410156 24.488281 Z M 16.410156 24.488281 "/>
<path fill-rule="nonzero" fill="rgb(0%, 0%, 0%)" fill-opacity="1" d="M 16.375 24.492188 C 16.394531 24.4375 16.386719 24.390625 16.359375 24.378906 C 16.335938 24.371094 16.300781 24.40625 16.28125 24.457031 C 16.261719 24.507812 16.265625 24.558594 16.292969 24.566406 C 16.320312 24.578125 16.355469 24.542969 16.375 24.492188 Z M 16.375 24.492188 "/>
<path fill-rule="nonzero" fill="rgb(100%, 99.234009%, 85.00061%)" fill-opacity="1" d="M 16 24.382812 C 16.03125 24.296875 16.011719 24.214844 15.953125 24.195312 C 15.894531 24.171875 15.824219 24.222656 15.796875 24.304688 C 15.765625 24.390625 15.785156 24.472656 15.84375 24.492188 C 15.902344 24.515625 15.972656 24.464844 16 24.382812 Z M 16 24.382812 "/>
<path fill-rule="nonzero" fill="rgb(0%, 0%, 0%)" fill-opacity="1" d="M 15.96875 24.382812 C 15.988281 24.339844 15.984375 24.292969 15.964844 24.285156 C 15.941406 24.277344 15.914062 24.3125 15.894531 24.355469 C 15.878906 24.402344 15.882812 24.449219 15.902344 24.457031 C 15.921875 24.464844 15.953125 24.429688 15.96875 24.382812 Z M 15.96875 24.382812 "/>
<path fill-rule="nonzero" fill="rgb(92.871094%, 83.229065%, 14.369202%)" fill-opacity="1" d="M 19.355469 27.152344 C 19.011719 27.210938 18.464844 27.835938 19.042969 28.386719 C 19.625 28.941406 22.640625 28.570312 21.179688 26.769531 C 19.949219 27.429688 20.371094 26.824219 19.355469 27.152344 Z M 19.355469 27.152344 "/>
<path fill-rule="nonzero" fill="rgb(92.871094%, 83.229065%, 14.369202%)" fill-opacity="1" d="M 20.59375 26.65625 C 20.59375 26.175781 20.28125 25.78125 19.898438 25.78125 C 19.511719 25.78125 19.199219 26.175781 19.199219 26.65625 C 19.199219 27.140625 19.511719 27.53125 19.898438 27.53125 C 20.28125 27.53125 20.59375 27.140625 20.59375 26.65625 Z M 20.59375 26.65625 "/>
<path fill-rule="nonzero" fill="rgb(87.5%, 50%, 12.5%)" fill-opacity="1" d="M 19.207031 26.695312 C 19.539062 26.613281 19.394531 26.933594 19.910156 26.839844 C 18.753906 27.566406 19.015625 26.839844 19.207031 26.695312 Z M 19.207031 26.695312 "/>
<path fill-rule="nonzero" fill="rgb(100%, 99.234009%, 85.00061%)" fill-opacity="1" d="M 19.902344 26.585938 C 19.9375 26.492188 19.910156 26.402344 19.84375 26.378906 C 19.78125 26.355469 19.703125 26.410156 19.667969 26.5 C 19.636719 26.589844 19.660156 26.683594 19.726562 26.707031 C 19.789062 26.730469 19.871094 26.675781 19.902344 26.585938 Z M 19.902344 26.585938 "/>
<path fill-rule="nonzero" fill="rgb(0%, 0%, 0%)" fill-opacity="1" d="M 19.867188 26.585938 C 19.886719 26.535156 19.878906 26.484375 19.855469 26.476562 C 19.828125 26.464844 19.792969 26.5 19.773438 26.550781 C 19.753906 26.605469 19.761719 26.652344 19.785156 26.664062 C 19.8125 26.671875 19.847656 26.636719 19.867188 26.585938 Z M 19.867188 26.585938 "/>
<path fill-rule="nonzero" fill="rgb(100%, 99.234009%, 85.00061%)" fill-opacity="1" d="M 19.496094 26.476562 C 19.523438 26.394531 19.503906 26.308594 19.445312 26.289062 C 19.390625 26.269531 19.320312 26.320312 19.289062 26.402344 C 19.257812 26.484375 19.28125 26.570312 19.335938 26.589844 C 19.394531 26.609375 19.464844 26.558594 19.496094 26.476562 Z M 19.496094 26.476562 "/>
<path fill-rule="nonzero" fill="rgb(0%, 0%, 0%)" fill-opacity="1" d="M 19.464844 26.480469 C 19.480469 26.433594 19.476562 26.390625 19.457031 26.382812 C 19.4375 26.375 19.40625 26.40625 19.386719 26.453125 C 19.371094 26.5 19.375 26.542969 19.394531 26.550781 C 19.417969 26.558594 19.445312 26.527344 19.464844 26.480469 Z M 19.464844 26.480469 "/>
</svg>
