<?xml version="1.0" encoding="UTF-8"?>
<svg xmlns="http://www.w3.org/2000/svg" xmlns:xlink="http://www.w3.org/1999/xlink" width="57.175" height="62.413" viewBox="0 0 57.175 62.413">
<defs>
<clipPath id="clip-0">
<path clip-rule="nonzero" d="M 0 0.15625 L 56.363281 0.15625 L 56.363281 61.679688 L 0 61.679688 Z M 0 0.15625 "/>
</clipPath>
<clipPath id="clip-1">
<path clip-rule="nonzero" d="M 0 24 L 56.363281 24 L 56.363281 61.679688 L 0 61.679688 Z M 0 24 "/>
</clipPath>
<clipPath id="clip-2">
<path clip-rule="nonzero" d="M 0 24 L 56.363281 24 L 56.363281 61.679688 L 0 61.679688 Z M 0 24 "/>
</clipPath>
<clipPath id="clip-3">
<path clip-rule="nonzero" d="M 0 24 L 56.363281 24 L 56.363281 26 L 0 26 Z M 0 24 "/>
</clipPath>
<clipPath id="clip-4">
<path clip-rule="nonzero" d="M 11.371094 32.480469 C 5.140625 33.679688 -5.8125 46.117188 5.757812 57.179688 C 17.351562 68.246094 77.683594 60.839844 48.480469 24.824219 C 22.269531 38.039062 32.332031 25.96875 12.015625 44.914062 Z M 11.371094 32.480469 "/>
</clipPath>
<clipPath id="clip-5">
<path clip-rule="nonzero" d="M 0 24 L 56.363281 24 L 56.363281 30 L 0 30 Z M 0 24 "/>
</clipPath>
<clipPath id="clip-6">
<path clip-rule="nonzero" d="M 11.371094 32.480469 C 5.140625 33.679688 -5.8125 46.117188 5.757812 57.179688 C 17.351562 68.246094 77.683594 60.839844 48.480469 24.824219 C 22.269531 38.039062 32.332031 25.96875 12.015625 44.914062 Z M 11.371094 32.480469 "/>
</clipPath>
<clipPath id="clip-7">
<path clip-rule="nonzero" d="M 0 26 L 56.363281 26 L 56.363281 33 L 0 33 Z M 0 26 "/>
</clipPath>
<clipPath id="clip-8">
<path clip-rule="nonzero" d="M 11.371094 32.480469 C 5.140625 33.679688 -5.8125 46.117188 5.757812 57.179688 C 17.351562 68.246094 77.683594 60.839844 48.480469 24.824219 C 22.269531 38.039062 32.332031 25.96875 12.015625 44.914062 Z M 11.371094 32.480469 "/>
</clipPath>
<clipPath id="clip-9">
<path clip-rule="nonzero" d="M 0 29 L 56.363281 29 L 56.363281 36 L 0 36 Z M 0 29 "/>
</clipPath>
<clipPath id="clip-10">
<path clip-rule="nonzero" d="M 11.371094 32.480469 C 5.140625 33.679688 -5.8125 46.117188 5.757812 57.179688 C 17.351562 68.246094 77.683594 60.839844 48.480469 24.824219 C 22.269531 38.039062 32.332031 25.96875 12.015625 44.914062 Z M 11.371094 32.480469 "/>
</clipPath>
<clipPath id="clip-11">
<path clip-rule="nonzero" d="M 0 33 L 56.363281 33 L 56.363281 40 L 0 40 Z M 0 33 "/>
</clipPath>
<clipPath id="clip-12">
<path clip-rule="nonzero" d="M 11.371094 32.480469 C 5.140625 33.679688 -5.8125 46.117188 5.757812 57.179688 C 17.351562 68.246094 77.683594 60.839844 48.480469 24.824219 C 22.269531 38.039062 32.332031 25.96875 12.015625 44.914062 Z M 11.371094 32.480469 "/>
</clipPath>
<clipPath id="clip-13">
<path clip-rule="nonzero" d="M 0 36 L 56.363281 36 L 56.363281 43 L 0 43 Z M 0 36 "/>
</clipPath>
<clipPath id="clip-14">
<path clip-rule="nonzero" d="M 11.371094 32.480469 C 5.140625 33.679688 -5.8125 46.117188 5.757812 57.179688 C 17.351562 68.246094 77.683594 60.839844 48.480469 24.824219 C 22.269531 38.039062 32.332031 25.96875 12.015625 44.914062 Z M 11.371094 32.480469 "/>
</clipPath>
<clipPath id="clip-15">
<path clip-rule="nonzero" d="M 0 39 L 56.363281 39 L 56.363281 46 L 0 46 Z M 0 39 "/>
</clipPath>
<clipPath id="clip-16">
<path clip-rule="nonzero" d="M 11.371094 32.480469 C 5.140625 33.679688 -5.8125 46.117188 5.757812 57.179688 C 17.351562 68.246094 77.683594 60.839844 48.480469 24.824219 C 22.269531 38.039062 32.332031 25.96875 12.015625 44.914062 Z M 11.371094 32.480469 "/>
</clipPath>
<clipPath id="clip-17">
<path clip-rule="nonzero" d="M 0 43 L 56.363281 43 L 56.363281 50 L 0 50 Z M 0 43 "/>
</clipPath>
<clipPath id="clip-18">
<path clip-rule="nonzero" d="M 11.371094 32.480469 C 5.140625 33.679688 -5.8125 46.117188 5.757812 57.179688 C 17.351562 68.246094 77.683594 60.839844 48.480469 24.824219 C 22.269531 38.039062 32.332031 25.96875 12.015625 44.914062 Z M 11.371094 32.480469 "/>
</clipPath>
<clipPath id="clip-19">
<path clip-rule="nonzero" d="M 0 46 L 56.363281 46 L 56.363281 53 L 0 53 Z M 0 46 "/>
</clipPath>
<clipPath id="clip-20">
<path clip-rule="nonzero" d="M 11.371094 32.480469 C 5.140625 33.679688 -5.8125 46.117188 5.757812 57.179688 C 17.351562 68.246094 77.683594 60.839844 48.480469 24.824219 C 22.269531 38.039062 32.332031 25.96875 12.015625 44.914062 Z M 11.371094 32.480469 "/>
</clipPath>
<clipPath id="clip-21">
<path clip-rule="nonzero" d="M 0 49 L 56.363281 49 L 56.363281 56 L 0 56 Z M 0 49 "/>
</clipPath>
<clipPath id="clip-22">
<path clip-rule="nonzero" d="M 11.371094 32.480469 C 5.140625 33.679688 -5.8125 46.117188 5.757812 57.179688 C 17.351562 68.246094 77.683594 60.839844 48.480469 24.824219 C 22.269531 38.039062 32.332031 25.96875 12.015625 44.914062 Z M 11.371094 32.480469 "/>
</clipPath>
<clipPath id="clip-23">
<path clip-rule="nonzero" d="M 0 53 L 56.363281 53 L 56.363281 60 L 0 60 Z M 0 53 "/>
</clipPath>
<clipPath id="clip-24">
<path clip-rule="nonzero" d="M 11.371094 32.480469 C 5.140625 33.679688 -5.8125 46.117188 5.757812 57.179688 C 17.351562 68.246094 77.683594 60.839844 48.480469 24.824219 C 22.269531 38.039062 32.332031 25.96875 12.015625 44.914062 Z M 11.371094 32.480469 "/>
</clipPath>
<clipPath id="clip-25">
<path clip-rule="nonzero" d="M 0 56 L 56.363281 56 L 56.363281 61.679688 L 0 61.679688 Z M 0 56 "/>
</clipPath>
<clipPath id="clip-26">
<path clip-rule="nonzero" d="M 11.371094 32.480469 C 5.140625 33.679688 -5.8125 46.117188 5.757812 57.179688 C 17.351562 68.246094 77.683594 60.839844 48.480469 24.824219 C 22.269531 38.039062 32.332031 25.96875 12.015625 44.914062 Z M 11.371094 32.480469 "/>
</clipPath>
<clipPath id="clip-27">
<path clip-rule="nonzero" d="M 0 60 L 56.363281 60 L 56.363281 61.679688 L 0 61.679688 Z M 0 60 "/>
</clipPath>
<clipPath id="clip-28">
<path clip-rule="nonzero" d="M 11.371094 32.480469 C 5.140625 33.679688 -5.8125 46.117188 5.757812 57.179688 C 17.351562 68.246094 77.683594 60.839844 48.480469 24.824219 C 22.269531 38.039062 32.332031 25.96875 12.015625 44.914062 Z M 11.371094 32.480469 "/>
</clipPath>
</defs>
<g clip-path="url(#clip-0)">
<path fill-rule="nonzero" fill="rgb(89.99939%, 89.99939%, 89.99939%)" fill-opacity="1" d="M 0 61.679688 L 56.363281 61.679688 L 56.363281 0.15625 L 0 0.15625 Z M 0 61.679688 "/>
</g>
<g clip-path="url(#clip-1)">
<path fill-rule="nonzero" fill="rgb(99.119568%, 87.04834%, 66.720581%)" fill-opacity="1" d="M 12.015625 32.480469 C 5.140625 33.679688 -5.8125 46.117188 5.757812 57.179688 C 17.351562 68.246094 77.683594 60.839844 48.480469 24.824219 C 23.890625 38.039062 32.332031 25.941406 12.015625 32.480469 Z M 12.015625 32.480469 "/>
</g>
<path fill-rule="nonzero" fill="rgb(99.119568%, 87.04834%, 66.720581%)" fill-opacity="1" d="M 36.800781 22.558594 C 36.800781 12.914062 30.546875 5.09375 22.828125 5.09375 C 15.113281 5.09375 8.859375 12.914062 8.859375 22.558594 C 8.859375 32.203125 15.113281 40.023438 22.828125 40.023438 C 30.546875 40.023438 36.800781 32.203125 36.800781 22.558594 Z M 36.800781 22.558594 "/>
<path fill-rule="nonzero" fill="rgb(87.5%, 50%, 12.5%)" fill-opacity="1" d="M 9.027344 23.339844 C 15.648438 21.722656 12.796875 28.0625 23.109375 26.191406 C 0 40.722656 5.195312 26.21875 9.027344 23.339844 Z M 9.027344 23.339844 "/>
<path fill-rule="nonzero" fill="rgb(100%, 99.234009%, 85.00061%)" fill-opacity="1" d="M 22.957031 21.113281 C 23.617188 19.300781 23.101562 17.449219 21.808594 16.976562 C 20.511719 16.507812 18.925781 17.59375 18.269531 19.40625 C 17.609375 21.21875 18.121094 23.070312 19.417969 23.542969 C 20.710938 24.015625 22.296875 22.925781 22.957031 21.113281 Z M 22.957031 21.113281 "/>
<path fill-rule="nonzero" fill="rgb(0%, 0%, 0%)" fill-opacity="1" d="M 22.242188 21.152344 C 22.621094 20.117188 22.503906 19.125 21.988281 18.933594 C 21.46875 18.746094 20.742188 19.433594 20.367188 20.46875 C 19.992188 21.503906 20.105469 22.496094 20.621094 22.683594 C 21.140625 22.871094 21.867188 22.1875 22.242188 21.152344 Z M 22.242188 21.152344 "/>
<path fill-rule="nonzero" fill="rgb(100%, 99.234009%, 85.00061%)" fill-opacity="1" d="M 14.800781 18.960938 C 15.402344 17.304688 14.96875 15.625 13.828125 15.210938 C 12.6875 14.792969 11.273438 15.800781 10.671875 17.460938 C 10.066406 19.117188 10.503906 20.796875 11.640625 21.210938 C 12.78125 21.628906 14.195312 20.621094 14.800781 18.960938 Z M 14.800781 18.960938 "/>
<path fill-rule="nonzero" fill="rgb(0%, 0%, 0%)" fill-opacity="1" d="M 14.179688 19.035156 C 14.515625 18.101562 14.457031 17.222656 14.042969 17.070312 C 13.625 16.921875 13.015625 17.554688 12.675781 18.488281 C 12.335938 19.417969 12.398438 20.296875 12.8125 20.449219 C 13.226562 20.601562 13.839844 19.964844 14.179688 19.035156 Z M 14.179688 19.035156 "/>
<g clip-path="url(#clip-2)">
<path fill-rule="nonzero" fill="rgb(100%, 99.488831%, 90.000916%)" fill-opacity="1" d="M 11.371094 32.480469 C 5.140625 33.679688 -5.8125 46.117188 5.757812 57.179688 C 17.351562 68.246094 77.683594 60.839844 48.480469 24.824219 C 23.890625 37.203125 32.332031 28.734375 14.167969 36.53125 Z M 11.371094 32.480469 "/>
</g>
<g clip-path="url(#clip-3)">
<g clip-path="url(#clip-4)">
<path fill-rule="nonzero" fill="rgb(0%, 0%, 69.999695%)" fill-opacity="1" d="M -3.179688 23.777344 L 72.164062 19.832031 L 72.265625 21.785156 L -3.078125 25.730469 Z M -3.179688 23.777344 "/>
</g>
</g>
<g clip-path="url(#clip-5)">
<g clip-path="url(#clip-6)">
<path fill-rule="nonzero" fill="rgb(0%, 0%, 69.999695%)" fill-opacity="1" d="M -3.003906 27.128906 L 72.339844 23.179688 L 72.441406 25.132812 L -2.902344 29.082031 Z M -3.003906 27.128906 "/>
</g>
</g>
<g clip-path="url(#clip-7)">
<g clip-path="url(#clip-8)">
<path fill-rule="nonzero" fill="rgb(0%, 0%, 69.999695%)" fill-opacity="1" d="M -2.828125 30.476562 L 72.515625 26.527344 L 72.617188 28.480469 L -2.726562 32.429688 Z M -2.828125 30.476562 "/>
</g>
</g>
<g clip-path="url(#clip-9)">
<g clip-path="url(#clip-10)">
<path fill-rule="nonzero" fill="rgb(0%, 0%, 69.999695%)" fill-opacity="1" d="M -2.652344 33.824219 L 72.691406 29.875 L 72.792969 31.828125 L -2.550781 35.777344 Z M -2.652344 33.824219 "/>
</g>
</g>
<g clip-path="url(#clip-11)">
<g clip-path="url(#clip-12)">
<path fill-rule="nonzero" fill="rgb(0%, 0%, 69.999695%)" fill-opacity="1" d="M -2.476562 37.171875 L 72.867188 33.222656 L 72.96875 35.175781 L -2.375 39.125 Z M -2.476562 37.171875 "/>
</g>
</g>
<g clip-path="url(#clip-13)">
<g clip-path="url(#clip-14)">
<path fill-rule="nonzero" fill="rgb(0%, 0%, 69.999695%)" fill-opacity="1" d="M -2.304688 40.519531 L 73.042969 36.574219 L 73.144531 38.527344 L -2.199219 42.476562 Z M -2.304688 40.519531 "/>
</g>
</g>
<g clip-path="url(#clip-15)">
<g clip-path="url(#clip-16)">
<path fill-rule="nonzero" fill="rgb(0%, 0%, 69.999695%)" fill-opacity="1" d="M -2.128906 43.871094 L 73.214844 39.921875 L 73.320312 41.875 L -2.023438 45.824219 Z M -2.128906 43.871094 "/>
</g>
</g>
<g clip-path="url(#clip-17)">
<g clip-path="url(#clip-18)">
<path fill-rule="nonzero" fill="rgb(0%, 0%, 69.999695%)" fill-opacity="1" d="M -1.953125 47.21875 L 73.390625 43.269531 L 73.496094 45.222656 L -1.847656 49.171875 Z M -1.953125 47.21875 "/>
</g>
</g>
<g clip-path="url(#clip-19)">
<g clip-path="url(#clip-20)">
<path fill-rule="nonzero" fill="rgb(0%, 0%, 69.999695%)" fill-opacity="1" d="M -1.777344 50.566406 L 73.566406 46.617188 L 73.671875 48.570312 L -1.675781 52.519531 Z M -1.777344 50.566406 "/>
</g>
</g>
<g clip-path="url(#clip-21)">
<g clip-path="url(#clip-22)">
<path fill-rule="nonzero" fill="rgb(0%, 0%, 69.999695%)" fill-opacity="1" d="M -1.601562 53.914062 L 73.742188 49.964844 L 73.84375 51.921875 L -1.5 55.867188 Z M -1.601562 53.914062 "/>
</g>
</g>
<g clip-path="url(#clip-23)">
<g clip-path="url(#clip-24)">
<path fill-rule="nonzero" fill="rgb(0%, 0%, 69.999695%)" fill-opacity="1" d="M -1.425781 57.265625 L 73.917969 53.316406 L 74.019531 55.269531 L -1.324219 59.21875 Z M -1.425781 57.265625 "/>
</g>
</g>
<g clip-path="url(#clip-25)">
<g clip-path="url(#clip-26)">
<path fill-rule="nonzero" fill="rgb(0%, 0%, 69.999695%)" fill-opacity="1" d="M -1.25 60.613281 L 74.09375 56.664062 L 74.195312 58.617188 L -1.148438 62.566406 Z M -1.25 60.613281 "/>
</g>
</g>
<g clip-path="url(#clip-27)">
<g clip-path="url(#clip-28)">
<path fill-rule="nonzero" fill="rgb(0%, 0%, 69.999695%)" fill-opacity="1" d="M -1.074219 63.960938 L 74.269531 60.011719 L 74.371094 61.964844 L -0.972656 65.914062 Z M -1.074219 63.960938 "/>
</g>
</g>
<path fill-rule="nonzero" fill="rgb(0%, 0%, 29.998779%)" fill-opacity="1" d="M 39.027344 17.464844 C 40.136719 15.085938 35.363281 10.515625 28.371094 7.253906 C 21.378906 3.992188 14.808594 3.277344 13.699219 5.65625 C 12.59375 8.03125 17.363281 12.605469 24.355469 15.863281 C 31.347656 19.125 37.917969 19.84375 39.027344 17.464844 Z M 39.027344 17.464844 "/>
<path fill-rule="nonzero" fill="rgb(0%, 0%, 29.998779%)" fill-opacity="1" d="M 41.472656 15.523438 C 42.582031 13.144531 37.246094 8.308594 29.550781 4.722656 C 21.859375 1.132812 14.722656 0.152344 13.617188 2.53125 C 12.507812 4.910156 17.84375 9.746094 25.535156 13.332031 C 33.230469 16.917969 40.363281 17.898438 41.472656 15.523438 Z M 41.472656 15.523438 "/>
<path fill-rule="nonzero" fill="rgb(0%, 0%, 29.998779%)" fill-opacity="1" d="M 31.34375 6.171875 C 31.863281 5.054688 31.378906 3.722656 30.261719 3.203125 C 29.140625 2.679688 27.8125 3.164062 27.289062 4.285156 C 26.769531 5.402344 27.253906 6.734375 28.371094 7.253906 C 29.488281 7.777344 30.820312 7.292969 31.34375 6.171875 Z M 31.34375 6.171875 "/>
<path fill-rule="nonzero" fill="rgb(82.499695%, 64.99939%, 47.499084%)" fill-opacity="1" d="M 19.382812 49.238281 L 33.339844 25.066406 C 34.425781 23.1875 36.828125 22.542969 38.707031 23.628906 L 39.160156 23.890625 C 41.039062 24.976562 41.683594 27.378906 40.601562 29.257812 L 26.644531 53.429688 C 25.558594 55.308594 23.15625 55.953125 21.277344 54.867188 L 20.820312 54.601562 C 18.941406 53.519531 18.300781 51.117188 19.382812 49.238281 Z M 19.382812 49.238281 "/>
<path fill-rule="nonzero" fill="rgb(59.999084%, 39.99939%, 19.999695%)" fill-opacity="1" d="M 37.871094 30.101562 C 37.832031 29.640625 36.550781 29.375 35.011719 29.511719 C 33.476562 29.644531 32.261719 30.128906 32.304688 30.589844 C 32.34375 31.050781 33.621094 31.316406 35.160156 31.179688 C 36.699219 31.046875 37.910156 30.5625 37.871094 30.101562 Z M 34.460938 36.011719 C 34.421875 35.550781 33.140625 35.285156 31.605469 35.421875 C 30.066406 35.554688 28.851562 36.039062 28.894531 36.5 C 28.933594 36.960938 30.210938 37.226562 31.75 37.089844 C 33.289062 36.957031 34.5 36.472656 34.460938 36.011719 Z M 31.050781 41.917969 C 31.011719 41.457031 29.730469 41.195312 28.195312 41.328125 C 26.65625 41.464844 25.441406 41.945312 25.484375 42.40625 C 25.523438 42.867188 26.800781 43.132812 28.339844 43 C 29.878906 42.863281 31.089844 42.382812 31.050781 41.917969 Z M 27.640625 47.828125 C 27.601562 47.367188 26.320312 47.101562 24.785156 47.238281 C 23.246094 47.371094 22.03125 47.855469 22.074219 48.316406 C 22.113281 48.777344 23.390625 49.042969 24.929688 48.90625 C 26.46875 48.773438 27.679688 48.289062 27.640625 47.828125 Z M 27.640625 47.828125 "/>
</svg>
