<?xml version="1.0" encoding="UTF-8"?>
<svg xmlns="http://www.w3.org/2000/svg" xmlns:xlink="http://www.w3.org/1999/xlink" width="57.175" height="68.43" viewBox="0 0 57.175 68.43">
<defs>
<clipPath id="clip-0">
<path clip-rule="nonzero" d="M 0 0.207031 L 56.363281 0.207031 L 56.363281 67.664062 L 0 67.664062 Z M 0 0.207031 "/>
</clipPath>
<clipPath id="clip-1">
<path clip-rule="nonzero" d="M 0 30 L 56.363281 30 L 56.363281 67.664062 L 0 67.664062 Z M 0 30 "/>
</clipPath>
<clipPath id="clip-2">
<path clip-rule="nonzero" d="M 0 30 L 56.363281 30 L 56.363281 67.664062 L 0 67.664062 Z M 0 30 "/>
</clipPath>
<clipPath id="clip-3">
<path clip-rule="nonzero" d="M 9 31 L 51 31 L 51 67.664062 L 9 67.664062 Z M 9 31 "/>
</clipPath>
<clipPath id="clip-4">
<path clip-rule="nonzero" d="M 8 0.207031 L 44 0.207031 L 44 23 L 8 23 Z M 8 0.207031 "/>
</clipPath>
<clipPath id="clip-5">
<path clip-rule="nonzero" d="M 21 0.207031 L 55 0.207031 L 55 21 L 21 21 Z M 21 0.207031 "/>
</clipPath>
</defs>
<g clip-path="url(#clip-0)">
<path fill-rule="nonzero" fill="rgb(89.99939%, 89.99939%, 89.99939%)" fill-opacity="1" d="M 0 67.664062 L 56.363281 67.664062 L 56.363281 0.207031 L 0 0.207031 Z M 0 67.664062 "/>
</g>
<g clip-path="url(#clip-1)">
<path fill-rule="nonzero" fill="rgb(100%, 98.039246%, 87.057495%)" fill-opacity="1" d="M 12.015625 38.460938 C 5.140625 39.664062 -5.8125 52.097656 5.757812 63.164062 C 17.351562 74.230469 77.683594 66.824219 48.480469 30.804688 C 23.890625 44.023438 32.332031 31.921875 12.015625 38.460938 Z M 12.015625 38.460938 "/>
</g>
<path fill-rule="nonzero" fill="rgb(100%, 98.039246%, 87.057495%)" fill-opacity="1" d="M 36.800781 28.542969 C 36.800781 18.894531 30.546875 11.078125 22.828125 11.078125 C 15.113281 11.078125 8.859375 18.894531 8.859375 28.542969 C 8.859375 38.1875 15.113281 46.007812 22.828125 46.007812 C 30.546875 46.007812 36.800781 38.1875 36.800781 28.542969 Z M 36.800781 28.542969 "/>
<path fill-rule="nonzero" fill="rgb(69.802856%, 13.331604%, 13.331604%)" fill-opacity="1" d="M 9.027344 29.324219 C 15.648438 27.703125 12.796875 34.046875 23.109375 32.175781 C 0 46.703125 5.195312 32.203125 9.027344 29.324219 Z M 9.027344 29.324219 "/>
<path fill-rule="nonzero" fill="rgb(100%, 100%, 100%)" fill-opacity="1" d="M 22.957031 27.097656 C 23.617188 25.285156 23.101562 23.433594 21.808594 22.960938 C 20.511719 22.488281 18.925781 23.578125 18.269531 25.390625 C 17.609375 27.203125 18.121094 29.054688 19.417969 29.527344 C 20.710938 29.996094 22.296875 28.910156 22.957031 27.097656 Z M 22.957031 27.097656 "/>
<path fill-rule="nonzero" fill="rgb(0%, 0%, 0%)" fill-opacity="1" d="M 22.242188 27.132812 C 22.621094 26.097656 22.503906 25.105469 21.988281 24.917969 C 21.46875 24.730469 20.742188 25.414062 20.367188 26.453125 C 19.992188 27.488281 20.105469 28.480469 20.621094 28.667969 C 21.140625 28.855469 21.867188 28.167969 22.242188 27.132812 Z M 22.242188 27.132812 "/>
<path fill-rule="nonzero" fill="rgb(100%, 100%, 100%)" fill-opacity="1" d="M 14.800781 24.945312 C 15.402344 23.289062 14.96875 21.605469 13.828125 21.191406 C 12.6875 20.777344 11.273438 21.785156 10.671875 23.441406 C 10.066406 25.101562 10.503906 26.78125 11.640625 27.195312 C 12.78125 27.609375 14.195312 26.601562 14.800781 24.945312 Z M 14.800781 24.945312 "/>
<path fill-rule="nonzero" fill="rgb(0%, 0%, 0%)" fill-opacity="1" d="M 14.179688 25.015625 C 14.515625 24.085938 14.457031 23.207031 14.042969 23.054688 C 13.625 22.902344 13.015625 23.539062 12.675781 24.46875 C 12.335938 25.402344 12.398438 26.28125 12.8125 26.429688 C 13.226562 26.582031 13.839844 25.949219 14.179688 25.015625 Z M 14.179688 25.015625 "/>
<g clip-path="url(#clip-2)">
<path fill-rule="nonzero" fill="rgb(84.902954%, 56.666565%, 56.666565%)" fill-opacity="1" d="M 11.371094 38.460938 C 5.140625 39.664062 -5.8125 52.097656 5.757812 63.164062 C 17.351562 74.230469 77.683594 66.824219 48.480469 30.804688 C 22.269531 44.023438 32.332031 31.949219 12.015625 50.898438 Z M 11.371094 38.460938 "/>
</g>
<g clip-path="url(#clip-3)">
<path fill-rule="nonzero" fill="rgb(69.802856%, 13.331604%, 13.331604%)" fill-opacity="1" d="M 50.097656 32.707031 C 46.820312 34.363281 43.476562 35.992188 41.203125 36.964844 C 38.929688 37.9375 37.089844 38.625 35.558594 39.136719 C 34.03125 39.652344 32.800781 39.988281 31.753906 40.257812 C 30.707031 40.53125 29.835938 40.734375 29.011719 40.988281 C 28.183594 41.238281 27.402344 41.53125 26.539062 41.984375 C 25.675781 42.433594 22.453125 45.0625 21.289062 45.929688 C 20.128906 46.804688 18.753906 47.9375 17.03125 49.445312 C 15.886719 50.601562 13.21875 52.621094 13.03125 52.769531 C 13.03125 52.769531 14.167969 60.152344 18.964844 67.808594 L 16.578125 67.601562 C 9.3125 56.554688 9.871094 39.292969 9.871094 39.292969 L 11.578125 38.722656 C 11.859375 45.5625 12.53125 50.414062 12.53125 50.414062 C 15.074219 48.042969 16.824219 46.910156 18.546875 45.398438 C 20.269531 43.890625 21.644531 42.757812 22.808594 41.886719 C 23.96875 41.015625 24.917969 40.414062 25.785156 39.960938 C 26.648438 39.507812 27.425781 39.214844 28.25 38.964844 C 29.078125 38.714844 29.949219 38.507812 30.996094 38.234375 C 32.046875 37.964844 33.269531 37.628906 34.800781 37.113281 C 36.332031 36.601562 38.171875 35.914062 40.441406 34.945312 C 42.71875 33.972656 45.429688 32.714844 48.707031 31.0625 Z M 50.097656 32.707031 "/>
</g>
<g clip-path="url(#clip-4)">
<path fill="none" stroke-width="0.79701" stroke-linecap="butt" stroke-linejoin="miter" stroke="rgb(88.20343%, 75.70343%, 22.142029%)" stroke-opacity="1" stroke-miterlimit="10" d="M 35.432908 59.53038 L 22.677251 70.867421 " transform="matrix(0.985776, 0, 0, -0.985776, -2.319531, 70.45705)"/>
</g>
<path fill-rule="nonzero" fill="rgb(0%, 0%, 0%)" fill-opacity="1" d="M 35.523438 36.898438 C 47.855469 6.089844 8.328125 0.332031 9.292969 25.671875 C 9.753906 17.832031 23.265625 17.078125 23.265625 17.078125 C 25.3125 30.230469 37.800781 22.261719 35.523438 36.898438 Z M 35.523438 36.898438 "/>
<path fill-rule="nonzero" fill="rgb(0%, 0%, 0%)" fill-opacity="1" d="M 36.800781 10.378906 C 36.800781 6.519531 33.671875 3.394531 29.816406 3.394531 C 25.957031 3.394531 22.828125 6.519531 22.828125 10.378906 C 22.828125 14.238281 25.957031 17.363281 29.816406 17.363281 C 33.671875 17.363281 36.800781 14.238281 36.800781 10.378906 Z M 36.800781 10.378906 "/>
<g clip-path="url(#clip-5)">
<path fill="none" stroke-width="0.79701" stroke-linecap="butt" stroke-linejoin="miter" stroke="rgb(88.20343%, 75.70343%, 22.142029%)" stroke-opacity="1" stroke-miterlimit="10" d="M 35.432908 62.36365 L 46.773912 69.448805 " transform="matrix(0.985776, 0, 0, -0.985776, -2.319531, 70.45705)"/>
</g>
</svg>
