<?xml version="1.0" encoding="UTF-8"?>
<svg xmlns="http://www.w3.org/2000/svg" xmlns:xlink="http://www.w3.org/1999/xlink" width="57.175" height="57.401" viewBox="0 0 57.175 57.401">
<defs>
<clipPath id="clip-0">
<path clip-rule="nonzero" d="M 0 0.113281 L 56.363281 0.113281 L 56.363281 56.699219 L 0 56.699219 Z M 0 0.113281 "/>
</clipPath>
<clipPath id="clip-1">
<path clip-rule="nonzero" d="M 0 19 L 56.363281 19 L 56.363281 56.699219 L 0 56.699219 Z M 0 19 "/>
</clipPath>
<clipPath id="clip-2">
<path clip-rule="nonzero" d="M 8 0.113281 L 37 0.113281 L 37 36 L 8 36 Z M 8 0.113281 "/>
</clipPath>
<clipPath id="clip-3">
<path clip-rule="nonzero" d="M 0 19 L 56.363281 19 L 56.363281 56.699219 L 0 56.699219 Z M 0 19 "/>
</clipPath>
<clipPath id="clip-4">
<path clip-rule="nonzero" d="M 0 19 L 56.363281 19 L 56.363281 56.699219 L 0 56.699219 Z M 0 19 "/>
</clipPath>
</defs>
<g clip-path="url(#clip-0)">
<path fill-rule="nonzero" fill="rgb(89.99939%, 89.99939%, 89.99939%)" fill-opacity="1" d="M 0 56.699219 L 56.363281 56.699219 L 56.363281 0.113281 L 0 0.113281 Z M 0 56.699219 "/>
</g>
<g clip-path="url(#clip-1)">
<path fill-rule="nonzero" fill="rgb(96.470642%, 90.194702%, 70.979309%)" fill-opacity="1" d="M 12.015625 27.496094 C 5.140625 28.699219 -5.8125 41.132812 5.757812 52.199219 C 17.351562 63.265625 77.683594 55.859375 48.480469 19.839844 C 23.890625 33.058594 32.332031 20.957031 12.015625 27.496094 Z M 12.015625 27.496094 "/>
</g>
<g clip-path="url(#clip-2)">
<path fill-rule="nonzero" fill="rgb(96.470642%, 90.194702%, 70.979309%)" fill-opacity="1" d="M 36.800781 17.578125 C 36.800781 7.929688 30.546875 0.113281 22.828125 0.113281 C 15.113281 0.113281 8.859375 7.929688 8.859375 17.578125 C 8.859375 27.222656 15.113281 35.042969 22.828125 35.042969 C 30.546875 35.042969 36.800781 27.222656 36.800781 17.578125 Z M 36.800781 17.578125 "/>
</g>
<path fill-rule="nonzero" fill="rgb(87.5%, 50%, 12.5%)" fill-opacity="1" d="M 9.027344 18.359375 C 15.648438 16.738281 12.796875 23.082031 23.109375 21.210938 C 0 35.738281 5.195312 21.238281 9.027344 18.359375 Z M 9.027344 18.359375 "/>
<path fill-rule="nonzero" fill="rgb(100%, 99.234009%, 85.00061%)" fill-opacity="1" d="M 22.957031 16.132812 C 23.617188 14.320312 23.101562 12.46875 21.808594 11.996094 C 20.511719 11.523438 18.925781 12.613281 18.269531 14.425781 C 17.609375 16.238281 18.121094 18.089844 19.417969 18.5625 C 20.710938 19.03125 22.296875 17.945312 22.957031 16.132812 Z M 22.957031 16.132812 "/>
<path fill-rule="nonzero" fill="rgb(0%, 0%, 0%)" fill-opacity="1" d="M 22.242188 16.167969 C 22.621094 15.132812 22.503906 14.140625 21.988281 13.953125 C 21.46875 13.765625 20.742188 14.449219 20.367188 15.484375 C 19.992188 16.523438 20.105469 17.515625 20.621094 17.703125 C 21.140625 17.890625 21.867188 17.203125 22.242188 16.167969 Z M 22.242188 16.167969 "/>
<path fill-rule="nonzero" fill="rgb(100%, 99.234009%, 85.00061%)" fill-opacity="1" d="M 14.800781 13.980469 C 15.402344 12.324219 14.96875 10.640625 13.828125 10.226562 C 12.6875 9.8125 11.273438 10.820312 10.671875 12.476562 C 10.066406 14.136719 10.503906 15.816406 11.640625 16.230469 C 12.78125 16.644531 14.195312 15.636719 14.800781 13.980469 Z M 14.800781 13.980469 "/>
<path fill-rule="nonzero" fill="rgb(0%, 0%, 0%)" fill-opacity="1" d="M 14.179688 14.050781 C 14.515625 13.121094 14.457031 12.242188 14.042969 12.089844 C 13.625 11.9375 13.015625 12.574219 12.675781 13.503906 C 12.335938 14.4375 12.398438 15.316406 12.8125 15.464844 C 13.226562 15.617188 13.839844 14.984375 14.179688 14.050781 Z M 14.179688 14.050781 "/>
<g clip-path="url(#clip-3)">
<path fill-rule="nonzero" fill="rgb(75%, 75%, 75%)" fill-opacity="1" d="M 11.371094 27.496094 C 5.140625 28.699219 -5.8125 41.132812 5.757812 52.199219 C 17.351562 63.265625 77.683594 55.859375 48.480469 19.839844 C 23.890625 32.21875 32.332031 23.753906 14.167969 31.546875 Z M 11.371094 27.496094 "/>
</g>
<path fill-rule="nonzero" fill="rgb(0%, 0%, 0%)" fill-opacity="1" d="M 10.492188 42.21875 L 13.109375 29.917969 L 16.113281 30.558594 L 13.5 42.855469 Z M 10.492188 42.21875 "/>
<g clip-path="url(#clip-4)">
<path fill-rule="nonzero" fill="rgb(0%, 0%, 0%)" fill-opacity="1" d="M 11.371094 27.496094 C 5.140625 28.699219 -5.8125 41.132812 5.757812 52.199219 C 17.351562 63.265625 77.683594 55.859375 48.480469 19.839844 C 22.269531 33.058594 32.332031 20.984375 12.015625 39.933594 Z M 11.371094 27.496094 "/>
</g>
<path fill-rule="nonzero" fill="rgb(0%, 0%, 0%)" fill-opacity="1" d="M 23.609375 14.824219 L 23.9375 13.753906 L 34.089844 16.859375 L 33.765625 17.929688 Z M 23.609375 14.824219 "/>
<path fill-rule="nonzero" fill="rgb(0%, 0%, 0%)" fill-opacity="1" d="M 15.59375 12.371094 L 15.917969 11.304688 L 18.59375 12.121094 L 18.265625 13.1875 Z M 15.59375 12.371094 "/>
<path fill-rule="nonzero" fill="rgb(0%, 0%, 0%)" fill-opacity="1" d="M 24.289062 16.617188 C 25.027344 14.585938 23.980469 12.339844 21.949219 11.601562 C 19.921875 10.863281 17.675781 11.910156 16.9375 13.941406 C 16.199219 15.96875 17.246094 18.214844 19.273438 18.953125 C 21.304688 19.695312 23.550781 18.648438 24.289062 16.617188 Z M 24.289062 16.617188 "/>
<path fill-rule="nonzero" fill="rgb(0%, 0%, 0%)" fill-opacity="1" d="M 16.148438 14.472656 C 16.835938 12.585938 15.863281 10.5 13.976562 9.816406 C 12.09375 9.128906 10.007812 10.101562 9.320312 11.984375 C 8.636719 13.871094 9.605469 15.957031 11.492188 16.640625 C 13.378906 17.328125 15.460938 16.355469 16.148438 14.472656 Z M 16.148438 14.472656 "/>
</svg>
