<?xml version="1.0" encoding="UTF-8"?>
<svg xmlns="http://www.w3.org/2000/svg" xmlns:xlink="http://www.w3.org/1999/xlink" width="57.175" height="67.89" viewBox="0 0 57.175 67.89">
<defs>
<clipPath id="clip-0">
<path clip-rule="nonzero" d="M 0 0.429688 L 56.363281 0.429688 L 56.363281 67.351562 L 0 67.351562 Z M 0 0.429688 "/>
</clipPath>
<clipPath id="clip-1">
<path clip-rule="nonzero" d="M 0 20 L 56.363281 20 L 56.363281 58 L 0 58 Z M 0 20 "/>
</clipPath>
<clipPath id="clip-2">
<path clip-rule="nonzero" d="M 8 0.429688 L 37 0.429688 L 37 36 L 8 36 Z M 8 0.429688 "/>
</clipPath>
<clipPath id="clip-3">
<path clip-rule="nonzero" d="M 19 55 L 35 55 L 35 67.351562 L 19 67.351562 Z M 19 55 "/>
</clipPath>
<clipPath id="clip-4">
<path clip-rule="nonzero" d="M 15 63 L 21 63 L 21 67.351562 L 15 67.351562 Z M 15 63 "/>
</clipPath>
<clipPath id="clip-5">
<path clip-rule="nonzero" d="M 12 55 L 17 55 L 17 59 L 12 59 Z M 12 55 "/>
</clipPath>
<clipPath id="clip-6">
<path clip-rule="nonzero" d="M 10.851562 58.324219 L 11.433594 55.589844 L 16.351562 56.636719 L 15.773438 59.367188 Z M 10.851562 58.324219 "/>
</clipPath>
</defs>
<g clip-path="url(#clip-0)">
<path fill-rule="nonzero" fill="rgb(89.99939%, 89.99939%, 89.99939%)" fill-opacity="1" d="M 0 67.351562 L 56.363281 67.351562 L 56.363281 0.429688 L 0 0.429688 Z M 0 67.351562 "/>
</g>
<g clip-path="url(#clip-1)">
<path fill-rule="nonzero" fill="rgb(98.999023%, 98.999023%, 98.999023%)" fill-opacity="1" d="M 12.015625 27.8125 C 5.140625 29.015625 -5.8125 41.449219 5.757812 52.515625 C 17.351562 63.578125 77.683594 56.175781 48.480469 20.15625 C 23.890625 33.375 32.332031 21.273438 12.015625 27.8125 Z M 12.015625 27.8125 "/>
</g>
<g clip-path="url(#clip-2)">
<path fill-rule="nonzero" fill="rgb(98.999023%, 98.999023%, 98.999023%)" fill-opacity="1" d="M 36.800781 17.890625 C 36.800781 8.246094 30.546875 0.425781 22.828125 0.425781 C 15.113281 0.425781 8.859375 8.246094 8.859375 17.890625 C 8.859375 27.539062 15.113281 35.355469 22.828125 35.355469 C 30.546875 35.355469 36.800781 27.539062 36.800781 17.890625 Z M 36.800781 17.890625 "/>
</g>
<path fill-rule="nonzero" fill="rgb(98.999023%, 98.999023%, 98.999023%)" fill-opacity="1" d="M 9.027344 18.675781 C 15.648438 17.054688 12.796875 23.398438 23.109375 21.523438 C 0 36.054688 5.195312 21.554688 9.027344 18.675781 Z M 9.027344 18.675781 "/>
<path fill-rule="nonzero" fill="rgb(100%, 99.234009%, 85.00061%)" fill-opacity="1" d="M 22.957031 16.449219 C 23.617188 14.632812 23.101562 12.78125 21.808594 12.3125 C 20.511719 11.839844 18.925781 12.929688 18.269531 14.742188 C 17.609375 16.554688 18.121094 18.40625 19.417969 18.875 C 20.710938 19.347656 22.296875 18.261719 22.957031 16.449219 Z M 22.957031 16.449219 "/>
<path fill-rule="nonzero" fill="rgb(0%, 0%, 0%)" fill-opacity="1" d="M 22.242188 16.484375 C 22.621094 15.449219 22.503906 14.457031 21.988281 14.269531 C 21.46875 14.078125 20.742188 14.765625 20.367188 15.800781 C 19.992188 16.835938 20.105469 17.828125 20.621094 18.019531 C 21.140625 18.207031 21.867188 17.519531 22.242188 16.484375 Z M 22.242188 16.484375 "/>
<path fill-rule="nonzero" fill="rgb(100%, 99.234009%, 85.00061%)" fill-opacity="1" d="M 14.800781 14.296875 C 15.402344 12.636719 14.96875 10.957031 13.828125 10.542969 C 12.6875 10.128906 11.273438 11.136719 10.671875 12.792969 C 10.066406 14.449219 10.503906 16.132812 11.640625 16.546875 C 12.78125 16.960938 14.195312 15.953125 14.800781 14.296875 Z M 14.800781 14.296875 "/>
<path fill-rule="nonzero" fill="rgb(0%, 0%, 0%)" fill-opacity="1" d="M 14.179688 14.367188 C 14.515625 13.433594 14.457031 12.554688 14.042969 12.40625 C 13.625 12.253906 13.015625 12.886719 12.675781 13.820312 C 12.335938 14.753906 12.398438 15.632812 12.8125 15.78125 C 13.226562 15.933594 13.839844 15.300781 14.179688 14.367188 Z M 14.179688 14.367188 "/>
<path fill-rule="nonzero" fill="rgb(50%, 50%, 50%)" fill-opacity="1" d="M 47.980469 52.820312 C 47.980469 48.191406 44.226562 44.4375 39.597656 44.4375 C 34.964844 44.4375 31.210938 48.191406 31.210938 52.820312 C 31.210938 57.453125 34.964844 61.203125 39.597656 61.203125 C 44.226562 61.203125 47.980469 57.453125 47.980469 52.820312 Z M 47.980469 52.820312 "/>
<g clip-path="url(#clip-3)">
<path fill-rule="evenodd" fill="rgb(50%, 50%, 50%)" fill-opacity="1" d="M 34.007812 57.011719 C 34.007812 55.933594 32.757812 55.058594 31.210938 55.058594 C 29.667969 55.058594 28.417969 55.933594 28.417969 57.011719 C 28.417969 58.09375 29.667969 58.96875 31.210938 58.96875 C 32.757812 58.96875 34.007812 58.09375 34.007812 57.011719 Z M 32.890625 57.011719 C 32.890625 56.394531 32.136719 55.894531 31.210938 55.894531 C 30.285156 55.894531 29.535156 56.394531 29.535156 57.011719 C 29.535156 57.628906 30.285156 58.128906 31.210938 58.128906 C 32.136719 58.128906 32.890625 57.628906 32.890625 57.011719 Z M 29.816406 61.203125 C 29.816406 60.125 28.566406 59.25 27.019531 59.25 C 25.476562 59.25 24.226562 60.125 24.226562 61.203125 C 24.226562 62.285156 25.476562 63.160156 27.019531 63.160156 C 28.566406 63.160156 29.816406 62.285156 29.816406 61.203125 Z M 28.699219 61.203125 C 28.699219 60.585938 27.945312 60.085938 27.019531 60.085938 C 26.09375 60.085938 25.34375 60.585938 25.34375 61.203125 C 25.34375 61.824219 26.09375 62.324219 27.019531 62.324219 C 27.945312 62.324219 28.699219 61.824219 28.699219 61.203125 Z M 24.785156 65.394531 C 24.785156 64.316406 23.535156 63.441406 21.992188 63.441406 C 20.449219 63.441406 19.195312 64.316406 19.195312 65.394531 C 19.195312 66.476562 20.449219 67.351562 21.992188 67.351562 C 23.535156 67.351562 24.785156 66.476562 24.785156 65.394531 Z M 23.667969 65.394531 C 23.667969 64.777344 22.917969 64.277344 21.992188 64.277344 C 21.066406 64.277344 20.316406 64.777344 20.316406 65.394531 C 20.316406 66.011719 21.066406 66.515625 21.992188 66.515625 C 22.917969 66.515625 23.667969 66.011719 23.667969 65.394531 Z M 23.667969 65.394531 "/>
</g>
<g clip-path="url(#clip-4)">
<path fill-rule="evenodd" fill="rgb(50%, 50%, 50%)" fill-opacity="1" d="M 20.59375 65.394531 C 20.59375 64.316406 19.34375 63.441406 17.800781 63.441406 C 16.257812 63.441406 15.003906 64.316406 15.003906 65.394531 C 15.003906 66.476562 16.257812 67.351562 17.800781 67.351562 C 19.34375 67.351562 20.59375 66.476562 20.59375 65.394531 Z M 19.476562 65.394531 C 19.476562 64.777344 18.726562 64.277344 17.800781 64.277344 C 16.875 64.277344 16.125 64.777344 16.125 65.394531 C 16.125 66.011719 16.875 66.515625 17.800781 66.515625 C 18.726562 66.515625 19.476562 66.011719 19.476562 65.394531 Z M 19.476562 65.394531 "/>
</g>
<path fill-rule="evenodd" fill="rgb(50%, 50%, 50%)" fill-opacity="1" d="M 30.03125 56.714844 C 29.015625 56.34375 27.765625 57.21875 27.238281 58.671875 C 26.707031 60.121094 27.105469 61.597656 28.117188 61.964844 C 29.132812 62.335938 30.386719 61.460938 30.914062 60.007812 C 31.441406 58.558594 31.046875 57.082031 30.03125 56.714844 Z M 29.648438 57.765625 C 29.066406 57.554688 28.339844 58.085938 28.023438 58.957031 C 27.707031 59.828125 27.921875 60.703125 28.5 60.914062 C 29.082031 61.125 29.808594 60.59375 30.125 59.722656 C 30.441406 58.851562 30.226562 57.976562 29.648438 57.765625 Z M 25.492188 61.007812 C 24.476562 60.640625 23.226562 61.515625 22.699219 62.964844 C 22.171875 64.417969 22.566406 65.890625 23.582031 66.261719 C 24.597656 66.632812 25.847656 65.753906 26.375 64.304688 C 26.902344 62.855469 26.507812 61.378906 25.492188 61.007812 Z M 25.109375 62.058594 C 24.53125 61.847656 23.804688 62.382812 23.488281 63.253906 C 23.171875 64.125 23.382812 65 23.964844 65.210938 C 24.542969 65.421875 25.269531 64.886719 25.585938 64.019531 C 25.902344 63.148438 25.691406 62.269531 25.109375 62.058594 Z M 15.96875 56.949219 C 14.953125 56.578125 13.703125 57.453125 13.175781 58.90625 C 12.648438 60.355469 13.042969 61.832031 14.058594 62.199219 C 15.074219 62.570312 16.324219 61.695312 16.851562 60.242188 C 17.378906 58.792969 16.984375 57.316406 15.96875 56.949219 Z M 15.585938 58 C 15.007812 57.789062 14.28125 58.320312 13.964844 59.191406 C 13.644531 60.0625 13.859375 60.9375 14.441406 61.148438 C 15.019531 61.359375 15.746094 60.828125 16.0625 59.957031 C 16.378906 59.085938 16.167969 58.210938 15.585938 58 Z M 15.585938 58 "/>
<path fill-rule="evenodd" fill="rgb(50%, 50%, 50%)" fill-opacity="1" d="M 14.320312 60.589844 C 13.304688 60.960938 12.910156 62.433594 13.4375 63.886719 C 13.964844 65.335938 15.21875 66.210938 16.234375 65.84375 C 17.246094 65.472656 17.644531 63.996094 17.113281 62.546875 C 16.585938 61.097656 15.335938 60.222656 14.320312 60.589844 Z M 14.703125 61.640625 C 14.125 61.851562 13.910156 62.730469 14.226562 63.597656 C 14.542969 64.46875 15.269531 65.003906 15.851562 64.792969 C 16.429688 64.582031 16.644531 63.703125 16.328125 62.835938 C 16.011719 61.964844 15.285156 61.429688 14.703125 61.640625 Z M 14.703125 61.640625 "/>
<g clip-path="url(#clip-5)">
<g clip-path="url(#clip-6)">
<path fill-rule="evenodd" fill="rgb(50%, 50%, 50%)" fill-opacity="1" d="M 13.148438 53.285156 C 12.132812 53.65625 11.738281 55.128906 12.265625 56.582031 C 12.792969 58.03125 14.046875 58.90625 15.0625 58.539062 C 16.074219 58.167969 16.472656 56.691406 15.941406 55.242188 C 15.414062 53.792969 14.164062 52.917969 13.148438 53.285156 Z M 13.53125 54.335938 C 12.953125 54.546875 12.738281 55.421875 13.054688 56.292969 C 13.371094 57.164062 14.097656 57.699219 14.679688 57.488281 C 15.257812 57.277344 15.472656 56.398438 15.15625 55.53125 C 14.839844 54.660156 14.113281 54.125 13.53125 54.335938 Z M 13.53125 54.335938 "/>
</g>
</g>
<path fill-rule="nonzero" fill="rgb(98.999023%, 98.999023%, 98.999023%)" fill-opacity="1" d="M 0.726562 40.285156 L 5.628906 24.25 L 12.308594 26.292969 L 7.40625 42.328125 Z M 0.726562 40.285156 "/>
<path fill-rule="nonzero" fill="rgb(98.999023%, 98.999023%, 98.999023%)" fill-opacity="1" d="M 34.71875 28.03125 L 29.816406 11.996094 L 35.425781 10.28125 L 40.328125 26.316406 Z M 34.71875 28.03125 "/>
</svg>
