<?xml version="1.0" encoding="UTF-8"?>
<svg xmlns="http://www.w3.org/2000/svg" xmlns:xlink="http://www.w3.org/1999/xlink" width="56.693" height="68.032" viewBox="0 0 56.693 68.032">
<defs>
<clipPath id="clip-0">
<path clip-rule="nonzero" d="M 0.246094 0 L 56.144531 0 L 56.144531 67.078125 L 0.246094 67.078125 Z M 0.246094 0 "/>
</clipPath>
<clipPath id="clip-1">
<path clip-rule="nonzero" d="M 6 38 L 56.144531 38 L 56.144531 67.078125 L 6 67.078125 Z M 6 38 "/>
</clipPath>
<clipPath id="clip-2">
<path clip-rule="nonzero" d="M 6 38 L 56.144531 38 L 56.144531 67.078125 L 6 67.078125 Z M 6 38 "/>
</clipPath>
</defs>
<g clip-path="url(#clip-0)">
<path fill-rule="nonzero" fill="rgb(89.99939%, 89.99939%, 89.99939%)" fill-opacity="1" d="M 0.246094 67.078125 L 56.144531 67.078125 L 56.144531 0 L 0.246094 0 Z M 0.246094 67.078125 "/>
<path fill-rule="nonzero" fill="rgb(0%, 0%, 0%)" fill-opacity="1" d="M 0.246094 67.078125 L 0.246094 0 L 56.144531 0 L 56.144531 67.078125 Z M 0.246094 67.078125 "/>
</g>
<g clip-path="url(#clip-1)">
<path fill-rule="nonzero" fill="rgb(100%, 81.959534%, 70.979309%)" fill-opacity="1" d="M 17.378906 46.253906 C 10.503906 47.457031 -0.453125 59.894531 11.117188 70.960938 C 22.71875 82.03125 83.058594 74.621094 53.851562 38.597656 C 29.257812 51.816406 37.699219 39.714844 17.378906 46.253906 Z M 17.378906 46.253906 "/>
</g>
<path fill-rule="nonzero" fill="rgb(100%, 81.959534%, 70.979309%)" fill-opacity="1" d="M 42.171875 36.332031 C 42.171875 26.683594 35.914062 18.863281 28.195312 18.863281 C 20.476562 18.863281 14.222656 26.683594 14.222656 36.332031 C 14.222656 45.980469 20.476562 53.800781 28.195312 53.800781 C 35.914062 53.800781 42.171875 45.980469 42.171875 36.332031 Z M 42.171875 36.332031 "/>
<path fill-rule="nonzero" fill="rgb(90.194702%, 51.763916%, 32.157898%)" fill-opacity="1" d="M 14.390625 37.117188 C 21.011719 35.496094 18.160156 41.839844 28.476562 39.964844 C 5.359375 54.5 10.558594 39.992188 14.390625 37.117188 Z M 14.390625 37.117188 "/>
<path fill-rule="nonzero" fill="rgb(100%, 99.234009%, 85.00061%)" fill-opacity="1" d="M 28.324219 34.886719 C 28.984375 33.074219 28.46875 31.222656 27.171875 30.75 C 25.878906 30.28125 24.292969 31.367188 23.632812 33.179688 C 22.972656 34.992188 23.488281 36.84375 24.785156 37.316406 C 26.078125 37.789062 27.664062 36.699219 28.324219 34.886719 Z M 28.324219 34.886719 "/>
<path fill-rule="nonzero" fill="rgb(0%, 0%, 0%)" fill-opacity="1" d="M 27.609375 34.925781 C 27.984375 33.890625 27.871094 32.898438 27.351562 32.707031 C 26.835938 32.519531 26.109375 33.207031 25.734375 34.242188 C 25.355469 35.277344 25.46875 36.269531 25.988281 36.457031 C 26.507812 36.648438 27.230469 35.960938 27.609375 34.925781 Z M 27.609375 34.925781 "/>
<path fill-rule="nonzero" fill="rgb(100%, 99.234009%, 85.00061%)" fill-opacity="1" d="M 20.164062 32.734375 C 20.765625 31.078125 20.332031 29.398438 19.191406 28.980469 C 18.050781 28.566406 16.636719 29.574219 16.035156 31.234375 C 15.429688 32.890625 15.867188 34.570312 17.007812 34.984375 C 18.144531 35.402344 19.558594 34.394531 20.164062 32.734375 Z M 20.164062 32.734375 "/>
<path fill-rule="nonzero" fill="rgb(0%, 0%, 0%)" fill-opacity="1" d="M 19.542969 32.808594 C 19.882812 31.875 19.820312 30.996094 19.40625 30.84375 C 18.992188 30.695312 18.378906 31.328125 18.039062 32.261719 C 17.699219 33.191406 17.761719 34.070312 18.175781 34.222656 C 18.589844 34.375 19.203125 33.738281 19.542969 32.808594 Z M 19.542969 32.808594 "/>
<g clip-path="url(#clip-2)">
<path fill-rule="nonzero" fill="rgb(96.90094%, 95.254517%, 93.725586%)" fill-opacity="1" d="M 16.738281 46.253906 C 10.503906 47.457031 -0.453125 59.894531 11.117188 70.960938 C 22.71875 82.03125 83.058594 74.621094 53.851562 38.597656 C 27.636719 51.816406 37.699219 39.742188 17.378906 58.691406 Z M 16.738281 46.253906 "/>
<path fill-rule="nonzero" fill="rgb(69.018555%, 52.549744%, 37.255859%)" fill-opacity="1" d="M 16.738281 46.253906 C 10.503906 47.457031 -0.453125 59.894531 11.117188 70.960938 C 22.71875 82.03125 83.058594 74.621094 53.851562 38.597656 C 27.636719 51.816406 37.699219 39.742188 15.898438 62.882812 Z M 16.738281 46.253906 "/>
</g>
<path fill-rule="nonzero" fill="rgb(92.547607%, 83.529663%, 63.920593%)" fill-opacity="1" d="M 24.820312 19.394531 C 35.007812 20.507812 38.175781 23.949219 41.261719 28.800781 C 41.261719 28.800781 41.195312 46.730469 41.984375 58.753906 C 42.964844 59.550781 44.804688 59.15625 45.746094 58.316406 C 46.527344 57.625 45.625 55.882812 46.472656 55.277344 C 47.695312 54.40625 49.585938 56.328125 50.957031 55.714844 C 51.777344 55.347656 52.398438 54.425781 52.546875 53.542969 C 52.546875 53.542969 48.203125 35.75 42.710938 19.972656 C 38.765625 13.921875 27.765625 11.796875 24.820312 19.394531 Z M 24.820312 19.394531 "/>
<path fill-rule="nonzero" fill="rgb(69.018555%, 67.449951%, 73.722839%)" fill-opacity="1" d="M 15.410156 29.785156 C 23.664062 18.460938 41.261719 39.363281 41.261719 39.363281 C 43.910156 39.15625 42.851562 29.484375 41.695312 27.933594 C 35.546875 19.117188 29.6875 19.25 29.6875 19.25 C 20.289062 18.398438 14.90625 25.792969 15.410156 29.785156 Z M 15.410156 29.785156 "/>
<path fill-rule="nonzero" fill="rgb(59.999084%, 59.999084%, 59.999084%)" fill-opacity="1" d="M 39.375 40.523438 C 39.375 39.597656 38.625 38.847656 37.699219 38.847656 C 36.773438 38.847656 36.023438 39.597656 36.023438 40.523438 C 36.023438 41.449219 36.773438 42.203125 37.699219 42.203125 C 38.625 42.203125 39.375 41.449219 39.375 40.523438 Z M 39.375 40.523438 "/>
<path fill-rule="nonzero" fill="rgb(100%, 100%, 100%)" fill-opacity="1" d="M 37.640625 40.316406 C 37.875 39.914062 37.898438 39.496094 37.699219 39.378906 C 37.5 39.265625 37.148438 39.496094 36.917969 39.894531 C 36.683594 40.296875 36.660156 40.714844 36.859375 40.832031 C 37.0625 40.949219 37.410156 40.714844 37.640625 40.316406 Z M 37.640625 40.316406 "/>
</svg>
