<?xml version="1.0" encoding="UTF-8"?>
<svg xmlns="http://www.w3.org/2000/svg" xmlns:xlink="http://www.w3.org/1999/xlink" width="57.175" height="72.85" viewBox="0 0 57.175 72.85">
<defs>
<clipPath id="clip-0">
<path clip-rule="nonzero" d="M 0 0.445312 L 56.363281 0.445312 L 56.363281 72.257812 L 0 72.257812 Z M 0 0.445312 "/>
</clipPath>
<clipPath id="clip-1">
<path clip-rule="nonzero" d="M 0 35 L 56.363281 35 L 56.363281 72.257812 L 0 72.257812 Z M 0 35 "/>
</clipPath>
<clipPath id="clip-2">
<path clip-rule="nonzero" d="M 0 35 L 56.363281 35 L 56.363281 72.257812 L 0 72.257812 Z M 0 35 "/>
</clipPath>
<clipPath id="clip-3">
<path clip-rule="nonzero" d="M 0 35 L 21 35 L 21 72.257812 L 0 72.257812 Z M 0 35 "/>
</clipPath>
<clipPath id="clip-4">
<path clip-rule="nonzero" d="M 11.371094 43.058594 C 5.140625 44.257812 -5.8125 56.695312 5.757812 67.757812 C 17.351562 78.824219 77.683594 71.417969 48.480469 35.402344 C 22.269531 48.617188 32.332031 36.546875 12.015625 55.492188 Z M 11.371094 43.058594 "/>
</clipPath>
</defs>
<g clip-path="url(#clip-0)">
<path fill-rule="nonzero" fill="rgb(89.99939%, 89.99939%, 89.99939%)" fill-opacity="1" d="M 0 72.257812 L 56.363281 72.257812 L 56.363281 0.445312 L 0 0.445312 Z M 0 72.257812 "/>
</g>
<g clip-path="url(#clip-1)">
<path fill-rule="nonzero" fill="rgb(92.871094%, 83.229065%, 14.369202%)" fill-opacity="1" d="M 12.015625 43.058594 C 5.140625 44.257812 -5.8125 56.695312 5.757812 67.757812 C 17.351562 78.824219 77.683594 71.417969 48.480469 35.402344 C 23.890625 48.617188 32.332031 36.519531 12.015625 43.058594 Z M 12.015625 43.058594 "/>
</g>
<path fill-rule="nonzero" fill="rgb(92.871094%, 83.229065%, 14.369202%)" fill-opacity="1" d="M 36.800781 33.136719 C 36.800781 23.492188 30.546875 15.671875 22.828125 15.671875 C 15.113281 15.671875 8.859375 23.492188 8.859375 33.136719 C 8.859375 42.78125 15.113281 50.601562 22.828125 50.601562 C 30.546875 50.601562 36.800781 42.78125 36.800781 33.136719 Z M 36.800781 33.136719 "/>
<path fill-rule="nonzero" fill="rgb(87.5%, 50%, 12.5%)" fill-opacity="1" d="M 9.027344 33.917969 C 15.648438 32.300781 12.796875 38.640625 23.109375 36.769531 C 0 51.300781 5.195312 36.796875 9.027344 33.917969 Z M 9.027344 33.917969 "/>
<path fill-rule="nonzero" fill="rgb(100%, 99.234009%, 85.00061%)" fill-opacity="1" d="M 22.957031 31.691406 C 23.617188 29.878906 23.101562 28.027344 21.808594 27.554688 C 20.511719 27.085938 18.925781 28.171875 18.269531 29.984375 C 17.609375 31.796875 18.121094 33.648438 19.417969 34.121094 C 20.710938 34.59375 22.296875 33.503906 22.957031 31.691406 Z M 22.957031 31.691406 "/>
<path fill-rule="nonzero" fill="rgb(0%, 0%, 0%)" fill-opacity="1" d="M 22.242188 31.730469 C 22.621094 30.695312 22.503906 29.703125 21.988281 29.511719 C 21.46875 29.324219 20.742188 30.011719 20.367188 31.046875 C 19.992188 32.082031 20.105469 33.074219 20.621094 33.261719 C 21.140625 33.449219 21.867188 32.765625 22.242188 31.730469 Z M 22.242188 31.730469 "/>
<path fill-rule="nonzero" fill="rgb(100%, 99.234009%, 85.00061%)" fill-opacity="1" d="M 14.800781 29.539062 C 15.402344 27.882812 14.96875 26.203125 13.828125 25.789062 C 12.6875 25.371094 11.273438 26.378906 10.671875 28.039062 C 10.066406 29.695312 10.503906 31.375 11.640625 31.789062 C 12.78125 32.207031 14.195312 31.199219 14.800781 29.539062 Z M 14.800781 29.539062 "/>
<path fill-rule="nonzero" fill="rgb(0%, 0%, 0%)" fill-opacity="1" d="M 14.179688 29.613281 C 14.515625 28.679688 14.457031 27.800781 14.042969 27.648438 C 13.625 27.5 13.015625 28.132812 12.675781 29.066406 C 12.335938 29.996094 12.398438 30.875 12.8125 31.027344 C 13.226562 31.179688 13.839844 30.542969 14.179688 29.613281 Z M 14.179688 29.613281 "/>
<g clip-path="url(#clip-2)">
<path fill-rule="nonzero" fill="rgb(100%, 0%, 0%)" fill-opacity="1" d="M 11.371094 43.058594 C 5.140625 44.257812 -5.8125 56.695312 5.757812 67.757812 C 17.351562 78.824219 77.683594 71.417969 48.480469 35.402344 C 22.269531 48.617188 32.332031 36.546875 12.015625 55.492188 Z M 11.371094 43.058594 "/>
</g>
<g clip-path="url(#clip-3)">
<g clip-path="url(#clip-4)">
<path fill-rule="nonzero" fill="rgb(0%, 0%, 100%)" fill-opacity="1" d="M -4.882812 77.589844 L 8.21875 3.285156 L 20.878906 5.519531 L 7.777344 79.820312 Z M -4.882812 77.589844 "/>
</g>
</g>
<path fill-rule="nonzero" fill="rgb(0%, 0%, 100%)" fill-opacity="1" d="M 14.464844 19.949219 C 18.449219 22.089844 23.722656 22.804688 23.722656 22.804688 L 26.753906 8.4375 C 23.453125 -5.628906 2.585938 3.421875 6.117188 10.898438 C 13.90625 5.125 17.941406 9.730469 14.464844 19.949219 Z M 14.464844 19.949219 "/>
<path fill-rule="nonzero" fill="rgb(100%, 0%, 0%)" fill-opacity="1" d="M 33.597656 22.234375 C 28.914062 23.335938 23.605469 22.789062 23.605469 22.789062 L 26.753906 8.4375 C 35.785156 -4.160156 51.816406 9.296875 45.320312 15.578125 C 40.34375 8.28125 34.578125 11.714844 33.597656 22.234375 Z M 33.597656 22.234375 "/>
<path fill-rule="nonzero" fill="rgb(0%, 0%, 100%)" fill-opacity="1" d="M 47.980469 17.210938 C 47.980469 15.664062 46.726562 14.414062 45.183594 14.414062 C 43.640625 14.414062 42.390625 15.664062 42.390625 17.210938 C 42.390625 18.753906 43.640625 20.003906 45.183594 20.003906 C 46.726562 20.003906 47.980469 18.753906 47.980469 17.210938 Z M 47.980469 17.210938 "/>
<path fill-rule="nonzero" fill="rgb(100%, 0%, 0%)" fill-opacity="1" d="M 8.859375 12.738281 C 8.859375 11.195312 7.605469 9.945312 6.0625 9.945312 C 4.519531 9.945312 3.269531 11.195312 3.269531 12.738281 C 3.269531 14.28125 4.519531 15.53125 6.0625 15.53125 C 7.605469 15.53125 8.859375 14.28125 8.859375 12.738281 Z M 8.859375 12.738281 "/>
</svg>
