<?xml version="1.0" encoding="UTF-8"?>
<svg xmlns="http://www.w3.org/2000/svg" xmlns:xlink="http://www.w3.org/1999/xlink" width="73.7" height="65.196" viewBox="0 0 73.7 65.196">
<defs>
<clipPath id="clip-0">
<path clip-rule="nonzero" d="M 0.300781 0 L 73.101562 0 L 73.101562 64.402344 L 0.300781 64.402344 Z M 0.300781 0 "/>
</clipPath>
<clipPath id="clip-1">
<path clip-rule="nonzero" d="M 13 0 L 20 0 L 20 20 L 13 20 Z M 13 0 "/>
</clipPath>
<clipPath id="clip-2">
<path clip-rule="nonzero" d="M 30.644531 9.109375 C 31.183594 2.945312 27.875 -2.375 23.253906 -2.78125 C 18.632812 -3.183594 14.449219 1.484375 13.910156 7.644531 C 13.371094 13.808594 16.679688 19.128906 21.300781 19.535156 C 25.921875 19.9375 30.105469 15.273438 30.644531 9.109375 Z M 30.644531 9.109375 "/>
</clipPath>
<clipPath id="clip-3">
<path clip-rule="nonzero" d="M 0.300781 27 L 57 27 L 57 64.402344 L 0.300781 64.402344 Z M 0.300781 27 "/>
</clipPath>
<clipPath id="clip-4">
<path clip-rule="nonzero" d="M 45 25 L 73.101562 25 L 73.101562 43 L 45 43 Z M 45 25 "/>
</clipPath>
<clipPath id="clip-5">
<path clip-rule="nonzero" d="M 24 2 L 32 2 L 32 19 L 24 19 Z M 24 2 "/>
</clipPath>
<clipPath id="clip-6">
<path clip-rule="nonzero" d="M 31.628906 8.125 C 32.167969 1.964844 28.859375 -3.359375 24.238281 -3.765625 C 19.617188 -4.167969 15.433594 0.5 14.894531 6.660156 C 14.351562 12.824219 17.664062 18.144531 22.285156 18.550781 C 26.90625 18.957031 31.089844 14.289062 31.628906 8.125 Z M 31.628906 8.125 "/>
</clipPath>
</defs>
<g clip-path="url(#clip-0)">
<path fill-rule="nonzero" fill="rgb(89.99939%, 89.99939%, 89.99939%)" fill-opacity="1" d="M 0.300781 64.402344 L 73.101562 64.402344 L 73.101562 0 L 0.300781 0 Z M 0.300781 64.402344 "/>
</g>
<g clip-path="url(#clip-1)">
<g clip-path="url(#clip-2)">
<path fill-rule="nonzero" fill="rgb(75%, 50%, 25%)" fill-opacity="1" d="M 19.195312 11.480469 C 19.734375 5.320312 16.425781 -0.00390625 11.800781 -0.410156 C 7.179688 -0.8125 2.996094 3.855469 2.457031 10.015625 C 1.917969 16.179688 5.226562 21.5 9.851562 21.90625 C 14.472656 22.3125 18.65625 17.644531 19.195312 11.480469 Z M 19.195312 11.480469 "/>
</g>
</g>
<g clip-path="url(#clip-3)">
<path fill-rule="nonzero" fill="rgb(75%, 50%, 25%)" fill-opacity="1" d="M 11.863281 35.140625 C 4.976562 36.34375 -6 48.804688 5.59375 59.894531 C 17.214844 70.980469 77.667969 63.5625 48.40625 27.46875 C 23.765625 40.710938 32.222656 28.589844 11.863281 35.140625 Z M 11.863281 35.140625 "/>
</g>
<path fill-rule="nonzero" fill="rgb(75%, 50%, 25%)" fill-opacity="1" d="M 36.703125 25.199219 C 36.703125 15.535156 30.433594 7.699219 22.703125 7.699219 C 14.96875 7.699219 8.699219 15.535156 8.699219 25.199219 C 8.699219 34.867188 14.96875 42.699219 22.703125 42.699219 C 30.433594 42.699219 36.703125 34.867188 36.703125 25.199219 Z M 36.703125 25.199219 "/>
<path fill-rule="nonzero" fill="rgb(87.5%, 50%, 12.5%)" fill-opacity="1" d="M 8.867188 25.984375 C 15.503906 24.359375 12.648438 30.714844 22.980469 28.839844 C -0.175781 43.402344 5.03125 28.867188 8.867188 25.984375 Z M 8.867188 25.984375 "/>
<path fill-rule="nonzero" fill="rgb(100%, 99.234009%, 85.00061%)" fill-opacity="1" d="M 22.828125 23.753906 C 23.492188 21.933594 22.976562 20.078125 21.675781 19.609375 C 20.378906 19.136719 18.792969 20.226562 18.128906 22.042969 C 17.46875 23.859375 17.984375 25.714844 19.28125 26.1875 C 20.582031 26.660156 22.167969 25.570312 22.828125 23.753906 Z M 22.828125 23.753906 "/>
<path fill-rule="nonzero" fill="rgb(0%, 0%, 0%)" fill-opacity="1" d="M 22.113281 23.789062 C 22.492188 22.75 22.375 21.757812 21.855469 21.570312 C 21.339844 21.378906 20.613281 22.066406 20.234375 23.105469 C 19.855469 24.144531 19.972656 25.136719 20.488281 25.324219 C 21.007812 25.515625 21.734375 24.828125 22.113281 23.789062 Z M 22.113281 23.789062 "/>
<path fill-rule="nonzero" fill="rgb(100%, 99.234009%, 85.00061%)" fill-opacity="1" d="M 14.652344 21.597656 C 15.257812 19.933594 14.824219 18.25 13.679688 17.835938 C 12.539062 17.417969 11.121094 18.429688 10.519531 20.089844 C 9.914062 21.75 10.347656 23.433594 11.492188 23.851562 C 12.632812 24.265625 14.050781 23.257812 14.652344 21.597656 Z M 14.652344 21.597656 "/>
<path fill-rule="nonzero" fill="rgb(0%, 0%, 0%)" fill-opacity="1" d="M 14.03125 21.667969 C 14.371094 20.734375 14.3125 19.851562 13.894531 19.703125 C 13.480469 19.550781 12.867188 20.183594 12.527344 21.121094 C 12.1875 22.054688 12.25 22.933594 12.664062 23.085938 C 13.078125 23.238281 13.691406 22.601562 14.03125 21.667969 Z M 14.03125 21.667969 "/>
<path fill-rule="nonzero" fill="rgb(37.5%, 25%, 12.5%)" fill-opacity="1" d="M 18.871094 16.980469 C 23.324219 2.5625 36.339844 15.175781 36.476562 22.808594 C 37.355469 7.09375 16.574219 -5.0625 16.332031 16.335938 C 16.332031 16.335938 18.824219 17.007812 18.871094 16.980469 Z M 18.871094 16.980469 "/>
<g clip-path="url(#clip-4)">
<path fill-rule="nonzero" fill="rgb(37.5%, 25%, 12.5%)" fill-opacity="1" d="M 45.796875 29.25 C 54.988281 29.765625 57.5 34.710938 61.664062 39.285156 C 66.828125 44.953125 80.191406 42.308594 74.976562 41.992188 C 66.578125 41.484375 67.945312 35.035156 64.445312 30.375 C 61.308594 26.207031 51.863281 22.554688 45.796875 29.25 Z M 45.796875 29.25 "/>
</g>
<g clip-path="url(#clip-5)">
<g clip-path="url(#clip-6)">
<path fill-rule="nonzero" fill="rgb(75%, 50%, 25%)" fill-opacity="1" d="M 41.789062 14.074219 C 42.328125 7.910156 39.019531 2.589844 34.398438 2.183594 C 29.777344 1.78125 25.59375 6.449219 25.054688 12.609375 C 24.515625 18.773438 27.824219 24.09375 32.445312 24.5 C 37.066406 24.902344 41.25 20.234375 41.789062 14.074219 Z M 41.789062 14.074219 "/>
</g>
</g>
</svg>
