<?xml version="1.0" encoding="UTF-8"?>
<svg xmlns="http://www.w3.org/2000/svg" xmlns:xlink="http://www.w3.org/1999/xlink" width="57.175" height="73.925" viewBox="0 0 57.175 73.925">
<defs>
<clipPath id="clip-0">
<path clip-rule="nonzero" d="M 0 0.488281 L 56.363281 0.488281 L 56.363281 73.363281 L 0 73.363281 Z M 0 0.488281 "/>
</clipPath>
<clipPath id="clip-1">
<path clip-rule="nonzero" d="M 0 26 L 56.363281 26 L 56.363281 64 L 0 64 Z M 0 26 "/>
</clipPath>
<clipPath id="clip-2">
<path clip-rule="nonzero" d="M 0 26 L 56.363281 26 L 56.363281 64 L 0 64 Z M 0 26 "/>
</clipPath>
<clipPath id="clip-3">
<path clip-rule="nonzero" d="M 0 60 L 56.363281 60 L 56.363281 64 L 0 64 Z M 0 60 "/>
</clipPath>
<clipPath id="clip-4">
<path clip-rule="nonzero" d="M 11.371094 33.820312 C 5.140625 35.023438 -5.8125 47.457031 5.757812 58.523438 C 17.351562 69.589844 77.683594 62.183594 48.480469 26.164062 C 22.269531 39.382812 32.332031 27.3125 12.015625 46.257812 Z M 11.371094 33.820312 "/>
</clipPath>
<clipPath id="clip-5">
<path clip-rule="nonzero" d="M 0 52 L 56.363281 52 L 56.363281 64 L 0 64 Z M 0 52 "/>
</clipPath>
<clipPath id="clip-6">
<path clip-rule="nonzero" d="M 11.371094 33.820312 C 5.140625 35.023438 -5.8125 47.457031 5.757812 58.523438 C 17.351562 69.589844 77.683594 62.183594 48.480469 26.164062 C 22.269531 39.382812 32.332031 27.3125 12.015625 46.257812 Z M 11.371094 33.820312 "/>
</clipPath>
<clipPath id="clip-7">
<path clip-rule="nonzero" d="M 0 44 L 56.363281 44 L 56.363281 62 L 0 62 Z M 0 44 "/>
</clipPath>
<clipPath id="clip-8">
<path clip-rule="nonzero" d="M 11.371094 33.820312 C 5.140625 35.023438 -5.8125 47.457031 5.757812 58.523438 C 17.351562 69.589844 77.683594 62.183594 48.480469 26.164062 C 22.269531 39.382812 32.332031 27.3125 12.015625 46.257812 Z M 11.371094 33.820312 "/>
</clipPath>
<clipPath id="clip-9">
<path clip-rule="nonzero" d="M 0 36 L 56.363281 36 L 56.363281 54 L 0 54 Z M 0 36 "/>
</clipPath>
<clipPath id="clip-10">
<path clip-rule="nonzero" d="M 11.371094 33.820312 C 5.140625 35.023438 -5.8125 47.457031 5.757812 58.523438 C 17.351562 69.589844 77.683594 62.183594 48.480469 26.164062 C 22.269531 39.382812 32.332031 27.3125 12.015625 46.257812 Z M 11.371094 33.820312 "/>
</clipPath>
<clipPath id="clip-11">
<path clip-rule="nonzero" d="M 0 27 L 56.363281 27 L 56.363281 46 L 0 46 Z M 0 27 "/>
</clipPath>
<clipPath id="clip-12">
<path clip-rule="nonzero" d="M 11.371094 33.820312 C 5.140625 35.023438 -5.8125 47.457031 5.757812 58.523438 C 17.351562 69.589844 77.683594 62.183594 48.480469 26.164062 C 22.269531 39.382812 32.332031 27.3125 12.015625 46.257812 Z M 11.371094 33.820312 "/>
</clipPath>
<clipPath id="clip-13">
<path clip-rule="nonzero" d="M 0 26 L 56.363281 26 L 56.363281 37 L 0 37 Z M 0 26 "/>
</clipPath>
<clipPath id="clip-14">
<path clip-rule="nonzero" d="M 11.371094 33.820312 C 5.140625 35.023438 -5.8125 47.457031 5.757812 58.523438 C 17.351562 69.589844 77.683594 62.183594 48.480469 26.164062 C 22.269531 39.382812 32.332031 27.3125 12.015625 46.257812 Z M 11.371094 33.820312 "/>
</clipPath>
<clipPath id="clip-15">
<path clip-rule="nonzero" d="M 0 26 L 56.363281 26 L 56.363281 29 L 0 29 Z M 0 26 "/>
</clipPath>
<clipPath id="clip-16">
<path clip-rule="nonzero" d="M 11.371094 33.820312 C 5.140625 35.023438 -5.8125 47.457031 5.757812 58.523438 C 17.351562 69.589844 77.683594 62.183594 48.480469 26.164062 C 22.269531 39.382812 32.332031 27.3125 12.015625 46.257812 Z M 11.371094 33.820312 "/>
</clipPath>
<clipPath id="clip-17">
<path clip-rule="nonzero" d="M 19 61 L 35 61 L 35 73.363281 L 19 73.363281 Z M 19 61 "/>
</clipPath>
<clipPath id="clip-18">
<path clip-rule="nonzero" d="M 15 69 L 21 69 L 21 73.363281 L 15 73.363281 Z M 15 69 "/>
</clipPath>
<clipPath id="clip-19">
<path clip-rule="nonzero" d="M 12 61 L 17 61 L 17 65 L 12 65 Z M 12 61 "/>
</clipPath>
<clipPath id="clip-20">
<path clip-rule="nonzero" d="M 10.851562 64.332031 L 11.433594 61.597656 L 16.351562 62.644531 L 15.773438 65.378906 Z M 10.851562 64.332031 "/>
</clipPath>
</defs>
<g clip-path="url(#clip-0)">
<path fill-rule="nonzero" fill="rgb(89.99939%, 89.99939%, 89.99939%)" fill-opacity="1" d="M 0 73.363281 L 56.363281 73.363281 L 56.363281 0.488281 L 0 0.488281 Z M 0 73.363281 "/>
</g>
<g clip-path="url(#clip-1)">
<path fill-rule="nonzero" fill="rgb(92.871094%, 83.229065%, 14.369202%)" fill-opacity="1" d="M 12.015625 33.820312 C 5.140625 35.023438 -5.8125 47.457031 5.757812 58.523438 C 17.351562 69.589844 77.683594 62.183594 48.480469 26.164062 C 23.890625 39.382812 32.332031 27.28125 12.015625 33.820312 Z M 12.015625 33.820312 "/>
</g>
<path fill-rule="nonzero" fill="rgb(92.871094%, 83.229065%, 14.369202%)" fill-opacity="1" d="M 36.800781 23.902344 C 36.800781 14.257812 30.546875 6.4375 22.828125 6.4375 C 15.113281 6.4375 8.859375 14.257812 8.859375 23.902344 C 8.859375 33.546875 15.113281 41.367188 22.828125 41.367188 C 30.546875 41.367188 36.800781 33.546875 36.800781 23.902344 Z M 36.800781 23.902344 "/>
<path fill-rule="nonzero" fill="rgb(87.5%, 50%, 12.5%)" fill-opacity="1" d="M 9.027344 24.683594 C 15.648438 23.0625 12.796875 29.40625 23.109375 27.535156 C 0 42.066406 5.195312 27.5625 9.027344 24.683594 Z M 9.027344 24.683594 "/>
<path fill-rule="nonzero" fill="rgb(100%, 99.234009%, 85.00061%)" fill-opacity="1" d="M 22.957031 22.457031 C 23.617188 20.644531 23.101562 18.792969 21.808594 18.320312 C 20.511719 17.851562 18.925781 18.9375 18.269531 20.75 C 17.609375 22.5625 18.121094 24.414062 19.417969 24.886719 C 20.710938 25.355469 22.296875 24.269531 22.957031 22.457031 Z M 22.957031 22.457031 "/>
<path fill-rule="nonzero" fill="rgb(0%, 0%, 0%)" fill-opacity="1" d="M 22.242188 22.492188 C 22.621094 21.457031 22.503906 20.464844 21.988281 20.277344 C 21.46875 20.089844 20.742188 20.777344 20.367188 21.8125 C 19.992188 22.847656 20.105469 23.839844 20.621094 24.027344 C 21.140625 24.214844 21.867188 23.527344 22.242188 22.492188 Z M 22.242188 22.492188 "/>
<path fill-rule="nonzero" fill="rgb(100%, 99.234009%, 85.00061%)" fill-opacity="1" d="M 14.800781 20.304688 C 15.402344 18.648438 14.96875 16.96875 13.828125 16.550781 C 12.6875 16.136719 11.273438 17.144531 10.671875 18.800781 C 10.066406 20.460938 10.503906 22.140625 11.640625 22.554688 C 12.78125 22.96875 14.195312 21.960938 14.800781 20.304688 Z M 14.800781 20.304688 "/>
<path fill-rule="nonzero" fill="rgb(0%, 0%, 0%)" fill-opacity="1" d="M 14.179688 20.375 C 14.515625 19.445312 14.457031 18.566406 14.042969 18.414062 C 13.625 18.265625 13.015625 18.898438 12.675781 19.828125 C 12.335938 20.761719 12.398438 21.640625 12.8125 21.792969 C 13.226562 21.941406 13.839844 21.308594 14.179688 20.375 Z M 14.179688 20.375 "/>
<g clip-path="url(#clip-2)">
<path fill-rule="nonzero" fill="rgb(100%, 100%, 100%)" fill-opacity="1" d="M 11.371094 33.820312 C 5.140625 35.023438 -5.8125 47.457031 5.757812 58.523438 C 17.351562 69.589844 77.683594 62.183594 48.480469 26.164062 C 23.890625 38.542969 32.332031 30.078125 14.167969 37.875 Z M 11.371094 33.820312 "/>
</g>
<g clip-path="url(#clip-3)">
<g clip-path="url(#clip-4)">
<path fill-rule="nonzero" fill="rgb(19.999695%, 19.999695%, 19.999695%)" fill-opacity="1" d="M 69.574219 65.117188 L -4.730469 78.21875 L -5.457031 74.089844 L 68.84375 60.988281 Z M 69.574219 65.117188 "/>
</g>
</g>
<g clip-path="url(#clip-5)">
<g clip-path="url(#clip-6)">
<path fill-rule="nonzero" fill="rgb(19.999695%, 19.999695%, 19.999695%)" fill-opacity="1" d="M 68.117188 56.859375 L -6.183594 69.960938 L -6.914062 65.832031 L 67.390625 52.734375 Z M 68.117188 56.859375 "/>
</g>
</g>
<g clip-path="url(#clip-7)">
<g clip-path="url(#clip-8)">
<path fill-rule="nonzero" fill="rgb(19.999695%, 19.999695%, 19.999695%)" fill-opacity="1" d="M 66.660156 48.605469 L -7.640625 61.707031 L -8.367188 57.578125 L 65.933594 44.476562 Z M 66.660156 48.605469 "/>
</g>
</g>
<g clip-path="url(#clip-9)">
<g clip-path="url(#clip-10)">
<path fill-rule="nonzero" fill="rgb(19.999695%, 19.999695%, 19.999695%)" fill-opacity="1" d="M 65.207031 40.347656 L -9.097656 53.449219 L -9.824219 49.320312 L 64.476562 36.222656 Z M 65.207031 40.347656 "/>
</g>
</g>
<g clip-path="url(#clip-11)">
<g clip-path="url(#clip-12)">
<path fill-rule="nonzero" fill="rgb(19.999695%, 19.999695%, 19.999695%)" fill-opacity="1" d="M 63.75 32.09375 L -10.550781 45.195312 L -11.28125 41.066406 L 63.023438 27.964844 Z M 63.75 32.09375 "/>
</g>
</g>
<g clip-path="url(#clip-13)">
<g clip-path="url(#clip-14)">
<path fill-rule="nonzero" fill="rgb(19.999695%, 19.999695%, 19.999695%)" fill-opacity="1" d="M 62.292969 23.835938 L -12.007812 36.9375 L -12.734375 32.808594 L 61.566406 19.710938 Z M 62.292969 23.835938 "/>
</g>
</g>
<g clip-path="url(#clip-15)">
<g clip-path="url(#clip-16)">
<path fill-rule="nonzero" fill="rgb(19.999695%, 19.999695%, 19.999695%)" fill-opacity="1" d="M 60.839844 15.582031 L -13.464844 28.683594 L -14.191406 24.554688 L 60.109375 11.453125 Z M 60.839844 15.582031 "/>
</g>
</g>
<path fill-rule="nonzero" fill="rgb(19.999695%, 19.999695%, 19.999695%)" fill-opacity="1" d="M 35.449219 16.632812 C 36.046875 14.394531 30.492188 10.964844 23.039062 8.96875 C 15.585938 6.96875 9.058594 7.164062 8.457031 9.398438 C 7.859375 11.636719 13.414062 15.066406 20.871094 17.066406 C 28.324219 19.0625 34.851562 18.867188 35.449219 16.632812 Z M 35.449219 16.632812 "/>
<path fill-rule="nonzero" fill="rgb(19.999695%, 19.999695%, 19.999695%)" fill-opacity="1" d="M 39.027344 18.808594 C 40.136719 16.429688 35.363281 11.859375 28.371094 8.597656 C 21.378906 5.335938 14.808594 4.621094 13.699219 6.996094 C 12.59375 9.375 17.363281 13.945312 24.355469 17.207031 C 31.347656 20.46875 37.917969 21.183594 39.027344 18.808594 Z M 39.027344 18.808594 "/>
<path fill-rule="nonzero" fill="rgb(19.999695%, 19.999695%, 19.999695%)" fill-opacity="1" d="M 39.808594 20.265625 C 41.3125 18.117188 36.898438 12.429688 29.945312 7.5625 C 22.992188 2.691406 16.132812 0.488281 14.628906 2.636719 C 13.125 4.785156 17.542969 10.476562 24.496094 15.34375 C 31.449219 20.210938 38.304688 22.417969 39.808594 20.265625 Z M 39.808594 20.265625 "/>
<path fill-rule="nonzero" fill="rgb(50%, 50%, 50%)" fill-opacity="1" d="M 47.980469 58.832031 C 47.980469 54.203125 44.226562 50.449219 39.597656 50.449219 C 34.964844 50.449219 31.210938 54.203125 31.210938 58.832031 C 31.210938 63.460938 34.964844 67.214844 39.597656 67.214844 C 44.226562 67.214844 47.980469 63.460938 47.980469 58.832031 Z M 47.980469 58.832031 "/>
<g clip-path="url(#clip-17)">
<path fill-rule="evenodd" fill="rgb(50%, 50%, 50%)" fill-opacity="1" d="M 34.007812 63.023438 C 34.007812 61.941406 32.757812 61.066406 31.210938 61.066406 C 29.667969 61.066406 28.417969 61.941406 28.417969 63.023438 C 28.417969 64.101562 29.667969 64.980469 31.210938 64.980469 C 32.757812 64.980469 34.007812 64.101562 34.007812 63.023438 Z M 32.890625 63.023438 C 32.890625 62.40625 32.136719 61.90625 31.210938 61.90625 C 30.285156 61.90625 29.535156 62.40625 29.535156 63.023438 C 29.535156 63.640625 30.285156 64.140625 31.210938 64.140625 C 32.136719 64.140625 32.890625 63.640625 32.890625 63.023438 Z M 29.816406 67.214844 C 29.816406 66.132812 28.566406 65.257812 27.019531 65.257812 C 25.476562 65.257812 24.226562 66.132812 24.226562 67.214844 C 24.226562 68.292969 25.476562 69.171875 27.019531 69.171875 C 28.566406 69.171875 29.816406 68.292969 29.816406 67.214844 Z M 28.699219 67.214844 C 28.699219 66.597656 27.945312 66.097656 27.019531 66.097656 C 26.09375 66.097656 25.34375 66.597656 25.34375 67.214844 C 25.34375 67.832031 26.09375 68.332031 27.019531 68.332031 C 27.945312 68.332031 28.699219 67.832031 28.699219 67.214844 Z M 24.785156 71.40625 C 24.785156 70.324219 23.535156 69.449219 21.992188 69.449219 C 20.449219 69.449219 19.195312 70.324219 19.195312 71.40625 C 19.195312 72.484375 20.449219 73.363281 21.992188 73.363281 C 23.535156 73.363281 24.785156 72.484375 24.785156 71.40625 Z M 23.667969 71.40625 C 23.667969 70.789062 22.917969 70.289062 21.992188 70.289062 C 21.066406 70.289062 20.316406 70.789062 20.316406 71.40625 C 20.316406 72.023438 21.066406 72.523438 21.992188 72.523438 C 22.917969 72.523438 23.667969 72.023438 23.667969 71.40625 Z M 23.667969 71.40625 "/>
</g>
<g clip-path="url(#clip-18)">
<path fill-rule="evenodd" fill="rgb(50%, 50%, 50%)" fill-opacity="1" d="M 20.59375 71.40625 C 20.59375 70.324219 19.34375 69.449219 17.800781 69.449219 C 16.257812 69.449219 15.003906 70.324219 15.003906 71.40625 C 15.003906 72.484375 16.257812 73.363281 17.800781 73.363281 C 19.34375 73.363281 20.59375 72.484375 20.59375 71.40625 Z M 19.476562 71.40625 C 19.476562 70.789062 18.726562 70.289062 17.800781 70.289062 C 16.875 70.289062 16.125 70.789062 16.125 71.40625 C 16.125 72.023438 16.875 72.523438 17.800781 72.523438 C 18.726562 72.523438 19.476562 72.023438 19.476562 71.40625 Z M 19.476562 71.40625 "/>
</g>
<path fill-rule="evenodd" fill="rgb(50%, 50%, 50%)" fill-opacity="1" d="M 30.03125 62.722656 C 29.015625 62.355469 27.765625 63.230469 27.238281 64.679688 C 26.707031 66.128906 27.105469 67.605469 28.117188 67.976562 C 29.132812 68.34375 30.386719 67.46875 30.914062 66.019531 C 31.441406 64.566406 31.046875 63.09375 30.03125 62.722656 Z M 29.648438 63.773438 C 29.066406 63.5625 28.339844 64.097656 28.023438 64.96875 C 27.707031 65.835938 27.921875 66.714844 28.5 66.925781 C 29.082031 67.136719 29.808594 66.601562 30.125 65.730469 C 30.441406 64.863281 30.226562 63.984375 29.648438 63.773438 Z M 25.492188 67.019531 C 24.476562 66.648438 23.226562 67.527344 22.699219 68.976562 C 22.171875 70.425781 22.566406 71.902344 23.582031 72.269531 C 24.597656 72.640625 25.847656 71.765625 26.375 70.3125 C 26.902344 68.863281 26.507812 67.386719 25.492188 67.019531 Z M 25.109375 68.070312 C 24.53125 67.859375 23.804688 68.394531 23.488281 69.261719 C 23.171875 70.132812 23.382812 71.007812 23.964844 71.21875 C 24.542969 71.429688 25.269531 70.898438 25.585938 70.027344 C 25.902344 69.15625 25.691406 68.28125 25.109375 68.070312 Z M 15.96875 62.957031 C 14.953125 62.589844 13.703125 63.464844 13.175781 64.914062 C 12.648438 66.363281 13.042969 67.839844 14.058594 68.210938 C 15.074219 68.578125 16.324219 67.703125 16.851562 66.253906 C 17.378906 64.800781 16.984375 63.328125 15.96875 62.957031 Z M 15.585938 64.007812 C 15.007812 63.796875 14.28125 64.332031 13.964844 65.203125 C 13.644531 66.070312 13.859375 66.949219 14.441406 67.160156 C 15.019531 67.371094 15.746094 66.835938 16.0625 65.964844 C 16.378906 65.097656 16.167969 64.21875 15.585938 64.007812 Z M 15.585938 64.007812 "/>
<path fill-rule="evenodd" fill="rgb(50%, 50%, 50%)" fill-opacity="1" d="M 14.320312 66.601562 C 13.304688 66.96875 12.910156 68.445312 13.4375 69.894531 C 13.964844 71.34375 15.21875 72.222656 16.234375 71.851562 C 17.246094 71.480469 17.644531 70.007812 17.113281 68.558594 C 16.585938 67.105469 15.335938 66.230469 14.320312 66.601562 Z M 14.703125 67.652344 C 14.125 67.863281 13.910156 68.738281 14.226562 69.609375 C 14.542969 70.476562 15.269531 71.011719 15.851562 70.800781 C 16.429688 70.589844 16.644531 69.714844 16.328125 68.84375 C 16.011719 67.972656 15.285156 67.4375 14.703125 67.652344 Z M 14.703125 67.652344 "/>
<g clip-path="url(#clip-19)">
<g clip-path="url(#clip-20)">
<path fill-rule="evenodd" fill="rgb(50%, 50%, 50%)" fill-opacity="1" d="M 13.148438 59.296875 C 12.132812 59.664062 11.738281 61.140625 12.265625 62.589844 C 12.792969 64.039062 14.046875 64.917969 15.0625 64.546875 C 16.074219 64.175781 16.472656 62.703125 15.941406 61.25 C 15.414062 59.800781 14.164062 58.925781 13.148438 59.296875 Z M 13.53125 60.34375 C 12.953125 60.554688 12.738281 61.433594 13.054688 62.304688 C 13.371094 63.171875 14.097656 63.707031 14.679688 63.496094 C 15.257812 63.285156 15.472656 62.410156 15.15625 61.539062 C 14.839844 60.667969 14.113281 60.132812 13.53125 60.34375 Z M 13.53125 60.34375 "/>
</g>
</g>
</svg>
