<?xml version="1.0" encoding="UTF-8"?>
<svg xmlns="http://www.w3.org/2000/svg" xmlns:xlink="http://www.w3.org/1999/xlink" width="62.362" height="87.874" viewBox="0 0 62.362 87.874">
<defs>
<clipPath id="clip-0">
<path clip-rule="nonzero" d="M 0 0.382812 L 61.730469 0.382812 L 61.730469 87.367188 L 0 87.367188 Z M 0 0.382812 "/>
</clipPath>
<clipPath id="clip-1">
<path clip-rule="nonzero" d="M 0 36 L 35 36 L 35 87.367188 L 0 87.367188 Z M 0 36 "/>
</clipPath>
<clipPath id="clip-2">
<path clip-rule="nonzero" d="M 0 37 L 37 37 L 37 87.367188 L 0 87.367188 Z M 0 37 "/>
</clipPath>
<clipPath id="clip-3">
<path clip-rule="nonzero" d="M 0 37 L 39 37 L 39 87.367188 L 0 87.367188 Z M 0 37 "/>
</clipPath>
<clipPath id="clip-4">
<path clip-rule="nonzero" d="M 3 47 L 59 47 L 59 85 L 3 85 Z M 3 47 "/>
</clipPath>
<clipPath id="clip-5">
<path clip-rule="nonzero" d="M 13.75 55.238281 C 7.492188 56.445312 -3.507812 68.929688 8.109375 80.042969 C 19.753906 91.15625 80.335938 83.71875 51.011719 47.550781 C 24.691406 60.820312 34.792969 48.699219 14.394531 67.726562 Z M 13.75 55.238281 "/>
</clipPath>
</defs>
<g clip-path="url(#clip-0)">
<path fill-rule="nonzero" fill="rgb(89.99939%, 89.99939%, 89.99939%)" fill-opacity="1" d="M 0 87.367188 L 61.730469 87.367188 L 61.730469 0.382812 L 0 0.382812 Z M 0 87.367188 "/>
</g>
<path fill-rule="nonzero" fill="rgb(100%, 85.488892%, 72.549438%)" fill-opacity="1" d="M 14.394531 55.238281 C 7.492188 56.445312 -3.507812 68.929688 8.109375 80.042969 C 19.753906 91.15625 80.335938 83.71875 51.011719 47.550781 C 26.320312 60.820312 34.792969 48.671875 14.394531 55.238281 Z M 14.394531 55.238281 "/>
<path fill-rule="nonzero" fill="rgb(100%, 85.488892%, 72.549438%)" fill-opacity="1" d="M 39.285156 45.277344 C 39.285156 35.589844 33.003906 27.738281 25.253906 27.738281 C 17.503906 27.738281 11.222656 35.589844 11.222656 45.277344 C 11.222656 54.960938 17.503906 62.8125 25.253906 62.8125 C 33.003906 62.8125 39.285156 54.960938 39.285156 45.277344 Z M 39.285156 45.277344 "/>
<path fill-rule="nonzero" fill="rgb(87.5%, 50%, 12.5%)" fill-opacity="1" d="M 11.390625 46.0625 C 18.042969 44.433594 15.179688 50.804688 25.535156 48.925781 C 2.328125 63.515625 7.546875 48.953125 11.390625 46.0625 Z M 11.390625 46.0625 "/>
<path fill-rule="nonzero" fill="rgb(100%, 99.234009%, 85.00061%)" fill-opacity="1" d="M 25.382812 43.824219 C 26.042969 42.003906 25.527344 40.144531 24.226562 39.671875 C 22.925781 39.199219 21.335938 40.292969 20.671875 42.113281 C 20.011719 43.933594 20.527344 45.792969 21.828125 46.265625 C 23.128906 46.738281 24.71875 45.644531 25.382812 43.824219 Z M 25.382812 43.824219 "/>
<path fill-rule="nonzero" fill="rgb(0%, 0%, 0%)" fill-opacity="1" d="M 24.664062 43.863281 C 25.042969 42.824219 24.925781 41.828125 24.40625 41.636719 C 23.886719 41.449219 23.160156 42.136719 22.78125 43.179688 C 22.402344 44.21875 22.515625 45.214844 23.039062 45.402344 C 23.558594 45.59375 24.285156 44.902344 24.664062 43.863281 Z M 24.664062 43.863281 "/>
<path fill-rule="nonzero" fill="rgb(100%, 99.234009%, 85.00061%)" fill-opacity="1" d="M 17.191406 41.664062 C 17.796875 40 17.359375 38.3125 16.214844 37.898438 C 15.070312 37.480469 13.652344 38.492188 13.042969 40.15625 C 12.4375 41.820312 12.875 43.507812 14.019531 43.925781 C 15.164062 44.339844 16.582031 43.328125 17.191406 41.664062 Z M 17.191406 41.664062 "/>
<path fill-rule="nonzero" fill="rgb(0%, 0%, 0%)" fill-opacity="1" d="M 16.566406 41.738281 C 16.90625 40.800781 16.84375 39.917969 16.429688 39.765625 C 16.011719 39.617188 15.398438 40.253906 15.058594 41.1875 C 14.71875 42.125 14.777344 43.007812 15.195312 43.160156 C 15.613281 43.308594 16.226562 42.671875 16.566406 41.738281 Z M 16.566406 41.738281 "/>
<path fill-rule="nonzero" fill="rgb(90.586853%, 71.763611%, 0%)" fill-opacity="1" d="M 13.75 55.238281 C 7.492188 56.445312 -3.507812 68.929688 8.109375 80.042969 C 19.753906 91.15625 80.335938 83.71875 51.011719 47.550781 C 26.320312 59.980469 34.792969 51.476562 16.554688 59.308594 Z M 13.75 55.238281 "/>
<path fill-rule="nonzero" fill="rgb(84.999084%, 84.999084%, 84.999084%)" fill-opacity="1" d="M 39.136719 47.59375 C 40.816406 46.628906 41.246094 40.882812 40.246094 36.882812 C 35.152344 17.125 6.5625 23.644531 11.648438 42.730469 C 12.191406 34.871094 20.824219 28.445312 26.640625 33.902344 C 34.347656 41.136719 37.363281 48.605469 39.136719 47.59375 Z M 39.136719 47.59375 "/>
<path fill-rule="nonzero" fill="rgb(84.999084%, 84.999084%, 84.999084%)" fill-opacity="1" d="M 22.6875 38.257812 L 26.324219 40.355469 C 26.796875 40.628906 27.402344 40.46875 27.671875 39.996094 L 27.527344 40.246094 C 27.800781 39.773438 27.640625 39.171875 27.167969 38.898438 L 23.53125 36.796875 C 23.058594 36.527344 22.453125 36.6875 22.183594 37.160156 L 22.328125 36.910156 C 22.054688 37.382812 22.214844 37.984375 22.6875 38.257812 Z M 22.6875 38.257812 "/>
<path fill-rule="nonzero" fill="rgb(84.999084%, 84.999084%, 84.999084%)" fill-opacity="1" d="M 14.113281 37.296875 L 17.144531 36.761719 C 17.679688 36.667969 18.039062 36.15625 17.945312 35.617188 L 17.992188 35.902344 C 17.898438 35.367188 17.386719 35.007812 16.851562 35.101562 L 13.820312 35.636719 C 13.285156 35.730469 12.925781 36.242188 13.019531 36.78125 L 12.96875 36.496094 C 13.0625 37.03125 13.574219 37.390625 14.113281 37.296875 Z M 14.113281 37.296875 "/>
<path fill-rule="nonzero" fill="rgb(79.998779%, 0%, 0%)" fill-opacity="1" d="M 13.742188 55.144531 C 7.488281 56.347656 -3.511719 68.839844 8.105469 79.949219 C 19.75 91.0625 80.335938 83.625 51.011719 47.453125 C 37.847656 54.089844 33.796875 54.378906 30.476562 55.382812 C 19.890625 59.40625 13.273438 68.550781 13.742188 55.144531 Z M 13.742188 55.144531 "/>
<path fill-rule="nonzero" fill="rgb(0%, 16.862488%, 49.804688%)" fill-opacity="1" d="M 6.78125 78.414062 C 15.921875 74.859375 24.234375 67.546875 32.417969 54.730469 C 33.25 54.683594 39.261719 52.523438 40.496094 52.5 C 34.160156 62.144531 24.761719 80.265625 12.355469 82.59375 C 10.832031 81.515625 8.671875 80.640625 6.78125 78.414062 Z M 6.78125 78.414062 "/>
<path fill-rule="nonzero" fill="rgb(79.998779%, 0%, 0%)" fill-opacity="1" d="M 33.554688 13.140625 C 31.933594 12.777344 30.289062 12.164062 28.605469 12.492188 C 27.078125 12.839844 26.074219 11.742188 24.742188 11.265625 C 23.019531 10.5625 21.078125 11.546875 20.320312 13.171875 C 19.390625 14.355469 19.878906 16.085938 19.066406 17.078125 C 19.191406 18.160156 18.890625 19.238281 18.808594 20.335938 C 18.949219 21.640625 17.601562 23.507812 19.066406 24.300781 C 21.371094 26.105469 24.453125 26.21875 27.089844 27.296875 C 30.457031 28.414062 33.746094 29.753906 36.96875 31.230469 C 38.167969 31.722656 39.507812 32.015625 40.785156 31.875 C 41.492188 31.339844 41.726562 28.894531 42.875 29.804688 C 42.539062 28.984375 43.40625 28.148438 43.714844 27.40625 C 43.964844 26.789062 44.9375 26.453125 44.519531 25.640625 C 45.667969 24.769531 46.035156 23.164062 46.210938 21.78125 C 46.46875 19.859375 44.855469 18.265625 43.050781 17.976562 C 41.644531 18.007812 40.582031 17.195312 39.683594 16.175781 C 38.585938 15.148438 37.148438 14.625 35.824219 13.964844 C 34.957031 13.875 34.328125 13.5 33.554688 13.140625 Z M 33.554688 13.140625 "/>
<path fill-rule="evenodd" fill="rgb(0%, 0%, 0%)" fill-opacity="1" d="M 38.75 34.257812 C 39.007812 34.488281 39.847656 35.398438 39.71875 35.179688 C 38.945312 34.367188 40.128906 35.199219 39.464844 34.546875 C 40.449219 34.953125 39.75 34.664062 39.167969 34.425781 C 39.027344 34.371094 38.890625 34.3125 38.75 34.257812 Z M 38.75 34.257812 "/>
<path fill-rule="evenodd" fill="rgb(0%, 0%, 0%)" fill-opacity="1" d="M 38.78125 34.179688 C 38.722656 34.621094 39.496094 34.976562 39.769531 35.382812 C 39.753906 34.898438 39.617188 34.824219 40.125 34.730469 C 39.675781 34.546875 39.230469 34.363281 38.78125 34.179688 Z M 39.097656 34.484375 C 39.53125 34.53125 39.382812 34.847656 39.121094 34.511719 Z M 39.097656 34.484375 "/>
<path fill-rule="evenodd" fill="rgb(0%, 0%, 0%)" fill-opacity="1" d="M 39.125 34.109375 C 39.074219 33.503906 38.523438 34.363281 39.125 34.109375 Z M 39.125 34.109375 "/>
<path fill-rule="evenodd" fill="rgb(0%, 0%, 0%)" fill-opacity="1" d="M 39.078125 33.851562 C 38.128906 33.960938 39.558594 34.613281 39.078125 33.851562 Z M 39.023438 33.96875 C 39.230469 34.292969 38.648438 33.980469 39.023438 33.96875 Z M 39.023438 33.96875 "/>
<path fill-rule="evenodd" fill="rgb(0%, 0%, 0%)" fill-opacity="1" d="M 38.726562 34.195312 C 38.683594 33.507812 38.070312 34.53125 38.726562 34.195312 Z M 38.726562 34.195312 "/>
<path fill-rule="evenodd" fill="rgb(0%, 0%, 0%)" fill-opacity="1" d="M 38.679688 33.9375 C 37.730469 34.046875 39.160156 34.699219 38.679688 33.9375 Z M 38.625 34.050781 C 38.832031 34.375 38.25 34.066406 38.625 34.050781 Z M 38.625 34.050781 "/>
<path fill-rule="evenodd" fill="rgb(0%, 0%, 0%)" fill-opacity="1" d="M 38.761719 34.625 C 38.714844 33.941406 38.105469 34.964844 38.761719 34.625 Z M 38.761719 34.625 "/>
<path fill-rule="evenodd" fill="rgb(0%, 0%, 0%)" fill-opacity="1" d="M 38.714844 34.367188 C 37.761719 34.476562 39.191406 35.132812 38.714844 34.367188 Z M 38.65625 34.484375 C 38.867188 34.808594 38.285156 34.5 38.65625 34.484375 Z M 38.65625 34.484375 "/>
<path fill-rule="evenodd" fill="rgb(0%, 0%, 0%)" fill-opacity="1" d="M 34.402344 31.253906 C 34.660156 31.484375 35.5 32.398438 35.371094 32.175781 C 34.597656 31.367188 35.78125 32.195312 35.113281 31.546875 C 36.101562 31.949219 35.402344 31.664062 34.820312 31.425781 C 34.679688 31.367188 34.542969 31.308594 34.402344 31.253906 Z M 34.402344 31.253906 "/>
<path fill-rule="evenodd" fill="rgb(0%, 0%, 0%)" fill-opacity="1" d="M 34.433594 31.179688 C 34.375 31.617188 35.148438 31.972656 35.421875 32.378906 C 35.527344 32.097656 35.113281 31.605469 35.714844 31.878906 C 35.773438 31.507812 34.742188 31.410156 34.433594 31.179688 Z M 34.746094 31.480469 C 35.183594 31.527344 35.035156 31.84375 34.773438 31.507812 Z M 34.746094 31.480469 "/>
<path fill-rule="evenodd" fill="rgb(0%, 0%, 0%)" fill-opacity="1" d="M 34.777344 31.105469 C 34.726562 30.503906 34.175781 31.363281 34.777344 31.105469 Z M 34.777344 31.105469 "/>
<path fill-rule="evenodd" fill="rgb(0%, 0%, 0%)" fill-opacity="1" d="M 34.730469 30.851562 C 33.78125 30.957031 35.210938 31.613281 34.730469 30.851562 Z M 34.671875 30.964844 C 34.882812 31.289062 34.300781 30.980469 34.671875 30.964844 Z M 34.671875 30.964844 "/>
<path fill-rule="evenodd" fill="rgb(0%, 0%, 0%)" fill-opacity="1" d="M 34.378906 31.191406 C 34.328125 30.585938 33.777344 31.445312 34.378906 31.191406 Z M 34.378906 31.191406 "/>
<path fill-rule="evenodd" fill="rgb(0%, 0%, 0%)" fill-opacity="1" d="M 34.332031 30.933594 C 33.382812 31.042969 34.8125 31.695312 34.332031 30.933594 Z M 34.273438 31.050781 C 34.484375 31.371094 33.902344 31.0625 34.273438 31.050781 Z M 34.273438 31.050781 "/>
<path fill-rule="evenodd" fill="rgb(0%, 0%, 0%)" fill-opacity="1" d="M 34.414062 31.625 C 34.367188 30.9375 33.753906 31.960938 34.414062 31.625 Z M 34.414062 31.625 "/>
<path fill-rule="evenodd" fill="rgb(0%, 0%, 0%)" fill-opacity="1" d="M 34.367188 31.367188 C 33.414062 31.476562 34.84375 32.128906 34.367188 31.367188 Z M 34.308594 31.484375 C 34.515625 31.804688 33.9375 31.496094 34.308594 31.484375 Z M 34.308594 31.484375 "/>
<path fill-rule="evenodd" fill="rgb(0%, 0%, 0%)" fill-opacity="1" d="M 29.042969 28.707031 C 29.382812 28.777344 30.613281 28.917969 30.359375 28.941406 C 29.25 28.796875 30.617188 29.261719 29.699219 29.109375 C 30.609375 29.667969 29.964844 29.273438 29.429688 28.941406 C 29.300781 28.863281 29.171875 28.785156 29.042969 28.707031 Z M 29.042969 28.707031 "/>
<path fill-rule="evenodd" fill="rgb(0%, 0%, 0%)" fill-opacity="1" d="M 30.554688 28.863281 C 30.066406 28.882812 29.320312 28.464844 29 28.773438 C 29.359375 28.914062 30.230469 29.71875 30.246094 29.347656 C 29.8125 29.101562 30.296875 29.113281 30.554688 28.863281 Z M 29.738281 28.898438 C 29.882812 29.25 29.070312 28.648438 29.738281 28.898438 Z M 29.738281 28.898438 "/>
<path fill-rule="evenodd" fill="rgb(0%, 0%, 0%)" fill-opacity="1" d="M 29.148438 29.09375 C 28.566406 29.464844 29.035156 28.363281 29.148438 29.09375 Z M 29.148438 29.09375 "/>
<path fill-rule="evenodd" fill="rgb(0%, 0%, 0%)" fill-opacity="1" d="M 29.105469 28.832031 C 28.042969 28.929688 29.644531 29.679688 29.105469 28.832031 Z M 29.042969 28.949219 C 29.253906 29.285156 28.679688 28.953125 29.042969 28.949219 Z M 29.042969 28.949219 "/>
<path fill-rule="evenodd" fill="rgb(0%, 0%, 0%)" fill-opacity="1" d="M 28.980469 28.726562 C 28.242188 29.050781 29.003906 27.996094 28.980469 28.726562 Z M 28.980469 28.726562 "/>
<path fill-rule="evenodd" fill="rgb(0%, 0%, 0%)" fill-opacity="1" d="M 28.9375 28.464844 C 27.878906 28.558594 29.476562 29.3125 28.9375 28.464844 Z M 28.875 28.578125 C 29.085938 28.914062 28.511719 28.582031 28.875 28.578125 Z M 28.875 28.578125 "/>
<path fill-rule="evenodd" fill="rgb(0%, 0%, 0%)" fill-opacity="1" d="M 29.351562 28.496094 C 28.609375 28.824219 29.371094 27.765625 29.351562 28.496094 Z M 29.351562 28.496094 "/>
<path fill-rule="evenodd" fill="rgb(0%, 0%, 0%)" fill-opacity="1" d="M 29.304688 28.234375 C 28.246094 28.328125 29.84375 29.082031 29.304688 28.234375 Z M 29.246094 28.347656 C 29.460938 28.679688 28.878906 28.351562 29.246094 28.347656 Z M 29.246094 28.347656 "/>
<path fill-rule="evenodd" fill="rgb(0%, 0%, 0%)" fill-opacity="1" d="M 22.960938 27.265625 C 23.308594 27.25 24.539062 27.09375 24.296875 27.179688 C 23.183594 27.304688 24.621094 27.429688 23.695312 27.496094 C 24.710938 27.824219 23.992188 27.59375 23.390625 27.402344 C 23.25 27.355469 23.105469 27.308594 22.960938 27.265625 Z M 22.960938 27.265625 "/>
<path fill-rule="evenodd" fill="rgb(0%, 0%, 0%)" fill-opacity="1" d="M 24.464844 27.054688 C 23.996094 27.191406 23.171875 26.964844 22.9375 27.339844 C 23.375 27.363281 24.105469 27.949219 24.367188 27.628906 C 23.792969 27.496094 24.238281 27.363281 24.464844 27.054688 Z M 23.683594 27.285156 C 23.910156 27.589844 22.972656 27.203125 23.683594 27.285156 Z M 23.683594 27.285156 "/>
<path fill-rule="evenodd" fill="rgb(0%, 0%, 0%)" fill-opacity="1" d="M 23.15625 27.617188 C 22.515625 28.109375 23.003906 26.902344 23.15625 27.617188 Z M 23.15625 27.617188 "/>
<path fill-rule="evenodd" fill="rgb(0%, 0%, 0%)" fill-opacity="1" d="M 23.050781 27.375 C 22.046875 27.71875 23.777344 28.066406 23.050781 27.375 Z M 23.019531 27.5 C 23.304688 27.777344 22.667969 27.59375 23.019531 27.5 Z M 23.019531 27.5 "/>
<path fill-rule="evenodd" fill="rgb(0%, 0%, 0%)" fill-opacity="1" d="M 22.90625 27.296875 C 22.429688 27.792969 22.617188 26.613281 22.90625 27.296875 Z M 22.90625 27.296875 "/>
<path fill-rule="evenodd" fill="rgb(0%, 0%, 0%)" fill-opacity="1" d="M 22.800781 27.054688 C 21.792969 27.398438 23.523438 27.746094 22.800781 27.054688 Z M 22.765625 27.179688 C 23.054688 27.457031 22.417969 27.273438 22.765625 27.179688 Z M 22.765625 27.179688 "/>
<path fill-rule="evenodd" fill="rgb(0%, 0%, 0%)" fill-opacity="1" d="M 23.207031 26.988281 C 22.570312 27.480469 23.054688 26.273438 23.207031 26.988281 Z M 23.207031 26.988281 "/>
<path fill-rule="evenodd" fill="rgb(0%, 0%, 0%)" fill-opacity="1" d="M 23.101562 26.742188 C 22.097656 27.089844 23.828125 27.4375 23.101562 26.742188 Z M 23.070312 26.871094 C 23.359375 27.148438 22.71875 26.960938 23.070312 26.871094 Z M 23.070312 26.871094 "/>
<path fill-rule="evenodd" fill="rgb(0%, 0%, 0%)" fill-opacity="1" d="M 17.707031 26.894531 C 18.050781 26.882812 19.28125 26.722656 19.039062 26.808594 C 17.925781 26.933594 19.367188 27.058594 18.4375 27.128906 C 19.453125 27.453125 18.734375 27.222656 18.136719 27.03125 C 17.992188 26.984375 17.847656 26.941406 17.707031 26.894531 Z M 17.707031 26.894531 "/>
<path fill-rule="evenodd" fill="rgb(0%, 0%, 0%)" fill-opacity="1" d="M 19.210938 26.683594 C 18.742188 26.820312 17.914062 26.59375 17.679688 26.972656 C 18.0625 27.019531 19.097656 27.59375 19.023438 27.230469 C 18.546875 27.09375 19.019531 26.992188 19.210938 26.683594 Z M 18.425781 26.914062 C 18.648438 27.21875 17.714844 26.832031 18.425781 26.914062 Z M 18.425781 26.914062 "/>
<path fill-rule="evenodd" fill="rgb(0%, 0%, 0%)" fill-opacity="1" d="M 17.898438 27.246094 C 17.261719 27.742188 17.746094 26.53125 17.898438 27.246094 Z M 17.898438 27.246094 "/>
<path fill-rule="evenodd" fill="rgb(0%, 0%, 0%)" fill-opacity="1" d="M 17.792969 27.003906 C 16.789062 27.347656 18.519531 27.699219 17.792969 27.003906 Z M 17.761719 27.128906 C 18.050781 27.40625 17.410156 27.222656 17.761719 27.128906 Z M 17.761719 27.128906 "/>
<path fill-rule="evenodd" fill="rgb(0%, 0%, 0%)" fill-opacity="1" d="M 17.648438 26.925781 C 17.171875 27.425781 17.363281 26.246094 17.648438 26.925781 Z M 17.648438 26.925781 "/>
<path fill-rule="evenodd" fill="rgb(0%, 0%, 0%)" fill-opacity="1" d="M 17.542969 26.683594 C 16.535156 27.027344 18.269531 27.378906 17.542969 26.683594 Z M 17.511719 26.808594 C 17.796875 27.085938 17.160156 26.902344 17.511719 26.808594 Z M 17.511719 26.808594 "/>
<path fill-rule="evenodd" fill="rgb(0%, 0%, 0%)" fill-opacity="1" d="M 17.953125 26.617188 C 17.3125 27.109375 17.796875 25.902344 17.953125 26.617188 Z M 17.953125 26.617188 "/>
<path fill-rule="evenodd" fill="rgb(0%, 0%, 0%)" fill-opacity="1" d="M 17.847656 26.375 C 16.839844 26.71875 18.574219 27.066406 17.847656 26.375 Z M 17.816406 26.5 C 18.101562 26.777344 17.464844 26.59375 17.816406 26.5 Z M 17.816406 26.5 "/>
<path fill-rule="nonzero" fill="rgb(98.039246%, 98.039246%, 98.039246%)" fill-opacity="1" d="M 20.003906 25.875 C 18.691406 26.023438 16.449219 25.082031 16.140625 26.933594 C 15.953125 28.640625 18.660156 27.527344 19.789062 27.984375 C 25.34375 28.375 30.863281 29.957031 35.523438 33.058594 C 37.191406 34.117188 38.75 35.332031 40.285156 36.574219 C 42.203125 35.332031 40.363281 33.800781 39.105469 33.007812 C 36.726562 31.277344 34.265625 29.609375 31.488281 28.582031 C 27.945312 27.09375 24.171875 26.210938 20.339844 25.925781 Z M 20.003906 25.875 "/>
<path fill-rule="evenodd" fill="rgb(90.586853%, 71.763611%, 0%)" fill-opacity="1" d="M 26.355469 14.765625 C 25.304688 15.933594 24.578125 17.632812 24.914062 19.238281 C 24.875 17.542969 22.933594 17.257812 22.726562 19.058594 C 22.546875 19.558594 22.023438 20.882812 22.789062 19.722656 C 24.347656 18.503906 25.226562 21.144531 23.871094 21.984375 C 23.535156 23.242188 20.222656 22.398438 22.429688 22.933594 C 24.050781 23.363281 25.667969 23.792969 27.289062 24.222656 C 26.417969 23.222656 24.445312 21.800781 25.726562 20.433594 C 26.765625 19.332031 27.59375 21.320312 27.585938 21.441406 C 28.117188 20.226562 27.6875 17.40625 25.996094 19.144531 C 25.414062 19.796875 26.847656 17.78125 26.554688 17.167969 C 26.558594 16.394531 26.734375 15.457031 26.355469 14.765625 Z M 24.917969 19.257812 C 24.933594 20.074219 24.816406 21.117188 24.902344 19.691406 L 24.914062 19.484375 Z M 25.703125 19.464844 C 25.402344 20.125 24.941406 21.164062 25.476562 19.914062 C 25.746094 19.246094 25.410156 20.132812 25.703125 19.464844 Z M 25.703125 19.464844 "/>
<path fill-rule="evenodd" fill="rgb(90.586853%, 71.763611%, 0%)" fill-opacity="1" d="M 40.511719 20.074219 C 39.242188 21 38.175781 22.511719 38.171875 24.152344 C 38.484375 22.484375 36.644531 21.804688 36.070312 23.523438 C 35.785156 23.972656 35 25.160156 35.992188 24.1875 C 37.804688 23.246094 38.191406 26.40625 36.238281 26.375 C 35.4375 26.5625 33.089844 26.652344 34.96875 27.25 C 36.464844 28.007812 37.960938 28.765625 39.457031 29.523438 C 38.378906 28.65625 37.320312 26.171875 38.898438 25.421875 C 40.074219 24.652344 40.261719 26.992188 40.324219 26.863281 C 41.097656 25.785156 41.265625 22.9375 39.25 24.285156 C 38.542969 24.804688 40.363281 23.128906 40.203125 22.46875 C 40.371094 21.710938 40.738281 20.832031 40.511719 20.074219 Z M 38.171875 24.171875 C 38.015625 24.972656 37.683594 25.972656 38.066406 24.59375 Z M 38.894531 24.539062 C 38.460938 25.121094 37.796875 26.042969 38.582031 24.929688 C 38.984375 24.335938 38.46875 25.132812 38.894531 24.539062 Z M 38.894531 24.539062 "/>
<path fill-rule="evenodd" fill="rgb(90.586853%, 71.763611%, 0%)" fill-opacity="1" d="M 19.691406 17.019531 C 20.222656 16.703125 20.757812 16.386719 21.289062 16.070312 C 20.941406 14.976562 20.472656 13.21875 20.554688 11.816406 C 20.503906 9.414062 22.917969 8 24.964844 7.503906 C 26.53125 7.296875 27.808594 8.484375 29.210938 8.984375 C 30.878906 10.164062 32.824219 10.84375 34.679688 11.664062 C 35.546875 10.554688 33.953125 10.496094 33.15625 10.082031 C 31.253906 9.535156 29.769531 8.117188 27.859375 7.574219 C 26.539062 6.878906 25.035156 6.296875 23.621094 7.128906 C 22.179688 7.609375 20.707031 8.363281 20.09375 9.851562 C 19.101562 11.457031 20.15625 13.265625 19.855469 14.949219 C 19.777344 15.636719 19.753906 16.332031 19.691406 17.019531 Z M 19.691406 17.019531 "/>
<path fill-rule="evenodd" fill="rgb(90.586853%, 71.763611%, 0%)" fill-opacity="1" d="M 44.289062 25.964844 C 44.082031 25.378906 43.878906 24.796875 43.671875 24.210938 C 44.644531 23.59375 46.128906 22.546875 46.96875 21.421875 C 48.550781 19.613281 47.609375 16.980469 46.359375 15.285156 C 45.292969 14.117188 43.550781 14.207031 42.15625 13.6875 C 40.117188 13.523438 38.191406 12.792969 36.242188 12.234375 C 36.292969 10.824219 37.550781 11.804688 38.425781 12 C 40.234375 12.800781 42.28125 12.667969 44.09375 13.476562 C 45.554688 13.792969 47.078125 14.3125 47.632812 15.859375 C 48.429688 17.152344 49.070312 18.675781 48.585938 20.210938 C 48.316406 22.082031 46.34375 22.785156 45.492188 24.273438 C 45.113281 24.847656 44.683594 25.398438 44.289062 25.964844 Z M 44.289062 25.964844 "/>
<path fill-rule="evenodd" fill="rgb(90.586853%, 71.763611%, 0%)" fill-opacity="1" d="M 34.121094 9.847656 C 35.441406 10.324219 36.757812 10.804688 38.078125 11.285156 C 37.09375 13.988281 36.109375 16.695312 35.125 19.398438 C 33.808594 18.917969 32.488281 18.4375 31.171875 17.960938 C 32.15625 15.253906 33.136719 12.550781 34.121094 9.847656 Z M 34.121094 9.847656 "/>
<path fill-rule="evenodd" fill="rgb(90.586853%, 71.763611%, 0%)" fill-opacity="1" d="M 37.195312 2.867188 C 37.683594 3.492188 38.308594 6.109375 37.195312 4.386719 C 36.71875 3.625 36.503906 2.734375 36.238281 4.019531 C 35.976562 4.738281 35.714844 5.460938 35.453125 6.179688 C 36.214844 5.691406 38.597656 4.96875 37.0625 6.40625 C 36.347656 7.203125 34.878906 7.746094 36.535156 8.113281 C 37.015625 8.175781 38.089844 9.195312 37.9375 8.242188 C 37.996094 7.261719 37.789062 4.605469 38.894531 6.578125 C 39.304688 7.566406 39.5 7.765625 39.753906 6.679688 C 40.007812 5.988281 40.257812 5.300781 40.507812 4.609375 C 39.882812 5.09375 37.265625 5.722656 38.984375 4.605469 C 39.75 4.132812 40.640625 3.914062 39.351562 3.648438 C 38.632812 3.386719 37.914062 3.125 37.195312 2.867188 Z M 37.195312 2.867188 "/>
<path fill-rule="evenodd" fill="rgb(90.586853%, 71.763611%, 0%)" fill-opacity="1" d="M 38.710938 9.492188 C 37.914062 12.070312 33.742188 10.550781 34.789062 8.0625 C 35.6875 5.484375 39.671875 6.941406 38.710938 9.492188 Z M 38.710938 9.492188 "/>
<path fill-rule="evenodd" fill="rgb(90.586853%, 71.763611%, 0%)" fill-opacity="1" d="M 30.734375 17.492188 C 31.339844 18.445312 32.003906 20.507812 31.707031 21.140625 C 30.742188 20.523438 30.011719 18.554688 29.589844 18.167969 C 29 19.789062 28.414062 21.40625 27.824219 23.023438 C 28.777344 22.421875 30.839844 21.757812 31.472656 22.054688 C 30.855469 23.019531 28.886719 23.75 28.5 24.167969 C 30.121094 24.757812 31.738281 25.347656 33.355469 25.933594 C 32.753906 24.984375 32.089844 22.921875 32.386719 22.289062 C 33.347656 22.902344 34.082031 24.871094 34.5 25.257812 C 35.089844 23.640625 35.679688 22.023438 36.265625 20.402344 C 35.316406 21.007812 33.253906 21.671875 32.621094 21.375 C 33.234375 20.410156 35.203125 19.679688 35.589844 19.257812 C 33.972656 18.671875 32.355469 18.082031 30.734375 17.492188 Z M 30.734375 17.492188 "/>
<path fill-rule="evenodd" fill="rgb(90.586853%, 71.763611%, 0%)" fill-opacity="1" d="M 18.058594 22.546875 C 18.9375 22.699219 19.816406 22.855469 20.695312 23.011719 C 19.933594 22.179688 18.921875 20.261719 19.105469 19.589844 C 20.160156 20.027344 21.222656 21.835938 21.703125 22.144531 C 22.003906 20.449219 22.300781 18.753906 22.597656 17.058594 C 21.769531 17.816406 19.851562 18.828125 19.175781 18.648438 C 19.617188 17.589844 21.425781 16.527344 21.734375 16.046875 C 20.917969 15.902344 20.097656 15.757812 19.28125 15.617188 C 18.875 17.925781 18.46875 20.234375 18.058594 22.546875 Z M 18.058594 22.546875 "/>
<path fill-rule="evenodd" fill="rgb(90.586853%, 71.763611%, 0%)" fill-opacity="1" d="M 43.429688 23.902344 C 43.859375 24.945312 44.15625 27.089844 43.753906 27.664062 C 42.910156 26.890625 42.535156 24.824219 42.1875 24.371094 C 41.328125 25.863281 40.464844 27.351562 39.605469 28.84375 C 40.644531 28.414062 42.792969 28.121094 43.363281 28.523438 C 42.589844 29.363281 40.527344 29.742188 40.070312 30.089844 C 40.792969 30.503906 41.511719 30.921875 42.230469 31.335938 C 43.402344 29.304688 44.574219 27.269531 45.746094 25.238281 C 44.972656 24.792969 44.203125 24.347656 43.429688 23.902344 Z M 43.429688 23.902344 "/>
<path fill-rule="evenodd" fill="rgb(90.586853%, 71.763611%, 0%)" fill-opacity="1" d="M 18.171875 22.300781 C 17.742188 23.503906 17.308594 24.707031 16.878906 25.914062 C 23.335938 26.179688 29.859375 27.609375 35.441406 30.980469 C 37.367188 32.09375 39.226562 33.320312 40.980469 34.683594 C 41.417969 33.480469 41.855469 32.28125 42.292969 31.078125 C 37.167969 27.132812 31.246094 24.03125 24.800781 23.023438 C 22.613281 22.640625 20.394531 22.382812 18.171875 22.300781 Z M 18.171875 22.300781 "/>
<path fill-rule="evenodd" fill="rgb(98.039246%, 98.039246%, 98.039246%)" fill-opacity="1" d="M 20.191406 15.027344 C 19.53125 16.753906 17.210938 14.617188 18.859375 13.804688 C 19.597656 13.398438 20.535156 14.257812 20.191406 15.027344 Z M 20.191406 15.027344 "/>
<path fill-rule="evenodd" fill="rgb(98.039246%, 98.039246%, 98.039246%)" fill-opacity="1" d="M 19.773438 12.507812 C 19.113281 14.234375 16.792969 12.097656 18.445312 11.285156 C 19.183594 10.875 20.117188 11.738281 19.773438 12.507812 Z M 19.773438 12.507812 "/>
<path fill-rule="evenodd" fill="rgb(98.039246%, 98.039246%, 98.039246%)" fill-opacity="1" d="M 20.421875 9.964844 C 19.761719 11.691406 17.441406 9.558594 19.089844 8.742188 C 19.832031 8.335938 20.765625 9.195312 20.421875 9.964844 Z M 20.421875 9.964844 "/>
<path fill-rule="evenodd" fill="rgb(98.039246%, 98.039246%, 98.039246%)" fill-opacity="1" d="M 21.988281 7.945312 C 21.328125 9.671875 19.007812 7.535156 20.660156 6.71875 C 21.398438 6.3125 22.332031 7.171875 21.988281 7.945312 Z M 21.988281 7.945312 "/>
<path fill-rule="evenodd" fill="rgb(98.039246%, 98.039246%, 98.039246%)" fill-opacity="1" d="M 24.226562 6.628906 C 23.566406 8.355469 21.246094 6.21875 22.894531 5.40625 C 23.636719 4.996094 24.570312 5.859375 24.226562 6.628906 Z M 24.226562 6.628906 "/>
<path fill-rule="evenodd" fill="rgb(98.039246%, 98.039246%, 98.039246%)" fill-opacity="1" d="M 26.828125 6.09375 C 26.167969 7.820312 23.847656 5.683594 25.496094 4.871094 C 26.238281 4.460938 27.171875 5.324219 26.828125 6.09375 Z M 26.828125 6.09375 "/>
<path fill-rule="evenodd" fill="rgb(98.039246%, 98.039246%, 98.039246%)" fill-opacity="1" d="M 29.136719 7.121094 C 28.480469 8.847656 26.160156 6.710938 27.808594 5.894531 C 28.546875 5.488281 29.480469 6.347656 29.136719 7.121094 Z M 29.136719 7.121094 "/>
<path fill-rule="evenodd" fill="rgb(98.039246%, 98.039246%, 98.039246%)" fill-opacity="1" d="M 31.367188 8.375 C 30.707031 10.101562 28.386719 7.964844 30.035156 7.148438 C 30.777344 6.742188 31.710938 7.601562 31.367188 8.375 Z M 31.367188 8.375 "/>
<path fill-rule="evenodd" fill="rgb(98.039246%, 98.039246%, 98.039246%)" fill-opacity="1" d="M 33.648438 9.480469 C 32.988281 11.207031 30.667969 9.074219 32.316406 8.257812 C 33.058594 7.851562 33.992188 8.710938 33.648438 9.480469 Z M 33.648438 9.480469 "/>
<path fill-rule="evenodd" fill="rgb(98.039246%, 98.039246%, 98.039246%)" fill-opacity="1" d="M 45.1875 24.117188 C 44.582031 25.863281 47.734375 25.71875 46.992188 24.035156 C 46.6875 23.246094 45.417969 23.304688 45.1875 24.117188 Z M 45.1875 24.117188 "/>
<path fill-rule="evenodd" fill="rgb(98.039246%, 98.039246%, 98.039246%)" fill-opacity="1" d="M 47.125 22.453125 C 46.519531 24.199219 49.667969 24.054688 48.929688 22.371094 C 48.625 21.582031 47.355469 21.640625 47.125 22.453125 Z M 47.125 22.453125 "/>
<path fill-rule="evenodd" fill="rgb(98.039246%, 98.039246%, 98.039246%)" fill-opacity="1" d="M 48.261719 20.089844 C 47.65625 21.835938 50.804688 21.691406 50.066406 20.007812 C 49.761719 19.21875 48.492188 19.277344 48.261719 20.089844 Z M 48.261719 20.089844 "/>
<path fill-rule="evenodd" fill="rgb(98.039246%, 98.039246%, 98.039246%)" fill-opacity="1" d="M 48.355469 17.53125 C 47.753906 19.28125 50.902344 19.132812 50.164062 17.449219 C 49.855469 16.664062 48.589844 16.722656 48.355469 17.53125 Z M 48.355469 17.53125 "/>
<path fill-rule="evenodd" fill="rgb(98.039246%, 98.039246%, 98.039246%)" fill-opacity="1" d="M 47.488281 15.085938 C 46.882812 16.835938 50.035156 16.6875 49.292969 15.003906 C 48.988281 14.21875 47.71875 14.277344 47.488281 15.085938 Z M 47.488281 15.085938 "/>
<path fill-rule="evenodd" fill="rgb(98.039246%, 98.039246%, 98.039246%)" fill-opacity="1" d="M 45.835938 13.007812 C 45.234375 14.753906 48.382812 14.609375 47.644531 12.921875 C 47.339844 12.136719 46.070312 12.195312 45.835938 13.007812 Z M 45.835938 13.007812 "/>
<path fill-rule="evenodd" fill="rgb(98.039246%, 98.039246%, 98.039246%)" fill-opacity="1" d="M 43.40625 12.308594 C 42.804688 14.054688 45.953125 13.910156 45.214844 12.226562 C 44.90625 11.4375 43.640625 11.496094 43.40625 12.308594 Z M 43.40625 12.308594 "/>
<path fill-rule="evenodd" fill="rgb(98.039246%, 98.039246%, 98.039246%)" fill-opacity="1" d="M 40.894531 11.839844 C 40.289062 13.585938 43.441406 13.441406 42.699219 11.753906 C 42.394531 10.96875 41.125 11.027344 40.894531 11.839844 Z M 40.894531 11.839844 "/>
<path fill-rule="evenodd" fill="rgb(98.039246%, 98.039246%, 98.039246%)" fill-opacity="1" d="M 38.433594 11.222656 C 37.832031 12.96875 40.980469 12.824219 40.242188 11.136719 C 39.933594 10.351562 38.667969 10.410156 38.433594 11.222656 Z M 38.433594 11.222656 "/>
<path fill-rule="evenodd" fill="rgb(98.039246%, 98.039246%, 98.039246%)" fill-opacity="1" d="M 34.472656 17.890625 C 33.816406 19.617188 31.496094 17.480469 33.144531 16.664062 C 33.882812 16.257812 34.816406 17.117188 34.472656 17.890625 Z M 34.472656 17.890625 "/>
<path fill-rule="evenodd" fill="rgb(98.039246%, 98.039246%, 98.039246%)" fill-opacity="1" d="M 35.070312 16.253906 C 34.410156 17.980469 32.089844 15.847656 33.738281 15.03125 C 34.476562 14.625 35.414062 15.484375 35.070312 16.253906 Z M 35.070312 16.253906 "/>
<path fill-rule="evenodd" fill="rgb(98.039246%, 98.039246%, 98.039246%)" fill-opacity="1" d="M 35.542969 14.945312 C 34.886719 16.671875 32.5625 14.539062 34.214844 13.722656 C 34.953125 13.316406 35.886719 14.175781 35.542969 14.945312 Z M 35.542969 14.945312 "/>
<path fill-rule="evenodd" fill="rgb(98.039246%, 98.039246%, 98.039246%)" fill-opacity="1" d="M 35.980469 13.753906 C 35.320312 15.480469 33 13.34375 34.648438 12.527344 C 35.386719 12.121094 36.324219 12.980469 35.980469 13.753906 Z M 35.980469 13.753906 "/>
<path fill-rule="evenodd" fill="rgb(98.039246%, 98.039246%, 98.039246%)" fill-opacity="1" d="M 37 10.941406 C 36.339844 12.667969 34.019531 10.53125 35.671875 9.71875 C 36.410156 9.308594 37.34375 10.171875 37 10.941406 Z M 37 10.941406 "/>
<path fill-rule="evenodd" fill="rgb(98.039246%, 98.039246%, 98.039246%)" fill-opacity="1" d="M 36.371094 12.46875 C 35.710938 14.195312 33.390625 12.0625 35.039062 11.246094 C 35.78125 10.839844 36.714844 11.699219 36.371094 12.46875 Z M 36.371094 12.46875 "/>
<path fill-rule="evenodd" fill="rgb(0%, 16.862488%, 49.804688%)" fill-opacity="1" d="M 28.929688 24.910156 C 30.152344 25.351562 31.371094 25.796875 32.59375 26.242188 C 32.398438 26.773438 32.207031 27.308594 32.011719 27.839844 C 30.789062 27.394531 29.570312 26.949219 28.347656 26.507812 C 28.542969 25.972656 28.734375 25.441406 28.929688 24.910156 Z M 28.929688 24.910156 "/>
<path fill-rule="evenodd" fill="rgb(24.31488%, 50.979614%, 14.509583%)" fill-opacity="1" d="M 34.335938 28.214844 C 34.582031 29.792969 36.414062 30.675781 37.5 29.746094 C 37.351562 28.234375 35.320312 27.25 34.335938 28.214844 Z M 34.335938 28.214844 "/>
<path fill-rule="evenodd" fill="rgb(79.998779%, 0%, 0%)" fill-opacity="1" d="M 17.878906 23.175781 C 17.433594 24.261719 17.304688 25.058594 18.644531 24.867188 C 19.121094 24.839844 19.855469 25.101562 20.1875 24.910156 C 20.089844 24.464844 20.484375 23.597656 20.074219 23.417969 C 19.34375 23.335938 18.609375 23.257812 17.878906 23.175781 Z M 17.878906 23.175781 "/>
<path fill-rule="evenodd" fill="rgb(79.998779%, 0%, 0%)" fill-opacity="1" d="M 42.171875 32.019531 C 41.867188 33.152344 41.382812 33.820312 40.5 32.820312 C 40.148438 32.492188 39.417969 32.222656 39.289062 31.859375 C 39.648438 31.582031 39.90625 30.664062 40.335938 30.792969 C 40.949219 31.199219 41.5625 31.609375 42.171875 32.019531 Z M 42.171875 32.019531 "/>
<path fill-rule="evenodd" fill="rgb(24.31488%, 50.979614%, 14.509583%)" fill-opacity="1" d="M 26.328125 25.300781 C 25.125 26.351562 23.152344 25.851562 22.917969 24.4375 C 24.003906 23.378906 26.195312 23.929688 26.328125 25.300781 Z M 26.328125 25.300781 "/>
<path fill-rule="evenodd" fill="rgb(98.039246%, 98.039246%, 98.039246%)" fill-opacity="1" d="M 28.09375 24.738281 C 27.21875 26 26.773438 23.394531 28.019531 24.253906 Z M 28.09375 24.738281 "/>
<path fill-rule="evenodd" fill="rgb(98.039246%, 98.039246%, 98.039246%)" fill-opacity="1" d="M 27.710938 26.226562 C 26.835938 27.488281 26.390625 24.882812 27.636719 25.742188 Z M 27.710938 26.226562 "/>
<path fill-rule="evenodd" fill="rgb(98.039246%, 98.039246%, 98.039246%)" fill-opacity="1" d="M 22.085938 23.703125 C 21.210938 24.964844 20.765625 22.355469 22.015625 23.21875 Z M 22.085938 23.703125 "/>
<path fill-rule="evenodd" fill="rgb(98.039246%, 98.039246%, 98.039246%)" fill-opacity="1" d="M 22.160156 25.261719 C 21.28125 26.523438 20.835938 23.914062 22.085938 24.773438 Z M 22.160156 25.261719 "/>
<path fill-rule="evenodd" fill="rgb(98.039246%, 98.039246%, 98.039246%)" fill-opacity="1" d="M 33.320312 26.640625 C 33.179688 28.171875 35.199219 26.460938 33.6875 26.316406 Z M 33.320312 26.640625 "/>
<path fill-rule="evenodd" fill="rgb(98.039246%, 98.039246%, 98.039246%)" fill-opacity="1" d="M 32.660156 28.027344 C 32.519531 29.558594 34.535156 27.847656 33.027344 27.703125 Z M 32.660156 28.027344 "/>
<path fill-rule="evenodd" fill="rgb(98.039246%, 98.039246%, 98.039246%)" fill-opacity="1" d="M 38.589844 29.707031 C 38.449219 31.238281 40.464844 29.527344 38.957031 29.382812 Z M 38.589844 29.707031 "/>
<path fill-rule="evenodd" fill="rgb(98.039246%, 98.039246%, 98.039246%)" fill-opacity="1" d="M 37.535156 30.855469 C 37.394531 32.386719 39.410156 30.675781 37.902344 30.53125 Z M 37.535156 30.855469 "/>
<path fill-rule="evenodd" fill="rgb(98.039246%, 98.039246%, 98.039246%)" fill-opacity="1" d="M 42.46875 27.714844 C 41.6875 29.820312 45.476562 29.9375 44.878906 27.789062 C 44.613281 26.613281 42.804688 26.554688 42.46875 27.714844 Z M 42.46875 27.714844 "/>
<path fill-rule="evenodd" fill="rgb(98.039246%, 98.039246%, 98.039246%)" fill-opacity="1" d="M 20.121094 19.582031 C 19.367188 21.695312 16.390625 19.351562 18.226562 18.089844 C 19.1875 17.359375 20.609375 18.476562 20.121094 19.582031 Z M 20.121094 19.582031 "/>
<path fill-rule="evenodd" fill="rgb(98.039246%, 98.039246%, 98.039246%)" fill-opacity="1" d="M 33.292969 21.941406 C 32.539062 24.054688 29.5625 21.710938 31.398438 20.449219 C 32.359375 19.714844 33.78125 20.835938 33.292969 21.941406 Z M 33.292969 21.941406 "/>
<path fill-rule="nonzero" fill="rgb(90.586853%, 71.763611%, 0%)" fill-opacity="1" d="M 16.273438 66.320312 C 16.273438 65.546875 15.648438 64.917969 14.871094 64.917969 C 14.097656 64.917969 13.46875 65.546875 13.46875 66.320312 C 13.46875 67.097656 14.097656 67.726562 14.871094 67.726562 C 15.648438 67.726562 16.273438 67.097656 16.273438 66.320312 Z M 15.433594 70.53125 C 15.433594 69.753906 14.804688 69.128906 14.03125 69.128906 C 13.253906 69.128906 12.625 69.753906 12.625 70.53125 C 12.625 71.304688 13.253906 71.933594 14.03125 71.933594 C 14.804688 71.933594 15.433594 71.304688 15.433594 70.53125 Z M 14.589844 74.738281 C 14.589844 73.964844 13.964844 73.335938 13.1875 73.335938 C 12.414062 73.335938 11.785156 73.964844 11.785156 74.738281 C 11.785156 75.515625 12.414062 76.144531 13.1875 76.144531 C 13.964844 76.144531 14.589844 75.515625 14.589844 74.738281 Z M 14.589844 74.738281 "/>
<path fill-rule="nonzero" fill="rgb(90.586853%, 71.763611%, 0%)" fill-opacity="1" d="M 33.671875 76.144531 C 33.671875 73.042969 31.160156 70.53125 28.058594 70.53125 C 24.960938 70.53125 22.449219 73.042969 22.449219 76.144531 C 22.449219 79.242188 24.960938 81.753906 28.058594 81.753906 C 31.160156 81.753906 33.671875 79.242188 33.671875 76.144531 Z M 33.671875 76.144531 "/>
<path fill="none" stroke-width="1.99255" stroke-linecap="butt" stroke-linejoin="miter" stroke="rgb(90.586853%, 71.763611%, 0%)" stroke-opacity="1" stroke-miterlimit="10" d="M 28.34565 11.336967 L 28.34565 25.511765 " transform="matrix(0.989873, 0, 0, -0.989873, -0.000000000000000056, 87.366689)"/>
<path fill="none" stroke-width="1.99255" stroke-linecap="butt" stroke-linejoin="miter" stroke="rgb(90.586853%, 71.763611%, 0%)" stroke-opacity="1" stroke-miterlimit="10" d="M 24.944014 21.261693 L 31.747286 21.261693 " transform="matrix(0.989873, 0, 0, -0.989873, -0.000000000000000056, 87.366689)"/>
<g clip-path="url(#clip-1)">
<path fill="none" stroke-width="1.99255" stroke-linecap="butt" stroke-linejoin="miter" stroke="rgb(90.586853%, 71.763611%, 0%)" stroke-opacity="1" stroke-miterlimit="10" d="M 5.765418 18.32571 L 6.550714 22.792824 " transform="matrix(0.989873, 0, 0, -0.989873, -0.000000000000000056, 87.366689)"/>
</g>
<g clip-path="url(#clip-2)">
<path fill="none" stroke-width="1.99255" stroke-linecap="butt" stroke-linejoin="miter" stroke="rgb(0%, 16.862488%, 49.804688%)" stroke-opacity="1" stroke-miterlimit="10" d="M 7.998974 17.931089 L 8.784271 22.398202 " transform="matrix(0.989873, 0, 0, -0.989873, -0.000000000000000056, 87.366689)"/>
</g>
<g clip-path="url(#clip-3)">
<path fill="none" stroke-width="1.99255" stroke-linecap="butt" stroke-linejoin="miter" stroke="rgb(98.039246%, 98.039246%, 98.039246%)" stroke-opacity="1" stroke-miterlimit="10" d="M 10.232531 17.540414 L 11.017827 22.003581 " transform="matrix(0.989873, 0, 0, -0.989873, -0.000000000000000056, 87.366689)"/>
</g>
<path fill-rule="nonzero" fill="rgb(90.586853%, 71.763611%, 0%)" fill-opacity="1" d="M 6.394531 70.488281 C 6.480469 70 6.15625 69.53125 5.667969 69.445312 C 5.179688 69.359375 4.714844 69.6875 4.628906 70.175781 C 4.539062 70.664062 4.867188 71.128906 5.355469 71.214844 C 5.84375 71.300781 6.308594 70.976562 6.394531 70.488281 Z M 6.394531 70.488281 "/>
<path fill-rule="nonzero" fill="rgb(0%, 16.862488%, 49.804688%)" fill-opacity="1" d="M 8.605469 70.875 C 8.691406 70.386719 8.367188 69.921875 7.878906 69.835938 C 7.390625 69.75 6.921875 70.078125 6.835938 70.566406 C 6.75 71.054688 7.078125 71.519531 7.566406 71.605469 C 8.054688 71.691406 8.519531 71.363281 8.605469 70.875 Z M 8.605469 70.875 "/>
<path fill-rule="nonzero" fill="rgb(98.039246%, 98.039246%, 98.039246%)" fill-opacity="1" d="M 10.816406 71.265625 C 10.902344 70.777344 10.578125 70.3125 10.089844 70.226562 C 9.601562 70.140625 9.132812 70.464844 9.046875 70.953125 C 8.960938 71.441406 9.289062 71.910156 9.777344 71.996094 C 10.265625 72.082031 10.730469 71.753906 10.816406 71.265625 Z M 10.816406 71.265625 "/>
<g clip-path="url(#clip-4)">
<g clip-path="url(#clip-5)">
<path fill="none" stroke-width="3.9851" stroke-linecap="round" stroke-linejoin="miter" stroke="rgb(90.586853%, 71.763611%, 0%)" stroke-opacity="1" stroke-miterlimit="10" d="M 34.016358 28.9134 L 39.687067 26.644328 " transform="matrix(0.989873, 0, 0, -0.989873, -0.000000000000000056, 87.366689)"/>
<path fill="none" stroke-width="3.78584" stroke-linecap="round" stroke-linejoin="miter" stroke="rgb(90.586853%, 71.763611%, 0%)" stroke-opacity="1" stroke-miterlimit="10" d="M 5.102454 28.345146 L 10.773162 29.765783 " transform="matrix(0.989873, 0, 0, -0.989873, -0.000000000000000056, 87.366689)"/>
</g>
</g>
</svg>
