<?xml version="1.0" encoding="UTF-8"?>
<svg xmlns="http://www.w3.org/2000/svg" xmlns:xlink="http://www.w3.org/1999/xlink" width="57.175" height="59.675" viewBox="0 0 57.175 59.675">
<defs>
<clipPath id="clip-0">
<path clip-rule="nonzero" d="M 0 0.265625 L 56.363281 0.265625 L 56.363281 59.089844 L 0 59.089844 Z M 0 0.265625 "/>
</clipPath>
<clipPath id="clip-1">
<path clip-rule="nonzero" d="M 0 22 L 56.363281 22 L 56.363281 59.089844 L 0 59.089844 Z M 0 22 "/>
</clipPath>
</defs>
<g clip-path="url(#clip-0)">
<path fill-rule="nonzero" fill="rgb(89.99939%, 89.99939%, 89.99939%)" fill-opacity="1" d="M 0 59.089844 L 56.363281 59.089844 L 56.363281 0.265625 L 0 0.265625 Z M 0 59.089844 "/>
</g>
<g clip-path="url(#clip-1)">
<path fill-rule="nonzero" fill="rgb(92.871094%, 83.229065%, 14.369202%)" fill-opacity="1" d="M 12.015625 29.890625 C 5.140625 31.089844 -5.8125 43.527344 5.757812 54.589844 C 17.351562 65.65625 77.683594 58.253906 48.480469 22.234375 C 23.890625 35.449219 32.332031 23.351562 12.015625 29.890625 Z M 12.015625 29.890625 "/>
</g>
<path fill-rule="nonzero" fill="rgb(92.871094%, 83.229065%, 14.369202%)" fill-opacity="1" d="M 36.800781 19.96875 C 36.800781 10.324219 30.546875 2.503906 22.828125 2.503906 C 15.113281 2.503906 8.859375 10.324219 8.859375 19.96875 C 8.859375 29.617188 15.113281 37.433594 22.828125 37.433594 C 30.546875 37.433594 36.800781 29.617188 36.800781 19.96875 Z M 36.800781 19.96875 "/>
<path fill-rule="nonzero" fill="rgb(87.5%, 50%, 12.5%)" fill-opacity="1" d="M 9.027344 20.753906 C 15.648438 19.132812 12.796875 25.476562 23.109375 23.601562 C 0 38.132812 5.195312 23.628906 9.027344 20.753906 Z M 9.027344 20.753906 "/>
<path fill-rule="nonzero" fill="rgb(100%, 99.234009%, 85.00061%)" fill-opacity="1" d="M 22.957031 18.523438 C 23.617188 16.710938 23.101562 14.859375 21.808594 14.390625 C 20.511719 13.917969 18.925781 15.003906 18.269531 16.816406 C 17.609375 18.628906 18.121094 20.480469 19.417969 20.953125 C 20.710938 21.425781 22.296875 20.335938 22.957031 18.523438 Z M 22.957031 18.523438 "/>
<path fill-rule="nonzero" fill="rgb(0%, 0%, 0%)" fill-opacity="1" d="M 22.242188 18.5625 C 22.621094 17.527344 22.503906 16.535156 21.988281 16.347656 C 21.46875 16.15625 20.742188 16.84375 20.367188 17.878906 C 19.992188 18.914062 20.105469 19.90625 20.621094 20.09375 C 21.140625 20.285156 21.867188 19.597656 22.242188 18.5625 Z M 22.242188 18.5625 "/>
<path fill-rule="nonzero" fill="rgb(100%, 99.234009%, 85.00061%)" fill-opacity="1" d="M 14.800781 16.371094 C 15.402344 14.714844 14.96875 13.035156 13.828125 12.621094 C 12.6875 12.207031 11.273438 13.210938 10.671875 14.871094 C 10.066406 16.527344 10.503906 18.207031 11.640625 18.625 C 12.78125 19.039062 14.195312 18.03125 14.800781 16.371094 Z M 14.800781 16.371094 "/>
<path fill-rule="nonzero" fill="rgb(0%, 0%, 0%)" fill-opacity="1" d="M 14.179688 16.445312 C 14.515625 15.511719 14.457031 14.632812 14.042969 14.484375 C 13.625 14.332031 13.015625 14.964844 12.675781 15.898438 C 12.335938 16.832031 12.398438 17.707031 12.8125 17.859375 C 13.226562 18.011719 13.839844 17.378906 14.179688 16.445312 Z M 14.179688 16.445312 "/>
<path fill-rule="nonzero" fill="rgb(50%, 50%, 50%)" fill-opacity="1" d="M 37.726562 19.535156 C 37.820312 13.75 36.425781 4.621094 26.824219 2.425781 C 17.378906 0.265625 11.078125 7.972656 10.203125 11.074219 C 14.621094 10.523438 29.832031 13.039062 37.726562 19.535156 Z M 37.726562 19.535156 "/>
<path fill-rule="nonzero" fill="rgb(34.999084%, 34.999084%, 34.999084%)" fill-opacity="1" d="M 26.410156 2.199219 C 23.933594 2.332031 21.980469 4.175781 20.460938 5.96875 C 19.542969 7.089844 18.765625 8.320312 18.105469 9.605469 C 15.871094 9.1875 13.617188 8.875 11.351562 8.726562 C 10.519531 9.265625 9.175781 11.691406 10.933594 11.695312 C 12.898438 11.957031 14.863281 12.238281 16.808594 12.625 C 16.253906 14.234375 15.757812 15.90625 15.566406 17.589844 L 16.074219 18.976562 L 17.433594 18.089844 C 17.78125 16.378906 18.253906 14.691406 18.890625 13.066406 C 25.597656 14.597656 31.53125 16.667969 37.113281 20.746094 C 37.832031 20.082031 38.300781 19.328125 38.128906 18.425781 C 37.964844 17.378906 36.886719 16.992188 36.148438 16.402344 C 31.363281 13.242188 25.863281 11.339844 20.300781 10.0625 C 22.082031 6.910156 24.742188 4.035156 28.226562 2.816406 C 27.722656 2.398438 27.0625 2.191406 26.410156 2.199219 Z M 26.410156 2.199219 "/>
<path fill-rule="nonzero" fill="rgb(75%, 75%, 75%)" fill-opacity="1" d="M 12.128906 10.328125 C 12.128906 10.097656 11.941406 9.910156 11.707031 9.910156 C 11.476562 9.910156 11.289062 10.097656 11.289062 10.328125 C 11.289062 10.5625 11.476562 10.75 11.707031 10.75 C 11.941406 10.75 12.128906 10.5625 12.128906 10.328125 Z M 14.472656 10.609375 C 14.472656 10.375 14.285156 10.1875 14.054688 10.1875 C 13.824219 10.1875 13.636719 10.375 13.636719 10.609375 C 13.636719 10.839844 13.824219 11.027344 14.054688 11.027344 C 14.285156 11.027344 14.472656 10.839844 14.472656 10.609375 Z M 17.214844 10.972656 C 17.214844 10.738281 17.027344 10.550781 16.792969 10.550781 C 16.5625 10.550781 16.375 10.738281 16.375 10.972656 C 16.375 11.203125 16.5625 11.390625 16.792969 11.390625 C 17.027344 11.390625 17.214844 11.203125 17.214844 10.972656 Z M 20.203125 11.613281 C 20.203125 11.382812 20.015625 11.195312 19.785156 11.195312 C 19.550781 11.195312 19.363281 11.382812 19.363281 11.613281 C 19.363281 11.847656 19.550781 12.035156 19.785156 12.035156 C 20.015625 12.035156 20.203125 11.847656 20.203125 11.613281 Z M 23.222656 12.425781 C 23.222656 12.191406 23.035156 12.003906 22.800781 12.003906 C 22.570312 12.003906 22.382812 12.191406 22.382812 12.425781 C 22.382812 12.65625 22.570312 12.84375 22.800781 12.84375 C 23.035156 12.84375 23.222656 12.65625 23.222656 12.425781 Z M 26.128906 13.234375 C 26.128906 13.003906 25.941406 12.816406 25.707031 12.816406 C 25.476562 12.816406 25.289062 13.003906 25.289062 13.234375 C 25.289062 13.46875 25.476562 13.65625 25.707031 13.65625 C 25.941406 13.65625 26.128906 13.46875 26.128906 13.234375 Z M 28.808594 14.214844 C 28.808594 13.980469 28.621094 13.792969 28.390625 13.792969 C 28.160156 13.792969 27.972656 13.980469 27.972656 14.214844 C 27.972656 14.445312 28.160156 14.632812 28.390625 14.632812 C 28.621094 14.632812 28.808594 14.445312 28.808594 14.214844 Z M 31.210938 15.136719 C 31.210938 14.902344 31.023438 14.714844 30.792969 14.714844 C 30.5625 14.714844 30.375 14.902344 30.375 15.136719 C 30.375 15.367188 30.5625 15.554688 30.792969 15.554688 C 31.023438 15.554688 31.210938 15.367188 31.210938 15.136719 Z M 33.753906 16.363281 C 33.753906 16.132812 33.566406 15.945312 33.335938 15.945312 C 33.105469 15.945312 32.917969 16.132812 32.917969 16.363281 C 32.917969 16.597656 33.105469 16.785156 33.335938 16.785156 C 33.566406 16.785156 33.753906 16.597656 33.753906 16.363281 Z M 36.101562 17.707031 C 36.101562 17.476562 35.914062 17.289062 35.683594 17.289062 C 35.453125 17.289062 35.265625 17.476562 35.265625 17.707031 C 35.265625 17.9375 35.453125 18.125 35.683594 18.125 C 35.914062 18.125 36.101562 17.9375 36.101562 17.707031 Z M 16.988281 17.007812 C 16.988281 16.777344 16.800781 16.589844 16.570312 16.589844 C 16.339844 16.589844 16.152344 16.777344 16.152344 17.007812 C 16.152344 17.238281 16.339844 17.425781 16.570312 17.425781 C 16.800781 17.425781 16.988281 17.238281 16.988281 17.007812 Z M 17.519531 15.332031 C 17.519531 15.097656 17.332031 14.910156 17.101562 14.910156 C 16.871094 14.910156 16.683594 15.097656 16.683594 15.332031 C 16.683594 15.5625 16.871094 15.75 17.101562 15.75 C 17.332031 15.75 17.519531 15.5625 17.519531 15.332031 Z M 18.050781 13.570312 C 18.050781 13.339844 17.863281 13.152344 17.632812 13.152344 C 17.402344 13.152344 17.214844 13.339844 17.214844 13.570312 C 17.214844 13.800781 17.402344 13.988281 17.632812 13.988281 C 17.863281 13.988281 18.050781 13.800781 18.050781 13.570312 Z M 20.007812 9.097656 C 20.007812 8.867188 19.820312 8.679688 19.589844 8.679688 C 19.355469 8.679688 19.167969 8.867188 19.167969 9.097656 C 19.167969 9.332031 19.355469 9.519531 19.589844 9.519531 C 19.820312 9.519531 20.007812 9.332031 20.007812 9.097656 Z M 21.433594 6.890625 C 21.433594 6.660156 21.246094 6.472656 21.011719 6.472656 C 20.78125 6.472656 20.59375 6.660156 20.59375 6.890625 C 20.59375 7.125 20.78125 7.3125 21.011719 7.3125 C 21.246094 7.3125 21.433594 7.125 21.433594 6.890625 Z M 23.136719 5.046875 C 23.136719 4.816406 22.949219 4.628906 22.71875 4.628906 C 22.488281 4.628906 22.296875 4.816406 22.296875 5.046875 C 22.296875 5.28125 22.488281 5.46875 22.71875 5.46875 C 22.949219 5.46875 23.136719 5.28125 23.136719 5.046875 Z M 24.839844 3.734375 C 24.839844 3.503906 24.652344 3.316406 24.421875 3.316406 C 24.191406 3.316406 24.003906 3.503906 24.003906 3.734375 C 24.003906 3.964844 24.191406 4.152344 24.421875 4.152344 C 24.652344 4.152344 24.839844 3.964844 24.839844 3.734375 Z M 26.601562 2.785156 C 26.601562 2.550781 26.414062 2.363281 26.183594 2.363281 C 25.953125 2.363281 25.765625 2.550781 25.765625 2.785156 C 25.765625 3.015625 25.953125 3.203125 26.183594 3.203125 C 26.414062 3.203125 26.601562 3.015625 26.601562 2.785156 Z M 37.835938 18.992188 C 37.835938 18.761719 37.648438 18.574219 37.417969 18.574219 C 37.183594 18.574219 36.996094 18.761719 36.996094 18.992188 C 36.996094 19.222656 37.183594 19.410156 37.417969 19.410156 C 37.648438 19.410156 37.835938 19.222656 37.835938 18.992188 Z M 12.128906 10.328125 C 12.128906 10.097656 11.941406 9.910156 11.707031 9.910156 C 11.476562 9.910156 11.289062 10.097656 11.289062 10.328125 C 11.289062 10.5625 11.476562 10.75 11.707031 10.75 C 11.941406 10.75 12.128906 10.5625 12.128906 10.328125 Z M 12.128906 10.328125 "/>
<path fill-rule="nonzero" fill="rgb(29.998779%, 29.998779%, 29.998779%)" fill-opacity="1" d="M 13.972656 45.617188 L 20.347656 43.8125 L 18.714844 40.75 C 18.265625 39.90625 21.226562 38.882812 21.425781 39.816406 L 22.128906 43.148438 L 23.710938 47.402344 L 24.910156 50.421875 C 25.246094 51.277344 22.40625 51.96875 22.226562 51.066406 L 21.582031 47.769531 L 15.316406 49.648438 L 15.957031 51.339844 C 16.175781 51.910156 14.589844 52.324219 14.191406 51.855469 C 14.191406 51.855469 11.84375 49.859375 11.304688 48.480469 C 10.792969 47.171875 11.144531 44.265625 11.144531 44.265625 C 11.117188 43.574219 12.734375 42.710938 13.003906 43.347656 Z M 13.972656 45.617188 "/>
<path fill-rule="nonzero" fill="rgb(50%, 50%, 50%)" fill-opacity="1" d="M 22.128906 43.148438 L 44.859375 35.4375 L 50.886719 36.921875 L 47.21875 41.535156 L 23.710938 47.402344 Z M 22.128906 43.148438 "/>
</svg>
