<?xml version="1.0" encoding="UTF-8"?>
<svg xmlns="http://www.w3.org/2000/svg" xmlns:xlink="http://www.w3.org/1999/xlink" width="57.175" height="62.302" viewBox="0 0 57.175 62.302">
<defs>
<clipPath id="clip-0">
<path clip-rule="nonzero" d="M 0 0.0976562 L 56.363281 0.0976562 L 56.363281 61.515625 L 0 61.515625 Z M 0 0.0976562 "/>
</clipPath>
<clipPath id="clip-1">
<path clip-rule="nonzero" d="M 0 24 L 56.363281 24 L 56.363281 61.515625 L 0 61.515625 Z M 0 24 "/>
</clipPath>
<clipPath id="clip-2">
<path clip-rule="nonzero" d="M 0 24 L 56.363281 24 L 56.363281 61.515625 L 0 61.515625 Z M 0 24 "/>
</clipPath>
<clipPath id="clip-3">
<path clip-rule="nonzero" d="M 0 42 L 56.363281 42 L 56.363281 59 L 0 59 Z M 0 42 "/>
</clipPath>
</defs>
<g clip-path="url(#clip-0)">
<path fill-rule="nonzero" fill="rgb(89.99939%, 89.99939%, 89.99939%)" fill-opacity="1" d="M 0 61.515625 L 56.363281 61.515625 L 56.363281 0.0976562 L 0 0.0976562 Z M 0 61.515625 "/>
</g>
<g clip-path="url(#clip-1)">
<path fill-rule="nonzero" fill="rgb(100%, 89.411926%, 76.861572%)" fill-opacity="1" d="M 12.015625 32.3125 C 5.140625 33.515625 -5.8125 45.949219 5.757812 57.015625 C 17.351562 68.082031 77.683594 60.675781 48.480469 24.65625 C 23.890625 37.875 32.332031 25.773438 12.015625 32.3125 Z M 12.015625 32.3125 "/>
</g>
<path fill-rule="nonzero" fill="rgb(100%, 89.411926%, 76.861572%)" fill-opacity="1" d="M 36.800781 22.394531 C 36.800781 12.75 30.546875 4.929688 22.828125 4.929688 C 15.113281 4.929688 8.859375 12.75 8.859375 22.394531 C 8.859375 32.039062 15.113281 39.859375 22.828125 39.859375 C 30.546875 39.859375 36.800781 32.039062 36.800781 22.394531 Z M 36.800781 22.394531 "/>
<path fill-rule="nonzero" fill="rgb(87.5%, 50%, 12.5%)" fill-opacity="1" d="M 9.027344 23.175781 C 15.648438 21.554688 12.796875 27.898438 23.109375 26.027344 C 0 40.558594 5.195312 26.054688 9.027344 23.175781 Z M 9.027344 23.175781 "/>
<path fill-rule="nonzero" fill="rgb(100%, 99.234009%, 85.00061%)" fill-opacity="1" d="M 22.957031 20.949219 C 23.617188 19.136719 23.101562 17.285156 21.808594 16.8125 C 20.511719 16.34375 18.925781 17.429688 18.269531 19.242188 C 17.609375 21.054688 18.121094 22.90625 19.417969 23.378906 C 20.710938 23.847656 22.296875 22.761719 22.957031 20.949219 Z M 22.957031 20.949219 "/>
<path fill-rule="nonzero" fill="rgb(0%, 0%, 0%)" fill-opacity="1" d="M 22.242188 20.984375 C 22.621094 19.949219 22.503906 18.957031 21.988281 18.769531 C 21.46875 18.582031 20.742188 19.269531 20.367188 20.304688 C 19.992188 21.339844 20.105469 22.332031 20.621094 22.519531 C 21.140625 22.707031 21.867188 22.023438 22.242188 20.984375 Z M 22.242188 20.984375 "/>
<path fill-rule="nonzero" fill="rgb(100%, 99.234009%, 85.00061%)" fill-opacity="1" d="M 14.800781 18.796875 C 15.402344 17.140625 14.96875 15.460938 13.828125 15.042969 C 12.6875 14.628906 11.273438 15.636719 10.671875 17.296875 C 10.066406 18.953125 10.503906 20.632812 11.640625 21.046875 C 12.78125 21.460938 14.195312 20.453125 14.800781 18.796875 Z M 14.800781 18.796875 "/>
<path fill-rule="nonzero" fill="rgb(0%, 0%, 0%)" fill-opacity="1" d="M 14.179688 18.867188 C 14.515625 17.9375 14.457031 17.058594 14.042969 16.90625 C 13.625 16.757812 13.015625 17.390625 12.675781 18.324219 C 12.335938 19.253906 12.398438 20.132812 12.8125 20.285156 C 13.226562 20.433594 13.839844 19.800781 14.179688 18.867188 Z M 14.179688 18.867188 "/>
<g clip-path="url(#clip-2)">
<path fill-rule="nonzero" fill="rgb(18.03894%, 5.097961%, 2.74353%)" fill-opacity="1" d="M 11.371094 32.3125 C 5.140625 33.515625 -5.8125 45.949219 5.757812 57.015625 C 17.351562 68.082031 77.683594 60.675781 48.480469 24.65625 C 22.269531 37.875 32.332031 25.804688 12.015625 44.75 Z M 11.371094 32.3125 "/>
<path fill-rule="nonzero" fill="rgb(34.902954%, 9.803772%, 5.097961%)" fill-opacity="1" d="M 11.574219 32.574219 C 5.339844 33.777344 -5.621094 46.222656 5.957031 57.292969 C 17.558594 68.363281 77.929688 60.957031 48.707031 24.910156 C 24.261719 34.410156 25.710938 48.011719 11.246094 58.308594 C 5.664062 49.089844 11.574219 32.574219 11.574219 32.574219 Z M 11.574219 32.574219 "/>
</g>
<g clip-path="url(#clip-3)">
<path fill-rule="nonzero" fill="rgb(18.03894%, 5.097961%, 2.74353%)" fill-opacity="1" d="M 19.550781 58.71875 C 17.179688 58.941406 14.90625 58.957031 12.796875 58.710938 C 9.421875 58.308594 6.09375 56.242188 3.300781 54.367188 C 3.300781 54.367188 0.875 50.238281 0.96875 47.429688 C 0.96875 47.429688 3.203125 48.957031 5.777344 50.679688 C 8.351562 52.414062 11.648438 54.105469 13.324219 54.300781 C 20.054688 55.101562 31.019531 52.132812 40.019531 48.796875 C 49.015625 45.46875 56.667969 42.179688 56.667969 42.179688 L 56.167969 46.804688 C 56.167969 46.804688 50.804688 49.542969 41.554688 52.964844 C 34.621094 55.53125 26.65625 58.042969 19.550781 58.71875 Z M 19.550781 58.71875 "/>
</g>
<path fill-rule="nonzero" fill="rgb(94.999695%, 94.999695%, 94.999695%)" fill-opacity="1" d="M 9.546875 21.410156 C 8.714844 21.410156 8.03125 22.015625 7.898438 22.8125 C 7.890625 22.8125 7.878906 22.808594 7.871094 22.808594 C 7.410156 22.808594 7.035156 23.183594 7.035156 23.648438 C 7.035156 24.109375 7.738281 25.53125 7.738281 25.53125 C 7.738281 25.53125 8.179688 24.875 8.464844 24.308594 C 8.949219 24.910156 9.546875 25.417969 9.546875 25.417969 C 9.546875 25.417969 10.152344 24.910156 10.636719 24.304688 C 11.125 24.75 11.785156 25.046875 11.785156 25.046875 C 11.785156 25.046875 12.058594 24.90625 12.371094 24.714844 C 12.492188 25.578125 13.238281 26.425781 13.238281 26.425781 C 13.238281 26.425781 13.945312 26.132812 14.597656 25.71875 C 14.59375 25.773438 14.582031 25.828125 14.582031 25.882812 C 14.582031 26.8125 16.257812 27.5625 16.257812 27.5625 C 16.257812 27.5625 16.605469 27.398438 16.976562 27.148438 C 17.175781 27.574219 17.546875 27.898438 18.003906 28.039062 C 17.980469 28.164062 17.976562 28.292969 17.964844 28.421875 C 16.945312 28.5 16.054688 29.019531 15.496094 29.804688 C 15.46875 29.800781 15.445312 29.796875 15.417969 29.796875 C 14.558594 29.796875 13.78125 30.132812 13.1875 30.667969 C 12.289062 30.738281 11.5 31.160156 10.941406 31.800781 C 9.457031 32.265625 7.777344 36.121094 7.777344 36.121094 C 7.777344 36.121094 8.378906 36.5 9.167969 36.839844 C 8.792969 37.382812 8.570312 38.035156 8.570312 38.742188 C 8.570312 39.542969 8.859375 40.265625 9.328125 40.84375 C 8.859375 41.417969 8.570312 42.144531 8.570312 42.941406 C 8.570312 44.792969 10.488281 48.382812 10.488281 48.382812 C 10.488281 48.382812 12.128906 47.144531 13.492188 45.75 C 13.492188 45.9375 13.492188 46.113281 13.492188 46.296875 C 13.492188 48.457031 14.898438 51.21875 14.898438 51.21875 C 14.898438 51.21875 17.273438 49.433594 18.542969 47.632812 C 19.382812 48.378906 20.046875 48.910156 20.046875 48.910156 C 20.046875 48.910156 20.949219 46.464844 21.363281 44.492188 C 21.914062 44.914062 22.316406 45.199219 22.316406 45.199219 C 22.316406 45.199219 24.027344 42.527344 24.320312 40.652344 C 24.894531 40.5625 25.410156 40.328125 25.851562 39.992188 C 26.207031 40.527344 26.472656 40.910156 26.472656 40.910156 C 26.472656 40.910156 29.332031 37.214844 29.867188 35.140625 C 30.648438 35.8125 31.320312 36.285156 31.320312 36.285156 C 31.320312 36.285156 34.15625 33.609375 34.15625 31.757812 C 34.15625 31.449219 34.101562 31.15625 34.023438 30.871094 C 35.671875 30.660156 36.949219 29.269531 36.949219 27.5625 C 36.949219 25.710938 35.445312 24.207031 33.59375 24.207031 C 32.359375 24.207031 31.296875 24.878906 30.714844 25.875 C 30.3125 25.703125 29.867188 25.605469 29.402344 25.605469 C 28.820312 25.605469 28.28125 25.765625 27.808594 26.027344 C 27.191406 25.261719 26.261719 24.765625 25.207031 24.765625 C 24.289062 24.765625 23.460938 25.136719 22.855469 25.730469 C 22.386719 25.480469 21.859375 25.324219 21.289062 25.324219 C 20.808594 25.324219 20.355469 25.429688 19.945312 25.609375 C 19.65625 25.109375 19.117188 24.765625 18.496094 24.765625 C 18.195312 24.765625 17.917969 24.851562 17.675781 24.988281 C 17.375 24.519531 16.855469 24.207031 16.257812 24.207031 C 16.054688 24.207031 15.863281 24.25 15.679688 24.316406 C 15.597656 23.472656 14.890625 22.808594 14.023438 22.808594 C 13.804688 22.808594 13.59375 22.851562 13.402344 22.929688 C 13.207031 22.21875 12.5625 21.691406 11.785156 21.691406 C 11.425781 21.691406 11.089844 21.808594 10.820312 22.003906 C 10.511719 21.640625 10.058594 21.410156 9.546875 21.410156 Z M 9.546875 21.410156 "/>
<path fill-rule="nonzero" fill="rgb(34.902954%, 9.803772%, 5.097961%)" fill-opacity="1" d="M 39.117188 18.464844 C 40.226562 16.085938 35.453125 11.511719 28.453125 8.25 C 21.457031 4.984375 14.886719 4.265625 13.773438 6.652344 C 12.664062 9.027344 17.4375 13.601562 24.4375 16.863281 C 31.433594 20.128906 38.007812 20.84375 39.117188 18.464844 Z M 39.117188 18.464844 "/>
<path fill-rule="nonzero" fill="rgb(18.03894%, 5.097961%, 2.74353%)" fill-opacity="1" d="M 39.765625 16.636719 C 40.875 14.257812 36.105469 9.683594 29.105469 6.421875 C 22.109375 3.15625 15.535156 2.441406 14.429688 4.816406 C 13.320312 7.203125 18.089844 11.773438 25.089844 15.035156 C 32.085938 18.300781 38.664062 19.019531 39.765625 16.636719 Z M 39.765625 16.636719 "/>
<path fill-rule="nonzero" fill="rgb(34.902954%, 9.803772%, 5.097961%)" fill-opacity="1" d="M 42.21875 15.476562 C 43.328125 13.101562 37.984375 8.261719 30.289062 4.667969 C 22.589844 1.082031 15.449219 0.0976562 14.339844 2.476562 C 13.230469 4.855469 18.574219 9.695312 26.269531 13.285156 C 33.96875 16.875 41.105469 17.859375 42.21875 15.476562 Z M 42.21875 15.476562 "/>
<path fill-rule="nonzero" fill="rgb(75%, 50%, 25%)" fill-opacity="1" d="M 35.847656 53.566406 C 35.847656 55.296875 32.074219 56.699219 27.425781 56.699219 C 22.769531 56.699219 19 55.296875 19 53.566406 C 19 51.835938 22.769531 50.433594 27.425781 50.433594 C 32.074219 50.433594 35.847656 51.835938 35.847656 53.566406 Z M 35.847656 53.566406 "/>
<path fill-rule="nonzero" fill="rgb(100%, 100%, 100%)" fill-opacity="1" d="M 23.574219 53.164062 C 23.574219 53.433594 23.023438 53.65625 22.335938 53.65625 C 21.652344 53.65625 21.097656 53.433594 21.097656 53.164062 C 21.097656 52.890625 21.652344 52.671875 22.335938 52.671875 C 23.023438 52.671875 23.574219 52.890625 23.574219 53.164062 Z M 23.574219 53.164062 "/>
<path fill-rule="nonzero" fill="rgb(100%, 94.898987%, 0%)" fill-opacity="1" d="M 25.683594 54.597656 C 25.683594 54.867188 25.128906 55.089844 24.441406 55.089844 C 23.761719 55.089844 23.207031 54.867188 23.207031 54.597656 C 23.207031 54.324219 23.761719 54.105469 24.441406 54.105469 C 25.128906 54.105469 25.683594 54.324219 25.683594 54.597656 Z M 25.683594 54.597656 "/>
<path fill-rule="nonzero" fill="rgb(0%, 100%, 0%)" fill-opacity="1" d="M 29.152344 54.863281 C 29.152344 55.136719 28.597656 55.355469 27.914062 55.355469 C 27.226562 55.355469 26.675781 55.136719 26.675781 54.863281 C 26.675781 54.59375 27.226562 54.375 27.914062 54.375 C 28.597656 54.375 29.152344 54.59375 29.152344 54.863281 Z M 29.152344 54.863281 "/>
<path fill-rule="nonzero" fill="rgb(100%, 0%, 0%)" fill-opacity="1" d="M 32.496094 54.238281 C 32.496094 54.511719 31.941406 54.734375 31.261719 54.734375 C 30.574219 54.734375 30.019531 54.511719 30.019531 54.238281 C 30.019531 53.96875 30.574219 53.746094 31.261719 53.746094 C 31.941406 53.746094 32.496094 53.96875 32.496094 54.238281 Z M 32.496094 54.238281 "/>
<path fill-rule="nonzero" fill="rgb(0%, 0%, 100%)" fill-opacity="1" d="M 26.304688 51.820312 C 26.304688 52.09375 25.75 52.3125 25.0625 52.3125 C 24.382812 52.3125 23.828125 52.09375 23.828125 51.820312 C 23.828125 51.550781 24.382812 51.328125 25.0625 51.328125 C 25.75 51.328125 26.304688 51.550781 26.304688 51.820312 Z M 26.304688 51.820312 "/>
<path fill-rule="nonzero" fill="rgb(19.999695%, 19.999695%, 100%)" fill-opacity="1" d="M 3.878906 46.089844 C 4.589844 47.117188 5.722656 47.574219 6.398438 47.105469 C 7.078125 46.632812 7.050781 45.417969 6.335938 44.390625 C 5.625 43.363281 3.691406 42.761719 2.890625 40.855469 C 2.210938 41.324219 3.164062 45.0625 3.878906 46.089844 Z M 3.878906 46.089844 "/>
<path fill-rule="nonzero" fill="rgb(92.498779%, 84.999084%, 77.49939%)" fill-opacity="1" d="M 3.878906 46.089844 C 4.589844 47.117188 5.722656 47.574219 6.398438 47.105469 C 7.078125 46.632812 7.050781 45.417969 6.335938 44.390625 C 6.335938 44.390625 4.234375 44.363281 3.878906 46.089844 Z M 3.878906 46.089844 "/>
<path fill-rule="nonzero" fill="rgb(75%, 50%, 25%)" fill-opacity="1" d="M 6.847656 46.265625 L 14.070312 57.792969 L 13.453125 58.351562 L 5.238281 47.191406 Z M 6.847656 46.265625 "/>
</svg>
