<?xml version="1.0" encoding="UTF-8"?>
<svg xmlns="http://www.w3.org/2000/svg" xmlns:xlink="http://www.w3.org/1999/xlink" width="84.699" height="64.063" viewBox="0 0 84.699 64.063">
<defs>
<clipPath id="clip-0">
<path clip-rule="nonzero" d="M 0.460938 0 L 83.941406 0 L 83.941406 63.140625 L 0.460938 63.140625 Z M 0.460938 0 "/>
</clipPath>
</defs>
<g clip-path="url(#clip-0)">
<path fill-rule="nonzero" fill="rgb(89.99939%, 89.99939%, 89.99939%)" fill-opacity="1" d="M 0.460938 63.140625 L 83.941406 63.140625 L 83.941406 0 L 0.460938 0 Z M 0.460938 63.140625 "/>
</g>
<path fill-rule="nonzero" fill="rgb(92.871094%, 83.229065%, 14.369202%)" fill-opacity="1" d="M 43.066406 17.460938 C 43.066406 7.816406 36.8125 0 29.097656 0 C 21.382812 0 15.128906 7.816406 15.128906 17.460938 C 15.128906 27.105469 21.382812 34.921875 29.097656 34.921875 C 36.8125 34.921875 43.066406 27.105469 43.066406 17.460938 Z M 43.066406 17.460938 "/>
<path fill-rule="nonzero" fill="rgb(92.871094%, 83.229065%, 14.369202%)" fill-opacity="1" d="M 18.285156 27.378906 C 11.414062 28.582031 0.460938 41.011719 12.027344 52.074219 C 23.621094 63.140625 83.941406 55.734375 54.746094 19.722656 C 30.160156 32.9375 38.597656 20.839844 18.285156 27.378906 Z M 18.285156 27.378906 "/>
<path fill-rule="nonzero" fill="rgb(87.5%, 50%, 12.5%)" fill-opacity="1" d="M 15.296875 18.242188 C 21.917969 16.621094 19.070312 22.964844 29.378906 21.09375 C 6.273438 35.621094 11.46875 21.121094 15.296875 18.242188 Z M 15.296875 18.242188 "/>
<path fill-rule="nonzero" fill="rgb(100%, 99.234009%, 85.00061%)" fill-opacity="1" d="M 29.222656 16.015625 C 29.882812 14.203125 29.371094 12.351562 28.074219 11.882812 C 26.78125 11.410156 25.195312 12.5 24.535156 14.3125 C 23.875 16.125 24.390625 17.976562 25.683594 18.445312 C 26.980469 18.917969 28.5625 17.828125 29.222656 16.015625 Z M 21.070312 13.867188 C 21.671875 12.207031 21.238281 10.527344 20.097656 10.113281 C 18.957031 9.699219 17.542969 10.707031 16.941406 12.363281 C 16.335938 14.019531 16.773438 15.699219 17.910156 16.113281 C 19.050781 16.53125 20.464844 15.523438 21.070312 13.867188 Z M 21.070312 13.867188 "/>
<path fill-rule="nonzero" fill="rgb(0%, 0%, 0%)" fill-opacity="1" d="M 28.511719 16.054688 C 28.886719 15.019531 28.773438 14.027344 28.253906 13.839844 C 27.738281 13.648438 27.011719 14.335938 26.636719 15.371094 C 26.257812 16.40625 26.375 17.398438 26.890625 17.585938 C 27.410156 17.777344 28.132812 17.089844 28.511719 16.054688 Z M 20.449219 13.9375 C 20.789062 13.003906 20.726562 12.125 20.3125 11.976562 C 19.898438 11.824219 19.285156 12.457031 18.945312 13.390625 C 18.605469 14.324219 18.667969 15.199219 19.082031 15.351562 C 19.496094 15.503906 20.109375 14.867188 20.449219 13.9375 Z M 20.449219 13.9375 "/>
</svg>
