<?xml version="1.0" encoding="UTF-8"?>
<svg xmlns="http://www.w3.org/2000/svg" xmlns:xlink="http://www.w3.org/1999/xlink" width="57.175" height="57.401" viewBox="0 0 57.175 57.401">
<defs>
<clipPath id="clip-0">
<path clip-rule="nonzero" d="M 0 0.113281 L 56.363281 0.113281 L 56.363281 56.699219 L 0 56.699219 Z M 0 0.113281 "/>
</clipPath>
<clipPath id="clip-1">
<path clip-rule="nonzero" d="M 0 19 L 56.363281 19 L 56.363281 56.699219 L 0 56.699219 Z M 0 19 "/>
</clipPath>
<clipPath id="clip-2">
<path clip-rule="nonzero" d="M 8 0.113281 L 37 0.113281 L 37 36 L 8 36 Z M 8 0.113281 "/>
</clipPath>
<clipPath id="clip-3">
<path clip-rule="nonzero" d="M 0 19 L 56.363281 19 L 56.363281 56.699219 L 0 56.699219 Z M 0 19 "/>
</clipPath>
<clipPath id="clip-4">
<path clip-rule="nonzero" d="M 0 31 L 56.363281 31 L 56.363281 49 L 0 49 Z M 0 31 "/>
</clipPath>
<clipPath id="clip-5">
<path clip-rule="nonzero" d="M 11.371094 27.496094 C 5.140625 28.699219 -5.8125 41.132812 5.757812 52.199219 C 17.351562 63.265625 77.683594 55.859375 48.480469 19.839844 C 22.269531 33.058594 32.332031 20.984375 12.015625 39.933594 Z M 11.371094 27.496094 "/>
</clipPath>
<clipPath id="clip-6">
<path clip-rule="nonzero" d="M 4 4 L 7 4 L 7 9.121094 L 4 9.121094 Z M 4 4 "/>
</clipPath>
<clipPath id="clip-7">
<path clip-rule="nonzero" d="M 4 4 L 6 4 L 6 9.121094 L 4 9.121094 Z M 4 4 "/>
</clipPath>
<clipPath id="clip-8">
<path clip-rule="nonzero" d="M 3 4 L 6 4 L 6 9.121094 L 3 9.121094 Z M 3 4 "/>
</clipPath>
<clipPath id="clip-9">
<path clip-rule="nonzero" d="M 2 4 L 6 4 L 6 9.121094 L 2 9.121094 Z M 2 4 "/>
</clipPath>
<clipPath id="clip-10">
<path clip-rule="nonzero" d="M 0.84375 4 L 6 4 L 6 7 L 0.84375 7 Z M 0.84375 4 "/>
</clipPath>
<clipPath id="clip-11">
<path clip-rule="nonzero" d="M 0.84375 4 L 6 4 L 6 6 L 0.84375 6 Z M 0.84375 4 "/>
</clipPath>
<clipPath id="clip-12">
<path clip-rule="nonzero" d="M 0.84375 3 L 6 3 L 6 6 L 0.84375 6 Z M 0.84375 3 "/>
</clipPath>
<clipPath id="clip-13">
<path clip-rule="nonzero" d="M 0.84375 2 L 6 2 L 6 6 L 0.84375 6 Z M 0.84375 2 "/>
</clipPath>
<clipPath id="clip-14">
<path clip-rule="nonzero" d="M 3 0.742188 L 6 0.742188 L 6 6 L 3 6 Z M 3 0.742188 "/>
</clipPath>
<clipPath id="clip-15">
<path clip-rule="nonzero" d="M 4 0.742188 L 6 0.742188 L 6 5 L 4 5 Z M 4 0.742188 "/>
</clipPath>
<clipPath id="clip-16">
<path clip-rule="nonzero" d="M 4 0.742188 L 7 0.742188 L 7 6 L 4 6 Z M 4 0.742188 "/>
</clipPath>
<clipPath id="clip-17">
<path clip-rule="nonzero" d="M 4 0.742188 L 8 0.742188 L 8 6 L 4 6 Z M 4 0.742188 "/>
</clipPath>
<clipPath id="clip-18">
<path clip-rule="nonzero" d="M 4 3 L 9.226562 3 L 9.226562 6 L 4 6 Z M 4 3 "/>
</clipPath>
<clipPath id="clip-19">
<path clip-rule="nonzero" d="M 4 2 L 9.226562 2 L 9.226562 6 L 4 6 Z M 4 2 "/>
</clipPath>
<clipPath id="clip-20">
<path clip-rule="nonzero" d="M 5 4 L 9.226562 4 L 9.226562 6 L 5 6 Z M 5 4 "/>
</clipPath>
<clipPath id="clip-21">
<path clip-rule="nonzero" d="M 4 4 L 9.226562 4 L 9.226562 7 L 4 7 Z M 4 4 "/>
</clipPath>
<clipPath id="clip-22">
<path clip-rule="nonzero" d="M 4 4 L 9.226562 4 L 9.226562 8 L 4 8 Z M 4 4 "/>
</clipPath>
<clipPath id="clip-23">
<rect x="0" y="0" width="10" height="10"/>
</clipPath>
<g id="source-5" clip-path="url(#clip-23)">
<path fill-rule="nonzero" fill="rgb(96.469116%, 70.587158%, 5.490112%)" fill-opacity="1" d="M 4.847656 5.007812 L 6.527344 8.667969 C 6.527344 8.667969 6.558594 8.738281 6.605469 8.71875 C 6.648438 8.699219 6.621094 8.628906 6.621094 8.628906 L 5.222656 4.855469 M 5.179688 6.277344 C 5.160156 6.835938 5.503906 7.140625 5.457031 7.636719 C 5.414062 8.136719 5.6875 8.417969 5.75 8.609375 C 5.8125 8.800781 5.679688 8.917969 5.738281 8.945312 C 5.796875 8.972656 5.917969 8.820312 5.878906 8.546875 C 5.839844 8.269531 5.628906 8.191406 5.679688 7.582031 C 5.726562 6.976562 5.429688 6.835938 5.503906 6.28125 "/>
<g clip-path="url(#clip-6)">
<path fill="none" stroke-width="0.8337" stroke-linecap="butt" stroke-linejoin="miter" stroke="rgb(52.156067%, 20.391846%, 3.921509%)" stroke-opacity="1" stroke-miterlimit="4" d="M 50.871172 54.210085 L 72.215584 100.721046 C 72.215584 100.721046 72.612689 101.614533 73.208347 101.366342 C 73.754367 101.118151 73.4069 100.224664 73.4069 100.224664 L 55.636436 52.274196 M 55.090417 70.342488 C 54.842226 77.440746 59.210384 81.312523 58.614726 87.61657 C 58.068706 93.970255 61.543378 97.544203 62.337589 99.976473 C 63.131799 102.408744 61.444102 103.897889 62.188674 104.245356 C 62.933247 104.592823 64.47203 102.656934 63.975648 99.182263 C 63.479267 95.657953 60.798806 94.66519 61.444102 86.921636 C 62.03976 79.22772 58.267259 77.440746 59.210384 70.392127 " transform="matrix(0.0786945, 0, 0, 0.0786945, 0.844375, 0.741778)"/>
</g>
<g clip-path="url(#clip-7)">
<path fill-rule="nonzero" fill="rgb(96.469116%, 70.587158%, 5.490112%)" fill-opacity="1" d="M 4.832031 4.933594 L 4.984375 8.957031 C 4.984375 8.957031 4.984375 9.03125 5.035156 9.03125 C 5.085938 9.03125 5.085938 8.957031 5.085938 8.957031 L 5.238281 4.933594 M 4.65625 6.230469 C 4.421875 6.738281 4.621094 7.152344 4.390625 7.59375 C 4.160156 8.035156 4.304688 8.398438 4.289062 8.601562 C 4.273438 8.804688 4.105469 8.863281 4.148438 8.910156 C 4.191406 8.957031 4.363281 8.863281 4.433594 8.59375 C 4.5 8.324219 4.339844 8.167969 4.617188 7.628906 C 4.894531 7.085938 4.671875 6.839844 4.953125 6.355469 "/>
</g>
<g clip-path="url(#clip-8)">
<path fill="none" stroke-width="0.770238" stroke-linecap="butt" stroke-linejoin="miter" stroke="rgb(52.156067%, 20.391846%, 3.921509%)" stroke-opacity="1" stroke-miterlimit="4" d="M 62.084501 27.55069 L 81.813132 70.506125 C 81.813132 70.506125 82.146578 71.311133 82.697372 71.082986 C 83.248167 70.854839 82.914722 70.049832 82.914722 70.049832 L 66.490858 25.725515 M 66.004423 42.406874 C 65.743763 48.967805 69.764846 52.563862 69.248209 58.386973 C 68.731571 64.210084 71.931344 67.501043 72.674456 69.77442 C 73.417568 72.047797 71.858956 73.437969 72.53561 73.753347 C 73.212264 74.068726 74.655297 72.279685 74.207003 69.040341 C 73.716339 65.818547 71.277228 64.843335 71.863547 57.750406 C 72.432317 50.615109 68.91166 48.94621 69.786045 42.428895 " transform="matrix(0.0786945, 0.0325964, -0.0325964, 0.0786945, 0.844375, 0.741778)"/>
</g>
<path fill-rule="nonzero" fill="rgb(96.469116%, 70.587158%, 5.490112%)" fill-opacity="1" d="M 4.847656 4.855469 L 3.449219 8.628906 C 3.449219 8.628906 3.417969 8.699219 3.464844 8.71875 C 3.511719 8.738281 3.542969 8.667969 3.542969 8.667969 L 5.222656 5.011719 M 4.1875 5.988281 C 3.777344 6.367188 3.804688 6.824219 3.421875 7.144531 C 3.039062 7.464844 3.03125 7.855469 2.941406 8.039062 C 2.847656 8.21875 2.671875 8.207031 2.695312 8.265625 C 2.714844 8.328125 2.910156 8.308594 3.078125 8.085938 C 3.242188 7.859375 3.152344 7.65625 3.617188 7.261719 C 4.082031 6.867188 3.96875 6.558594 4.414062 6.214844 "/>
<g clip-path="url(#clip-9)">
<path fill="none" stroke-width="0.589515" stroke-linecap="butt" stroke-linejoin="miter" stroke="rgb(52.156067%, 20.391846%, 3.921509%)" stroke-opacity="1" stroke-miterlimit="4" d="M 51.572684 0.701512 L 66.662687 33.561978 C 66.662687 33.561978 66.910877 34.207274 67.332802 34.03354 C 67.754726 33.859807 67.506535 33.21451 67.506535 33.21451 L 54.94808 -0.688357 M 54.575793 12.093471 C 54.377241 17.106926 57.454807 19.837025 57.057702 24.30446 C 56.660596 28.771895 59.092866 31.303441 59.688524 33.040777 C 60.234544 34.778113 59.043228 35.820514 59.564429 36.043886 C 60.08563 36.316896 61.202488 34.951846 60.855021 32.469938 C 60.457916 29.98803 58.596485 29.268276 59.043228 23.808078 C 59.489972 18.34788 56.809511 17.106926 57.454807 12.093471 " transform="matrix(0.0786945, 0.0786945, -0.0786945, 0.0786945, 0.844375, 0.741778)"/>
</g>
<path fill-rule="nonzero" fill="rgb(96.469116%, 70.587158%, 5.490112%)" fill-opacity="1" stroke-width="0.770238" stroke-linecap="butt" stroke-linejoin="miter" stroke="rgb(52.156067%, 20.391846%, 3.921509%)" stroke-opacity="1" stroke-miterlimit="4" d="M 62.07727 -25.703918 L 81.823263 17.221865 C 81.823263 17.221865 82.128361 18.043175 82.709997 17.837353 C 83.249264 17.613982 82.901797 16.775122 82.901797 16.775122 L 66.451325 -27.515709 M 65.992354 -10.828845 C 65.759128 -4.273936 69.777625 -0.67353 69.24657 5.162356 C 68.733064 10.955873 71.929005 14.265202 72.667554 16.556647 C 73.423653 18.805722 71.874287 20.149479 72.534638 20.472644 C 73.194989 20.795809 74.67291 19.025352 74.175799 15.791514 C 73.721057 12.575225 71.246116 11.599708 71.852145 4.504286 C 72.433356 -2.651055 68.944575 -4.29471 69.756426 -10.808497 " transform="matrix(0.0325964, 0.0786945, -0.0786945, 0.0325964, 0.844375, 0.741778)"/>
<path fill-rule="nonzero" fill="rgb(52.156067%, 20.391846%, 3.921509%)" fill-opacity="1" d="M 5.289062 6.375 C 5.316406 6.90625 5.621094 7.144531 5.558594 7.632812 C 5.691406 7.246094 5.375 6.949219 5.394531 6.378906 M 4.941406 4.976562 L 6.09375 7.488281 L 5.128906 4.898438 "/>
<path fill-rule="nonzero" fill="rgb(52.156067%, 20.391846%, 3.921509%)" fill-opacity="1" d="M 4.71875 6.359375 C 4.539062 6.863281 4.726562 7.199219 4.488281 7.625 C 4.753906 7.320312 4.578125 6.925781 4.8125 6.40625 M 4.933594 4.9375 L 5.03125 7.699219 L 5.132812 4.9375 "/>
<path fill-rule="nonzero" fill="rgb(52.156067%, 20.391846%, 3.921509%)" fill-opacity="1" d="M 4.195312 6.132812 C 3.835938 6.527344 3.882812 6.910156 3.496094 7.210938 C 3.863281 7.03125 3.851562 6.597656 4.265625 6.207031 M 4.9375 4.898438 L 3.972656 7.488281 L 5.125 4.976562 "/>
<path fill-rule="nonzero" fill="rgb(52.156067%, 20.391846%, 3.921509%)" fill-opacity="1" d="M 3.800781 5.71875 C 3.316406 5.949219 3.214844 6.316406 2.742188 6.449219 C 3.148438 6.421875 3.304688 6.019531 3.835938 5.816406 M 4.957031 4.863281 L 3.078125 6.886719 L 5.101562 5.003906 "/>
<path fill-rule="nonzero" fill="rgb(96.469116%, 70.587158%, 5.490112%)" fill-opacity="1" d="M 4.957031 4.746094 L 1.296875 6.425781 C 1.296875 6.425781 1.230469 6.453125 1.25 6.5 C 1.265625 6.546875 1.335938 6.519531 1.335938 6.519531 L 5.113281 5.117188 M 3.6875 5.078125 C 3.132812 5.058594 2.828125 5.402344 2.328125 5.355469 C 1.832031 5.3125 1.550781 5.582031 1.359375 5.648438 C 1.164062 5.710938 1.050781 5.578125 1.023438 5.636719 C 0.992188 5.691406 1.148438 5.816406 1.421875 5.777344 C 1.695312 5.734375 1.777344 5.527344 2.382812 5.578125 C 2.992188 5.625 3.132812 5.328125 3.6875 5.398438 "/>
<g clip-path="url(#clip-10)">
<path fill="none" stroke-width="0.8337" stroke-linecap="butt" stroke-linejoin="miter" stroke="rgb(52.156067%, 20.391846%, 3.921509%)" stroke-opacity="1" stroke-miterlimit="4" d="M 50.884327 -52.261041 L 72.228739 -5.75008 C 72.228739 -5.75008 72.576206 -4.906231 73.171864 -5.154422 C 73.767522 -5.352974 73.420055 -6.246461 73.420055 -6.246461 L 55.599953 -54.246568 M 55.103572 -36.128637 C 54.855381 -29.080018 59.223539 -25.208241 58.627881 -18.854555 C 58.081861 -12.550508 61.506895 -8.97656 62.350744 -6.54429 C 63.144954 -4.062382 61.457257 -2.622875 62.201829 -2.275408 C 62.896764 -1.878303 64.485185 -3.863829 63.988803 -7.338501 C 63.442783 -10.813173 60.811961 -11.855574 61.457257 -19.54949 C 62.052915 -27.293044 58.280414 -29.080018 59.173901 -36.128637 " transform="matrix(0, 0.0786945, -0.0786945, 0, 0.844375, 0.741778)"/>
</g>
<g clip-path="url(#clip-11)">
<path fill-rule="nonzero" fill="rgb(96.469116%, 70.587158%, 5.490112%)" fill-opacity="1" d="M 5.035156 4.730469 L 1.011719 4.882812 C 1.011719 4.882812 0.9375 4.882812 0.9375 4.933594 C 0.9375 4.984375 1.011719 4.984375 1.011719 4.984375 L 5.035156 5.132812 M 3.734375 4.550781 C 3.230469 4.320312 2.816406 4.519531 2.375 4.289062 C 1.929688 4.054688 1.566406 4.203125 1.363281 4.1875 C 1.160156 4.171875 1.105469 4.003906 1.058594 4.046875 C 1.011719 4.089844 1.105469 4.261719 1.375 4.328125 C 1.644531 4.398438 1.796875 4.234375 2.339844 4.511719 C 2.882812 4.789062 3.125 4.570312 3.609375 4.847656 "/>
</g>
<g clip-path="url(#clip-12)">
<path fill="none" stroke-width="0.770238" stroke-linecap="butt" stroke-linejoin="miter" stroke="rgb(52.156067%, 20.391846%, 3.921509%)" stroke-opacity="1" stroke-miterlimit="4" d="M 24.434924 -63.375092 L 44.163556 -20.419657 C 44.163556 -20.419657 44.497001 -19.614649 45.047795 -19.842796 C 45.59859 -20.070943 45.265145 -20.87595 45.265145 -20.87595 L 28.798912 -65.182717 M 28.330027 -48.458989 C 28.094186 -41.957977 32.115269 -38.36192 31.598632 -32.538809 C 31.057175 -26.655779 34.299317 -23.38237 35.042429 -21.108993 C 35.785541 -18.835616 34.209379 -17.487813 34.886033 -17.172435 C 35.562687 -16.857056 37.00572 -18.646097 36.515057 -21.867891 C 36.066763 -25.107234 33.602832 -26.022528 34.171602 -33.157826 C 34.740371 -40.293123 31.279633 -41.937203 32.111649 -48.436969 " transform="matrix(-0.0325964, 0.0786945, -0.0786945, -0.0325964, 0.844375, 0.741778)"/>
</g>
<path fill-rule="nonzero" fill="rgb(96.469116%, 70.587158%, 5.490112%)" fill-opacity="1" d="M 5.113281 4.746094 L 1.335938 3.347656 C 1.335938 3.347656 1.269531 3.316406 1.25 3.363281 C 1.230469 3.410156 1.296875 3.4375 1.296875 3.4375 L 4.957031 5.117188 M 3.980469 4.082031 C 3.601562 3.675781 3.140625 3.703125 2.824219 3.320312 C 2.503906 2.933594 2.109375 2.929688 1.929688 2.839844 C 1.75 2.746094 1.757812 2.570312 1.699219 2.589844 C 1.640625 2.613281 1.660156 2.808594 1.882812 2.972656 C 2.105469 3.140625 2.3125 3.050781 2.707031 3.511719 C 3.101562 3.976562 3.410156 3.867188 3.75 4.308594 "/>
<g clip-path="url(#clip-13)">
<path fill="none" stroke-width="0.589515" stroke-linecap="butt" stroke-linejoin="miter" stroke="rgb(52.156067%, 20.391846%, 3.921509%)" stroke-opacity="1" stroke-miterlimit="4" d="M -1.68112 -52.565448 L 13.433701 -19.680163 C 13.433701 -19.680163 13.657073 -19.059686 14.078998 -19.233419 C 14.500922 -19.407153 14.252731 -20.002811 14.252731 -20.002811 L 1.669456 -53.930497 M 1.29717 -41.148669 C 1.123436 -36.160034 4.225822 -33.405116 3.803897 -28.9625 C 3.381973 -24.470246 5.863881 -21.938699 6.43472 -20.226182 C 6.98074 -18.488847 5.814243 -17.421626 6.310625 -17.173435 C 6.831825 -16.950064 7.948684 -18.315113 7.576398 -20.772202 C 7.228931 -23.254111 5.34268 -23.998683 5.764605 -29.434062 C 6.211348 -34.894261 3.555706 -36.160034 4.201003 -41.12385 " transform="matrix(-0.0786945, 0.0786945, -0.0786945, -0.0786945, 0.844375, 0.741778)"/>
</g>
<path fill-rule="nonzero" fill="rgb(96.469116%, 70.587158%, 5.490112%)" fill-opacity="1" stroke-width="0.770238" stroke-linecap="butt" stroke-linejoin="miter" stroke="rgb(52.156067%, 20.391846%, 3.921509%)" stroke-opacity="1" stroke-miterlimit="4" d="M -28.83921 -63.375952 L -9.110767 -20.4078 C -9.110767 -20.4078 -8.74575 -19.611309 -8.206483 -19.83468 C -7.667216 -20.058052 -8.014683 -20.896912 -8.014683 -20.896912 L -24.422786 -65.170193 M -24.881757 -48.483329 C -25.157352 -41.94597 -21.138855 -38.345564 -21.66991 -32.509678 C -22.200965 -26.673792 -18.987475 -23.406831 -18.248926 -21.115387 C -17.492826 -18.866312 -19.059743 -17.480186 -18.357023 -17.139471 C -17.696671 -16.816306 -16.24357 -18.646681 -16.698312 -21.86297 C -17.195423 -25.096808 -19.627995 -26.054776 -19.064334 -33.167748 C -18.500674 -40.28072 -21.971905 -41.966744 -21.117685 -48.462981 " transform="matrix(-0.0786945, 0.0325964, -0.0325964, -0.0786945, 0.844375, 0.741778)"/>
<path fill-rule="nonzero" fill="rgb(52.156067%, 20.391846%, 3.921509%)" fill-opacity="1" d="M 3.59375 5.1875 C 3.058594 5.214844 2.824219 5.515625 2.335938 5.457031 C 2.722656 5.585938 3.019531 5.273438 3.589844 5.289062 M 4.992188 4.839844 L 2.476562 5.988281 L 5.066406 5.027344 "/>
<path fill-rule="nonzero" fill="rgb(52.156067%, 20.391846%, 3.921509%)" fill-opacity="1" d="M 3.605469 4.617188 C 3.101562 4.4375 2.769531 4.625 2.339844 4.382812 C 2.648438 4.652344 3.042969 4.476562 3.5625 4.710938 M 5.03125 4.828125 L 2.269531 4.929688 L 5.03125 5.03125 "/>
<path fill-rule="nonzero" fill="rgb(52.156067%, 20.391846%, 3.921509%)" fill-opacity="1" d="M 3.835938 4.09375 C 3.441406 3.734375 3.058594 3.78125 2.753906 3.394531 C 2.9375 3.761719 3.371094 3.75 3.757812 4.164062 M 5.070312 4.835938 L 2.480469 3.871094 L 4.992188 5.023438 "/>
<path fill-rule="nonzero" fill="rgb(52.156067%, 20.391846%, 3.921509%)" fill-opacity="1" d="M 4.25 3.699219 C 4.019531 3.214844 3.648438 3.113281 3.515625 2.640625 C 3.542969 3.046875 3.949219 3.199219 4.152344 3.734375 M 5.105469 4.855469 L 3.082031 2.972656 L 4.960938 5 "/>
<g clip-path="url(#clip-14)">
<path fill-rule="nonzero" fill="rgb(96.469116%, 70.587158%, 5.490112%)" fill-opacity="1" stroke-width="0.8337" stroke-linecap="butt" stroke-linejoin="miter" stroke="rgb(52.156067%, 20.391846%, 3.921509%)" stroke-opacity="1" stroke-miterlimit="4" d="M -55.636436 -52.274196 L -34.292025 -5.763235 C -34.292025 -5.763235 -33.89492 -4.869748 -33.299262 -5.117938 C -32.703604 -5.366129 -33.100709 -6.259616 -33.100709 -6.259616 L -50.871172 -54.210085 M -51.417192 -36.141792 C -51.665383 -29.093173 -47.297224 -25.171757 -47.892882 -18.86771 C -48.438902 -12.563663 -44.964231 -8.989715 -44.17002 -6.507807 C -43.375809 -4.075537 -45.063507 -2.586392 -44.318935 -2.238925 C -43.574362 -1.891458 -42.035579 -3.827346 -42.531961 -7.351656 C -43.028342 -10.826328 -45.708803 -11.868729 -45.063507 -19.562645 C -44.467849 -27.306199 -48.24035 -29.093173 -47.297224 -36.141792 " transform="matrix(-0.0786945, 0, 0, -0.0786945, 0.844375, 0.741778)"/>
</g>
<g clip-path="url(#clip-15)">
<path fill-rule="nonzero" fill="rgb(96.469116%, 70.587158%, 5.490112%)" fill-opacity="1" d="M 5.238281 4.933594 L 5.085938 0.910156 C 5.085938 0.910156 5.085938 0.832031 5.035156 0.832031 C 4.984375 0.832031 4.984375 0.910156 4.984375 0.910156 L 4.832031 4.933594 M 5.414062 3.632812 C 5.648438 3.125 5.449219 2.710938 5.679688 2.269531 C 5.910156 1.828125 5.765625 1.464844 5.78125 1.261719 C 5.796875 1.058594 5.964844 1.003906 5.921875 0.957031 C 5.878906 0.910156 5.707031 1 5.636719 1.269531 C 5.570312 1.539062 5.730469 1.695312 5.453125 2.238281 C 5.175781 2.78125 5.398438 3.023438 5.117188 3.507812 "/>
</g>
<g clip-path="url(#clip-16)">
<path fill="none" stroke-width="0.770238" stroke-linecap="butt" stroke-linejoin="miter" stroke="rgb(52.156067%, 20.391846%, 3.921509%)" stroke-opacity="1" stroke-miterlimit="4" d="M -66.490858 -25.725515 L -46.762226 17.22992 C -46.762226 17.22992 -46.411231 18.077297 -45.860437 17.84915 C -45.309642 17.621003 -45.660637 16.773627 -45.660637 16.773627 L -62.084501 -27.55069 M -62.553386 -10.826962 C -62.814046 -4.266031 -58.792963 -0.669975 -59.3096 5.153137 C -59.826238 10.976248 -56.626465 14.267206 -55.883353 16.540584 C -55.140241 18.813961 -56.716403 20.161764 -56.039749 20.477142 C -55.363095 20.792521 -53.902512 19.045849 -54.350806 15.806505 C -54.84147 12.584711 -57.280581 11.609499 -56.711811 4.474201 C -56.143042 -2.661096 -59.646149 -4.287626 -58.771764 -10.804941 " transform="matrix(-0.0786945, -0.0325964, 0.0325964, -0.0786945, 0.844375, 0.741778)"/>
</g>
<path fill-rule="nonzero" fill="rgb(96.469116%, 70.587158%, 5.490112%)" fill-opacity="1" d="M 5.222656 5.011719 L 6.621094 1.234375 C 6.621094 1.234375 6.648438 1.164062 6.601562 1.144531 C 6.558594 1.125 6.527344 1.195312 6.527344 1.195312 L 4.847656 4.855469 M 5.882812 3.878906 C 6.292969 3.496094 6.265625 3.039062 6.648438 2.71875 C 7.03125 2.398438 7.039062 2.007812 7.128906 1.828125 C 7.222656 1.644531 7.394531 1.65625 7.375 1.597656 C 7.355469 1.539062 7.160156 1.558594 6.992188 1.78125 C 6.828125 2.003906 6.917969 2.207031 6.453125 2.601562 C 5.988281 2.996094 6.101562 3.308594 5.65625 3.648438 "/>
<g clip-path="url(#clip-17)">
<path fill="none" stroke-width="0.589515" stroke-linecap="butt" stroke-linejoin="miter" stroke="rgb(52.156067%, 20.391846%, 3.921509%)" stroke-opacity="1" stroke-miterlimit="4" d="M -54.94808 0.688357 L -39.833258 33.573642 C -39.833258 33.573642 -39.560248 34.194119 -39.138324 34.020385 C -38.741218 33.871471 -38.989409 33.226175 -38.989409 33.226175 L -51.572684 -0.701512 M -51.94497 12.080316 C -52.118704 17.11859 -49.041138 19.848689 -49.438243 24.316124 C -49.835348 28.783559 -47.403078 31.315105 -46.832239 33.027622 C -46.2614 34.789777 -47.427897 35.807359 -46.931516 36.05555 C -46.435134 36.303741 -45.318275 34.938691 -45.665742 32.456783 C -46.038029 29.999694 -47.89946 29.27994 -47.452716 23.819742 C -47.005973 18.359544 -49.711253 17.093771 -49.041138 12.105135 " transform="matrix(-0.0786945, -0.0786945, 0.0786945, -0.0786945, 0.844375, 0.741778)"/>
</g>
<path fill-rule="nonzero" fill="rgb(96.469116%, 70.587158%, 5.490112%)" fill-opacity="1" stroke-width="0.770238" stroke-linecap="butt" stroke-linejoin="miter" stroke="rgb(52.156067%, 20.391846%, 3.921509%)" stroke-opacity="1" stroke-miterlimit="4" d="M -66.468875 27.558078 L -46.765251 70.466311 C -46.765251 70.466311 -46.417784 71.305171 -45.878517 71.081799 C -45.33925 70.858428 -45.644348 70.037118 -45.644348 70.037118 L -62.07727 25.703918 M -62.553791 42.433151 C -62.787017 48.988059 -58.810889 52.570916 -59.324394 58.364433 C -59.813081 64.217868 -56.61714 67.527198 -55.878591 69.818642 C -55.16486 72.050168 -56.671858 73.411475 -56.011507 73.73464 C -55.351155 74.057805 -53.915604 72.269799 -54.370346 69.05351 C -54.867457 65.819671 -57.300029 64.861704 -56.736368 57.748732 C -56.155158 50.593391 -59.643939 48.949736 -58.789719 42.453499 " transform="matrix(-0.0325964, -0.0786945, 0.0786945, -0.0325964, 0.844375, 0.741778)"/>
<path fill-rule="nonzero" fill="rgb(52.156067%, 20.391846%, 3.921509%)" fill-opacity="1" d="M 4.78125 3.492188 C 4.753906 2.957031 4.449219 2.722656 4.511719 2.234375 C 4.378906 2.617188 4.695312 2.917969 4.675781 3.484375 M 5.128906 4.886719 L 3.976562 2.375 L 4.941406 4.964844 "/>
<path fill-rule="nonzero" fill="rgb(52.156067%, 20.391846%, 3.921509%)" fill-opacity="1" d="M 5.351562 3.503906 C 5.53125 3 5.339844 2.664062 5.582031 2.238281 C 5.316406 2.542969 5.492188 2.941406 5.257812 3.460938 M 5.136719 4.925781 L 5.035156 2.164062 L 4.9375 4.925781 "/>
<path fill-rule="nonzero" fill="rgb(52.156067%, 20.391846%, 3.921509%)" fill-opacity="1" d="M 5.875 3.734375 C 6.234375 3.335938 6.1875 2.957031 6.570312 2.652344 C 6.207031 2.832031 6.21875 3.265625 5.804688 3.65625 M 5.132812 4.96875 L 6.09375 2.375 L 4.945312 4.890625 "/>
<path fill-rule="nonzero" fill="rgb(52.156067%, 20.391846%, 3.921509%)" fill-opacity="1" d="M 6.269531 4.144531 C 6.753906 3.917969 6.855469 3.546875 7.328125 3.414062 C 6.921875 3.441406 6.765625 3.847656 6.234375 4.046875 M 5.113281 5 L 6.992188 2.976562 L 4.96875 4.859375 "/>
<g clip-path="url(#clip-18)">
<path fill-rule="nonzero" fill="rgb(96.469116%, 70.587158%, 5.490112%)" fill-opacity="1" d="M 5.113281 5.117188 L 8.769531 3.441406 C 8.769531 3.441406 8.839844 3.410156 8.820312 3.363281 C 8.800781 3.316406 8.734375 3.347656 8.734375 3.347656 L 4.957031 4.746094 M 6.382812 4.785156 C 6.9375 4.804688 7.242188 4.464844 7.742188 4.507812 C 8.238281 4.554688 8.519531 4.28125 8.710938 4.21875 C 8.90625 4.152344 9.019531 4.285156 9.046875 4.230469 C 9.074219 4.171875 8.921875 4.046875 8.648438 4.089844 C 8.375 4.128906 8.292969 4.335938 7.683594 4.289062 C 7.078125 4.238281 6.9375 4.535156 6.382812 4.464844 "/>
</g>
<g clip-path="url(#clip-19)">
<path fill="none" stroke-width="0.8337" stroke-linecap="butt" stroke-linejoin="miter" stroke="rgb(52.156067%, 20.391846%, 3.921509%)" stroke-opacity="1" stroke-miterlimit="4" d="M -55.599953 54.246568 L -34.30518 100.707891 C -34.30518 100.707891 -33.908075 101.601378 -33.312417 101.353187 C -32.716759 101.104996 -33.113864 100.261147 -33.113864 100.261147 L -50.884327 52.261041 M -51.380709 70.378972 C -51.6289 77.427591 -47.310379 81.299368 -47.856399 87.653053 C -48.452057 93.9571 -44.977386 97.531048 -44.183175 99.963318 C -43.339326 102.445227 -45.027024 103.884734 -44.33209 104.232201 C -43.587517 104.579668 -41.999096 102.643779 -42.545116 99.169108 C -43.041497 95.694436 -45.67232 94.652035 -45.076662 86.908481 C -44.431366 79.214565 -48.203866 77.427591 -47.310379 70.378972 " transform="matrix(0, -0.0786945, 0.0786945, 0, 0.844375, 0.741778)"/>
</g>
<g clip-path="url(#clip-20)">
<path fill-rule="nonzero" fill="rgb(96.469116%, 70.587158%, 5.490112%)" fill-opacity="1" d="M 5.035156 5.132812 L 9.058594 4.984375 C 9.058594 4.984375 9.132812 4.984375 9.132812 4.933594 C 9.132812 4.882812 9.058594 4.882812 9.058594 4.882812 L 5.035156 4.730469 M 6.335938 5.3125 C 6.839844 5.542969 7.253906 5.34375 7.695312 5.578125 C 8.140625 5.808594 8.503906 5.664062 8.707031 5.679688 C 8.910156 5.695312 8.964844 5.859375 9.011719 5.820312 C 9.058594 5.777344 8.964844 5.601562 8.695312 5.535156 C 8.425781 5.46875 8.273438 5.628906 7.730469 5.351562 C 7.1875 5.074219 6.945312 5.292969 6.460938 5.015625 "/>
</g>
<g clip-path="url(#clip-21)">
<path fill="none" stroke-width="0.770238" stroke-linecap="butt" stroke-linejoin="miter" stroke="rgb(52.156067%, 20.391846%, 3.921509%)" stroke-opacity="1" stroke-miterlimit="4" d="M -28.798912 65.182717 L -9.112649 108.155702 C -9.112649 108.155702 -8.779204 108.96071 -8.22841 108.732563 C -7.677615 108.504416 -8.01106 107.699409 -8.01106 107.699409 L -24.434924 63.375092 M -24.903809 80.09882 C -25.13965 86.599832 -21.118567 90.195889 -21.677573 96.03655 C -22.176661 101.90203 -18.976888 105.192988 -18.233776 107.466366 C -17.490664 109.739743 -19.024457 111.069996 -18.390172 111.402924 C -17.713518 111.718302 -16.228116 109.911712 -16.718779 106.689918 C -17.209442 103.468124 -19.631004 102.535281 -19.062234 95.399983 C -18.493465 88.264686 -21.954203 86.620606 -21.122187 80.12084 " transform="matrix(0.0325964, -0.0786945, 0.0786945, 0.0325964, 0.844375, 0.741778)"/>
</g>
<path fill-rule="nonzero" fill="rgb(96.469116%, 70.587158%, 5.490112%)" fill-opacity="1" d="M 4.957031 5.117188 L 8.734375 6.519531 C 8.734375 6.519531 8.800781 6.546875 8.820312 6.5 C 8.839844 6.453125 8.769531 6.425781 8.769531 6.425781 L 5.113281 4.746094 M 6.089844 5.78125 C 6.46875 6.1875 6.929688 6.164062 7.246094 6.546875 C 7.566406 6.929688 7.960938 6.933594 8.140625 7.027344 C 8.320312 7.117188 8.308594 7.292969 8.371094 7.273438 C 8.429688 7.253906 8.410156 7.054688 8.1875 6.890625 C 7.964844 6.726562 7.757812 6.816406 7.363281 6.351562 C 6.96875 5.886719 6.660156 5.996094 6.320312 5.554688 "/>
<g clip-path="url(#clip-22)">
<path fill="none" stroke-width="0.589515" stroke-linecap="butt" stroke-linejoin="miter" stroke="rgb(52.156067%, 20.391846%, 3.921509%)" stroke-opacity="1" stroke-miterlimit="4" d="M -1.669456 53.930497 L 13.420546 86.840601 C 13.420546 86.840601 13.668737 87.436259 14.090662 87.262525 C 14.512586 87.088792 14.239576 86.468315 14.239576 86.468315 L 1.68112 52.565448 M 1.308834 65.347275 C 1.1351 70.335911 4.212667 73.115648 3.790742 77.558264 C 3.393637 82.025699 5.875545 84.557245 6.421565 86.294581 C 6.992404 88.007098 5.801088 89.049499 6.322289 89.322509 C 6.81867 89.5707 7.960348 88.180832 7.588062 85.723742 C 7.215776 83.266653 5.329525 82.522081 5.776269 77.061882 C 6.223012 71.601684 3.56737 70.335911 4.212667 65.372094 " transform="matrix(0.0786945, -0.0786945, 0.0786945, 0.0786945, 0.844375, 0.741778)"/>
</g>
<path fill-rule="nonzero" fill="rgb(96.469116%, 70.587158%, 5.490112%)" fill-opacity="1" stroke-width="0.770238" stroke-linecap="butt" stroke-linejoin="miter" stroke="rgb(52.156067%, 20.391846%, 3.921509%)" stroke-opacity="1" stroke-miterlimit="4" d="M 24.422786 65.170193 L 44.151229 108.138345 C 44.151229 108.138345 44.498696 108.977205 45.037963 108.753833 C 45.57723 108.530462 45.229763 107.691602 45.229763 107.691602 L 28.796841 63.358402 M 28.32032 80.087635 C 28.104643 86.600175 32.123141 90.200581 31.592086 96.036467 C 31.061031 101.872352 34.256971 105.181682 35.01307 107.430758 C 35.75162 109.722202 34.202253 111.065959 34.862604 111.389124 C 35.565324 111.729839 37.000876 109.941832 36.546134 106.725544 C 36.049023 103.491705 33.616451 102.533738 34.197661 95.378397 C 34.761322 88.265424 31.272541 86.62177 32.126761 80.125533 " transform="matrix(0.0786945, -0.0325964, 0.0325964, 0.0786945, 0.844375, 0.741778)"/>
<path fill-rule="nonzero" fill="rgb(52.156067%, 20.391846%, 3.921509%)" fill-opacity="1" d="M 6.476562 4.679688 C 7.011719 4.652344 7.246094 4.347656 7.734375 4.40625 C 7.347656 4.277344 7.050781 4.59375 6.480469 4.574219 M 5.078125 5.027344 L 7.59375 3.875 L 5 4.839844 "/>
<path fill-rule="nonzero" fill="rgb(52.156067%, 20.391846%, 3.921509%)" fill-opacity="1" d="M 6.464844 5.25 C 6.96875 5.429688 7.300781 5.238281 7.730469 5.480469 C 7.421875 5.210938 7.027344 5.390625 6.507812 5.15625 M 5.039062 5.035156 L 7.800781 4.933594 L 5.039062 4.832031 "/>
<path fill-rule="nonzero" fill="rgb(52.156067%, 20.391846%, 3.921509%)" fill-opacity="1" d="M 6.234375 5.769531 C 6.628906 6.128906 7.011719 6.082031 7.3125 6.46875 C 7.132812 6.105469 6.699219 6.117188 6.3125 5.703125 M 5 5.03125 L 7.589844 5.992188 L 5.078125 4.84375 "/>
<path fill-rule="nonzero" fill="rgb(52.156067%, 20.391846%, 3.921509%)" fill-opacity="1" d="M 5.820312 6.167969 C 6.050781 6.648438 6.421875 6.753906 6.550781 7.226562 C 6.527344 6.820312 6.121094 6.664062 5.917969 6.132812 M 4.964844 5.007812 L 6.988281 6.890625 L 5.109375 4.867188 "/>
<path fill-rule="nonzero" fill="rgb(96.469116%, 70.587158%, 5.490112%)" fill-opacity="1" stroke-width="1.125" stroke-linecap="butt" stroke-linejoin="miter" stroke="rgb(52.156067%, 20.391846%, 3.921509%)" stroke-opacity="1" stroke-miterlimit="4" d="M 74.101834 53.266959 C 74.101834 64.733376 64.769859 74.065351 53.253804 74.065351 C 41.73775 74.065351 32.405775 64.733376 32.405775 53.266959 C 32.405775 41.750905 41.73775 32.41893 53.253804 32.41893 C 64.769859 32.41893 74.101834 41.750905 74.101834 53.266959 Z M 74.101834 53.266959 " transform="matrix(0.0786945, 0, 0, 0.0786945, 0.844375, 0.741778)"/>
<path fill-rule="nonzero" fill="rgb(51.763916%, 20.783997%, 6.666565%)" fill-opacity="1" d="M 5.59375 4.582031 C 5.480469 4.582031 5.375 4.628906 5.3125 4.730469 C 5.4375 4.84375 5.714844 4.855469 5.90625 4.71875 C 5.824219 4.628906 5.707031 4.582031 5.59375 4.582031 Z M 5.59375 4.609375 C 5.699219 4.605469 5.804688 4.65625 5.816406 4.707031 C 5.691406 4.84375 5.488281 4.832031 5.363281 4.730469 C 5.417969 4.644531 5.507812 4.609375 5.59375 4.609375 Z M 5.59375 4.609375 "/>
<path fill-rule="nonzero" fill="rgb(52.156067%, 20.391846%, 3.921509%)" fill-opacity="1" d="M 5.613281 4.503906 C 5.453125 4.503906 5.414062 4.542969 5.335938 4.605469 C 5.261719 4.667969 5.222656 4.65625 5.210938 4.667969 C 5.199219 4.679688 5.210938 4.71875 5.238281 4.707031 C 5.261719 4.691406 5.3125 4.667969 5.386719 4.605469 C 5.464844 4.542969 5.539062 4.542969 5.613281 4.542969 C 5.84375 4.542969 5.96875 4.730469 5.992188 4.71875 C 6.019531 4.707031 5.867188 4.503906 5.613281 4.503906 Z M 5.613281 4.503906 "/>
<path fill-rule="nonzero" fill="rgb(52.156067%, 20.391846%, 3.921509%)" fill-opacity="1" d="M 6.070312 4.578125 C 5.777344 4.328125 5.414062 4.289062 5.210938 4.480469 C 5.160156 4.542969 5.128906 4.617188 5.117188 4.6875 C 5.09375 4.832031 5.136719 4.988281 5.25 5.148438 C 5.238281 5.148438 5.210938 5.160156 5.199219 5.171875 C 5.097656 4.980469 5.0625 4.785156 5.097656 4.597656 C 5.105469 4.546875 5.117188 4.5 5.136719 4.453125 C 5.414062 4.226562 5.792969 4.199219 6.070312 4.578125 Z M 6.070312 4.578125 "/>
<path fill-rule="nonzero" fill="rgb(52.156067%, 20.391846%, 3.921509%)" fill-opacity="1" d="M 5.703125 4.703125 C 5.703125 4.769531 5.652344 4.820312 5.589844 4.820312 C 5.527344 4.820312 5.476562 4.769531 5.476562 4.703125 C 5.476562 4.640625 5.527344 4.589844 5.589844 4.589844 C 5.652344 4.589844 5.703125 4.640625 5.703125 4.703125 Z M 5.703125 4.703125 "/>
<path fill-rule="nonzero" fill="rgb(52.156067%, 20.391846%, 3.921509%)" fill-opacity="1" d="M 5.917969 4.78125 C 5.703125 4.945312 5.488281 4.933594 5.363281 4.855469 C 5.238281 4.78125 5.238281 4.757812 5.261719 4.757812 C 5.289062 4.757812 5.3125 4.78125 5.414062 4.832031 C 5.515625 4.882812 5.664062 4.882812 5.917969 4.78125 Z M 5.917969 4.78125 "/>
<path fill-rule="nonzero" fill="rgb(52.156067%, 20.391846%, 3.921509%)" fill-opacity="1" d="M 4.785156 5.160156 C 4.730469 5.167969 4.691406 5.214844 4.691406 5.273438 C 4.691406 5.335938 4.742188 5.382812 4.804688 5.382812 C 4.84375 5.382812 4.878906 5.367188 4.898438 5.335938 C 4.941406 5.367188 5.003906 5.371094 5.035156 5.375 C 5.039062 5.375 5.046875 5.375 5.050781 5.375 C 5.082031 5.371094 5.140625 5.367188 5.1875 5.335938 C 5.207031 5.367188 5.242188 5.382812 5.277344 5.382812 C 5.339844 5.382812 5.394531 5.335938 5.394531 5.273438 C 5.394531 5.214844 5.355469 5.167969 5.300781 5.160156 C 5.332031 5.167969 5.351562 5.199219 5.351562 5.230469 C 5.351562 5.273438 5.316406 5.308594 5.273438 5.308594 C 5.234375 5.308594 5.203125 5.273438 5.199219 5.234375 C 5.1875 5.257812 5.136719 5.332031 5.042969 5.335938 C 4.945312 5.332031 4.898438 5.257812 4.886719 5.234375 C 4.882812 5.273438 4.851562 5.308594 4.808594 5.308594 C 4.769531 5.308594 4.734375 5.273438 4.734375 5.230469 C 4.734375 5.199219 4.753906 5.167969 4.785156 5.160156 Z M 4.785156 5.160156 "/>
<path fill-rule="nonzero" fill="rgb(52.156067%, 20.391846%, 3.921509%)" fill-opacity="1" d="M 4.90625 5.496094 C 4.78125 5.496094 4.730469 5.609375 4.617188 5.683594 C 4.679688 5.660156 4.730469 5.609375 4.820312 5.558594 C 4.90625 5.507812 4.984375 5.570312 5.03125 5.570312 L 5.035156 5.570312 C 5.085938 5.570312 5.160156 5.507812 5.25 5.558594 C 5.335938 5.609375 5.386719 5.660156 5.453125 5.683594 C 5.339844 5.609375 5.285156 5.496094 5.160156 5.496094 C 5.136719 5.496094 5.085938 5.507812 5.035156 5.535156 L 5.03125 5.535156 C 4.984375 5.507812 4.933594 5.496094 4.90625 5.496094 Z M 4.90625 5.496094 "/>
<path fill-rule="nonzero" fill="rgb(52.156067%, 20.391846%, 3.921509%)" fill-opacity="1" d="M 4.863281 5.644531 C 4.816406 5.644531 4.75 5.65625 4.65625 5.683594 C 4.882812 5.632812 4.933594 5.710938 5.03125 5.710938 L 5.035156 5.710938 C 5.136719 5.710938 5.1875 5.632812 5.414062 5.683594 C 5.160156 5.609375 5.109375 5.660156 5.035156 5.660156 L 5.03125 5.660156 C 4.984375 5.660156 4.949219 5.640625 4.863281 5.644531 Z M 4.863281 5.644531 "/>
<path fill-rule="nonzero" fill="rgb(52.156067%, 20.391846%, 3.921509%)" fill-opacity="1" d="M 4.664062 5.683594 C 4.652344 5.683594 4.636719 5.683594 4.617188 5.683594 C 4.882812 5.710938 4.753906 5.863281 5.03125 5.863281 L 5.035156 5.863281 C 5.3125 5.863281 5.1875 5.710938 5.453125 5.683594 C 5.175781 5.660156 5.261719 5.824219 5.035156 5.824219 L 5.03125 5.824219 C 4.820312 5.824219 4.886719 5.679688 4.664062 5.683594 Z M 4.664062 5.683594 "/>
<path fill-rule="nonzero" fill="rgb(52.156067%, 20.391846%, 3.921509%)" fill-opacity="1" d="M 5.261719 6.09375 C 5.261719 5.96875 5.160156 5.867188 5.035156 5.867188 C 4.910156 5.867188 4.808594 5.96875 4.808594 6.09375 C 4.832031 5.988281 4.925781 5.914062 5.035156 5.914062 C 5.144531 5.914062 5.238281 5.988281 5.261719 6.09375 Z M 5.261719 6.09375 "/>
<path fill-rule="nonzero" fill="rgb(52.156067%, 20.391846%, 3.921509%)" fill-opacity="1" d="M 4.015625 4.578125 C 4.304688 4.328125 4.671875 4.289062 4.875 4.480469 C 4.921875 4.542969 4.953125 4.617188 4.96875 4.6875 C 4.992188 4.832031 4.949219 4.988281 4.835938 5.148438 C 4.847656 5.148438 4.875 5.160156 4.886719 5.171875 C 4.984375 4.980469 5.019531 4.785156 4.988281 4.597656 C 4.980469 4.546875 4.964844 4.5 4.949219 4.453125 C 4.671875 4.226562 4.292969 4.199219 4.015625 4.578125 Z M 4.015625 4.578125 "/>
<path fill-rule="nonzero" fill="rgb(52.156067%, 20.391846%, 3.921509%)" fill-opacity="1" d="M 4.46875 4.503906 C 4.632812 4.503906 4.671875 4.542969 4.746094 4.605469 C 4.824219 4.667969 4.859375 4.65625 4.875 4.667969 C 4.886719 4.679688 4.875 4.71875 4.847656 4.707031 C 4.824219 4.691406 4.773438 4.667969 4.695312 4.605469 C 4.621094 4.542969 4.546875 4.542969 4.46875 4.542969 C 4.242188 4.542969 4.117188 4.730469 4.089844 4.71875 C 4.066406 4.707031 4.21875 4.503906 4.46875 4.503906 Z M 4.46875 4.503906 "/>
<path fill-rule="nonzero" fill="rgb(51.763916%, 20.783997%, 6.666565%)" fill-opacity="1" d="M 4.460938 4.582031 C 4.351562 4.582031 4.242188 4.628906 4.179688 4.730469 C 4.304688 4.84375 4.585938 4.855469 4.773438 4.71875 C 4.691406 4.628906 4.574219 4.582031 4.460938 4.582031 Z M 4.460938 4.609375 C 4.570312 4.605469 4.671875 4.65625 4.683594 4.707031 C 4.558594 4.84375 4.355469 4.832031 4.230469 4.730469 C 4.285156 4.644531 4.375 4.609375 4.460938 4.609375 Z M 4.460938 4.609375 "/>
<path fill-rule="nonzero" fill="rgb(52.156067%, 20.391846%, 3.921509%)" fill-opacity="1" d="M 4.589844 4.703125 C 4.589844 4.769531 4.539062 4.820312 4.476562 4.820312 C 4.414062 4.820312 4.363281 4.769531 4.363281 4.703125 C 4.363281 4.640625 4.414062 4.589844 4.476562 4.589844 C 4.539062 4.589844 4.589844 4.640625 4.589844 4.703125 Z M 4.589844 4.703125 "/>
<path fill-rule="nonzero" fill="rgb(52.156067%, 20.391846%, 3.921509%)" fill-opacity="1" d="M 4.167969 4.78125 C 4.382812 4.945312 4.59375 4.933594 4.722656 4.855469 C 4.847656 4.78125 4.847656 4.757812 4.824219 4.757812 C 4.796875 4.757812 4.773438 4.78125 4.671875 4.832031 C 4.570312 4.882812 4.417969 4.882812 4.167969 4.78125 Z M 4.167969 4.78125 "/>
</g>
</defs>
<g clip-path="url(#clip-0)">
<path fill-rule="nonzero" fill="rgb(89.99939%, 89.99939%, 89.99939%)" fill-opacity="1" d="M 0 56.699219 L 56.363281 56.699219 L 56.363281 0.113281 L 0 0.113281 Z M 0 56.699219 "/>
</g>
<g clip-path="url(#clip-1)">
<path fill-rule="nonzero" fill="rgb(92.871094%, 83.229065%, 14.369202%)" fill-opacity="1" d="M 12.015625 27.496094 C 5.140625 28.699219 -5.8125 41.132812 5.757812 52.199219 C 17.351562 63.265625 77.683594 55.859375 48.480469 19.839844 C 23.890625 33.058594 32.332031 20.957031 12.015625 27.496094 Z M 12.015625 27.496094 "/>
</g>
<g clip-path="url(#clip-2)">
<path fill-rule="nonzero" fill="rgb(92.871094%, 83.229065%, 14.369202%)" fill-opacity="1" d="M 36.800781 17.578125 C 36.800781 7.929688 30.546875 0.113281 22.828125 0.113281 C 15.113281 0.113281 8.859375 7.929688 8.859375 17.578125 C 8.859375 27.222656 15.113281 35.042969 22.828125 35.042969 C 30.546875 35.042969 36.800781 27.222656 36.800781 17.578125 Z M 36.800781 17.578125 "/>
</g>
<path fill-rule="nonzero" fill="rgb(87.5%, 50%, 12.5%)" fill-opacity="1" d="M 9.027344 18.359375 C 15.648438 16.738281 12.796875 23.082031 23.109375 21.210938 C 0 35.738281 5.195312 21.238281 9.027344 18.359375 Z M 9.027344 18.359375 "/>
<path fill-rule="nonzero" fill="rgb(100%, 99.234009%, 85.00061%)" fill-opacity="1" d="M 22.957031 16.132812 C 23.617188 14.320312 23.101562 12.46875 21.808594 11.996094 C 20.511719 11.523438 18.925781 12.613281 18.269531 14.425781 C 17.609375 16.238281 18.121094 18.089844 19.417969 18.5625 C 20.710938 19.03125 22.296875 17.945312 22.957031 16.132812 Z M 22.957031 16.132812 "/>
<path fill-rule="nonzero" fill="rgb(0%, 0%, 0%)" fill-opacity="1" d="M 22.242188 16.167969 C 22.621094 15.132812 22.503906 14.140625 21.988281 13.953125 C 21.46875 13.765625 20.742188 14.449219 20.367188 15.484375 C 19.992188 16.523438 20.105469 17.515625 20.621094 17.703125 C 21.140625 17.890625 21.867188 17.203125 22.242188 16.167969 Z M 22.242188 16.167969 "/>
<path fill-rule="nonzero" fill="rgb(100%, 99.234009%, 85.00061%)" fill-opacity="1" d="M 14.800781 13.980469 C 15.402344 12.324219 14.96875 10.640625 13.828125 10.226562 C 12.6875 9.8125 11.273438 10.820312 10.671875 12.476562 C 10.066406 14.136719 10.503906 15.816406 11.640625 16.230469 C 12.78125 16.644531 14.195312 15.636719 14.800781 13.980469 Z M 14.800781 13.980469 "/>
<path fill-rule="nonzero" fill="rgb(0%, 0%, 0%)" fill-opacity="1" d="M 14.179688 14.050781 C 14.515625 13.121094 14.457031 12.242188 14.042969 12.089844 C 13.625 11.9375 13.015625 12.574219 12.675781 13.503906 C 12.335938 14.4375 12.398438 15.316406 12.8125 15.464844 C 13.226562 15.617188 13.839844 14.984375 14.179688 14.050781 Z M 14.179688 14.050781 "/>
<g clip-path="url(#clip-3)">
<path fill-rule="nonzero" fill="rgb(45.489502%, 67.449951%, 87.449646%)" fill-opacity="1" d="M 11.371094 27.496094 C 5.140625 28.699219 -5.8125 41.132812 5.757812 52.199219 C 17.351562 63.265625 77.683594 55.859375 48.480469 19.839844 C 23.890625 32.21875 32.332031 23.753906 14.167969 31.546875 Z M 11.371094 27.496094 "/>
</g>
<g clip-path="url(#clip-4)">
<g clip-path="url(#clip-5)">
<path fill-rule="nonzero" fill="rgb(100%, 100%, 100%)" fill-opacity="1" d="M -2.320312 31.550781 L 73.128906 31.550781 L 73.128906 48.316406 L -2.320312 48.316406 Z M -2.320312 31.550781 "/>
</g>
</g>
<use xlink:href="#source-5" transform="matrix(1, 0, 0, 1, 15, 35)"/>
</svg>
