<?xml version="1.0" encoding="UTF-8"?>
<svg xmlns="http://www.w3.org/2000/svg" xmlns:xlink="http://www.w3.org/1999/xlink" width="57.175" height="64.088" viewBox="0 0 57.175 64.088">
<defs>
<clipPath id="clip-0">
<path clip-rule="nonzero" d="M 0 0.0078125 L 56.363281 0.0078125 L 56.363281 63.183594 L 0 63.183594 Z M 0 0.0078125 "/>
</clipPath>
<clipPath id="clip-1">
<path clip-rule="nonzero" d="M 0 26 L 56.363281 26 L 56.363281 63.183594 L 0 63.183594 Z M 0 26 "/>
</clipPath>
<clipPath id="clip-2">
<path clip-rule="nonzero" d="M 0 26 L 56.363281 26 L 56.363281 63.183594 L 0 63.183594 Z M 0 26 "/>
</clipPath>
<clipPath id="clip-3">
<path clip-rule="nonzero" d="M 15 0.0078125 L 39 0.0078125 L 39 9 L 15 9 Z M 15 0.0078125 "/>
</clipPath>
</defs>
<g clip-path="url(#clip-0)">
<path fill-rule="nonzero" fill="rgb(89.99939%, 89.99939%, 89.99939%)" fill-opacity="1" d="M 0 63.183594 L 56.363281 63.183594 L 56.363281 0.0078125 L 0 0.0078125 Z M 0 63.183594 "/>
</g>
<g clip-path="url(#clip-1)">
<path fill-rule="nonzero" fill="rgb(92.871094%, 83.229065%, 14.369202%)" fill-opacity="1" d="M 12.015625 33.980469 C 5.140625 35.183594 -5.8125 47.617188 5.757812 58.683594 C 17.351562 69.75 77.683594 62.34375 48.480469 26.324219 C 23.890625 39.542969 32.332031 27.441406 12.015625 33.980469 Z M 12.015625 33.980469 "/>
</g>
<path fill-rule="nonzero" fill="rgb(92.871094%, 83.229065%, 14.369202%)" fill-opacity="1" d="M 36.800781 24.0625 C 36.800781 14.417969 30.546875 6.597656 22.828125 6.597656 C 15.113281 6.597656 8.859375 14.417969 8.859375 24.0625 C 8.859375 33.707031 15.113281 41.527344 22.828125 41.527344 C 30.546875 41.527344 36.800781 33.707031 36.800781 24.0625 Z M 36.800781 24.0625 "/>
<path fill-rule="nonzero" fill="rgb(87.5%, 50%, 12.5%)" fill-opacity="1" d="M 9.027344 24.84375 C 15.648438 23.222656 12.796875 29.566406 23.109375 27.695312 C 0 42.226562 5.195312 27.722656 9.027344 24.84375 Z M 9.027344 24.84375 "/>
<path fill-rule="nonzero" fill="rgb(100%, 99.234009%, 85.00061%)" fill-opacity="1" d="M 22.957031 22.617188 C 23.617188 20.804688 23.101562 18.953125 21.808594 18.480469 C 20.511719 18.011719 18.925781 19.097656 18.269531 20.910156 C 17.609375 22.722656 18.121094 24.574219 19.417969 25.046875 C 20.710938 25.515625 22.296875 24.429688 22.957031 22.617188 Z M 22.957031 22.617188 "/>
<path fill-rule="nonzero" fill="rgb(0%, 0%, 0%)" fill-opacity="1" d="M 22.242188 22.652344 C 22.621094 21.617188 22.503906 20.625 21.988281 20.4375 C 21.46875 20.25 20.742188 20.9375 20.367188 21.972656 C 19.992188 23.007812 20.105469 24 20.621094 24.1875 C 21.140625 24.375 21.867188 23.6875 22.242188 22.652344 Z M 22.242188 22.652344 "/>
<path fill-rule="nonzero" fill="rgb(100%, 99.234009%, 85.00061%)" fill-opacity="1" d="M 14.800781 20.464844 C 15.402344 18.808594 14.96875 17.128906 13.828125 16.710938 C 12.6875 16.296875 11.273438 17.304688 10.671875 18.960938 C 10.066406 20.621094 10.503906 22.300781 11.640625 22.714844 C 12.78125 23.128906 14.195312 22.121094 14.800781 20.464844 Z M 14.800781 20.464844 "/>
<path fill-rule="nonzero" fill="rgb(0%, 0%, 0%)" fill-opacity="1" d="M 14.179688 20.535156 C 14.515625 19.605469 14.457031 18.726562 14.042969 18.574219 C 13.625 18.425781 13.015625 19.058594 12.675781 19.992188 C 12.335938 20.921875 12.398438 21.800781 12.8125 21.953125 C 13.226562 22.101562 13.839844 21.46875 14.179688 20.535156 Z M 14.179688 20.535156 "/>
<g clip-path="url(#clip-2)">
<path fill-rule="nonzero" fill="rgb(100%, 100%, 100%)" fill-opacity="1" d="M 11.371094 33.980469 C 5.140625 35.183594 -5.8125 47.617188 5.757812 58.683594 C 17.351562 69.75 77.683594 62.34375 48.480469 26.324219 C 23.890625 38.703125 32.332031 30.238281 14.167969 38.035156 Z M 11.371094 33.980469 "/>
<path fill-rule="nonzero" fill="rgb(0%, 0%, 50%)" fill-opacity="1" d="M 11.371094 33.980469 C 5.140625 35.183594 -5.8125 47.617188 5.757812 58.683594 C 17.351562 69.75 77.683594 62.34375 48.480469 26.324219 C 22.269531 39.542969 32.332031 27.472656 12.015625 46.417969 Z M 11.371094 33.980469 "/>
</g>
<path fill-rule="nonzero" fill="rgb(69.999695%, 0%, 0%)" fill-opacity="1" d="M 9.925781 34.945312 C 8.8125 36.160156 8.609375 39.332031 9.183594 40.335938 C 11.535156 40.648438 13.46875 39.46875 13.46875 39.46875 L 15.699219 39.714844 C 15.699219 39.714844 16.617188 41.265625 20.148438 41.699219 C 20.9375 40.671875 21.214844 37.960938 20.828125 36.492188 C 19.703125 35.402344 15.945312 37.238281 15.945312 37.238281 L 13.71875 36.988281 C 13.71875 36.988281 12.871094 35.363281 9.925781 34.945312 Z M 9.925781 34.945312 "/>
<path fill-rule="nonzero" fill="rgb(44.999695%, 29.998779%, 14.99939%)" fill-opacity="1" d="M 38.222656 44.839844 C 40.003906 43.933594 41.980469 43.019531 43.082031 41.300781 C 41.996094 41.253906 38.828125 39.550781 41.234375 38.855469 C 43.277344 38.914062 45.230469 37.90625 46.0625 35.984375 C 47.785156 33.394531 44.113281 34.746094 43.164062 33.65625 C 44.773438 33.167969 47.53125 32.921875 48.324219 31.761719 C 45.246094 31.082031 41.519531 30.59375 39.773438 27.585938 C 38.53125 23.664062 38.746094 19.453125 37.75 15.464844 C 32.675781 -4.207031 4.207031 2.28125 9.027344 21.292969 C 9.8125 13.464844 16.203125 6.933594 22.859375 11.269531 C 32.40625 17.40625 34.984375 26.257812 28.152344 36.328125 C 27.292969 37.730469 28.707031 40.363281 30.667969 41.75 C 32.628906 43.136719 35.414062 44.035156 38.222656 44.839844 Z M 38.222656 44.839844 "/>
<path fill-rule="nonzero" fill="rgb(0%, 0%, 0%)" fill-opacity="1" d="M 43.636719 17.539062 C 44.039062 16.050781 35.902344 12.574219 25.46875 9.777344 C 15.03125 6.980469 6.25 5.925781 5.851562 7.414062 C 5.453125 8.90625 13.585938 12.378906 24.019531 15.175781 C 34.457031 17.972656 43.238281 19.03125 43.636719 17.539062 Z M 43.636719 17.539062 "/>
<path fill-rule="nonzero" fill="rgb(0%, 0%, 0%)" fill-opacity="1" d="M 12.867188 9.296875 L 15.039062 1.199219 L 38.789062 7.5625 L 36.621094 15.660156 Z M 12.867188 9.296875 "/>
<g clip-path="url(#clip-3)">
<path fill-rule="nonzero" fill="rgb(0%, 0%, 0%)" fill-opacity="1" d="M 38.789062 7.5625 C 39.109375 6.371094 34.050781 3.976562 27.492188 2.222656 C 20.933594 0.464844 15.359375 0.00390625 15.039062 1.199219 C 14.71875 2.390625 19.777344 4.78125 26.335938 6.539062 C 32.894531 8.296875 38.472656 8.753906 38.789062 7.5625 Z M 38.789062 7.5625 "/>
</g>
<path fill-rule="nonzero" fill="rgb(50%, 50%, 50%)" fill-opacity="1" d="M 35.128906 46.429688 L 33.648438 46.363281 C 33.558594 39.722656 31.425781 40.84375 28.222656 45.679688 L 28.21875 45.683594 L 28.21875 45.6875 C 21.585938 55.527344 23.453125 53.101562 23.453125 53.101562 L 22.257812 52.230469 C 22.257812 52.230469 20.402344 54.640625 26.988281 44.867188 L 26.992188 44.863281 C 31.273438 38.136719 35.164062 38.613281 35.128906 46.429688 Z M 35.128906 46.429688 "/>
<path fill-rule="nonzero" fill="rgb(0%, 66.468811%, 62.548828%)" fill-opacity="1" d="M 16.757812 62.449219 L 20.140625 48.6875 L 24.359375 47.832031 L 24.28125 42.976562 L 31.058594 47.734375 L 26.234375 49.53125 L 26.921875 53.21875 Z M 16.757812 62.449219 "/>
</svg>
