<?xml version="1.0" encoding="UTF-8"?>
<svg xmlns="http://www.w3.org/2000/svg" xmlns:xlink="http://www.w3.org/1999/xlink" width="171.525" height="60.945" viewBox="0 0 171.525 60.945">
<defs>
<clipPath id="clip-0">
<path clip-rule="nonzero" d="M 0 0.0585938 L 171.050781 0.0585938 L 171.050781 60.832031 L 0 60.832031 Z M 0 0.0585938 "/>
</clipPath>
<clipPath id="clip-1">
<path clip-rule="nonzero" d="M 0 23 L 58 23 L 58 60.832031 L 0 60.832031 Z M 0 23 "/>
</clipPath>
<clipPath id="clip-2">
<path clip-rule="nonzero" d="M 0 23 L 58 23 L 58 60.832031 L 0 60.832031 Z M 0 23 "/>
</clipPath>
<clipPath id="clip-3">
<path clip-rule="nonzero" d="M 57 23 L 115 23 L 115 60.832031 L 57 60.832031 Z M 57 23 "/>
</clipPath>
<clipPath id="clip-4">
<path clip-rule="nonzero" d="M 114 23 L 171.050781 23 L 171.050781 60.832031 L 114 60.832031 Z M 114 23 "/>
</clipPath>
<clipPath id="clip-5">
<path clip-rule="nonzero" d="M 114 23 L 171.050781 23 L 171.050781 60.832031 L 114 60.832031 Z M 114 23 "/>
</clipPath>
<clipPath id="clip-6">
<path clip-rule="nonzero" d="M 122 0.0585938 L 153 0.0585938 L 153 24 L 122 24 Z M 122 0.0585938 "/>
</clipPath>
</defs>
<g clip-path="url(#clip-0)">
<path fill-rule="nonzero" fill="rgb(89.99939%, 89.99939%, 89.99939%)" fill-opacity="1" d="M 0 60.832031 L 171.050781 60.832031 L 171.050781 0.0585938 L 0 0.0585938 Z M 0 60.832031 "/>
</g>
<g clip-path="url(#clip-1)">
<path fill-rule="nonzero" fill="rgb(57.998657%, 77.999878%, 57.998657%)" fill-opacity="1" d="M 12.15625 31.292969 C 5.199219 32.507812 -5.878906 45.089844 5.824219 56.28125 C 17.554688 67.476562 78.585938 59.984375 49.046875 23.546875 C 24.167969 36.917969 32.707031 24.679688 12.15625 31.292969 Z M 12.15625 31.292969 "/>
</g>
<path fill-rule="nonzero" fill="rgb(57.998657%, 77.999878%, 57.998657%)" fill-opacity="1" d="M 37.230469 21.257812 C 37.230469 11.5 30.902344 3.589844 23.09375 3.589844 C 15.289062 3.589844 8.960938 11.5 8.960938 21.257812 C 8.960938 31.015625 15.289062 38.925781 23.09375 38.925781 C 30.902344 38.925781 37.230469 31.015625 37.230469 21.257812 Z M 37.230469 21.257812 "/>
<path fill-rule="nonzero" fill="rgb(39.99939%, 59.999084%, 39.99939%)" fill-opacity="1" d="M 9.128906 22.050781 C 15.832031 20.410156 12.945312 26.828125 23.378906 24.933594 C 0 39.632812 5.257812 24.960938 9.128906 22.050781 Z M 9.128906 22.050781 "/>
<path fill-rule="nonzero" fill="rgb(100%, 99.234009%, 85.00061%)" fill-opacity="1" d="M 23.222656 19.796875 C 23.890625 17.960938 23.371094 16.089844 22.0625 15.613281 C 20.75 15.136719 19.148438 16.234375 18.480469 18.070312 C 17.8125 19.902344 18.332031 21.777344 19.644531 22.253906 C 20.953125 22.730469 22.558594 21.628906 23.222656 19.796875 Z M 23.222656 19.796875 "/>
<path fill-rule="nonzero" fill="rgb(0%, 0%, 0%)" fill-opacity="1" d="M 22.5 19.832031 C 22.882812 18.785156 22.765625 17.78125 22.242188 17.589844 C 21.71875 17.402344 20.984375 18.09375 20.605469 19.144531 C 20.222656 20.191406 20.339844 21.195312 20.863281 21.382812 C 21.386719 21.574219 22.121094 20.882812 22.5 19.832031 Z M 22.5 19.832031 "/>
<path fill-rule="nonzero" fill="rgb(100%, 99.234009%, 85.00061%)" fill-opacity="1" d="M 14.972656 17.621094 C 15.582031 15.941406 15.140625 14.242188 13.988281 13.824219 C 12.835938 13.402344 11.40625 14.421875 10.796875 16.097656 C 10.183594 17.777344 10.625 19.476562 11.777344 19.894531 C 12.929688 20.316406 14.359375 19.296875 14.972656 17.621094 Z M 14.972656 17.621094 "/>
<path fill-rule="nonzero" fill="rgb(0%, 0%, 0%)" fill-opacity="1" d="M 14.34375 17.691406 C 14.6875 16.75 14.625 15.859375 14.203125 15.707031 C 13.785156 15.554688 13.167969 16.195312 12.824219 17.140625 C 12.480469 18.082031 12.542969 18.96875 12.960938 19.125 C 13.382812 19.277344 14 18.636719 14.34375 17.691406 Z M 14.34375 17.691406 "/>
<g clip-path="url(#clip-2)">
<path fill-rule="nonzero" fill="rgb(37.5%, 25%, 12.5%)" fill-opacity="1" d="M 11.503906 31.292969 C 5.199219 32.507812 -5.878906 45.089844 5.824219 56.28125 C 17.554688 67.476562 78.585938 59.984375 49.046875 23.546875 C 24.167969 36.070312 32.707031 27.503906 14.332031 35.390625 Z M 11.503906 31.292969 "/>
<path fill-rule="nonzero" fill="rgb(57.499695%, 50%, 42.498779%)" fill-opacity="1" d="M 11.503906 31.292969 C 5.199219 32.507812 -5.878906 45.089844 5.824219 56.28125 C 17.554688 67.476562 78.585938 59.984375 49.046875 23.546875 C 22.53125 36.917969 32.707031 24.707031 12.15625 43.871094 Z M 11.503906 31.292969 "/>
</g>
<path fill-rule="nonzero" fill="rgb(0%, 100%, 0%)" fill-opacity="1" d="M 23.113281 47.835938 L 44.734375 10.386719 C 45.007812 9.910156 45.613281 9.746094 46.089844 10.019531 L 46.816406 10.441406 C 47.292969 10.714844 47.457031 11.324219 47.179688 11.796875 L 25.558594 49.246094 C 25.285156 49.722656 24.679688 49.886719 24.203125 49.613281 L 23.476562 49.191406 C 23 48.917969 22.835938 48.308594 23.113281 47.835938 Z M 23.113281 47.835938 "/>
<path fill-rule="nonzero" fill="rgb(39.99939%, 39.99939%, 39.99939%)" fill-opacity="1" d="M 19.550781 52.304688 L 25.625 41.785156 C 25.898438 41.3125 26.507812 41.148438 26.980469 41.421875 L 29.175781 42.691406 C 29.652344 42.964844 29.816406 43.574219 29.542969 44.046875 L 23.46875 54.566406 C 23.191406 55.042969 22.585938 55.207031 22.109375 54.933594 L 19.914062 53.664062 C 19.4375 53.390625 19.277344 52.78125 19.550781 52.304688 Z M 19.550781 52.304688 "/>
<path fill-rule="nonzero" fill="rgb(57.998657%, 77.999878%, 57.998657%)" fill-opacity="1" d="M 10.089844 15.605469 L 6.316406 9.640625 C 5.433594 8.25 6.042969 7.3125 7.671875 7.546875 L 14.613281 8.535156 "/>
<path fill-rule="nonzero" fill="rgb(57.998657%, 77.999878%, 57.998657%)" fill-opacity="1" d="M 35.535156 18.429688 L 39.308594 12.46875 C 40.191406 11.078125 39.582031 10.128906 37.949219 10.347656 L 30.445312 11.363281 "/>
<g clip-path="url(#clip-3)">
<path fill-rule="nonzero" fill="rgb(29.998779%, 29.998779%, 29.998779%)" fill-opacity="1" d="M 69.171875 31.292969 C 62.21875 32.507812 51.136719 45.089844 62.839844 56.28125 C 74.574219 67.476562 135.605469 59.984375 106.0625 23.546875 C 81.1875 36.917969 89.726562 24.679688 69.171875 31.292969 Z M 69.171875 31.292969 "/>
</g>
<path fill-rule="nonzero" fill="rgb(29.998779%, 29.998779%, 29.998779%)" fill-opacity="1" d="M 94.246094 21.257812 C 94.246094 11.5 87.917969 3.589844 80.113281 3.589844 C 72.308594 3.589844 65.980469 11.5 65.980469 21.257812 C 65.980469 31.015625 72.308594 38.925781 80.113281 38.925781 C 87.917969 38.925781 94.246094 31.015625 94.246094 21.257812 Z M 94.246094 21.257812 "/>
<path fill-rule="nonzero" fill="rgb(87.5%, 50%, 12.5%)" fill-opacity="1" d="M 66.148438 22.050781 C 72.847656 20.410156 72.847656 20.410156 77.285156 26.910156 C 57.019531 39.632812 62.277344 24.960938 66.148438 22.050781 Z M 66.148438 22.050781 "/>
<path fill-rule="nonzero" fill="rgb(100%, 99.234009%, 85.00061%)" fill-opacity="1" d="M 80.242188 19.796875 C 80.910156 17.960938 80.390625 16.089844 79.078125 15.613281 C 77.769531 15.136719 76.164062 16.234375 75.5 18.070312 C 74.832031 19.902344 75.351562 21.777344 76.660156 22.253906 C 77.972656 22.730469 79.574219 21.628906 80.242188 19.796875 Z M 80.242188 19.796875 "/>
<path fill-rule="nonzero" fill="rgb(0%, 0%, 0%)" fill-opacity="1" d="M 79.519531 19.832031 C 79.898438 18.785156 79.785156 17.78125 79.261719 17.589844 C 78.738281 17.402344 78.003906 18.09375 77.621094 19.144531 C 77.242188 20.191406 77.355469 21.195312 77.878906 21.382812 C 78.402344 21.574219 79.136719 20.882812 79.519531 19.832031 Z M 79.519531 19.832031 "/>
<path fill-rule="nonzero" fill="rgb(100%, 99.234009%, 85.00061%)" fill-opacity="1" d="M 71.988281 17.621094 C 72.597656 15.941406 72.160156 14.242188 71.007812 13.824219 C 69.851562 13.402344 68.421875 14.421875 67.8125 16.097656 C 67.203125 17.777344 67.644531 19.476562 68.796875 19.894531 C 69.949219 20.316406 71.378906 19.296875 71.988281 17.621094 Z M 71.988281 17.621094 "/>
<path fill-rule="nonzero" fill="rgb(0%, 0%, 0%)" fill-opacity="1" d="M 71.359375 17.691406 C 71.703125 16.75 71.640625 15.859375 71.222656 15.707031 C 70.804688 15.554688 70.183594 16.195312 69.839844 17.140625 C 69.5 18.082031 69.558594 18.96875 69.980469 19.125 C 70.398438 19.277344 71.015625 18.636719 71.359375 17.691406 Z M 71.359375 17.691406 "/>
<path fill-rule="nonzero" fill="rgb(14.99939%, 14.99939%, 14.99939%)" fill-opacity="1" d="M 61.03125 36.351562 C 91.816406 36.496094 113.1875 45.285156 112.394531 28.464844 C 107.335938 30.757812 106.796875 30.5 105.328125 25.78125 C 100.890625 28.75 100.464844 27.816406 98.96875 24.28125 C 93.058594 32.960938 73.441406 32.679688 67.675781 32.28125 C 67.703125 31.632812 63.292969 33.214844 61.316406 36.351562 Z M 61.03125 36.351562 "/>
<path fill-rule="nonzero" fill="rgb(14.99939%, 14.99939%, 14.99939%)" fill-opacity="1" d="M 66.726562 9.691406 C 66.960938 9.25 67.707031 9.425781 68.71875 7.738281 C 70.214844 5.230469 76.039062 0.402344 82.625 1.308594 C 90.546875 2.410156 94.460938 10.433594 94.746094 14.414062 C 95.035156 18.558594 97.769531 25.542969 97.769531 25.542969 L 82.503906 29.636719 C 85.480469 27.660156 84.824219 19.566406 84.507812 18.335938 C 82.257812 9.535156 77.628906 10.851562 74.953125 13.640625 C 70.703125 6.078125 66.269531 14.03125 66.351562 22.050781 L 64.648438 23.660156 C 64.648438 22.972656 65.675781 11.707031 66.726562 9.691406 Z M 66.726562 9.691406 "/>
<path fill-rule="nonzero" fill="rgb(100%, 0%, 0%)" fill-opacity="1" d="M 80.128906 47.835938 L 101.75 10.386719 C 102.027344 9.910156 102.632812 9.746094 103.109375 10.019531 L 103.835938 10.441406 C 104.3125 10.714844 104.472656 11.324219 104.199219 11.796875 L 82.578125 49.246094 C 82.304688 49.722656 81.695312 49.886719 81.222656 49.613281 L 80.492188 49.191406 C 80.019531 48.917969 79.855469 48.308594 80.128906 47.835938 Z M 80.128906 47.835938 "/>
<path fill-rule="nonzero" fill="rgb(39.99939%, 39.99939%, 39.99939%)" fill-opacity="1" d="M 76.570312 52.304688 L 82.640625 41.785156 C 82.917969 41.3125 83.523438 41.148438 84 41.421875 L 86.195312 42.691406 C 86.671875 42.964844 86.832031 43.574219 86.558594 44.046875 L 80.484375 54.566406 C 80.210938 55.042969 79.605469 55.207031 79.128906 54.933594 L 76.933594 53.664062 C 76.457031 53.390625 76.292969 52.78125 76.570312 52.304688 Z M 76.570312 52.304688 "/>
<path fill-rule="nonzero" fill="rgb(52.49939%, 34.999084%, 17.498779%)" fill-opacity="1" d="M 132.890625 17.019531 C 132.890625 13.113281 129.726562 9.949219 125.824219 9.949219 C 121.917969 9.949219 118.753906 13.113281 118.753906 17.019531 C 118.753906 20.921875 121.917969 24.085938 125.824219 24.085938 C 129.726562 24.085938 132.890625 20.921875 132.890625 17.019531 Z M 132.890625 17.019531 "/>
<g clip-path="url(#clip-4)">
<path fill-rule="nonzero" fill="rgb(87.5%, 75%, 62.5%)" fill-opacity="1" d="M 126.191406 31.292969 C 119.238281 32.507812 108.15625 45.089844 119.859375 56.28125 C 131.589844 67.476562 192.621094 59.984375 163.082031 23.546875 C 138.203125 36.917969 146.742188 24.679688 126.191406 31.292969 Z M 126.191406 31.292969 "/>
</g>
<path fill-rule="nonzero" fill="rgb(87.5%, 75%, 62.5%)" fill-opacity="1" d="M 151.265625 21.257812 C 151.265625 11.5 144.9375 3.589844 137.128906 3.589844 C 129.324219 3.589844 122.996094 11.5 122.996094 21.257812 C 122.996094 31.015625 129.324219 38.925781 137.128906 38.925781 C 144.9375 38.925781 151.265625 31.015625 151.265625 21.257812 Z M 151.265625 21.257812 "/>
<path fill-rule="nonzero" fill="rgb(87.5%, 50%, 12.5%)" fill-opacity="1" d="M 123.164062 22.050781 C 129.867188 20.410156 126.980469 26.828125 137.414062 24.933594 C 114.035156 39.632812 119.292969 24.960938 123.164062 22.050781 Z M 123.164062 22.050781 "/>
<path fill-rule="nonzero" fill="rgb(100%, 99.234009%, 85.00061%)" fill-opacity="1" d="M 137.257812 19.796875 C 137.925781 17.960938 137.40625 16.089844 136.097656 15.613281 C 134.785156 15.136719 133.183594 16.234375 132.515625 18.070312 C 131.847656 19.902344 132.367188 21.777344 133.679688 22.253906 C 134.988281 22.730469 136.59375 21.628906 137.257812 19.796875 Z M 137.257812 19.796875 "/>
<path fill-rule="nonzero" fill="rgb(0%, 0%, 0%)" fill-opacity="1" d="M 136.535156 19.832031 C 136.917969 18.785156 136.800781 17.78125 136.277344 17.589844 C 135.753906 17.402344 135.019531 18.09375 134.640625 19.144531 C 134.257812 20.191406 134.375 21.195312 134.898438 21.382812 C 135.421875 21.574219 136.15625 20.882812 136.535156 19.832031 Z M 136.535156 19.832031 "/>
<path fill-rule="nonzero" fill="rgb(100%, 99.234009%, 85.00061%)" fill-opacity="1" d="M 129.007812 17.621094 C 129.617188 15.941406 129.175781 14.242188 128.023438 13.824219 C 126.871094 13.402344 125.441406 14.421875 124.832031 16.097656 C 124.21875 17.777344 124.660156 19.476562 125.8125 19.894531 C 126.964844 20.316406 128.394531 19.296875 129.007812 17.621094 Z M 129.007812 17.621094 "/>
<path fill-rule="nonzero" fill="rgb(0%, 0%, 0%)" fill-opacity="1" d="M 128.378906 17.691406 C 128.722656 16.75 128.660156 15.859375 128.238281 15.707031 C 127.820312 15.554688 127.203125 16.195312 126.859375 17.140625 C 126.515625 18.082031 126.578125 18.96875 126.996094 19.125 C 127.417969 19.277344 128.035156 18.636719 128.378906 17.691406 Z M 128.378906 17.691406 "/>
<g clip-path="url(#clip-5)">
<path fill-rule="nonzero" fill="rgb(98.748779%, 97.499084%, 96.24939%)" fill-opacity="1" d="M 125.539062 31.292969 C 119.238281 32.507812 108.15625 45.089844 119.859375 56.28125 C 131.589844 67.476562 192.621094 59.984375 163.082031 23.546875 C 136.566406 36.917969 146.742188 24.707031 126.191406 43.871094 Z M 125.539062 31.292969 "/>
</g>
<g clip-path="url(#clip-6)">
<path fill-rule="nonzero" fill="rgb(52.49939%, 34.999084%, 17.498779%)" fill-opacity="1" d="M 151.113281 23.589844 C 152.808594 22.621094 153.242188 16.832031 152.234375 12.800781 C 147.105469 -7.105469 118.300781 -0.535156 123.421875 18.695312 C 123.972656 10.773438 132.667969 4.300781 138.527344 9.796875 C 146.292969 17.085938 149.332031 24.609375 151.113281 23.589844 Z M 151.113281 23.589844 "/>
</g>
<path fill-rule="nonzero" fill="rgb(0%, 67.83905%, 93.728638%)" fill-opacity="1" d="M 137.148438 47.835938 L 158.769531 10.386719 C 159.042969 9.910156 159.648438 9.746094 160.125 10.019531 L 160.851562 10.441406 C 161.328125 10.714844 161.492188 11.324219 161.214844 11.796875 L 139.59375 49.246094 C 139.320312 49.722656 138.714844 49.886719 138.238281 49.613281 L 137.511719 49.191406 C 137.035156 48.917969 136.871094 48.308594 137.148438 47.835938 Z M 137.148438 47.835938 "/>
<path fill-rule="nonzero" fill="rgb(39.99939%, 39.99939%, 39.99939%)" fill-opacity="1" d="M 133.585938 52.304688 L 139.660156 41.785156 C 139.933594 41.3125 140.542969 41.148438 141.015625 41.421875 L 143.210938 42.691406 C 143.6875 42.964844 143.851562 43.574219 143.578125 44.046875 L 137.503906 54.566406 C 137.226562 55.042969 136.621094 55.207031 136.144531 54.933594 L 133.949219 53.664062 C 133.472656 53.390625 133.3125 52.78125 133.585938 52.304688 Z M 133.585938 52.304688 "/>
<path fill-rule="nonzero" fill="rgb(52.49939%, 34.999084%, 17.498779%)" fill-opacity="1" d="M 155.503906 18.429688 C 155.503906 14.527344 152.339844 11.363281 148.4375 11.363281 C 144.535156 11.363281 141.371094 14.527344 141.371094 18.429688 C 141.371094 22.332031 144.535156 25.496094 148.4375 25.496094 C 152.339844 25.496094 155.503906 22.332031 155.503906 18.429688 Z M 155.503906 18.429688 "/>
</svg>
