<?xml version="1.0" encoding="UTF-8"?>
<svg xmlns="http://www.w3.org/2000/svg" xmlns:xlink="http://www.w3.org/1999/xlink" width="79.678" height="65.171" viewBox="0 0 79.678 65.171">
<defs>
<clipPath id="clip-0">
<path clip-rule="nonzero" d="M 0.339844 0 L 79.019531 0 L 79.019531 64.351562 L 0.339844 64.351562 Z M 0.339844 0 "/>
</clipPath>
<clipPath id="clip-1">
<path clip-rule="nonzero" d="M 17 3 L 29 3 L 29 10 L 17 10 Z M 17 3 "/>
</clipPath>
<clipPath id="clip-2">
<path clip-rule="nonzero" d="M 17.796875 6.648438 C 17.796875 2.976562 20.179688 0 23.117188 0 C 26.054688 0 28.433594 2.976562 28.433594 6.648438 C 28.433594 10.320312 26.054688 13.296875 23.117188 13.296875 C 20.179688 13.296875 17.796875 10.320312 17.796875 6.648438 Z M 17.796875 6.648438 "/>
</clipPath>
<clipPath id="clip-3">
<path clip-rule="nonzero" d="M 3 12 L 38 12 L 38 64.351562 L 3 64.351562 Z M 3 12 "/>
</clipPath>
<clipPath id="clip-4">
<path clip-rule="nonzero" d="M 54 3 L 65 3 L 65 10 L 54 10 Z M 54 3 "/>
</clipPath>
<clipPath id="clip-5">
<path clip-rule="nonzero" d="M 64.839844 6.648438 C 64.839844 2.976562 62.460938 0 59.523438 0 C 56.585938 0 54.203125 2.976562 54.203125 6.648438 C 54.203125 10.320312 56.585938 13.296875 59.523438 13.296875 C 62.460938 13.296875 64.839844 10.320312 64.839844 6.648438 Z M 64.839844 6.648438 "/>
</clipPath>
<clipPath id="clip-6">
<path clip-rule="nonzero" d="M 44 12 L 79.019531 12 L 79.019531 64.351562 L 44 64.351562 Z M 44 12 "/>
</clipPath>
</defs>
<g clip-path="url(#clip-0)">
<path fill-rule="nonzero" fill="rgb(89.99939%, 89.99939%, 89.99939%)" fill-opacity="1" d="M 0.339844 64.351562 L 79.019531 64.351562 L 79.019531 0 L 0.339844 0 Z M 0.339844 64.351562 "/>
</g>
<path fill-rule="nonzero" fill="rgb(25%, 25%, 25%)" fill-opacity="1" d="M 27.234375 10.421875 C 29.851562 10.882812 34.019531 15.613281 29.617188 19.828125 C 25.203125 24.039062 2.238281 21.21875 13.351562 7.507812 C 22.710938 12.539062 19.5 7.933594 27.234375 10.421875 Z M 27.234375 10.421875 "/>
<path fill-rule="nonzero" fill="rgb(25%, 25%, 25%)" fill-opacity="1" d="M 17.796875 6.648438 C 17.796875 2.976562 20.179688 0 23.117188 0 C 26.054688 0 28.433594 2.976562 28.433594 6.648438 C 28.433594 10.320312 26.054688 13.296875 23.117188 13.296875 C 20.179688 13.296875 17.796875 10.320312 17.796875 6.648438 Z M 17.796875 6.648438 "/>
<path fill-rule="nonzero" fill="rgb(87.5%, 50%, 12.5%)" fill-opacity="1" d="M 28.371094 6.945312 C 25.851562 6.328125 26.933594 8.742188 23.011719 8.03125 C 31.808594 13.5625 29.828125 8.039062 28.371094 6.945312 Z M 28.371094 6.945312 "/>
<g clip-path="url(#clip-1)">
<g clip-path="url(#clip-2)">
<path fill-rule="nonzero" fill="rgb(96.461487%, 91.213989%, 54.88739%)" fill-opacity="1" d="M 29.339844 5.992188 L 28.542969 3.011719 L 14.160156 6.867188 L 14.957031 9.84375 Z M 29.339844 5.992188 "/>
</g>
</g>
<path fill-rule="nonzero" fill="rgb(100%, 99.234009%, 85.00061%)" fill-opacity="1" d="M 23.070312 6.097656 C 22.816406 5.40625 23.015625 4.703125 23.507812 4.523438 C 24 4.34375 24.601562 4.757812 24.855469 5.449219 C 25.105469 6.136719 24.910156 6.84375 24.417969 7.023438 C 23.921875 7.203125 23.320312 6.789062 23.070312 6.097656 Z M 23.070312 6.097656 "/>
<path fill-rule="nonzero" fill="rgb(0%, 0%, 0%)" fill-opacity="1" d="M 23.339844 6.113281 C 23.199219 5.71875 23.242188 5.339844 23.4375 5.269531 C 23.636719 5.195312 23.910156 5.457031 24.054688 5.851562 C 24.199219 6.246094 24.15625 6.625 23.957031 6.695312 C 23.761719 6.765625 23.484375 6.503906 23.339844 6.113281 Z M 23.339844 6.113281 "/>
<path fill-rule="nonzero" fill="rgb(100%, 99.234009%, 85.00061%)" fill-opacity="1" d="M 26.175781 5.277344 C 25.945312 4.648438 26.109375 4.007812 26.542969 3.851562 C 26.976562 3.691406 27.515625 4.074219 27.746094 4.707031 C 27.976562 5.335938 27.808594 5.976562 27.375 6.136719 C 26.941406 6.292969 26.402344 5.910156 26.175781 5.277344 Z M 26.175781 5.277344 "/>
<path fill-rule="nonzero" fill="rgb(0%, 0%, 0%)" fill-opacity="1" d="M 26.410156 5.304688 C 26.28125 4.949219 26.304688 4.617188 26.460938 4.558594 C 26.621094 4.5 26.851562 4.742188 26.984375 5.097656 C 27.113281 5.453125 27.089844 5.789062 26.929688 5.84375 C 26.773438 5.902344 26.539062 5.660156 26.410156 5.304688 Z M 26.410156 5.304688 "/>
<g clip-path="url(#clip-3)">
<path fill-rule="nonzero" fill="rgb(50%, 50%, 50%)" fill-opacity="1" d="M 37.875 61.648438 C 38.019531 59.667969 38.039062 56.378906 35.164062 56.769531 C 34.136719 57 33.957031 56.375 34.050781 55.480469 C 34.019531 53.390625 33.734375 51.277344 32.585938 49.476562 C 30.613281 44.941406 30.703125 39.859375 30.367188 35.011719 C 30.265625 32.757812 30.269531 30.503906 30.273438 28.246094 C 31.652344 28.15625 33.722656 28.335938 33.964844 26.53125 C 34.128906 22.074219 34.140625 17.597656 33.933594 13.140625 C 32.195312 13.082031 29.804688 12.589844 28.414062 13.394531 C 28.523438 15.269531 28.648438 17.777344 25.984375 16.886719 C 25.230469 16.886719 24.269531 17.089844 24.609375 15.996094 C 24.558594 14.644531 25.015625 12.421875 22.902344 13.023438 C 20.941406 13.007812 18.980469 13.046875 17.015625 13.054688 C 16.976562 14.285156 16.9375 15.515625 16.898438 16.742188 C 15.671875 16.742188 14.441406 16.742188 13.214844 16.742188 C 13.175781 15.515625 13.136719 14.285156 13.09375 13.054688 C 11.230469 13.054688 9.371094 13.054688 7.507812 13.054688 C 7.546875 17.710938 7.40625 22.375 7.613281 27.023438 C 8.164062 28.507812 9.929688 28.148438 11.191406 28.273438 C 11.078125 34.753906 11.152344 41.332031 9.570312 47.660156 C 8.902344 49.871094 7.308594 51.828125 7.476562 54.253906 C 7.351562 55.015625 7.585938 56.125 7.265625 56.691406 C 6.003906 56.789062 4.167969 56.511719 3.765625 58.078125 C 3.621094 60.164062 3.675781 62.261719 3.632812 64.351562 C 15.050781 64.351562 26.464844 64.351562 37.882812 64.351562 C 37.878906 63.453125 37.875 62.550781 37.875 61.648438 Z M 37.875 61.648438 "/>
</g>
<path fill-rule="nonzero" fill="rgb(96.461487%, 91.213989%, 54.88739%)" fill-opacity="1" d="M 55.40625 10.421875 C 52.789062 10.882812 48.621094 15.613281 53.023438 19.828125 C 57.4375 24.039062 80.402344 21.21875 69.285156 7.507812 C 59.925781 12.539062 63.140625 7.933594 55.40625 10.421875 Z M 55.40625 10.421875 "/>
<path fill-rule="nonzero" fill="rgb(96.461487%, 91.213989%, 54.88739%)" fill-opacity="1" d="M 64.839844 6.648438 C 64.839844 2.976562 62.460938 0 59.523438 0 C 56.585938 0 54.203125 2.976562 54.203125 6.648438 C 54.203125 10.320312 56.585938 13.296875 59.523438 13.296875 C 62.460938 13.296875 64.839844 10.320312 64.839844 6.648438 Z M 64.839844 6.648438 "/>
<path fill-rule="nonzero" fill="rgb(87.5%, 50%, 12.5%)" fill-opacity="1" d="M 54.269531 6.945312 C 56.789062 6.328125 55.703125 8.742188 59.628906 8.03125 C 50.832031 13.5625 52.8125 8.039062 54.269531 6.945312 Z M 54.269531 6.945312 "/>
<g clip-path="url(#clip-4)">
<g clip-path="url(#clip-5)">
<path fill-rule="nonzero" fill="rgb(25%, 25%, 25%)" fill-opacity="1" d="M 53.296875 5.992188 L 54.097656 3.011719 L 68.480469 6.867188 L 67.683594 9.84375 Z M 53.296875 5.992188 "/>
</g>
</g>
<path fill-rule="nonzero" fill="rgb(100%, 99.234009%, 85.00061%)" fill-opacity="1" d="M 59.570312 6.097656 C 59.820312 5.40625 59.625 4.703125 59.132812 4.523438 C 58.640625 4.34375 58.035156 4.757812 57.785156 5.449219 C 57.535156 6.136719 57.730469 6.84375 58.222656 7.023438 C 58.714844 7.203125 59.320312 6.789062 59.570312 6.097656 Z M 59.570312 6.097656 "/>
<path fill-rule="nonzero" fill="rgb(0%, 0%, 0%)" fill-opacity="1" d="M 59.296875 6.113281 C 59.441406 5.71875 59.398438 5.339844 59.199219 5.269531 C 59.003906 5.195312 58.726562 5.457031 58.585938 5.851562 C 58.441406 6.246094 58.484375 6.625 58.679688 6.695312 C 58.878906 6.765625 59.15625 6.503906 59.296875 6.113281 Z M 59.296875 6.113281 "/>
<path fill-rule="nonzero" fill="rgb(100%, 99.234009%, 85.00061%)" fill-opacity="1" d="M 56.464844 5.277344 C 56.695312 4.648438 56.527344 4.007812 56.09375 3.851562 C 55.660156 3.691406 55.125 4.074219 54.894531 4.707031 C 54.664062 5.335938 54.828125 5.976562 55.261719 6.136719 C 55.699219 6.292969 56.234375 5.910156 56.464844 5.277344 Z M 56.464844 5.277344 "/>
<path fill-rule="nonzero" fill="rgb(0%, 0%, 0%)" fill-opacity="1" d="M 56.226562 5.304688 C 56.359375 4.949219 56.335938 4.617188 56.175781 4.558594 C 56.019531 4.5 55.785156 4.742188 55.65625 5.097656 C 55.527344 5.453125 55.550781 5.789062 55.707031 5.84375 C 55.867188 5.902344 56.097656 5.660156 56.226562 5.304688 Z M 56.226562 5.304688 "/>
<g clip-path="url(#clip-6)">
<path fill-rule="nonzero" fill="rgb(50%, 50%, 50%)" fill-opacity="1" d="M 44.761719 61.648438 C 44.621094 59.667969 44.597656 56.378906 47.476562 56.769531 C 48.503906 57 48.683594 56.375 48.589844 55.480469 C 48.621094 53.390625 48.902344 51.277344 50.054688 49.476562 C 52.023438 44.941406 51.9375 39.859375 52.269531 35.011719 C 52.375 32.757812 52.367188 30.503906 52.367188 28.246094 C 50.988281 28.15625 48.917969 28.335938 48.671875 26.53125 C 48.507812 22.074219 48.5 17.597656 48.703125 13.140625 C 50.441406 13.082031 52.835938 12.589844 54.222656 13.394531 C 54.113281 15.269531 53.988281 17.777344 56.65625 16.886719 C 57.410156 16.886719 58.371094 17.089844 58.027344 15.996094 C 58.082031 14.644531 57.621094 12.421875 59.734375 13.023438 C 61.699219 13.007812 63.660156 13.046875 65.621094 13.054688 C 65.660156 14.285156 65.699219 15.515625 65.738281 16.742188 C 66.96875 16.742188 68.199219 16.742188 69.425781 16.742188 C 69.464844 15.515625 69.503906 14.285156 69.542969 13.054688 C 71.40625 13.054688 73.269531 13.054688 75.132812 13.054688 C 75.089844 17.710938 75.234375 22.375 75.027344 27.023438 C 74.476562 28.507812 72.710938 28.148438 71.445312 28.273438 C 71.558594 34.753906 71.484375 41.332031 73.066406 47.660156 C 73.738281 49.871094 75.332031 51.828125 75.160156 54.253906 C 75.289062 55.015625 75.050781 56.125 75.375 56.691406 C 76.636719 56.789062 78.46875 56.511719 78.875 58.078125 C 79.019531 60.164062 78.960938 62.261719 79.007812 64.351562 C 67.589844 64.351562 56.175781 64.351562 44.757812 64.351562 C 44.761719 63.453125 44.761719 62.550781 44.761719 61.648438 Z M 44.761719 61.648438 "/>
</g>
</svg>
