<?xml version="1.0" encoding="UTF-8"?>
<svg xmlns="http://www.w3.org/2000/svg" xmlns:xlink="http://www.w3.org/1999/xlink" width="57.175" height="60.945" viewBox="0 0 57.175 60.945">
<defs>
<clipPath id="clip-0">
<path clip-rule="nonzero" d="M 0 0.40625 L 56.363281 0.40625 L 56.363281 60.484375 L 0 60.484375 Z M 0 0.40625 "/>
</clipPath>
<clipPath id="clip-1">
<path clip-rule="nonzero" d="M 0 23 L 56.363281 23 L 56.363281 60.484375 L 0 60.484375 Z M 0 23 "/>
</clipPath>
<clipPath id="clip-2">
<path clip-rule="nonzero" d="M 0 23 L 56.363281 23 L 56.363281 60.484375 L 0 60.484375 Z M 0 23 "/>
</clipPath>
<clipPath id="clip-3">
<path clip-rule="nonzero" d="M 0 23 L 56.363281 23 L 56.363281 60.484375 L 0 60.484375 Z M 0 23 "/>
</clipPath>
</defs>
<g clip-path="url(#clip-0)">
<path fill-rule="nonzero" fill="rgb(89.99939%, 89.99939%, 89.99939%)" fill-opacity="1" d="M 0 60.484375 L 56.363281 60.484375 L 56.363281 0.40625 L 0 0.40625 Z M 0 60.484375 "/>
</g>
<g clip-path="url(#clip-1)">
<path fill-rule="nonzero" fill="rgb(92.871094%, 83.229065%, 14.369202%)" fill-opacity="1" d="M 12.015625 31.285156 C 5.140625 32.484375 -5.8125 44.921875 5.757812 55.984375 C 17.351562 67.050781 77.683594 59.644531 48.480469 23.628906 C 23.890625 36.84375 32.332031 24.746094 12.015625 31.285156 Z M 12.015625 31.285156 "/>
</g>
<path fill-rule="nonzero" fill="rgb(92.871094%, 83.229065%, 14.369202%)" fill-opacity="1" d="M 36.800781 21.363281 C 36.800781 11.71875 30.546875 3.898438 22.828125 3.898438 C 15.113281 3.898438 8.859375 11.71875 8.859375 21.363281 C 8.859375 31.007812 15.113281 38.828125 22.828125 38.828125 C 30.546875 38.828125 36.800781 31.007812 36.800781 21.363281 Z M 36.800781 21.363281 "/>
<path fill-rule="nonzero" fill="rgb(87.5%, 50%, 12.5%)" fill-opacity="1" d="M 9.027344 22.144531 C 15.648438 20.527344 12.796875 26.867188 23.109375 24.996094 C 0 39.527344 5.195312 25.023438 9.027344 22.144531 Z M 9.027344 22.144531 "/>
<path fill-rule="nonzero" fill="rgb(100%, 99.234009%, 85.00061%)" fill-opacity="1" d="M 22.957031 19.917969 C 23.617188 18.105469 23.101562 16.253906 21.808594 15.78125 C 20.511719 15.3125 18.925781 16.398438 18.269531 18.210938 C 17.609375 20.023438 18.121094 21.875 19.417969 22.347656 C 20.710938 22.820312 22.296875 21.730469 22.957031 19.917969 Z M 22.957031 19.917969 "/>
<path fill-rule="nonzero" fill="rgb(0%, 0%, 0%)" fill-opacity="1" d="M 22.242188 19.957031 C 22.621094 18.921875 22.503906 17.929688 21.988281 17.738281 C 21.46875 17.550781 20.742188 18.238281 20.367188 19.273438 C 19.992188 20.308594 20.105469 21.300781 20.621094 21.488281 C 21.140625 21.675781 21.867188 20.992188 22.242188 19.957031 Z M 22.242188 19.957031 "/>
<path fill-rule="nonzero" fill="rgb(100%, 99.234009%, 85.00061%)" fill-opacity="1" d="M 14.800781 17.765625 C 15.402344 16.109375 14.96875 14.429688 13.828125 14.015625 C 12.6875 13.597656 11.273438 14.605469 10.671875 16.265625 C 10.066406 17.921875 10.503906 19.601562 11.640625 20.015625 C 12.78125 20.433594 14.195312 19.425781 14.800781 17.765625 Z M 14.800781 17.765625 "/>
<path fill-rule="nonzero" fill="rgb(0%, 0%, 0%)" fill-opacity="1" d="M 14.179688 17.839844 C 14.515625 16.90625 14.457031 16.027344 14.042969 15.875 C 13.625 15.726562 13.015625 16.359375 12.675781 17.292969 C 12.335938 18.222656 12.398438 19.101562 12.8125 19.253906 C 13.226562 19.40625 13.839844 18.769531 14.179688 17.839844 Z M 14.179688 17.839844 "/>
<g clip-path="url(#clip-2)">
<path fill-rule="nonzero" fill="rgb(75%, 75%, 75%)" fill-opacity="1" d="M 11.371094 31.285156 C 5.140625 32.484375 -5.8125 44.921875 5.757812 55.984375 C 17.351562 67.050781 77.683594 59.644531 48.480469 23.628906 C 23.890625 36.007812 32.332031 27.539062 14.167969 35.335938 Z M 11.371094 31.285156 "/>
</g>
<path fill-rule="nonzero" fill="rgb(0%, 0%, 79.998779%)" fill-opacity="1" d="M 10.492188 46.003906 L 13.109375 33.707031 L 16.113281 34.34375 L 13.5 46.644531 Z M 10.492188 46.003906 "/>
<g clip-path="url(#clip-3)">
<path fill-rule="nonzero" fill="rgb(0%, 0%, 50%)" fill-opacity="1" d="M 11.371094 31.285156 C 5.140625 32.484375 -5.8125 44.921875 5.757812 55.984375 C 17.351562 67.050781 77.683594 59.644531 48.480469 23.628906 C 22.269531 36.84375 32.332031 24.773438 12.015625 43.71875 Z M 11.371094 31.285156 "/>
</g>
<path fill-rule="nonzero" fill="rgb(75%, 50%, 25%)" fill-opacity="1" d="M 36.652344 23.667969 C 38.328125 22.710938 38.753906 16.988281 37.761719 13.003906 C 32.6875 -6.671875 4.214844 -0.179688 9.28125 18.828125 C 9.820312 11 18.417969 4.601562 24.210938 10.035156 C 31.886719 17.238281 34.890625 24.679688 36.652344 23.667969 Z M 36.652344 23.667969 "/>
</svg>
