<?xml version="1.0" encoding="UTF-8"?>
<svg xmlns="http://www.w3.org/2000/svg" xmlns:xlink="http://www.w3.org/1999/xlink" width="57.175" height="78.343" viewBox="0 0 57.175 78.343">
<defs>
<clipPath id="clip-0">
<path clip-rule="nonzero" d="M 0 0.234375 L 56.363281 0.234375 L 56.363281 77.460938 L 0 77.460938 Z M 0 0.234375 "/>
</clipPath>
<clipPath id="clip-1">
<path clip-rule="nonzero" d="M 0 40 L 56.363281 40 L 56.363281 77.460938 L 0 77.460938 Z M 0 40 "/>
</clipPath>
<clipPath id="clip-2">
<path clip-rule="nonzero" d="M 12 0.234375 L 36 0.234375 L 36 32 L 12 32 Z M 12 0.234375 "/>
</clipPath>
<clipPath id="clip-3">
<path clip-rule="nonzero" d="M 26 30 L 29 30 L 29 32 L 26 32 Z M 26 30 "/>
</clipPath>
<clipPath id="clip-4">
<path clip-rule="nonzero" d="M 12.449219 26.851562 L 28.804688 0.230469 L 35.589844 31.679688 "/>
</clipPath>
<clipPath id="clip-5">
<path clip-rule="nonzero" d="M 26.941406 35.417969 L 30.972656 32.902344 L 28.453125 28.875 L 24.425781 31.390625 Z M 26.941406 35.417969 "/>
</clipPath>
<clipPath id="clip-6">
<path clip-rule="nonzero" d="M 30 28 L 34 28 L 34 32 L 30 32 Z M 30 28 "/>
</clipPath>
<clipPath id="clip-7">
<path clip-rule="nonzero" d="M 12.449219 26.851562 L 28.804688 0.230469 L 35.589844 31.679688 "/>
</clipPath>
<clipPath id="clip-8">
<path clip-rule="nonzero" d="M 30.972656 32.902344 L 35 30.382812 L 32.484375 26.355469 L 28.453125 28.875 Z M 30.972656 32.902344 "/>
</clipPath>
<clipPath id="clip-9">
<path clip-rule="nonzero" d="M 34 25 L 36 25 L 36 29 L 34 29 Z M 34 25 "/>
</clipPath>
<clipPath id="clip-10">
<path clip-rule="nonzero" d="M 12.449219 26.851562 L 28.804688 0.230469 L 35.589844 31.679688 "/>
</clipPath>
<clipPath id="clip-11">
<path clip-rule="nonzero" d="M 35 30.382812 L 39.027344 27.867188 L 36.511719 23.839844 L 32.484375 26.355469 Z M 35 30.382812 "/>
</clipPath>
<clipPath id="clip-12">
<path clip-rule="nonzero" d="M 15 31 L 19 31 L 19 32 L 15 32 Z M 15 31 "/>
</clipPath>
<clipPath id="clip-13">
<path clip-rule="nonzero" d="M 12.449219 26.851562 L 28.804688 0.230469 L 35.589844 31.679688 "/>
</clipPath>
<clipPath id="clip-14">
<path clip-rule="nonzero" d="M 16.367188 36.425781 L 20.398438 33.90625 L 17.878906 29.878906 L 13.851562 32.398438 Z M 16.367188 36.425781 "/>
</clipPath>
<clipPath id="clip-15">
<path clip-rule="nonzero" d="M 19 29 L 23 29 L 23 32 L 19 32 Z M 19 29 "/>
</clipPath>
<clipPath id="clip-16">
<path clip-rule="nonzero" d="M 12.449219 26.851562 L 28.804688 0.230469 L 35.589844 31.679688 "/>
</clipPath>
<clipPath id="clip-17">
<path clip-rule="nonzero" d="M 20.398438 33.90625 L 24.425781 31.390625 L 21.910156 27.363281 L 17.878906 29.878906 Z M 20.398438 33.90625 "/>
</clipPath>
<clipPath id="clip-18">
<path clip-rule="nonzero" d="M 23 26 L 27 26 L 27 30 L 23 30 Z M 23 26 "/>
</clipPath>
<clipPath id="clip-19">
<path clip-rule="nonzero" d="M 12.449219 26.851562 L 28.804688 0.230469 L 35.589844 31.679688 "/>
</clipPath>
<clipPath id="clip-20">
<path clip-rule="nonzero" d="M 24.425781 31.390625 L 28.453125 28.875 L 25.9375 24.84375 L 21.910156 27.363281 Z M 24.425781 31.390625 "/>
</clipPath>
<clipPath id="clip-21">
<path clip-rule="nonzero" d="M 27 24 L 31 24 L 31 27 L 27 27 Z M 27 24 "/>
</clipPath>
<clipPath id="clip-22">
<path clip-rule="nonzero" d="M 12.449219 26.851562 L 28.804688 0.230469 L 35.589844 31.679688 "/>
</clipPath>
<clipPath id="clip-23">
<path clip-rule="nonzero" d="M 28.453125 28.875 L 32.484375 26.355469 L 29.964844 22.328125 L 25.9375 24.84375 Z M 28.453125 28.875 "/>
</clipPath>
<clipPath id="clip-24">
<path clip-rule="nonzero" d="M 31 21 L 35 21 L 35 25 L 31 25 Z M 31 21 "/>
</clipPath>
<clipPath id="clip-25">
<path clip-rule="nonzero" d="M 12.449219 26.851562 L 28.804688 0.230469 L 35.589844 31.679688 "/>
</clipPath>
<clipPath id="clip-26">
<path clip-rule="nonzero" d="M 32.484375 26.355469 L 36.511719 23.839844 L 33.996094 19.808594 L 29.964844 22.328125 Z M 32.484375 26.355469 "/>
</clipPath>
<clipPath id="clip-27">
<path clip-rule="nonzero" d="M 35 19 L 36 19 L 36 22 L 35 22 Z M 35 19 "/>
</clipPath>
<clipPath id="clip-28">
<path clip-rule="nonzero" d="M 12.449219 26.851562 L 28.804688 0.230469 L 35.589844 31.679688 "/>
</clipPath>
<clipPath id="clip-29">
<path clip-rule="nonzero" d="M 36.511719 23.839844 L 40.539062 21.320312 L 38.023438 17.292969 L 33.996094 19.808594 Z M 36.511719 23.839844 "/>
</clipPath>
<clipPath id="clip-30">
<path clip-rule="nonzero" d="M 13 27 L 16 27 L 16 31 L 13 31 Z M 13 27 "/>
</clipPath>
<clipPath id="clip-31">
<path clip-rule="nonzero" d="M 12.449219 26.851562 L 28.804688 0.230469 L 35.589844 31.679688 "/>
</clipPath>
<clipPath id="clip-32">
<path clip-rule="nonzero" d="M 13.851562 32.394531 L 17.878906 29.878906 L 15.363281 25.851562 L 11.335938 28.367188 Z M 13.851562 32.394531 "/>
</clipPath>
<clipPath id="clip-33">
<path clip-rule="nonzero" d="M 17 25 L 20 25 L 20 28 L 17 28 Z M 17 25 "/>
</clipPath>
<clipPath id="clip-34">
<path clip-rule="nonzero" d="M 12.449219 26.851562 L 28.804688 0.230469 L 35.589844 31.679688 "/>
</clipPath>
<clipPath id="clip-35">
<path clip-rule="nonzero" d="M 17.878906 29.878906 L 21.910156 27.363281 L 19.390625 23.332031 L 15.363281 25.851562 Z M 17.878906 29.878906 "/>
</clipPath>
<clipPath id="clip-36">
<path clip-rule="nonzero" d="M 21 22 L 24 22 L 24 26 L 21 26 Z M 21 22 "/>
</clipPath>
<clipPath id="clip-37">
<path clip-rule="nonzero" d="M 12.449219 26.851562 L 28.804688 0.230469 L 35.589844 31.679688 "/>
</clipPath>
<clipPath id="clip-38">
<path clip-rule="nonzero" d="M 21.910156 27.363281 L 25.9375 24.84375 L 23.421875 20.816406 L 19.390625 23.332031 Z M 21.910156 27.363281 "/>
</clipPath>
<clipPath id="clip-39">
<path clip-rule="nonzero" d="M 25 20 L 28 20 L 28 23 L 25 23 Z M 25 20 "/>
</clipPath>
<clipPath id="clip-40">
<path clip-rule="nonzero" d="M 12.449219 26.851562 L 28.804688 0.230469 L 35.589844 31.679688 "/>
</clipPath>
<clipPath id="clip-41">
<path clip-rule="nonzero" d="M 25.9375 24.84375 L 29.964844 22.328125 L 27.449219 18.296875 L 23.421875 20.816406 Z M 25.9375 24.84375 "/>
</clipPath>
<clipPath id="clip-42">
<path clip-rule="nonzero" d="M 29 17 L 33 17 L 33 21 L 29 21 Z M 29 17 "/>
</clipPath>
<clipPath id="clip-43">
<path clip-rule="nonzero" d="M 12.449219 26.851562 L 28.804688 0.230469 L 35.589844 31.679688 "/>
</clipPath>
<clipPath id="clip-44">
<path clip-rule="nonzero" d="M 29.964844 22.328125 L 33.996094 19.808594 L 31.476562 15.78125 L 27.449219 18.296875 Z M 29.964844 22.328125 "/>
</clipPath>
<clipPath id="clip-45">
<path clip-rule="nonzero" d="M 33 15 L 36 15 L 36 18 L 33 18 Z M 33 15 "/>
</clipPath>
<clipPath id="clip-46">
<path clip-rule="nonzero" d="M 12.449219 26.851562 L 28.804688 0.230469 L 35.589844 31.679688 "/>
</clipPath>
<clipPath id="clip-47">
<path clip-rule="nonzero" d="M 33.996094 19.808594 L 38.023438 17.292969 L 35.503906 13.265625 L 31.476562 15.78125 Z M 33.996094 19.808594 "/>
</clipPath>
<clipPath id="clip-48">
<path clip-rule="nonzero" d="M 12 23 L 14 23 L 14 27 L 12 27 Z M 12 23 "/>
</clipPath>
<clipPath id="clip-49">
<path clip-rule="nonzero" d="M 12.449219 26.851562 L 28.804688 0.230469 L 35.589844 31.679688 "/>
</clipPath>
<clipPath id="clip-50">
<path clip-rule="nonzero" d="M 11.335938 28.367188 L 15.363281 25.851562 L 12.84375 21.820312 L 8.816406 24.339844 Z M 11.335938 28.367188 "/>
</clipPath>
<clipPath id="clip-51">
<path clip-rule="nonzero" d="M 14 21 L 18 21 L 18 24 L 14 24 Z M 14 21 "/>
</clipPath>
<clipPath id="clip-52">
<path clip-rule="nonzero" d="M 12.449219 26.851562 L 28.804688 0.230469 L 35.589844 31.679688 "/>
</clipPath>
<clipPath id="clip-53">
<path clip-rule="nonzero" d="M 15.363281 25.851562 L 19.390625 23.332031 L 16.875 19.304688 L 12.84375 21.820312 Z M 15.363281 25.851562 "/>
</clipPath>
<clipPath id="clip-54">
<path clip-rule="nonzero" d="M 18 18 L 22 18 L 22 22 L 18 22 Z M 18 18 "/>
</clipPath>
<clipPath id="clip-55">
<path clip-rule="nonzero" d="M 12.449219 26.851562 L 28.804688 0.230469 L 35.589844 31.679688 "/>
</clipPath>
<clipPath id="clip-56">
<path clip-rule="nonzero" d="M 19.390625 23.332031 L 23.421875 20.816406 L 20.902344 16.789062 L 16.875 19.304688 Z M 19.390625 23.332031 "/>
</clipPath>
<clipPath id="clip-57">
<path clip-rule="nonzero" d="M 22 16 L 26 16 L 26 19 L 22 19 Z M 22 16 "/>
</clipPath>
<clipPath id="clip-58">
<path clip-rule="nonzero" d="M 12.449219 26.851562 L 28.804688 0.230469 L 35.589844 31.679688 "/>
</clipPath>
<clipPath id="clip-59">
<path clip-rule="nonzero" d="M 23.421875 20.816406 L 27.449219 18.296875 L 24.929688 14.269531 L 20.902344 16.789062 Z M 23.421875 20.816406 "/>
</clipPath>
<clipPath id="clip-60">
<path clip-rule="nonzero" d="M 26 13 L 30 13 L 30 17 L 26 17 Z M 26 13 "/>
</clipPath>
<clipPath id="clip-61">
<path clip-rule="nonzero" d="M 12.449219 26.851562 L 28.804688 0.230469 L 35.589844 31.679688 "/>
</clipPath>
<clipPath id="clip-62">
<path clip-rule="nonzero" d="M 27.449219 18.296875 L 31.476562 15.78125 L 28.960938 11.753906 L 24.929688 14.269531 Z M 27.449219 18.296875 "/>
</clipPath>
<clipPath id="clip-63">
<path clip-rule="nonzero" d="M 30 11 L 34 11 L 34 14 L 30 14 Z M 30 11 "/>
</clipPath>
<clipPath id="clip-64">
<path clip-rule="nonzero" d="M 12.449219 26.851562 L 28.804688 0.230469 L 35.589844 31.679688 "/>
</clipPath>
<clipPath id="clip-65">
<path clip-rule="nonzero" d="M 31.476562 15.78125 L 35.503906 13.265625 L 32.988281 9.234375 L 28.960938 11.753906 Z M 31.476562 15.78125 "/>
</clipPath>
<clipPath id="clip-66">
<path clip-rule="nonzero" d="M 34 8 L 36 8 L 36 12 L 34 12 Z M 34 8 "/>
</clipPath>
<clipPath id="clip-67">
<path clip-rule="nonzero" d="M 12.449219 26.851562 L 28.804688 0.230469 L 35.589844 31.679688 "/>
</clipPath>
<clipPath id="clip-68">
<path clip-rule="nonzero" d="M 35.503906 13.265625 L 39.535156 10.746094 L 37.015625 6.71875 L 32.988281 9.234375 Z M 35.503906 13.265625 "/>
</clipPath>
<clipPath id="clip-69">
<path clip-rule="nonzero" d="M 12 17 L 15 17 L 15 20 L 12 20 Z M 12 17 "/>
</clipPath>
<clipPath id="clip-70">
<path clip-rule="nonzero" d="M 12.449219 26.851562 L 28.804688 0.230469 L 35.589844 31.679688 "/>
</clipPath>
<clipPath id="clip-71">
<path clip-rule="nonzero" d="M 12.84375 21.820312 L 16.875 19.304688 L 14.355469 15.277344 L 10.328125 17.792969 Z M 12.84375 21.820312 "/>
</clipPath>
<clipPath id="clip-72">
<path clip-rule="nonzero" d="M 16 14 L 19 14 L 19 18 L 16 18 Z M 16 14 "/>
</clipPath>
<clipPath id="clip-73">
<path clip-rule="nonzero" d="M 12.449219 26.851562 L 28.804688 0.230469 L 35.589844 31.679688 "/>
</clipPath>
<clipPath id="clip-74">
<path clip-rule="nonzero" d="M 16.875 19.304688 L 20.902344 16.789062 L 18.386719 12.757812 L 14.355469 15.277344 Z M 16.875 19.304688 "/>
</clipPath>
<clipPath id="clip-75">
<path clip-rule="nonzero" d="M 20 12 L 23 12 L 23 15 L 20 15 Z M 20 12 "/>
</clipPath>
<clipPath id="clip-76">
<path clip-rule="nonzero" d="M 12.449219 26.851562 L 28.804688 0.230469 L 35.589844 31.679688 "/>
</clipPath>
<clipPath id="clip-77">
<path clip-rule="nonzero" d="M 20.902344 16.789062 L 24.929688 14.269531 L 22.414062 10.242188 L 18.386719 12.757812 Z M 20.902344 16.789062 "/>
</clipPath>
<clipPath id="clip-78">
<path clip-rule="nonzero" d="M 24 9 L 27 9 L 27 13 L 24 13 Z M 24 9 "/>
</clipPath>
<clipPath id="clip-79">
<path clip-rule="nonzero" d="M 12.449219 26.851562 L 28.804688 0.230469 L 35.589844 31.679688 "/>
</clipPath>
<clipPath id="clip-80">
<path clip-rule="nonzero" d="M 24.929688 14.269531 L 28.960938 11.753906 L 26.441406 7.722656 L 22.414062 10.242188 Z M 24.929688 14.269531 "/>
</clipPath>
<clipPath id="clip-81">
<path clip-rule="nonzero" d="M 28 7 L 32 7 L 32 10 L 28 10 Z M 28 7 "/>
</clipPath>
<clipPath id="clip-82">
<path clip-rule="nonzero" d="M 12.449219 26.851562 L 28.804688 0.230469 L 35.589844 31.679688 "/>
</clipPath>
<clipPath id="clip-83">
<path clip-rule="nonzero" d="M 28.960938 11.753906 L 32.988281 9.234375 L 30.472656 5.207031 L 26.441406 7.722656 Z M 28.960938 11.753906 "/>
</clipPath>
<clipPath id="clip-84">
<path clip-rule="nonzero" d="M 32 4 L 36 4 L 36 8 L 32 8 Z M 32 4 "/>
</clipPath>
<clipPath id="clip-85">
<path clip-rule="nonzero" d="M 12.449219 26.851562 L 28.804688 0.230469 L 35.589844 31.679688 "/>
</clipPath>
<clipPath id="clip-86">
<path clip-rule="nonzero" d="M 32.988281 9.234375 L 37.015625 6.71875 L 34.5 2.691406 L 30.472656 5.207031 Z M 32.988281 9.234375 "/>
</clipPath>
<clipPath id="clip-87">
<path clip-rule="nonzero" d="M 12 13 L 13 13 L 13 16 L 12 16 Z M 12 13 "/>
</clipPath>
<clipPath id="clip-88">
<path clip-rule="nonzero" d="M 12.449219 26.851562 L 28.804688 0.230469 L 35.589844 31.679688 "/>
</clipPath>
<clipPath id="clip-89">
<path clip-rule="nonzero" d="M 10.328125 17.792969 L 14.355469 15.277344 L 11.839844 11.246094 L 7.8125 13.765625 Z M 10.328125 17.792969 "/>
</clipPath>
<clipPath id="clip-90">
<path clip-rule="nonzero" d="M 13 10 L 17 10 L 17 14 L 13 14 Z M 13 10 "/>
</clipPath>
<clipPath id="clip-91">
<path clip-rule="nonzero" d="M 12.449219 26.851562 L 28.804688 0.230469 L 35.589844 31.679688 "/>
</clipPath>
<clipPath id="clip-92">
<path clip-rule="nonzero" d="M 14.355469 15.277344 L 18.386719 12.757812 L 15.867188 8.730469 L 11.839844 11.246094 Z M 14.355469 15.277344 "/>
</clipPath>
<clipPath id="clip-93">
<path clip-rule="nonzero" d="M 17 8 L 21 8 L 21 11 L 17 11 Z M 17 8 "/>
</clipPath>
<clipPath id="clip-94">
<path clip-rule="nonzero" d="M 12.449219 26.851562 L 28.804688 0.230469 L 35.589844 31.679688 "/>
</clipPath>
<clipPath id="clip-95">
<path clip-rule="nonzero" d="M 18.386719 12.757812 L 22.414062 10.242188 L 19.898438 6.214844 L 15.867188 8.730469 Z M 18.386719 12.757812 "/>
</clipPath>
<clipPath id="clip-96">
<path clip-rule="nonzero" d="M 21 5 L 25 5 L 25 9 L 21 9 Z M 21 5 "/>
</clipPath>
<clipPath id="clip-97">
<path clip-rule="nonzero" d="M 12.449219 26.851562 L 28.804688 0.230469 L 35.589844 31.679688 "/>
</clipPath>
<clipPath id="clip-98">
<path clip-rule="nonzero" d="M 22.414062 10.242188 L 26.441406 7.722656 L 23.925781 3.695312 L 19.898438 6.214844 Z M 22.414062 10.242188 "/>
</clipPath>
<clipPath id="clip-99">
<path clip-rule="nonzero" d="M 25 3 L 29 3 L 29 6 L 25 6 Z M 25 3 "/>
</clipPath>
<clipPath id="clip-100">
<path clip-rule="nonzero" d="M 12.449219 26.851562 L 28.804688 0.230469 L 35.589844 31.679688 "/>
</clipPath>
<clipPath id="clip-101">
<path clip-rule="nonzero" d="M 26.441406 7.722656 L 30.472656 5.207031 L 27.953125 1.179688 L 23.925781 3.695312 Z M 26.441406 7.722656 "/>
</clipPath>
<clipPath id="clip-102">
<path clip-rule="nonzero" d="M 29 0.234375 L 33 0.234375 L 33 4 L 29 4 Z M 29 0.234375 "/>
</clipPath>
<clipPath id="clip-103">
<path clip-rule="nonzero" d="M 12.449219 26.851562 L 28.804688 0.230469 L 35.589844 31.679688 "/>
</clipPath>
<clipPath id="clip-104">
<path clip-rule="nonzero" d="M 30.472656 5.207031 L 34.5 2.691406 L 31.980469 -1.339844 L 27.953125 1.179688 Z M 30.472656 5.207031 "/>
</clipPath>
<clipPath id="clip-105">
<path clip-rule="nonzero" d="M 33 0.234375 L 36 0.234375 L 36 1 L 33 1 Z M 33 0.234375 "/>
</clipPath>
<clipPath id="clip-106">
<path clip-rule="nonzero" d="M 12.449219 26.851562 L 28.804688 0.230469 L 35.589844 31.679688 "/>
</clipPath>
<clipPath id="clip-107">
<path clip-rule="nonzero" d="M 34.5 2.691406 L 38.527344 0.171875 L 36.011719 -3.855469 L 31.980469 -1.339844 Z M 34.5 2.691406 "/>
</clipPath>
<clipPath id="clip-108">
<path clip-rule="nonzero" d="M 12 6 L 14 6 L 14 10 L 12 10 Z M 12 6 "/>
</clipPath>
<clipPath id="clip-109">
<path clip-rule="nonzero" d="M 12.449219 26.851562 L 28.804688 0.230469 L 35.589844 31.679688 "/>
</clipPath>
<clipPath id="clip-110">
<path clip-rule="nonzero" d="M 11.839844 11.246094 L 15.867188 8.730469 L 13.351562 4.703125 L 9.320312 7.21875 Z M 11.839844 11.246094 "/>
</clipPath>
<clipPath id="clip-111">
<path clip-rule="nonzero" d="M 15 4 L 18 4 L 18 7 L 15 7 Z M 15 4 "/>
</clipPath>
<clipPath id="clip-112">
<path clip-rule="nonzero" d="M 12.449219 26.851562 L 28.804688 0.230469 L 35.589844 31.679688 "/>
</clipPath>
<clipPath id="clip-113">
<path clip-rule="nonzero" d="M 15.867188 8.730469 L 19.898438 6.214844 L 17.378906 2.183594 L 13.351562 4.703125 Z M 15.867188 8.730469 "/>
</clipPath>
<clipPath id="clip-114">
<path clip-rule="nonzero" d="M 19 1 L 22 1 L 22 5 L 19 5 Z M 19 1 "/>
</clipPath>
<clipPath id="clip-115">
<path clip-rule="nonzero" d="M 12.449219 26.851562 L 28.804688 0.230469 L 35.589844 31.679688 "/>
</clipPath>
<clipPath id="clip-116">
<path clip-rule="nonzero" d="M 19.898438 6.214844 L 23.925781 3.695312 L 21.40625 -0.332031 L 17.378906 2.183594 Z M 19.898438 6.214844 "/>
</clipPath>
<clipPath id="clip-117">
<path clip-rule="nonzero" d="M 23 0.234375 L 26 0.234375 L 26 2 L 23 2 Z M 23 0.234375 "/>
</clipPath>
<clipPath id="clip-118">
<path clip-rule="nonzero" d="M 12.449219 26.851562 L 28.804688 0.230469 L 35.589844 31.679688 "/>
</clipPath>
<clipPath id="clip-119">
<path clip-rule="nonzero" d="M 23.925781 3.695312 L 27.953125 1.179688 L 25.4375 -2.851562 L 21.40625 -0.332031 Z M 23.925781 3.695312 "/>
</clipPath>
<clipPath id="clip-120">
<path clip-rule="nonzero" d="M 12 0.234375 L 16 0.234375 L 16 3 L 12 3 Z M 12 0.234375 "/>
</clipPath>
<clipPath id="clip-121">
<path clip-rule="nonzero" d="M 12.449219 26.851562 L 28.804688 0.230469 L 35.589844 31.679688 "/>
</clipPath>
<clipPath id="clip-122">
<path clip-rule="nonzero" d="M 13.351562 4.703125 L 17.378906 2.183594 L 14.863281 -1.84375 L 10.832031 0.671875 Z M 13.351562 4.703125 "/>
</clipPath>
<clipPath id="clip-123">
<path clip-rule="nonzero" d="M 16 0.234375 L 20 0.234375 L 20 1 L 16 1 Z M 16 0.234375 "/>
</clipPath>
<clipPath id="clip-124">
<path clip-rule="nonzero" d="M 12.449219 26.851562 L 28.804688 0.230469 L 35.589844 31.679688 "/>
</clipPath>
<clipPath id="clip-125">
<path clip-rule="nonzero" d="M 17.378906 2.183594 L 21.40625 -0.332031 L 18.890625 -4.363281 L 14.863281 -1.84375 Z M 17.378906 2.183594 "/>
</clipPath>
</defs>
<g clip-path="url(#clip-0)">
<path fill-rule="nonzero" fill="rgb(89.99939%, 89.99939%, 89.99939%)" fill-opacity="1" d="M 0 77.460938 L 56.363281 77.460938 L 56.363281 0.234375 L 0 0.234375 Z M 0 77.460938 "/>
</g>
<g clip-path="url(#clip-1)">
<path fill-rule="nonzero" fill="rgb(92.871094%, 83.229065%, 14.369202%)" fill-opacity="1" d="M 12.015625 48.261719 C 5.140625 49.460938 -5.8125 61.898438 5.757812 72.964844 C 17.351562 84.027344 77.683594 76.625 48.480469 40.605469 C 23.890625 53.820312 32.332031 41.722656 12.015625 48.261719 Z M 12.015625 48.261719 "/>
</g>
<path fill-rule="nonzero" fill="rgb(92.871094%, 83.229065%, 14.369202%)" fill-opacity="1" d="M 36.800781 38.339844 C 36.800781 28.695312 30.546875 20.875 22.828125 20.875 C 15.113281 20.875 8.859375 28.695312 8.859375 38.339844 C 8.859375 47.988281 15.113281 55.804688 22.828125 55.804688 C 30.546875 55.804688 36.800781 47.988281 36.800781 38.339844 Z M 36.800781 38.339844 "/>
<path fill-rule="nonzero" fill="rgb(87.5%, 50%, 12.5%)" fill-opacity="1" d="M 9.027344 39.125 C 15.648438 37.503906 12.796875 43.847656 23.109375 41.972656 C 0 56.503906 5.195312 42 9.027344 39.125 Z M 9.027344 39.125 "/>
<path fill-rule="nonzero" fill="rgb(100%, 99.234009%, 85.00061%)" fill-opacity="1" d="M 22.957031 36.894531 C 23.617188 35.082031 23.101562 33.230469 21.808594 32.761719 C 20.511719 32.289062 18.925781 33.375 18.269531 35.1875 C 17.609375 37.003906 18.121094 38.855469 19.417969 39.324219 C 20.710938 39.796875 22.296875 38.710938 22.957031 36.894531 Z M 22.957031 36.894531 "/>
<path fill-rule="nonzero" fill="rgb(0%, 0%, 0%)" fill-opacity="1" d="M 22.242188 36.933594 C 22.621094 35.898438 22.503906 34.90625 21.988281 34.71875 C 21.46875 34.527344 20.742188 35.214844 20.367188 36.25 C 19.992188 37.285156 20.105469 38.277344 20.621094 38.464844 C 21.140625 38.65625 21.867188 37.96875 22.242188 36.933594 Z M 22.242188 36.933594 "/>
<path fill-rule="nonzero" fill="rgb(100%, 99.234009%, 85.00061%)" fill-opacity="1" d="M 14.800781 34.746094 C 15.402344 33.085938 14.96875 31.40625 13.828125 30.992188 C 12.6875 30.578125 11.273438 31.585938 10.671875 33.242188 C 10.066406 34.898438 10.503906 36.578125 11.640625 36.996094 C 12.78125 37.410156 14.195312 36.402344 14.800781 34.746094 Z M 14.800781 34.746094 "/>
<path fill-rule="nonzero" fill="rgb(0%, 0%, 0%)" fill-opacity="1" d="M 14.179688 34.816406 C 14.515625 33.882812 14.457031 33.003906 14.042969 32.855469 C 13.625 32.703125 13.015625 33.335938 12.675781 34.269531 C 12.335938 35.203125 12.398438 36.082031 12.8125 36.230469 C 13.226562 36.382812 13.839844 35.75 14.179688 34.816406 Z M 14.179688 34.816406 "/>
<g clip-path="url(#clip-2)">
<path fill-rule="nonzero" fill="rgb(50%, 0%, 50%)" fill-opacity="1" d="M 12.449219 26.851562 L 28.804688 0.230469 L 35.589844 31.679688 "/>
</g>
<g clip-path="url(#clip-3)">
<g clip-path="url(#clip-4)">
<g clip-path="url(#clip-5)">
<path fill-rule="nonzero" fill="rgb(100%, 100%, 84.999084%)" fill-opacity="1" d="M 26.957031 30.960938 L 27.050781 31.882812 L 26.34375 32.484375 L 27.25 32.679688 L 27.601562 33.539062 L 28.070312 32.738281 L 28.996094 32.667969 L 28.375 31.976562 L 28.597656 31.074219 L 27.746094 31.449219 Z M 26.957031 30.960938 "/>
</g>
</g>
</g>
<g clip-path="url(#clip-6)">
<g clip-path="url(#clip-7)">
<g clip-path="url(#clip-8)">
<path fill-rule="nonzero" fill="rgb(100%, 100%, 84.999084%)" fill-opacity="1" d="M 30.988281 28.445312 L 31.078125 29.367188 L 30.371094 29.964844 L 31.277344 30.164062 L 31.628906 31.023438 L 32.097656 30.222656 L 33.023438 30.152344 L 32.40625 29.460938 L 32.625 28.558594 L 31.777344 28.933594 Z M 30.988281 28.445312 "/>
</g>
</g>
</g>
<g clip-path="url(#clip-9)">
<g clip-path="url(#clip-10)">
<g clip-path="url(#clip-11)">
<path fill-rule="nonzero" fill="rgb(100%, 100%, 84.999084%)" fill-opacity="1" d="M 35.015625 25.925781 L 35.109375 26.851562 L 34.402344 27.449219 L 35.308594 27.648438 L 35.660156 28.503906 L 36.125 27.703125 L 37.050781 27.636719 L 36.433594 26.941406 L 36.652344 26.042969 L 35.804688 26.414062 Z M 35.015625 25.925781 "/>
</g>
</g>
</g>
<g clip-path="url(#clip-12)">
<g clip-path="url(#clip-13)">
<g clip-path="url(#clip-14)">
<path fill-rule="nonzero" fill="rgb(100%, 100%, 84.999084%)" fill-opacity="1" d="M 16.382812 31.96875 L 16.476562 32.890625 L 15.769531 33.488281 L 16.675781 33.6875 L 17.027344 34.546875 L 17.496094 33.746094 L 18.421875 33.675781 L 17.800781 32.984375 L 18.023438 32.082031 L 17.171875 32.457031 Z M 16.382812 31.96875 "/>
</g>
</g>
</g>
<g clip-path="url(#clip-15)">
<g clip-path="url(#clip-16)">
<g clip-path="url(#clip-17)">
<path fill-rule="nonzero" fill="rgb(100%, 100%, 84.999084%)" fill-opacity="1" d="M 20.414062 29.449219 L 20.503906 30.375 L 19.796875 30.972656 L 20.703125 31.167969 L 21.054688 32.027344 L 21.523438 31.226562 L 22.449219 31.15625 L 21.832031 30.464844 L 22.050781 29.566406 L 21.203125 29.9375 Z M 20.414062 29.449219 "/>
</g>
</g>
</g>
<g clip-path="url(#clip-18)">
<g clip-path="url(#clip-19)">
<g clip-path="url(#clip-20)">
<path fill-rule="nonzero" fill="rgb(100%, 100%, 84.999084%)" fill-opacity="1" d="M 24.441406 26.933594 L 24.535156 27.855469 L 23.824219 28.457031 L 24.734375 28.652344 L 25.085938 29.511719 L 25.550781 28.710938 L 26.476562 28.640625 L 25.859375 27.949219 L 26.078125 27.046875 L 25.230469 27.421875 Z M 24.441406 26.933594 "/>
</g>
</g>
</g>
<g clip-path="url(#clip-21)">
<g clip-path="url(#clip-22)">
<g clip-path="url(#clip-23)">
<path fill-rule="nonzero" fill="rgb(100%, 100%, 84.999084%)" fill-opacity="1" d="M 28.46875 24.414062 L 28.5625 25.339844 L 27.855469 25.9375 L 28.761719 26.136719 L 29.113281 26.992188 L 29.582031 26.191406 L 30.503906 26.125 L 29.886719 25.429688 L 30.109375 24.53125 L 29.257812 24.902344 Z M 28.46875 24.414062 "/>
</g>
</g>
</g>
<g clip-path="url(#clip-24)">
<g clip-path="url(#clip-25)">
<g clip-path="url(#clip-26)">
<path fill-rule="nonzero" fill="rgb(100%, 100%, 84.999084%)" fill-opacity="1" d="M 32.5 21.898438 L 32.589844 22.820312 L 31.882812 23.421875 L 32.789062 23.617188 L 33.140625 24.476562 L 33.609375 23.675781 L 34.535156 23.605469 L 33.917969 22.914062 L 34.136719 22.011719 L 33.289062 22.386719 Z M 32.5 21.898438 "/>
</g>
</g>
</g>
<g clip-path="url(#clip-27)">
<g clip-path="url(#clip-28)">
<g clip-path="url(#clip-29)">
<path fill-rule="nonzero" fill="rgb(100%, 100%, 84.999084%)" fill-opacity="1" d="M 36.527344 19.378906 L 36.621094 20.304688 L 35.910156 20.902344 L 36.816406 21.101562 L 37.167969 21.960938 L 37.636719 21.15625 L 38.5625 21.089844 L 37.945312 20.398438 L 38.164062 19.496094 L 37.316406 19.867188 Z M 36.527344 19.378906 "/>
</g>
</g>
</g>
<g clip-path="url(#clip-30)">
<g clip-path="url(#clip-31)">
<g clip-path="url(#clip-32)">
<path fill-rule="nonzero" fill="rgb(100%, 100%, 84.999084%)" fill-opacity="1" d="M 13.867188 27.9375 L 13.960938 28.863281 L 13.25 29.460938 L 14.15625 29.660156 L 14.511719 30.515625 L 14.976562 29.714844 L 15.902344 29.648438 L 15.285156 28.953125 L 15.503906 28.054688 L 14.65625 28.425781 Z M 13.867188 27.9375 "/>
</g>
</g>
</g>
<g clip-path="url(#clip-33)">
<g clip-path="url(#clip-34)">
<g clip-path="url(#clip-35)">
<path fill-rule="nonzero" fill="rgb(100%, 100%, 84.999084%)" fill-opacity="1" d="M 17.894531 25.421875 L 17.988281 26.34375 L 17.28125 26.945312 L 18.1875 27.140625 L 18.539062 28 L 19.007812 27.199219 L 19.929688 27.128906 L 19.3125 26.4375 L 19.535156 25.535156 L 18.683594 25.910156 Z M 17.894531 25.421875 "/>
</g>
</g>
</g>
<g clip-path="url(#clip-36)">
<g clip-path="url(#clip-37)">
<g clip-path="url(#clip-38)">
<path fill-rule="nonzero" fill="rgb(100%, 100%, 84.999084%)" fill-opacity="1" d="M 21.925781 22.902344 L 22.015625 23.828125 L 21.308594 24.425781 L 22.214844 24.625 L 22.566406 25.484375 L 23.035156 24.679688 L 23.960938 24.613281 L 23.34375 23.917969 L 23.5625 23.019531 L 22.714844 23.390625 Z M 21.925781 22.902344 "/>
</g>
</g>
</g>
<g clip-path="url(#clip-39)">
<g clip-path="url(#clip-40)">
<g clip-path="url(#clip-41)">
<path fill-rule="nonzero" fill="rgb(100%, 100%, 84.999084%)" fill-opacity="1" d="M 25.953125 20.386719 L 26.046875 21.308594 L 25.335938 21.910156 L 26.242188 22.105469 L 26.59375 22.964844 L 27.0625 22.164062 L 27.988281 22.09375 L 27.371094 21.402344 L 27.589844 20.5 L 26.742188 20.875 Z M 25.953125 20.386719 "/>
</g>
</g>
</g>
<g clip-path="url(#clip-42)">
<g clip-path="url(#clip-43)">
<g clip-path="url(#clip-44)">
<path fill-rule="nonzero" fill="rgb(100%, 100%, 84.999084%)" fill-opacity="1" d="M 29.980469 17.871094 L 30.074219 18.792969 L 29.367188 19.390625 L 30.273438 19.589844 L 30.625 20.449219 L 31.089844 19.648438 L 32.015625 19.578125 L 31.398438 18.886719 L 31.621094 17.984375 L 30.769531 18.359375 Z M 29.980469 17.871094 "/>
</g>
</g>
</g>
<g clip-path="url(#clip-45)">
<g clip-path="url(#clip-46)">
<g clip-path="url(#clip-47)">
<path fill-rule="nonzero" fill="rgb(100%, 100%, 84.999084%)" fill-opacity="1" d="M 34.007812 15.351562 L 34.101562 16.273438 L 33.394531 16.875 L 34.300781 17.070312 L 34.652344 17.929688 L 35.121094 17.128906 L 36.046875 17.058594 L 35.429688 16.367188 L 35.648438 15.464844 L 34.796875 15.839844 Z M 34.007812 15.351562 "/>
</g>
</g>
</g>
<g clip-path="url(#clip-48)">
<g clip-path="url(#clip-49)">
<g clip-path="url(#clip-50)">
<path fill-rule="nonzero" fill="rgb(100%, 100%, 84.999084%)" fill-opacity="1" d="M 11.347656 23.910156 L 11.441406 24.832031 L 10.734375 25.433594 L 11.640625 25.628906 L 11.992188 26.488281 L 12.460938 25.6875 L 13.386719 25.617188 L 12.769531 24.925781 L 12.988281 24.023438 L 12.136719 24.398438 Z M 11.347656 23.910156 "/>
</g>
</g>
</g>
<g clip-path="url(#clip-51)">
<g clip-path="url(#clip-52)">
<g clip-path="url(#clip-53)">
<path fill-rule="nonzero" fill="rgb(100%, 100%, 84.999084%)" fill-opacity="1" d="M 15.378906 21.394531 L 15.472656 22.316406 L 14.761719 22.914062 L 15.667969 23.113281 L 16.019531 23.972656 L 16.488281 23.171875 L 17.414062 23.101562 L 16.796875 22.410156 L 17.015625 21.507812 L 16.167969 21.878906 Z M 15.378906 21.394531 "/>
</g>
</g>
</g>
<g clip-path="url(#clip-54)">
<g clip-path="url(#clip-55)">
<g clip-path="url(#clip-56)">
<path fill-rule="nonzero" fill="rgb(100%, 100%, 84.999084%)" fill-opacity="1" d="M 19.40625 18.875 L 19.5 19.796875 L 18.792969 20.398438 L 19.699219 20.59375 L 20.050781 21.453125 L 20.515625 20.652344 L 21.441406 20.582031 L 20.824219 19.890625 L 21.046875 18.988281 L 20.195312 19.363281 Z M 19.40625 18.875 "/>
</g>
</g>
</g>
<g clip-path="url(#clip-57)">
<g clip-path="url(#clip-58)">
<g clip-path="url(#clip-59)">
<path fill-rule="nonzero" fill="rgb(100%, 100%, 84.999084%)" fill-opacity="1" d="M 23.433594 16.359375 L 23.527344 17.28125 L 22.820312 17.882812 L 23.726562 18.078125 L 24.078125 18.9375 L 24.546875 18.136719 L 25.472656 18.066406 L 24.851562 17.375 L 25.074219 16.472656 L 24.222656 16.847656 Z M 23.433594 16.359375 "/>
</g>
</g>
</g>
<g clip-path="url(#clip-60)">
<g clip-path="url(#clip-61)">
<g clip-path="url(#clip-62)">
<path fill-rule="nonzero" fill="rgb(100%, 100%, 84.999084%)" fill-opacity="1" d="M 27.464844 13.839844 L 27.554688 14.765625 L 26.847656 15.363281 L 27.753906 15.5625 L 28.105469 16.417969 L 28.574219 15.617188 L 29.5 15.550781 L 28.882812 14.855469 L 29.101562 13.957031 L 28.253906 14.328125 Z M 27.464844 13.839844 "/>
</g>
</g>
</g>
<g clip-path="url(#clip-63)">
<g clip-path="url(#clip-64)">
<g clip-path="url(#clip-65)">
<path fill-rule="nonzero" fill="rgb(100%, 100%, 84.999084%)" fill-opacity="1" d="M 31.492188 11.324219 L 31.585938 12.246094 L 30.878906 12.847656 L 31.785156 13.042969 L 32.136719 13.902344 L 32.601562 13.101562 L 33.527344 13.03125 L 32.910156 12.339844 L 33.128906 11.4375 L 32.28125 11.8125 Z M 31.492188 11.324219 "/>
</g>
</g>
</g>
<g clip-path="url(#clip-66)">
<g clip-path="url(#clip-67)">
<g clip-path="url(#clip-68)">
<path fill-rule="nonzero" fill="rgb(100%, 100%, 84.999084%)" fill-opacity="1" d="M 35.519531 8.804688 L 35.613281 9.730469 L 34.90625 10.328125 L 35.8125 10.527344 L 36.164062 11.386719 L 36.632812 10.582031 L 37.554688 10.515625 L 36.9375 9.820312 L 37.160156 8.921875 L 36.308594 9.292969 Z M 35.519531 8.804688 "/>
</g>
</g>
</g>
<g clip-path="url(#clip-69)">
<g clip-path="url(#clip-70)">
<g clip-path="url(#clip-71)">
<path fill-rule="nonzero" fill="rgb(100%, 100%, 84.999084%)" fill-opacity="1" d="M 12.859375 17.363281 L 12.953125 18.289062 L 12.246094 18.886719 L 13.152344 19.085938 L 13.503906 19.941406 L 13.972656 19.140625 L 14.898438 19.074219 L 14.277344 18.378906 L 14.5 17.480469 L 13.648438 17.851562 Z M 12.859375 17.363281 "/>
</g>
</g>
</g>
<g clip-path="url(#clip-72)">
<g clip-path="url(#clip-73)">
<g clip-path="url(#clip-74)">
<path fill-rule="nonzero" fill="rgb(100%, 100%, 84.999084%)" fill-opacity="1" d="M 16.890625 14.847656 L 16.980469 15.769531 L 16.273438 16.371094 L 17.179688 16.566406 L 17.53125 17.425781 L 18 16.625 L 18.925781 16.554688 L 18.308594 15.863281 L 18.527344 14.960938 L 17.679688 15.335938 Z M 16.890625 14.847656 "/>
</g>
</g>
</g>
<g clip-path="url(#clip-75)">
<g clip-path="url(#clip-76)">
<g clip-path="url(#clip-77)">
<path fill-rule="nonzero" fill="rgb(100%, 100%, 84.999084%)" fill-opacity="1" d="M 20.917969 12.328125 L 21.011719 13.253906 L 20.300781 13.851562 L 21.210938 14.050781 L 21.5625 14.910156 L 22.027344 14.105469 L 22.953125 14.039062 L 22.335938 13.34375 L 22.554688 12.445312 L 21.707031 12.816406 Z M 20.917969 12.328125 "/>
</g>
</g>
</g>
<g clip-path="url(#clip-78)">
<g clip-path="url(#clip-79)">
<g clip-path="url(#clip-80)">
<path fill-rule="nonzero" fill="rgb(100%, 100%, 84.999084%)" fill-opacity="1" d="M 24.945312 9.8125 L 25.039062 10.734375 L 24.332031 11.335938 L 25.238281 11.53125 L 25.589844 12.390625 L 26.058594 11.589844 L 26.980469 11.519531 L 26.363281 10.828125 L 26.585938 9.925781 L 25.734375 10.300781 Z M 24.945312 9.8125 "/>
</g>
</g>
</g>
<g clip-path="url(#clip-81)">
<g clip-path="url(#clip-82)">
<g clip-path="url(#clip-83)">
<path fill-rule="nonzero" fill="rgb(100%, 100%, 84.999084%)" fill-opacity="1" d="M 28.976562 7.296875 L 29.066406 8.21875 L 28.359375 8.816406 L 29.265625 9.015625 L 29.617188 9.875 L 30.085938 9.074219 L 31.011719 9.003906 L 30.394531 8.3125 L 30.613281 7.410156 L 29.765625 7.78125 Z M 28.976562 7.296875 "/>
</g>
</g>
</g>
<g clip-path="url(#clip-84)">
<g clip-path="url(#clip-85)">
<g clip-path="url(#clip-86)">
<path fill-rule="nonzero" fill="rgb(100%, 100%, 84.999084%)" fill-opacity="1" d="M 33.003906 4.777344 L 33.097656 5.699219 L 32.386719 6.300781 L 33.292969 6.496094 L 33.644531 7.355469 L 34.113281 6.554688 L 35.039062 6.484375 L 34.421875 5.792969 L 34.640625 4.890625 L 33.792969 5.265625 Z M 33.003906 4.777344 "/>
</g>
</g>
</g>
<g clip-path="url(#clip-87)">
<g clip-path="url(#clip-88)">
<g clip-path="url(#clip-89)">
<path fill-rule="nonzero" fill="rgb(100%, 100%, 84.999084%)" fill-opacity="1" d="M 10.34375 13.335938 L 10.4375 14.257812 L 9.726562 14.859375 L 10.636719 15.054688 L 10.988281 15.914062 L 11.453125 15.113281 L 12.378906 15.042969 L 11.761719 14.351562 L 11.980469 13.449219 L 11.132812 13.824219 Z M 10.34375 13.335938 "/>
</g>
</g>
</g>
<g clip-path="url(#clip-90)">
<g clip-path="url(#clip-91)">
<g clip-path="url(#clip-92)">
<path fill-rule="nonzero" fill="rgb(100%, 100%, 84.999084%)" fill-opacity="1" d="M 14.371094 10.820312 L 14.464844 11.742188 L 13.757812 12.339844 L 14.664062 12.539062 L 15.015625 13.398438 L 15.484375 12.59375 L 16.40625 12.527344 L 15.789062 11.835938 L 16.011719 10.933594 L 15.160156 11.304688 Z M 14.371094 10.820312 "/>
</g>
</g>
</g>
<g clip-path="url(#clip-93)">
<g clip-path="url(#clip-94)">
<g clip-path="url(#clip-95)">
<path fill-rule="nonzero" fill="rgb(100%, 100%, 84.999084%)" fill-opacity="1" d="M 18.402344 8.300781 L 18.492188 9.222656 L 17.785156 9.824219 L 18.691406 10.019531 L 19.042969 10.878906 L 19.511719 10.078125 L 20.4375 10.007812 L 19.820312 9.316406 L 20.039062 8.414062 L 19.191406 8.789062 Z M 18.402344 8.300781 "/>
</g>
</g>
</g>
<g clip-path="url(#clip-96)">
<g clip-path="url(#clip-97)">
<g clip-path="url(#clip-98)">
<path fill-rule="nonzero" fill="rgb(100%, 100%, 84.999084%)" fill-opacity="1" d="M 22.429688 5.785156 L 22.523438 6.707031 L 21.8125 7.304688 L 22.71875 7.503906 L 23.070312 8.363281 L 23.539062 7.5625 L 24.464844 7.492188 L 23.847656 6.800781 L 24.066406 5.898438 L 23.21875 6.273438 Z M 22.429688 5.785156 "/>
</g>
</g>
</g>
<g clip-path="url(#clip-99)">
<g clip-path="url(#clip-100)">
<g clip-path="url(#clip-101)">
<path fill-rule="nonzero" fill="rgb(100%, 100%, 84.999084%)" fill-opacity="1" d="M 26.457031 3.265625 L 26.550781 4.191406 L 25.84375 4.789062 L 26.75 4.988281 L 27.101562 5.84375 L 27.566406 5.042969 L 28.492188 4.976562 L 27.875 4.28125 L 28.097656 3.382812 L 27.246094 3.753906 Z M 26.457031 3.265625 "/>
</g>
</g>
</g>
<g clip-path="url(#clip-102)">
<g clip-path="url(#clip-103)">
<g clip-path="url(#clip-104)">
<path fill-rule="nonzero" fill="rgb(100%, 100%, 84.999084%)" fill-opacity="1" d="M 30.484375 0.75 L 30.578125 1.671875 L 29.871094 2.273438 L 30.777344 2.46875 L 31.128906 3.328125 L 31.597656 2.527344 L 32.523438 2.457031 L 31.90625 1.765625 L 32.125 0.863281 L 31.273438 1.238281 Z M 30.484375 0.75 "/>
</g>
</g>
</g>
<g clip-path="url(#clip-105)">
<g clip-path="url(#clip-106)">
<g clip-path="url(#clip-107)">
<path fill-rule="nonzero" fill="rgb(100%, 100%, 84.999084%)" fill-opacity="1" d="M 34.515625 -1.769531 L 34.609375 -0.84375 L 33.898438 -0.246094 L 34.804688 -0.046875 L 35.15625 0.808594 L 35.625 0.0078125 L 36.550781 -0.0585938 L 35.933594 -0.753906 L 36.152344 -1.652344 L 35.304688 -1.28125 Z M 34.515625 -1.769531 "/>
</g>
</g>
</g>
<g clip-path="url(#clip-108)">
<g clip-path="url(#clip-109)">
<g clip-path="url(#clip-110)">
<path fill-rule="nonzero" fill="rgb(100%, 100%, 84.999084%)" fill-opacity="1" d="M 11.855469 6.789062 L 11.949219 7.714844 L 11.238281 8.3125 L 12.144531 8.511719 L 12.496094 9.367188 L 12.964844 8.566406 L 13.890625 8.5 L 13.273438 7.804688 L 13.492188 6.90625 L 12.644531 7.277344 Z M 11.855469 6.789062 "/>
</g>
</g>
</g>
<g clip-path="url(#clip-111)">
<g clip-path="url(#clip-112)">
<g clip-path="url(#clip-113)">
<path fill-rule="nonzero" fill="rgb(100%, 100%, 84.999084%)" fill-opacity="1" d="M 15.882812 4.273438 L 15.976562 5.195312 L 15.269531 5.796875 L 16.175781 5.992188 L 16.527344 6.851562 L 16.992188 6.050781 L 17.917969 5.980469 L 17.300781 5.289062 L 17.523438 4.386719 L 16.671875 4.761719 Z M 15.882812 4.273438 "/>
</g>
</g>
</g>
<g clip-path="url(#clip-114)">
<g clip-path="url(#clip-115)">
<g clip-path="url(#clip-116)">
<path fill-rule="nonzero" fill="rgb(100%, 100%, 84.999084%)" fill-opacity="1" d="M 19.910156 1.753906 L 20.003906 2.679688 L 19.296875 3.277344 L 20.203125 3.476562 L 20.554688 4.332031 L 21.023438 3.53125 L 21.949219 3.464844 L 21.328125 2.769531 L 21.550781 1.871094 L 20.699219 2.242188 Z M 19.910156 1.753906 "/>
</g>
</g>
</g>
<g clip-path="url(#clip-117)">
<g clip-path="url(#clip-118)">
<g clip-path="url(#clip-119)">
<path fill-rule="nonzero" fill="rgb(100%, 100%, 84.999084%)" fill-opacity="1" d="M 23.941406 -0.761719 L 24.03125 0.160156 L 23.324219 0.761719 L 24.230469 0.957031 L 24.582031 1.816406 L 25.050781 1.015625 L 25.976562 0.945312 L 25.359375 0.253906 L 25.578125 -0.648438 L 24.730469 -0.273438 Z M 23.941406 -0.761719 "/>
</g>
</g>
</g>
<g clip-path="url(#clip-120)">
<g clip-path="url(#clip-121)">
<g clip-path="url(#clip-122)">
<path fill-rule="nonzero" fill="rgb(100%, 100%, 84.999084%)" fill-opacity="1" d="M 13.367188 0.242188 L 13.457031 1.167969 L 12.75 1.765625 L 13.65625 1.964844 L 14.007812 2.824219 L 14.476562 2.019531 L 15.402344 1.953125 L 14.785156 1.261719 L 15.003906 0.359375 L 14.15625 0.730469 Z M 13.367188 0.242188 "/>
</g>
</g>
</g>
<g clip-path="url(#clip-123)">
<g clip-path="url(#clip-124)">
<g clip-path="url(#clip-125)">
<path fill-rule="nonzero" fill="rgb(100%, 100%, 84.999084%)" fill-opacity="1" d="M 17.394531 -2.273438 L 17.488281 -1.351562 L 16.777344 -0.75 L 17.6875 -0.554688 L 18.039062 0.304688 L 18.503906 -0.496094 L 19.429688 -0.566406 L 18.8125 -1.257812 L 19.03125 -2.160156 L 18.183594 -1.785156 Z M 17.394531 -2.273438 "/>
</g>
</g>
</g>
<path fill-rule="nonzero" fill="rgb(50%, 0%, 50%)" fill-opacity="1" d="M 36.800781 66.285156 C 36.800781 63.199219 31.796875 60.695312 25.625 60.695312 C 19.449219 60.695312 14.445312 63.199219 14.445312 66.285156 C 14.445312 69.371094 19.449219 71.875 25.625 71.875 C 31.796875 71.875 36.800781 69.371094 36.800781 66.285156 Z M 36.800781 66.285156 "/>
<path fill-rule="nonzero" fill="rgb(50%, 0%, 50%)" fill-opacity="1" d="M 14.445312 66.285156 L 14.445312 60.695312 L 36.800781 60.695312 L 36.800781 66.285156 Z M 14.445312 66.285156 "/>
<path fill-rule="nonzero" fill="rgb(50%, 0%, 50%)" fill-opacity="1" d="M 36.800781 60.695312 C 36.800781 57.609375 31.796875 55.109375 25.625 55.109375 C 19.449219 55.109375 14.445312 57.609375 14.445312 60.695312 C 14.445312 63.78125 19.449219 66.285156 25.625 66.285156 C 31.796875 66.285156 36.800781 63.78125 36.800781 60.695312 Z M 36.800781 60.695312 "/>
<path fill-rule="nonzero" fill="rgb(75%, 50%, 75%)" fill-opacity="1" d="M 18.636719 59.300781 L 18.636719 53.710938 L 20.035156 53.710938 L 20.035156 59.300781 Z M 18.636719 59.300781 "/>
<path fill-rule="nonzero" fill="rgb(75%, 50%, 75%)" fill-opacity="1" d="M 31.210938 59.300781 L 31.210938 53.710938 L 32.609375 53.710938 L 32.609375 59.300781 Z M 31.210938 59.300781 "/>
<path fill-rule="nonzero" fill="rgb(75%, 50%, 75%)" fill-opacity="1" d="M 24.925781 62.09375 L 24.925781 56.503906 L 26.324219 56.503906 L 26.324219 62.09375 Z M 24.925781 62.09375 "/>
<path fill-rule="nonzero" fill="rgb(100%, 99.234009%, 85.00061%)" fill-opacity="1" d="M 26.460938 54.269531 C 26.460938 53.34375 26.085938 52.59375 25.625 52.59375 C 25.160156 52.59375 24.785156 53.34375 24.785156 54.269531 C 24.785156 55.195312 25.160156 55.945312 25.625 55.945312 C 26.085938 55.945312 26.460938 55.195312 26.460938 54.269531 Z M 26.460938 54.269531 "/>
<path fill-rule="nonzero" fill="rgb(100%, 99.234009%, 85.00061%)" fill-opacity="1" d="M 32.75 51.476562 C 32.75 50.550781 32.375 49.796875 31.910156 49.796875 C 31.449219 49.796875 31.074219 50.550781 31.074219 51.476562 C 31.074219 52.402344 31.449219 53.152344 31.910156 53.152344 C 32.375 53.152344 32.75 52.402344 32.75 51.476562 Z M 32.75 51.476562 "/>
<path fill-rule="nonzero" fill="rgb(100%, 99.234009%, 85.00061%)" fill-opacity="1" d="M 20.175781 51.476562 C 20.175781 50.550781 19.800781 49.796875 19.335938 49.796875 C 18.875 49.796875 18.5 50.550781 18.5 51.476562 C 18.5 52.402344 18.875 53.152344 19.335938 53.152344 C 19.800781 53.152344 20.175781 52.402344 20.175781 51.476562 Z M 20.175781 51.476562 "/>
</svg>
