<?xml version="1.0" encoding="UTF-8"?>
<svg xmlns="http://www.w3.org/2000/svg" xmlns:xlink="http://www.w3.org/1999/xlink" width="117.189" height="63.575" viewBox="0 0 117.189 63.575">
<defs>
<clipPath id="clip-0">
<path clip-rule="nonzero" d="M 0 0.0078125 L 116.382812 0.0078125 L 116.382812 63.144531 L 0 63.144531 Z M 0 0.0078125 "/>
</clipPath>
<clipPath id="clip-1">
<path clip-rule="nonzero" d="M 0 26 L 57 26 L 57 63.144531 L 0 63.144531 Z M 0 26 "/>
</clipPath>
<clipPath id="clip-2">
<path clip-rule="nonzero" d="M 0 26 L 57 26 L 57 63.144531 L 0 63.144531 Z M 0 26 "/>
</clipPath>
<clipPath id="clip-3">
<path clip-rule="nonzero" d="M 0 26 L 57 26 L 57 63.144531 L 0 63.144531 Z M 0 26 "/>
</clipPath>
<clipPath id="clip-4">
<path clip-rule="nonzero" d="M 55 26 L 57 26 L 57 63.144531 L 55 63.144531 Z M 55 26 "/>
</clipPath>
<clipPath id="clip-5">
<path clip-rule="nonzero" d="M 45.324219 33.726562 C 51.601562 34.9375 62.636719 47.464844 50.984375 58.613281 C 39.300781 69.761719 -21.480469 62.300781 7.9375 26.011719 C 34.34375 39.328125 24.210938 27.167969 44.675781 46.253906 Z M 45.324219 33.726562 "/>
</clipPath>
<clipPath id="clip-6">
<path clip-rule="nonzero" d="M 52 26 L 54 26 L 54 63.144531 L 52 63.144531 Z M 52 26 "/>
</clipPath>
<clipPath id="clip-7">
<path clip-rule="nonzero" d="M 45.324219 33.726562 C 51.601562 34.9375 62.636719 47.464844 50.984375 58.613281 C 39.300781 69.761719 -21.480469 62.300781 7.9375 26.011719 C 34.34375 39.328125 24.210938 27.167969 44.675781 46.253906 Z M 45.324219 33.726562 "/>
</clipPath>
<clipPath id="clip-8">
<path clip-rule="nonzero" d="M 50 26 L 51 26 L 51 63.144531 L 50 63.144531 Z M 50 26 "/>
</clipPath>
<clipPath id="clip-9">
<path clip-rule="nonzero" d="M 45.324219 33.726562 C 51.601562 34.9375 62.636719 47.464844 50.984375 58.613281 C 39.300781 69.761719 -21.480469 62.300781 7.9375 26.011719 C 34.34375 39.328125 24.210938 27.167969 44.675781 46.253906 Z M 45.324219 33.726562 "/>
</clipPath>
<clipPath id="clip-10">
<path clip-rule="nonzero" d="M 47 26 L 48 26 L 48 63.144531 L 47 63.144531 Z M 47 26 "/>
</clipPath>
<clipPath id="clip-11">
<path clip-rule="nonzero" d="M 45.324219 33.726562 C 51.601562 34.9375 62.636719 47.464844 50.984375 58.613281 C 39.300781 69.761719 -21.480469 62.300781 7.9375 26.011719 C 34.34375 39.328125 24.210938 27.167969 44.675781 46.253906 Z M 45.324219 33.726562 "/>
</clipPath>
<clipPath id="clip-12">
<path clip-rule="nonzero" d="M 44 26 L 46 26 L 46 63.144531 L 44 63.144531 Z M 44 26 "/>
</clipPath>
<clipPath id="clip-13">
<path clip-rule="nonzero" d="M 45.324219 33.726562 C 51.601562 34.9375 62.636719 47.464844 50.984375 58.613281 C 39.300781 69.761719 -21.480469 62.300781 7.9375 26.011719 C 34.34375 39.328125 24.210938 27.167969 44.675781 46.253906 Z M 45.324219 33.726562 "/>
</clipPath>
<clipPath id="clip-14">
<path clip-rule="nonzero" d="M 41 26 L 43 26 L 43 63.144531 L 41 63.144531 Z M 41 26 "/>
</clipPath>
<clipPath id="clip-15">
<path clip-rule="nonzero" d="M 45.324219 33.726562 C 51.601562 34.9375 62.636719 47.464844 50.984375 58.613281 C 39.300781 69.761719 -21.480469 62.300781 7.9375 26.011719 C 34.34375 39.328125 24.210938 27.167969 44.675781 46.253906 Z M 45.324219 33.726562 "/>
</clipPath>
<clipPath id="clip-16">
<path clip-rule="nonzero" d="M 38 26 L 40 26 L 40 63.144531 L 38 63.144531 Z M 38 26 "/>
</clipPath>
<clipPath id="clip-17">
<path clip-rule="nonzero" d="M 45.324219 33.726562 C 51.601562 34.9375 62.636719 47.464844 50.984375 58.613281 C 39.300781 69.761719 -21.480469 62.300781 7.9375 26.011719 C 34.34375 39.328125 24.210938 27.167969 44.675781 46.253906 Z M 45.324219 33.726562 "/>
</clipPath>
<clipPath id="clip-18">
<path clip-rule="nonzero" d="M 36 26 L 37 26 L 37 63.144531 L 36 63.144531 Z M 36 26 "/>
</clipPath>
<clipPath id="clip-19">
<path clip-rule="nonzero" d="M 45.324219 33.726562 C 51.601562 34.9375 62.636719 47.464844 50.984375 58.613281 C 39.300781 69.761719 -21.480469 62.300781 7.9375 26.011719 C 34.34375 39.328125 24.210938 27.167969 44.675781 46.253906 Z M 45.324219 33.726562 "/>
</clipPath>
<clipPath id="clip-20">
<path clip-rule="nonzero" d="M 33 26 L 34 26 L 34 63.144531 L 33 63.144531 Z M 33 26 "/>
</clipPath>
<clipPath id="clip-21">
<path clip-rule="nonzero" d="M 45.324219 33.726562 C 51.601562 34.9375 62.636719 47.464844 50.984375 58.613281 C 39.300781 69.761719 -21.480469 62.300781 7.9375 26.011719 C 34.34375 39.328125 24.210938 27.167969 44.675781 46.253906 Z M 45.324219 33.726562 "/>
</clipPath>
<clipPath id="clip-22">
<path clip-rule="nonzero" d="M 30 26 L 31 26 L 31 63.144531 L 30 63.144531 Z M 30 26 "/>
</clipPath>
<clipPath id="clip-23">
<path clip-rule="nonzero" d="M 45.324219 33.726562 C 51.601562 34.9375 62.636719 47.464844 50.984375 58.613281 C 39.300781 69.761719 -21.480469 62.300781 7.9375 26.011719 C 34.34375 39.328125 24.210938 27.167969 44.675781 46.253906 Z M 45.324219 33.726562 "/>
</clipPath>
<clipPath id="clip-24">
<path clip-rule="nonzero" d="M 27 26 L 29 26 L 29 63.144531 L 27 63.144531 Z M 27 26 "/>
</clipPath>
<clipPath id="clip-25">
<path clip-rule="nonzero" d="M 45.324219 33.726562 C 51.601562 34.9375 62.636719 47.464844 50.984375 58.613281 C 39.300781 69.761719 -21.480469 62.300781 7.9375 26.011719 C 34.34375 39.328125 24.210938 27.167969 44.675781 46.253906 Z M 45.324219 33.726562 "/>
</clipPath>
<clipPath id="clip-26">
<path clip-rule="nonzero" d="M 24 26 L 26 26 L 26 63.144531 L 24 63.144531 Z M 24 26 "/>
</clipPath>
<clipPath id="clip-27">
<path clip-rule="nonzero" d="M 45.324219 33.726562 C 51.601562 34.9375 62.636719 47.464844 50.984375 58.613281 C 39.300781 69.761719 -21.480469 62.300781 7.9375 26.011719 C 34.34375 39.328125 24.210938 27.167969 44.675781 46.253906 Z M 45.324219 33.726562 "/>
</clipPath>
<clipPath id="clip-28">
<path clip-rule="nonzero" d="M 21 26 L 23 26 L 23 63.144531 L 21 63.144531 Z M 21 26 "/>
</clipPath>
<clipPath id="clip-29">
<path clip-rule="nonzero" d="M 45.324219 33.726562 C 51.601562 34.9375 62.636719 47.464844 50.984375 58.613281 C 39.300781 69.761719 -21.480469 62.300781 7.9375 26.011719 C 34.34375 39.328125 24.210938 27.167969 44.675781 46.253906 Z M 45.324219 33.726562 "/>
</clipPath>
<clipPath id="clip-30">
<path clip-rule="nonzero" d="M 19 26 L 20 26 L 20 63.144531 L 19 63.144531 Z M 19 26 "/>
</clipPath>
<clipPath id="clip-31">
<path clip-rule="nonzero" d="M 45.324219 33.726562 C 51.601562 34.9375 62.636719 47.464844 50.984375 58.613281 C 39.300781 69.761719 -21.480469 62.300781 7.9375 26.011719 C 34.34375 39.328125 24.210938 27.167969 44.675781 46.253906 Z M 45.324219 33.726562 "/>
</clipPath>
<clipPath id="clip-32">
<path clip-rule="nonzero" d="M 16 26 L 17 26 L 17 63.144531 L 16 63.144531 Z M 16 26 "/>
</clipPath>
<clipPath id="clip-33">
<path clip-rule="nonzero" d="M 45.324219 33.726562 C 51.601562 34.9375 62.636719 47.464844 50.984375 58.613281 C 39.300781 69.761719 -21.480469 62.300781 7.9375 26.011719 C 34.34375 39.328125 24.210938 27.167969 44.675781 46.253906 Z M 45.324219 33.726562 "/>
</clipPath>
<clipPath id="clip-34">
<path clip-rule="nonzero" d="M 13 26 L 15 26 L 15 63.144531 L 13 63.144531 Z M 13 26 "/>
</clipPath>
<clipPath id="clip-35">
<path clip-rule="nonzero" d="M 45.324219 33.726562 C 51.601562 34.9375 62.636719 47.464844 50.984375 58.613281 C 39.300781 69.761719 -21.480469 62.300781 7.9375 26.011719 C 34.34375 39.328125 24.210938 27.167969 44.675781 46.253906 Z M 45.324219 33.726562 "/>
</clipPath>
<clipPath id="clip-36">
<path clip-rule="nonzero" d="M 10 26 L 12 26 L 12 63.144531 L 10 63.144531 Z M 10 26 "/>
</clipPath>
<clipPath id="clip-37">
<path clip-rule="nonzero" d="M 45.324219 33.726562 C 51.601562 34.9375 62.636719 47.464844 50.984375 58.613281 C 39.300781 69.761719 -21.480469 62.300781 7.9375 26.011719 C 34.34375 39.328125 24.210938 27.167969 44.675781 46.253906 Z M 45.324219 33.726562 "/>
</clipPath>
<clipPath id="clip-38">
<path clip-rule="nonzero" d="M 7 26 L 9 26 L 9 63.144531 L 7 63.144531 Z M 7 26 "/>
</clipPath>
<clipPath id="clip-39">
<path clip-rule="nonzero" d="M 45.324219 33.726562 C 51.601562 34.9375 62.636719 47.464844 50.984375 58.613281 C 39.300781 69.761719 -21.480469 62.300781 7.9375 26.011719 C 34.34375 39.328125 24.210938 27.167969 44.675781 46.253906 Z M 45.324219 33.726562 "/>
</clipPath>
<clipPath id="clip-40">
<path clip-rule="nonzero" d="M 5 26 L 6 26 L 6 63.144531 L 5 63.144531 Z M 5 26 "/>
</clipPath>
<clipPath id="clip-41">
<path clip-rule="nonzero" d="M 45.324219 33.726562 C 51.601562 34.9375 62.636719 47.464844 50.984375 58.613281 C 39.300781 69.761719 -21.480469 62.300781 7.9375 26.011719 C 34.34375 39.328125 24.210938 27.167969 44.675781 46.253906 Z M 45.324219 33.726562 "/>
</clipPath>
<clipPath id="clip-42">
<path clip-rule="nonzero" d="M 2 26 L 3 26 L 3 63.144531 L 2 63.144531 Z M 2 26 "/>
</clipPath>
<clipPath id="clip-43">
<path clip-rule="nonzero" d="M 45.324219 33.726562 C 51.601562 34.9375 62.636719 47.464844 50.984375 58.613281 C 39.300781 69.761719 -21.480469 62.300781 7.9375 26.011719 C 34.34375 39.328125 24.210938 27.167969 44.675781 46.253906 Z M 45.324219 33.726562 "/>
</clipPath>
<clipPath id="clip-44">
<path clip-rule="nonzero" d="M 19 0.0078125 L 40 0.0078125 L 40 8 L 19 8 Z M 19 0.0078125 "/>
</clipPath>
<clipPath id="clip-45">
<path clip-rule="nonzero" d="M 60 26 L 116.382812 26 L 116.382812 63.144531 L 60 63.144531 Z M 60 26 "/>
</clipPath>
<clipPath id="clip-46">
<path clip-rule="nonzero" d="M 60 26 L 116.382812 26 L 116.382812 63.144531 L 60 63.144531 Z M 60 26 "/>
</clipPath>
</defs>
<g clip-path="url(#clip-0)">
<path fill-rule="nonzero" fill="rgb(89.99939%, 89.99939%, 89.99939%)" fill-opacity="1" d="M 0 63.144531 L 116.382812 63.144531 L 116.382812 0.0078125 L 0 0.0078125 Z M 0 63.144531 "/>
</g>
<g clip-path="url(#clip-1)">
<path fill-rule="nonzero" fill="rgb(78.72467%, 78.72467%, 78.72467%)" fill-opacity="1" d="M 44.675781 33.726562 C 51.601562 34.9375 62.636719 47.464844 50.984375 58.613281 C 39.300781 69.761719 -21.480469 62.300781 7.9375 26.011719 C 32.710938 39.328125 24.210938 27.140625 44.675781 33.726562 Z M 44.675781 33.726562 "/>
</g>
<path fill-rule="nonzero" fill="rgb(78.72467%, 78.72467%, 78.72467%)" fill-opacity="1" d="M 19.707031 23.734375 C 19.707031 14.015625 26.007812 6.136719 33.78125 6.136719 C 41.554688 6.136719 47.859375 14.015625 47.859375 23.734375 C 47.859375 33.449219 41.554688 41.328125 33.78125 41.328125 C 26.007812 41.328125 19.707031 33.449219 19.707031 23.734375 Z M 19.707031 23.734375 "/>
<path fill-rule="nonzero" fill="rgb(57.122803%, 57.122803%, 57.122803%)" fill-opacity="1" d="M 47.6875 24.519531 C 41.015625 22.886719 43.886719 29.277344 33.5 27.394531 C 56.78125 42.03125 51.546875 27.421875 47.6875 24.519531 Z M 47.6875 24.519531 "/>
<path fill-rule="nonzero" fill="rgb(98.348999%, 98.348999%, 98.348999%)" fill-opacity="1" d="M 33.652344 22.277344 C 32.988281 20.449219 33.507812 18.585938 34.8125 18.109375 C 36.117188 17.636719 37.714844 18.730469 38.378906 20.558594 C 39.042969 22.382812 38.523438 24.25 37.21875 24.722656 C 35.914062 25.199219 34.316406 24.105469 33.652344 22.277344 Z M 33.652344 22.277344 "/>
<path fill-rule="nonzero" fill="rgb(0%, 0%, 0%)" fill-opacity="1" d="M 34.375 22.316406 C 33.996094 21.269531 34.109375 20.273438 34.632812 20.082031 C 35.152344 19.890625 35.882812 20.582031 36.261719 21.628906 C 36.644531 22.671875 36.527344 23.667969 36.003906 23.859375 C 35.484375 24.050781 34.753906 23.359375 34.375 22.316406 Z M 34.375 22.316406 "/>
<path fill-rule="nonzero" fill="rgb(98.348999%, 98.348999%, 98.348999%)" fill-opacity="1" d="M 41.871094 20.109375 C 41.265625 18.4375 41.703125 16.746094 42.851562 16.328125 C 44 15.910156 45.421875 16.925781 46.03125 18.597656 C 46.640625 20.265625 46.199219 21.957031 45.050781 22.375 C 43.90625 22.792969 42.480469 21.78125 41.871094 20.109375 Z M 41.871094 20.109375 "/>
<path fill-rule="nonzero" fill="rgb(0%, 0%, 0%)" fill-opacity="1" d="M 42.5 20.179688 C 42.15625 19.242188 42.21875 18.355469 42.636719 18.207031 C 43.054688 18.054688 43.667969 18.691406 44.011719 19.632812 C 44.351562 20.570312 44.292969 21.457031 43.875 21.605469 C 43.457031 21.757812 42.839844 21.121094 42.5 20.179688 Z M 42.5 20.179688 "/>
<g clip-path="url(#clip-2)">
<path fill-rule="nonzero" fill="rgb(100%, 100%, 100%)" fill-opacity="1" d="M 45.324219 33.726562 C 51.601562 34.9375 62.636719 47.464844 50.984375 58.613281 C 39.300781 69.761719 -21.480469 62.300781 7.9375 26.011719 C 32.710938 38.484375 24.210938 29.953125 42.507812 37.808594 Z M 45.324219 33.726562 "/>
</g>
<path fill-rule="nonzero" fill="rgb(54.748535%, 54.748535%, 54.748535%)" fill-opacity="1" d="M 46.210938 48.558594 L 43.574219 36.167969 L 40.546875 36.8125 L 43.179688 49.203125 Z M 46.210938 48.558594 "/>
<g clip-path="url(#clip-3)">
<path fill-rule="nonzero" fill="rgb(27.372742%, 27.372742%, 27.372742%)" fill-opacity="1" d="M 45.324219 33.726562 C 51.601562 34.9375 62.636719 47.464844 50.984375 58.613281 C 39.300781 69.761719 -21.480469 62.300781 7.9375 26.011719 C 34.34375 39.328125 24.210938 27.167969 44.675781 46.253906 Z M 45.324219 33.726562 "/>
</g>
<g clip-path="url(#clip-4)">
<g clip-path="url(#clip-5)">
<path fill-rule="nonzero" fill="rgb(50%, 50%, 50%)" fill-opacity="1" d="M 56.304688 74.40625 L 56.304688 -1.605469 L 55.742188 -1.605469 L 55.742188 74.40625 Z M 56.304688 74.40625 "/>
</g>
</g>
<g clip-path="url(#clip-6)">
<g clip-path="url(#clip-7)">
<path fill-rule="nonzero" fill="rgb(50%, 50%, 50%)" fill-opacity="1" d="M 53.488281 74.40625 L 53.488281 -1.605469 L 52.925781 -1.605469 L 52.925781 74.40625 Z M 53.488281 74.40625 "/>
</g>
</g>
<g clip-path="url(#clip-8)">
<g clip-path="url(#clip-9)">
<path fill-rule="nonzero" fill="rgb(50%, 50%, 50%)" fill-opacity="1" d="M 50.671875 74.40625 L 50.671875 -1.605469 L 50.109375 -1.605469 L 50.109375 74.40625 Z M 50.671875 74.40625 "/>
</g>
</g>
<g clip-path="url(#clip-10)">
<g clip-path="url(#clip-11)">
<path fill-rule="nonzero" fill="rgb(50%, 50%, 50%)" fill-opacity="1" d="M 47.855469 74.40625 L 47.855469 -1.605469 L 47.292969 -1.605469 L 47.292969 74.40625 Z M 47.855469 74.40625 "/>
</g>
</g>
<g clip-path="url(#clip-12)">
<g clip-path="url(#clip-13)">
<path fill-rule="nonzero" fill="rgb(50%, 50%, 50%)" fill-opacity="1" d="M 45.042969 74.40625 L 45.042969 -1.605469 L 44.480469 -1.605469 L 44.480469 74.40625 Z M 45.042969 74.40625 "/>
</g>
</g>
<g clip-path="url(#clip-14)">
<g clip-path="url(#clip-15)">
<path fill-rule="nonzero" fill="rgb(50%, 50%, 50%)" fill-opacity="1" d="M 42.226562 74.40625 L 42.226562 -1.605469 L 41.664062 -1.605469 L 41.664062 74.40625 Z M 42.226562 74.40625 "/>
</g>
</g>
<g clip-path="url(#clip-16)">
<g clip-path="url(#clip-17)">
<path fill-rule="nonzero" fill="rgb(50%, 50%, 50%)" fill-opacity="1" d="M 39.410156 74.40625 L 39.410156 -1.605469 L 38.847656 -1.605469 L 38.847656 74.40625 Z M 39.410156 74.40625 "/>
</g>
</g>
<g clip-path="url(#clip-18)">
<g clip-path="url(#clip-19)">
<path fill-rule="nonzero" fill="rgb(50%, 50%, 50%)" fill-opacity="1" d="M 36.597656 74.40625 L 36.597656 -1.605469 L 36.03125 -1.605469 L 36.03125 74.40625 Z M 36.597656 74.40625 "/>
</g>
</g>
<g clip-path="url(#clip-20)">
<g clip-path="url(#clip-21)">
<path fill-rule="nonzero" fill="rgb(50%, 50%, 50%)" fill-opacity="1" d="M 33.78125 74.40625 L 33.78125 -1.605469 L 33.21875 -1.605469 L 33.21875 74.40625 Z M 33.78125 74.40625 "/>
</g>
</g>
<g clip-path="url(#clip-22)">
<g clip-path="url(#clip-23)">
<path fill-rule="nonzero" fill="rgb(50%, 50%, 50%)" fill-opacity="1" d="M 30.964844 74.40625 L 30.964844 -1.605469 L 30.402344 -1.605469 L 30.402344 74.40625 Z M 30.964844 74.40625 "/>
</g>
</g>
<g clip-path="url(#clip-24)">
<g clip-path="url(#clip-25)">
<path fill-rule="nonzero" fill="rgb(50%, 50%, 50%)" fill-opacity="1" d="M 28.148438 74.40625 L 28.148438 -1.605469 L 27.585938 -1.605469 L 27.585938 74.40625 Z M 28.148438 74.40625 "/>
</g>
</g>
<g clip-path="url(#clip-26)">
<g clip-path="url(#clip-27)">
<path fill-rule="nonzero" fill="rgb(50%, 50%, 50%)" fill-opacity="1" d="M 25.335938 74.40625 L 25.335938 -1.605469 L 24.769531 -1.605469 L 24.769531 74.40625 Z M 25.335938 74.40625 "/>
</g>
</g>
<g clip-path="url(#clip-28)">
<g clip-path="url(#clip-29)">
<path fill-rule="nonzero" fill="rgb(50%, 50%, 50%)" fill-opacity="1" d="M 22.519531 74.40625 L 22.519531 -1.605469 L 21.957031 -1.605469 L 21.957031 74.40625 Z M 22.519531 74.40625 "/>
</g>
</g>
<g clip-path="url(#clip-30)">
<g clip-path="url(#clip-31)">
<path fill-rule="nonzero" fill="rgb(50%, 50%, 50%)" fill-opacity="1" d="M 19.703125 74.40625 L 19.703125 -1.605469 L 19.140625 -1.605469 L 19.140625 74.40625 Z M 19.703125 74.40625 "/>
</g>
</g>
<g clip-path="url(#clip-32)">
<g clip-path="url(#clip-33)">
<path fill-rule="nonzero" fill="rgb(50%, 50%, 50%)" fill-opacity="1" d="M 16.886719 74.40625 L 16.886719 -1.605469 L 16.324219 -1.605469 L 16.324219 74.40625 Z M 16.886719 74.40625 "/>
</g>
</g>
<g clip-path="url(#clip-34)">
<g clip-path="url(#clip-35)">
<path fill-rule="nonzero" fill="rgb(50%, 50%, 50%)" fill-opacity="1" d="M 14.074219 74.40625 L 14.074219 -1.605469 L 13.511719 -1.605469 L 13.511719 74.40625 Z M 14.074219 74.40625 "/>
</g>
</g>
<g clip-path="url(#clip-36)">
<g clip-path="url(#clip-37)">
<path fill-rule="nonzero" fill="rgb(50%, 50%, 50%)" fill-opacity="1" d="M 11.257812 74.40625 L 11.257812 -1.605469 L 10.695312 -1.605469 L 10.695312 74.40625 Z M 11.257812 74.40625 "/>
</g>
</g>
<g clip-path="url(#clip-38)">
<g clip-path="url(#clip-39)">
<path fill-rule="nonzero" fill="rgb(50%, 50%, 50%)" fill-opacity="1" d="M 8.441406 74.40625 L 8.441406 -1.605469 L 7.878906 -1.605469 L 7.878906 74.40625 Z M 8.441406 74.40625 "/>
</g>
</g>
<g clip-path="url(#clip-40)">
<g clip-path="url(#clip-41)">
<path fill-rule="nonzero" fill="rgb(50%, 50%, 50%)" fill-opacity="1" d="M 5.625 74.40625 L 5.625 -1.605469 L 5.0625 -1.605469 L 5.0625 74.40625 Z M 5.625 74.40625 "/>
</g>
</g>
<g clip-path="url(#clip-42)">
<g clip-path="url(#clip-43)">
<path fill-rule="nonzero" fill="rgb(50%, 50%, 50%)" fill-opacity="1" d="M 2.8125 74.40625 L 2.8125 -1.605469 L 2.25 -1.605469 L 2.25 74.40625 Z M 2.8125 74.40625 "/>
</g>
</g>
<path fill-rule="nonzero" fill="rgb(50%, 50%, 50%)" fill-opacity="1" d="M 43.917969 49.070312 C 43.917969 48.292969 44.546875 47.660156 45.324219 47.660156 C 46.101562 47.660156 46.730469 48.292969 46.730469 49.070312 C 46.730469 49.847656 46.101562 50.476562 45.324219 50.476562 C 44.546875 50.476562 43.917969 49.847656 43.917969 49.070312 Z M 44.761719 53.292969 C 44.761719 52.515625 45.390625 51.886719 46.167969 51.886719 C 46.945312 51.886719 47.578125 52.515625 47.578125 53.292969 C 47.578125 54.070312 46.945312 54.699219 46.167969 54.699219 C 45.390625 54.699219 44.761719 54.070312 44.761719 53.292969 Z M 45.042969 57.515625 C 45.042969 56.738281 45.671875 56.109375 46.449219 56.109375 C 47.226562 56.109375 47.859375 56.738281 47.859375 57.515625 C 47.859375 58.292969 47.226562 58.921875 46.449219 58.921875 C 45.671875 58.921875 45.042969 58.292969 45.042969 57.515625 Z M 45.042969 57.515625 "/>
<path fill-rule="nonzero" fill="rgb(27.372742%, 27.372742%, 27.372742%)" fill-opacity="1" d="M 15.535156 16.433594 C 15.132812 14.933594 22.113281 11.757812 31.125 9.34375 C 40.136719 6.929688 47.765625 6.1875 48.167969 7.691406 C 48.570312 9.191406 41.59375 12.367188 32.582031 14.78125 C 23.570312 17.195312 15.9375 17.9375 15.535156 16.433594 Z M 15.535156 16.433594 "/>
<path fill-rule="nonzero" fill="rgb(27.372742%, 27.372742%, 27.372742%)" fill-opacity="1" d="M 41.914062 9.367188 L 39.726562 1.207031 L 19.605469 6.601562 L 21.792969 14.757812 Z M 41.914062 9.367188 "/>
<g clip-path="url(#clip-44)">
<path fill-rule="nonzero" fill="rgb(27.372742%, 27.372742%, 27.372742%)" fill-opacity="1" d="M 19.605469 6.601562 C 19.285156 5.398438 23.527344 3.21875 29.085938 1.730469 C 34.640625 0.238281 39.40625 0.0078125 39.726562 1.207031 C 40.050781 2.410156 35.804688 4.589844 30.25 6.078125 C 24.691406 7.570312 19.925781 7.800781 19.605469 6.601562 Z M 19.605469 6.601562 "/>
</g>
<path fill-rule="nonzero" fill="rgb(25%, 25%, 25%)" fill-opacity="1" d="M 48.890625 23.5 C 42.507812 21.863281 40.402344 26.691406 33.832031 26.664062 C 30.769531 31.054688 52.320312 24.523438 48.890625 23.5 Z M 48.890625 23.5 "/>
<g clip-path="url(#clip-45)">
<path fill-rule="nonzero" fill="rgb(78.72467%, 78.72467%, 78.72467%)" fill-opacity="1" d="M 71.707031 33.726562 C 64.78125 34.9375 53.746094 47.464844 65.402344 58.613281 C 77.082031 69.761719 137.863281 62.300781 108.445312 26.011719 C 83.671875 39.328125 92.171875 27.140625 71.707031 33.726562 Z M 71.707031 33.726562 "/>
</g>
<path fill-rule="nonzero" fill="rgb(78.72467%, 78.72467%, 78.72467%)" fill-opacity="1" d="M 96.675781 23.734375 C 96.675781 14.015625 90.375 6.136719 82.601562 6.136719 C 74.828125 6.136719 68.523438 14.015625 68.523438 23.734375 C 68.523438 33.449219 74.828125 41.328125 82.601562 41.328125 C 90.375 41.328125 96.675781 33.449219 96.675781 23.734375 Z M 96.675781 23.734375 "/>
<path fill-rule="nonzero" fill="rgb(45.698547%, 45.698547%, 45.698547%)" fill-opacity="1" d="M 68.523438 32.179688 C 72.464844 27.675781 75.5625 29.082031 82.882812 27.394531 C 69.933594 36.121094 67.398438 32.742188 68.523438 32.179688 Z M 68.523438 32.179688 "/>
<path fill-rule="nonzero" fill="rgb(57.122803%, 57.122803%, 57.122803%)" fill-opacity="1" d="M 68.808594 24.578125 C 75.28125 22.886719 72.464844 29.363281 82.882812 27.394531 C 56.703125 34.992188 65.148438 27.394531 68.808594 24.578125 Z M 68.808594 24.578125 "/>
<path fill-rule="nonzero" fill="rgb(98.348999%, 98.348999%, 98.348999%)" fill-opacity="1" d="M 82.730469 22.277344 C 83.394531 20.449219 82.875 18.585938 81.570312 18.109375 C 80.265625 17.636719 78.671875 18.730469 78.003906 20.558594 C 77.339844 22.382812 77.859375 24.25 79.164062 24.722656 C 80.46875 25.199219 82.066406 24.105469 82.730469 22.277344 Z M 82.730469 22.277344 "/>
<path fill-rule="nonzero" fill="rgb(0%, 0%, 0%)" fill-opacity="1" d="M 82.007812 22.316406 C 82.390625 21.269531 82.273438 20.273438 81.753906 20.082031 C 81.230469 19.890625 80.5 20.582031 80.121094 21.628906 C 79.742188 22.671875 79.855469 23.667969 80.378906 23.859375 C 80.898438 24.050781 81.628906 23.359375 82.007812 22.316406 Z M 82.007812 22.316406 "/>
<path fill-rule="nonzero" fill="rgb(98.348999%, 98.348999%, 98.348999%)" fill-opacity="1" d="M 74.511719 20.109375 C 75.117188 18.4375 74.679688 16.746094 73.53125 16.328125 C 72.382812 15.910156 70.960938 16.925781 70.351562 18.597656 C 69.746094 20.265625 70.183594 21.957031 71.332031 22.375 C 72.480469 22.792969 73.902344 21.78125 74.511719 20.109375 Z M 74.511719 20.109375 "/>
<path fill-rule="nonzero" fill="rgb(0%, 0%, 0%)" fill-opacity="1" d="M 73.886719 20.179688 C 74.226562 19.242188 74.164062 18.355469 73.746094 18.207031 C 73.328125 18.054688 72.714844 18.691406 72.371094 19.632812 C 72.03125 20.570312 72.09375 21.457031 72.507812 21.605469 C 72.925781 21.757812 73.542969 21.121094 73.886719 20.179688 Z M 73.886719 20.179688 "/>
<g clip-path="url(#clip-46)">
<path fill-rule="nonzero" fill="rgb(0%, 0%, 0%)" fill-opacity="1" d="M 71.058594 33.726562 C 64.78125 34.9375 53.746094 47.464844 65.402344 58.613281 C 77.082031 69.761719 137.863281 62.300781 108.445312 26.011719 C 83.671875 38.484375 92.171875 29.953125 73.875 37.808594 Z M 71.058594 33.726562 "/>
</g>
<path fill-rule="nonzero" fill="rgb(50%, 50%, 50%)" fill-opacity="1" d="M 73.59375 44.847656 C 73.59375 44.070312 72.960938 43.4375 72.183594 43.4375 C 71.40625 43.4375 70.777344 44.070312 70.777344 44.847656 C 70.777344 45.625 71.40625 46.253906 72.183594 46.253906 C 72.960938 46.253906 73.59375 45.625 73.59375 44.847656 Z M 72.75 49.070312 C 72.75 48.292969 72.117188 47.660156 71.339844 47.660156 C 70.5625 47.660156 69.933594 48.292969 69.933594 49.070312 C 69.933594 49.847656 70.5625 50.476562 71.339844 50.476562 C 72.117188 50.476562 72.75 49.847656 72.75 49.070312 Z M 71.902344 53.292969 C 71.902344 52.515625 71.273438 51.886719 70.496094 51.886719 C 69.71875 51.886719 69.089844 52.515625 69.089844 53.292969 C 69.089844 54.070312 69.71875 54.699219 70.496094 54.699219 C 71.273438 54.699219 71.902344 54.070312 71.902344 53.292969 Z M 71.902344 53.292969 "/>
<path fill-rule="nonzero" fill="rgb(0%, 0%, 0%)" fill-opacity="1" d="M 96.675781 16.695312 C 96.675781 8.921875 90.375 2.617188 82.601562 2.617188 C 77.574219 2.617188 72.925781 5.300781 70.410156 9.65625 "/>
<path fill-rule="nonzero" fill="rgb(0%, 0%, 0%)" fill-opacity="1" d="M 100.847656 16.433594 C 101.25 14.933594 94.269531 11.757812 85.257812 9.34375 C 76.25 6.929688 68.617188 6.1875 68.214844 7.691406 C 67.8125 9.191406 74.792969 12.367188 83.800781 14.78125 C 92.8125 17.195312 100.445312 17.9375 100.847656 16.433594 Z M 100.847656 16.433594 "/>
<path fill-rule="nonzero" fill="rgb(100%, 100%, 100%)" fill-opacity="1" d="M 71.929688 40.296875 L 72.808594 36.167969 L 75.835938 36.8125 L 74.957031 40.941406 Z M 71.929688 40.296875 "/>
</svg>
