<?xml version="1.0" encoding="UTF-8"?>
<svg xmlns="http://www.w3.org/2000/svg" xmlns:xlink="http://www.w3.org/1999/xlink" width="57.175" height="66.093" viewBox="0 0 57.175 66.093">
<defs>
<clipPath id="clip-0">
<path clip-rule="nonzero" d="M 0 0.0234375 L 56.363281 0.0234375 L 56.363281 65.175781 L 0 65.175781 Z M 0 0.0234375 "/>
</clipPath>
<clipPath id="clip-1">
<path clip-rule="nonzero" d="M 0 28 L 56.363281 28 L 56.363281 65.175781 L 0 65.175781 Z M 0 28 "/>
</clipPath>
<clipPath id="clip-2">
<path clip-rule="nonzero" d="M 0 28 L 56.363281 28 L 56.363281 65.175781 L 0 65.175781 Z M 0 28 "/>
</clipPath>
<clipPath id="clip-3">
<path clip-rule="nonzero" d="M 18 0.0234375 L 37 0.0234375 L 37 7 L 18 7 Z M 18 0.0234375 "/>
</clipPath>
</defs>
<g clip-path="url(#clip-0)">
<path fill-rule="nonzero" fill="rgb(89.99939%, 89.99939%, 89.99939%)" fill-opacity="1" d="M 0 65.175781 L 56.363281 65.175781 L 56.363281 0.0234375 L 0 0.0234375 Z M 0 65.175781 "/>
</g>
<g clip-path="url(#clip-1)">
<path fill-rule="nonzero" fill="rgb(83.137512%, 71.763611%, 56.861877%)" fill-opacity="1" d="M 12.015625 35.976562 C 5.140625 37.175781 -5.8125 49.613281 5.757812 60.675781 C 17.351562 71.742188 77.683594 64.335938 48.480469 28.320312 C 23.890625 41.535156 32.332031 29.4375 12.015625 35.976562 Z M 12.015625 35.976562 "/>
</g>
<path fill-rule="nonzero" fill="rgb(83.137512%, 71.763611%, 56.861877%)" fill-opacity="1" d="M 36.800781 26.054688 C 36.800781 16.410156 30.546875 8.589844 22.828125 8.589844 C 15.113281 8.589844 8.859375 16.410156 8.859375 26.054688 C 8.859375 35.699219 15.113281 43.519531 22.828125 43.519531 C 30.546875 43.519531 36.800781 35.699219 36.800781 26.054688 Z M 36.800781 26.054688 "/>
<path fill-rule="nonzero" fill="rgb(82.743835%, 53.33252%, 17.254639%)" fill-opacity="1" d="M 9.027344 26.835938 C 15.648438 25.21875 12.796875 31.558594 23.109375 29.6875 C 0 44.21875 5.195312 29.714844 9.027344 26.835938 Z M 9.027344 26.835938 "/>
<path fill-rule="nonzero" fill="rgb(100%, 99.234009%, 85.00061%)" fill-opacity="1" d="M 22.957031 24.609375 C 23.617188 22.796875 23.101562 20.945312 21.808594 20.472656 C 20.511719 20.003906 18.925781 21.089844 18.269531 22.902344 C 17.609375 24.714844 18.121094 26.566406 19.417969 27.039062 C 20.710938 27.511719 22.296875 26.421875 22.957031 24.609375 Z M 22.957031 24.609375 "/>
<path fill-rule="nonzero" fill="rgb(0%, 0%, 0%)" fill-opacity="1" d="M 22.242188 24.648438 C 22.621094 23.613281 22.503906 22.621094 21.988281 22.429688 C 21.46875 22.242188 20.742188 22.929688 20.367188 23.964844 C 19.992188 25 20.105469 25.992188 20.621094 26.179688 C 21.140625 26.367188 21.867188 25.683594 22.242188 24.648438 Z M 22.242188 24.648438 "/>
<path fill-rule="nonzero" fill="rgb(100%, 99.234009%, 85.00061%)" fill-opacity="1" d="M 14.800781 22.457031 C 15.402344 20.800781 14.96875 19.121094 13.828125 18.707031 C 12.6875 18.289062 11.273438 19.296875 10.671875 20.957031 C 10.066406 22.613281 10.503906 24.292969 11.640625 24.707031 C 12.78125 25.125 14.195312 24.117188 14.800781 22.457031 Z M 14.800781 22.457031 "/>
<path fill-rule="nonzero" fill="rgb(0%, 0%, 0%)" fill-opacity="1" d="M 14.179688 22.53125 C 14.515625 21.597656 14.457031 20.71875 14.042969 20.566406 C 13.625 20.417969 13.015625 21.050781 12.675781 21.984375 C 12.335938 22.914062 12.398438 23.792969 12.8125 23.945312 C 13.226562 24.097656 13.839844 23.460938 14.179688 22.53125 Z M 14.179688 22.53125 "/>
<path fill-rule="nonzero" fill="rgb(75%, 75%, 75%)" fill-opacity="1" d="M 24.722656 14.054688 C 14.90625 7.300781 9.128906 16.503906 9.128906 25.960938 C 9.128906 35.417969 12.746094 37.941406 12.746094 37.941406 C 31.804688 32.179688 3.042969 28.097656 24.722656 14.054688 Z M 24.722656 14.054688 "/>
<g clip-path="url(#clip-2)">
<path fill-rule="nonzero" fill="rgb(100%, 100%, 100%)" fill-opacity="1" d="M 11.371094 35.976562 C 5.140625 37.175781 -5.8125 49.613281 5.757812 60.675781 C 17.351562 71.742188 77.683594 64.335938 48.480469 28.320312 C 23.890625 40.699219 32.332031 32.230469 14.167969 40.027344 Z M 11.371094 35.976562 "/>
<path fill-rule="nonzero" fill="rgb(27.059937%, 27.059937%, 27.059937%)" fill-opacity="1" d="M 11.371094 35.976562 C 5.140625 37.175781 -5.8125 49.613281 5.757812 60.675781 C 17.351562 71.742188 77.683594 64.335938 48.480469 28.320312 C 22.269531 41.535156 32.332031 29.464844 12.015625 48.410156 Z M 11.371094 35.976562 "/>
</g>
<path fill-rule="nonzero" fill="rgb(0%, 0%, 0%)" fill-opacity="1" d="M 11.371094 35.976562 C 8.8125 36.394531 7.503906 37.792969 7.503906 37.792969 L 9.597656 39.492188 L 7.460938 40.585938 L 12.015625 48.410156 L 25.871094 42.367188 L 24.359375 40.394531 L 28.960938 40.636719 L 27.921875 36.253906 C 24.550781 37.234375 21.847656 39.1875 12.015625 48.410156 Z M 11.371094 35.976562 "/>
<path fill-rule="nonzero" fill="rgb(0%, 0%, 0%)" fill-opacity="1" d="M 9.925781 36.9375 C 8.8125 38.152344 8.609375 41.328125 9.183594 42.328125 C 11.535156 42.640625 13.46875 41.460938 13.46875 41.460938 L 15.699219 41.710938 C 15.699219 41.710938 16.617188 43.257812 20.148438 43.691406 C 20.9375 42.664062 21.214844 39.953125 20.828125 38.488281 C 19.703125 37.394531 15.945312 39.230469 15.945312 39.230469 L 13.71875 38.980469 C 13.71875 38.980469 12.871094 37.355469 9.925781 36.9375 Z M 9.925781 36.9375 "/>
<path fill-rule="nonzero" fill="rgb(0%, 0%, 0%)" fill-opacity="1" d="M 12.769531 51.203125 C 12.769531 50.433594 12.144531 49.808594 11.371094 49.808594 C 10.601562 49.808594 9.976562 50.433594 9.976562 51.203125 C 9.976562 51.976562 10.601562 52.601562 11.371094 52.601562 C 12.144531 52.601562 12.769531 51.976562 12.769531 51.203125 Z M 11.933594 55.394531 C 11.933594 54.625 11.304688 54 10.535156 54 C 9.761719 54 9.136719 54.625 9.136719 55.394531 C 9.136719 56.167969 9.761719 56.792969 10.535156 56.792969 C 11.304688 56.792969 11.933594 56.167969 11.933594 55.394531 Z M 11.652344 59.585938 C 11.652344 58.816406 11.027344 58.191406 10.253906 58.191406 C 9.484375 58.191406 8.859375 58.816406 8.859375 59.585938 C 8.859375 60.359375 9.484375 60.984375 10.253906 60.984375 C 11.027344 60.984375 11.652344 60.359375 11.652344 59.585938 Z M 11.652344 59.585938 "/>
<path fill-rule="nonzero" fill="rgb(27.059937%, 27.059937%, 27.059937%)" fill-opacity="1" d="M 44.265625 22.59375 C 44.664062 21.101562 35.925781 17.464844 24.746094 14.46875 C 13.5625 11.476562 4.175781 10.253906 3.777344 11.746094 C 3.378906 13.238281 12.117188 16.875 23.296875 19.871094 C 34.480469 22.863281 43.867188 24.085938 44.265625 22.59375 Z M 44.265625 22.59375 "/>
<path fill-rule="nonzero" fill="rgb(27.059937%, 27.059937%, 27.059937%)" fill-opacity="1" d="M 15.207031 13.359375 L 18.460938 1.214844 L 36.816406 6.132812 L 33.558594 18.277344 Z M 15.207031 13.359375 "/>
<g clip-path="url(#clip-3)">
<path fill-rule="nonzero" fill="rgb(27.059937%, 27.059937%, 27.059937%)" fill-opacity="1" d="M 36.816406 6.132812 C 37.132812 4.941406 33.285156 2.871094 28.214844 1.515625 C 23.148438 0.15625 18.78125 0.0234375 18.460938 1.214844 C 18.140625 2.40625 21.992188 4.476562 27.058594 5.832031 C 32.128906 7.191406 36.496094 7.324219 36.816406 6.132812 Z M 36.816406 6.132812 "/>
</g>
<path fill-rule="nonzero" fill="rgb(27.059937%, 27.059937%, 27.059937%)" fill-opacity="1" d="M 4.191406 11.277344 L 44.140625 21.980469 L 34.644531 14.230469 L 16.289062 9.3125 Z M 4.191406 11.277344 "/>
<path fill-rule="nonzero" fill="rgb(27.059937%, 27.059937%, 27.059937%)" fill-opacity="1" d="M 34.644531 14.230469 C 34.964844 13.039062 31.113281 10.96875 26.046875 9.613281 C 20.976562 8.253906 16.609375 8.121094 16.289062 9.3125 C 15.972656 10.503906 19.820312 12.574219 24.890625 13.929688 C 29.957031 15.289062 34.324219 15.421875 34.644531 14.230469 Z M 34.644531 14.230469 "/>
<path fill-rule="nonzero" fill="rgb(27.059937%, 27.059937%, 27.059937%)" fill-opacity="1" d="M 16.289062 9.3125 L 17.015625 6.613281 L 35.367188 11.53125 L 34.644531 14.230469 Z M 16.289062 9.3125 "/>
<path fill-rule="nonzero" fill="rgb(27.059937%, 27.059937%, 27.059937%)" fill-opacity="1" d="M 35.367188 11.53125 C 35.6875 10.339844 31.839844 8.269531 26.769531 6.914062 C 21.703125 5.554688 17.332031 5.421875 17.015625 6.613281 C 16.695312 7.804688 20.542969 9.875 25.613281 11.230469 C 30.679688 12.589844 35.046875 12.722656 35.367188 11.53125 Z M 35.367188 11.53125 "/>
<path fill-rule="nonzero" fill="rgb(82.743835%, 53.33252%, 17.254639%)" fill-opacity="1" d="M 9.027344 26.835938 C 15.648438 25.21875 12.796875 31.558594 23.109375 29.6875 C 0 44.21875 5.195312 29.714844 9.027344 26.835938 Z M 9.027344 26.835938 "/>
<path fill-rule="nonzero" fill="rgb(100%, 99.234009%, 85.00061%)" fill-opacity="1" d="M 14.800781 22.457031 C 15.402344 20.800781 14.96875 19.121094 13.828125 18.707031 C 12.6875 18.289062 11.273438 19.296875 10.671875 20.957031 C 10.066406 22.613281 10.503906 24.292969 11.640625 24.707031 C 12.78125 25.125 14.195312 24.117188 14.800781 22.457031 Z M 14.800781 22.457031 "/>
<path fill-rule="nonzero" fill="rgb(0%, 0%, 0%)" fill-opacity="1" d="M 14.179688 22.53125 C 14.515625 21.597656 14.457031 20.71875 14.042969 20.566406 C 13.625 20.417969 13.015625 21.050781 12.675781 21.984375 C 12.335938 22.914062 12.398438 23.792969 12.8125 23.945312 C 13.226562 24.097656 13.839844 23.460938 14.179688 22.53125 Z M 14.179688 22.53125 "/>
</svg>
