<?xml version="1.0" encoding="UTF-8"?>
<svg xmlns="http://www.w3.org/2000/svg" xmlns:xlink="http://www.w3.org/1999/xlink" width="110.551" height="99.213" viewBox="0 0 110.551 99.213">
<defs>
<clipPath id="clip-0">
<path clip-rule="nonzero" d="M 0.210938 0 L 109.894531 0 L 109.894531 98.433594 L 0.210938 98.433594 Z M 0.210938 0 "/>
</clipPath>
<clipPath id="clip-1">
<path clip-rule="nonzero" d="M 3.023438 2.8125 L 53.648438 2.8125 L 53.648438 47.808594 L 3.023438 47.808594 Z M 3.023438 2.8125 "/>
</clipPath>
<clipPath id="clip-2">
<path clip-rule="nonzero" d="M 6 34 L 53.648438 34 L 53.648438 47.808594 L 6 47.808594 Z M 6 34 "/>
</clipPath>
<clipPath id="clip-3">
<path clip-rule="nonzero" d="M 14 14 L 43 14 L 43 47.808594 L 14 47.808594 Z M 14 14 "/>
</clipPath>
<clipPath id="clip-4">
<path clip-rule="nonzero" d="M 56.460938 2.8125 L 107.082031 2.8125 L 107.082031 47.808594 L 56.460938 47.808594 Z M 56.460938 2.8125 "/>
</clipPath>
<clipPath id="clip-5">
<path clip-rule="nonzero" d="M 59 34 L 107.082031 34 L 107.082031 47.808594 L 59 47.808594 Z M 59 34 "/>
</clipPath>
<clipPath id="clip-6">
<path clip-rule="nonzero" d="M 67 14 L 96 14 L 96 47.808594 L 67 47.808594 Z M 67 14 "/>
</clipPath>
<clipPath id="clip-7">
<path clip-rule="nonzero" d="M 3.023438 50.621094 L 53.648438 50.621094 L 53.648438 95.621094 L 3.023438 95.621094 Z M 3.023438 50.621094 "/>
</clipPath>
<clipPath id="clip-8">
<path clip-rule="nonzero" d="M 6 82 L 53.648438 82 L 53.648438 95.621094 L 6 95.621094 Z M 6 82 "/>
</clipPath>
<clipPath id="clip-9">
<path clip-rule="nonzero" d="M 14 62 L 43 62 L 43 95.621094 L 14 95.621094 Z M 14 62 "/>
</clipPath>
<clipPath id="clip-10">
<path clip-rule="nonzero" d="M 56.460938 50.621094 L 107.082031 50.621094 L 107.082031 95.621094 L 56.460938 95.621094 Z M 56.460938 50.621094 "/>
</clipPath>
<clipPath id="clip-11">
<path clip-rule="nonzero" d="M 59 82 L 107.082031 82 L 107.082031 95.621094 L 59 95.621094 Z M 59 82 "/>
</clipPath>
<clipPath id="clip-12">
<path clip-rule="nonzero" d="M 67 62 L 96 62 L 96 95.621094 L 67 95.621094 Z M 67 62 "/>
</clipPath>
</defs>
<g clip-path="url(#clip-0)">
<path fill-rule="nonzero" fill="rgb(89.99939%, 89.99939%, 89.99939%)" fill-opacity="1" d="M 0.210938 98.433594 L 109.894531 98.433594 L 109.894531 0 L 0.210938 0 Z M 0.210938 98.433594 "/>
<path fill-rule="nonzero" fill="rgb(75%, 75%, 75%)" fill-opacity="1" d="M 0.210938 98.433594 L 0.210938 0 L 109.894531 0 L 109.894531 98.433594 Z M 0.210938 98.433594 "/>
</g>
<g clip-path="url(#clip-1)">
<path fill-rule="nonzero" fill="rgb(100%, 27.059937%, 0%)" fill-opacity="1" d="M 3.023438 47.808594 L 3.023438 2.8125 L 53.648438 2.8125 L 53.648438 47.808594 Z M 3.023438 47.808594 "/>
</g>
<g clip-path="url(#clip-2)">
<path fill-rule="nonzero" fill="rgb(57.647705%, 43.920898%, 85.882568%)" fill-opacity="1" d="M 17.453125 42.324219 C 10.535156 43.535156 -0.492188 56.050781 11.152344 67.1875 C 22.824219 78.324219 83.542969 70.871094 54.152344 34.617188 C 29.40625 47.921875 37.898438 35.746094 17.453125 42.324219 Z M 17.453125 42.324219 "/>
</g>
<g clip-path="url(#clip-3)">
<path fill-rule="nonzero" fill="rgb(57.647705%, 43.920898%, 85.882568%)" fill-opacity="1" d="M 42.398438 32.339844 C 42.398438 22.632812 36.101562 14.765625 28.335938 14.765625 C 20.570312 14.765625 14.273438 22.632812 14.273438 32.339844 C 14.273438 42.050781 20.570312 49.917969 28.335938 49.917969 C 36.101562 49.917969 42.398438 42.050781 42.398438 32.339844 Z M 42.398438 32.339844 "/>
</g>
<path fill-rule="nonzero" fill="rgb(87.5%, 50%, 12.5%)" fill-opacity="1" d="M 14.441406 33.128906 C 21.109375 31.496094 18.238281 37.882812 28.617188 35.996094 C 5.359375 50.621094 10.589844 36.023438 14.441406 33.128906 Z M 14.441406 33.128906 "/>
<path fill-rule="nonzero" fill="rgb(100%, 99.234009%, 85.00061%)" fill-opacity="1" d="M 28.464844 30.886719 C 29.128906 29.0625 28.609375 27.199219 27.308594 26.722656 C 26.003906 26.25 24.410156 27.34375 23.746094 29.167969 C 23.082031 30.992188 23.597656 32.855469 24.902344 33.332031 C 26.207031 33.804688 27.800781 32.710938 28.464844 30.886719 Z M 28.464844 30.886719 "/>
<path fill-rule="nonzero" fill="rgb(0%, 0%, 0%)" fill-opacity="1" d="M 27.746094 30.925781 C 28.125 29.882812 28.007812 28.882812 27.488281 28.695312 C 26.96875 28.503906 26.238281 29.195312 25.859375 30.238281 C 25.480469 31.28125 25.59375 32.277344 26.113281 32.46875 C 26.636719 32.65625 27.367188 31.964844 27.746094 30.925781 Z M 27.746094 30.925781 "/>
<path fill-rule="nonzero" fill="rgb(100%, 99.234009%, 85.00061%)" fill-opacity="1" d="M 20.253906 28.722656 C 20.859375 27.054688 20.421875 25.363281 19.277344 24.945312 C 18.128906 24.527344 16.707031 25.539062 16.097656 27.210938 C 15.492188 28.878906 15.929688 30.570312 17.078125 30.984375 C 18.222656 31.402344 19.648438 30.390625 20.253906 28.722656 Z M 20.253906 28.722656 "/>
<path fill-rule="nonzero" fill="rgb(0%, 0%, 0%)" fill-opacity="1" d="M 19.628906 28.792969 C 19.96875 27.855469 19.910156 26.972656 19.492188 26.820312 C 19.074219 26.667969 18.457031 27.304688 18.117188 28.242188 C 17.777344 29.183594 17.835938 30.066406 18.253906 30.21875 C 18.671875 30.371094 19.289062 29.730469 19.628906 28.792969 Z M 19.628906 28.792969 "/>
<path fill-rule="nonzero" fill="rgb(95.684814%, 64.312744%, 37.644958%)" fill-opacity="1" d="M 8.585938 21.027344 C 10.429688 16.59375 16.578125 16.742188 16.28125 15.808594 C 16.09375 12.355469 10.101562 11.550781 10.101562 11.550781 C 15.265625 10.03125 23.914062 20.238281 19.175781 7.351562 C 19.945312 8.0625 26.386719 13.386719 25.753906 6.339844 C 26.285156 10.164062 28.882812 11.53125 30.960938 10.761719 C 33.4375 -0.261719 30.269531 18.183594 40.570312 8.113281 C 41.433594 9.019531 35.722656 15.347656 40.777344 14.378906 C 39.871094 23.027344 45.347656 10.902344 45.347656 10.902344 C 45.347656 10.902344 44.296875 16.894531 43.207031 19.515625 C 43.207031 19.515625 50.355469 19.769531 51.335938 21.589844 C 36.566406 23.753906 59.722656 25.9375 44.992188 25.941406 C 46.238281 27.601562 39.621094 29.503906 49.429688 29.679688 C 27.875 30.101562 38.921875 20.46875 28.214844 17.035156 C 18.539062 15.585938 17.726562 22.421875 16.230469 24.007812 C 16.59375 19.386719 13.152344 20.824219 8.585938 21.027344 Z M 8.585938 21.027344 "/>
<path fill-rule="nonzero" fill="rgb(0%, 100%, 49.804688%)" fill-opacity="1" d="M 29.121094 29.570312 L 29.449219 28.496094 L 39.671875 31.617188 L 39.339844 32.695312 Z M 29.121094 29.570312 "/>
<path fill-rule="nonzero" fill="rgb(0%, 100%, 49.804688%)" fill-opacity="1" d="M 21.054688 27.101562 L 21.382812 26.027344 L 24.070312 26.851562 L 23.742188 27.925781 Z M 21.054688 27.101562 "/>
<path fill-rule="evenodd" fill="rgb(0%, 100%, 49.804688%)" fill-opacity="1" d="M 29.804688 31.375 C 30.546875 29.332031 29.496094 27.070312 27.453125 26.328125 C 25.40625 25.585938 23.148438 26.636719 22.40625 28.679688 C 21.660156 30.726562 22.714844 32.984375 24.757812 33.726562 C 26.800781 34.472656 29.0625 33.417969 29.804688 31.375 Z M 29.011719 31.085938 C 29.597656 29.480469 28.769531 27.707031 27.164062 27.121094 C 25.558594 26.535156 23.78125 27.363281 23.199219 28.96875 C 22.613281 30.574219 23.441406 32.351562 25.046875 32.933594 C 26.652344 33.519531 28.425781 32.691406 29.011719 31.085938 Z M 29.011719 31.085938 "/>
<path fill-rule="evenodd" fill="rgb(0%, 100%, 49.804688%)" fill-opacity="1" d="M 21.613281 29.214844 C 22.304688 27.316406 21.324219 25.21875 19.425781 24.53125 C 17.53125 23.839844 15.429688 24.816406 14.742188 26.714844 C 14.050781 28.613281 15.027344 30.710938 16.925781 31.402344 C 18.824219 32.089844 20.921875 31.113281 21.613281 29.214844 Z M 20.6875 28.878906 C 21.191406 27.492188 20.476562 25.960938 19.089844 25.453125 C 17.703125 24.949219 16.171875 25.664062 15.664062 27.050781 C 15.160156 28.4375 15.875 29.972656 17.261719 30.476562 C 18.648438 30.980469 20.183594 30.265625 20.6875 28.878906 Z M 20.6875 28.878906 "/>
<g clip-path="url(#clip-4)">
<path fill-rule="nonzero" fill="rgb(97.645569%, 81.176758%, 81.176758%)" fill-opacity="1" d="M 56.460938 47.808594 L 56.460938 2.8125 L 107.082031 2.8125 L 107.082031 47.808594 Z M 56.460938 47.808594 "/>
</g>
<g clip-path="url(#clip-5)">
<path fill-rule="nonzero" fill="rgb(69.018555%, 87.841797%, 90.194702%)" fill-opacity="1" d="M 70.886719 42.324219 C 63.96875 43.535156 52.945312 56.050781 64.585938 67.1875 C 76.257812 78.324219 136.976562 70.871094 107.589844 34.617188 C 82.839844 47.921875 91.332031 35.746094 70.886719 42.324219 Z M 70.886719 42.324219 "/>
</g>
<g clip-path="url(#clip-6)">
<path fill-rule="nonzero" fill="rgb(69.018555%, 87.841797%, 90.194702%)" fill-opacity="1" d="M 95.832031 32.339844 C 95.832031 22.632812 89.539062 14.765625 81.769531 14.765625 C 74.003906 14.765625 67.710938 22.632812 67.710938 32.339844 C 67.710938 42.050781 74.003906 49.917969 81.769531 49.917969 C 89.539062 49.917969 95.832031 42.050781 95.832031 32.339844 Z M 95.832031 32.339844 "/>
</g>
<path fill-rule="nonzero" fill="rgb(87.5%, 50%, 12.5%)" fill-opacity="1" d="M 67.878906 33.128906 C 74.542969 31.496094 71.675781 37.882812 82.050781 35.996094 C 58.792969 50.621094 64.023438 36.023438 67.878906 33.128906 Z M 67.878906 33.128906 "/>
<path fill-rule="nonzero" fill="rgb(100%, 99.234009%, 85.00061%)" fill-opacity="1" d="M 81.898438 30.886719 C 82.5625 29.0625 82.046875 27.199219 80.742188 26.722656 C 79.4375 26.25 77.84375 27.34375 77.179688 29.167969 C 76.515625 30.992188 77.035156 32.855469 78.335938 33.332031 C 79.640625 33.804688 81.234375 32.710938 81.898438 30.886719 Z M 81.898438 30.886719 "/>
<path fill-rule="nonzero" fill="rgb(0%, 0%, 0%)" fill-opacity="1" d="M 81.179688 30.925781 C 81.558594 29.882812 81.445312 28.882812 80.921875 28.695312 C 80.402344 28.503906 79.671875 29.195312 79.292969 30.238281 C 78.914062 31.28125 79.027344 32.277344 79.550781 32.46875 C 80.070312 32.65625 80.800781 31.964844 81.179688 30.925781 Z M 81.179688 30.925781 "/>
<path fill-rule="nonzero" fill="rgb(100%, 99.234009%, 85.00061%)" fill-opacity="1" d="M 73.6875 28.722656 C 74.296875 27.054688 73.859375 25.363281 72.710938 24.945312 C 71.5625 24.527344 70.140625 25.539062 69.535156 27.210938 C 68.925781 28.878906 69.363281 30.570312 70.511719 30.984375 C 71.660156 31.402344 73.082031 30.390625 73.6875 28.722656 Z M 73.6875 28.722656 "/>
<path fill-rule="nonzero" fill="rgb(0%, 0%, 0%)" fill-opacity="1" d="M 73.0625 28.792969 C 73.40625 27.855469 73.34375 26.972656 72.925781 26.820312 C 72.507812 26.667969 71.894531 27.304688 71.550781 28.242188 C 71.210938 29.183594 71.273438 30.066406 71.691406 30.21875 C 72.105469 30.371094 72.722656 29.730469 73.0625 28.792969 Z M 73.0625 28.792969 "/>
<path fill-rule="nonzero" fill="rgb(100%, 84.313965%, 3.529358%)" fill-opacity="1" d="M 62.019531 21.027344 C 63.863281 16.59375 70.011719 16.742188 69.714844 15.808594 C 69.527344 12.355469 63.535156 11.550781 63.535156 11.550781 C 68.699219 10.03125 77.347656 20.238281 72.609375 7.351562 C 73.382812 8.0625 79.824219 13.386719 79.1875 6.339844 C 79.722656 10.164062 82.320312 11.53125 84.394531 10.761719 C 86.871094 -0.261719 83.707031 18.183594 94.003906 8.113281 C 94.867188 9.019531 89.160156 15.347656 94.214844 14.378906 C 93.308594 23.027344 98.78125 10.902344 98.78125 10.902344 C 98.78125 10.902344 97.730469 16.894531 96.640625 19.515625 C 96.640625 19.515625 103.792969 19.769531 104.769531 21.589844 C 90 23.753906 113.15625 25.9375 98.429688 25.941406 C 99.675781 27.601562 93.058594 29.503906 102.863281 29.679688 C 81.308594 30.101562 92.355469 20.46875 81.652344 17.035156 C 71.972656 15.585938 71.164062 22.421875 69.664062 24.007812 C 70.03125 19.386719 66.585938 20.824219 62.019531 21.027344 Z M 62.019531 21.027344 "/>
<path fill-rule="nonzero" fill="rgb(100%, 0%, 0%)" fill-opacity="1" d="M 82.554688 29.570312 L 82.886719 28.496094 L 93.105469 31.617188 L 92.777344 32.695312 Z M 82.554688 29.570312 "/>
<path fill-rule="nonzero" fill="rgb(100%, 0%, 0%)" fill-opacity="1" d="M 74.488281 27.101562 L 74.816406 26.027344 L 77.507812 26.851562 L 77.175781 27.925781 Z M 74.488281 27.101562 "/>
<path fill-rule="evenodd" fill="rgb(100%, 0%, 0%)" fill-opacity="1" d="M 83.238281 31.375 C 83.984375 29.332031 82.929688 27.070312 80.886719 26.328125 C 78.84375 25.585938 76.582031 26.636719 75.839844 28.679688 C 75.097656 30.726562 76.148438 32.984375 78.191406 33.726562 C 80.238281 34.472656 82.496094 33.417969 83.238281 31.375 Z M 82.445312 31.085938 C 83.03125 29.480469 82.203125 27.707031 80.597656 27.121094 C 78.992188 26.535156 77.21875 27.363281 76.632812 28.96875 C 76.046875 30.574219 76.875 32.351562 78.480469 32.933594 C 80.085938 33.519531 81.863281 32.691406 82.445312 31.085938 Z M 82.445312 31.085938 "/>
<path fill-rule="evenodd" fill="rgb(100%, 0%, 0%)" fill-opacity="1" d="M 75.046875 29.214844 C 75.738281 27.316406 74.757812 25.21875 72.863281 24.53125 C 70.964844 23.839844 68.867188 24.816406 68.175781 26.714844 C 67.484375 28.613281 68.464844 30.710938 70.359375 31.402344 C 72.257812 32.089844 74.355469 31.113281 75.046875 29.214844 Z M 74.121094 28.878906 C 74.625 27.492188 73.910156 25.960938 72.523438 25.453125 C 71.136719 24.949219 69.605469 25.664062 69.101562 27.050781 C 68.597656 28.4375 69.3125 29.972656 70.699219 30.476562 C 72.085938 30.980469 73.617188 30.265625 74.121094 28.878906 Z M 74.121094 28.878906 "/>
<g clip-path="url(#clip-7)">
<path fill-rule="nonzero" fill="rgb(11.764526%, 56.469727%, 100%)" fill-opacity="1" d="M 3.023438 95.621094 L 3.023438 50.621094 L 53.648438 50.621094 L 53.648438 95.621094 Z M 3.023438 95.621094 "/>
</g>
<g clip-path="url(#clip-8)">
<path fill-rule="nonzero" fill="rgb(92.939758%, 83.137512%, 14.509583%)" fill-opacity="1" d="M 17.453125 90.136719 C 10.535156 91.34375 -0.492188 103.859375 11.152344 114.996094 C 22.824219 126.132812 83.542969 118.679688 54.152344 82.429688 C 29.40625 95.730469 37.898438 83.554688 17.453125 90.136719 Z M 17.453125 90.136719 "/>
</g>
<g clip-path="url(#clip-9)">
<path fill-rule="nonzero" fill="rgb(92.939758%, 83.137512%, 14.509583%)" fill-opacity="1" d="M 42.398438 80.152344 C 42.398438 70.445312 36.101562 62.574219 28.335938 62.574219 C 20.570312 62.574219 14.273438 70.445312 14.273438 80.152344 C 14.273438 89.859375 20.570312 97.730469 28.335938 97.730469 C 36.101562 97.730469 42.398438 89.859375 42.398438 80.152344 Z M 42.398438 80.152344 "/>
</g>
<path fill-rule="nonzero" fill="rgb(87.5%, 50%, 12.5%)" fill-opacity="1" d="M 14.441406 80.9375 C 21.109375 79.308594 18.238281 85.691406 28.617188 83.808594 C 5.359375 98.433594 10.589844 83.835938 14.441406 80.9375 Z M 14.441406 80.9375 "/>
<path fill-rule="nonzero" fill="rgb(100%, 99.234009%, 85.00061%)" fill-opacity="1" d="M 28.464844 78.695312 C 29.128906 76.871094 28.609375 75.007812 27.308594 74.535156 C 26.003906 74.058594 24.410156 75.15625 23.746094 76.980469 C 23.082031 78.804688 23.597656 80.667969 24.902344 81.140625 C 26.207031 81.617188 27.800781 80.523438 28.464844 78.695312 Z M 28.464844 78.695312 "/>
<path fill-rule="nonzero" fill="rgb(0%, 0%, 0%)" fill-opacity="1" d="M 27.746094 78.734375 C 28.125 77.691406 28.007812 76.695312 27.488281 76.503906 C 26.96875 76.316406 26.238281 77.003906 25.859375 78.046875 C 25.480469 79.089844 25.59375 80.089844 26.113281 80.277344 C 26.636719 80.46875 27.367188 79.777344 27.746094 78.734375 Z M 27.746094 78.734375 "/>
<path fill-rule="nonzero" fill="rgb(100%, 99.234009%, 85.00061%)" fill-opacity="1" d="M 20.253906 76.53125 C 20.859375 74.863281 20.421875 73.171875 19.277344 72.753906 C 18.128906 72.335938 16.707031 73.351562 16.097656 75.019531 C 15.492188 76.6875 15.929688 78.378906 17.078125 78.796875 C 18.222656 79.214844 19.648438 78.199219 20.253906 76.53125 Z M 20.253906 76.53125 "/>
<path fill-rule="nonzero" fill="rgb(0%, 0%, 0%)" fill-opacity="1" d="M 19.628906 76.605469 C 19.96875 75.664062 19.910156 74.78125 19.492188 74.628906 C 19.074219 74.476562 18.457031 75.113281 18.117188 76.054688 C 17.777344 76.992188 17.835938 77.875 18.253906 78.027344 C 18.671875 78.179688 19.289062 77.542969 19.628906 76.605469 Z M 19.628906 76.605469 "/>
<path fill-rule="nonzero" fill="rgb(100%, 54.902649%, 0%)" fill-opacity="1" d="M 8.585938 68.835938 C 10.429688 64.40625 16.578125 64.550781 16.28125 63.617188 C 16.09375 60.167969 10.101562 59.363281 10.101562 59.363281 C 15.265625 57.839844 23.914062 68.046875 19.175781 55.164062 C 19.945312 55.871094 26.386719 61.199219 25.753906 54.152344 C 26.285156 57.976562 28.882812 59.339844 30.960938 58.570312 C 33.4375 47.546875 30.269531 65.992188 40.570312 55.921875 C 41.433594 56.832031 35.722656 63.15625 40.777344 62.1875 C 39.871094 70.835938 45.347656 58.710938 45.347656 58.710938 C 45.347656 58.710938 44.296875 64.703125 43.207031 67.328125 C 43.207031 67.328125 50.355469 67.578125 51.335938 69.398438 C 36.566406 71.5625 59.722656 73.746094 44.992188 73.753906 C 46.238281 75.414062 39.621094 77.3125 49.429688 77.492188 C 27.875 77.910156 38.921875 68.28125 28.214844 64.847656 C 18.539062 63.394531 17.726562 70.230469 16.230469 71.820312 C 16.59375 67.195312 13.152344 68.636719 8.585938 68.835938 Z M 8.585938 68.835938 "/>
<path fill-rule="nonzero" fill="rgb(100%, 0%, 100%)" fill-opacity="1" d="M 29.121094 77.378906 L 29.449219 76.304688 L 39.671875 79.429688 L 39.339844 80.503906 Z M 29.121094 77.378906 "/>
<path fill-rule="nonzero" fill="rgb(100%, 0%, 100%)" fill-opacity="1" d="M 21.054688 74.914062 L 21.382812 73.835938 L 24.070312 74.660156 L 23.742188 75.734375 Z M 21.054688 74.914062 "/>
<path fill-rule="evenodd" fill="rgb(100%, 0%, 100%)" fill-opacity="1" d="M 29.804688 79.183594 C 30.546875 77.140625 29.496094 74.882812 27.453125 74.136719 C 25.40625 73.394531 23.148438 74.449219 22.40625 76.492188 C 21.660156 78.535156 22.714844 80.792969 24.757812 81.539062 C 26.800781 82.28125 29.0625 81.226562 29.804688 79.183594 Z M 29.011719 78.894531 C 29.597656 77.289062 28.769531 75.515625 27.164062 74.929688 C 25.558594 74.347656 23.78125 75.175781 23.199219 76.78125 C 22.613281 78.386719 23.441406 80.160156 25.046875 80.746094 C 26.652344 81.328125 28.425781 80.5 29.011719 78.894531 Z M 29.011719 78.894531 "/>
<path fill-rule="evenodd" fill="rgb(100%, 0%, 100%)" fill-opacity="1" d="M 21.613281 77.027344 C 22.304688 75.128906 21.324219 73.03125 19.425781 72.339844 C 17.53125 71.648438 15.429688 72.628906 14.742188 74.523438 C 14.050781 76.421875 15.027344 78.519531 16.925781 79.210938 C 18.824219 79.902344 20.921875 78.921875 21.613281 77.027344 Z M 20.6875 76.6875 C 21.191406 75.300781 20.476562 73.769531 19.089844 73.265625 C 17.703125 72.761719 16.171875 73.476562 15.664062 74.863281 C 15.160156 76.25 15.875 77.78125 17.261719 78.285156 C 18.648438 78.789062 20.183594 78.074219 20.6875 76.6875 Z M 20.6875 76.6875 "/>
<g clip-path="url(#clip-10)">
<path fill-rule="nonzero" fill="rgb(58.036804%, 95.684814%, 0%)" fill-opacity="1" d="M 56.460938 95.621094 L 56.460938 50.621094 L 107.082031 50.621094 L 107.082031 95.621094 Z M 56.460938 95.621094 "/>
</g>
<g clip-path="url(#clip-11)">
<path fill-rule="nonzero" fill="rgb(0%, 39.216614%, 0%)" fill-opacity="1" d="M 70.886719 90.136719 C 63.96875 91.34375 52.945312 103.859375 64.585938 114.996094 C 76.257812 126.132812 136.976562 118.679688 107.589844 82.429688 C 82.839844 95.730469 91.332031 83.554688 70.886719 90.136719 Z M 70.886719 90.136719 "/>
</g>
<g clip-path="url(#clip-12)">
<path fill-rule="nonzero" fill="rgb(0%, 39.216614%, 0%)" fill-opacity="1" d="M 95.832031 80.152344 C 95.832031 70.445312 89.539062 62.574219 81.769531 62.574219 C 74.003906 62.574219 67.710938 70.445312 67.710938 80.152344 C 67.710938 89.859375 74.003906 97.730469 81.769531 97.730469 C 89.539062 97.730469 95.832031 89.859375 95.832031 80.152344 Z M 95.832031 80.152344 "/>
</g>
<path fill-rule="nonzero" fill="rgb(87.5%, 50%, 12.5%)" fill-opacity="1" d="M 67.878906 80.9375 C 74.542969 79.308594 71.675781 85.691406 82.050781 83.808594 C 58.792969 98.433594 64.023438 83.835938 67.878906 80.9375 Z M 67.878906 80.9375 "/>
<path fill-rule="nonzero" fill="rgb(100%, 99.234009%, 85.00061%)" fill-opacity="1" d="M 81.898438 78.695312 C 82.5625 76.871094 82.046875 75.007812 80.742188 74.535156 C 79.4375 74.058594 77.84375 75.15625 77.179688 76.980469 C 76.515625 78.804688 77.035156 80.667969 78.335938 81.140625 C 79.640625 81.617188 81.234375 80.523438 81.898438 78.695312 Z M 81.898438 78.695312 "/>
<path fill-rule="nonzero" fill="rgb(0%, 0%, 0%)" fill-opacity="1" d="M 81.179688 78.734375 C 81.558594 77.691406 81.445312 76.695312 80.921875 76.503906 C 80.402344 76.316406 79.671875 77.003906 79.292969 78.046875 C 78.914062 79.089844 79.027344 80.089844 79.550781 80.277344 C 80.070312 80.46875 80.800781 79.777344 81.179688 78.734375 Z M 81.179688 78.734375 "/>
<path fill-rule="nonzero" fill="rgb(100%, 99.234009%, 85.00061%)" fill-opacity="1" d="M 73.6875 76.53125 C 74.296875 74.863281 73.859375 73.171875 72.710938 72.753906 C 71.5625 72.335938 70.140625 73.351562 69.535156 75.019531 C 68.925781 76.6875 69.363281 78.378906 70.511719 78.796875 C 71.660156 79.214844 73.082031 78.199219 73.6875 76.53125 Z M 73.6875 76.53125 "/>
<path fill-rule="nonzero" fill="rgb(0%, 0%, 0%)" fill-opacity="1" d="M 73.0625 76.605469 C 73.40625 75.664062 73.34375 74.78125 72.925781 74.628906 C 72.507812 74.476562 71.894531 75.113281 71.550781 76.054688 C 71.210938 76.992188 71.273438 77.875 71.691406 78.027344 C 72.105469 78.179688 72.722656 77.542969 73.0625 76.605469 Z M 73.0625 76.605469 "/>
<path fill-rule="nonzero" fill="rgb(100%, 0%, 0%)" fill-opacity="1" d="M 62.019531 68.835938 C 63.863281 64.40625 70.011719 64.550781 69.714844 63.617188 C 69.527344 60.167969 63.535156 59.363281 63.535156 59.363281 C 68.699219 57.839844 77.347656 68.046875 72.609375 55.164062 C 73.382812 55.871094 79.824219 61.199219 79.1875 54.152344 C 79.722656 57.976562 82.320312 59.339844 84.394531 58.570312 C 86.871094 47.546875 83.707031 65.992188 94.003906 55.921875 C 94.867188 56.832031 89.160156 63.15625 94.214844 62.1875 C 93.308594 70.835938 98.78125 58.710938 98.78125 58.710938 C 98.78125 58.710938 97.730469 64.703125 96.640625 67.328125 C 96.640625 67.328125 103.792969 67.578125 104.769531 69.398438 C 90 71.5625 113.15625 73.746094 98.429688 73.753906 C 99.675781 75.414062 93.058594 77.3125 102.863281 77.492188 C 81.308594 77.910156 92.355469 68.28125 81.652344 64.847656 C 71.972656 63.394531 71.164062 70.230469 69.664062 71.820312 C 70.03125 67.195312 66.585938 68.636719 62.019531 68.835938 Z M 62.019531 68.835938 "/>
<path fill-rule="nonzero" fill="rgb(68.624878%, 93.331909%, 93.331909%)" fill-opacity="1" d="M 82.554688 77.378906 L 82.886719 76.304688 L 93.105469 79.429688 L 92.777344 80.503906 Z M 82.554688 77.378906 "/>
<path fill-rule="nonzero" fill="rgb(68.624878%, 93.331909%, 93.331909%)" fill-opacity="1" d="M 74.488281 74.914062 L 74.816406 73.835938 L 77.507812 74.660156 L 77.175781 75.734375 Z M 74.488281 74.914062 "/>
<path fill-rule="evenodd" fill="rgb(68.624878%, 93.331909%, 93.331909%)" fill-opacity="1" d="M 83.238281 79.183594 C 83.984375 77.140625 82.929688 74.882812 80.886719 74.136719 C 78.84375 73.394531 76.582031 74.449219 75.839844 76.492188 C 75.097656 78.535156 76.148438 80.792969 78.191406 81.539062 C 80.238281 82.28125 82.496094 81.226562 83.238281 79.183594 Z M 82.445312 78.894531 C 83.03125 77.289062 82.203125 75.515625 80.597656 74.929688 C 78.992188 74.347656 77.21875 75.175781 76.632812 76.78125 C 76.046875 78.386719 76.875 80.160156 78.480469 80.746094 C 80.085938 81.328125 81.863281 80.5 82.445312 78.894531 Z M 82.445312 78.894531 "/>
<path fill-rule="evenodd" fill="rgb(68.624878%, 93.331909%, 93.331909%)" fill-opacity="1" d="M 75.046875 77.027344 C 75.738281 75.128906 74.757812 73.03125 72.863281 72.339844 C 70.964844 71.648438 68.867188 72.628906 68.175781 74.523438 C 67.484375 76.421875 68.464844 78.519531 70.359375 79.210938 C 72.257812 79.902344 74.355469 78.921875 75.046875 77.027344 Z M 74.121094 76.6875 C 74.625 75.300781 73.910156 73.769531 72.523438 73.265625 C 71.136719 72.761719 69.605469 73.476562 69.101562 74.863281 C 68.597656 76.25 69.3125 77.78125 70.699219 78.285156 C 72.085938 78.789062 73.617188 78.074219 74.121094 76.6875 Z M 74.121094 76.6875 "/>
</svg>
