<?xml version="1.0" encoding="UTF-8"?>
<svg xmlns="http://www.w3.org/2000/svg" xmlns:xlink="http://www.w3.org/1999/xlink" width="57.175" height="69.449" viewBox="0 0 57.175 69.449">
<defs>
<clipPath id="clip-0">
<path clip-rule="nonzero" d="M 0 0.222656 L 56.363281 0.222656 L 56.363281 68.683594 L 0 68.683594 Z M 0 0.222656 "/>
</clipPath>
<clipPath id="clip-1">
<path clip-rule="nonzero" d="M 0 31 L 56.363281 31 L 56.363281 68.683594 L 0 68.683594 Z M 0 31 "/>
</clipPath>
<clipPath id="clip-2">
<path clip-rule="nonzero" d="M 0 31 L 56.363281 31 L 56.363281 68.683594 L 0 68.683594 Z M 0 31 "/>
</clipPath>
<clipPath id="clip-3">
<path clip-rule="nonzero" d="M 18 0.222656 L 38 0.222656 L 38 17 L 18 17 Z M 18 0.222656 "/>
</clipPath>
</defs>
<g clip-path="url(#clip-0)">
<path fill-rule="nonzero" fill="rgb(89.99939%, 89.99939%, 89.99939%)" fill-opacity="1" d="M 0 68.683594 L 56.363281 68.683594 L 56.363281 0.222656 L 0 0.222656 Z M 0 68.683594 "/>
</g>
<g clip-path="url(#clip-1)">
<path fill-rule="nonzero" fill="rgb(100%, 82.743835%, 77.723694%)" fill-opacity="1" d="M 12.015625 39.484375 C 5.140625 40.683594 -5.8125 53.121094 5.757812 64.183594 C 17.351562 75.25 77.683594 67.84375 48.480469 31.824219 C 23.890625 45.042969 32.332031 32.945312 12.015625 39.484375 Z M 12.015625 39.484375 "/>
</g>
<path fill-rule="nonzero" fill="rgb(100%, 82.743835%, 77.723694%)" fill-opacity="1" d="M 36.800781 29.5625 C 36.800781 19.917969 30.546875 12.097656 22.828125 12.097656 C 15.113281 12.097656 8.859375 19.917969 8.859375 29.5625 C 8.859375 39.207031 15.113281 47.027344 22.828125 47.027344 C 30.546875 47.027344 36.800781 39.207031 36.800781 29.5625 Z M 36.800781 29.5625 "/>
<path fill-rule="nonzero" fill="rgb(87.5%, 50%, 12.5%)" fill-opacity="1" d="M 9.027344 30.34375 C 15.648438 28.722656 12.796875 35.066406 23.109375 33.195312 C 0 47.726562 5.195312 33.222656 9.027344 30.34375 Z M 9.027344 30.34375 "/>
<path fill-rule="nonzero" fill="rgb(100%, 99.234009%, 85.00061%)" fill-opacity="1" d="M 22.957031 28.117188 C 23.617188 26.304688 23.101562 24.453125 21.808594 23.980469 C 20.511719 23.511719 18.925781 24.597656 18.269531 26.410156 C 17.609375 28.222656 18.121094 30.074219 19.417969 30.546875 C 20.710938 31.019531 22.296875 29.929688 22.957031 28.117188 Z M 22.957031 28.117188 "/>
<path fill-rule="nonzero" fill="rgb(0%, 0%, 0%)" fill-opacity="1" d="M 22.242188 28.15625 C 22.621094 27.121094 22.503906 26.128906 21.988281 25.9375 C 21.46875 25.75 20.742188 26.4375 20.367188 27.472656 C 19.992188 28.507812 20.105469 29.5 20.621094 29.6875 C 21.140625 29.875 21.867188 29.191406 22.242188 28.15625 Z M 22.242188 28.15625 "/>
<path fill-rule="nonzero" fill="rgb(100%, 99.234009%, 85.00061%)" fill-opacity="1" d="M 14.800781 25.964844 C 15.402344 24.308594 14.96875 22.628906 13.828125 22.214844 C 12.6875 21.796875 11.273438 22.804688 10.671875 24.464844 C 10.066406 26.121094 10.503906 27.800781 11.640625 28.214844 C 12.78125 28.632812 14.195312 27.625 14.800781 25.964844 Z M 14.800781 25.964844 "/>
<path fill-rule="nonzero" fill="rgb(0%, 0%, 0%)" fill-opacity="1" d="M 14.179688 26.039062 C 14.515625 25.105469 14.457031 24.226562 14.042969 24.074219 C 13.625 23.925781 13.015625 24.558594 12.675781 25.492188 C 12.335938 26.421875 12.398438 27.300781 12.8125 27.453125 C 13.226562 27.605469 13.839844 26.96875 14.179688 26.039062 Z M 14.179688 26.039062 "/>
<g clip-path="url(#clip-2)">
<path fill-rule="nonzero" fill="rgb(95.529175%, 40.000916%, 72.940063%)" fill-opacity="1" d="M 11.371094 39.484375 C 5.140625 40.683594 -5.8125 53.121094 5.757812 64.183594 C 17.351562 75.25 77.683594 67.84375 48.480469 31.824219 C 23.890625 44.207031 32.332031 35.738281 14.167969 43.535156 Z M 11.371094 39.484375 "/>
<path fill-rule="nonzero" fill="rgb(97.019958%, 60.00061%, 81.959534%)" fill-opacity="1" d="M 11.371094 39.484375 C 5.140625 40.683594 -5.8125 53.121094 5.757812 64.183594 C 17.351562 75.25 77.683594 67.84375 48.480469 31.824219 C 22.269531 45.042969 32.332031 32.972656 12.015625 51.917969 Z M 11.371094 39.484375 "/>
</g>
<path fill-rule="nonzero" fill="rgb(100%, 99.234009%, 85.00061%)" fill-opacity="1" d="M 12.546875 40.40625 C 12.546875 39.910156 12.144531 39.511719 11.652344 39.511719 C 11.160156 39.511719 10.757812 39.910156 10.757812 40.40625 C 10.757812 40.898438 11.160156 41.300781 11.652344 41.300781 C 12.144531 41.300781 12.546875 40.898438 12.546875 40.40625 Z M 12.824219 42.136719 C 12.824219 41.644531 12.425781 41.242188 11.929688 41.242188 C 11.4375 41.242188 11.039062 41.644531 11.039062 42.136719 C 11.039062 42.632812 11.4375 43.03125 11.929688 43.03125 C 12.425781 43.03125 12.824219 42.632812 12.824219 42.136719 Z M 13.105469 43.8125 C 13.105469 43.320312 12.703125 42.917969 12.210938 42.917969 C 11.71875 42.917969 11.316406 43.320312 11.316406 43.8125 C 11.316406 44.308594 11.71875 44.707031 12.210938 44.707031 C 12.703125 44.707031 13.105469 44.308594 13.105469 43.8125 Z M 13.664062 45.460938 C 13.664062 44.96875 13.261719 44.570312 12.769531 44.570312 C 12.277344 44.570312 11.875 44.96875 11.875 45.460938 C 11.875 45.957031 12.277344 46.355469 12.769531 46.355469 C 13.261719 46.355469 13.664062 45.957031 13.664062 45.460938 Z M 14.851562 46.75 C 14.851562 46.253906 14.453125 45.855469 13.957031 45.855469 C 13.464844 45.855469 13.0625 46.253906 13.0625 46.75 C 13.0625 47.242188 13.464844 47.640625 13.957031 47.640625 C 14.453125 47.640625 14.851562 47.242188 14.851562 46.75 Z M 16.597656 46.75 C 16.597656 46.253906 16.199219 45.855469 15.703125 45.855469 C 15.210938 45.855469 14.808594 46.253906 14.808594 46.75 C 14.808594 47.242188 15.210938 47.640625 15.703125 47.640625 C 16.199219 47.640625 16.597656 47.242188 16.597656 46.75 Z M 18.136719 46.050781 C 18.136719 45.554688 17.734375 45.15625 17.242188 45.15625 C 16.746094 45.15625 16.347656 45.554688 16.347656 46.050781 C 16.347656 46.542969 16.746094 46.945312 17.242188 46.945312 C 17.734375 46.945312 18.136719 46.542969 18.136719 46.050781 Z M 19.53125 45.070312 C 19.53125 44.578125 19.132812 44.175781 18.636719 44.175781 C 18.144531 44.175781 17.742188 44.578125 17.742188 45.070312 C 17.742188 45.566406 18.144531 45.964844 18.636719 45.964844 C 19.132812 45.964844 19.53125 45.566406 19.53125 45.070312 Z M 20.929688 44.09375 C 20.929688 43.601562 20.527344 43.199219 20.035156 43.199219 C 19.542969 43.199219 19.140625 43.601562 19.140625 44.09375 C 19.140625 44.585938 19.542969 44.988281 20.035156 44.988281 C 20.527344 44.988281 20.929688 44.585938 20.929688 44.09375 Z M 22.328125 42.976562 C 22.328125 42.480469 21.925781 42.082031 21.433594 42.082031 C 20.9375 42.082031 20.539062 42.480469 20.539062 42.976562 C 20.539062 43.46875 20.9375 43.871094 21.433594 43.871094 C 21.925781 43.871094 22.328125 43.46875 22.328125 42.976562 Z M 23.722656 42.136719 C 23.722656 41.644531 23.324219 41.242188 22.828125 41.242188 C 22.335938 41.242188 21.933594 41.644531 21.933594 42.136719 C 21.933594 42.632812 22.335938 43.03125 22.828125 43.03125 C 23.324219 43.03125 23.722656 42.632812 23.722656 42.136719 Z M 25.121094 41.300781 C 25.121094 40.804688 24.71875 40.40625 24.226562 40.40625 C 23.734375 40.40625 23.332031 40.804688 23.332031 41.300781 C 23.332031 41.792969 23.734375 42.191406 24.226562 42.191406 C 24.71875 42.191406 25.121094 41.792969 25.121094 41.300781 Z M 26.519531 40.460938 C 26.519531 39.96875 26.117188 39.566406 25.625 39.566406 C 25.128906 39.566406 24.730469 39.96875 24.730469 40.460938 C 24.730469 40.953125 25.128906 41.355469 25.625 41.355469 C 26.117188 41.355469 26.519531 40.953125 26.519531 40.460938 Z M 28.054688 39.902344 C 28.054688 39.40625 27.65625 39.007812 27.160156 39.007812 C 26.667969 39.007812 26.265625 39.40625 26.265625 39.902344 C 26.265625 40.394531 26.667969 40.796875 27.160156 40.796875 C 27.65625 40.796875 28.054688 40.394531 28.054688 39.902344 Z M 29.59375 39.34375 C 29.59375 38.847656 29.191406 38.449219 28.699219 38.449219 C 28.203125 38.449219 27.804688 38.847656 27.804688 39.34375 C 27.804688 39.835938 28.203125 40.238281 28.699219 40.238281 C 29.191406 40.238281 29.59375 39.835938 29.59375 39.34375 Z M 31.128906 38.925781 C 31.128906 38.429688 30.726562 38.03125 30.234375 38.03125 C 29.742188 38.03125 29.339844 38.429688 29.339844 38.925781 C 29.339844 39.417969 29.742188 39.816406 30.234375 39.816406 C 30.726562 39.816406 31.128906 39.417969 31.128906 38.925781 Z M 32.664062 38.503906 C 32.664062 38.011719 32.265625 37.609375 31.773438 37.609375 C 31.277344 37.609375 30.878906 38.011719 30.878906 38.503906 C 30.878906 39 31.277344 39.398438 31.773438 39.398438 C 32.265625 39.398438 32.664062 39 32.664062 38.503906 Z M 34.203125 38.085938 C 34.203125 37.589844 33.800781 37.191406 33.308594 37.191406 C 32.816406 37.191406 32.414062 37.589844 32.414062 38.085938 C 32.414062 38.578125 32.816406 38.980469 33.308594 38.980469 C 33.800781 38.980469 34.203125 38.578125 34.203125 38.085938 Z M 35.738281 37.667969 C 35.738281 37.171875 35.339844 36.773438 34.84375 36.773438 C 34.351562 36.773438 33.953125 37.171875 33.953125 37.667969 C 33.953125 38.160156 34.351562 38.558594 34.84375 38.558594 C 35.339844 38.558594 35.738281 38.160156 35.738281 37.667969 Z M 35.738281 37.667969 "/>
<path fill-rule="nonzero" fill="rgb(97.645569%, 97.645569%, 54.508972%)" fill-opacity="1" d="M 38.222656 50.339844 C 40.003906 49.4375 41.980469 48.519531 43.082031 46.800781 C 41.996094 46.757812 38.828125 45.050781 41.234375 44.355469 C 43.277344 44.414062 45.230469 43.40625 46.0625 41.484375 C 47.785156 38.894531 44.113281 40.25 43.164062 39.160156 C 44.773438 38.667969 47.53125 38.421875 48.324219 37.265625 C 45.246094 36.582031 41.519531 36.09375 39.773438 33.085938 C 38.53125 29.164062 38.746094 24.953125 37.75 20.96875 C 32.675781 1.292969 4.207031 7.785156 9.027344 26.792969 C 9.8125 18.964844 16.203125 12.433594 22.859375 16.769531 C 32.40625 22.90625 34.984375 31.757812 28.152344 41.828125 C 27.292969 43.230469 28.707031 45.863281 30.667969 47.25 C 32.628906 48.636719 35.414062 49.535156 38.222656 50.339844 Z M 38.222656 50.339844 "/>
<g clip-path="url(#clip-3)">
<path fill-rule="nonzero" fill="rgb(99.293518%, 86.508179%, 1.411438%)" fill-opacity="1" d="M 18.164062 11.605469 C 18.164062 11.605469 19.839844 8.648438 19.003906 0.308594 L 23.230469 7.5 L 28.105469 3.917969 L 29.535156 9.792969 L 37.566406 7.359375 C 30.96875 12.398438 31.042969 16.292969 31.042969 16.292969 C 26.859375 17.152344 20.816406 14.953125 18.164062 11.605469 Z M 18.164062 11.605469 "/>
</g>
</svg>
