<?xml version="1.0" encoding="UTF-8"?>
<svg xmlns="http://www.w3.org/2000/svg" xmlns:xlink="http://www.w3.org/1999/xlink" width="57.175" height="58.96" viewBox="0 0 57.175 58.96">
<defs>
<clipPath id="clip-0">
<path clip-rule="nonzero" d="M 0 0.398438 L 56.363281 0.398438 L 56.363281 58.519531 L 0 58.519531 Z M 0 0.398438 "/>
</clipPath>
<clipPath id="clip-1">
<path clip-rule="nonzero" d="M 0 21 L 56.363281 21 L 56.363281 58.519531 L 0 58.519531 Z M 0 21 "/>
</clipPath>
</defs>
<g clip-path="url(#clip-0)">
<path fill-rule="nonzero" fill="rgb(89.99939%, 89.99939%, 89.99939%)" fill-opacity="1" d="M 0 58.519531 L 56.363281 58.519531 L 56.363281 0.398438 L 0 0.398438 Z M 0 58.519531 "/>
</g>
<g clip-path="url(#clip-1)">
<path fill-rule="nonzero" fill="rgb(92.871094%, 83.229065%, 14.369202%)" fill-opacity="1" d="M 12.015625 29.320312 C 5.140625 30.523438 -5.8125 42.957031 5.757812 54.023438 C 17.351562 65.085938 77.683594 57.683594 48.480469 21.664062 C 23.890625 34.882812 32.332031 22.78125 12.015625 29.320312 Z M 12.015625 29.320312 "/>
</g>
<path fill-rule="nonzero" fill="rgb(92.871094%, 83.229065%, 14.369202%)" fill-opacity="1" d="M 36.800781 19.398438 C 36.800781 9.753906 30.546875 1.933594 22.828125 1.933594 C 15.113281 1.933594 8.859375 9.753906 8.859375 19.398438 C 8.859375 29.046875 15.113281 36.863281 22.828125 36.863281 C 30.546875 36.863281 36.800781 29.046875 36.800781 19.398438 Z M 36.800781 19.398438 "/>
<path fill-rule="nonzero" fill="rgb(87.5%, 50%, 12.5%)" fill-opacity="1" d="M 9.027344 20.183594 C 15.648438 18.5625 12.796875 24.90625 23.109375 23.03125 C 0 37.5625 5.195312 23.0625 9.027344 20.183594 Z M 9.027344 20.183594 "/>
<path fill-rule="nonzero" fill="rgb(100%, 99.234009%, 85.00061%)" fill-opacity="1" d="M 22.957031 17.957031 C 23.617188 16.140625 23.101562 14.289062 21.808594 13.820312 C 20.511719 13.347656 18.925781 14.4375 18.269531 16.25 C 17.609375 18.0625 18.121094 19.914062 19.417969 20.382812 C 20.710938 20.855469 22.296875 19.769531 22.957031 17.957031 Z M 22.957031 17.957031 "/>
<path fill-rule="nonzero" fill="rgb(0%, 0%, 0%)" fill-opacity="1" d="M 22.242188 17.992188 C 22.621094 16.957031 22.503906 15.964844 21.988281 15.777344 C 21.46875 15.585938 20.742188 16.273438 20.367188 17.308594 C 19.992188 18.34375 20.105469 19.335938 20.621094 19.527344 C 21.140625 19.714844 21.867188 19.027344 22.242188 17.992188 Z M 22.242188 17.992188 "/>
<path fill-rule="nonzero" fill="rgb(100%, 99.234009%, 85.00061%)" fill-opacity="1" d="M 14.800781 15.804688 C 15.402344 14.144531 14.96875 12.464844 13.828125 12.050781 C 12.6875 11.636719 11.273438 12.644531 10.671875 14.300781 C 10.066406 15.957031 10.503906 17.640625 11.640625 18.054688 C 12.78125 18.46875 14.195312 17.460938 14.800781 15.804688 Z M 14.800781 15.804688 "/>
<path fill-rule="nonzero" fill="rgb(0%, 0%, 0%)" fill-opacity="1" d="M 14.179688 15.875 C 14.515625 14.941406 14.457031 14.0625 14.042969 13.914062 C 13.625 13.761719 13.015625 14.394531 12.675781 15.328125 C 12.335938 16.261719 12.398438 17.140625 12.8125 17.289062 C 13.226562 17.441406 13.839844 16.808594 14.179688 15.875 Z M 14.179688 15.875 "/>
<path fill-rule="nonzero" fill="rgb(100%, 100%, 100%)" fill-opacity="1" d="M 35.082031 19.84375 C 37.480469 20.714844 39.253906 13.457031 36.699219 9.179688 C 28.617188 -4.382812 12.179688 0.933594 9.921875 14.324219 C 10.464844 6.496094 22.847656 -0.324219 29.277344 4.339844 C 38.765625 12.5 26.582031 16.75 35.082031 19.84375 Z M 35.082031 19.84375 "/>
<path fill-rule="nonzero" fill="rgb(100%, 100%, 100%)" fill-opacity="1" d="M 37.359375 24.988281 C 37.359375 23.136719 35.859375 21.636719 34.007812 21.636719 C 32.15625 21.636719 30.652344 23.136719 30.652344 24.988281 C 30.652344 26.839844 32.15625 28.34375 34.007812 28.34375 C 35.859375 28.34375 37.359375 26.839844 37.359375 24.988281 Z M 34.566406 29.179688 C 34.566406 27.328125 33.066406 25.828125 31.210938 25.828125 C 29.359375 25.828125 27.859375 27.328125 27.859375 29.179688 C 27.859375 31.03125 29.359375 32.535156 31.210938 32.535156 C 33.066406 32.535156 34.566406 31.03125 34.566406 29.179688 Z M 14.445312 31.976562 C 14.445312 30.429688 13.195312 29.179688 11.652344 29.179688 C 10.109375 29.179688 8.859375 30.429688 8.859375 31.976562 C 8.859375 33.519531 10.109375 34.769531 11.652344 34.769531 C 13.195312 34.769531 14.445312 33.519531 14.445312 31.976562 Z M 15.703125 36.167969 C 15.703125 34.316406 14.203125 32.8125 12.351562 32.8125 C 10.5 32.8125 8.996094 34.316406 8.996094 36.167969 C 8.996094 38.019531 10.5 39.519531 12.351562 39.519531 C 14.203125 39.519531 15.703125 38.019531 15.703125 36.167969 Z M 15.703125 40.359375 C 15.703125 38.507812 14.203125 37.003906 12.351562 37.003906 C 10.5 37.003906 8.996094 38.507812 8.996094 40.359375 C 8.996094 42.210938 10.5 43.710938 12.351562 43.710938 C 14.203125 43.710938 15.703125 42.210938 15.703125 40.359375 Z M 19.753906 43.152344 C 19.753906 40.992188 18.003906 39.242188 15.84375 39.242188 C 13.683594 39.242188 11.929688 40.992188 11.929688 43.152344 C 11.929688 45.3125 13.683594 47.066406 15.84375 47.066406 C 18.003906 47.066406 19.753906 45.3125 19.753906 43.152344 Z M 21.992188 40.359375 C 21.992188 38.507812 20.488281 37.003906 18.636719 37.003906 C 16.785156 37.003906 15.285156 38.507812 15.285156 40.359375 C 15.285156 42.210938 16.785156 43.710938 18.636719 43.710938 C 20.488281 43.710938 21.992188 42.210938 21.992188 40.359375 Z M 24.785156 37.5625 C 24.785156 35.710938 23.285156 34.210938 21.433594 34.210938 C 19.582031 34.210938 18.078125 35.710938 18.078125 37.5625 C 18.078125 39.414062 19.582031 40.917969 21.433594 40.917969 C 23.285156 40.917969 24.785156 39.414062 24.785156 37.5625 Z M 27.578125 34.769531 C 27.578125 32.917969 26.078125 31.417969 24.226562 31.417969 C 22.375 31.417969 20.875 32.917969 20.875 34.769531 C 20.875 36.621094 22.375 38.121094 24.226562 38.121094 C 26.078125 38.121094 27.578125 36.621094 27.578125 34.769531 Z M 30.375 31.976562 C 30.375 30.121094 28.875 28.621094 27.019531 28.621094 C 25.167969 28.621094 23.667969 30.121094 23.667969 31.976562 C 23.667969 33.828125 25.167969 35.328125 27.019531 35.328125 C 28.875 35.328125 30.375 33.828125 30.375 31.976562 Z M 33.167969 26.386719 C 33.167969 24.535156 31.667969 23.03125 29.816406 23.03125 C 27.964844 23.03125 26.460938 24.535156 26.460938 26.386719 C 26.460938 28.238281 27.964844 29.738281 29.816406 29.738281 C 31.667969 29.738281 33.167969 28.238281 33.167969 26.386719 Z M 28.976562 27.785156 C 28.976562 25.929688 27.476562 24.429688 25.625 24.429688 C 23.773438 24.429688 22.269531 25.929688 22.269531 27.785156 C 22.269531 29.636719 23.773438 31.136719 25.625 31.136719 C 27.476562 31.136719 28.976562 29.636719 28.976562 27.785156 Z M 24.785156 27.785156 C 24.785156 25.929688 23.285156 24.429688 21.433594 24.429688 C 19.582031 24.429688 18.078125 25.929688 18.078125 27.785156 C 18.078125 29.636719 19.582031 31.136719 21.433594 31.136719 C 23.285156 31.136719 24.785156 29.636719 24.785156 27.785156 Z M 21.992188 29.179688 C 21.992188 27.328125 20.488281 25.828125 18.636719 25.828125 C 16.785156 25.828125 15.285156 27.328125 15.285156 29.179688 C 15.285156 31.03125 16.785156 32.535156 18.636719 32.535156 C 20.488281 32.535156 21.992188 31.03125 21.992188 29.179688 Z M 19.195312 30.578125 C 19.195312 28.726562 17.695312 27.222656 15.84375 27.222656 C 13.992188 27.222656 12.492188 28.726562 12.492188 30.578125 C 12.492188 32.429688 13.992188 33.929688 15.84375 33.929688 C 17.695312 33.929688 19.195312 32.429688 19.195312 30.578125 Z M 17.242188 31.414062 C 17.242188 29.5625 15.738281 28.0625 13.886719 28.0625 C 12.035156 28.0625 10.535156 29.5625 10.535156 31.414062 C 10.535156 33.269531 12.035156 34.769531 13.886719 34.769531 C 15.738281 34.769531 17.242188 33.269531 17.242188 31.414062 Z M 11.652344 20.519531 C 11.652344 19.59375 10.902344 18.839844 9.976562 18.839844 C 9.050781 18.839844 8.300781 19.59375 8.300781 20.519531 C 8.300781 21.445312 9.050781 22.195312 9.976562 22.195312 C 10.902344 22.195312 11.652344 21.445312 11.652344 20.519531 Z M 13.886719 20.796875 C 13.886719 19.871094 13.136719 19.121094 12.210938 19.121094 C 11.285156 19.121094 10.535156 19.871094 10.535156 20.796875 C 10.535156 21.722656 11.285156 22.472656 12.210938 22.472656 C 13.136719 22.472656 13.886719 21.722656 13.886719 20.796875 Z M 16.125 21.914062 C 16.125 20.988281 15.371094 20.238281 14.445312 20.238281 C 13.519531 20.238281 12.769531 20.988281 12.769531 21.914062 C 12.769531 22.839844 13.519531 23.589844 14.445312 23.589844 C 15.371094 23.589844 16.125 22.839844 16.125 21.914062 Z M 18.359375 23.3125 C 18.359375 22.386719 17.609375 21.636719 16.683594 21.636719 C 15.757812 21.636719 15.003906 22.386719 15.003906 23.3125 C 15.003906 24.238281 15.757812 24.988281 16.683594 24.988281 C 17.609375 24.988281 18.359375 24.238281 18.359375 23.3125 Z M 20.59375 23.871094 C 20.59375 22.945312 19.84375 22.195312 18.917969 22.195312 C 17.992188 22.195312 17.242188 22.945312 17.242188 23.871094 C 17.242188 24.796875 17.992188 25.546875 18.917969 25.546875 C 19.84375 25.546875 20.59375 24.796875 20.59375 23.871094 Z M 25.066406 26.105469 C 25.066406 24.253906 23.5625 22.753906 21.710938 22.753906 C 19.859375 22.753906 18.359375 24.253906 18.359375 26.105469 C 18.359375 27.957031 19.859375 29.460938 21.710938 29.460938 C 23.5625 29.460938 25.066406 27.957031 25.066406 26.105469 Z M 9.136719 21.078125 C 9.136719 20.613281 8.761719 20.238281 8.300781 20.238281 C 7.835938 20.238281 7.460938 20.613281 7.460938 21.078125 C 7.460938 21.539062 7.835938 21.914062 8.300781 21.914062 C 8.761719 21.914062 9.136719 21.539062 9.136719 21.078125 Z M 28.976562 25.546875 C 28.976562 23.695312 27.476562 22.195312 25.625 22.195312 C 23.773438 22.195312 22.269531 23.695312 22.269531 25.546875 C 22.269531 27.398438 23.773438 28.902344 25.625 28.902344 C 27.476562 28.902344 28.976562 27.398438 28.976562 25.546875 Z M 28.976562 25.546875 "/>
<path fill-rule="nonzero" fill="rgb(100%, 100%, 100%)" fill-opacity="1" d="M 34.007812 24.988281 L 11.652344 31.976562 L 15.84375 43.152344 Z M 34.007812 24.988281 "/>
<path fill-rule="nonzero" fill="rgb(75%, 50%, 25%)" fill-opacity="1" d="M 19.652344 33.628906 L 13.917969 49.382812 L 24.421875 53.207031 L 30.15625 37.453125 Z M 19.652344 33.628906 "/>
<path fill="none" stroke-width="0.3985" stroke-linecap="butt" stroke-linejoin="miter" stroke="rgb(100%, 100%, 100%)" stroke-opacity="1" stroke-miterlimit="10" d="M 26.635903 17.086009 L 25.898857 19.52698 L 28.335865 20.267989 L 29.076874 17.827018 Z M 26.635903 17.086009 " transform="matrix(0.985776, 0, 0, -0.985776, -2.319531, 61.315631)"/>
<path fill="none" stroke-width="0.3985" stroke-linecap="butt" stroke-linejoin="miter" stroke="rgb(100%, 100%, 100%)" stroke-opacity="1" stroke-miterlimit="10" d="M 22.641588 18.540289 L 21.654897 21.793595 L 24.908203 22.780286 L 25.894894 19.530942 Z M 22.641588 18.540289 " transform="matrix(0.985776, 0, 0, -0.985776, -2.319531, 61.315631)"/>
<path fill="none" stroke-width="0.3985" stroke-linecap="butt" stroke-linejoin="miter" stroke="rgb(100%, 100%, 100%)" stroke-opacity="1" stroke-miterlimit="10" d="M 21.191271 14.545973 L 22.641588 18.540289 L 26.635903 17.086009 L 25.185586 13.091693 Z M 21.191271 14.545973 " transform="matrix(0.985776, 0, 0, -0.985776, -2.319531, 61.315631)"/>
</svg>
