<?xml version="1.0" encoding="UTF-8"?>
<svg xmlns="http://www.w3.org/2000/svg" xmlns:xlink="http://www.w3.org/1999/xlink" width="57.175" height="63.582" viewBox="0 0 57.175 63.582">
<defs>
<clipPath id="clip-0">
<path clip-rule="nonzero" d="M 0 0.246094 L 56.363281 0.246094 L 56.363281 62.921875 L 0 62.921875 Z M 0 0.246094 "/>
</clipPath>
<clipPath id="clip-1">
<path clip-rule="nonzero" d="M 0 26 L 56.363281 26 L 56.363281 62.921875 L 0 62.921875 Z M 0 26 "/>
</clipPath>
<clipPath id="clip-2">
<path clip-rule="nonzero" d="M 0 26 L 56.363281 26 L 56.363281 62.921875 L 0 62.921875 Z M 0 26 "/>
</clipPath>
<clipPath id="clip-3">
<path clip-rule="nonzero" d="M 0 26 L 56.363281 26 L 56.363281 62.921875 L 0 62.921875 Z M 0 26 "/>
</clipPath>
<clipPath id="clip-4">
<path clip-rule="nonzero" d="M 20 0.246094 L 44 0.246094 L 44 13 L 20 13 Z M 20 0.246094 "/>
</clipPath>
</defs>
<g clip-path="url(#clip-0)">
<path fill-rule="nonzero" fill="rgb(89.99939%, 89.99939%, 89.99939%)" fill-opacity="1" d="M 0 62.921875 L 56.363281 62.921875 L 56.363281 0.246094 L 0 0.246094 Z M 0 62.921875 "/>
</g>
<g clip-path="url(#clip-1)">
<path fill-rule="nonzero" fill="rgb(92.871094%, 83.229065%, 14.369202%)" fill-opacity="1" d="M 12.015625 33.722656 C 5.140625 34.925781 -5.8125 47.359375 5.757812 58.425781 C 17.351562 69.492188 77.683594 62.085938 48.480469 26.066406 C 23.890625 39.285156 32.332031 27.183594 12.015625 33.722656 Z M 12.015625 33.722656 "/>
</g>
<path fill-rule="nonzero" fill="rgb(92.871094%, 83.229065%, 14.369202%)" fill-opacity="1" d="M 36.800781 23.804688 C 36.800781 14.15625 30.546875 6.339844 22.828125 6.339844 C 15.113281 6.339844 8.859375 14.15625 8.859375 23.804688 C 8.859375 33.449219 15.113281 41.269531 22.828125 41.269531 C 30.546875 41.269531 36.800781 33.449219 36.800781 23.804688 Z M 36.800781 23.804688 "/>
<path fill-rule="nonzero" fill="rgb(87.5%, 50%, 12.5%)" fill-opacity="1" d="M 9.027344 24.585938 C 15.648438 22.964844 12.796875 29.308594 23.109375 27.4375 C 0 41.964844 5.195312 27.464844 9.027344 24.585938 Z M 9.027344 24.585938 "/>
<path fill-rule="nonzero" fill="rgb(100%, 99.234009%, 85.00061%)" fill-opacity="1" d="M 22.957031 22.359375 C 23.617188 20.546875 23.101562 18.695312 21.808594 18.222656 C 20.511719 17.75 18.925781 18.839844 18.269531 20.652344 C 17.609375 22.464844 18.121094 24.316406 19.417969 24.785156 C 20.710938 25.257812 22.296875 24.171875 22.957031 22.359375 Z M 22.957031 22.359375 "/>
<path fill-rule="nonzero" fill="rgb(0%, 0%, 0%)" fill-opacity="1" d="M 22.242188 22.394531 C 22.621094 21.359375 22.503906 20.367188 21.988281 20.179688 C 21.46875 19.992188 20.742188 20.675781 20.367188 21.710938 C 19.992188 22.746094 20.105469 23.738281 20.621094 23.929688 C 21.140625 24.117188 21.867188 23.429688 22.242188 22.394531 Z M 22.242188 22.394531 "/>
<path fill-rule="nonzero" fill="rgb(100%, 99.234009%, 85.00061%)" fill-opacity="1" d="M 14.800781 20.207031 C 15.402344 18.546875 14.96875 16.867188 13.828125 16.453125 C 12.6875 16.039062 11.273438 17.046875 10.671875 18.703125 C 10.066406 20.363281 10.503906 22.042969 11.640625 22.457031 C 12.78125 22.871094 14.195312 21.863281 14.800781 20.207031 Z M 14.800781 20.207031 "/>
<path fill-rule="nonzero" fill="rgb(0%, 0%, 0%)" fill-opacity="1" d="M 14.179688 20.277344 C 14.515625 19.34375 14.457031 18.46875 14.042969 18.316406 C 13.625 18.164062 13.015625 18.800781 12.675781 19.730469 C 12.335938 20.664062 12.398438 21.542969 12.8125 21.691406 C 13.226562 21.84375 13.839844 21.210938 14.179688 20.277344 Z M 14.179688 20.277344 "/>
<g clip-path="url(#clip-2)">
<path fill-rule="nonzero" fill="rgb(94.999695%, 94.999695%, 94.999695%)" fill-opacity="1" d="M 11.371094 33.722656 C 5.140625 34.925781 -5.8125 47.359375 5.757812 58.425781 C 17.351562 69.492188 77.683594 62.085938 48.480469 26.066406 C 23.890625 38.445312 32.332031 29.976562 14.167969 37.773438 Z M 11.371094 33.722656 "/>
</g>
<path fill-rule="nonzero" fill="rgb(14.99939%, 14.99939%, 14.99939%)" fill-opacity="1" d="M 10.492188 48.445312 L 13.109375 36.144531 L 16.113281 36.785156 L 13.5 49.082031 Z M 10.492188 48.445312 "/>
<g clip-path="url(#clip-3)">
<path fill-rule="nonzero" fill="rgb(79.998779%, 0%, 0%)" fill-opacity="1" d="M 11.371094 33.722656 C 5.140625 34.925781 -5.8125 47.359375 5.757812 58.425781 C 17.351562 69.492188 77.683594 62.085938 48.480469 26.066406 C 22.269531 39.285156 32.332031 27.210938 12.015625 46.15625 Z M 11.371094 33.722656 "/>
</g>
<path fill-rule="nonzero" fill="rgb(99.293518%, 86.508179%, 1.411438%)" fill-opacity="1" d="M 12.769531 48.953125 C 12.769531 48.179688 12.144531 47.554688 11.371094 47.554688 C 10.601562 47.554688 9.976562 48.179688 9.976562 48.953125 C 9.976562 49.722656 10.601562 50.347656 11.371094 50.347656 C 12.144531 50.347656 12.769531 49.722656 12.769531 48.953125 Z M 11.933594 53.144531 C 11.933594 52.371094 11.304688 51.746094 10.535156 51.746094 C 9.761719 51.746094 9.136719 52.371094 9.136719 53.144531 C 9.136719 53.914062 9.761719 54.542969 10.535156 54.542969 C 11.304688 54.542969 11.933594 53.914062 11.933594 53.144531 Z M 11.652344 57.335938 C 11.652344 56.5625 11.027344 55.9375 10.253906 55.9375 C 9.484375 55.9375 8.859375 56.5625 8.859375 57.335938 C 8.859375 58.105469 9.484375 58.734375 10.253906 58.734375 C 11.027344 58.734375 11.652344 58.105469 11.652344 57.335938 Z M 11.652344 57.335938 "/>
<path fill-rule="nonzero" fill="rgb(14.99939%, 14.99939%, 14.99939%)" fill-opacity="1" d="M 35.449219 16.535156 C 36.046875 14.296875 30.492188 10.867188 23.039062 8.867188 C 15.585938 6.871094 9.058594 7.066406 8.457031 9.300781 C 7.859375 11.535156 13.414062 14.96875 20.871094 16.964844 C 28.324219 18.964844 34.851562 18.769531 35.449219 16.535156 Z M 35.449219 16.535156 "/>
<path fill-rule="nonzero" fill="rgb(14.99939%, 14.99939%, 14.99939%)" fill-opacity="1" d="M 39.027344 18.707031 C 40.136719 16.332031 35.363281 11.757812 28.371094 8.5 C 21.378906 5.238281 14.808594 4.519531 13.699219 6.898438 C 12.59375 9.277344 17.363281 13.847656 24.355469 17.109375 C 31.347656 20.371094 37.917969 21.085938 39.027344 18.707031 Z M 39.027344 18.707031 "/>
<path fill-rule="nonzero" fill="rgb(14.99939%, 14.99939%, 14.99939%)" fill-opacity="1" d="M 39.808594 20.167969 C 41.3125 18.019531 36.898438 12.332031 29.945312 7.460938 C 22.992188 2.59375 16.132812 0.390625 14.628906 2.539062 C 13.125 4.6875 17.542969 10.375 24.496094 15.246094 C 31.449219 20.113281 38.304688 22.316406 39.808594 20.167969 Z M 39.808594 20.167969 "/>
<path fill-rule="nonzero" fill="rgb(94.999695%, 94.999695%, 94.999695%)" fill-opacity="1" d="M 39.921875 20.25 C 41.472656 18.035156 37.039062 12.261719 30.023438 7.347656 C 23.007812 2.433594 16.0625 0.246094 14.515625 2.457031 C 12.964844 4.671875 17.398438 10.445312 24.414062 15.359375 C 31.429688 20.273438 38.375 22.460938 39.921875 20.25 Z M 39.921875 20.25 "/>
<path fill="none" stroke-width="0.3985" stroke-linecap="butt" stroke-linejoin="miter" stroke="rgb(84.999084%, 84.999084%, 84.999084%)" stroke-opacity="1" stroke-miterlimit="10" d="M 19.843982 52.440937 L 28.347753 56.692823 " transform="matrix(0.985776, 0, 0, -0.985776, -2.319531, 65.718448)"/>
<g clip-path="url(#clip-4)">
<path fill-rule="nonzero" fill="rgb(84.999084%, 84.999084%, 84.999084%)" fill-opacity="1" d="M 43.195312 1.328125 C 42.410156 -0.347656 36.675781 0.667969 30.382812 3.605469 C 24.085938 6.539062 19.621094 10.28125 20.402344 11.957031 C 21.183594 13.636719 26.921875 12.617188 33.214844 9.683594 C 39.507812 6.746094 43.976562 3.007812 43.195312 1.328125 Z M 43.195312 1.328125 "/>
</g>
</svg>
