<?xml version="1.0" encoding="UTF-8"?>
<svg xmlns="http://www.w3.org/2000/svg" xmlns:xlink="http://www.w3.org/1999/xlink" width="57.175" height="74.654" viewBox="0 0 57.175 74.654">
<defs>
<clipPath id="clip-0">
<path clip-rule="nonzero" d="M 0 0.359375 L 56.363281 0.359375 L 56.363281 73.953125 L 0 73.953125 Z M 0 0.359375 "/>
</clipPath>
<clipPath id="clip-1">
<path clip-rule="nonzero" d="M 0 37 L 56.363281 37 L 56.363281 73.953125 L 0 73.953125 Z M 0 37 "/>
</clipPath>
<clipPath id="clip-2">
<path clip-rule="nonzero" d="M 0 37 L 56.363281 37 L 56.363281 73.953125 L 0 73.953125 Z M 0 37 "/>
</clipPath>
<clipPath id="clip-3">
<path clip-rule="nonzero" d="M 13 0.359375 L 40 0.359375 L 40 21 L 13 21 Z M 13 0.359375 "/>
</clipPath>
</defs>
<g clip-path="url(#clip-0)">
<path fill-rule="nonzero" fill="rgb(89.99939%, 89.99939%, 89.99939%)" fill-opacity="1" d="M 0 73.953125 L 56.363281 73.953125 L 56.363281 0.359375 L 0 0.359375 Z M 0 73.953125 "/>
</g>
<g clip-path="url(#clip-1)">
<path fill-rule="nonzero" fill="rgb(88.233948%, 85.882568%, 80.784607%)" fill-opacity="1" d="M 12.015625 44.75 C 5.140625 45.953125 -5.8125 58.386719 5.757812 69.453125 C 17.351562 80.519531 77.683594 73.113281 48.480469 37.09375 C 23.890625 50.3125 32.332031 38.214844 12.015625 44.75 Z M 12.015625 44.75 "/>
</g>
<path fill-rule="nonzero" fill="rgb(88.233948%, 85.882568%, 80.784607%)" fill-opacity="1" d="M 36.800781 34.832031 C 36.800781 25.1875 30.546875 17.367188 22.828125 17.367188 C 15.113281 17.367188 8.859375 25.1875 8.859375 34.832031 C 8.859375 44.476562 15.113281 52.296875 22.828125 52.296875 C 30.546875 52.296875 36.800781 44.476562 36.800781 34.832031 Z M 36.800781 34.832031 "/>
<path fill-rule="nonzero" fill="rgb(66.665649%, 48.234558%, 60.392761%)" fill-opacity="1" d="M 9.027344 35.613281 C 15.648438 33.992188 12.796875 40.335938 23.109375 38.464844 C 0 52.996094 5.195312 38.492188 9.027344 35.613281 Z M 9.027344 35.613281 "/>
<path fill-rule="nonzero" fill="rgb(100%, 99.234009%, 85.00061%)" fill-opacity="1" d="M 22.957031 33.386719 C 23.617188 31.574219 23.101562 29.722656 21.808594 29.25 C 20.511719 28.78125 18.925781 29.867188 18.269531 31.679688 C 17.609375 33.492188 18.121094 35.34375 19.417969 35.816406 C 20.710938 36.285156 22.296875 35.199219 22.957031 33.386719 Z M 22.957031 33.386719 "/>
<path fill-rule="nonzero" fill="rgb(0%, 0%, 0%)" fill-opacity="1" d="M 22.242188 33.421875 C 22.621094 32.386719 22.503906 31.394531 21.988281 31.207031 C 21.46875 31.019531 20.742188 31.707031 20.367188 32.742188 C 19.992188 33.777344 20.105469 34.769531 20.621094 34.957031 C 21.140625 35.144531 21.867188 34.460938 22.242188 33.421875 Z M 22.242188 33.421875 "/>
<path fill-rule="nonzero" fill="rgb(100%, 99.234009%, 85.00061%)" fill-opacity="1" d="M 14.800781 31.234375 C 15.402344 29.578125 14.96875 27.898438 13.828125 27.480469 C 12.6875 27.066406 11.273438 28.074219 10.671875 29.734375 C 10.066406 31.390625 10.503906 33.070312 11.640625 33.484375 C 12.78125 33.898438 14.195312 32.894531 14.800781 31.234375 Z M 14.800781 31.234375 "/>
<path fill-rule="nonzero" fill="rgb(0%, 0%, 0%)" fill-opacity="1" d="M 14.179688 31.308594 C 14.515625 30.375 14.457031 29.496094 14.042969 29.34375 C 13.625 29.195312 13.015625 29.828125 12.675781 30.761719 C 12.335938 31.691406 12.398438 32.570312 12.8125 32.722656 C 13.226562 32.871094 13.839844 32.238281 14.179688 31.308594 Z M 14.179688 31.308594 "/>
<g clip-path="url(#clip-2)">
<path fill-rule="nonzero" fill="rgb(50.509644%, 72.370911%, 71.546936%)" fill-opacity="1" d="M 11.371094 44.75 C 5.140625 45.953125 -5.8125 58.386719 5.757812 69.453125 C 17.351562 80.519531 77.683594 73.113281 48.480469 37.09375 C 23.890625 49.472656 32.332031 41.007812 14.167969 48.804688 Z M 11.371094 44.75 "/>
<path fill-rule="nonzero" fill="rgb(72.155762%, 81.959534%, 80.784607%)" fill-opacity="1" d="M 11.371094 44.75 C 5.140625 45.953125 -5.8125 58.386719 5.757812 69.453125 C 17.351562 80.519531 77.683594 73.113281 48.480469 37.09375 C 22.269531 50.3125 32.332031 38.242188 12.015625 57.1875 Z M 11.371094 44.75 "/>
</g>
<path fill-rule="nonzero" fill="rgb(94.999695%, 94.999695%, 94.999695%)" fill-opacity="1" d="M 12.546875 45.675781 C 12.546875 45.179688 12.144531 44.78125 11.652344 44.78125 C 11.160156 44.78125 10.757812 45.179688 10.757812 45.675781 C 10.757812 46.167969 11.160156 46.566406 11.652344 46.566406 C 12.144531 46.566406 12.546875 46.167969 12.546875 45.675781 Z M 12.824219 47.40625 C 12.824219 46.914062 12.425781 46.511719 11.929688 46.511719 C 11.4375 46.511719 11.039062 46.914062 11.039062 47.40625 C 11.039062 47.898438 11.4375 48.300781 11.929688 48.300781 C 12.425781 48.300781 12.824219 47.898438 12.824219 47.40625 Z M 13.105469 49.082031 C 13.105469 48.589844 12.703125 48.1875 12.210938 48.1875 C 11.71875 48.1875 11.316406 48.589844 11.316406 49.082031 C 11.316406 49.578125 11.71875 49.976562 12.210938 49.976562 C 12.703125 49.976562 13.105469 49.578125 13.105469 49.082031 Z M 13.664062 50.730469 C 13.664062 50.238281 13.261719 49.835938 12.769531 49.835938 C 12.277344 49.835938 11.875 50.238281 11.875 50.730469 C 11.875 51.226562 12.277344 51.625 12.769531 51.625 C 13.261719 51.625 13.664062 51.226562 13.664062 50.730469 Z M 14.851562 52.015625 C 14.851562 51.523438 14.453125 51.125 13.957031 51.125 C 13.464844 51.125 13.0625 51.523438 13.0625 52.015625 C 13.0625 52.511719 13.464844 52.910156 13.957031 52.910156 C 14.453125 52.910156 14.851562 52.511719 14.851562 52.015625 Z M 16.597656 52.015625 C 16.597656 51.523438 16.199219 51.125 15.703125 51.125 C 15.210938 51.125 14.808594 51.523438 14.808594 52.015625 C 14.808594 52.511719 15.210938 52.910156 15.703125 52.910156 C 16.199219 52.910156 16.597656 52.511719 16.597656 52.015625 Z M 18.136719 51.320312 C 18.136719 50.824219 17.734375 50.425781 17.242188 50.425781 C 16.746094 50.425781 16.347656 50.824219 16.347656 51.320312 C 16.347656 51.8125 16.746094 52.210938 17.242188 52.210938 C 17.734375 52.210938 18.136719 51.8125 18.136719 51.320312 Z M 19.53125 50.339844 C 19.53125 49.847656 19.132812 49.445312 18.636719 49.445312 C 18.144531 49.445312 17.742188 49.847656 17.742188 50.339844 C 17.742188 50.835938 18.144531 51.234375 18.636719 51.234375 C 19.132812 51.234375 19.53125 50.835938 19.53125 50.339844 Z M 20.929688 49.363281 C 20.929688 48.867188 20.527344 48.46875 20.035156 48.46875 C 19.542969 48.46875 19.140625 48.867188 19.140625 49.363281 C 19.140625 49.855469 19.542969 50.257812 20.035156 50.257812 C 20.527344 50.257812 20.929688 49.855469 20.929688 49.363281 Z M 22.328125 48.246094 C 22.328125 47.75 21.925781 47.351562 21.433594 47.351562 C 20.9375 47.351562 20.539062 47.75 20.539062 48.246094 C 20.539062 48.738281 20.9375 49.140625 21.433594 49.140625 C 21.925781 49.140625 22.328125 48.738281 22.328125 48.246094 Z M 23.722656 47.40625 C 23.722656 46.914062 23.324219 46.511719 22.828125 46.511719 C 22.335938 46.511719 21.933594 46.914062 21.933594 47.40625 C 21.933594 47.898438 22.335938 48.300781 22.828125 48.300781 C 23.324219 48.300781 23.722656 47.898438 23.722656 47.40625 Z M 25.121094 46.566406 C 25.121094 46.074219 24.71875 45.675781 24.226562 45.675781 C 23.734375 45.675781 23.332031 46.074219 23.332031 46.566406 C 23.332031 47.0625 23.734375 47.460938 24.226562 47.460938 C 24.71875 47.460938 25.121094 47.0625 25.121094 46.566406 Z M 26.519531 45.730469 C 26.519531 45.234375 26.117188 44.835938 25.625 44.835938 C 25.128906 44.835938 24.730469 45.234375 24.730469 45.730469 C 24.730469 46.222656 25.128906 46.625 25.625 46.625 C 26.117188 46.625 26.519531 46.222656 26.519531 45.730469 Z M 28.054688 45.171875 C 28.054688 44.675781 27.65625 44.277344 27.160156 44.277344 C 26.667969 44.277344 26.265625 44.675781 26.265625 45.171875 C 26.265625 45.664062 26.667969 46.066406 27.160156 46.066406 C 27.65625 46.066406 28.054688 45.664062 28.054688 45.171875 Z M 29.59375 44.613281 C 29.59375 44.117188 29.191406 43.71875 28.699219 43.71875 C 28.203125 43.71875 27.804688 44.117188 27.804688 44.613281 C 27.804688 45.105469 28.203125 45.507812 28.699219 45.507812 C 29.191406 45.507812 29.59375 45.105469 29.59375 44.613281 Z M 31.128906 44.191406 C 31.128906 43.699219 30.726562 43.300781 30.234375 43.300781 C 29.742188 43.300781 29.339844 43.699219 29.339844 44.191406 C 29.339844 44.6875 29.742188 45.085938 30.234375 45.085938 C 30.726562 45.085938 31.128906 44.6875 31.128906 44.191406 Z M 32.664062 43.773438 C 32.664062 43.28125 32.265625 42.878906 31.773438 42.878906 C 31.277344 42.878906 30.878906 43.28125 30.878906 43.773438 C 30.878906 44.269531 31.277344 44.667969 31.773438 44.667969 C 32.265625 44.667969 32.664062 44.269531 32.664062 43.773438 Z M 34.203125 43.355469 C 34.203125 42.859375 33.800781 42.460938 33.308594 42.460938 C 32.816406 42.460938 32.414062 42.859375 32.414062 43.355469 C 32.414062 43.847656 32.816406 44.25 33.308594 44.25 C 33.800781 44.25 34.203125 43.847656 34.203125 43.355469 Z M 35.738281 42.933594 C 35.738281 42.441406 35.339844 42.042969 34.84375 42.042969 C 34.351562 42.042969 33.953125 42.441406 33.953125 42.933594 C 33.953125 43.429688 34.351562 43.828125 34.84375 43.828125 C 35.339844 43.828125 35.738281 43.429688 35.738281 42.933594 Z M 35.738281 42.933594 "/>
<path fill-rule="nonzero" fill="rgb(69.999695%, 69.999695%, 69.999695%)" fill-opacity="1" d="M 36.652344 37.136719 C 38.328125 36.179688 38.753906 30.457031 37.761719 26.472656 C 32.6875 6.796875 4.214844 13.289062 9.28125 32.296875 C 9.820312 24.46875 18.417969 18.070312 24.210938 23.503906 C 31.886719 30.707031 34.890625 38.144531 36.652344 37.136719 Z M 36.652344 37.136719 "/>
<path fill-rule="nonzero" fill="rgb(50.509644%, 72.370911%, 71.546936%)" fill-opacity="1" d="M 19.507812 71.855469 L 39.351562 68.09375 L 34.886719 56.945312 L 19.566406 59.554688 Z M 19.507812 71.855469 "/>
<path fill-rule="nonzero" fill="rgb(35.354614%, 50.65918%, 50.083923%)" fill-opacity="1" d="M 22.429688 64.582031 C 19.648438 49.332031 30.644531 46.792969 33.632812 62.34375 L 31.332031 62.785156 C 29.109375 51.730469 22.972656 51.925781 24.71875 64.070312 Z M 22.429688 64.582031 "/>
<path fill-rule="nonzero" fill="rgb(69.999695%, 69.999695%, 69.999695%)" fill-opacity="1" d="M 21.398438 50.753906 L 13.296875 64.789062 L 15.714844 66.1875 L 23.820312 52.152344 Z M 21.398438 50.753906 "/>
<path fill-rule="nonzero" fill="rgb(35.293579%, 29.804993%, 71.763611%)" fill-opacity="1" d="M 21.089844 51.375 C 21.144531 50.46875 21.335938 49.570312 21.382812 48.660156 C 21.324219 48.433594 21.335938 48.046875 21.679688 48.121094 C 21.988281 48.164062 21.933594 48.527344 21.761719 48.691406 C 21.683594 48.984375 21.722656 49.296875 21.714844 49.597656 C 21.71875 49.730469 21.707031 50.144531 21.855469 49.84375 C 22.007812 49.578125 22.183594 49.316406 22.265625 49.015625 C 22.195312 48.757812 22.464844 48.464844 22.710938 48.65625 C 22.976562 48.832031 22.71875 49.09375 22.589844 49.253906 C 22.484375 49.667969 22.421875 50.097656 22.375 50.523438 C 22.546875 50.527344 22.730469 50.246094 22.890625 50.128906 C 23.054688 49.957031 23.261719 49.816406 23.378906 49.605469 C 23.371094 49.375 23.550781 49.109375 23.804688 49.238281 C 24.070312 49.339844 23.972656 49.695312 23.765625 49.800781 C 23.648438 50.117188 23.617188 50.460938 23.558594 50.789062 C 23.539062 50.910156 23.460938 51.285156 23.671875 51.070312 C 23.960938 50.8125 24.253906 50.550781 24.507812 50.257812 C 24.535156 50.042969 24.667969 49.707031 24.953125 49.851562 C 25.242188 49.992188 25.105469 50.328125 24.875 50.433594 C 24.683594 50.722656 24.523438 51.035156 24.382812 51.355469 C 24.4375 51.429688 24.695312 51.175781 24.828125 51.109375 C 25.035156 50.941406 25.296875 50.820312 25.441406 50.589844 C 25.46875 50.308594 25.859375 50.183594 25.992188 50.460938 C 26.15625 50.753906 25.777344 50.851562 25.605469 50.984375 C 24.898438 51.53125 24.269531 52.167969 23.554688 52.707031 C 22.1875 52.644531 21.519531 52.066406 21.089844 51.375 Z M 21.089844 51.375 "/>
<g clip-path="url(#clip-3)">
<path fill-rule="nonzero" fill="rgb(35.293579%, 29.804993%, 71.763611%)" fill-opacity="1" d="M 16.042969 16.808594 C 16.226562 15.570312 16.449219 14.3125 16.359375 13.066406 C 15.789062 10.9375 14.230469 9.164062 13.9375 6.957031 C 13.714844 5.039062 14.914062 2.984375 16.855469 2.539062 C 18.773438 1.976562 20.621094 3.09375 22.046875 4.273438 C 22.785156 4.746094 23.496094 5.832031 24.1875 6.039062 C 24.292969 4.804688 24.410156 3.5 25.1875 2.46875 C 25.769531 1.582031 26.714844 0.359375 27.914062 0.792969 C 29.011719 1.429688 29.476562 2.765625 29.753906 3.933594 C 30.027344 4.949219 29.359375 6.234375 29.394531 7 C 31.351562 5.984375 33.578125 4.976562 35.835938 5.539062 C 37.617188 5.941406 39.214844 7.632812 39.015625 9.535156 C 39.203125 11.195312 37.9375 12.535156 36.820312 13.578125 C 35.910156 14.472656 34.816406 15.257812 34.207031 16.394531 C 33.738281 17.574219 33.460938 18.824219 33.273438 20.078125 C 29.035156 21.007812 24.46875 21.167969 20.347656 19.628906 C 18.734375 19.007812 17.238281 18.066406 16.042969 16.808594 Z M 16.042969 16.808594 "/>
</g>
</svg>
