<?xml version="1.0" encoding="UTF-8"?>
<svg xmlns="http://www.w3.org/2000/svg" xmlns:xlink="http://www.w3.org/1999/xlink" width="57.175" height="76.827" viewBox="0 0 57.175 76.827">
<defs>
<clipPath id="clip-0">
<path clip-rule="nonzero" d="M 0 0.460938 L 56.363281 0.460938 L 56.363281 76.195312 L 0 76.195312 Z M 0 0.460938 "/>
</clipPath>
<clipPath id="clip-1">
<path clip-rule="nonzero" d="M 0 39 L 56.363281 39 L 56.363281 76.195312 L 0 76.195312 Z M 0 39 "/>
</clipPath>
<clipPath id="clip-2">
<path clip-rule="nonzero" d="M 17 0.460938 L 53 0.460938 L 53 31 L 17 31 Z M 17 0.460938 "/>
</clipPath>
</defs>
<g clip-path="url(#clip-0)">
<path fill-rule="nonzero" fill="rgb(89.99939%, 89.99939%, 89.99939%)" fill-opacity="1" d="M 0 76.195312 L 56.363281 76.195312 L 56.363281 0.460938 L 0 0.460938 Z M 0 76.195312 "/>
</g>
<g clip-path="url(#clip-1)">
<path fill-rule="nonzero" fill="rgb(92.871094%, 83.229065%, 14.369202%)" fill-opacity="1" d="M 12.015625 46.996094 C 5.140625 48.195312 -5.8125 60.632812 5.757812 71.695312 C 17.351562 82.761719 77.683594 75.355469 48.480469 39.335938 C 23.890625 52.554688 32.332031 40.457031 12.015625 46.996094 Z M 12.015625 46.996094 "/>
</g>
<path fill-rule="nonzero" fill="rgb(92.871094%, 83.229065%, 14.369202%)" fill-opacity="1" d="M 36.800781 37.074219 C 36.800781 27.429688 30.546875 19.609375 22.828125 19.609375 C 15.113281 19.609375 8.859375 27.429688 8.859375 37.074219 C 8.859375 46.71875 15.113281 54.539062 22.828125 54.539062 C 30.546875 54.539062 36.800781 46.71875 36.800781 37.074219 Z M 36.800781 37.074219 "/>
<path fill-rule="nonzero" fill="rgb(87.5%, 50%, 12.5%)" fill-opacity="1" d="M 9.027344 37.855469 C 15.648438 36.238281 12.796875 42.578125 23.109375 40.707031 C 0 55.238281 5.195312 40.734375 9.027344 37.855469 Z M 9.027344 37.855469 "/>
<path fill-rule="nonzero" fill="rgb(100%, 99.234009%, 85.00061%)" fill-opacity="1" d="M 22.957031 35.628906 C 23.617188 33.816406 23.101562 31.964844 21.808594 31.492188 C 20.511719 31.023438 18.925781 32.109375 18.269531 33.921875 C 17.609375 35.734375 18.121094 37.585938 19.417969 38.058594 C 20.710938 38.53125 22.296875 37.441406 22.957031 35.628906 Z M 22.957031 35.628906 "/>
<path fill-rule="nonzero" fill="rgb(0%, 0%, 0%)" fill-opacity="1" d="M 22.242188 35.667969 C 22.621094 34.632812 22.503906 33.640625 21.988281 33.449219 C 21.46875 33.261719 20.742188 33.949219 20.367188 34.984375 C 19.992188 36.019531 20.105469 37.011719 20.621094 37.199219 C 21.140625 37.386719 21.867188 36.703125 22.242188 35.667969 Z M 22.242188 35.667969 "/>
<path fill-rule="nonzero" fill="rgb(100%, 99.234009%, 85.00061%)" fill-opacity="1" d="M 14.800781 33.476562 C 15.402344 31.820312 14.96875 30.140625 13.828125 29.726562 C 12.6875 29.308594 11.273438 30.316406 10.671875 31.976562 C 10.066406 33.632812 10.503906 35.3125 11.640625 35.726562 C 12.78125 36.144531 14.195312 35.136719 14.800781 33.476562 Z M 14.800781 33.476562 "/>
<path fill-rule="nonzero" fill="rgb(0%, 0%, 0%)" fill-opacity="1" d="M 14.179688 33.550781 C 14.515625 32.617188 14.457031 31.738281 14.042969 31.585938 C 13.625 31.4375 13.015625 32.070312 12.675781 33.003906 C 12.335938 33.933594 12.398438 34.8125 12.8125 34.964844 C 13.226562 35.117188 13.839844 34.480469 14.179688 33.550781 Z M 14.179688 33.550781 "/>
<g clip-path="url(#clip-2)">
<path fill-rule="nonzero" fill="rgb(69.999695%, 0%, 0%)" fill-opacity="1" d="M 29.101562 0.597656 C 34.265625 1.304688 37.640625 2.542969 41.511719 5.113281 C 43.613281 6.507812 46.792969 9.652344 48.285156 11.769531 C 50.347656 14.738281 51.859375 18.25 52.664062 22.023438 C 53.058594 23.808594 53 24.023438 51.976562 24.4375 C 51.230469 24.75 51.230469 24.988281 51.976562 25.261719 C 52.3125 25.359375 52.664062 25.617188 52.761719 25.8125 C 53 26.242188 53.039062 30.917969 52.800781 30.917969 C 52.644531 30.917969 50.878906 30.015625 49.71875 29.347656 C 47.894531 28.304688 46.558594 27.738281 45.242188 27.460938 C 43.554688 27.109375 43.535156 27.089844 43.535156 26.441406 C 43.535156 26.144531 43.355469 25.105469 43.140625 24.125 C 41.863281 18.035156 38.429688 13.578125 33.421875 11.515625 C 31.769531 10.828125 30.554688 10.535156 28.296875 10.238281 L 26.605469 10.003906 L 26.175781 8.824219 C 25.074219 5.800781 22.972656 3.9375 19.105469 2.542969 L 17.355469 1.914062 L 18.910156 1.5 C 19.773438 1.285156 20.988281 0.992188 21.636719 0.871094 C 22.875 0.65625 28.078125 0.460938 29.101562 0.597656 Z M 29.101562 0.597656 "/>
</g>
<path fill-rule="nonzero" fill="rgb(0%, 0%, 0%)" fill-opacity="1" d="M 28.117188 11.0625 L 28.902344 11.183594 L 28.84375 12.457031 C 28.804688 13.164062 28.746094 13.753906 28.726562 13.792969 C 28.6875 13.8125 28.136719 13.773438 27.46875 13.714844 L 26.253906 13.578125 L 26.253906 12.734375 C 26.253906 12.261719 26.351562 11.652344 26.488281 11.378906 C 26.722656 10.867188 26.78125 10.867188 28.117188 11.0625 Z M 28.117188 11.0625 "/>
<path fill-rule="nonzero" fill="rgb(0%, 0%, 0%)" fill-opacity="1" d="M 30.847656 11.652344 C 30.90625 11.75 31.203125 11.890625 31.496094 11.96875 C 32.457031 12.203125 32.515625 12.359375 32.105469 13.578125 C 31.890625 14.207031 31.671875 14.757812 31.632812 14.796875 C 31.59375 14.835938 31.0625 14.71875 30.476562 14.519531 C 29.6875 14.246094 29.414062 14.070312 29.472656 13.832031 C 29.53125 13.675781 29.628906 13.222656 29.6875 12.851562 C 29.886719 11.871094 30.554688 11.183594 30.847656 11.652344 Z M 30.847656 11.652344 "/>
<path fill-rule="nonzero" fill="rgb(0%, 0%, 0%)" fill-opacity="1" d="M 35.265625 13.617188 C 35.71875 13.96875 35.738281 14.03125 35.523438 14.796875 C 35.089844 16.191406 34.007812 16.582031 32.949219 15.679688 C 32.164062 15.03125 32.183594 14.597656 33.027344 13.851562 C 33.832031 13.144531 34.558594 13.066406 35.265625 13.617188 Z M 35.265625 13.617188 "/>
<path fill-rule="nonzero" fill="rgb(0%, 0%, 0%)" fill-opacity="1" d="M 28.824219 14.914062 C 31.535156 15.445312 33.929688 16.777344 35.660156 18.664062 C 36.875 20 37.664062 21.355469 38.347656 23.355469 C 38.839844 24.789062 38.898438 25.183594 38.898438 27.777344 C 38.917969 29.976562 38.839844 30.878906 38.566406 31.761719 C 38.171875 33.058594 38.074219 32.824219 39.703125 34.746094 C 40.765625 35.984375 42.082031 37.871094 42.609375 38.871094 C 42.984375 39.617188 43.652344 41.757812 43.808594 42.71875 C 43.925781 43.425781 43.90625 43.445312 43.003906 43.839844 C 41.097656 44.644531 38.78125 45.117188 34.617188 45.527344 C 33.578125 45.644531 33.480469 45.625 33.617188 45.3125 C 33.675781 45.117188 33.871094 44.289062 34.050781 43.484375 C 34.636719 40.5 33.949219 36.90625 32.339844 34.550781 C 31.847656 33.824219 31.808594 33.667969 31.910156 32.273438 C 32.066406 29.621094 31.59375 28.972656 29.710938 29.328125 L 28.804688 29.484375 L 28.609375 28.777344 C 28.511719 28.382812 28.414062 27.796875 28.414062 27.460938 C 28.414062 27.128906 28.355469 26.304688 28.296875 25.65625 L 28.15625 24.457031 L 26.761719 23.90625 C 25.015625 23.21875 22.382812 21.648438 20.007812 19.882812 C 17.457031 17.957031 17.199219 17.347656 18.652344 16.484375 C 21.382812 14.894531 25.527344 14.265625 28.824219 14.914062 Z M 28.824219 14.914062 "/>
<path fill-rule="nonzero" fill="rgb(0%, 0%, 0%)" fill-opacity="1" d="M 15.667969 15.246094 C 16.492188 17.367188 19.046875 20.332031 21.324219 21.863281 C 22.699219 22.808594 25.269531 24.0625 26.585938 24.457031 C 27.3125 24.652344 27.449219 24.789062 27.628906 25.398438 C 27.726562 25.792969 27.824219 26.695312 27.824219 27.421875 C 27.824219 28.523438 27.765625 28.757812 27.507812 28.757812 C 26.863281 28.757812 13.15625 25.164062 11.386719 24.535156 C 11.230469 24.476562 11.347656 24.222656 11.742188 23.808594 C 13.175781 22.238281 14.371094 19.117188 14.960938 15.445312 C 15.117188 14.460938 15.316406 14.402344 15.667969 15.246094 Z M 15.667969 15.246094 "/>
<path fill-rule="nonzero" fill="rgb(0%, 0%, 0%)" fill-opacity="1" d="M 37.601562 15.777344 C 38.054688 16.171875 38.429688 16.5625 38.429688 16.621094 C 38.429688 16.875 36.875 18.351562 36.601562 18.351562 C 36.464844 18.351562 36.050781 18.054688 35.699219 17.683594 C 35.109375 17.074219 35.070312 16.976562 35.324219 16.523438 C 35.460938 16.269531 35.855469 15.816406 36.167969 15.542969 L 36.757812 15.050781 Z M 37.601562 15.777344 "/>
<path fill-rule="nonzero" fill="rgb(0%, 0%, 0%)" fill-opacity="1" d="M 39.527344 18.132812 C 39.902344 18.308594 40.390625 19.234375 40.390625 19.804688 C 40.390625 19.941406 39.980469 20.253906 39.449219 20.511719 C 38.9375 20.785156 38.46875 21.019531 38.410156 21.039062 C 38.347656 21.078125 38.015625 20.648438 37.664062 20.097656 L 36.996094 19.097656 L 37.464844 18.625 C 37.996094 18.09375 38.917969 17.878906 39.527344 18.132812 Z M 39.527344 18.132812 "/>
<path fill-rule="nonzero" fill="rgb(0%, 0%, 0%)" fill-opacity="1" d="M 41.277344 21.21875 C 41.355469 21.433594 41.53125 21.84375 41.6875 22.140625 C 42.179688 23.121094 42.0625 23.316406 40.804688 23.710938 C 40.15625 23.925781 39.546875 24.023438 39.449219 23.964844 C 39.195312 23.808594 38.742188 22.160156 38.878906 21.824219 C 38.9375 21.6875 39.351562 21.453125 39.800781 21.316406 C 40.253906 21.175781 40.746094 21.019531 40.902344 20.960938 C 41.058594 20.902344 41.214844 21.019531 41.277344 21.21875 Z M 41.277344 21.21875 "/>
<path fill-rule="nonzero" fill="rgb(0%, 0%, 0%)" fill-opacity="1" d="M 42.492188 25.597656 L 42.667969 26.734375 L 41.394531 27.050781 C 40.667969 27.226562 40.039062 27.304688 39.980469 27.226562 C 39.902344 27.148438 39.800781 26.597656 39.761719 25.988281 L 39.683594 24.910156 L 40.6875 24.671875 C 42.277344 24.300781 42.277344 24.300781 42.492188 25.597656 Z M 42.492188 25.597656 "/>
</svg>
