<?xml version="1.0" encoding="UTF-8"?>
<svg xmlns="http://www.w3.org/2000/svg" xmlns:xlink="http://www.w3.org/1999/xlink" width="57.175" height="57.401" viewBox="0 0 57.175 57.401">
<defs>
<clipPath id="clip-0">
<path clip-rule="nonzero" d="M 0 0.113281 L 56.363281 0.113281 L 56.363281 56.699219 L 0 56.699219 Z M 0 0.113281 "/>
</clipPath>
<clipPath id="clip-1">
<path clip-rule="nonzero" d="M 0 19 L 56.363281 19 L 56.363281 56.699219 L 0 56.699219 Z M 0 19 "/>
</clipPath>
<clipPath id="clip-2">
<path clip-rule="nonzero" d="M 8 0.113281 L 37 0.113281 L 37 36 L 8 36 Z M 8 0.113281 "/>
</clipPath>
</defs>
<g clip-path="url(#clip-0)">
<path fill-rule="nonzero" fill="rgb(89.99939%, 89.99939%, 89.99939%)" fill-opacity="1" d="M 0 56.699219 L 56.363281 56.699219 L 56.363281 0.113281 L 0 0.113281 Z M 0 56.699219 "/>
</g>
<g clip-path="url(#clip-1)">
<path fill-rule="nonzero" fill="rgb(92.871094%, 83.229065%, 14.369202%)" fill-opacity="1" d="M 12.015625 27.496094 C 5.140625 28.699219 -5.8125 41.132812 5.757812 52.199219 C 17.351562 63.265625 77.683594 55.859375 48.480469 19.839844 C 23.890625 33.058594 32.332031 20.957031 12.015625 27.496094 Z M 12.015625 27.496094 "/>
</g>
<g clip-path="url(#clip-2)">
<path fill-rule="nonzero" fill="rgb(92.871094%, 83.229065%, 14.369202%)" fill-opacity="1" d="M 36.800781 17.578125 C 36.800781 7.929688 30.546875 0.113281 22.828125 0.113281 C 15.113281 0.113281 8.859375 7.929688 8.859375 17.578125 C 8.859375 27.222656 15.113281 35.042969 22.828125 35.042969 C 30.546875 35.042969 36.800781 27.222656 36.800781 17.578125 Z M 36.800781 17.578125 "/>
</g>
<path fill-rule="nonzero" fill="rgb(87.5%, 50%, 12.5%)" fill-opacity="1" d="M 9.027344 18.359375 C 15.648438 16.738281 15.648438 16.738281 20.035156 23.164062 C 0 35.738281 5.195312 21.238281 9.027344 18.359375 Z M 9.027344 18.359375 "/>
<path fill-rule="nonzero" fill="rgb(92.871094%, 83.229065%, 14.369202%)" fill-opacity="1" d="M 22.957031 16.132812 C 23.617188 14.320312 23.101562 12.46875 21.808594 11.996094 C 20.511719 11.523438 18.925781 12.613281 18.269531 14.425781 C 17.609375 16.238281 18.121094 18.089844 19.417969 18.5625 C 20.710938 19.03125 22.296875 17.945312 22.957031 16.132812 Z M 22.957031 16.132812 "/>
<path fill-rule="nonzero" fill="rgb(0%, 0%, 0%)" fill-opacity="1" d="M 22.242188 16.167969 C 22.621094 15.132812 22.503906 14.140625 21.988281 13.953125 C 21.46875 13.765625 20.742188 14.449219 20.367188 15.484375 C 19.992188 16.523438 20.105469 17.515625 20.621094 17.703125 C 21.140625 17.890625 21.867188 17.203125 22.242188 16.167969 Z M 22.242188 16.167969 "/>
<path fill-rule="nonzero" fill="rgb(92.871094%, 83.229065%, 14.369202%)" fill-opacity="1" d="M 14.800781 13.980469 C 15.402344 12.324219 14.96875 10.640625 13.828125 10.226562 C 12.6875 9.8125 11.273438 10.820312 10.671875 12.476562 C 10.066406 14.136719 10.503906 15.816406 11.640625 16.230469 C 12.78125 16.644531 14.195312 15.636719 14.800781 13.980469 Z M 14.800781 13.980469 "/>
<path fill-rule="nonzero" fill="rgb(0%, 0%, 0%)" fill-opacity="1" d="M 14.179688 14.050781 C 14.515625 13.121094 14.457031 12.242188 14.042969 12.089844 C 13.625 11.9375 13.015625 12.574219 12.675781 13.503906 C 12.335938 14.4375 12.398438 15.316406 12.8125 15.464844 C 13.226562 15.617188 13.839844 14.984375 14.179688 14.050781 Z M 14.179688 14.050781 "/>
<path fill-rule="nonzero" fill="rgb(100%, 99.234009%, 85.00061%)" fill-opacity="1" d="M 23.167969 16.386719 C 23.828125 14.574219 22.871094 13.671875 21.578125 13.199219 C 20.28125 12.730469 19.0625 13.449219 18.476562 14.675781 C 17.8125 16.492188 18.332031 18.34375 19.625 18.816406 C 20.921875 19.285156 22.507812 18.199219 23.167969 16.386719 Z M 15.003906 14.230469 C 15.605469 12.574219 15.171875 11.550781 14.03125 11.140625 C 12.890625 10.722656 11.476562 11.070312 10.871094 12.730469 C 10.269531 14.386719 10.703125 16.066406 11.84375 16.484375 C 12.984375 16.898438 14.398438 15.890625 15.003906 14.230469 Z M 15.003906 14.230469 "/>
<path fill-rule="nonzero" fill="rgb(0%, 0%, 0%)" fill-opacity="1" d="M 22.242188 16.167969 C 22.621094 15.132812 22.503906 14.140625 21.988281 13.953125 C 21.46875 13.765625 20.742188 14.449219 20.367188 15.484375 C 19.992188 16.523438 20.105469 17.515625 20.621094 17.703125 C 21.140625 17.890625 21.867188 17.203125 22.242188 16.167969 Z M 22.242188 16.167969 "/>
<path fill-rule="nonzero" fill="rgb(0%, 0%, 0%)" fill-opacity="1" d="M 14.179688 14.050781 C 14.515625 13.121094 14.457031 12.242188 14.042969 12.089844 C 13.625 11.9375 13.015625 12.574219 12.675781 13.503906 C 12.335938 14.4375 12.398438 15.316406 12.8125 15.464844 C 13.226562 15.617188 13.839844 14.984375 14.179688 14.050781 Z M 14.179688 14.050781 "/>
<path fill-rule="nonzero" fill="rgb(83.602905%, 68.409729%, 28.555298%)" fill-opacity="1" d="M 25.003906 12.347656 C 22.859375 12.679688 22.101562 11.902344 21.519531 10.292969 C 20.128906 12.453125 24.007812 14.289062 25.003906 12.347656 Z M 15.085938 8.09375 C 14.171875 9.691406 12.824219 9.9375 11.558594 9.058594 C 12.246094 11.148438 15.3125 10.410156 15.085938 8.09375 Z M 15.085938 8.09375 "/>
<path fill-rule="nonzero" fill="rgb(50%, 83.918762%, 96.864319%)" fill-opacity="1" d="M 22.902344 20.570312 C 23.207031 21.191406 22.519531 21.847656 22.042969 21.847656 C 21.570312 21.847656 20.882812 21.191406 21.1875 20.570312 C 21.484375 19.957031 21.570312 19.953125 22.042969 19.285156 C 22.347656 20.09375 22.5625 19.863281 22.902344 20.570312 Z M 24.222656 23.359375 C 24.527344 23.984375 23.839844 24.640625 23.367188 24.640625 C 22.890625 24.640625 22.203125 23.980469 22.507812 23.359375 C 22.808594 22.746094 22.890625 22.742188 23.367188 22.078125 C 23.667969 22.886719 23.882812 22.652344 24.222656 23.359375 Z M 24.222656 23.359375 "/>
</svg>
