<?xml version="1.0" encoding="UTF-8"?>
<svg xmlns="http://www.w3.org/2000/svg" xmlns:xlink="http://www.w3.org/1999/xlink" width="57.175" height="60.945" viewBox="0 0 57.175 60.945">
<defs>
<clipPath id="clip-0">
<path clip-rule="nonzero" d="M 0 0.40625 L 56.363281 0.40625 L 56.363281 60.484375 L 0 60.484375 Z M 0 0.40625 "/>
</clipPath>
<clipPath id="clip-1">
<path clip-rule="nonzero" d="M 0 23 L 56.363281 23 L 56.363281 60.484375 L 0 60.484375 Z M 0 23 "/>
</clipPath>
<clipPath id="clip-2">
<path clip-rule="nonzero" d="M 0 23 L 56.363281 23 L 56.363281 60.484375 L 0 60.484375 Z M 0 23 "/>
</clipPath>
<clipPath id="clip-3">
<path clip-rule="nonzero" d="M 8 0.40625 L 49 0.40625 L 49 43 L 8 43 Z M 8 0.40625 "/>
</clipPath>
</defs>
<g clip-path="url(#clip-0)">
<path fill-rule="nonzero" fill="rgb(89.99939%, 89.99939%, 89.99939%)" fill-opacity="1" d="M 0 60.484375 L 56.363281 60.484375 L 56.363281 0.40625 L 0 0.40625 Z M 0 60.484375 "/>
</g>
<g clip-path="url(#clip-1)">
<path fill-rule="nonzero" fill="rgb(94.119263%, 87.120056%, 57.711792%)" fill-opacity="1" d="M 12.015625 31.285156 C 5.140625 32.484375 -5.8125 44.921875 5.757812 55.984375 C 17.351562 67.050781 77.683594 59.644531 48.480469 23.628906 C 23.890625 36.84375 32.332031 24.746094 12.015625 31.285156 Z M 12.015625 31.285156 "/>
</g>
<path fill-rule="nonzero" fill="rgb(94.119263%, 87.120056%, 57.711792%)" fill-opacity="1" d="M 36.800781 21.363281 C 36.800781 11.71875 30.546875 3.898438 22.828125 3.898438 C 15.113281 3.898438 8.859375 11.71875 8.859375 21.363281 C 8.859375 31.007812 15.113281 38.828125 22.828125 38.828125 C 30.546875 38.828125 36.800781 31.007812 36.800781 21.363281 Z M 36.800781 21.363281 "/>
<path fill-rule="nonzero" fill="rgb(87.5%, 50%, 12.5%)" fill-opacity="1" d="M 9.027344 22.144531 C 15.648438 20.527344 12.796875 26.867188 23.109375 24.996094 C 0 39.527344 5.195312 25.023438 9.027344 22.144531 Z M 9.027344 22.144531 "/>
<path fill-rule="nonzero" fill="rgb(100%, 99.234009%, 85.00061%)" fill-opacity="1" d="M 22.957031 19.917969 C 23.617188 18.105469 23.101562 16.253906 21.808594 15.78125 C 20.511719 15.3125 18.925781 16.398438 18.269531 18.210938 C 17.609375 20.023438 18.121094 21.875 19.417969 22.347656 C 20.710938 22.820312 22.296875 21.730469 22.957031 19.917969 Z M 22.957031 19.917969 "/>
<path fill-rule="nonzero" fill="rgb(0%, 0%, 0%)" fill-opacity="1" d="M 22.242188 19.957031 C 22.621094 18.921875 22.503906 17.929688 21.988281 17.738281 C 21.46875 17.550781 20.742188 18.238281 20.367188 19.273438 C 19.992188 20.308594 20.105469 21.300781 20.621094 21.488281 C 21.140625 21.675781 21.867188 20.992188 22.242188 19.957031 Z M 22.242188 19.957031 "/>
<path fill-rule="nonzero" fill="rgb(100%, 99.234009%, 85.00061%)" fill-opacity="1" d="M 14.800781 17.765625 C 15.402344 16.109375 14.96875 14.429688 13.828125 14.015625 C 12.6875 13.597656 11.273438 14.605469 10.671875 16.265625 C 10.066406 17.921875 10.503906 19.601562 11.640625 20.015625 C 12.78125 20.433594 14.195312 19.425781 14.800781 17.765625 Z M 14.800781 17.765625 "/>
<path fill-rule="nonzero" fill="rgb(0%, 0%, 0%)" fill-opacity="1" d="M 14.179688 17.839844 C 14.515625 16.90625 14.457031 16.027344 14.042969 15.875 C 13.625 15.726562 13.015625 16.359375 12.675781 17.292969 C 12.335938 18.222656 12.398438 19.101562 12.8125 19.253906 C 13.226562 19.40625 13.839844 18.769531 14.179688 17.839844 Z M 14.179688 17.839844 "/>
<g clip-path="url(#clip-2)">
<path fill-rule="nonzero" fill="rgb(0%, 0%, 50%)" fill-opacity="1" d="M 11.371094 31.285156 C 5.140625 32.484375 -5.8125 44.921875 5.757812 55.984375 C 17.351562 67.050781 77.683594 59.644531 48.480469 23.628906 C 22.269531 36.84375 32.332031 24.773438 12.015625 43.71875 Z M 11.371094 31.285156 "/>
</g>
<g clip-path="url(#clip-3)">
<path fill-rule="nonzero" fill="rgb(87.5%, 25%, 12.5%)" fill-opacity="1" d="M 38.222656 42.140625 C 40.003906 41.238281 41.980469 40.320312 43.082031 38.601562 C 41.996094 38.558594 38.828125 36.851562 41.234375 36.15625 C 43.277344 36.214844 45.230469 35.207031 46.0625 33.285156 C 47.785156 30.695312 44.113281 32.050781 43.164062 30.960938 C 44.773438 30.46875 47.53125 30.222656 48.324219 29.066406 C 45.246094 28.382812 41.519531 27.894531 39.773438 24.886719 C 38.53125 20.964844 38.746094 16.753906 37.75 12.769531 C 32.675781 -6.90625 4.207031 -0.414062 9.027344 18.59375 C 9.8125 10.765625 16.203125 4.234375 22.859375 8.570312 C 32.40625 14.707031 34.984375 23.558594 28.152344 33.628906 C 27.292969 35.03125 28.707031 37.667969 30.667969 39.050781 C 32.628906 40.4375 35.414062 41.335938 38.222656 42.140625 Z M 38.222656 42.140625 "/>
</g>
</svg>
