<?xml version="1.0" encoding="UTF-8"?>
<svg xmlns="http://www.w3.org/2000/svg" xmlns:xlink="http://www.w3.org/1999/xlink" width="285.876" height="287.007" viewBox="0 0 285.876 287.007">
<defs>
<clipPath id="clip-0">
<path clip-rule="nonzero" d="M 0.429688 0 L 285.320312 0 L 285.320312 286.015625 L 0.429688 286.015625 Z M 0.429688 0 "/>
</clipPath>
<clipPath id="clip-1">
<path clip-rule="nonzero" d="M 3 99 L 285.320312 99 L 285.320312 286.015625 L 3 286.015625 Z M 3 99 "/>
</clipPath>
<clipPath id="clip-2">
<path clip-rule="nonzero" d="M 3 99 L 285.320312 99 L 285.320312 286.015625 L 3 286.015625 Z M 3 99 "/>
</clipPath>
<clipPath id="clip-3">
<path clip-rule="nonzero" d="M 0.429688 40 L 174 40 L 174 286.015625 L 0.429688 286.015625 Z M 0.429688 40 "/>
</clipPath>
<clipPath id="clip-4">
<path clip-rule="nonzero" d="M 0.429688 1 L 285.320312 1 L 285.320312 286.015625 L 0.429688 286.015625 Z M 0.429688 1 "/>
</clipPath>
<clipPath id="clip-5">
<path clip-rule="nonzero" d="M 0.429688 125 L 181 125 L 181 193 L 0.429688 193 Z M 0.429688 125 "/>
</clipPath>
</defs>
<g clip-path="url(#clip-0)">
<path fill-rule="nonzero" fill="rgb(89.99939%, 89.99939%, 89.99939%)" fill-opacity="1" d="M 0.429688 286.015625 L 285.320312 286.015625 L 285.320312 0 L 0.429688 0 Z M 0.429688 286.015625 "/>
</g>
<g clip-path="url(#clip-1)">
<path fill-rule="nonzero" fill="rgb(92.871094%, 83.229065%, 14.369202%)" fill-opacity="1" d="M 61.167969 138.417969 C 26.421875 144.488281 -28.945312 207.34375 29.527344 263.277344 C 88.144531 319.210938 393.09375 281.78125 245.492188 99.714844 C 121.195312 166.523438 163.855469 105.367188 61.167969 138.417969 Z M 61.167969 138.417969 "/>
</g>
<path fill-rule="nonzero" fill="rgb(92.871094%, 83.229065%, 14.369202%)" fill-opacity="1" d="M 186.449219 88.273438 C 186.449219 39.519531 154.832031 -0.00390625 115.828125 -0.00390625 C 76.824219 -0.00390625 45.207031 39.519531 45.207031 88.273438 C 45.207031 137.03125 76.824219 176.554688 115.828125 176.554688 C 154.832031 176.554688 186.449219 137.03125 186.449219 88.273438 Z M 186.449219 88.273438 "/>
<path fill-rule="nonzero" fill="rgb(87.5%, 50%, 12.5%)" fill-opacity="1" d="M 46.054688 92.230469 C 79.53125 84.039062 65.121094 116.101562 117.242188 106.636719 C 0.429688 180.082031 26.703125 106.777344 46.054688 92.230469 Z M 46.054688 92.230469 "/>
<path fill-rule="nonzero" fill="rgb(100%, 99.234009%, 85.00061%)" fill-opacity="1" d="M 116.472656 80.96875 C 119.808594 71.808594 117.207031 62.449219 110.660156 60.066406 C 104.117188 57.683594 96.105469 63.179688 92.769531 72.34375 C 89.4375 81.507812 92.039062 90.867188 98.582031 93.246094 C 105.128906 95.628906 113.140625 90.132812 116.472656 80.96875 Z M 116.472656 80.96875 "/>
<path fill-rule="nonzero" fill="rgb(0%, 0%, 0%)" fill-opacity="1" d="M 112.859375 81.15625 C 114.765625 75.925781 114.1875 70.910156 111.570312 69.957031 C 108.953125 69.003906 105.289062 72.472656 103.382812 77.707031 C 101.476562 82.941406 102.054688 87.957031 104.671875 88.910156 C 107.289062 89.863281 110.957031 86.390625 112.859375 81.15625 Z M 112.859375 81.15625 "/>
<path fill-rule="nonzero" fill="rgb(100%, 99.234009%, 85.00061%)" fill-opacity="1" d="M 75.234375 70.09375 C 78.285156 61.714844 76.085938 53.222656 70.324219 51.125 C 64.566406 49.027344 57.421875 54.121094 54.371094 62.5 C 51.324219 70.878906 53.519531 79.371094 59.28125 81.46875 C 65.042969 83.566406 72.1875 78.472656 75.234375 70.09375 Z M 75.234375 70.09375 "/>
<path fill-rule="nonzero" fill="rgb(0%, 0%, 0%)" fill-opacity="1" d="M 72.097656 70.457031 C 73.8125 65.742188 73.503906 61.304688 71.410156 60.539062 C 69.3125 59.777344 66.222656 62.980469 64.507812 67.691406 C 62.792969 72.40625 63.101562 76.847656 65.195312 77.609375 C 67.292969 78.371094 70.382812 75.167969 72.097656 70.457031 Z M 72.097656 70.457031 "/>
<g clip-path="url(#clip-2)">
<path fill-rule="nonzero" fill="rgb(39.99939%, 0%, 0%)" fill-opacity="1" d="M 57.917969 138.417969 C 26.421875 144.488281 -28.945312 207.34375 29.527344 263.277344 C 88.144531 319.210938 393.09375 281.78125 245.492188 99.714844 C 121.195312 162.289062 163.855469 119.488281 72.042969 158.898438 Z M 57.917969 138.417969 "/>
</g>
<g clip-path="url(#clip-3)">
<path fill="none" stroke-width="7.97021" stroke-linecap="butt" stroke-linejoin="miter" stroke="rgb(59.999084%, 0%, 0%)" stroke-opacity="1" stroke-miterlimit="10" d="M 64.008179 147.914268 C 50.500668 139.623965 0.398232 94.084135 50.328199 45.071393 C 45.012997 93.319781 61.017398 119.609645 72.216167 133.69728 Z M 64.008179 147.914268 " transform="matrix(0.996552, 0, 0, -0.996552, -11.29139, 300.142553)"/>
</g>
<g clip-path="url(#clip-4)">
<path fill="none" stroke-width="7.97021" stroke-linecap="butt" stroke-linejoin="miter" stroke="rgb(59.999084%, 0%, 0%)" stroke-opacity="1" stroke-miterlimit="10" d="M 78.350599 31.877464 C 146.001823 11.976817 361.549702 38.580262 256.739105 186.774818 C 123.7062 119.695879 185.203393 167.215191 96.377598 129.85591 C 69.052916 88.032018 68.696218 49.336097 78.350599 31.877464 Z M 78.350599 31.877464 " transform="matrix(0.996552, 0, 0, -0.996552, -11.29139, 300.142553)"/>
</g>
<path fill-rule="nonzero" fill="rgb(59.999084%, 0%, 0%)" fill-opacity="1" stroke-width="0.3985" stroke-linecap="butt" stroke-linejoin="miter" stroke="rgb(59.999084%, 0%, 0%)" stroke-opacity="1" stroke-miterlimit="10" d="M 63.302621 33.61784 C 61.746474 33.44537 60.621502 32.046014 60.793971 30.489867 C 60.962521 28.93372 62.365797 27.808748 63.921944 27.981217 C 65.478091 28.153687 66.599143 29.553043 66.430593 31.10919 C 66.258124 32.665337 64.858768 33.786389 63.302621 33.61784 Z M 62.632341 40.665577 C 61.076194 40.520546 59.927703 39.140788 60.072735 37.584642 C 60.217766 36.024575 61.597523 34.880004 63.15759 35.021115 C 64.713736 35.166147 65.862228 36.545904 65.717196 38.10597 C 65.572165 39.666037 64.192408 40.810608 62.632341 40.665577 Z M 62.111012 47.732913 C 60.550946 47.61924 59.375016 46.263001 59.48477 44.702935 C 59.598443 43.138949 60.954682 41.963019 62.514748 42.076692 C 64.074815 42.186446 65.250744 43.542685 65.140991 45.106671 C 65.027318 46.666737 63.671079 47.842667 62.111012 47.732913 Z M 61.762153 54.808089 C 60.202087 54.733614 58.990879 53.408733 59.061435 51.844747 C 59.135911 50.280761 60.460791 49.073473 62.024778 49.144029 C 63.588764 49.214585 64.796051 50.539465 64.725496 52.103451 C 64.65494 53.667438 63.32614 54.878645 61.762153 54.808089 Z M 61.628881 61.891105 C 60.064895 61.867586 58.81449 60.577983 58.838009 59.013997 C 58.861527 57.446091 60.15113 56.199606 61.715116 56.223124 C 63.283022 56.246643 64.529507 57.532326 64.505989 59.100232 C 64.48247 60.664218 63.196787 61.914623 61.628881 61.891105 Z M 61.754314 68.97412 C 60.190328 69.009398 58.892885 67.766832 58.857607 66.202846 C 58.826249 64.63886 60.064895 63.341418 61.632801 63.30614 C 63.196787 63.274782 64.49423 64.513427 64.525588 66.081333 C 64.560866 67.64532 63.3183 68.938842 61.754314 68.97412 Z M 62.189408 76.045376 C 60.629341 76.15121 59.277022 74.967441 59.175108 73.407374 C 59.069275 71.843388 60.253044 70.494989 61.81311 70.389155 C 63.377097 70.287241 64.725496 71.467091 64.831329 73.031077 C 64.933243 74.591143 63.753394 75.943462 62.189408 76.045376 Z M 62.99296 83.085274 C 61.440733 83.269503 60.029617 82.16021 59.841468 80.607983 C 59.65724 79.051836 60.762613 77.64072 62.31876 77.456492 C 63.874907 77.268343 65.286022 78.377636 65.470251 79.929863 C 65.6584 81.48601 64.549106 82.897125 62.99296 83.085274 Z M 64.223766 90.062456 C 62.683298 90.344679 61.209466 89.32162 60.927243 87.785072 C 60.64502 86.244605 61.664159 84.766853 63.204627 84.48463 C 64.741175 84.202407 66.218926 85.221546 66.501149 86.762014 C 66.783372 88.302481 65.764233 89.780233 64.223766 90.062456 Z M 65.932783 96.937724 C 64.415834 97.32578 62.871447 96.412475 62.48339 94.895526 C 62.095333 93.378577 63.008639 91.83419 64.525588 91.446133 C 66.042537 91.058076 67.586924 91.971381 67.974981 93.48833 C 68.363038 95.00528 67.449732 96.549667 65.932783 96.937724 Z M 68.147451 103.66796 C 66.665779 104.16969 65.058676 103.373978 64.556946 101.892307 C 64.055216 100.406716 64.850928 98.799612 66.332599 98.297882 C 67.81819 97.796152 69.425294 98.591865 69.927024 100.077455 C 70.428754 101.559127 69.633041 103.16623 68.147451 103.66796 Z M 70.875607 110.210048 C 69.433133 110.825451 67.771153 110.155171 67.15575 108.712698 C 66.544267 107.274144 67.214546 105.608244 68.65702 104.996761 C 70.095574 104.381357 71.761474 105.055557 72.372957 106.494111 C 72.984441 107.936584 72.314161 109.598565 70.875607 110.210048 Z M 74.081975 116.532629 C 72.690458 117.249946 70.981441 116.705099 70.264124 115.313582 C 69.546807 113.922066 70.091654 112.213048 71.483171 111.495731 C 72.874687 110.778414 74.583705 111.323261 75.301022 112.714778 C 76.018339 114.106295 75.473491 115.815312 74.081975 116.532629 Z M 77.711677 122.620024 C 76.371118 123.431415 74.630742 123.000241 73.819351 121.659682 C 73.011879 120.323042 73.439133 118.578746 74.779693 117.771275 C 76.120253 116.959883 77.860628 117.387138 78.67202 118.727697 C 79.479491 120.068257 79.052237 121.808633 77.711677 122.620024 Z M 81.698078 128.480073 C 80.408476 129.36594 78.640662 129.040599 77.754795 127.750997 C 76.868928 126.461394 77.198188 124.6975 78.487791 123.807713 C 79.777393 122.921846 81.541288 123.251106 82.427155 124.540709 C 83.313021 125.830312 82.987681 127.594206 81.698078 128.480073 Z M 81.698078 128.480073 " transform="matrix(0.996552, 0, 0, -0.996552, -11.29139, 300.142553)"/>
<g clip-path="url(#clip-5)">
<path fill-rule="nonzero" fill="rgb(84.999084%, 69.999695%, 54.998779%)" fill-opacity="1" d="M 57.960938 137.78125 C 26.449219 143.855469 -0.554688 159.234375 -0.554688 159.234375 C -0.554688 159.234375 76.578125 150.917969 124.796875 192.738281 C 141.28125 138.96875 180.984375 125.734375 180.984375 125.734375 C 91.097656 145.632812 72.097656 158.261719 72.097656 158.261719 Z M 57.960938 137.78125 "/>
</g>
<path fill-rule="nonzero" fill="rgb(37.5%, 25%, 12.5%)" fill-opacity="1" d="M 179.574219 127.683594 C 191.539062 121.90625 203.5 102.085938 197.457031 92.046875 C 193.203125 84.984375 187.019531 81.960938 185.292969 70.929688 C 183.558594 59.898438 184.078125 41.394531 177.921875 32.933594 C 163.074219 12.523438 132.34375 -3.308594 108.171875 -1.121094 C 96.082031 -0.0195312 85.546875 2.453125 76.179688 9.96875 C 66.816406 17.46875 40.207031 30.433594 39.695312 42.933594 C 39.472656 48.570312 38.820312 54.007812 37.875 59.207031 C 36.929688 64.417969 32.945312 69.402344 31.519531 74.148438 C 30.109375 78.894531 31.25 83.417969 29.613281 87.695312 C 27.976562 91.960938 26.292969 96 24.683594 99.773438 C 17.917969 115.691406 30.644531 127.46875 47.410156 120.4375 C 33.3125 77.003906 69.1875 -2.644531 113.554688 3.5 C 153.101562 8.964844 184.742188 63.980469 141.972656 119.84375 C 127.183594 147.824219 168.046875 133.246094 179.574219 127.683594 Z M 179.574219 127.683594 "/>
<path fill-rule="nonzero" fill="rgb(100%, 50%, 0%)" fill-opacity="1" d="M 46.054688 92.230469 C 79.53125 84.039062 65.121094 116.101562 117.242188 106.636719 C 0.429688 180.082031 26.703125 106.777344 46.054688 92.230469 Z M 46.054688 92.230469 "/>
</svg>
