<?xml version="1.0" encoding="UTF-8"?>
<svg xmlns="http://www.w3.org/2000/svg" xmlns:xlink="http://www.w3.org/1999/xlink" width="62.362" height="62.078" viewBox="0 0 62.362 62.078">
<defs>
<clipPath id="clip-0">
<path clip-rule="nonzero" d="M 0.140625 0 L 61.589844 0 L 61.589844 61.167969 L 0.140625 61.167969 Z M 0.140625 0 "/>
</clipPath>
<clipPath id="clip-1">
<path clip-rule="nonzero" d="M 27 10 L 34 10 L 34 29 L 27 29 Z M 27 10 "/>
</clipPath>
<clipPath id="clip-2">
<path clip-rule="nonzero" d="M 44.621094 17.796875 C 45.160156 11.652344 41.859375 6.339844 37.25 5.9375 C 32.636719 5.535156 28.464844 10.191406 27.925781 16.335938 C 27.390625 22.484375 30.691406 27.792969 35.300781 28.199219 C 39.910156 28.601562 44.085938 23.945312 44.621094 17.796875 Z M 44.621094 17.796875 "/>
</clipPath>
</defs>
<g clip-path="url(#clip-0)">
<path fill-rule="nonzero" fill="rgb(89.99939%, 89.99939%, 89.99939%)" fill-opacity="1" d="M 0.140625 61.167969 L 61.589844 61.167969 L 61.589844 0 L 0.140625 0 Z M 0.140625 61.167969 "/>
<path fill-rule="nonzero" fill="rgb(97.499084%, 94.999695%, 92.498779%)" fill-opacity="1" d="M 21.089844 6.980469 C 21.089844 4.667969 19.214844 2.792969 16.902344 2.792969 C 14.585938 2.792969 12.710938 4.667969 12.710938 6.980469 C 12.710938 9.296875 14.585938 11.171875 16.902344 11.171875 C 19.214844 11.171875 21.089844 9.296875 21.089844 6.980469 Z M 16.902344 12.570312 C 16.902344 10.253906 15.027344 8.378906 12.710938 8.378906 C 10.398438 8.378906 8.523438 10.253906 8.523438 12.570312 C 8.523438 14.882812 10.398438 16.757812 12.710938 16.757812 C 15.027344 16.757812 16.902344 14.882812 16.902344 12.570312 Z M 15.785156 19.273438 C 15.785156 16.957031 13.910156 15.082031 11.59375 15.082031 C 9.28125 15.082031 7.40625 16.957031 7.40625 19.273438 C 7.40625 21.585938 9.28125 23.460938 11.59375 23.460938 C 13.910156 23.460938 15.785156 21.585938 15.785156 19.273438 Z M 13.269531 33.515625 C 13.269531 31.203125 11.394531 29.328125 9.082031 29.328125 C 6.765625 29.328125 4.890625 31.203125 4.890625 33.515625 C 4.890625 35.832031 6.765625 37.707031 9.082031 37.707031 C 11.394531 37.707031 13.269531 35.832031 13.269531 33.515625 Z M 9.359375 39.105469 C 9.359375 36.789062 7.484375 34.914062 5.171875 34.914062 C 2.855469 34.914062 0.980469 36.789062 0.980469 39.105469 C 0.980469 41.417969 2.855469 43.292969 5.171875 43.292969 C 7.484375 43.292969 9.359375 41.417969 9.359375 39.105469 Z M 8.523438 44.691406 C 8.523438 42.375 6.644531 40.5 4.332031 40.5 C 2.019531 40.5 0.140625 42.375 0.140625 44.691406 C 0.140625 47.003906 2.019531 48.878906 4.332031 48.878906 C 6.644531 48.878906 8.523438 47.003906 8.523438 44.691406 Z M 9.917969 48.878906 C 9.917969 46.566406 8.042969 44.691406 5.730469 44.691406 C 3.414062 44.691406 1.539062 46.566406 1.539062 48.878906 C 1.539062 51.195312 3.414062 53.070312 5.730469 53.070312 C 8.042969 53.070312 9.917969 51.195312 9.917969 48.878906 Z M 12.710938 53.070312 C 12.710938 50.753906 10.835938 48.878906 8.523438 48.878906 C 6.207031 48.878906 4.332031 50.753906 4.332031 53.070312 C 4.332031 55.382812 6.207031 57.257812 8.523438 57.257812 C 10.835938 57.257812 12.710938 55.382812 12.710938 53.070312 Z M 18.296875 54.464844 C 18.296875 52.152344 16.421875 50.277344 14.109375 50.277344 C 11.792969 50.277344 9.917969 52.152344 9.917969 54.464844 C 9.917969 56.78125 11.792969 58.65625 14.109375 58.65625 C 16.421875 58.65625 18.296875 56.78125 18.296875 54.464844 Z M 23.882812 55.863281 C 23.882812 53.550781 22.007812 51.671875 19.695312 51.671875 C 17.378906 51.671875 15.503906 53.550781 15.503906 55.863281 C 15.503906 58.175781 17.378906 60.050781 19.695312 60.050781 C 22.007812 60.050781 23.882812 58.175781 23.882812 55.863281 Z M 29.46875 56.980469 C 29.46875 54.667969 27.59375 52.789062 25.28125 52.789062 C 22.96875 52.789062 21.089844 54.667969 21.089844 56.980469 C 21.089844 59.292969 22.96875 61.167969 25.28125 61.167969 C 27.59375 61.167969 29.46875 59.292969 29.46875 56.980469 Z M 35.058594 55.863281 C 35.058594 53.550781 33.179688 51.671875 30.867188 51.671875 C 28.554688 51.671875 26.675781 53.550781 26.675781 55.863281 C 26.675781 58.175781 28.554688 60.050781 30.867188 60.050781 C 33.179688 60.050781 35.058594 58.175781 35.058594 55.863281 Z M 40.644531 55.023438 C 40.644531 52.710938 38.769531 50.835938 36.453125 50.835938 C 34.140625 50.835938 32.265625 52.710938 32.265625 55.023438 C 32.265625 57.339844 34.140625 59.214844 36.453125 59.214844 C 38.769531 59.214844 40.644531 57.339844 40.644531 55.023438 Z M 46.230469 53.070312 C 46.230469 50.753906 44.355469 48.878906 42.039062 48.878906 C 39.726562 48.878906 37.851562 50.753906 37.851562 53.070312 C 37.851562 55.382812 39.726562 57.257812 42.039062 57.257812 C 44.355469 57.257812 46.230469 55.382812 46.230469 53.070312 Z M 51.816406 50.835938 C 51.816406 48.519531 49.941406 46.644531 47.625 46.644531 C 45.3125 46.644531 43.4375 48.519531 43.4375 50.835938 C 43.4375 53.148438 45.3125 55.023438 47.625 55.023438 C 49.941406 55.023438 51.816406 53.148438 51.816406 50.835938 Z M 57.402344 47.484375 C 57.402344 45.167969 55.527344 43.292969 53.214844 43.292969 C 50.898438 43.292969 49.023438 45.167969 49.023438 47.484375 C 49.023438 49.796875 50.898438 51.671875 53.214844 51.671875 C 55.527344 51.671875 57.402344 49.796875 57.402344 47.484375 Z M 60.195312 43.292969 C 60.195312 40.980469 58.320312 39.105469 56.007812 39.105469 C 53.691406 39.105469 51.816406 40.980469 51.816406 43.292969 C 51.816406 45.609375 53.691406 47.484375 56.007812 47.484375 C 58.320312 47.484375 60.195312 45.609375 60.195312 43.292969 Z M 61.59375 37.707031 C 61.59375 35.394531 59.71875 33.515625 57.402344 33.515625 C 55.089844 33.515625 53.214844 35.394531 53.214844 37.707031 C 53.214844 40.019531 55.089844 41.898438 57.402344 41.898438 C 59.71875 41.898438 61.59375 40.019531 61.59375 37.707031 Z M 60.195312 33.515625 C 60.195312 31.203125 58.320312 29.328125 56.007812 29.328125 C 53.691406 29.328125 51.816406 31.203125 51.816406 33.515625 C 51.816406 35.832031 53.691406 37.707031 56.007812 37.707031 C 58.320312 37.707031 60.195312 35.832031 60.195312 33.515625 Z M 58.800781 29.328125 C 58.800781 27.015625 56.921875 25.136719 54.609375 25.136719 C 52.296875 25.136719 50.421875 27.015625 50.421875 29.328125 C 50.421875 31.640625 52.296875 33.515625 54.609375 33.515625 C 56.921875 33.515625 58.800781 31.640625 58.800781 29.328125 Z M 54.609375 23.742188 C 54.609375 21.425781 52.734375 19.550781 50.421875 19.550781 C 48.105469 19.550781 46.230469 21.425781 46.230469 23.742188 C 46.230469 26.054688 48.105469 27.929688 50.421875 27.929688 C 52.734375 27.929688 54.609375 26.054688 54.609375 23.742188 Z M 47.625 26.535156 C 47.625 24.21875 45.75 22.34375 43.4375 22.34375 C 41.125 22.34375 39.246094 24.21875 39.246094 26.535156 C 39.246094 28.847656 41.125 30.722656 43.4375 30.722656 C 45.75 30.722656 47.625 28.847656 47.625 26.535156 Z M 40.644531 26.535156 C 40.644531 24.21875 38.769531 22.34375 36.453125 22.34375 C 34.140625 22.34375 32.265625 24.21875 32.265625 26.535156 C 32.265625 28.847656 34.140625 30.722656 36.453125 30.722656 C 38.769531 30.722656 40.644531 28.847656 40.644531 26.535156 Z M 39.246094 19.550781 C 39.246094 17.238281 37.371094 15.363281 35.058594 15.363281 C 32.742188 15.363281 30.867188 17.238281 30.867188 19.550781 C 30.867188 21.867188 32.742188 23.742188 35.058594 23.742188 C 37.371094 23.742188 39.246094 21.867188 39.246094 19.550781 Z M 39.246094 13.964844 C 39.246094 11.652344 37.371094 9.777344 35.058594 9.777344 C 32.742188 9.777344 30.867188 11.652344 30.867188 13.964844 C 30.867188 16.277344 32.742188 18.15625 35.058594 18.15625 C 37.371094 18.15625 39.246094 16.277344 39.246094 13.964844 Z M 36.453125 8.378906 C 36.453125 6.066406 34.578125 4.1875 32.265625 4.1875 C 29.949219 4.1875 28.074219 6.066406 28.074219 8.378906 C 28.074219 10.691406 29.949219 12.570312 32.265625 12.570312 C 34.578125 12.570312 36.453125 10.691406 36.453125 8.378906 Z M 26.675781 4.1875 C 26.675781 1.875 24.800781 0 22.488281 0 C 20.175781 0 18.296875 1.875 18.296875 4.1875 C 18.296875 6.503906 20.175781 8.378906 22.488281 8.378906 C 24.800781 8.378906 26.675781 6.503906 26.675781 4.1875 Z M 32.265625 5.585938 C 32.265625 3.273438 30.386719 1.394531 28.074219 1.394531 C 25.761719 1.394531 23.882812 3.273438 23.882812 5.585938 C 23.882812 7.898438 25.761719 9.773438 28.074219 9.773438 C 30.386719 9.773438 32.265625 7.898438 32.265625 5.585938 Z M 32.265625 5.585938 "/>
</g>
<path fill-rule="nonzero" fill="rgb(97.499084%, 94.999695%, 92.498779%)" fill-opacity="1" d="M 13.074219 29.46875 C 6.203125 30.667969 -4.746094 43.097656 6.816406 54.160156 C 18.410156 65.21875 78.714844 57.816406 49.527344 21.8125 C 24.945312 35.027344 33.382812 22.929688 13.074219 29.46875 Z M 13.074219 29.46875 "/>
<path fill-rule="nonzero" fill="rgb(97.499084%, 94.999695%, 92.498779%)" fill-opacity="1" d="M 37.851562 19.550781 C 37.851562 9.910156 31.597656 2.09375 23.882812 2.09375 C 16.171875 2.09375 9.917969 9.910156 9.917969 19.550781 C 9.917969 29.191406 16.171875 37.007812 23.882812 37.007812 C 31.597656 37.007812 37.851562 29.191406 37.851562 19.550781 Z M 37.851562 19.550781 "/>
<path fill-rule="nonzero" fill="rgb(89.99939%, 79.998779%, 69.999695%)" fill-opacity="1" d="M 10.085938 20.332031 C 16.707031 18.714844 13.855469 25.054688 24.164062 23.183594 C 1.0625 37.707031 6.257812 23.210938 10.085938 20.332031 Z M 10.085938 20.332031 "/>
<path fill-rule="nonzero" fill="rgb(100%, 99.234009%, 85.00061%)" fill-opacity="1" d="M 24.011719 18.105469 C 24.671875 16.296875 24.15625 14.445312 22.863281 13.972656 C 21.566406 13.5 19.984375 14.589844 19.324219 16.402344 C 18.664062 18.214844 19.179688 20.0625 20.472656 20.535156 C 21.769531 21.007812 23.351562 19.917969 24.011719 18.105469 Z M 24.011719 18.105469 "/>
<path fill-rule="nonzero" fill="rgb(0%, 0%, 0%)" fill-opacity="1" d="M 23.296875 18.144531 C 23.675781 17.109375 23.558594 16.117188 23.042969 15.929688 C 22.523438 15.742188 21.800781 16.425781 21.421875 17.460938 C 21.046875 18.496094 21.160156 19.488281 21.679688 19.675781 C 22.195312 19.863281 22.921875 19.179688 23.296875 18.144531 Z M 23.296875 18.144531 "/>
<path fill-rule="nonzero" fill="rgb(100%, 99.234009%, 85.00061%)" fill-opacity="1" d="M 15.855469 15.957031 C 16.460938 14.300781 16.023438 12.621094 14.886719 12.203125 C 13.746094 11.789062 12.335938 12.796875 11.730469 14.453125 C 11.128906 16.113281 11.5625 17.789062 12.703125 18.207031 C 13.839844 18.621094 15.253906 17.613281 15.855469 15.957031 Z M 15.855469 15.957031 "/>
<path fill-rule="nonzero" fill="rgb(0%, 0%, 0%)" fill-opacity="1" d="M 15.234375 16.027344 C 15.574219 15.09375 15.515625 14.21875 15.101562 14.066406 C 14.683594 13.914062 14.074219 14.550781 13.734375 15.480469 C 13.394531 16.414062 13.457031 17.292969 13.871094 17.441406 C 14.285156 17.59375 14.898438 16.960938 15.234375 16.027344 Z M 15.234375 16.027344 "/>
<g clip-path="url(#clip-1)">
<g clip-path="url(#clip-2)">
<path fill-rule="nonzero" fill="rgb(89.99939%, 79.998779%, 69.999695%)" fill-opacity="1" d="M 33.003906 22.390625 C 33.542969 16.242188 30.242188 10.933594 25.632812 10.527344 C 21.019531 10.125 16.847656 14.78125 16.308594 20.929688 C 15.773438 27.074219 19.074219 32.386719 23.683594 32.789062 C 28.292969 33.191406 32.46875 28.535156 33.003906 22.390625 Z M 33.003906 22.390625 "/>
</g>
</g>
</svg>
