<?xml version="1.0" encoding="UTF-8"?>
<svg xmlns="http://www.w3.org/2000/svg" xmlns:xlink="http://www.w3.org/1999/xlink" width="57.175" height="67.682" viewBox="0 0 57.175 67.682">
<defs>
<clipPath id="clip-0">
<path clip-rule="nonzero" d="M 0 0.324219 L 56.363281 0.324219 L 56.363281 67.042969 L 0 67.042969 Z M 0 0.324219 "/>
</clipPath>
<clipPath id="clip-1">
<path clip-rule="nonzero" d="M 0 30 L 56.363281 30 L 56.363281 67.042969 L 0 67.042969 Z M 0 30 "/>
</clipPath>
<clipPath id="clip-2">
<path clip-rule="nonzero" d="M 17 0.324219 L 38 0.324219 L 38 8 L 17 8 Z M 17 0.324219 "/>
</clipPath>
</defs>
<g clip-path="url(#clip-0)">
<path fill-rule="nonzero" fill="rgb(89.99939%, 89.99939%, 89.99939%)" fill-opacity="1" d="M 0 67.042969 L 56.363281 67.042969 L 56.363281 0.324219 L 0 0.324219 Z M 0 67.042969 "/>
</g>
<g clip-path="url(#clip-1)">
<path fill-rule="nonzero" fill="rgb(100%, 100%, 100%)" fill-opacity="1" d="M 12.015625 37.84375 C 5.140625 39.042969 -5.8125 51.480469 5.757812 62.546875 C 17.351562 73.609375 77.683594 66.207031 48.480469 30.1875 C 23.890625 43.402344 32.332031 31.304688 12.015625 37.84375 Z M 12.015625 37.84375 "/>
</g>
<path fill-rule="nonzero" fill="rgb(100%, 100%, 100%)" fill-opacity="1" d="M 36.800781 27.921875 C 36.800781 18.277344 30.546875 10.457031 22.828125 10.457031 C 15.113281 10.457031 8.859375 18.277344 8.859375 27.921875 C 8.859375 37.570312 15.113281 45.386719 22.828125 45.386719 C 30.546875 45.386719 36.800781 37.570312 36.800781 27.921875 Z M 36.800781 27.921875 "/>
<path fill-rule="nonzero" fill="rgb(87.5%, 50%, 12.5%)" fill-opacity="1" d="M 9.027344 28.707031 C 15.648438 27.085938 12.796875 33.429688 23.109375 31.554688 C 0 46.085938 5.195312 31.582031 9.027344 28.707031 Z M 9.027344 28.707031 "/>
<path fill-rule="nonzero" fill="rgb(100%, 100%, 100%)" fill-opacity="1" d="M 22.957031 26.476562 C 23.617188 24.664062 23.101562 22.8125 21.808594 22.34375 C 20.511719 21.871094 18.925781 22.957031 18.269531 24.769531 C 17.609375 26.585938 18.121094 28.4375 19.417969 28.90625 C 20.710938 29.378906 22.296875 28.289062 22.957031 26.476562 Z M 22.957031 26.476562 "/>
<path fill-rule="nonzero" fill="rgb(0%, 0%, 0%)" fill-opacity="1" d="M 22.242188 26.515625 C 22.621094 25.480469 22.503906 24.488281 21.988281 24.300781 C 21.46875 24.109375 20.742188 24.796875 20.367188 25.832031 C 19.992188 26.867188 20.105469 27.859375 20.621094 28.046875 C 21.140625 28.238281 21.867188 27.550781 22.242188 26.515625 Z M 22.242188 26.515625 "/>
<path fill-rule="nonzero" fill="rgb(100%, 100%, 100%)" fill-opacity="1" d="M 14.800781 24.328125 C 15.402344 22.667969 14.96875 20.988281 13.828125 20.574219 C 12.6875 20.160156 11.273438 21.167969 10.671875 22.824219 C 10.066406 24.480469 10.503906 26.160156 11.640625 26.578125 C 12.78125 26.992188 14.195312 25.984375 14.800781 24.328125 Z M 14.800781 24.328125 "/>
<path fill-rule="nonzero" fill="rgb(0%, 0%, 0%)" fill-opacity="1" d="M 14.179688 24.398438 C 14.515625 23.464844 14.457031 22.585938 14.042969 22.4375 C 13.625 22.285156 13.015625 22.917969 12.675781 23.851562 C 12.335938 24.785156 12.398438 25.664062 12.8125 25.8125 C 13.226562 25.964844 13.839844 25.332031 14.179688 24.398438 Z M 14.179688 24.398438 "/>
<path fill-rule="nonzero" fill="rgb(0%, 0%, 0%)" fill-opacity="1" d="M 13.886719 48.882812 C 13.886719 48.109375 13.261719 47.484375 12.492188 47.484375 C 11.71875 47.484375 11.09375 48.109375 11.09375 48.882812 C 11.09375 49.652344 11.71875 50.277344 12.492188 50.277344 C 13.261719 50.277344 13.886719 49.652344 13.886719 48.882812 Z M 13.050781 53.070312 C 13.050781 52.300781 12.425781 51.675781 11.652344 51.675781 C 10.878906 51.675781 10.253906 52.300781 10.253906 53.070312 C 10.253906 53.84375 10.878906 54.46875 11.652344 54.46875 C 12.425781 54.46875 13.050781 53.84375 13.050781 53.070312 Z M 12.210938 57.265625 C 12.210938 56.492188 11.585938 55.867188 10.8125 55.867188 C 10.042969 55.867188 9.417969 56.492188 9.417969 57.265625 C 9.417969 58.035156 10.042969 58.660156 10.8125 58.660156 C 11.585938 58.660156 12.210938 58.035156 12.210938 57.265625 Z M 12.210938 57.265625 "/>
<path fill-rule="nonzero" fill="rgb(0%, 0%, 0%)" fill-opacity="1" d="M 37.699219 19.808594 C 38.101562 18.320312 32.625 15.554688 25.46875 13.640625 C 18.3125 11.722656 12.1875 11.375 11.789062 12.867188 C 11.390625 14.359375 16.867188 17.121094 24.019531 19.039062 C 31.175781 20.957031 37.300781 21.300781 37.699219 19.808594 Z M 37.699219 19.808594 "/>
<path fill-rule="nonzero" fill="rgb(0%, 0%, 0%)" fill-opacity="1" d="M 16.105469 14.023438 L 33.113281 18.582031 L 37.984375 6.867188 L 18.011719 1.515625 Z M 16.105469 14.023438 "/>
<g clip-path="url(#clip-2)">
<path fill-rule="nonzero" fill="rgb(0%, 0%, 0%)" fill-opacity="1" d="M 37.984375 6.867188 C 38.304688 5.675781 34.09375 3.511719 28.578125 2.03125 C 23.0625 0.554688 18.332031 0.324219 18.011719 1.515625 C 17.691406 2.710938 21.90625 4.875 27.421875 6.351562 C 32.9375 7.828125 37.667969 8.0625 37.984375 6.867188 Z M 37.984375 6.867188 "/>
</g>
<path fill-rule="nonzero" fill="rgb(0%, 0%, 0%)" fill-opacity="1" d="M 21.816406 61.054688 L 35.398438 31.929688 L 36.664062 32.519531 L 23.085938 61.644531 Z M 21.816406 61.054688 "/>
<path fill-rule="nonzero" fill="rgb(0%, 0%, 0%)" fill-opacity="1" d="M 30.757812 41.5625 L 25.144531 33.550781 L 26.289062 32.75 L 31.902344 40.761719 Z M 30.757812 41.5625 "/>
<path fill-rule="nonzero" fill="rgb(0%, 0%, 0%)" fill-opacity="1" d="M 34.082031 37.335938 L 38.890625 30.46875 L 40.035156 31.269531 L 35.226562 38.136719 Z M 34.082031 37.335938 "/>
<path fill-rule="nonzero" fill="rgb(0%, 0%, 0%)" fill-opacity="1" d="M 41.890625 34.636719 L 33.417969 39.523438 L 32.71875 38.316406 L 41.191406 33.425781 Z M 41.890625 34.636719 "/>
</svg>
