<?xml version="1.0" encoding="UTF-8"?>
<svg xmlns="http://www.w3.org/2000/svg" xmlns:xlink="http://www.w3.org/1999/xlink" width="73.036" height="65.171" viewBox="0 0 73.036 65.171">
<defs>
<clipPath id="clip-0">
<path clip-rule="nonzero" d="M 0 0.015625 L 72.085938 0.015625 L 72.085938 64.335938 L 0 64.335938 Z M 0 0.015625 "/>
</clipPath>
<clipPath id="clip-1">
<path clip-rule="nonzero" d="M 14 0.015625 L 25 0.015625 L 25 14 L 14 14 Z M 14 0.015625 "/>
</clipPath>
<clipPath id="clip-2">
<path clip-rule="nonzero" d="M 0 12 L 35 12 L 35 64.335938 L 0 64.335938 Z M 0 12 "/>
</clipPath>
<clipPath id="clip-3">
<path clip-rule="nonzero" d="M 47 0.015625 L 58 0.015625 L 58 14 L 47 14 Z M 47 0.015625 "/>
</clipPath>
<clipPath id="clip-4">
<path clip-rule="nonzero" d="M 37 12 L 72.085938 12 L 72.085938 64.335938 L 37 64.335938 Z M 37 12 "/>
</clipPath>
</defs>
<g clip-path="url(#clip-0)">
<path fill-rule="nonzero" fill="rgb(89.99939%, 89.99939%, 89.99939%)" fill-opacity="1" d="M 0 64.335938 L 72.085938 64.335938 L 72.085938 0.015625 L 0 0.015625 Z M 0 64.335938 "/>
</g>
<path fill-rule="nonzero" fill="rgb(25%, 25%, 25%)" fill-opacity="1" d="M 23.601562 10.433594 C 26.21875 10.890625 30.382812 15.621094 25.984375 19.832031 C 21.570312 24.042969 -1.382812 21.226562 9.726562 7.519531 C 19.082031 12.550781 15.871094 7.945312 23.601562 10.433594 Z M 23.601562 10.433594 "/>
<g clip-path="url(#clip-1)">
<path fill-rule="nonzero" fill="rgb(25%, 25%, 25%)" fill-opacity="1" d="M 14.171875 6.660156 C 14.171875 2.988281 16.550781 0.015625 19.488281 0.015625 C 22.421875 0.015625 24.804688 2.988281 24.804688 6.660156 C 24.804688 10.328125 22.421875 13.304688 19.488281 13.304688 C 16.550781 13.304688 14.171875 10.328125 14.171875 6.660156 Z M 14.171875 6.660156 "/>
</g>
<path fill-rule="nonzero" fill="rgb(87.5%, 50%, 12.5%)" fill-opacity="1" d="M 24.738281 6.957031 C 22.21875 6.339844 23.304688 8.753906 19.378906 8.042969 C 28.171875 13.570312 26.195312 8.050781 24.738281 6.957031 Z M 24.738281 6.957031 "/>
<path fill-rule="nonzero" fill="rgb(100%, 99.234009%, 85.00061%)" fill-opacity="1" d="M 19.4375 6.109375 C 19.1875 5.421875 19.382812 4.714844 19.875 4.535156 C 20.371094 4.355469 20.972656 4.769531 21.222656 5.460938 C 21.472656 6.152344 21.277344 6.855469 20.785156 7.035156 C 20.292969 7.214844 19.691406 6.800781 19.4375 6.109375 Z M 19.4375 6.109375 "/>
<path fill-rule="nonzero" fill="rgb(0%, 0%, 0%)" fill-opacity="1" d="M 19.710938 6.125 C 19.566406 5.730469 19.609375 5.351562 19.808594 5.28125 C 20.003906 5.210938 20.28125 5.46875 20.425781 5.863281 C 20.566406 6.257812 20.523438 6.636719 20.328125 6.707031 C 20.128906 6.777344 19.855469 6.519531 19.710938 6.125 Z M 19.710938 6.125 "/>
<path fill-rule="nonzero" fill="rgb(100%, 99.234009%, 85.00061%)" fill-opacity="1" d="M 22.542969 5.292969 C 22.3125 4.660156 22.480469 4.023438 22.914062 3.863281 C 23.347656 3.707031 23.882812 4.089844 24.113281 4.71875 C 24.34375 5.351562 24.175781 5.988281 23.742188 6.148438 C 23.308594 6.304688 22.773438 5.921875 22.542969 5.292969 Z M 22.542969 5.292969 "/>
<path fill-rule="nonzero" fill="rgb(0%, 0%, 0%)" fill-opacity="1" d="M 22.78125 5.320312 C 22.648438 4.964844 22.671875 4.628906 22.832031 4.574219 C 22.988281 4.515625 23.222656 4.757812 23.351562 5.109375 C 23.480469 5.464844 23.457031 5.800781 23.296875 5.855469 C 23.140625 5.914062 22.910156 5.671875 22.78125 5.320312 Z M 22.78125 5.320312 "/>
<g clip-path="url(#clip-2)">
<path fill-rule="nonzero" fill="rgb(50%, 50%, 50%)" fill-opacity="1" d="M 34.238281 61.636719 C 34.382812 59.652344 34.402344 56.371094 31.527344 56.757812 C 30.5 56.988281 30.320312 56.363281 30.414062 55.46875 C 30.382812 53.382812 30.101562 51.269531 28.953125 49.46875 C 26.980469 44.933594 27.066406 39.855469 26.734375 35.011719 C 26.632812 32.757812 26.636719 30.503906 26.640625 28.25 C 28.015625 28.15625 30.085938 28.335938 30.332031 26.535156 C 30.496094 22.082031 30.503906 17.605469 30.300781 13.148438 C 28.5625 13.089844 26.171875 12.597656 24.78125 13.402344 C 24.890625 15.277344 25.015625 17.785156 22.351562 16.894531 C 21.597656 16.894531 20.640625 17.097656 20.980469 16.003906 C 20.925781 14.652344 21.386719 12.429688 19.273438 13.03125 C 17.3125 13.019531 15.351562 13.054688 13.390625 13.066406 C 13.351562 14.292969 13.3125 15.523438 13.273438 16.75 C 12.042969 16.75 10.816406 16.75 9.585938 16.75 C 9.550781 15.523438 9.507812 14.292969 9.46875 13.066406 C 7.605469 13.066406 5.746094 13.066406 3.882812 13.066406 C 3.925781 17.71875 3.78125 22.378906 3.988281 27.027344 C 4.539062 28.507812 6.304688 28.148438 7.566406 28.273438 C 7.457031 34.75 7.527344 41.328125 5.949219 47.652344 C 5.28125 49.863281 3.683594 51.816406 3.855469 54.242188 C 3.730469 55.003906 3.964844 56.113281 3.644531 56.679688 C 2.378906 56.777344 0.546875 56.5 0.144531 58.066406 C 0 60.152344 0.0546875 62.246094 0.0117188 64.335938 C 11.421875 64.335938 22.832031 64.335938 34.246094 64.335938 C 34.242188 63.4375 34.238281 62.535156 34.238281 61.636719 Z M 34.238281 61.636719 "/>
</g>
<path fill-rule="nonzero" fill="rgb(96.461487%, 91.213989%, 54.88739%)" fill-opacity="1" d="M 48.484375 10.433594 C 45.867188 10.890625 41.699219 15.621094 46.101562 19.832031 C 50.515625 24.042969 73.46875 21.226562 62.359375 7.519531 C 53.003906 12.550781 56.214844 7.945312 48.484375 10.433594 Z M 48.484375 10.433594 "/>
<g clip-path="url(#clip-3)">
<path fill-rule="nonzero" fill="rgb(96.461487%, 91.213989%, 54.88739%)" fill-opacity="1" d="M 57.914062 6.660156 C 57.914062 2.988281 55.535156 0.015625 52.597656 0.015625 C 49.664062 0.015625 47.28125 2.988281 47.28125 6.660156 C 47.28125 10.328125 49.664062 13.304688 52.597656 13.304688 C 55.535156 13.304688 57.914062 10.328125 57.914062 6.660156 Z M 57.914062 6.660156 "/>
</g>
<path fill-rule="nonzero" fill="rgb(87.5%, 50%, 12.5%)" fill-opacity="1" d="M 47.347656 6.957031 C 49.867188 6.339844 48.78125 8.753906 52.703125 8.042969 C 43.914062 13.570312 45.890625 8.050781 47.347656 6.957031 Z M 47.347656 6.957031 "/>
<path fill-rule="nonzero" fill="rgb(100%, 99.234009%, 85.00061%)" fill-opacity="1" d="M 52.644531 6.109375 C 52.898438 5.421875 52.703125 4.714844 52.207031 4.535156 C 51.714844 4.355469 51.113281 4.769531 50.863281 5.460938 C 50.609375 6.152344 50.808594 6.855469 51.300781 7.035156 C 51.792969 7.214844 52.394531 6.800781 52.644531 6.109375 Z M 52.644531 6.109375 "/>
<path fill-rule="nonzero" fill="rgb(0%, 0%, 0%)" fill-opacity="1" d="M 52.375 6.125 C 52.519531 5.730469 52.472656 5.351562 52.277344 5.28125 C 52.082031 5.210938 51.804688 5.46875 51.660156 5.863281 C 51.519531 6.257812 51.5625 6.636719 51.757812 6.707031 C 51.953125 6.777344 52.230469 6.519531 52.375 6.125 Z M 52.375 6.125 "/>
<path fill-rule="nonzero" fill="rgb(100%, 99.234009%, 85.00061%)" fill-opacity="1" d="M 49.542969 5.292969 C 49.773438 4.660156 49.605469 4.023438 49.171875 3.863281 C 48.738281 3.707031 48.203125 4.089844 47.972656 4.71875 C 47.742188 5.351562 47.90625 5.988281 48.339844 6.148438 C 48.773438 6.304688 49.3125 5.921875 49.542969 5.292969 Z M 49.542969 5.292969 "/>
<path fill-rule="nonzero" fill="rgb(0%, 0%, 0%)" fill-opacity="1" d="M 49.304688 5.320312 C 49.433594 4.964844 49.410156 4.628906 49.253906 4.574219 C 49.097656 4.515625 48.863281 4.757812 48.734375 5.109375 C 48.605469 5.464844 48.628906 5.800781 48.785156 5.855469 C 48.945312 5.914062 49.175781 5.671875 49.304688 5.320312 Z M 49.304688 5.320312 "/>
<g clip-path="url(#clip-4)">
<path fill-rule="nonzero" fill="rgb(50%, 50%, 50%)" fill-opacity="1" d="M 37.847656 61.636719 C 37.703125 59.652344 37.679688 56.371094 40.558594 56.757812 C 41.585938 56.988281 41.761719 56.363281 41.671875 55.46875 C 41.703125 53.382812 41.984375 51.269531 43.132812 49.46875 C 45.105469 44.933594 45.015625 39.855469 45.351562 35.011719 C 45.453125 32.757812 45.449219 30.503906 45.445312 28.25 C 44.070312 28.15625 42 28.335938 41.753906 26.535156 C 41.589844 22.082031 41.582031 17.605469 41.785156 13.148438 C 43.523438 13.089844 45.914062 12.597656 47.304688 13.402344 C 47.195312 15.277344 47.066406 17.785156 49.734375 16.894531 C 50.488281 16.894531 51.445312 17.097656 51.105469 16.003906 C 51.160156 14.652344 50.699219 12.429688 52.8125 13.03125 C 54.773438 13.019531 56.734375 13.054688 58.695312 13.066406 C 58.734375 14.292969 58.773438 15.523438 58.8125 16.75 C 60.042969 16.75 61.269531 16.75 62.496094 16.75 C 62.535156 15.523438 62.574219 14.292969 62.617188 13.066406 C 64.480469 13.066406 66.339844 13.066406 68.203125 13.066406 C 68.160156 17.71875 68.304688 22.378906 68.097656 27.027344 C 67.542969 28.507812 65.78125 28.148438 64.515625 28.273438 C 64.628906 34.75 64.558594 41.328125 66.136719 47.652344 C 66.804688 49.863281 68.402344 51.816406 68.230469 54.242188 C 68.355469 55.003906 68.121094 56.113281 68.441406 56.679688 C 69.703125 56.777344 71.535156 56.5 71.941406 58.066406 C 72.085938 60.152344 72.03125 62.246094 72.074219 64.335938 C 60.664062 64.335938 49.253906 64.335938 37.839844 64.335938 C 37.84375 63.4375 37.847656 62.535156 37.847656 61.636719 Z M 37.847656 61.636719 "/>
</g>
</svg>
