<?xml version="1.0" encoding="UTF-8"?>
<svg xmlns="http://www.w3.org/2000/svg" xmlns:xlink="http://www.w3.org/1999/xlink" width="56.693" height="60.945" viewBox="0 0 56.693 60.945">
<defs>
<clipPath id="clip-0">
<path clip-rule="nonzero" d="M 0 0.136719 L 56.386719 0.136719 L 56.386719 60.753906 L 0 60.753906 Z M 0 0.136719 "/>
</clipPath>
<clipPath id="clip-1">
<path clip-rule="nonzero" d="M 0 23 L 56.386719 23 L 56.386719 60.753906 L 0 60.753906 Z M 0 23 "/>
</clipPath>
<clipPath id="clip-2">
<path clip-rule="nonzero" d="M 8 0.136719 L 39 0.136719 L 39 24 L 8 24 Z M 8 0.136719 "/>
</clipPath>
</defs>
<g clip-path="url(#clip-0)">
<path fill-rule="nonzero" fill="rgb(89.99939%, 89.99939%, 89.99939%)" fill-opacity="1" d="M 0 60.753906 L 56.386719 60.753906 L 56.386719 0.136719 L 0 0.136719 Z M 0 60.753906 "/>
</g>
<g clip-path="url(#clip-1)">
<path fill-rule="nonzero" fill="rgb(19.999695%, 19.999695%, 19.999695%)" fill-opacity="1" d="M 11.644531 31.289062 C 4.707031 32.503906 -6.34375 45.050781 5.328125 56.214844 C 17.027344 67.378906 77.898438 59.90625 48.4375 23.566406 C 23.625 36.902344 32.140625 24.695312 11.644531 31.289062 Z M 11.644531 31.289062 "/>
</g>
<path fill-rule="nonzero" fill="rgb(19.999695%, 19.999695%, 19.999695%)" fill-opacity="1" d="M 36.652344 21.28125 C 36.652344 11.550781 30.339844 3.660156 22.554688 3.660156 C 14.769531 3.660156 8.457031 11.550781 8.457031 21.28125 C 8.457031 31.015625 14.769531 38.902344 22.554688 38.902344 C 30.339844 38.902344 36.652344 31.015625 36.652344 21.28125 Z M 36.652344 21.28125 "/>
<path fill-rule="nonzero" fill="rgb(69.999695%, 39.99939%, 9.999084%)" fill-opacity="1" d="M 8.457031 29.742188 C 12.40625 25.230469 15.507812 26.640625 22.835938 24.949219 C 9.867188 33.6875 7.332031 30.304688 8.457031 29.742188 Z M 8.457031 29.742188 "/>
<path fill-rule="nonzero" fill="rgb(87.5%, 50%, 12.5%)" fill-opacity="1" d="M 8.738281 22.128906 C 15.222656 20.4375 12.40625 26.921875 22.835938 24.949219 C -3.382812 32.558594 5.074219 24.949219 8.738281 22.128906 Z M 8.738281 22.128906 "/>
<path fill-rule="nonzero" fill="rgb(100%, 99.234009%, 85.00061%)" fill-opacity="1" d="M 22.683594 19.824219 C 23.347656 17.996094 22.828125 16.125 21.523438 15.652344 C 20.214844 15.175781 18.617188 16.273438 17.953125 18.101562 C 17.285156 19.929688 17.804688 21.800781 19.113281 22.273438 C 20.417969 22.75 22.019531 21.652344 22.683594 19.824219 Z M 22.683594 19.824219 "/>
<path fill-rule="nonzero" fill="rgb(0%, 0%, 0%)" fill-opacity="1" d="M 21.960938 19.863281 C 22.34375 18.816406 22.226562 17.816406 21.703125 17.625 C 21.183594 17.433594 20.449219 18.128906 20.070312 19.171875 C 19.691406 20.21875 19.804688 21.21875 20.328125 21.410156 C 20.851562 21.597656 21.582031 20.90625 21.960938 19.863281 Z M 21.960938 19.863281 "/>
<path fill-rule="nonzero" fill="rgb(100%, 99.234009%, 85.00061%)" fill-opacity="1" d="M 14.453125 17.652344 C 15.0625 15.980469 14.621094 14.285156 13.472656 13.867188 C 12.320312 13.449219 10.894531 14.464844 10.289062 16.136719 C 9.679688 17.808594 10.117188 19.503906 11.265625 19.921875 C 12.417969 20.34375 13.84375 19.324219 14.453125 17.652344 Z M 14.453125 17.652344 "/>
<path fill-rule="nonzero" fill="rgb(0%, 0%, 0%)" fill-opacity="1" d="M 13.824219 17.726562 C 14.167969 16.785156 14.105469 15.898438 13.6875 15.746094 C 13.269531 15.59375 12.652344 16.234375 12.308594 17.175781 C 11.96875 18.113281 12.03125 19 12.449219 19.152344 C 12.867188 19.304688 13.484375 18.667969 13.824219 17.726562 Z M 13.824219 17.726562 "/>
<path fill-rule="nonzero" fill="rgb(69.999695%, 0%, 0%)" fill-opacity="1" d="M 3.523438 36.335938 C 34.226562 36.480469 55.542969 45.246094 54.753906 28.472656 C 49.707031 30.753906 49.171875 30.5 47.703125 25.792969 C 43.277344 28.753906 42.855469 27.824219 41.359375 24.296875 C 35.46875 32.953125 15.902344 32.671875 10.148438 32.277344 C 10.175781 31.628906 5.777344 33.207031 3.804688 36.335938 Z M 3.523438 36.335938 "/>
<g clip-path="url(#clip-2)">
<path fill-rule="nonzero" fill="rgb(0%, 0%, 0%)" fill-opacity="1" d="M 36.503906 23.609375 C 38.191406 22.640625 38.621094 16.867188 37.617188 12.847656 C 32.503906 -7.003906 3.773438 -0.457031 8.882812 18.726562 C 9.429688 10.824219 18.101562 4.367188 23.949219 9.851562 C 31.691406 17.121094 34.722656 24.625 36.503906 23.609375 Z M 36.503906 23.609375 "/>
</g>
<path fill-rule="nonzero" fill="rgb(100%, 99.234009%, 85.00061%)" fill-opacity="1" d="M 12.6875 27.484375 L 13.390625 29.175781 L 14.097656 27.203125 Z M 12.6875 27.484375 "/>
<path fill-rule="nonzero" fill="rgb(0%, 0%, 0%)" fill-opacity="1" d="M 15.507812 7.183594 L 18.324219 11.414062 L 22.554688 7.183594 Z M 15.507812 7.183594 "/>
</svg>
