<?xml version="1.0" encoding="UTF-8"?>
<svg xmlns="http://www.w3.org/2000/svg" xmlns:xlink="http://www.w3.org/1999/xlink" width="57.175" height="62.929" viewBox="0 0 57.175 62.929">
<defs>
<clipPath id="clip-0">
<path clip-rule="nonzero" d="M 0 0.414062 L 56.363281 0.414062 L 56.363281 62.445312 L 0 62.445312 Z M 0 0.414062 "/>
</clipPath>
<clipPath id="clip-1">
<path clip-rule="nonzero" d="M 0 25 L 56.363281 25 L 56.363281 62.445312 L 0 62.445312 Z M 0 25 "/>
</clipPath>
<clipPath id="clip-2">
<path clip-rule="nonzero" d="M 0 25 L 56.363281 25 L 56.363281 62.445312 L 0 62.445312 Z M 0 25 "/>
</clipPath>
<clipPath id="clip-3">
<path clip-rule="nonzero" d="M 3 0.414062 L 45 0.414062 L 45 26 L 3 26 Z M 3 0.414062 "/>
</clipPath>
</defs>
<g clip-path="url(#clip-0)">
<path fill-rule="nonzero" fill="rgb(89.99939%, 89.99939%, 89.99939%)" fill-opacity="1" d="M 0 62.445312 L 56.363281 62.445312 L 56.363281 0.414062 L 0 0.414062 Z M 0 62.445312 "/>
</g>
<path fill-rule="nonzero" fill="rgb(39.872742%, 27.500916%, 15.124512%)" fill-opacity="1" d="M 44.378906 25.847656 C 44.933594 24.40625 36.152344 19.699219 24.773438 15.328125 C 13.390625 10.960938 3.714844 8.585938 3.160156 10.027344 C 2.609375 11.46875 11.386719 16.175781 22.769531 20.546875 C 34.152344 24.914062 43.828125 27.289062 44.378906 25.847656 Z M 44.378906 25.847656 "/>
<path fill-rule="nonzero" fill="rgb(23.922729%, 16.500854%, 9.075928%)" fill-opacity="1" d="M 13.050781 38.027344 L 3.273438 10.257812 L 5.914062 9.332031 L 15.691406 37.097656 Z M 13.050781 38.027344 "/>
<g clip-path="url(#clip-1)">
<path fill-rule="nonzero" fill="rgb(97.645569%, 88.627625%, 68.232727%)" fill-opacity="1" d="M 12.015625 33.246094 C 5.140625 34.445312 -5.8125 46.882812 5.757812 57.949219 C 17.351562 69.011719 77.683594 61.609375 48.480469 25.589844 C 23.890625 38.804688 32.332031 26.707031 12.015625 33.246094 Z M 12.015625 33.246094 "/>
</g>
<path fill-rule="nonzero" fill="rgb(97.645569%, 88.627625%, 68.232727%)" fill-opacity="1" d="M 36.800781 23.324219 C 36.800781 13.679688 30.546875 5.859375 22.828125 5.859375 C 15.113281 5.859375 8.859375 13.679688 8.859375 23.324219 C 8.859375 32.972656 15.113281 40.789062 22.828125 40.789062 C 30.546875 40.789062 36.800781 32.972656 36.800781 23.324219 Z M 36.800781 23.324219 "/>
<path fill-rule="nonzero" fill="rgb(87.5%, 50%, 12.5%)" fill-opacity="1" d="M 9.027344 24.109375 C 15.648438 22.488281 12.796875 28.832031 23.109375 26.957031 C 0 41.488281 5.195312 26.984375 9.027344 24.109375 Z M 9.027344 24.109375 "/>
<path fill-rule="nonzero" fill="rgb(100%, 99.234009%, 85.00061%)" fill-opacity="1" d="M 22.957031 21.878906 C 23.617188 20.066406 23.101562 18.214844 21.808594 17.746094 C 20.511719 17.273438 18.925781 18.359375 18.269531 20.175781 C 17.609375 21.988281 18.121094 23.839844 19.417969 24.308594 C 20.710938 24.78125 22.296875 23.695312 22.957031 21.878906 Z M 22.957031 21.878906 "/>
<path fill-rule="nonzero" fill="rgb(0%, 0%, 0%)" fill-opacity="1" d="M 22.242188 21.917969 C 22.621094 20.882812 22.503906 19.890625 21.988281 19.703125 C 21.46875 19.511719 20.742188 20.199219 20.367188 21.234375 C 19.992188 22.269531 20.105469 23.261719 20.621094 23.453125 C 21.140625 23.640625 21.867188 22.953125 22.242188 21.917969 Z M 22.242188 21.917969 "/>
<path fill-rule="nonzero" fill="rgb(100%, 99.234009%, 85.00061%)" fill-opacity="1" d="M 14.800781 19.730469 C 15.402344 18.070312 14.96875 16.390625 13.828125 15.976562 C 12.6875 15.5625 11.273438 16.570312 10.671875 18.226562 C 10.066406 19.882812 10.503906 21.5625 11.640625 21.980469 C 12.78125 22.394531 14.195312 21.386719 14.800781 19.730469 Z M 14.800781 19.730469 "/>
<path fill-rule="nonzero" fill="rgb(0%, 0%, 0%)" fill-opacity="1" d="M 14.179688 19.800781 C 14.515625 18.867188 14.457031 17.988281 14.042969 17.839844 C 13.625 17.6875 13.015625 18.320312 12.675781 19.253906 C 12.335938 20.1875 12.398438 21.066406 12.8125 21.214844 C 13.226562 21.367188 13.839844 20.734375 14.179688 19.800781 Z M 14.179688 19.800781 "/>
<path fill-rule="nonzero" fill="rgb(23.922729%, 16.500854%, 9.075928%)" fill-opacity="1" d="M 42.230469 23.160156 C 37.875 27.304688 33.390625 31.375 28.382812 34.71875 L 27.347656 38.558594 C 31.636719 36.289062 35.335938 33.09375 38.996094 29.949219 C 40.761719 28.390625 42.496094 26.800781 44.191406 25.160156 Z M 42.230469 23.160156 "/>
<g clip-path="url(#clip-2)">
<path fill-rule="nonzero" fill="rgb(0%, 67.83905%, 93.728638%)" fill-opacity="1" d="M 11.371094 33.246094 C 5.140625 34.445312 -5.8125 46.882812 5.757812 57.949219 C 17.351562 69.011719 77.683594 61.609375 48.480469 25.589844 C 23.890625 37.96875 32.332031 29.5 14.167969 37.296875 Z M 11.371094 33.246094 "/>
<path fill-rule="nonzero" fill="rgb(0%, 0%, 50%)" fill-opacity="1" d="M 48.511719 25.589844 C 77.90625 61.886719 17.546875 69.292969 5.953125 58.226562 C -5.617188 47.160156 4.164062 35.257812 9.976562 33.71875 L 13.523438 39.335938 C 13.523438 39.335938 12.855469 39.925781 11.902344 40.59375 L 11.121094 39.28125 L 10.476562 39.671875 L 11.289062 40.984375 C 10.898438 41.238281 10.449219 41.488281 10.003906 41.710938 L 9.472656 40.257812 L 8.773438 40.511719 L 9.332031 42.019531 C 8.96875 42.160156 8.605469 42.300781 8.242188 42.382812 L 7.851562 40.957031 L 7.125 41.152344 L 7.488281 42.46875 C 7.011719 42.496094 6.566406 42.410156 6.175781 42.1875 C 6.148438 43.613281 6.875 44.03125 7.878906 43.921875 L 8.1875 45.066406 L 8.914062 44.871094 L 8.605469 43.78125 C 8.996094 43.667969 9.417969 43.5 9.835938 43.332031 L 10.171875 44.285156 L 10.871094 44.03125 L 10.507812 42.996094 C 11.007812 42.746094 11.539062 42.46875 11.988281 42.1875 L 12.574219 43.136719 L 13.21875 42.746094 L 12.628906 41.769531 C 13.523438 41.210938 14.167969 40.734375 14.167969 40.734375 C 25.929688 32.601562 22.464844 39.085938 48.511719 25.589844 Z M 48.511719 25.589844 "/>
</g>
<g clip-path="url(#clip-3)">
<path fill-rule="nonzero" fill="rgb(79.748535%, 54.998779%, 30.249023%)" fill-opacity="1" d="M 44.40625 25.738281 C 44.40625 25.179688 35.660156 19.886719 24.261719 15.683594 C 12.863281 11.480469 3.125 9.957031 3.125 10.042969 C 3.40625 8.710938 29.613281 -0.707031 29.613281 0.972656 C 29.613281 -0.425781 44.683594 23.929688 44.40625 25.738281 Z M 44.40625 25.738281 "/>
</g>
</svg>
