<?xml version="1.0" encoding="UTF-8"?>
<svg xmlns="http://www.w3.org/2000/svg" xmlns:xlink="http://www.w3.org/1999/xlink" width="300.472" height="283.464" viewBox="0 0 300.472 283.464">
<defs>
<clipPath id="clip-0">
<path clip-rule="nonzero" d="M 0.0195312 0 L 299.925781 0 L 299.925781 282.929688 L 0.0195312 282.929688 Z M 0.0195312 0 "/>
</clipPath>
<clipPath id="clip-1">
<path clip-rule="nonzero" d="M 79 75 L 87 75 L 87 178 L 79 178 Z M 79 75 "/>
</clipPath>
<clipPath id="clip-2">
<path clip-rule="nonzero" d="M 79.671875 75.777344 C 118.007812 75.363281 131.109375 78.597656 163.183594 94.40625 C 181.269531 114.804688 191.898438 154.933594 173.746094 175.269531 C 164.90625 177.878906 159.300781 133.984375 105.359375 177.347656 C 105.550781 167.308594 134.855469 112.367188 79.671875 75.777344 Z M 79.671875 75.777344 "/>
</clipPath>
<clipPath id="clip-3">
<path clip-rule="nonzero" d="M 93 75 L 101 75 L 101 178 L 93 178 Z M 93 75 "/>
</clipPath>
<clipPath id="clip-4">
<path clip-rule="nonzero" d="M 79.671875 75.777344 C 118.007812 75.363281 131.109375 78.597656 163.183594 94.40625 C 181.269531 114.804688 191.898438 154.933594 173.746094 175.269531 C 164.90625 177.878906 159.300781 133.984375 105.359375 177.347656 C 105.550781 167.308594 134.855469 112.367188 79.671875 75.777344 Z M 79.671875 75.777344 "/>
</clipPath>
<clipPath id="clip-5">
<path clip-rule="nonzero" d="M 107 75 L 115 75 L 115 178 L 107 178 Z M 107 75 "/>
</clipPath>
<clipPath id="clip-6">
<path clip-rule="nonzero" d="M 79.671875 75.777344 C 118.007812 75.363281 131.109375 78.597656 163.183594 94.40625 C 181.269531 114.804688 191.898438 154.933594 173.746094 175.269531 C 164.90625 177.878906 159.300781 133.984375 105.359375 177.347656 C 105.550781 167.308594 134.855469 112.367188 79.671875 75.777344 Z M 79.671875 75.777344 "/>
</clipPath>
<clipPath id="clip-7">
<path clip-rule="nonzero" d="M 121 75 L 129 75 L 129 178 L 121 178 Z M 121 75 "/>
</clipPath>
<clipPath id="clip-8">
<path clip-rule="nonzero" d="M 79.671875 75.777344 C 118.007812 75.363281 131.109375 78.597656 163.183594 94.40625 C 181.269531 114.804688 191.898438 154.933594 173.746094 175.269531 C 164.90625 177.878906 159.300781 133.984375 105.359375 177.347656 C 105.550781 167.308594 134.855469 112.367188 79.671875 75.777344 Z M 79.671875 75.777344 "/>
</clipPath>
<clipPath id="clip-9">
<path clip-rule="nonzero" d="M 135 75 L 143 75 L 143 178 L 135 178 Z M 135 75 "/>
</clipPath>
<clipPath id="clip-10">
<path clip-rule="nonzero" d="M 79.671875 75.777344 C 118.007812 75.363281 131.109375 78.597656 163.183594 94.40625 C 181.269531 114.804688 191.898438 154.933594 173.746094 175.269531 C 164.90625 177.878906 159.300781 133.984375 105.359375 177.347656 C 105.550781 167.308594 134.855469 112.367188 79.671875 75.777344 Z M 79.671875 75.777344 "/>
</clipPath>
<clipPath id="clip-11">
<path clip-rule="nonzero" d="M 149 75 L 158 75 L 158 178 L 149 178 Z M 149 75 "/>
</clipPath>
<clipPath id="clip-12">
<path clip-rule="nonzero" d="M 79.671875 75.777344 C 118.007812 75.363281 131.109375 78.597656 163.183594 94.40625 C 181.269531 114.804688 191.898438 154.933594 173.746094 175.269531 C 164.90625 177.878906 159.300781 133.984375 105.359375 177.347656 C 105.550781 167.308594 134.855469 112.367188 79.671875 75.777344 Z M 79.671875 75.777344 "/>
</clipPath>
<clipPath id="clip-13">
<path clip-rule="nonzero" d="M 164 75 L 172 75 L 172 178 L 164 178 Z M 164 75 "/>
</clipPath>
<clipPath id="clip-14">
<path clip-rule="nonzero" d="M 79.671875 75.777344 C 118.007812 75.363281 131.109375 78.597656 163.183594 94.40625 C 181.269531 114.804688 191.898438 154.933594 173.746094 175.269531 C 164.90625 177.878906 159.300781 133.984375 105.359375 177.347656 C 105.550781 167.308594 134.855469 112.367188 79.671875 75.777344 Z M 79.671875 75.777344 "/>
</clipPath>
<clipPath id="clip-15">
<path clip-rule="nonzero" d="M 178 75 L 184 75 L 184 178 L 178 178 Z M 178 75 "/>
</clipPath>
<clipPath id="clip-16">
<path clip-rule="nonzero" d="M 79.671875 75.777344 C 118.007812 75.363281 131.109375 78.597656 163.183594 94.40625 C 181.269531 114.804688 191.898438 154.933594 173.746094 175.269531 C 164.90625 177.878906 159.300781 133.984375 105.359375 177.347656 C 105.550781 167.308594 134.855469 112.367188 79.671875 75.777344 Z M 79.671875 75.777344 "/>
</clipPath>
<clipPath id="clip-17">
<path clip-rule="nonzero" d="M 0.0195312 230 L 299.925781 230 L 299.925781 282.929688 L 0.0195312 282.929688 Z M 0.0195312 230 "/>
</clipPath>
</defs>
<g clip-path="url(#clip-0)">
<path fill-rule="nonzero" fill="rgb(89.99939%, 89.99939%, 89.99939%)" fill-opacity="1" d="M 0.0195312 282.929688 L 299.925781 282.929688 L 299.925781 0 L 0.0195312 0 Z M 0.0195312 282.929688 "/>
<path fill-rule="nonzero" fill="rgb(69.999695%, 81.997681%, 87.998962%)" fill-opacity="1" d="M 0.0195312 282.929688 L 0.0195312 -0.00390625 L 299.929688 -0.00390625 L 299.929688 282.929688 Z M 0.0195312 282.929688 "/>
</g>
<path fill-rule="nonzero" fill="rgb(50%, 100%, 0%)" fill-opacity="1" d="M 129.367188 46.972656 C 131.476562 46.785156 135.667969 49.570312 133.144531 53.726562 C 130.613281 57.886719 112.328125 60.457031 118.066406 47.589844 C 126.320312 49.535156 122.890625 46.648438 129.367188 46.972656 Z M 129.367188 46.972656 "/>
<path fill-rule="nonzero" fill="rgb(50%, 100%, 0%)" fill-opacity="1" d="M 121.316406 46.007812 C 120.554688 43.179688 121.777344 40.394531 124.042969 39.785156 C 126.304688 39.179688 128.753906 40.984375 129.511719 43.8125 C 130.273438 46.644531 129.050781 49.429688 126.785156 50.035156 C 124.523438 50.640625 122.074219 48.839844 121.316406 46.007812 Z M 121.316406 46.007812 "/>
<path fill-rule="nonzero" fill="rgb(69.999695%, 39.99939%, 9.999084%)" fill-opacity="1" d="M 129.625 44.222656 C 128.65625 44.21875 128.496094 44.613281 128.195312 45.132812 C 127.980469 45.628906 127.488281 45.761719 126.070312 46.054688 C 130.035156 46.75 130.570312 46.78125 130.664062 46.140625 C 129.035156 45.960938 130.226562 44.5 129.625 44.222656 Z M 129.625 44.222656 "/>
<path fill-rule="nonzero" fill="rgb(87.5%, 50%, 12.5%)" fill-opacity="1" d="M 129.617188 43.871094 C 128.648438 43.867188 128.496094 44.613281 128.195312 45.132812 C 127.980469 45.628906 127.570312 45.738281 126.070312 46.054688 C 130.035156 46.75 128.585938 44.941406 131.648438 45.875 C 130.78125 43.296875 129.617188 43.871094 129.617188 43.871094 Z M 129.617188 43.871094 "/>
<path fill-rule="nonzero" fill="rgb(100%, 99.234009%, 85.00061%)" fill-opacity="1" d="M 125.261719 44.496094 C 124.925781 44.015625 124.933594 43.433594 125.277344 43.195312 C 125.617188 42.953125 126.167969 43.148438 126.503906 43.628906 C 126.839844 44.109375 126.835938 44.691406 126.492188 44.933594 C 126.148438 45.171875 125.597656 44.976562 125.261719 44.496094 Z M 125.261719 44.496094 "/>
<path fill-rule="nonzero" fill="rgb(0%, 0%, 0%)" fill-opacity="1" d="M 125.476562 44.453125 C 125.285156 44.179688 125.238281 43.878906 125.375 43.78125 C 125.515625 43.6875 125.78125 43.832031 125.972656 44.105469 C 126.164062 44.378906 126.210938 44.679688 126.070312 44.773438 C 125.933594 44.871094 125.667969 44.726562 125.476562 44.453125 Z M 125.476562 44.453125 "/>
<path fill-rule="nonzero" fill="rgb(100%, 99.234009%, 85.00061%)" fill-opacity="1" d="M 127.488281 43.226562 C 127.179688 42.785156 127.175781 42.257812 127.476562 42.046875 C 127.78125 41.835938 128.273438 42.019531 128.582031 42.460938 C 128.886719 42.898438 128.894531 43.425781 128.589844 43.636719 C 128.289062 43.847656 127.796875 43.664062 127.488281 43.226562 Z M 127.488281 43.226562 "/>
<path fill-rule="nonzero" fill="rgb(0%, 0%, 0%)" fill-opacity="1" d="M 127.675781 43.195312 C 127.503906 42.949219 127.453125 42.6875 127.5625 42.609375 C 127.671875 42.535156 127.902344 42.671875 128.074219 42.917969 C 128.246094 43.164062 128.296875 43.429688 128.1875 43.503906 C 128.078125 43.582031 127.847656 43.445312 127.675781 43.195312 Z M 127.675781 43.195312 "/>
<path fill-rule="nonzero" fill="rgb(0%, 50%, 50%)" fill-opacity="1" d="M 130.289062 40.070312 C 129.402344 38.921875 127.625 39.445312 127.636719 39.148438 C 127.421875 38.128906 129.105469 37.425781 129.105469 37.425781 C 127.480469 37.386719 125.757812 41.035156 126.132812 36.910156 C 125.964844 37.175781 124.5 39.234375 124.136719 37.128906 C 124.28125 38.285156 123.628906 38.886719 122.964844 38.824219 C 121.378906 35.804688 123.746094 40.933594 119.953125 38.804688 C 119.773438 39.136719 121.933594 40.535156 120.382812 40.644531 C 121.324219 43.097656 118.78125 39.988281 118.78125 39.988281 C 118.78125 39.988281 119.554688 41.652344 120.078125 42.332031 C 120.078125 42.332031 118.011719 42.964844 117.871094 43.574219 C 122.34375 43.050781 115.765625 45.496094 120.058594 44.347656 C 119.824219 44.929688 121.902344 44.964844 119.058594 45.78125 C 125.375 44.222656 121.402344 42.277344 124.253906 40.441406 C 126.960938 39.261719 127.730469 41.191406 128.292969 41.535156 C 127.824219 40.214844 128.941406 40.367188 130.289062 40.070312 Z M 130.289062 40.070312 "/>
<path fill-rule="nonzero" fill="rgb(44.999695%, 29.998779%, 14.99939%)" fill-opacity="1" d="M 124.105469 57.507812 L 150.613281 230.769531 L 167.386719 227.480469 L 129.808594 55.519531 Z M 124.105469 57.507812 "/>
<path fill-rule="nonzero" fill="rgb(44.999695%, 29.998779%, 14.99939%)" fill-opacity="1" d="M 136.921875 54.234375 C 136.515625 52.722656 131.292969 52.8125 125.257812 54.429688 C 119.21875 56.046875 114.652344 58.582031 115.058594 60.089844 C 115.460938 61.601562 120.683594 61.511719 126.722656 59.894531 C 132.757812 58.277344 137.324219 55.742188 136.921875 54.234375 Z M 136.921875 54.234375 "/>
<path fill-rule="nonzero" fill="rgb(94.999695%, 89.99939%, 84.999084%)" fill-opacity="1" d="M 151.292969 175.164062 C 156.328125 181.667969 152.488281 185.089844 151.414062 186.230469 C 150.453125 187.039062 150.449219 187.511719 150.394531 188.492188 C 150.679688 190.101562 152.152344 191.1875 153.6875 190.914062 C 154.558594 190.617188 155.351562 190.324219 155.964844 189.3125 C 155.964844 189.3125 161.144531 177.730469 151.292969 175.164062 Z M 151.292969 175.164062 "/>
<path fill-rule="nonzero" fill="rgb(92.871094%, 83.229065%, 14.369202%)" fill-opacity="1" d="M 164.5625 208.179688 C 171.628906 208.171875 184.738281 218.644531 175.148438 231.710938 C 165.53125 244.785156 104.070312 248.007812 126.855469 206.957031 C 153.699219 215.8125 143.15625 205.234375 164.5625 208.179688 Z M 164.5625 208.179688 "/>
<path fill-rule="nonzero" fill="rgb(92.871094%, 83.229065%, 14.369202%)" fill-opacity="1" d="M 138.105469 202.648438 C 136.410156 193.027344 141.273438 184.132812 148.964844 182.777344 C 156.660156 181.417969 164.273438 188.117188 165.96875 197.734375 C 167.664062 207.351562 162.800781 216.25 155.105469 217.605469 C 147.414062 218.960938 139.800781 212.265625 138.105469 202.648438 Z M 138.105469 202.648438 "/>
<path fill-rule="nonzero" fill="rgb(87.5%, 50%, 12.5%)" fill-opacity="1" d="M 165.9375 198.542969 C 159.050781 198.09375 163.007812 203.914062 152.398438 203.863281 C 177.996094 214.289062 170.261719 200.742188 165.9375 198.542969 Z M 165.9375 198.542969 "/>
<path fill-rule="nonzero" fill="rgb(100%, 99.234009%, 85.00061%)" fill-opacity="1" d="M 151.65625 198.773438 C 150.679688 197.078125 150.867188 195.144531 152.074219 194.445312 C 153.285156 193.746094 155.054688 194.554688 156.03125 196.246094 C 157.007812 197.9375 156.820312 199.875 155.613281 200.570312 C 154.402344 201.269531 152.632812 200.464844 151.65625 198.773438 Z M 151.65625 198.773438 "/>
<path fill-rule="nonzero" fill="rgb(0%, 0%, 0%)" fill-opacity="1" d="M 152.375 198.683594 C 151.816406 197.714844 151.757812 196.707031 152.242188 196.429688 C 152.722656 196.148438 153.566406 196.707031 154.125 197.671875 C 154.683594 198.640625 154.742188 199.648438 154.261719 199.925781 C 153.777344 200.207031 152.933594 199.648438 152.375 198.683594 Z M 152.375 198.683594 "/>
<path fill-rule="nonzero" fill="rgb(100%, 99.234009%, 85.00061%)" fill-opacity="1" d="M 159.414062 195.191406 C 158.519531 193.644531 158.660156 191.894531 159.722656 191.277344 C 160.785156 190.664062 162.371094 191.421875 163.265625 192.96875 C 164.15625 194.515625 164.019531 196.265625 162.957031 196.878906 C 161.890625 197.496094 160.304688 196.738281 159.414062 195.191406 Z M 159.414062 195.191406 "/>
<path fill-rule="nonzero" fill="rgb(0%, 0%, 0%)" fill-opacity="1" d="M 160.046875 195.152344 C 159.542969 194.285156 159.449219 193.398438 159.835938 193.175781 C 160.222656 192.949219 160.945312 193.476562 161.445312 194.34375 C 161.949219 195.214844 162.042969 196.101562 161.65625 196.324219 C 161.269531 196.546875 160.546875 196.023438 160.046875 195.152344 Z M 160.046875 195.152344 "/>
<path fill-rule="nonzero" fill="rgb(50%, 50%, 50%)" fill-opacity="1" d="M 137.105469 202.378906 C 135.996094 196.625 135.78125 187.277344 144.96875 183.398438 C 154.003906 179.582031 161.644531 186.160156 163.0625 189.101562 C 158.5625 189.324219 143.835938 194.511719 137.105469 202.378906 Z M 137.105469 202.378906 "/>
<path fill-rule="nonzero" fill="rgb(34.999084%, 34.999084%, 34.999084%)" fill-opacity="1" d="M 145.339844 183.097656 C 147.835938 182.796875 150.105469 184.292969 151.9375 185.8125 C 153.050781 186.769531 154.039062 187.859375 154.925781 189.023438 C 157.078125 188.214844 159.273438 187.507812 161.507812 186.960938 C 162.429688 187.351562 164.195312 189.535156 162.441406 189.847656 C 160.53125 190.453125 158.621094 191.078125 156.75 191.804688 C 156.75 191.804688 156.75 191.804688 154.75 192.613281 C 148.332031 195.320312 142.777344 198.425781 137.933594 203.476562 C 137.097656 202.941406 136.5 202.273438 136.507812 201.339844 C 136.488281 200.269531 137.496094 199.691406 138.128906 198.976562 C 142.34375 194.980469 147.496094 192.117188 152.816406 189.867188 C 150.484375 187.035156 147.328125 184.636719 143.636719 184.035156 C 144.066406 183.53125 144.691406 183.207031 145.339844 183.097656 Z M 145.339844 183.097656 "/>
<path fill-rule="nonzero" fill="rgb(75%, 75%, 75%)" fill-opacity="1" d="M 161.011719 188.695312 C 160.972656 188.464844 161.125 188.246094 161.359375 188.203125 C 161.589844 188.164062 161.808594 188.316406 161.847656 188.546875 C 161.890625 188.777344 161.734375 189 161.503906 189.039062 C 161.273438 189.082031 161.054688 188.925781 161.011719 188.695312 Z M 158.722656 189.386719 C 158.679688 189.15625 158.835938 188.9375 159.066406 188.894531 C 159.296875 188.855469 159.515625 189.007812 159.558594 189.238281 C 159.597656 189.46875 159.445312 189.691406 159.214844 189.730469 C 158.984375 189.773438 158.761719 189.617188 158.722656 189.386719 Z M 156.054688 190.230469 C 156.015625 190 156.167969 189.78125 156.398438 189.738281 C 156.628906 189.699219 156.851562 189.851562 156.890625 190.082031 C 156.929688 190.3125 156.777344 190.535156 156.546875 190.574219 C 156.316406 190.617188 156.097656 190.460938 156.054688 190.230469 Z M 153.1875 191.398438 C 153.144531 191.167969 153.300781 190.945312 153.53125 190.90625 C 153.761719 190.863281 153.980469 191.019531 154.023438 191.25 C 154.0625 191.480469 153.910156 191.699219 153.679688 191.742188 C 153.449219 191.78125 153.226562 191.628906 153.1875 191.398438 Z M 150.320312 192.734375 C 150.277344 192.503906 150.433594 192.285156 150.664062 192.246094 C 150.894531 192.203125 151.113281 192.359375 151.15625 192.589844 C 151.195312 192.820312 151.042969 193.039062 150.8125 193.082031 C 150.582031 193.121094 150.359375 192.964844 150.320312 192.734375 Z M 147.566406 194.054688 C 147.523438 193.824219 147.679688 193.605469 147.910156 193.5625 C 148.140625 193.523438 148.359375 193.675781 148.398438 193.90625 C 148.441406 194.136719 148.285156 194.359375 148.054688 194.398438 C 147.824219 194.441406 147.605469 194.285156 147.566406 194.054688 Z M 145.0625 195.503906 C 145.019531 195.269531 145.175781 195.050781 145.40625 195.011719 C 145.636719 194.96875 145.855469 195.125 145.898438 195.355469 C 145.9375 195.585938 145.785156 195.804688 145.554688 195.847656 C 145.324219 195.886719 145.101562 195.734375 145.0625 195.503906 Z M 142.828125 196.84375 C 142.785156 196.613281 142.941406 196.394531 143.171875 196.351562 C 143.402344 196.3125 143.621094 196.464844 143.664062 196.695312 C 143.703125 196.925781 143.550781 197.148438 143.320312 197.1875 C 143.089844 197.230469 142.867188 197.074219 142.828125 196.84375 Z M 140.507812 198.515625 C 140.46875 198.285156 140.621094 198.066406 140.851562 198.027344 C 141.082031 197.984375 141.304688 198.140625 141.34375 198.371094 C 141.382812 198.601562 141.230469 198.820312 141 198.859375 C 140.769531 198.902344 140.546875 198.746094 140.507812 198.515625 Z M 138.402344 200.265625 C 138.363281 200.035156 138.515625 199.816406 138.746094 199.777344 C 138.976562 199.734375 139.199219 199.890625 139.238281 200.121094 C 139.28125 200.351562 139.125 200.570312 138.894531 200.613281 C 138.664062 200.652344 138.445312 200.5 138.402344 200.265625 Z M 152.941406 188.855469 C 152.898438 188.625 153.054688 188.402344 153.285156 188.363281 C 153.515625 188.324219 153.734375 188.476562 153.777344 188.707031 C 153.816406 188.9375 153.664062 189.160156 153.429688 189.199219 C 153.199219 189.238281 152.980469 189.085938 152.941406 188.855469 Z M 151.128906 186.90625 C 151.089844 186.671875 151.242188 186.453125 151.472656 186.414062 C 151.707031 186.371094 151.925781 186.527344 151.964844 186.757812 C 152.007812 186.988281 151.851562 187.207031 151.621094 187.25 C 151.390625 187.289062 151.171875 187.136719 151.128906 186.90625 Z M 149.105469 185.367188 C 149.066406 185.132812 149.21875 184.914062 149.449219 184.875 C 149.683594 184.832031 149.902344 184.988281 149.941406 185.21875 C 149.984375 185.449219 149.828125 185.667969 149.597656 185.710938 C 149.367188 185.75 149.148438 185.597656 149.105469 185.367188 Z M 147.175781 184.355469 C 147.136719 184.125 147.289062 183.90625 147.519531 183.863281 C 147.75 183.824219 147.972656 183.976562 148.011719 184.207031 C 148.050781 184.4375 147.898438 184.660156 147.667969 184.699219 C 147.4375 184.742188 147.214844 184.585938 147.175781 184.355469 Z M 145.253906 183.71875 C 145.210938 183.488281 145.367188 183.265625 145.597656 183.226562 C 145.828125 183.183594 146.046875 183.339844 146.089844 183.570312 C 146.128906 183.800781 145.976562 184.019531 145.746094 184.0625 C 145.515625 184.101562 145.292969 183.949219 145.253906 183.71875 Z M 136.902344 201.851562 C 136.859375 201.621094 137.015625 201.402344 137.246094 201.363281 C 137.476562 201.320312 137.695312 201.476562 137.738281 201.707031 C 137.777344 201.9375 137.625 202.15625 137.394531 202.199219 C 137.164062 202.238281 136.941406 202.085938 136.902344 201.851562 Z M 136.902344 201.851562 "/>
<path fill-rule="nonzero" fill="rgb(94.999695%, 89.99939%, 84.999084%)" fill-opacity="1" d="M 138.976562 178.011719 C 136.464844 185.84375 141.242188 187.746094 142.644531 188.449219 C 143.820312 188.878906 143.988281 189.320312 144.371094 190.226562 C 144.65625 191.835938 143.644531 193.359375 142.109375 193.628906 C 141.191406 193.644531 140.339844 193.644531 139.421875 192.902344 C 139.421875 192.902344 130.589844 183.789062 138.976562 178.011719 Z M 138.976562 178.011719 "/>
<path fill-rule="nonzero" fill="rgb(94.999695%, 89.99939%, 84.999084%)" fill-opacity="1" d="M 199.300781 159.675781 C 206.257812 164.0625 203.820312 168.59375 203.199219 170.035156 C 202.574219 171.121094 202.730469 171.566406 203.015625 172.503906 C 203.832031 173.921875 205.589844 174.4375 206.9375 173.65625 C 207.652344 173.078125 208.300781 172.53125 208.53125 171.375 C 208.53125 171.375 209.4375 158.714844 199.300781 159.675781 Z M 199.300781 159.675781 "/>
<path fill-rule="nonzero" fill="rgb(92.871094%, 83.229065%, 14.369202%)" fill-opacity="1" d="M 223.0625 186.160156 C 229.699219 183.734375 245.601562 189.09375 241.058594 204.652344 C 236.492188 220.226562 179.839844 244.277344 187.210938 197.910156 C 215.464844 197.050781 201.941406 190.714844 223.0625 186.160156 Z M 223.0625 186.160156 "/>
<path fill-rule="nonzero" fill="rgb(92.871094%, 83.229065%, 14.369202%)" fill-opacity="1" d="M 196.308594 190.011719 C 191.425781 181.554688 192.953125 171.53125 199.71875 167.625 C 206.484375 163.71875 215.925781 167.40625 220.8125 175.863281 C 225.695312 184.324219 224.167969 194.347656 217.402344 198.253906 C 210.632812 202.160156 201.191406 198.46875 196.308594 190.011719 Z M 196.308594 190.011719 "/>
<path fill-rule="nonzero" fill="rgb(87.5%, 50%, 12.5%)" fill-opacity="1" d="M 221.058594 176.636719 C 214.433594 178.566406 220.144531 182.6875 210.152344 186.265625 C 237.773438 187.308594 225.875 177.222656 221.058594 176.636719 Z M 221.058594 176.636719 "/>
<path fill-rule="nonzero" fill="rgb(100%, 99.234009%, 85.00061%)" fill-opacity="1" d="M 207.714844 181.734375 C 206.21875 180.480469 205.734375 178.597656 206.628906 177.527344 C 207.527344 176.457031 209.46875 176.609375 210.964844 177.863281 C 212.460938 179.121094 212.945312 181.003906 212.050781 182.074219 C 211.152344 183.144531 209.210938 182.992188 207.714844 181.734375 Z M 207.714844 181.734375 "/>
<path fill-rule="nonzero" fill="rgb(0%, 0%, 0%)" fill-opacity="1" d="M 208.363281 181.40625 C 207.507812 180.6875 207.105469 179.761719 207.464844 179.335938 C 207.820312 178.90625 208.804688 179.140625 209.660156 179.859375 C 210.515625 180.574219 210.917969 181.503906 210.558594 181.929688 C 210.199219 182.359375 209.214844 182.125 208.363281 181.40625 Z M 208.363281 181.40625 "/>
<path fill-rule="nonzero" fill="rgb(100%, 99.234009%, 85.00061%)" fill-opacity="1" d="M 213.78125 175.71875 C 212.410156 174.570312 211.941406 172.878906 212.730469 171.9375 C 213.523438 170.996094 215.269531 171.164062 216.640625 172.3125 C 218.007812 173.460938 218.476562 175.152344 217.6875 176.09375 C 216.898438 177.035156 215.148438 176.867188 213.78125 175.71875 Z M 213.78125 175.71875 "/>
<path fill-rule="nonzero" fill="rgb(0%, 0%, 0%)" fill-opacity="1" d="M 214.359375 175.46875 C 213.589844 174.820312 213.199219 174.019531 213.488281 173.679688 C 213.773438 173.335938 214.632812 173.582031 215.402344 174.226562 C 216.171875 174.875 216.5625 175.675781 216.273438 176.015625 C 215.988281 176.359375 215.128906 176.113281 214.359375 175.46875 Z M 214.359375 175.46875 "/>
<path fill-rule="nonzero" fill="rgb(50%, 50%, 50%)" fill-opacity="1" d="M 195.277344 190.101562 C 192.265625 185.074219 188.867188 176.363281 196.175781 169.574219 C 203.359375 162.902344 212.789062 166.46875 215.128906 168.746094 C 210.976562 170.496094 198.910156 180.40625 195.277344 190.101562 Z M 195.277344 190.101562 "/>
<path fill-rule="nonzero" fill="rgb(34.999084%, 34.999084%, 34.999084%)" fill-opacity="1" d="M 196.421875 169.167969 C 198.660156 168.03125 201.308594 168.660156 203.550781 169.460938 C 204.921875 169.980469 206.222656 170.667969 207.457031 171.457031 C 209.199219 169.960938 211.019531 168.542969 212.933594 167.265625 C 213.933594 167.320312 216.339844 168.769531 214.800781 169.660156 C 213.210938 170.882812 211.628906 172.125 210.121094 173.449219 C 210.121094 173.449219 210.121094 173.449219 208.519531 174.890625 C 203.410156 179.632812 199.257812 184.449219 196.429688 190.851562 C 195.460938 190.632812 194.671875 190.207031 194.363281 189.328125 C 193.976562 188.332031 194.726562 187.441406 195.074219 186.554688 C 197.667969 181.359375 201.53125 176.90625 205.761719 172.96875 C 202.601562 171.109375 198.816406 169.933594 195.140625 170.632812 C 195.375 170.007812 195.847656 169.492188 196.421875 169.167969 Z M 196.421875 169.167969 "/>
<path fill-rule="nonzero" fill="rgb(75%, 75%, 75%)" fill-opacity="1" d="M 213.0625 169.066406 C 212.945312 168.863281 213.015625 168.605469 213.21875 168.488281 C 213.421875 168.371094 213.679688 168.4375 213.796875 168.640625 C 213.914062 168.84375 213.847656 169.105469 213.644531 169.222656 C 213.441406 169.339844 213.179688 169.269531 213.0625 169.066406 Z M 211.144531 170.5 C 211.027344 170.296875 211.097656 170.039062 211.300781 169.921875 C 211.503906 169.804688 211.765625 169.871094 211.882812 170.074219 C 212 170.277344 211.929688 170.539062 211.726562 170.65625 C 211.523438 170.773438 211.261719 170.703125 211.144531 170.5 Z M 208.929688 172.203125 C 208.8125 172 208.882812 171.742188 209.085938 171.625 C 209.285156 171.507812 209.546875 171.578125 209.664062 171.78125 C 209.78125 171.984375 209.710938 172.242188 209.507812 172.359375 C 209.304688 172.476562 209.046875 172.40625 208.929688 172.203125 Z M 206.632812 174.28125 C 206.515625 174.078125 206.585938 173.820312 206.789062 173.703125 C 206.992188 173.585938 207.25 173.65625 207.367188 173.859375 C 207.484375 174.0625 207.414062 174.320312 207.210938 174.4375 C 207.007812 174.554688 206.75 174.484375 206.632812 174.28125 Z M 204.394531 176.519531 C 204.277344 176.316406 204.347656 176.058594 204.550781 175.941406 C 204.753906 175.824219 205.015625 175.894531 205.132812 176.097656 C 205.25 176.300781 205.179688 176.558594 204.976562 176.675781 C 204.773438 176.792969 204.511719 176.722656 204.394531 176.519531 Z M 202.257812 178.703125 C 202.140625 178.5 202.210938 178.238281 202.414062 178.121094 C 202.617188 178.003906 202.875 178.074219 202.992188 178.277344 C 203.109375 178.480469 203.042969 178.742188 202.839844 178.859375 C 202.636719 178.976562 202.375 178.90625 202.257812 178.703125 Z M 200.402344 180.917969 C 200.285156 180.714844 200.355469 180.457031 200.558594 180.339844 C 200.757812 180.222656 201.019531 180.289062 201.136719 180.492188 C 201.253906 180.695312 201.183594 180.957031 200.980469 181.074219 C 200.777344 181.191406 200.519531 181.121094 200.402344 180.917969 Z M 198.761719 182.941406 C 198.644531 182.742188 198.714844 182.480469 198.917969 182.363281 C 199.121094 182.246094 199.378906 182.316406 199.496094 182.519531 C 199.613281 182.722656 199.542969 182.980469 199.339844 183.097656 C 199.136719 183.214844 198.878906 183.144531 198.761719 182.941406 Z M 197.152344 185.308594 C 197.035156 185.105469 197.105469 184.847656 197.308594 184.730469 C 197.511719 184.613281 197.773438 184.679688 197.890625 184.882812 C 198.003906 185.085938 197.9375 185.347656 197.734375 185.464844 C 197.53125 185.582031 197.269531 185.511719 197.152344 185.308594 Z M 195.773438 187.671875 C 195.65625 187.46875 195.726562 187.210938 195.929688 187.09375 C 196.132812 186.976562 196.390625 187.046875 196.507812 187.25 C 196.625 187.453125 196.558594 187.710938 196.355469 187.828125 C 196.152344 187.945312 195.890625 187.875 195.773438 187.671875 Z M 205.53125 171.976562 C 205.414062 171.773438 205.484375 171.515625 205.6875 171.398438 C 205.890625 171.28125 206.148438 171.351562 206.265625 171.554688 C 206.382812 171.757812 206.3125 172.015625 206.109375 172.132812 C 205.90625 172.25 205.648438 172.179688 205.53125 171.976562 Z M 203.164062 170.765625 C 203.046875 170.5625 203.117188 170.300781 203.320312 170.183594 C 203.523438 170.066406 203.78125 170.136719 203.898438 170.339844 C 204.015625 170.542969 203.945312 170.800781 203.742188 170.917969 C 203.539062 171.035156 203.28125 170.964844 203.164062 170.765625 Z M 200.734375 170.007812 C 200.617188 169.804688 200.6875 169.546875 200.890625 169.429688 C 201.09375 169.3125 201.351562 169.382812 201.46875 169.585938 C 201.585938 169.789062 201.519531 170.046875 201.316406 170.164062 C 201.113281 170.28125 200.851562 170.210938 200.734375 170.007812 Z M 198.574219 169.722656 C 198.457031 169.519531 198.527344 169.257812 198.730469 169.140625 C 198.933594 169.023438 199.195312 169.09375 199.3125 169.296875 C 199.429688 169.5 199.359375 169.757812 199.15625 169.875 C 198.953125 169.992188 198.691406 169.925781 198.574219 169.722656 Z M 196.550781 169.777344 C 196.433594 169.574219 196.503906 169.316406 196.707031 169.199219 C 196.910156 169.082031 197.167969 169.152344 197.285156 169.355469 C 197.402344 169.558594 197.332031 169.816406 197.128906 169.933594 C 196.925781 170.050781 196.667969 169.980469 196.550781 169.777344 Z M 194.90625 189.675781 C 194.789062 189.472656 194.859375 189.214844 195.0625 189.097656 C 195.265625 188.980469 195.523438 189.050781 195.640625 189.253906 C 195.757812 189.457031 195.6875 189.714844 195.484375 189.832031 C 195.28125 189.949219 195.023438 189.878906 194.90625 189.675781 Z M 194.90625 189.675781 "/>
<path fill-rule="nonzero" fill="rgb(94.999695%, 89.99939%, 84.999084%)" fill-opacity="1" d="M 188.699219 166.566406 C 189.015625 174.78125 194.160156 174.9375 195.71875 175.117188 C 196.972656 175.121094 197.28125 175.476562 197.949219 176.199219 C 198.765625 177.613281 198.335938 179.390625 196.988281 180.167969 C 196.128906 180.496094 195.332031 180.789062 194.210938 180.40625 C 194.210938 180.40625 182.796875 174.859375 188.699219 166.566406 Z M 188.699219 166.566406 "/>
<path fill-rule="nonzero" fill="rgb(94.999695%, 89.99939%, 84.999084%)" fill-opacity="1" d="M 106.324219 172.449219 C 107.433594 180.597656 102.394531 181.640625 100.894531 182.09375 C 99.660156 182.3125 99.421875 182.71875 98.882812 183.539062 C 98.324219 185.078125 99.058594 186.753906 100.523438 187.285156 C 101.425781 187.460938 102.261719 187.605469 103.296875 187.035156 C 103.296875 187.035156 113.574219 179.59375 106.324219 172.449219 Z M 106.324219 172.449219 "/>
<path fill-rule="nonzero" fill="rgb(92.871094%, 83.229065%, 14.369202%)" fill-opacity="1" d="M 101.308594 207.675781 C 107.433594 211.199219 113.550781 226.824219 98.710938 233.347656 C 83.84375 239.859375 29.007812 211.921875 69.265625 187.761719 C 88.082031 208.855469 84.242188 194.417969 101.308594 207.675781 Z M 101.308594 207.675781 "/>
<path fill-rule="nonzero" fill="rgb(92.871094%, 83.229065%, 14.369202%)" fill-opacity="1" d="M 81.160156 189.65625 C 84.5 180.476562 93.160156 175.203125 100.503906 177.875 C 107.84375 180.546875 111.089844 190.152344 107.75 199.332031 C 104.410156 208.507812 95.75 213.78125 88.40625 211.109375 C 81.066406 208.4375 77.820312 198.832031 81.160156 189.65625 Z M 81.160156 189.65625 "/>
<path fill-rule="nonzero" fill="rgb(87.5%, 50%, 12.5%)" fill-opacity="1" d="M 107.316406 200.019531 C 101.578125 196.183594 102.09375 203.203125 92.929688 197.851562 C 109.886719 219.679688 109.964844 204.082031 107.316406 200.019531 Z M 107.316406 200.019531 "/>
<path fill-rule="nonzero" fill="rgb(100%, 99.234009%, 85.00061%)" fill-opacity="1" d="M 94.832031 193.074219 C 94.832031 191.121094 95.964844 189.539062 97.359375 189.539062 C 98.753906 189.539062 99.886719 191.121094 99.886719 193.074219 C 99.886719 195.027344 98.753906 196.609375 97.359375 196.609375 C 95.964844 196.609375 94.832031 195.027344 94.832031 193.074219 Z M 94.832031 193.074219 "/>
<path fill-rule="nonzero" fill="rgb(0%, 0%, 0%)" fill-opacity="1" d="M 95.5 193.355469 C 95.5 192.242188 95.953125 191.335938 96.511719 191.335938 C 97.070312 191.335938 97.523438 192.242188 97.523438 193.355469 C 97.523438 194.472656 97.070312 195.378906 96.511719 195.378906 C 95.953125 195.378906 95.5 194.472656 95.5 193.355469 Z M 95.5 193.355469 "/>
<path fill-rule="nonzero" fill="rgb(100%, 99.234009%, 85.00061%)" fill-opacity="1" d="M 103.339844 193.851562 C 103.339844 192.066406 104.335938 190.617188 105.566406 190.617188 C 106.792969 190.617188 107.789062 192.066406 107.789062 193.851562 C 107.789062 195.636719 106.792969 197.085938 105.566406 197.085938 C 104.335938 197.085938 103.339844 195.636719 103.339844 193.851562 Z M 103.339844 193.851562 "/>
<path fill-rule="nonzero" fill="rgb(0%, 0%, 0%)" fill-opacity="1" d="M 103.90625 194.136719 C 103.90625 193.128906 104.269531 192.316406 104.714844 192.316406 C 105.164062 192.316406 105.527344 193.128906 105.527344 194.136719 C 105.527344 195.140625 105.164062 195.953125 104.714844 195.953125 C 104.269531 195.953125 103.90625 195.140625 103.90625 194.136719 Z M 103.90625 194.136719 "/>
<path fill-rule="nonzero" fill="rgb(50%, 50%, 50%)" fill-opacity="1" d="M 80.429688 188.921875 C 82.34375 183.382812 86.832031 175.179688 96.730469 176.417969 C 106.464844 177.628906 109.792969 187.148438 109.550781 190.402344 C 105.539062 188.347656 90.191406 185.472656 80.429688 188.921875 Z M 80.429688 188.921875 "/>
<path fill-rule="nonzero" fill="rgb(34.999084%, 34.999084%, 34.999084%)" fill-opacity="1" d="M 97.199219 176.34375 C 99.511719 177.328125 100.734375 179.761719 101.558594 181.992188 C 102.042969 183.375 102.355469 184.816406 102.539062 186.269531 C 104.808594 186.640625 107.0625 187.125 109.269531 187.769531 C 109.875 188.570312 110.3125 191.347656 108.636719 190.738281 C 106.679688 190.308594 104.710938 189.894531 102.730469 189.589844 C 102.730469 189.589844 102.730469 189.589844 100.59375 189.289062 C 93.679688 188.421875 87.320312 188.335938 80.597656 190.285156 C 80.140625 189.402344 79.957031 188.527344 80.433594 187.722656 C 80.949219 186.785156 82.113281 186.792969 83.019531 186.488281 C 88.664062 185.136719 94.558594 185.230469 100.292969 185.941406 C 99.6875 182.324219 98.15625 178.667969 95.257812 176.304688 C 95.882812 176.082031 96.582031 176.113281 97.199219 176.34375 Z M 97.199219 176.34375 "/>
<path fill-rule="nonzero" fill="rgb(75%, 75%, 75%)" fill-opacity="1" d="M 107.976562 189.027344 C 108.054688 188.804688 108.300781 188.691406 108.519531 188.773438 C 108.742188 188.851562 108.855469 189.097656 108.773438 189.316406 C 108.695312 189.535156 108.449219 189.652344 108.230469 189.570312 C 108.007812 189.492188 107.894531 189.246094 107.976562 189.027344 Z M 105.644531 188.480469 C 105.726562 188.257812 105.96875 188.144531 106.191406 188.226562 C 106.410156 188.304688 106.523438 188.550781 106.445312 188.769531 C 106.363281 188.988281 106.121094 189.101562 105.898438 189.023438 C 105.679688 188.941406 105.566406 188.699219 105.644531 188.480469 Z M 102.914062 187.875 C 102.996094 187.65625 103.238281 187.542969 103.457031 187.621094 C 103.679688 187.703125 103.792969 187.945312 103.710938 188.167969 C 103.632812 188.386719 103.390625 188.5 103.167969 188.421875 C 102.949219 188.339844 102.835938 188.097656 102.914062 187.875 Z M 99.847656 187.453125 C 99.925781 187.234375 100.171875 187.121094 100.390625 187.199219 C 100.613281 187.28125 100.726562 187.523438 100.644531 187.742188 C 100.566406 187.964844 100.320312 188.078125 100.101562 187.996094 C 99.878906 187.917969 99.765625 187.671875 99.847656 187.453125 Z M 96.695312 187.179688 C 96.777344 186.957031 97.019531 186.84375 97.238281 186.925781 C 97.460938 187.003906 97.574219 187.25 97.492188 187.46875 C 97.414062 187.6875 97.167969 187.804688 96.949219 187.722656 C 96.730469 187.640625 96.617188 187.398438 96.695312 187.179688 Z M 93.648438 186.945312 C 93.730469 186.722656 93.972656 186.609375 94.195312 186.691406 C 94.414062 186.769531 94.527344 187.011719 94.445312 187.234375 C 94.367188 187.453125 94.125 187.566406 93.902344 187.488281 C 93.683594 187.40625 93.570312 187.164062 93.648438 186.945312 Z M 90.757812 186.945312 C 90.839844 186.726562 91.082031 186.613281 91.300781 186.691406 C 91.523438 186.773438 91.636719 187.015625 91.554688 187.234375 C 91.476562 187.457031 91.234375 187.570312 91.011719 187.488281 C 90.792969 187.410156 90.679688 187.164062 90.757812 186.945312 Z M 88.152344 186.988281 C 88.234375 186.769531 88.476562 186.65625 88.695312 186.738281 C 88.917969 186.816406 89.03125 187.058594 88.949219 187.28125 C 88.871094 187.5 88.625 187.613281 88.40625 187.535156 C 88.1875 187.453125 88.074219 187.210938 88.152344 186.988281 Z M 85.308594 187.28125 C 85.386719 187.058594 85.632812 186.945312 85.851562 187.027344 C 86.070312 187.105469 86.183594 187.347656 86.105469 187.570312 C 86.023438 187.789062 85.78125 187.902344 85.5625 187.824219 C 85.339844 187.742188 85.226562 187.5 85.308594 187.28125 Z M 82.609375 187.742188 C 82.691406 187.523438 82.933594 187.410156 83.152344 187.488281 C 83.375 187.570312 83.488281 187.8125 83.40625 188.03125 C 83.328125 188.253906 83.082031 188.367188 82.863281 188.285156 C 82.644531 188.207031 82.53125 187.964844 82.609375 187.742188 Z M 100.90625 185.128906 C 100.984375 184.90625 101.226562 184.792969 101.449219 184.875 C 101.667969 184.953125 101.78125 185.199219 101.703125 185.417969 C 101.621094 185.636719 101.378906 185.75 101.160156 185.671875 C 100.9375 185.589844 100.824219 185.347656 100.90625 185.128906 Z M 100.3125 182.535156 C 100.394531 182.3125 100.636719 182.199219 100.855469 182.28125 C 101.078125 182.359375 101.191406 182.605469 101.109375 182.824219 C 101.03125 183.042969 100.785156 183.15625 100.566406 183.078125 C 100.347656 182.996094 100.234375 182.753906 100.3125 182.535156 Z M 99.328125 180.1875 C 99.410156 179.96875 99.652344 179.855469 99.875 179.933594 C 100.09375 180.015625 100.207031 180.257812 100.128906 180.480469 C 100.046875 180.699219 99.804688 180.8125 99.582031 180.734375 C 99.363281 180.652344 99.25 180.410156 99.328125 180.1875 Z M 98.164062 178.347656 C 98.242188 178.128906 98.488281 178.015625 98.707031 178.09375 C 98.925781 178.175781 99.039062 178.417969 98.960938 178.640625 C 98.878906 178.859375 98.636719 178.972656 98.417969 178.894531 C 98.195312 178.8125 98.082031 178.570312 98.164062 178.347656 Z M 96.816406 176.835938 C 96.898438 176.613281 97.140625 176.5 97.359375 176.582031 C 97.582031 176.660156 97.695312 176.90625 97.613281 177.125 C 97.535156 177.34375 97.289062 177.460938 97.070312 177.378906 C 96.851562 177.300781 96.738281 177.054688 96.816406 176.835938 Z M 80.515625 188.367188 C 80.597656 188.144531 80.839844 188.03125 81.058594 188.113281 C 81.28125 188.191406 81.394531 188.4375 81.3125 188.65625 C 81.234375 188.875 80.992188 188.988281 80.769531 188.910156 C 80.550781 188.828125 80.4375 188.585938 80.515625 188.367188 Z M 80.515625 188.367188 "/>
<path fill-rule="nonzero" fill="rgb(94.999695%, 89.99939%, 84.999084%)" fill-opacity="1" d="M 94.234375 168.753906 C 88.140625 174.28125 91.332031 178.320312 92.191406 179.628906 C 92.996094 180.589844 92.921875 181.054688 92.800781 182.03125 C 92.242188 183.566406 90.601562 184.378906 89.140625 183.847656 C 88.335938 183.402344 87.597656 182.976562 87.171875 181.875 C 87.171875 181.875 84.082031 169.566406 94.234375 168.753906 Z M 94.234375 168.753906 "/>
<path fill-rule="nonzero" fill="rgb(100%, 0%, 0%)" fill-opacity="1" d="M 79.671875 75.777344 C 118.007812 75.363281 131.109375 78.597656 163.183594 94.40625 C 181.269531 114.804688 191.898438 154.933594 173.746094 175.269531 C 164.90625 177.878906 159.300781 133.984375 105.359375 177.347656 C 105.550781 167.308594 134.855469 112.367188 79.671875 75.777344 Z M 79.671875 75.777344 "/>
<g clip-path="url(#clip-1)">
<g clip-path="url(#clip-2)">
<path fill-rule="nonzero" fill="rgb(100%, 100%, 100%)" fill-opacity="1" d="M 79.238281 183.902344 L 79.238281 70.730469 L 86.3125 70.730469 L 86.3125 183.902344 Z M 79.238281 183.902344 "/>
</g>
</g>
<g clip-path="url(#clip-3)">
<g clip-path="url(#clip-4)">
<path fill-rule="nonzero" fill="rgb(100%, 100%, 100%)" fill-opacity="1" d="M 93.386719 183.902344 L 93.386719 70.730469 L 100.460938 70.730469 L 100.460938 183.902344 Z M 93.386719 183.902344 "/>
</g>
</g>
<g clip-path="url(#clip-5)">
<g clip-path="url(#clip-6)">
<path fill-rule="nonzero" fill="rgb(100%, 100%, 100%)" fill-opacity="1" d="M 107.535156 183.902344 L 107.535156 70.730469 L 114.605469 70.730469 L 114.605469 183.902344 Z M 107.535156 183.902344 "/>
</g>
</g>
<g clip-path="url(#clip-7)">
<g clip-path="url(#clip-8)">
<path fill-rule="nonzero" fill="rgb(100%, 100%, 100%)" fill-opacity="1" d="M 121.679688 183.902344 L 121.679688 70.730469 L 128.753906 70.730469 L 128.753906 183.902344 Z M 121.679688 183.902344 "/>
</g>
</g>
<g clip-path="url(#clip-9)">
<g clip-path="url(#clip-10)">
<path fill-rule="nonzero" fill="rgb(100%, 100%, 100%)" fill-opacity="1" d="M 135.828125 183.902344 L 135.828125 70.730469 L 142.898438 70.730469 L 142.898438 183.902344 Z M 135.828125 183.902344 "/>
</g>
</g>
<g clip-path="url(#clip-11)">
<g clip-path="url(#clip-12)">
<path fill-rule="nonzero" fill="rgb(100%, 100%, 100%)" fill-opacity="1" d="M 149.972656 183.902344 L 149.972656 70.730469 L 157.046875 70.730469 L 157.046875 183.902344 Z M 149.972656 183.902344 "/>
</g>
</g>
<g clip-path="url(#clip-13)">
<g clip-path="url(#clip-14)">
<path fill-rule="nonzero" fill="rgb(100%, 100%, 100%)" fill-opacity="1" d="M 164.121094 183.902344 L 164.121094 70.730469 L 171.191406 70.730469 L 171.191406 183.902344 Z M 164.121094 183.902344 "/>
</g>
</g>
<g clip-path="url(#clip-15)">
<g clip-path="url(#clip-16)">
<path fill-rule="nonzero" fill="rgb(100%, 100%, 100%)" fill-opacity="1" d="M 178.265625 183.902344 L 178.265625 70.730469 L 185.339844 70.730469 L 185.339844 183.902344 Z M 178.265625 183.902344 "/>
</g>
</g>
<path fill-rule="nonzero" fill="rgb(59.999084%, 39.99939%, 19.999695%)" fill-opacity="1" d="M 53.898438 173.570312 C 46.316406 250.507812 249.722656 248.839844 243.523438 152.089844 C 309.753906 302.242188 14.449219 313.28125 53.898438 173.570312 Z M 53.898438 173.570312 "/>
<g clip-path="url(#clip-17)">
<path fill-rule="nonzero" fill="rgb(50%, 79.998779%, 69.999695%)" fill-opacity="1" d="M 0.328125 251.078125 C -0.367188 241.21875 16.304688 227.070312 25.820312 232.101562 C 9.179688 247.722656 15.46875 247.773438 21.601562 251.34375 C 31.558594 257.132812 35.410156 225.640625 53.542969 234.984375 C 42.605469 248.78125 47.886719 249.246094 54.433594 253.929688 C 64.910156 261.429688 63.703125 227.128906 82.683594 234.738281 C 72.949219 243.964844 79.945312 248.046875 85.164062 253.273438 C 95.070312 263.195312 94.550781 227.707031 115.960938 237.105469 C 106.878906 246.066406 112.164062 251.414062 117.160156 257.113281 C 125.070312 266.136719 127.335938 226.863281 144.789062 236.226562 C 136.035156 244.441406 143.550781 252.507812 148.800781 257.605469 C 157.597656 266.140625 150.613281 230.769531 173.023438 236.234375 C 166.667969 242.308594 170.066406 251.445312 175.144531 255.492188 C 183.917969 262.480469 183.214844 229.277344 203.441406 233.984375 C 197.457031 242.90625 198.964844 249.460938 204.722656 254.339844 C 215.148438 263.179688 227.328125 224.359375 238.261719 232.691406 C 225.066406 251.25 235.40625 253.441406 235.40625 253.441406 C 245.335938 259.789062 249.425781 225.496094 266.363281 230.867188 C 260.753906 240.527344 258.210938 244.394531 265.570312 248.980469 C 278.167969 256.832031 278.5 223.464844 290.449219 232.09375 C 277.472656 249.367188 299.929688 250.46875 299.929688 250.46875 L 299.609375 291.265625 L 1.117188 291.765625 Z M 0.328125 251.078125 "/>
</g>
</svg>
