<?xml version="1.0" encoding="UTF-8"?>
<svg xmlns="http://www.w3.org/2000/svg" xmlns:xlink="http://www.w3.org/1999/xlink" width="57.175" height="64.505" viewBox="0 0 57.175 64.505">
<defs>
<clipPath id="clip-0">
<path clip-rule="nonzero" d="M 0 0.214844 L 56.363281 0.214844 L 56.363281 63.800781 L 0 63.800781 Z M 0 0.214844 "/>
</clipPath>
<clipPath id="clip-1">
<path clip-rule="nonzero" d="M 14 0.214844 L 23 0.214844 L 23 16 L 14 16 Z M 14 0.214844 "/>
</clipPath>
<clipPath id="clip-2">
<path clip-rule="nonzero" d="M 0 26 L 56.363281 26 L 56.363281 63.800781 L 0 63.800781 Z M 0 26 "/>
</clipPath>
<clipPath id="clip-3">
<path clip-rule="nonzero" d="M 28 0.214844 L 37 0.214844 L 37 17 L 28 17 Z M 28 0.214844 "/>
</clipPath>
</defs>
<g clip-path="url(#clip-0)">
<path fill-rule="nonzero" fill="rgb(89.99939%, 89.99939%, 89.99939%)" fill-opacity="1" d="M 0 63.800781 L 56.363281 63.800781 L 56.363281 0.214844 L 0 0.214844 Z M 0 63.800781 "/>
</g>
<g clip-path="url(#clip-1)">
<path fill-rule="nonzero" fill="rgb(94.999695%, 89.99939%, 84.999084%)" fill-opacity="1" d="M 19.261719 0.214844 C 15.476562 7.402344 19.800781 10.074219 21.042969 10.996094 C 22.113281 11.617188 22.199219 12.078125 22.417969 13.019531 C 22.417969 14.636719 21.171875 15.945312 19.632812 15.945312 C 18.734375 15.800781 17.910156 15.652344 17.144531 14.773438 C 17.144531 14.773438 10.117188 4.398438 19.261719 0.214844 Z M 19.261719 0.214844 "/>
</g>
<g clip-path="url(#clip-2)">
<path fill-rule="nonzero" fill="rgb(92.871094%, 83.229065%, 14.369202%)" fill-opacity="1" d="M 12.015625 34.601562 C 5.140625 35.804688 -5.8125 48.238281 5.757812 59.304688 C 17.351562 70.367188 77.683594 62.964844 48.480469 26.945312 C 23.890625 40.164062 32.332031 28.0625 12.015625 34.601562 Z M 12.015625 34.601562 "/>
</g>
<path fill-rule="nonzero" fill="rgb(92.871094%, 83.229065%, 14.369202%)" fill-opacity="1" d="M 36.800781 24.679688 C 36.800781 15.035156 30.546875 7.21875 22.828125 7.21875 C 15.113281 7.21875 8.859375 15.035156 8.859375 24.679688 C 8.859375 34.328125 15.113281 42.144531 22.828125 42.144531 C 30.546875 42.144531 36.800781 34.328125 36.800781 24.679688 Z M 36.800781 24.679688 "/>
<path fill-rule="nonzero" fill="rgb(87.5%, 50%, 12.5%)" fill-opacity="1" d="M 9.027344 25.464844 C 15.648438 23.84375 12.796875 30.1875 23.109375 28.3125 C 0 42.84375 5.195312 28.34375 9.027344 25.464844 Z M 9.027344 25.464844 "/>
<path fill-rule="nonzero" fill="rgb(100%, 99.234009%, 85.00061%)" fill-opacity="1" d="M 22.957031 23.238281 C 23.617188 21.421875 23.101562 19.570312 21.808594 19.101562 C 20.511719 18.628906 18.925781 19.71875 18.269531 21.53125 C 17.609375 23.34375 18.121094 25.195312 19.417969 25.664062 C 20.710938 26.136719 22.296875 25.050781 22.957031 23.238281 Z M 22.957031 23.238281 "/>
<path fill-rule="nonzero" fill="rgb(0%, 0%, 0%)" fill-opacity="1" d="M 22.242188 23.273438 C 22.621094 22.238281 22.503906 21.246094 21.988281 21.058594 C 21.46875 20.867188 20.742188 21.554688 20.367188 22.589844 C 19.992188 23.625 20.105469 24.617188 20.621094 24.808594 C 21.140625 24.996094 21.867188 24.308594 22.242188 23.273438 Z M 22.242188 23.273438 "/>
<path fill-rule="nonzero" fill="rgb(100%, 99.234009%, 85.00061%)" fill-opacity="1" d="M 14.800781 21.085938 C 15.402344 19.425781 14.96875 17.746094 13.828125 17.332031 C 12.6875 16.917969 11.273438 17.925781 10.671875 19.582031 C 10.066406 21.238281 10.503906 22.921875 11.640625 23.335938 C 12.78125 23.75 14.195312 22.742188 14.800781 21.085938 Z M 14.800781 21.085938 "/>
<path fill-rule="nonzero" fill="rgb(0%, 0%, 0%)" fill-opacity="1" d="M 14.179688 21.15625 C 14.515625 20.222656 14.457031 19.34375 14.042969 19.195312 C 13.625 19.042969 13.015625 19.675781 12.675781 20.609375 C 12.335938 21.542969 12.398438 22.421875 12.8125 22.570312 C 13.226562 22.722656 13.839844 22.089844 14.179688 21.15625 Z M 14.179688 21.15625 "/>
<path fill-rule="nonzero" fill="rgb(50%, 50%, 50%)" fill-opacity="1" d="M 37.726562 24.25 C 37.820312 18.460938 36.425781 9.332031 26.824219 7.136719 C 17.378906 4.976562 11.078125 12.683594 10.203125 15.789062 C 14.621094 15.234375 29.832031 17.75 37.726562 24.25 Z M 37.726562 24.25 "/>
<path fill-rule="nonzero" fill="rgb(34.999084%, 34.999084%, 34.999084%)" fill-opacity="1" d="M 26.410156 6.910156 C 23.933594 7.042969 21.980469 8.886719 20.460938 10.679688 C 19.542969 11.800781 18.765625 13.03125 18.105469 14.316406 C 15.871094 13.898438 13.617188 13.585938 11.351562 13.4375 C 10.519531 13.976562 9.175781 16.40625 10.933594 16.40625 C 12.898438 16.667969 14.863281 16.949219 16.808594 17.335938 C 16.808594 17.335938 16.808594 17.335938 18.890625 17.777344 C 25.597656 19.3125 31.53125 21.378906 37.113281 25.457031 C 37.832031 24.792969 38.300781 24.042969 38.128906 23.136719 C 37.964844 22.089844 36.886719 21.703125 36.148438 21.117188 C 31.363281 17.953125 25.863281 16.050781 20.300781 14.773438 C 22.082031 11.621094 24.742188 8.746094 28.226562 7.53125 C 27.722656 7.109375 27.0625 6.902344 26.410156 6.910156 Z M 26.410156 6.910156 "/>
<path fill-rule="nonzero" fill="rgb(75%, 75%, 75%)" fill-opacity="1" d="M 12.128906 15.039062 C 12.128906 14.808594 11.941406 14.621094 11.707031 14.621094 C 11.476562 14.621094 11.289062 14.808594 11.289062 15.039062 C 11.289062 15.273438 11.476562 15.460938 11.707031 15.460938 C 11.941406 15.460938 12.128906 15.273438 12.128906 15.039062 Z M 14.472656 15.320312 C 14.472656 15.089844 14.285156 14.902344 14.054688 14.902344 C 13.824219 14.902344 13.636719 15.089844 13.636719 15.320312 C 13.636719 15.550781 13.824219 15.738281 14.054688 15.738281 C 14.285156 15.738281 14.472656 15.550781 14.472656 15.320312 Z M 17.214844 15.683594 C 17.214844 15.453125 17.027344 15.265625 16.792969 15.265625 C 16.5625 15.265625 16.375 15.453125 16.375 15.683594 C 16.375 15.914062 16.5625 16.101562 16.792969 16.101562 C 17.027344 16.101562 17.214844 15.914062 17.214844 15.683594 Z M 20.203125 16.328125 C 20.203125 16.09375 20.015625 15.90625 19.785156 15.90625 C 19.550781 15.90625 19.363281 16.09375 19.363281 16.328125 C 19.363281 16.558594 19.550781 16.746094 19.785156 16.746094 C 20.015625 16.746094 20.203125 16.558594 20.203125 16.328125 Z M 23.222656 17.136719 C 23.222656 16.90625 23.035156 16.71875 22.800781 16.71875 C 22.570312 16.71875 22.382812 16.90625 22.382812 17.136719 C 22.382812 17.367188 22.570312 17.554688 22.800781 17.554688 C 23.035156 17.554688 23.222656 17.367188 23.222656 17.136719 Z M 26.128906 17.945312 C 26.128906 17.714844 25.941406 17.527344 25.707031 17.527344 C 25.476562 17.527344 25.289062 17.714844 25.289062 17.945312 C 25.289062 18.179688 25.476562 18.367188 25.707031 18.367188 C 25.941406 18.367188 26.128906 18.179688 26.128906 17.945312 Z M 28.808594 18.925781 C 28.808594 18.695312 28.621094 18.507812 28.390625 18.507812 C 28.160156 18.507812 27.972656 18.695312 27.972656 18.925781 C 27.972656 19.15625 28.160156 19.34375 28.390625 19.34375 C 28.621094 19.34375 28.808594 19.15625 28.808594 18.925781 Z M 31.210938 19.847656 C 31.210938 19.617188 31.023438 19.429688 30.792969 19.429688 C 30.5625 19.429688 30.375 19.617188 30.375 19.847656 C 30.375 20.078125 30.5625 20.265625 30.792969 20.265625 C 31.023438 20.265625 31.210938 20.078125 31.210938 19.847656 Z M 33.753906 21.078125 C 33.753906 20.84375 33.566406 20.65625 33.335938 20.65625 C 33.105469 20.65625 32.917969 20.84375 32.917969 21.078125 C 32.917969 21.308594 33.105469 21.496094 33.335938 21.496094 C 33.566406 21.496094 33.753906 21.308594 33.753906 21.078125 Z M 36.101562 22.417969 C 36.101562 22.1875 35.914062 22 35.683594 22 C 35.453125 22 35.265625 22.1875 35.265625 22.417969 C 35.265625 22.648438 35.453125 22.835938 35.683594 22.835938 C 35.914062 22.835938 36.101562 22.648438 36.101562 22.417969 Z M 20.007812 13.8125 C 20.007812 13.578125 19.820312 13.390625 19.589844 13.390625 C 19.355469 13.390625 19.167969 13.578125 19.167969 13.8125 C 19.167969 14.042969 19.355469 14.230469 19.589844 14.230469 C 19.820312 14.230469 20.007812 14.042969 20.007812 13.8125 Z M 21.433594 11.605469 C 21.433594 11.371094 21.246094 11.183594 21.011719 11.183594 C 20.78125 11.183594 20.59375 11.371094 20.59375 11.605469 C 20.59375 11.835938 20.78125 12.023438 21.011719 12.023438 C 21.246094 12.023438 21.433594 11.835938 21.433594 11.605469 Z M 23.136719 9.757812 C 23.136719 9.527344 22.949219 9.339844 22.71875 9.339844 C 22.488281 9.339844 22.296875 9.527344 22.296875 9.757812 C 22.296875 9.992188 22.488281 10.179688 22.71875 10.179688 C 22.949219 10.179688 23.136719 9.992188 23.136719 9.757812 Z M 24.839844 8.445312 C 24.839844 8.214844 24.652344 8.027344 24.421875 8.027344 C 24.191406 8.027344 24.003906 8.214844 24.003906 8.445312 C 24.003906 8.679688 24.191406 8.867188 24.421875 8.867188 C 24.652344 8.867188 24.839844 8.679688 24.839844 8.445312 Z M 26.601562 7.496094 C 26.601562 7.265625 26.414062 7.078125 26.183594 7.078125 C 25.953125 7.078125 25.765625 7.265625 25.765625 7.496094 C 25.765625 7.726562 25.953125 7.914062 26.183594 7.914062 C 26.414062 7.914062 26.601562 7.726562 26.601562 7.496094 Z M 37.835938 23.703125 C 37.835938 23.472656 37.648438 23.285156 37.417969 23.285156 C 37.183594 23.285156 36.996094 23.472656 36.996094 23.703125 C 36.996094 23.933594 37.183594 24.121094 37.417969 24.121094 C 37.648438 24.121094 37.835938 23.933594 37.835938 23.703125 Z M 37.835938 23.703125 "/>
<g clip-path="url(#clip-3)">
<path fill-rule="nonzero" fill="rgb(94.999695%, 89.99939%, 84.999084%)" fill-opacity="1" d="M 31.730469 0.871094 C 35.515625 8.054688 31.191406 10.726562 29.949219 11.652344 C 28.878906 12.273438 28.792969 12.730469 28.574219 13.675781 C 28.574219 15.289062 29.820312 16.597656 31.359375 16.597656 C 32.253906 16.453125 33.082031 16.308594 33.851562 15.429688 C 33.851562 15.429688 40.875 5.050781 31.730469 0.871094 Z M 31.730469 0.871094 "/>
</g>
</svg>
