<?xml version="1.0" encoding="UTF-8"?>
<svg xmlns="http://www.w3.org/2000/svg" xmlns:xlink="http://www.w3.org/1999/xlink" width="75.118" height="63.78" viewBox="0 0 75.118 63.78">
<defs>
<clipPath id="clip-0">
<path clip-rule="nonzero" d="M 0 0.261719 L 74.246094 0.261719 L 74.246094 63.300781 L 0 63.300781 Z M 0 0.261719 "/>
</clipPath>
<clipPath id="clip-1">
<path clip-rule="nonzero" d="M 13 0.261719 L 19 0.261719 L 19 19 L 13 19 Z M 13 0.261719 "/>
</clipPath>
<clipPath id="clip-2">
<path clip-rule="nonzero" d="M 30.363281 7.976562 C 30.902344 1.8125 27.589844 -3.515625 22.964844 -3.921875 C 18.339844 -4.324219 14.15625 0.34375 13.617188 6.511719 C 13.078125 12.675781 16.386719 18.003906 21.011719 18.40625 C 25.636719 18.8125 29.824219 14.140625 30.363281 7.976562 Z M 30.363281 7.976562 "/>
</clipPath>
<clipPath id="clip-3">
<path clip-rule="nonzero" d="M 0 26 L 57 26 L 57 63.300781 L 0 63.300781 Z M 0 26 "/>
</clipPath>
<clipPath id="clip-4">
<path clip-rule="nonzero" d="M 0 26 L 3 26 L 3 63.300781 L 0 63.300781 Z M 0 26 "/>
</clipPath>
<clipPath id="clip-5">
<path clip-rule="nonzero" d="M 10.925781 34.023438 C 4.679688 35.226562 -6.304688 47.695312 5.296875 58.789062 C 16.921875 69.886719 77.414062 62.460938 48.132812 26.347656 C 21.855469 39.597656 31.941406 27.496094 11.570312 46.492188 Z M 10.925781 34.023438 "/>
</clipPath>
<clipPath id="clip-6">
<path clip-rule="nonzero" d="M 5 26 L 10 26 L 10 63.300781 L 5 63.300781 Z M 5 26 "/>
</clipPath>
<clipPath id="clip-7">
<path clip-rule="nonzero" d="M 10.925781 34.023438 C 4.679688 35.226562 -6.304688 47.695312 5.296875 58.789062 C 16.921875 69.886719 77.414062 62.460938 48.132812 26.347656 C 21.855469 39.597656 31.941406 27.496094 11.570312 46.492188 Z M 10.925781 34.023438 "/>
</clipPath>
<clipPath id="clip-8">
<path clip-rule="nonzero" d="M 12 26 L 17 26 L 17 63.300781 L 12 63.300781 Z M 12 26 "/>
</clipPath>
<clipPath id="clip-9">
<path clip-rule="nonzero" d="M 10.925781 34.023438 C 4.679688 35.226562 -6.304688 47.695312 5.296875 58.789062 C 16.921875 69.886719 77.414062 62.460938 48.132812 26.347656 C 21.855469 39.597656 31.941406 27.496094 11.570312 46.492188 Z M 10.925781 34.023438 "/>
</clipPath>
<clipPath id="clip-10">
<path clip-rule="nonzero" d="M 19 26 L 24 26 L 24 63.300781 L 19 63.300781 Z M 19 26 "/>
</clipPath>
<clipPath id="clip-11">
<path clip-rule="nonzero" d="M 10.925781 34.023438 C 4.679688 35.226562 -6.304688 47.695312 5.296875 58.789062 C 16.921875 69.886719 77.414062 62.460938 48.132812 26.347656 C 21.855469 39.597656 31.941406 27.496094 11.570312 46.492188 Z M 10.925781 34.023438 "/>
</clipPath>
<clipPath id="clip-12">
<path clip-rule="nonzero" d="M 26 26 L 31 26 L 31 63.300781 L 26 63.300781 Z M 26 26 "/>
</clipPath>
<clipPath id="clip-13">
<path clip-rule="nonzero" d="M 10.925781 34.023438 C 4.679688 35.226562 -6.304688 47.695312 5.296875 58.789062 C 16.921875 69.886719 77.414062 62.460938 48.132812 26.347656 C 21.855469 39.597656 31.941406 27.496094 11.570312 46.492188 Z M 10.925781 34.023438 "/>
</clipPath>
<clipPath id="clip-14">
<path clip-rule="nonzero" d="M 33 26 L 38 26 L 38 63.300781 L 33 63.300781 Z M 33 26 "/>
</clipPath>
<clipPath id="clip-15">
<path clip-rule="nonzero" d="M 10.925781 34.023438 C 4.679688 35.226562 -6.304688 47.695312 5.296875 58.789062 C 16.921875 69.886719 77.414062 62.460938 48.132812 26.347656 C 21.855469 39.597656 31.941406 27.496094 11.570312 46.492188 Z M 10.925781 34.023438 "/>
</clipPath>
<clipPath id="clip-16">
<path clip-rule="nonzero" d="M 40 26 L 45 26 L 45 63.300781 L 40 63.300781 Z M 40 26 "/>
</clipPath>
<clipPath id="clip-17">
<path clip-rule="nonzero" d="M 10.925781 34.023438 C 4.679688 35.226562 -6.304688 47.695312 5.296875 58.789062 C 16.921875 69.886719 77.414062 62.460938 48.132812 26.347656 C 21.855469 39.597656 31.941406 27.496094 11.570312 46.492188 Z M 10.925781 34.023438 "/>
</clipPath>
<clipPath id="clip-18">
<path clip-rule="nonzero" d="M 47 26 L 52 26 L 52 63.300781 L 47 63.300781 Z M 47 26 "/>
</clipPath>
<clipPath id="clip-19">
<path clip-rule="nonzero" d="M 10.925781 34.023438 C 4.679688 35.226562 -6.304688 47.695312 5.296875 58.789062 C 16.921875 69.886719 77.414062 62.460938 48.132812 26.347656 C 21.855469 39.597656 31.941406 27.496094 11.570312 46.492188 Z M 10.925781 34.023438 "/>
</clipPath>
<clipPath id="clip-20">
<path clip-rule="nonzero" d="M 54 26 L 57 26 L 57 63.300781 L 54 63.300781 Z M 54 26 "/>
</clipPath>
<clipPath id="clip-21">
<path clip-rule="nonzero" d="M 10.925781 34.023438 C 4.679688 35.226562 -6.304688 47.695312 5.296875 58.789062 C 16.921875 69.886719 77.414062 62.460938 48.132812 26.347656 C 21.855469 39.597656 31.941406 27.496094 11.570312 46.492188 Z M 10.925781 34.023438 "/>
</clipPath>
<clipPath id="clip-22">
<path clip-rule="nonzero" d="M 45 24 L 74.246094 24 L 74.246094 42 L 45 42 Z M 45 24 "/>
</clipPath>
<clipPath id="clip-23">
<path clip-rule="nonzero" d="M 24 1 L 32 1 L 32 18 L 24 18 Z M 24 1 "/>
</clipPath>
<clipPath id="clip-24">
<path clip-rule="nonzero" d="M 31.347656 6.992188 C 31.886719 0.824219 28.574219 -4.5 23.949219 -4.90625 C 19.324219 -5.308594 15.140625 -0.640625 14.601562 5.527344 C 14.0625 11.691406 17.371094 17.019531 21.996094 17.421875 C 26.621094 17.828125 30.808594 13.15625 31.347656 6.992188 Z M 31.347656 6.992188 "/>
</clipPath>
</defs>
<g clip-path="url(#clip-0)">
<path fill-rule="nonzero" fill="rgb(89.99939%, 89.99939%, 89.99939%)" fill-opacity="1" d="M 0 63.300781 L 74.246094 63.300781 L 74.246094 0.261719 L 0 0.261719 Z M 0 63.300781 "/>
</g>
<g clip-path="url(#clip-1)">
<g clip-path="url(#clip-2)">
<path fill-rule="nonzero" fill="rgb(0%, 0%, 0%)" fill-opacity="1" d="M 18.90625 10.347656 C 19.445312 4.183594 16.132812 -1.144531 11.507812 -1.546875 C 6.882812 -1.953125 2.699219 2.71875 2.160156 8.882812 C 1.617188 15.050781 4.929688 20.375 9.554688 20.78125 C 14.179688 21.183594 18.367188 16.515625 18.90625 10.347656 Z M 18.90625 10.347656 "/>
</g>
</g>
<g clip-path="url(#clip-3)">
<path fill-rule="nonzero" fill="rgb(0%, 0%, 0%)" fill-opacity="1" d="M 11.570312 34.023438 C 4.679688 35.226562 -6.304688 47.695312 5.296875 58.789062 C 16.921875 69.886719 77.414062 62.460938 48.132812 26.347656 C 23.480469 39.597656 31.941406 27.464844 11.570312 34.023438 Z M 11.570312 34.023438 "/>
</g>
<path fill-rule="nonzero" fill="rgb(0%, 0%, 0%)" fill-opacity="1" d="M 36.421875 24.078125 C 36.421875 14.40625 30.152344 6.566406 22.414062 6.566406 C 14.675781 6.566406 8.40625 14.40625 8.40625 24.078125 C 8.40625 33.746094 14.675781 41.585938 22.414062 41.585938 C 30.152344 41.585938 36.421875 33.746094 36.421875 24.078125 Z M 36.421875 24.078125 "/>
<path fill-rule="nonzero" fill="rgb(87.5%, 50%, 12.5%)" fill-opacity="1" d="M 8.574219 24.859375 C 15.214844 23.234375 12.355469 29.597656 22.695312 27.71875 C -0.476562 42.289062 4.734375 27.746094 8.574219 24.859375 Z M 8.574219 24.859375 "/>
<path fill-rule="nonzero" fill="rgb(100%, 99.234009%, 85.00061%)" fill-opacity="1" d="M 22.542969 22.628906 C 23.203125 20.808594 22.6875 18.953125 21.390625 18.480469 C 20.089844 18.007812 18.5 19.097656 17.839844 20.917969 C 17.179688 22.734375 17.695312 24.589844 18.992188 25.0625 C 20.292969 25.535156 21.878906 24.445312 22.542969 22.628906 Z M 22.542969 22.628906 "/>
<path fill-rule="nonzero" fill="rgb(0%, 0%, 0%)" fill-opacity="1" d="M 21.824219 22.664062 C 22.203125 21.625 22.089844 20.632812 21.570312 20.441406 C 21.050781 20.253906 20.324219 20.941406 19.945312 21.980469 C 19.566406 23.019531 19.679688 24.011719 20.199219 24.203125 C 20.71875 24.390625 21.445312 23.703125 21.824219 22.664062 Z M 21.824219 22.664062 "/>
<path fill-rule="nonzero" fill="rgb(100%, 99.234009%, 85.00061%)" fill-opacity="1" d="M 14.363281 20.46875 C 14.964844 18.808594 14.53125 17.125 13.386719 16.707031 C 12.246094 16.292969 10.828125 17.300781 10.222656 18.964844 C 9.617188 20.625 10.054688 22.308594 11.195312 22.726562 C 12.339844 23.140625 13.757812 22.132812 14.363281 20.46875 Z M 14.363281 20.46875 "/>
<path fill-rule="nonzero" fill="rgb(0%, 0%, 0%)" fill-opacity="1" d="M 13.738281 20.542969 C 14.078125 19.605469 14.019531 18.726562 13.601562 18.574219 C 13.1875 18.421875 12.574219 19.058594 12.234375 19.992188 C 11.894531 20.929688 11.953125 21.808594 12.371094 21.960938 C 12.785156 22.113281 13.398438 21.476562 13.738281 20.542969 Z M 13.738281 20.542969 "/>
<g clip-path="url(#clip-4)">
<g clip-path="url(#clip-5)">
<path fill-rule="nonzero" fill="rgb(100%, 100%, 100%)" fill-opacity="1" d="M -1.121094 74.507812 L -1.121094 -1.140625 L 2.382812 -1.140625 L 2.382812 74.507812 Z M -1.121094 74.507812 "/>
</g>
</g>
<g clip-path="url(#clip-6)">
<g clip-path="url(#clip-7)">
<path fill-rule="nonzero" fill="rgb(100%, 100%, 100%)" fill-opacity="1" d="M 5.882812 74.507812 L 5.882812 -1.140625 L 9.386719 -1.140625 L 9.386719 74.507812 Z M 5.882812 74.507812 "/>
</g>
</g>
<g clip-path="url(#clip-8)">
<g clip-path="url(#clip-9)">
<path fill-rule="nonzero" fill="rgb(100%, 100%, 100%)" fill-opacity="1" d="M 12.886719 74.507812 L 12.886719 -1.140625 L 16.390625 -1.140625 L 16.390625 74.507812 Z M 12.886719 74.507812 "/>
</g>
</g>
<g clip-path="url(#clip-10)">
<g clip-path="url(#clip-11)">
<path fill-rule="nonzero" fill="rgb(100%, 100%, 100%)" fill-opacity="1" d="M 19.890625 74.507812 L 19.890625 -1.140625 L 23.394531 -1.140625 L 23.394531 74.507812 Z M 19.890625 74.507812 "/>
</g>
</g>
<g clip-path="url(#clip-12)">
<g clip-path="url(#clip-13)">
<path fill-rule="nonzero" fill="rgb(100%, 100%, 100%)" fill-opacity="1" d="M 26.898438 74.507812 L 26.898438 -1.140625 L 30.398438 -1.140625 L 30.398438 74.507812 Z M 26.898438 74.507812 "/>
</g>
</g>
<g clip-path="url(#clip-14)">
<g clip-path="url(#clip-15)">
<path fill-rule="nonzero" fill="rgb(100%, 100%, 100%)" fill-opacity="1" d="M 33.902344 74.507812 L 33.902344 -1.140625 L 37.402344 -1.140625 L 37.402344 74.507812 Z M 33.902344 74.507812 "/>
</g>
</g>
<g clip-path="url(#clip-16)">
<g clip-path="url(#clip-17)">
<path fill-rule="nonzero" fill="rgb(100%, 100%, 100%)" fill-opacity="1" d="M 40.90625 74.507812 L 40.90625 -1.140625 L 44.40625 -1.140625 L 44.40625 74.507812 Z M 40.90625 74.507812 "/>
</g>
</g>
<g clip-path="url(#clip-18)">
<g clip-path="url(#clip-19)">
<path fill-rule="nonzero" fill="rgb(100%, 100%, 100%)" fill-opacity="1" d="M 47.910156 74.507812 L 47.910156 -1.140625 L 51.414062 -1.140625 L 51.414062 74.507812 Z M 47.910156 74.507812 "/>
</g>
</g>
<g clip-path="url(#clip-20)">
<g clip-path="url(#clip-21)">
<path fill-rule="nonzero" fill="rgb(100%, 100%, 100%)" fill-opacity="1" d="M 54.914062 74.507812 L 54.914062 -1.140625 L 58.417969 -1.140625 L 58.417969 74.507812 Z M 54.914062 74.507812 "/>
</g>
</g>
<path fill-rule="nonzero" fill="rgb(100%, 100%, 100%)" fill-opacity="1" d="M 18.582031 15.851562 C 23.039062 1.425781 36.058594 14.046875 36.199219 21.683594 C 37.074219 5.960938 16.285156 -6.203125 16.039062 15.207031 C 16.039062 15.207031 18.535156 15.878906 18.582031 15.851562 Z M 18.582031 15.851562 "/>
<g clip-path="url(#clip-22)">
<path fill-rule="nonzero" fill="rgb(0%, 0%, 0%)" fill-opacity="1" d="M 45.523438 28.128906 C 54.71875 28.644531 57.230469 33.589844 61.402344 38.167969 C 66.566406 43.839844 79.9375 41.195312 74.71875 40.878906 C 66.316406 40.371094 67.683594 33.917969 64.179688 29.253906 C 61.042969 25.082031 51.59375 21.429688 45.523438 28.128906 Z M 45.523438 28.128906 "/>
</g>
<g clip-path="url(#clip-23)">
<g clip-path="url(#clip-24)">
<path fill-rule="nonzero" fill="rgb(0%, 0%, 0%)" fill-opacity="1" d="M 41.515625 12.945312 C 42.054688 6.777344 38.742188 1.453125 34.117188 1.046875 C 29.492188 0.640625 25.304688 5.3125 24.765625 11.480469 C 24.226562 17.644531 27.539062 22.972656 32.164062 23.375 C 36.789062 23.78125 40.972656 19.109375 41.515625 12.945312 Z M 41.515625 12.945312 "/>
</g>
</g>
</svg>
