<?xml version="1.0" encoding="UTF-8"?>
<svg xmlns="http://www.w3.org/2000/svg" xmlns:xlink="http://www.w3.org/1999/xlink" width="59.59" height="63.575" viewBox="0 0 59.59 63.575">
<defs>
<clipPath id="clip-0">
<path clip-rule="nonzero" d="M 0 0.0078125 L 59.183594 0.0078125 L 59.183594 63.148438 L 0 63.148438 Z M 0 0.0078125 "/>
</clipPath>
<clipPath id="clip-1">
<path clip-rule="nonzero" d="M 3 26 L 59.183594 26 L 59.183594 63.148438 L 3 63.148438 Z M 3 26 "/>
</clipPath>
<clipPath id="clip-2">
<path clip-rule="nonzero" d="M 11 14 L 40 14 L 40 33 L 11 33 Z M 11 14 "/>
</clipPath>
<clipPath id="clip-3">
<path clip-rule="nonzero" d="M 39.476562 23.734375 C 39.476562 14.015625 33.171875 6.136719 25.398438 6.136719 C 17.625 6.136719 11.324219 14.015625 11.324219 23.734375 C 11.324219 33.449219 17.625 41.328125 25.398438 41.328125 C 33.171875 41.328125 39.476562 33.449219 39.476562 23.734375 Z M 39.476562 23.734375 "/>
</clipPath>
<clipPath id="clip-4">
<path clip-rule="nonzero" d="M 19 0.0078125 L 40 0.0078125 L 40 8 L 19 8 Z M 19 0.0078125 "/>
</clipPath>
</defs>
<g clip-path="url(#clip-0)">
<path fill-rule="nonzero" fill="rgb(89.99939%, 89.99939%, 89.99939%)" fill-opacity="1" d="M 0 63.148438 L 59.183594 63.148438 L 59.183594 0.0078125 L 0 0.0078125 Z M 0 63.148438 "/>
</g>
<g clip-path="url(#clip-1)">
<path fill-rule="nonzero" fill="rgb(92.871094%, 83.229065%, 14.369202%)" fill-opacity="1" d="M 14.503906 33.726562 C 7.578125 34.9375 -3.457031 47.464844 8.199219 58.613281 C 19.882812 69.761719 80.664062 62.300781 51.242188 26.011719 C 26.46875 39.328125 34.972656 27.140625 14.503906 33.726562 Z M 14.503906 33.726562 "/>
</g>
<path fill-rule="nonzero" fill="rgb(92.871094%, 83.229065%, 14.369202%)" fill-opacity="1" d="M 39.476562 23.734375 C 39.476562 14.015625 33.171875 6.136719 25.398438 6.136719 C 17.625 6.136719 11.324219 14.015625 11.324219 23.734375 C 11.324219 33.449219 17.625 41.328125 25.398438 41.328125 C 33.171875 41.328125 39.476562 33.449219 39.476562 23.734375 Z M 39.476562 23.734375 "/>
<path fill-rule="nonzero" fill="rgb(87.5%, 50%, 12.5%)" fill-opacity="1" d="M 11.492188 24.519531 C 18.164062 22.886719 15.292969 29.277344 25.679688 27.394531 C 2.398438 42.03125 7.632812 27.421875 11.492188 24.519531 Z M 11.492188 24.519531 "/>
<g clip-path="url(#clip-2)">
<g clip-path="url(#clip-3)">
<path fill-rule="nonzero" fill="rgb(0%, 0%, 0%)" fill-opacity="1" d="M 8.925781 21.996094 L 11.039062 14.109375 L 49.113281 24.308594 L 47 32.195312 Z M 8.925781 21.996094 "/>
</g>
</g>
<path fill-rule="nonzero" fill="rgb(100%, 99.234009%, 85.00061%)" fill-opacity="1" d="M 25.527344 22.277344 C 26.191406 20.449219 25.675781 18.585938 24.371094 18.109375 C 23.066406 17.636719 21.46875 18.730469 20.804688 20.558594 C 20.136719 22.382812 20.65625 24.25 21.960938 24.722656 C 23.265625 25.199219 24.863281 24.101562 25.527344 22.277344 Z M 25.527344 22.277344 "/>
<path fill-rule="nonzero" fill="rgb(0%, 0%, 0%)" fill-opacity="1" d="M 24.808594 22.3125 C 25.1875 21.269531 25.070312 20.269531 24.550781 20.082031 C 24.027344 19.890625 23.296875 20.582031 22.917969 21.625 C 22.539062 22.667969 22.652344 23.667969 23.175781 23.859375 C 23.695312 24.050781 24.429688 23.355469 24.808594 22.3125 Z M 24.808594 22.3125 "/>
<path fill-rule="nonzero" fill="rgb(100%, 99.234009%, 85.00061%)" fill-opacity="1" d="M 17.308594 20.109375 C 17.917969 18.4375 17.476562 16.746094 16.328125 16.328125 C 15.179688 15.910156 13.757812 16.925781 13.148438 18.59375 C 12.542969 20.265625 12.980469 21.957031 14.128906 22.375 C 15.277344 22.792969 16.699219 21.777344 17.308594 20.109375 Z M 17.308594 20.109375 "/>
<path fill-rule="nonzero" fill="rgb(0%, 0%, 0%)" fill-opacity="1" d="M 16.683594 20.179688 C 17.023438 19.242188 16.964844 18.355469 16.546875 18.203125 C 16.128906 18.050781 15.511719 18.691406 15.167969 19.628906 C 14.828125 20.570312 14.890625 21.453125 15.308594 21.605469 C 15.726562 21.757812 16.339844 21.121094 16.683594 20.179688 Z M 16.683594 20.179688 "/>
<path fill-rule="nonzero" fill="rgb(0%, 0%, 0%)" fill-opacity="1" d="M 6.394531 38.765625 C 37.054688 38.90625 58.339844 47.664062 57.550781 30.910156 C 52.511719 33.191406 51.976562 32.9375 50.511719 28.238281 C 46.089844 31.191406 45.667969 30.265625 44.175781 26.746094 C 38.292969 35.386719 18.753906 35.105469 13.011719 34.710938 C 13.039062 34.066406 8.648438 35.640625 6.675781 38.765625 Z M 6.394531 38.765625 "/>
<path fill-rule="nonzero" fill="rgb(0%, 0%, 0%)" fill-opacity="1" d="M 43.644531 16.433594 C 44.046875 14.929688 37.070312 11.757812 28.058594 9.339844 C 19.046875 6.925781 11.414062 6.1875 11.011719 7.6875 C 10.609375 9.191406 17.589844 12.367188 26.601562 14.78125 C 35.613281 17.195312 43.242188 17.933594 43.644531 16.433594 Z M 43.644531 16.433594 "/>
<path fill-rule="nonzero" fill="rgb(0%, 0%, 0%)" fill-opacity="1" d="M 17.265625 9.363281 L 19.453125 1.207031 L 39.578125 6.597656 L 37.390625 14.757812 Z M 17.265625 9.363281 "/>
<g clip-path="url(#clip-4)">
<path fill-rule="nonzero" fill="rgb(0%, 0%, 0%)" fill-opacity="1" d="M 39.578125 6.597656 C 39.898438 5.398438 35.65625 3.21875 30.097656 1.726562 C 24.539062 0.238281 19.773438 0.0078125 19.453125 1.207031 C 19.132812 2.410156 23.375 4.589844 28.933594 6.078125 C 34.488281 7.566406 39.253906 7.800781 39.578125 6.597656 Z M 39.578125 6.597656 "/>
</g>
<path fill-rule="nonzero" fill="rgb(0%, 0%, 0%)" fill-opacity="1" d="M 0.230469 59.417969 L 0 58.902344 L 25.71875 47.449219 L 25.949219 47.964844 Z M 32.261719 44.84375 C 32.074219 44.417969 30.191406 44.84375 28.0625 45.792969 C 25.929688 46.738281 24.359375 47.855469 24.546875 48.28125 C 24.738281 48.707031 26.617188 48.28125 28.75 47.335938 C 30.878906 46.386719 32.453125 45.273438 32.261719 44.84375 Z M 26.089844 47.59375 C 25.140625 45.464844 24.027344 43.890625 23.601562 44.078125 C 23.175781 44.269531 23.597656 46.148438 24.546875 48.28125 C 25.496094 50.410156 26.609375 51.984375 27.035156 51.792969 C 27.460938 51.605469 27.039062 49.722656 26.089844 47.59375 Z M 26.089844 47.59375 "/>
</svg>
